G04 #@! TF.GenerationSoftware,KiCad,Pcbnew,5.1.8-1.fc33*
G04 #@! TF.CreationDate,2021-08-02T18:18:17+02:00*
G04 #@! TF.ProjectId,sense,73656e73-652e-46b6-9963-61645f706362,rev?*
G04 #@! TF.SameCoordinates,Original*
G04 #@! TF.FileFunction,Legend,Bot*
G04 #@! TF.FilePolarity,Positive*
%FSLAX46Y46*%
G04 Gerber Fmt 4.6, Leading zero omitted, Abs format (unit mm)*
G04 Created by KiCad (PCBNEW 5.1.8-1.fc33) date 2021-08-02 18:18:17*
%MOMM*%
%LPD*%
G01*
G04 APERTURE LIST*
%ADD10C,0.120000*%
%ADD11C,0.150000*%
G04 APERTURE END LIST*
D10*
X148887221Y-118590000D02*
X149212779Y-118590000D01*
X148887221Y-117570000D02*
X149212779Y-117570000D01*
X145940000Y-124070000D02*
X145940000Y-122070000D01*
X145940000Y-122070000D02*
X149840000Y-122070000D01*
X145940000Y-124070000D02*
X149840000Y-124070000D01*
X150440000Y-124450000D02*
X146540000Y-124450000D01*
X150440000Y-126450000D02*
X146540000Y-126450000D01*
X150440000Y-124450000D02*
X150440000Y-126450000D01*
X145950000Y-121560000D02*
X145950000Y-119560000D01*
X145950000Y-119560000D02*
X149850000Y-119560000D01*
X145950000Y-121560000D02*
X149850000Y-121560000D01*
X148510000Y-105157221D02*
X148510000Y-105482779D01*
X147490000Y-105157221D02*
X147490000Y-105482779D01*
X147490000Y-108217221D02*
X147490000Y-108542779D01*
X148510000Y-108217221D02*
X148510000Y-108542779D01*
X177370000Y-109957221D02*
X177370000Y-110282779D01*
X176350000Y-109957221D02*
X176350000Y-110282779D01*
X174690000Y-119337221D02*
X174690000Y-119662779D01*
X175710000Y-119337221D02*
X175710000Y-119662779D01*
X176735000Y-106200000D02*
X176735000Y-108485000D01*
X176735000Y-108485000D02*
X175265000Y-108485000D01*
X175265000Y-108485000D02*
X175265000Y-106200000D01*
X151452779Y-112250000D02*
X151127221Y-112250000D01*
X151452779Y-113270000D02*
X151127221Y-113270000D01*
X163570040Y-114749040D02*
X163851200Y-114749040D01*
X163570040Y-113729040D02*
X163851200Y-113729040D01*
X173132380Y-127041780D02*
X174832380Y-127041780D01*
X174832380Y-127041780D02*
X174832380Y-129591780D01*
X173132380Y-127041780D02*
X173132380Y-129591780D01*
X171316418Y-127885720D02*
X170841902Y-127885720D01*
X171316418Y-126840720D02*
X170841902Y-126840720D01*
X170257702Y-125081560D02*
X170732218Y-125081560D01*
X170257702Y-124036560D02*
X170732218Y-124036560D01*
X157973500Y-110415302D02*
X157973500Y-110889818D01*
X159018500Y-110415302D02*
X159018500Y-110889818D01*
X173409180Y-117787060D02*
X171609180Y-117787060D01*
X171609180Y-114567060D02*
X174059180Y-114567060D01*
X144837258Y-128022500D02*
X144362742Y-128022500D01*
X144837258Y-126977500D02*
X144362742Y-126977500D01*
X143977500Y-133137258D02*
X143977500Y-132662742D01*
X145022500Y-133137258D02*
X145022500Y-132662742D01*
X143010000Y-124240580D02*
X143010000Y-123959420D01*
X141990000Y-124240580D02*
X141990000Y-123959420D01*
X175235000Y-106200000D02*
X175235000Y-108485000D01*
X175235000Y-108485000D02*
X173765000Y-108485000D01*
X173765000Y-108485000D02*
X173765000Y-106200000D01*
X172037258Y-105977500D02*
X171562742Y-105977500D01*
X172037258Y-107022500D02*
X171562742Y-107022500D01*
D11*
X149116666Y-117117142D02*
X149164285Y-117164761D01*
X149307142Y-117212380D01*
X149402380Y-117212380D01*
X149545238Y-117164761D01*
X149640476Y-117069523D01*
X149688095Y-116974285D01*
X149735714Y-116783809D01*
X149735714Y-116640952D01*
X149688095Y-116450476D01*
X149640476Y-116355238D01*
X149545238Y-116260000D01*
X149402380Y-116212380D01*
X149307142Y-116212380D01*
X149164285Y-116260000D01*
X149116666Y-116307619D01*
X148259523Y-116212380D02*
X148450000Y-116212380D01*
X148545238Y-116260000D01*
X148592857Y-116307619D01*
X148688095Y-116450476D01*
X148735714Y-116640952D01*
X148735714Y-117021904D01*
X148688095Y-117117142D01*
X148640476Y-117164761D01*
X148545238Y-117212380D01*
X148354761Y-117212380D01*
X148259523Y-117164761D01*
X148211904Y-117117142D01*
X148164285Y-117021904D01*
X148164285Y-116783809D01*
X148211904Y-116688571D01*
X148259523Y-116640952D01*
X148354761Y-116593333D01*
X148545238Y-116593333D01*
X148640476Y-116640952D01*
X148688095Y-116688571D01*
X148735714Y-116783809D01*
X145468095Y-123552380D02*
X145468095Y-122552380D01*
X145230000Y-122552380D01*
X145087142Y-122600000D01*
X144991904Y-122695238D01*
X144944285Y-122790476D01*
X144896666Y-122980952D01*
X144896666Y-123123809D01*
X144944285Y-123314285D01*
X144991904Y-123409523D01*
X145087142Y-123504761D01*
X145230000Y-123552380D01*
X145468095Y-123552380D01*
X143944285Y-123552380D02*
X144515714Y-123552380D01*
X144230000Y-123552380D02*
X144230000Y-122552380D01*
X144325238Y-122695238D01*
X144420476Y-122790476D01*
X144515714Y-122838095D01*
X145368095Y-125952380D02*
X145368095Y-124952380D01*
X145130000Y-124952380D01*
X144987142Y-125000000D01*
X144891904Y-125095238D01*
X144844285Y-125190476D01*
X144796666Y-125380952D01*
X144796666Y-125523809D01*
X144844285Y-125714285D01*
X144891904Y-125809523D01*
X144987142Y-125904761D01*
X145130000Y-125952380D01*
X145368095Y-125952380D01*
X144415714Y-125047619D02*
X144368095Y-125000000D01*
X144272857Y-124952380D01*
X144034761Y-124952380D01*
X143939523Y-125000000D01*
X143891904Y-125047619D01*
X143844285Y-125142857D01*
X143844285Y-125238095D01*
X143891904Y-125380952D01*
X144463333Y-125952380D01*
X143844285Y-125952380D01*
X145348095Y-121992380D02*
X145348095Y-120992380D01*
X145110000Y-120992380D01*
X144967142Y-121040000D01*
X144871904Y-121135238D01*
X144824285Y-121230476D01*
X144776666Y-121420952D01*
X144776666Y-121563809D01*
X144824285Y-121754285D01*
X144871904Y-121849523D01*
X144967142Y-121944761D01*
X145110000Y-121992380D01*
X145348095Y-121992380D01*
X144443333Y-120992380D02*
X143824285Y-120992380D01*
X144157619Y-121373333D01*
X144014761Y-121373333D01*
X143919523Y-121420952D01*
X143871904Y-121468571D01*
X143824285Y-121563809D01*
X143824285Y-121801904D01*
X143871904Y-121897142D01*
X143919523Y-121944761D01*
X144014761Y-121992380D01*
X144300476Y-121992380D01*
X144395714Y-121944761D01*
X144443333Y-121897142D01*
X147022380Y-105153333D02*
X146546190Y-104820000D01*
X147022380Y-104581904D02*
X146022380Y-104581904D01*
X146022380Y-104962857D01*
X146070000Y-105058095D01*
X146117619Y-105105714D01*
X146212857Y-105153333D01*
X146355714Y-105153333D01*
X146450952Y-105105714D01*
X146498571Y-105058095D01*
X146546190Y-104962857D01*
X146546190Y-104581904D01*
X146022380Y-106010476D02*
X146022380Y-105820000D01*
X146070000Y-105724761D01*
X146117619Y-105677142D01*
X146260476Y-105581904D01*
X146450952Y-105534285D01*
X146831904Y-105534285D01*
X146927142Y-105581904D01*
X146974761Y-105629523D01*
X147022380Y-105724761D01*
X147022380Y-105915238D01*
X146974761Y-106010476D01*
X146927142Y-106058095D01*
X146831904Y-106105714D01*
X146593809Y-106105714D01*
X146498571Y-106058095D01*
X146450952Y-106010476D01*
X146403333Y-105915238D01*
X146403333Y-105724761D01*
X146450952Y-105629523D01*
X146498571Y-105581904D01*
X146593809Y-105534285D01*
X147022380Y-108213333D02*
X146546190Y-107880000D01*
X147022380Y-107641904D02*
X146022380Y-107641904D01*
X146022380Y-108022857D01*
X146070000Y-108118095D01*
X146117619Y-108165714D01*
X146212857Y-108213333D01*
X146355714Y-108213333D01*
X146450952Y-108165714D01*
X146498571Y-108118095D01*
X146546190Y-108022857D01*
X146546190Y-107641904D01*
X146022380Y-108546666D02*
X146022380Y-109213333D01*
X147022380Y-108784761D01*
X178812380Y-109983333D02*
X178336190Y-109650000D01*
X178812380Y-109411904D02*
X177812380Y-109411904D01*
X177812380Y-109792857D01*
X177860000Y-109888095D01*
X177907619Y-109935714D01*
X178002857Y-109983333D01*
X178145714Y-109983333D01*
X178240952Y-109935714D01*
X178288571Y-109888095D01*
X178336190Y-109792857D01*
X178336190Y-109411904D01*
X178812380Y-110459523D02*
X178812380Y-110650000D01*
X178764761Y-110745238D01*
X178717142Y-110792857D01*
X178574285Y-110888095D01*
X178383809Y-110935714D01*
X178002857Y-110935714D01*
X177907619Y-110888095D01*
X177860000Y-110840476D01*
X177812380Y-110745238D01*
X177812380Y-110554761D01*
X177860000Y-110459523D01*
X177907619Y-110411904D01*
X178002857Y-110364285D01*
X178240952Y-110364285D01*
X178336190Y-110411904D01*
X178383809Y-110459523D01*
X178431428Y-110554761D01*
X178431428Y-110745238D01*
X178383809Y-110840476D01*
X178336190Y-110888095D01*
X178240952Y-110935714D01*
X174127142Y-118857142D02*
X174174761Y-118809523D01*
X174222380Y-118666666D01*
X174222380Y-118571428D01*
X174174761Y-118428571D01*
X174079523Y-118333333D01*
X173984285Y-118285714D01*
X173793809Y-118238095D01*
X173650952Y-118238095D01*
X173460476Y-118285714D01*
X173365238Y-118333333D01*
X173270000Y-118428571D01*
X173222380Y-118571428D01*
X173222380Y-118666666D01*
X173270000Y-118809523D01*
X173317619Y-118857142D01*
X174222380Y-119809523D02*
X174222380Y-119238095D01*
X174222380Y-119523809D02*
X173222380Y-119523809D01*
X173365238Y-119428571D01*
X173460476Y-119333333D01*
X173508095Y-119238095D01*
X174222380Y-120285714D02*
X174222380Y-120476190D01*
X174174761Y-120571428D01*
X174127142Y-120619047D01*
X173984285Y-120714285D01*
X173793809Y-120761904D01*
X173412857Y-120761904D01*
X173317619Y-120714285D01*
X173270000Y-120666666D01*
X173222380Y-120571428D01*
X173222380Y-120380952D01*
X173270000Y-120285714D01*
X173317619Y-120238095D01*
X173412857Y-120190476D01*
X173650952Y-120190476D01*
X173746190Y-120238095D01*
X173793809Y-120285714D01*
X173841428Y-120380952D01*
X173841428Y-120571428D01*
X173793809Y-120666666D01*
X173746190Y-120714285D01*
X173650952Y-120761904D01*
X175852380Y-108961904D02*
X174852380Y-108961904D01*
X174852380Y-109200000D01*
X174900000Y-109342857D01*
X174995238Y-109438095D01*
X175090476Y-109485714D01*
X175280952Y-109533333D01*
X175423809Y-109533333D01*
X175614285Y-109485714D01*
X175709523Y-109438095D01*
X175804761Y-109342857D01*
X175852380Y-109200000D01*
X175852380Y-108961904D01*
X174852380Y-110438095D02*
X174852380Y-109961904D01*
X175328571Y-109914285D01*
X175280952Y-109961904D01*
X175233333Y-110057142D01*
X175233333Y-110295238D01*
X175280952Y-110390476D01*
X175328571Y-110438095D01*
X175423809Y-110485714D01*
X175661904Y-110485714D01*
X175757142Y-110438095D01*
X175804761Y-110390476D01*
X175852380Y-110295238D01*
X175852380Y-110057142D01*
X175804761Y-109961904D01*
X175757142Y-109914285D01*
X151932857Y-111687142D02*
X151980476Y-111734761D01*
X152123333Y-111782380D01*
X152218571Y-111782380D01*
X152361428Y-111734761D01*
X152456666Y-111639523D01*
X152504285Y-111544285D01*
X152551904Y-111353809D01*
X152551904Y-111210952D01*
X152504285Y-111020476D01*
X152456666Y-110925238D01*
X152361428Y-110830000D01*
X152218571Y-110782380D01*
X152123333Y-110782380D01*
X151980476Y-110830000D01*
X151932857Y-110877619D01*
X151551904Y-110877619D02*
X151504285Y-110830000D01*
X151409047Y-110782380D01*
X151170952Y-110782380D01*
X151075714Y-110830000D01*
X151028095Y-110877619D01*
X150980476Y-110972857D01*
X150980476Y-111068095D01*
X151028095Y-111210952D01*
X151599523Y-111782380D01*
X150980476Y-111782380D01*
X150028095Y-111782380D02*
X150599523Y-111782380D01*
X150313809Y-111782380D02*
X150313809Y-110782380D01*
X150409047Y-110925238D01*
X150504285Y-111020476D01*
X150599523Y-111068095D01*
X164353477Y-116026182D02*
X164401096Y-116073801D01*
X164543953Y-116121420D01*
X164639191Y-116121420D01*
X164782048Y-116073801D01*
X164877286Y-115978563D01*
X164924905Y-115883325D01*
X164972524Y-115692849D01*
X164972524Y-115549992D01*
X164924905Y-115359516D01*
X164877286Y-115264278D01*
X164782048Y-115169040D01*
X164639191Y-115121420D01*
X164543953Y-115121420D01*
X164401096Y-115169040D01*
X164353477Y-115216659D01*
X163972524Y-115216659D02*
X163924905Y-115169040D01*
X163829667Y-115121420D01*
X163591572Y-115121420D01*
X163496334Y-115169040D01*
X163448715Y-115216659D01*
X163401096Y-115311897D01*
X163401096Y-115407135D01*
X163448715Y-115549992D01*
X164020143Y-116121420D01*
X163401096Y-116121420D01*
X162829667Y-115549992D02*
X162924905Y-115502373D01*
X162972524Y-115454754D01*
X163020143Y-115359516D01*
X163020143Y-115311897D01*
X162972524Y-115216659D01*
X162924905Y-115169040D01*
X162829667Y-115121420D01*
X162639191Y-115121420D01*
X162543953Y-115169040D01*
X162496334Y-115216659D01*
X162448715Y-115311897D01*
X162448715Y-115359516D01*
X162496334Y-115454754D01*
X162543953Y-115502373D01*
X162639191Y-115549992D01*
X162829667Y-115549992D01*
X162924905Y-115597611D01*
X162972524Y-115645230D01*
X163020143Y-115740468D01*
X163020143Y-115930944D01*
X162972524Y-116026182D01*
X162924905Y-116073801D01*
X162829667Y-116121420D01*
X162639191Y-116121420D01*
X162543953Y-116073801D01*
X162496334Y-116026182D01*
X162448715Y-115930944D01*
X162448715Y-115740468D01*
X162496334Y-115645230D01*
X162543953Y-115597611D01*
X162639191Y-115549992D01*
X176512480Y-126686084D02*
X175512480Y-126686084D01*
X175512480Y-126924180D01*
X175560100Y-127067037D01*
X175655338Y-127162275D01*
X175750576Y-127209894D01*
X175941052Y-127257513D01*
X176083909Y-127257513D01*
X176274385Y-127209894D01*
X176369623Y-127162275D01*
X176464861Y-127067037D01*
X176512480Y-126924180D01*
X176512480Y-126686084D01*
X175512480Y-128114656D02*
X175512480Y-127924180D01*
X175560100Y-127828941D01*
X175607719Y-127781322D01*
X175750576Y-127686084D01*
X175941052Y-127638465D01*
X176322004Y-127638465D01*
X176417242Y-127686084D01*
X176464861Y-127733703D01*
X176512480Y-127828941D01*
X176512480Y-128019418D01*
X176464861Y-128114656D01*
X176417242Y-128162275D01*
X176322004Y-128209894D01*
X176083909Y-128209894D01*
X175988671Y-128162275D01*
X175941052Y-128114656D01*
X175893433Y-128019418D01*
X175893433Y-127828941D01*
X175941052Y-127733703D01*
X175988671Y-127686084D01*
X176083909Y-127638465D01*
X171617877Y-129806960D02*
X171951210Y-129330770D01*
X172189305Y-129806960D02*
X172189305Y-128806960D01*
X171808353Y-128806960D01*
X171713115Y-128854580D01*
X171665496Y-128902199D01*
X171617877Y-128997437D01*
X171617877Y-129140294D01*
X171665496Y-129235532D01*
X171713115Y-129283151D01*
X171808353Y-129330770D01*
X172189305Y-129330770D01*
X170665496Y-129806960D02*
X171236924Y-129806960D01*
X170951210Y-129806960D02*
X170951210Y-128806960D01*
X171046448Y-128949818D01*
X171141686Y-129045056D01*
X171236924Y-129092675D01*
X169760734Y-128806960D02*
X170236924Y-128806960D01*
X170284543Y-129283151D01*
X170236924Y-129235532D01*
X170141686Y-129187913D01*
X169903591Y-129187913D01*
X169808353Y-129235532D01*
X169760734Y-129283151D01*
X169713115Y-129378389D01*
X169713115Y-129616484D01*
X169760734Y-129711722D01*
X169808353Y-129759341D01*
X169903591Y-129806960D01*
X170141686Y-129806960D01*
X170236924Y-129759341D01*
X170284543Y-129711722D01*
X170934617Y-123502680D02*
X171267950Y-123026490D01*
X171506045Y-123502680D02*
X171506045Y-122502680D01*
X171125093Y-122502680D01*
X171029855Y-122550300D01*
X170982236Y-122597919D01*
X170934617Y-122693157D01*
X170934617Y-122836014D01*
X170982236Y-122931252D01*
X171029855Y-122978871D01*
X171125093Y-123026490D01*
X171506045Y-123026490D01*
X169982236Y-123502680D02*
X170553664Y-123502680D01*
X170267950Y-123502680D02*
X170267950Y-122502680D01*
X170363188Y-122645538D01*
X170458426Y-122740776D01*
X170553664Y-122788395D01*
X169125093Y-122502680D02*
X169315569Y-122502680D01*
X169410807Y-122550300D01*
X169458426Y-122597919D01*
X169553664Y-122740776D01*
X169601283Y-122931252D01*
X169601283Y-123312204D01*
X169553664Y-123407442D01*
X169506045Y-123455061D01*
X169410807Y-123502680D01*
X169220331Y-123502680D01*
X169125093Y-123455061D01*
X169077474Y-123407442D01*
X169029855Y-123312204D01*
X169029855Y-123074109D01*
X169077474Y-122978871D01*
X169125093Y-122931252D01*
X169220331Y-122883633D01*
X169410807Y-122883633D01*
X169506045Y-122931252D01*
X169553664Y-122978871D01*
X169601283Y-123074109D01*
X157518380Y-110009702D02*
X157042190Y-109676369D01*
X157518380Y-109438274D02*
X156518380Y-109438274D01*
X156518380Y-109819226D01*
X156566000Y-109914464D01*
X156613619Y-109962083D01*
X156708857Y-110009702D01*
X156851714Y-110009702D01*
X156946952Y-109962083D01*
X156994571Y-109914464D01*
X157042190Y-109819226D01*
X157042190Y-109438274D01*
X157518380Y-110962083D02*
X157518380Y-110390655D01*
X157518380Y-110676369D02*
X156518380Y-110676369D01*
X156661238Y-110581131D01*
X156756476Y-110485893D01*
X156804095Y-110390655D01*
X156518380Y-111295417D02*
X156518380Y-111962083D01*
X157518380Y-111533512D01*
X174497904Y-113003080D02*
X174497904Y-113812604D01*
X174450285Y-113907842D01*
X174402666Y-113955461D01*
X174307428Y-114003080D01*
X174116952Y-114003080D01*
X174021714Y-113955461D01*
X173974095Y-113907842D01*
X173926476Y-113812604D01*
X173926476Y-113003080D01*
X173021714Y-113336414D02*
X173021714Y-114003080D01*
X173259809Y-112955461D02*
X173497904Y-113669747D01*
X172878857Y-113669747D01*
X146242857Y-129452380D02*
X146576190Y-128976190D01*
X146814285Y-129452380D02*
X146814285Y-128452380D01*
X146433333Y-128452380D01*
X146338095Y-128500000D01*
X146290476Y-128547619D01*
X146242857Y-128642857D01*
X146242857Y-128785714D01*
X146290476Y-128880952D01*
X146338095Y-128928571D01*
X146433333Y-128976190D01*
X146814285Y-128976190D01*
X145290476Y-129452380D02*
X145861904Y-129452380D01*
X145576190Y-129452380D02*
X145576190Y-128452380D01*
X145671428Y-128595238D01*
X145766666Y-128690476D01*
X145861904Y-128738095D01*
X144909523Y-128547619D02*
X144861904Y-128500000D01*
X144766666Y-128452380D01*
X144528571Y-128452380D01*
X144433333Y-128500000D01*
X144385714Y-128547619D01*
X144338095Y-128642857D01*
X144338095Y-128738095D01*
X144385714Y-128880952D01*
X144957142Y-129452380D01*
X144338095Y-129452380D01*
X145152380Y-135557142D02*
X144676190Y-135223809D01*
X145152380Y-134985714D02*
X144152380Y-134985714D01*
X144152380Y-135366666D01*
X144200000Y-135461904D01*
X144247619Y-135509523D01*
X144342857Y-135557142D01*
X144485714Y-135557142D01*
X144580952Y-135509523D01*
X144628571Y-135461904D01*
X144676190Y-135366666D01*
X144676190Y-134985714D01*
X145152380Y-136509523D02*
X145152380Y-135938095D01*
X145152380Y-136223809D02*
X144152380Y-136223809D01*
X144295238Y-136128571D01*
X144390476Y-136033333D01*
X144438095Y-135938095D01*
X144580952Y-137080952D02*
X144533333Y-136985714D01*
X144485714Y-136938095D01*
X144390476Y-136890476D01*
X144342857Y-136890476D01*
X144247619Y-136938095D01*
X144200000Y-136985714D01*
X144152380Y-137080952D01*
X144152380Y-137271428D01*
X144200000Y-137366666D01*
X144247619Y-137414285D01*
X144342857Y-137461904D01*
X144390476Y-137461904D01*
X144485714Y-137414285D01*
X144533333Y-137366666D01*
X144580952Y-137271428D01*
X144580952Y-137080952D01*
X144628571Y-136985714D01*
X144676190Y-136938095D01*
X144771428Y-136890476D01*
X144961904Y-136890476D01*
X145057142Y-136938095D01*
X145104761Y-136985714D01*
X145152380Y-137080952D01*
X145152380Y-137271428D01*
X145104761Y-137366666D01*
X145057142Y-137414285D01*
X144961904Y-137461904D01*
X144771428Y-137461904D01*
X144676190Y-137414285D01*
X144628571Y-137366666D01*
X144580952Y-137271428D01*
X142542857Y-122057142D02*
X142590476Y-122104761D01*
X142733333Y-122152380D01*
X142828571Y-122152380D01*
X142971428Y-122104761D01*
X143066666Y-122009523D01*
X143114285Y-121914285D01*
X143161904Y-121723809D01*
X143161904Y-121580952D01*
X143114285Y-121390476D01*
X143066666Y-121295238D01*
X142971428Y-121200000D01*
X142828571Y-121152380D01*
X142733333Y-121152380D01*
X142590476Y-121200000D01*
X142542857Y-121247619D01*
X142161904Y-121247619D02*
X142114285Y-121200000D01*
X142019047Y-121152380D01*
X141780952Y-121152380D01*
X141685714Y-121200000D01*
X141638095Y-121247619D01*
X141590476Y-121342857D01*
X141590476Y-121438095D01*
X141638095Y-121580952D01*
X142209523Y-122152380D01*
X141590476Y-122152380D01*
X140733333Y-121485714D02*
X140733333Y-122152380D01*
X140971428Y-121104761D02*
X141209523Y-121819047D01*
X140590476Y-121819047D01*
X174452380Y-108961904D02*
X173452380Y-108961904D01*
X173452380Y-109200000D01*
X173500000Y-109342857D01*
X173595238Y-109438095D01*
X173690476Y-109485714D01*
X173880952Y-109533333D01*
X174023809Y-109533333D01*
X174214285Y-109485714D01*
X174309523Y-109438095D01*
X174404761Y-109342857D01*
X174452380Y-109200000D01*
X174452380Y-108961904D01*
X173785714Y-110390476D02*
X174452380Y-110390476D01*
X173404761Y-110152380D02*
X174119047Y-109914285D01*
X174119047Y-110533333D01*
X172442857Y-105522380D02*
X172776190Y-105046190D01*
X173014285Y-105522380D02*
X173014285Y-104522380D01*
X172633333Y-104522380D01*
X172538095Y-104570000D01*
X172490476Y-104617619D01*
X172442857Y-104712857D01*
X172442857Y-104855714D01*
X172490476Y-104950952D01*
X172538095Y-104998571D01*
X172633333Y-105046190D01*
X173014285Y-105046190D01*
X172061904Y-104617619D02*
X172014285Y-104570000D01*
X171919047Y-104522380D01*
X171680952Y-104522380D01*
X171585714Y-104570000D01*
X171538095Y-104617619D01*
X171490476Y-104712857D01*
X171490476Y-104808095D01*
X171538095Y-104950952D01*
X172109523Y-105522380D01*
X171490476Y-105522380D01*
X171109523Y-104617619D02*
X171061904Y-104570000D01*
X170966666Y-104522380D01*
X170728571Y-104522380D01*
X170633333Y-104570000D01*
X170585714Y-104617619D01*
X170538095Y-104712857D01*
X170538095Y-104808095D01*
X170585714Y-104950952D01*
X171157142Y-105522380D01*
X170538095Y-105522380D01*
M02*
