G04 #@! TF.GenerationSoftware,KiCad,Pcbnew,5.1.8-1.fc33*
G04 #@! TF.CreationDate,2020-12-23T22:24:44+01:00*
G04 #@! TF.ProjectId,venom,76656e6f-6d2e-46b6-9963-61645f706362,rev?*
G04 #@! TF.SameCoordinates,Original*
G04 #@! TF.FileFunction,Paste,Top*
G04 #@! TF.FilePolarity,Positive*
%FSLAX46Y46*%
G04 Gerber Fmt 4.6, Leading zero omitted, Abs format (unit mm)*
G04 Created by KiCad (PCBNEW 5.1.8-1.fc33) date 2020-12-23 22:24:44*
%MOMM*%
%LPD*%
G01*
G04 APERTURE LIST*
%ADD10C,0.125000*%
%ADD11R,0.350000X0.500000*%
%ADD12R,1.800000X4.000000*%
%ADD13R,0.300000X3.000000*%
%ADD14C,0.100000*%
%ADD15R,0.900000X0.800000*%
%ADD16R,1.000000X1.550000*%
%ADD17R,1.060000X0.650000*%
%ADD18R,1.380000X0.450000*%
%ADD19R,2.100000X1.475000*%
%ADD20R,1.900000X2.375000*%
%ADD21R,1.900000X1.175000*%
%ADD22R,0.375000X0.350000*%
%ADD23R,0.350000X0.375000*%
G04 APERTURE END LIST*
D10*
X167580476Y-138716785D02*
X167651904Y-138740595D01*
X167675714Y-138764404D01*
X167699523Y-138812023D01*
X167699523Y-138883452D01*
X167675714Y-138931071D01*
X167651904Y-138954880D01*
X167604285Y-138978690D01*
X167413809Y-138978690D01*
X167413809Y-138478690D01*
X167580476Y-138478690D01*
X167628095Y-138502500D01*
X167651904Y-138526309D01*
X167675714Y-138573928D01*
X167675714Y-138621547D01*
X167651904Y-138669166D01*
X167628095Y-138692976D01*
X167580476Y-138716785D01*
X167413809Y-138716785D01*
X168128095Y-138978690D02*
X168128095Y-138716785D01*
X168104285Y-138669166D01*
X168056666Y-138645357D01*
X167961428Y-138645357D01*
X167913809Y-138669166D01*
X168128095Y-138954880D02*
X168080476Y-138978690D01*
X167961428Y-138978690D01*
X167913809Y-138954880D01*
X167890000Y-138907261D01*
X167890000Y-138859642D01*
X167913809Y-138812023D01*
X167961428Y-138788214D01*
X168080476Y-138788214D01*
X168128095Y-138764404D01*
X168366190Y-138978690D02*
X168366190Y-138645357D01*
X168366190Y-138740595D02*
X168390000Y-138692976D01*
X168413809Y-138669166D01*
X168461428Y-138645357D01*
X168509047Y-138645357D01*
X168604285Y-138645357D02*
X168794761Y-138645357D01*
X168675714Y-138478690D02*
X168675714Y-138907261D01*
X168699523Y-138954880D01*
X168747142Y-138978690D01*
X168794761Y-138978690D01*
X168985238Y-138478690D02*
X168937619Y-138573928D01*
X169175714Y-138954880D02*
X169223333Y-138978690D01*
X169318571Y-138978690D01*
X169366190Y-138954880D01*
X169390000Y-138907261D01*
X169390000Y-138883452D01*
X169366190Y-138835833D01*
X169318571Y-138812023D01*
X169247142Y-138812023D01*
X169199523Y-138788214D01*
X169175714Y-138740595D01*
X169175714Y-138716785D01*
X169199523Y-138669166D01*
X169247142Y-138645357D01*
X169318571Y-138645357D01*
X169366190Y-138669166D01*
X167735238Y-139353690D02*
X167901904Y-139853690D01*
X168068571Y-139353690D01*
X168235238Y-139591785D02*
X168401904Y-139591785D01*
X168473333Y-139853690D02*
X168235238Y-139853690D01*
X168235238Y-139353690D01*
X168473333Y-139353690D01*
X168687619Y-139853690D02*
X168687619Y-139353690D01*
X168973333Y-139853690D01*
X168973333Y-139353690D01*
X169306666Y-139353690D02*
X169401904Y-139353690D01*
X169449523Y-139377500D01*
X169497142Y-139425119D01*
X169520952Y-139520357D01*
X169520952Y-139687023D01*
X169497142Y-139782261D01*
X169449523Y-139829880D01*
X169401904Y-139853690D01*
X169306666Y-139853690D01*
X169259047Y-139829880D01*
X169211428Y-139782261D01*
X169187619Y-139687023D01*
X169187619Y-139520357D01*
X169211428Y-139425119D01*
X169259047Y-139377500D01*
X169306666Y-139353690D01*
X169735238Y-139853690D02*
X169735238Y-139353690D01*
X169901904Y-139710833D01*
X170068571Y-139353690D01*
X170068571Y-139853690D01*
X170640000Y-139520357D02*
X170759047Y-139853690D01*
X170878095Y-139520357D01*
X171330476Y-139853690D02*
X171044761Y-139853690D01*
X171187619Y-139853690D02*
X171187619Y-139353690D01*
X171140000Y-139425119D01*
X171092380Y-139472738D01*
X171044761Y-139496547D01*
X171544761Y-139806071D02*
X171568571Y-139829880D01*
X171544761Y-139853690D01*
X171520952Y-139829880D01*
X171544761Y-139806071D01*
X171544761Y-139853690D01*
X171878095Y-139353690D02*
X171925714Y-139353690D01*
X171973333Y-139377500D01*
X171997142Y-139401309D01*
X172020952Y-139448928D01*
X172044761Y-139544166D01*
X172044761Y-139663214D01*
X172020952Y-139758452D01*
X171997142Y-139806071D01*
X171973333Y-139829880D01*
X171925714Y-139853690D01*
X171878095Y-139853690D01*
X171830476Y-139829880D01*
X171806666Y-139806071D01*
X171782857Y-139758452D01*
X171759047Y-139663214D01*
X171759047Y-139544166D01*
X171782857Y-139448928D01*
X171806666Y-139401309D01*
X171830476Y-139377500D01*
X171878095Y-139353690D01*
D11*
X168045000Y-104505000D03*
X168695000Y-104505000D03*
X169345000Y-104505000D03*
X169995000Y-104505000D03*
X169995000Y-102455000D03*
X169345000Y-102455000D03*
X168695000Y-102455000D03*
X168045000Y-102455000D03*
D12*
X167160000Y-132510000D03*
X151860000Y-132510000D03*
D13*
X153760000Y-130710000D03*
X154260000Y-130710000D03*
X154760000Y-130710000D03*
X155260000Y-130710000D03*
X155760000Y-130710000D03*
X156260000Y-130710000D03*
X156760000Y-130710000D03*
X157260000Y-130710000D03*
X157760000Y-130710000D03*
X158260000Y-130710000D03*
X158760000Y-130710000D03*
X159260000Y-130710000D03*
X159760000Y-130710000D03*
X160260000Y-130710000D03*
X160760000Y-130710000D03*
X161260000Y-130710000D03*
X161760000Y-130710000D03*
X162260000Y-130710000D03*
X162760000Y-130710000D03*
X163260000Y-130710000D03*
X163760000Y-130710000D03*
X164260000Y-130710000D03*
X164760000Y-130710000D03*
X165260000Y-130710000D03*
D14*
G36*
X140863109Y-125640513D02*
G01*
X141729135Y-125140513D01*
X142504135Y-126482853D01*
X141638109Y-126982853D01*
X140863109Y-125640513D01*
G37*
G36*
X143488109Y-130187147D02*
G01*
X144354135Y-129687147D01*
X145129135Y-131029487D01*
X144263109Y-131529487D01*
X143488109Y-130187147D01*
G37*
G36*
X142015865Y-131037147D02*
G01*
X142881891Y-130537147D01*
X143656891Y-131879487D01*
X142790865Y-132379487D01*
X142015865Y-131037147D01*
G37*
G36*
X139390865Y-126490513D02*
G01*
X140256891Y-125990513D01*
X141031891Y-127332853D01*
X140165865Y-127832853D01*
X139390865Y-126490513D01*
G37*
G36*
G01*
X155215000Y-100964999D02*
X155215000Y-103115001D01*
G75*
G02*
X154965001Y-103365000I-249999J0D01*
G01*
X154114999Y-103365000D01*
G75*
G02*
X153865000Y-103115001I0J249999D01*
G01*
X153865000Y-100964999D01*
G75*
G02*
X154114999Y-100715000I249999J0D01*
G01*
X154965001Y-100715000D01*
G75*
G02*
X155215000Y-100964999I0J-249999D01*
G01*
G37*
G36*
G01*
X150715000Y-100964999D02*
X150715000Y-103115001D01*
G75*
G02*
X150465001Y-103365000I-249999J0D01*
G01*
X149614999Y-103365000D01*
G75*
G02*
X149365000Y-103115001I0J249999D01*
G01*
X149365000Y-100964999D01*
G75*
G02*
X149614999Y-100715000I249999J0D01*
G01*
X150465001Y-100715000D01*
G75*
G02*
X150715000Y-100964999I0J-249999D01*
G01*
G37*
G36*
G01*
X168306000Y-100403750D02*
X168306000Y-100916250D01*
G75*
G02*
X168087250Y-101135000I-218750J0D01*
G01*
X167649750Y-101135000D01*
G75*
G02*
X167431000Y-100916250I0J218750D01*
G01*
X167431000Y-100403750D01*
G75*
G02*
X167649750Y-100185000I218750J0D01*
G01*
X168087250Y-100185000D01*
G75*
G02*
X168306000Y-100403750I0J-218750D01*
G01*
G37*
G36*
G01*
X169881000Y-100403750D02*
X169881000Y-100916250D01*
G75*
G02*
X169662250Y-101135000I-218750J0D01*
G01*
X169224750Y-101135000D01*
G75*
G02*
X169006000Y-100916250I0J218750D01*
G01*
X169006000Y-100403750D01*
G75*
G02*
X169224750Y-100185000I218750J0D01*
G01*
X169662250Y-100185000D01*
G75*
G02*
X169881000Y-100403750I0J-218750D01*
G01*
G37*
G36*
G01*
X166166250Y-101485000D02*
X165653750Y-101485000D01*
G75*
G02*
X165435000Y-101266250I0J218750D01*
G01*
X165435000Y-100828750D01*
G75*
G02*
X165653750Y-100610000I218750J0D01*
G01*
X166166250Y-100610000D01*
G75*
G02*
X166385000Y-100828750I0J-218750D01*
G01*
X166385000Y-101266250D01*
G75*
G02*
X166166250Y-101485000I-218750J0D01*
G01*
G37*
G36*
G01*
X166166250Y-99910000D02*
X165653750Y-99910000D01*
G75*
G02*
X165435000Y-99691250I0J218750D01*
G01*
X165435000Y-99253750D01*
G75*
G02*
X165653750Y-99035000I218750J0D01*
G01*
X166166250Y-99035000D01*
G75*
G02*
X166385000Y-99253750I0J-218750D01*
G01*
X166385000Y-99691250D01*
G75*
G02*
X166166250Y-99910000I-218750J0D01*
G01*
G37*
G36*
G01*
X170195000Y-110696250D02*
X170195000Y-110183750D01*
G75*
G02*
X170413750Y-109965000I218750J0D01*
G01*
X170851250Y-109965000D01*
G75*
G02*
X171070000Y-110183750I0J-218750D01*
G01*
X171070000Y-110696250D01*
G75*
G02*
X170851250Y-110915000I-218750J0D01*
G01*
X170413750Y-110915000D01*
G75*
G02*
X170195000Y-110696250I0J218750D01*
G01*
G37*
G36*
G01*
X171770000Y-110696250D02*
X171770000Y-110183750D01*
G75*
G02*
X171988750Y-109965000I218750J0D01*
G01*
X172426250Y-109965000D01*
G75*
G02*
X172645000Y-110183750I0J-218750D01*
G01*
X172645000Y-110696250D01*
G75*
G02*
X172426250Y-110915000I-218750J0D01*
G01*
X171988750Y-110915000D01*
G75*
G02*
X171770000Y-110696250I0J218750D01*
G01*
G37*
G36*
G01*
X171790000Y-108806250D02*
X171790000Y-108293750D01*
G75*
G02*
X172008750Y-108075000I218750J0D01*
G01*
X172446250Y-108075000D01*
G75*
G02*
X172665000Y-108293750I0J-218750D01*
G01*
X172665000Y-108806250D01*
G75*
G02*
X172446250Y-109025000I-218750J0D01*
G01*
X172008750Y-109025000D01*
G75*
G02*
X171790000Y-108806250I0J218750D01*
G01*
G37*
G36*
G01*
X170215000Y-108806250D02*
X170215000Y-108293750D01*
G75*
G02*
X170433750Y-108075000I218750J0D01*
G01*
X170871250Y-108075000D01*
G75*
G02*
X171090000Y-108293750I0J-218750D01*
G01*
X171090000Y-108806250D01*
G75*
G02*
X170871250Y-109025000I-218750J0D01*
G01*
X170433750Y-109025000D01*
G75*
G02*
X170215000Y-108806250I0J218750D01*
G01*
G37*
G36*
G01*
X173480000Y-118536250D02*
X173480000Y-118023750D01*
G75*
G02*
X173698750Y-117805000I218750J0D01*
G01*
X174136250Y-117805000D01*
G75*
G02*
X174355000Y-118023750I0J-218750D01*
G01*
X174355000Y-118536250D01*
G75*
G02*
X174136250Y-118755000I-218750J0D01*
G01*
X173698750Y-118755000D01*
G75*
G02*
X173480000Y-118536250I0J218750D01*
G01*
G37*
G36*
G01*
X171905000Y-118536250D02*
X171905000Y-118023750D01*
G75*
G02*
X172123750Y-117805000I218750J0D01*
G01*
X172561250Y-117805000D01*
G75*
G02*
X172780000Y-118023750I0J-218750D01*
G01*
X172780000Y-118536250D01*
G75*
G02*
X172561250Y-118755000I-218750J0D01*
G01*
X172123750Y-118755000D01*
G75*
G02*
X171905000Y-118536250I0J218750D01*
G01*
G37*
G36*
G01*
X165396250Y-127825000D02*
X164883750Y-127825000D01*
G75*
G02*
X164665000Y-127606250I0J218750D01*
G01*
X164665000Y-127168750D01*
G75*
G02*
X164883750Y-126950000I218750J0D01*
G01*
X165396250Y-126950000D01*
G75*
G02*
X165615000Y-127168750I0J-218750D01*
G01*
X165615000Y-127606250D01*
G75*
G02*
X165396250Y-127825000I-218750J0D01*
G01*
G37*
G36*
G01*
X165396250Y-126250000D02*
X164883750Y-126250000D01*
G75*
G02*
X164665000Y-126031250I0J218750D01*
G01*
X164665000Y-125593750D01*
G75*
G02*
X164883750Y-125375000I218750J0D01*
G01*
X165396250Y-125375000D01*
G75*
G02*
X165615000Y-125593750I0J-218750D01*
G01*
X165615000Y-126031250D01*
G75*
G02*
X165396250Y-126250000I-218750J0D01*
G01*
G37*
G36*
G01*
X163486250Y-127805000D02*
X162973750Y-127805000D01*
G75*
G02*
X162755000Y-127586250I0J218750D01*
G01*
X162755000Y-127148750D01*
G75*
G02*
X162973750Y-126930000I218750J0D01*
G01*
X163486250Y-126930000D01*
G75*
G02*
X163705000Y-127148750I0J-218750D01*
G01*
X163705000Y-127586250D01*
G75*
G02*
X163486250Y-127805000I-218750J0D01*
G01*
G37*
G36*
G01*
X163486250Y-126230000D02*
X162973750Y-126230000D01*
G75*
G02*
X162755000Y-126011250I0J218750D01*
G01*
X162755000Y-125573750D01*
G75*
G02*
X162973750Y-125355000I218750J0D01*
G01*
X163486250Y-125355000D01*
G75*
G02*
X163705000Y-125573750I0J-218750D01*
G01*
X163705000Y-126011250D01*
G75*
G02*
X163486250Y-126230000I-218750J0D01*
G01*
G37*
G36*
G01*
X158576250Y-123430000D02*
X158063750Y-123430000D01*
G75*
G02*
X157845000Y-123211250I0J218750D01*
G01*
X157845000Y-122773750D01*
G75*
G02*
X158063750Y-122555000I218750J0D01*
G01*
X158576250Y-122555000D01*
G75*
G02*
X158795000Y-122773750I0J-218750D01*
G01*
X158795000Y-123211250D01*
G75*
G02*
X158576250Y-123430000I-218750J0D01*
G01*
G37*
G36*
G01*
X158576250Y-125005000D02*
X158063750Y-125005000D01*
G75*
G02*
X157845000Y-124786250I0J218750D01*
G01*
X157845000Y-124348750D01*
G75*
G02*
X158063750Y-124130000I218750J0D01*
G01*
X158576250Y-124130000D01*
G75*
G02*
X158795000Y-124348750I0J-218750D01*
G01*
X158795000Y-124786250D01*
G75*
G02*
X158576250Y-125005000I-218750J0D01*
G01*
G37*
G36*
G01*
X157066250Y-123430000D02*
X156553750Y-123430000D01*
G75*
G02*
X156335000Y-123211250I0J218750D01*
G01*
X156335000Y-122773750D01*
G75*
G02*
X156553750Y-122555000I218750J0D01*
G01*
X157066250Y-122555000D01*
G75*
G02*
X157285000Y-122773750I0J-218750D01*
G01*
X157285000Y-123211250D01*
G75*
G02*
X157066250Y-123430000I-218750J0D01*
G01*
G37*
G36*
G01*
X157066250Y-125005000D02*
X156553750Y-125005000D01*
G75*
G02*
X156335000Y-124786250I0J218750D01*
G01*
X156335000Y-124348750D01*
G75*
G02*
X156553750Y-124130000I218750J0D01*
G01*
X157066250Y-124130000D01*
G75*
G02*
X157285000Y-124348750I0J-218750D01*
G01*
X157285000Y-124786250D01*
G75*
G02*
X157066250Y-125005000I-218750J0D01*
G01*
G37*
G36*
G01*
X155556250Y-125005000D02*
X155043750Y-125005000D01*
G75*
G02*
X154825000Y-124786250I0J218750D01*
G01*
X154825000Y-124348750D01*
G75*
G02*
X155043750Y-124130000I218750J0D01*
G01*
X155556250Y-124130000D01*
G75*
G02*
X155775000Y-124348750I0J-218750D01*
G01*
X155775000Y-124786250D01*
G75*
G02*
X155556250Y-125005000I-218750J0D01*
G01*
G37*
G36*
G01*
X155556250Y-123430000D02*
X155043750Y-123430000D01*
G75*
G02*
X154825000Y-123211250I0J218750D01*
G01*
X154825000Y-122773750D01*
G75*
G02*
X155043750Y-122555000I218750J0D01*
G01*
X155556250Y-122555000D01*
G75*
G02*
X155775000Y-122773750I0J-218750D01*
G01*
X155775000Y-123211250D01*
G75*
G02*
X155556250Y-123430000I-218750J0D01*
G01*
G37*
G36*
G01*
X154046250Y-124995000D02*
X153533750Y-124995000D01*
G75*
G02*
X153315000Y-124776250I0J218750D01*
G01*
X153315000Y-124338750D01*
G75*
G02*
X153533750Y-124120000I218750J0D01*
G01*
X154046250Y-124120000D01*
G75*
G02*
X154265000Y-124338750I0J-218750D01*
G01*
X154265000Y-124776250D01*
G75*
G02*
X154046250Y-124995000I-218750J0D01*
G01*
G37*
G36*
G01*
X154046250Y-123420000D02*
X153533750Y-123420000D01*
G75*
G02*
X153315000Y-123201250I0J218750D01*
G01*
X153315000Y-122763750D01*
G75*
G02*
X153533750Y-122545000I218750J0D01*
G01*
X154046250Y-122545000D01*
G75*
G02*
X154265000Y-122763750I0J-218750D01*
G01*
X154265000Y-123201250D01*
G75*
G02*
X154046250Y-123420000I-218750J0D01*
G01*
G37*
G36*
G01*
X152536250Y-123420000D02*
X152023750Y-123420000D01*
G75*
G02*
X151805000Y-123201250I0J218750D01*
G01*
X151805000Y-122763750D01*
G75*
G02*
X152023750Y-122545000I218750J0D01*
G01*
X152536250Y-122545000D01*
G75*
G02*
X152755000Y-122763750I0J-218750D01*
G01*
X152755000Y-123201250D01*
G75*
G02*
X152536250Y-123420000I-218750J0D01*
G01*
G37*
G36*
G01*
X152536250Y-124995000D02*
X152023750Y-124995000D01*
G75*
G02*
X151805000Y-124776250I0J218750D01*
G01*
X151805000Y-124338750D01*
G75*
G02*
X152023750Y-124120000I218750J0D01*
G01*
X152536250Y-124120000D01*
G75*
G02*
X152755000Y-124338750I0J-218750D01*
G01*
X152755000Y-124776250D01*
G75*
G02*
X152536250Y-124995000I-218750J0D01*
G01*
G37*
G36*
G01*
X151026250Y-124995000D02*
X150513750Y-124995000D01*
G75*
G02*
X150295000Y-124776250I0J218750D01*
G01*
X150295000Y-124338750D01*
G75*
G02*
X150513750Y-124120000I218750J0D01*
G01*
X151026250Y-124120000D01*
G75*
G02*
X151245000Y-124338750I0J-218750D01*
G01*
X151245000Y-124776250D01*
G75*
G02*
X151026250Y-124995000I-218750J0D01*
G01*
G37*
G36*
G01*
X151026250Y-123420000D02*
X150513750Y-123420000D01*
G75*
G02*
X150295000Y-123201250I0J218750D01*
G01*
X150295000Y-122763750D01*
G75*
G02*
X150513750Y-122545000I218750J0D01*
G01*
X151026250Y-122545000D01*
G75*
G02*
X151245000Y-122763750I0J-218750D01*
G01*
X151245000Y-123201250D01*
G75*
G02*
X151026250Y-123420000I-218750J0D01*
G01*
G37*
G36*
G01*
X149516250Y-123420000D02*
X149003750Y-123420000D01*
G75*
G02*
X148785000Y-123201250I0J218750D01*
G01*
X148785000Y-122763750D01*
G75*
G02*
X149003750Y-122545000I218750J0D01*
G01*
X149516250Y-122545000D01*
G75*
G02*
X149735000Y-122763750I0J-218750D01*
G01*
X149735000Y-123201250D01*
G75*
G02*
X149516250Y-123420000I-218750J0D01*
G01*
G37*
G36*
G01*
X149516250Y-124995000D02*
X149003750Y-124995000D01*
G75*
G02*
X148785000Y-124776250I0J218750D01*
G01*
X148785000Y-124338750D01*
G75*
G02*
X149003750Y-124120000I218750J0D01*
G01*
X149516250Y-124120000D01*
G75*
G02*
X149735000Y-124338750I0J-218750D01*
G01*
X149735000Y-124776250D01*
G75*
G02*
X149516250Y-124995000I-218750J0D01*
G01*
G37*
G36*
G01*
X148006250Y-123420000D02*
X147493750Y-123420000D01*
G75*
G02*
X147275000Y-123201250I0J218750D01*
G01*
X147275000Y-122763750D01*
G75*
G02*
X147493750Y-122545000I218750J0D01*
G01*
X148006250Y-122545000D01*
G75*
G02*
X148225000Y-122763750I0J-218750D01*
G01*
X148225000Y-123201250D01*
G75*
G02*
X148006250Y-123420000I-218750J0D01*
G01*
G37*
G36*
G01*
X148006250Y-124995000D02*
X147493750Y-124995000D01*
G75*
G02*
X147275000Y-124776250I0J218750D01*
G01*
X147275000Y-124338750D01*
G75*
G02*
X147493750Y-124120000I218750J0D01*
G01*
X148006250Y-124120000D01*
G75*
G02*
X148225000Y-124338750I0J-218750D01*
G01*
X148225000Y-124776250D01*
G75*
G02*
X148006250Y-124995000I-218750J0D01*
G01*
G37*
G36*
G01*
X155191750Y-107284000D02*
X155704250Y-107284000D01*
G75*
G02*
X155923000Y-107502750I0J-218750D01*
G01*
X155923000Y-107940250D01*
G75*
G02*
X155704250Y-108159000I-218750J0D01*
G01*
X155191750Y-108159000D01*
G75*
G02*
X154973000Y-107940250I0J218750D01*
G01*
X154973000Y-107502750D01*
G75*
G02*
X155191750Y-107284000I218750J0D01*
G01*
G37*
G36*
G01*
X155191750Y-105709000D02*
X155704250Y-105709000D01*
G75*
G02*
X155923000Y-105927750I0J-218750D01*
G01*
X155923000Y-106365250D01*
G75*
G02*
X155704250Y-106584000I-218750J0D01*
G01*
X155191750Y-106584000D01*
G75*
G02*
X154973000Y-106365250I0J218750D01*
G01*
X154973000Y-105927750D01*
G75*
G02*
X155191750Y-105709000I218750J0D01*
G01*
G37*
G36*
G01*
X161626000Y-103942170D02*
X161626000Y-104454670D01*
G75*
G02*
X161407250Y-104673420I-218750J0D01*
G01*
X160969750Y-104673420D01*
G75*
G02*
X160751000Y-104454670I0J218750D01*
G01*
X160751000Y-103942170D01*
G75*
G02*
X160969750Y-103723420I218750J0D01*
G01*
X161407250Y-103723420D01*
G75*
G02*
X161626000Y-103942170I0J-218750D01*
G01*
G37*
G36*
G01*
X160051000Y-103942170D02*
X160051000Y-104454670D01*
G75*
G02*
X159832250Y-104673420I-218750J0D01*
G01*
X159394750Y-104673420D01*
G75*
G02*
X159176000Y-104454670I0J218750D01*
G01*
X159176000Y-103942170D01*
G75*
G02*
X159394750Y-103723420I218750J0D01*
G01*
X159832250Y-103723420D01*
G75*
G02*
X160051000Y-103942170I0J-218750D01*
G01*
G37*
D15*
X172548040Y-125844260D03*
X172548040Y-127744260D03*
X174548040Y-126794260D03*
G36*
G01*
X151635750Y-107377500D02*
X152148250Y-107377500D01*
G75*
G02*
X152367000Y-107596250I0J-218750D01*
G01*
X152367000Y-108033750D01*
G75*
G02*
X152148250Y-108252500I-218750J0D01*
G01*
X151635750Y-108252500D01*
G75*
G02*
X151417000Y-108033750I0J218750D01*
G01*
X151417000Y-107596250D01*
G75*
G02*
X151635750Y-107377500I218750J0D01*
G01*
G37*
G36*
G01*
X151635750Y-108952500D02*
X152148250Y-108952500D01*
G75*
G02*
X152367000Y-109171250I0J-218750D01*
G01*
X152367000Y-109608750D01*
G75*
G02*
X152148250Y-109827500I-218750J0D01*
G01*
X151635750Y-109827500D01*
G75*
G02*
X151417000Y-109608750I0J218750D01*
G01*
X151417000Y-109171250D01*
G75*
G02*
X151635750Y-108952500I218750J0D01*
G01*
G37*
G36*
G01*
X168480000Y-106113750D02*
X168480000Y-106626250D01*
G75*
G02*
X168261250Y-106845000I-218750J0D01*
G01*
X167823750Y-106845000D01*
G75*
G02*
X167605000Y-106626250I0J218750D01*
G01*
X167605000Y-106113750D01*
G75*
G02*
X167823750Y-105895000I218750J0D01*
G01*
X168261250Y-105895000D01*
G75*
G02*
X168480000Y-106113750I0J-218750D01*
G01*
G37*
G36*
G01*
X170055000Y-106113750D02*
X170055000Y-106626250D01*
G75*
G02*
X169836250Y-106845000I-218750J0D01*
G01*
X169398750Y-106845000D01*
G75*
G02*
X169180000Y-106626250I0J218750D01*
G01*
X169180000Y-106113750D01*
G75*
G02*
X169398750Y-105895000I218750J0D01*
G01*
X169836250Y-105895000D01*
G75*
G02*
X170055000Y-106113750I0J-218750D01*
G01*
G37*
G36*
G01*
X166046250Y-106165000D02*
X165533750Y-106165000D01*
G75*
G02*
X165315000Y-105946250I0J218750D01*
G01*
X165315000Y-105508750D01*
G75*
G02*
X165533750Y-105290000I218750J0D01*
G01*
X166046250Y-105290000D01*
G75*
G02*
X166265000Y-105508750I0J-218750D01*
G01*
X166265000Y-105946250D01*
G75*
G02*
X166046250Y-106165000I-218750J0D01*
G01*
G37*
G36*
G01*
X166046250Y-104590000D02*
X165533750Y-104590000D01*
G75*
G02*
X165315000Y-104371250I0J218750D01*
G01*
X165315000Y-103933750D01*
G75*
G02*
X165533750Y-103715000I218750J0D01*
G01*
X166046250Y-103715000D01*
G75*
G02*
X166265000Y-103933750I0J-218750D01*
G01*
X166265000Y-104371250D01*
G75*
G02*
X166046250Y-104590000I-218750J0D01*
G01*
G37*
G36*
G01*
X170360630Y-128614720D02*
X170873130Y-128614720D01*
G75*
G02*
X171091880Y-128833470I0J-218750D01*
G01*
X171091880Y-129270970D01*
G75*
G02*
X170873130Y-129489720I-218750J0D01*
G01*
X170360630Y-129489720D01*
G75*
G02*
X170141880Y-129270970I0J218750D01*
G01*
X170141880Y-128833470D01*
G75*
G02*
X170360630Y-128614720I218750J0D01*
G01*
G37*
G36*
G01*
X170360630Y-130189720D02*
X170873130Y-130189720D01*
G75*
G02*
X171091880Y-130408470I0J-218750D01*
G01*
X171091880Y-130845970D01*
G75*
G02*
X170873130Y-131064720I-218750J0D01*
G01*
X170360630Y-131064720D01*
G75*
G02*
X170141880Y-130845970I0J218750D01*
G01*
X170141880Y-130408470D01*
G75*
G02*
X170360630Y-130189720I218750J0D01*
G01*
G37*
G36*
G01*
X173654200Y-129587970D02*
X173654200Y-129075470D01*
G75*
G02*
X173872950Y-128856720I218750J0D01*
G01*
X174310450Y-128856720D01*
G75*
G02*
X174529200Y-129075470I0J-218750D01*
G01*
X174529200Y-129587970D01*
G75*
G02*
X174310450Y-129806720I-218750J0D01*
G01*
X173872950Y-129806720D01*
G75*
G02*
X173654200Y-129587970I0J218750D01*
G01*
G37*
G36*
G01*
X172079200Y-129587970D02*
X172079200Y-129075470D01*
G75*
G02*
X172297950Y-128856720I218750J0D01*
G01*
X172735450Y-128856720D01*
G75*
G02*
X172954200Y-129075470I0J-218750D01*
G01*
X172954200Y-129587970D01*
G75*
G02*
X172735450Y-129806720I-218750J0D01*
G01*
X172297950Y-129806720D01*
G75*
G02*
X172079200Y-129587970I0J218750D01*
G01*
G37*
D14*
G36*
X144303109Y-105930513D02*
G01*
X145169135Y-106430513D01*
X144394135Y-107772853D01*
X143528109Y-107272853D01*
X144303109Y-105930513D01*
G37*
G36*
X141678109Y-110477147D02*
G01*
X142544135Y-110977147D01*
X141769135Y-112319487D01*
X140903109Y-111819487D01*
X141678109Y-110477147D01*
G37*
G36*
X140205865Y-109627147D02*
G01*
X141071891Y-110127147D01*
X140296891Y-111469487D01*
X139430865Y-110969487D01*
X140205865Y-109627147D01*
G37*
G36*
X142830865Y-105080513D02*
G01*
X143696891Y-105580513D01*
X142921891Y-106922853D01*
X142055865Y-106422853D01*
X142830865Y-105080513D01*
G37*
D16*
X138760000Y-116155000D03*
X138760000Y-121405000D03*
X140460000Y-121405000D03*
X140460000Y-116155000D03*
D17*
X158310000Y-105830000D03*
X158310000Y-106780000D03*
X158310000Y-107730000D03*
X160510000Y-107730000D03*
X160510000Y-105830000D03*
D18*
X177210000Y-120080000D03*
X177210000Y-119430000D03*
X177210000Y-118780000D03*
X177210000Y-118130000D03*
X177210000Y-117480000D03*
D19*
X177570000Y-121242500D03*
X177570000Y-116317500D03*
D20*
X179870000Y-121690000D03*
X179870000Y-115870000D03*
D21*
X179870000Y-119620000D03*
X179870000Y-117940000D03*
G36*
G01*
X153575000Y-116393750D02*
X153575000Y-116906250D01*
G75*
G02*
X153356250Y-117125000I-218750J0D01*
G01*
X152918750Y-117125000D01*
G75*
G02*
X152700000Y-116906250I0J218750D01*
G01*
X152700000Y-116393750D01*
G75*
G02*
X152918750Y-116175000I218750J0D01*
G01*
X153356250Y-116175000D01*
G75*
G02*
X153575000Y-116393750I0J-218750D01*
G01*
G37*
G36*
G01*
X152000000Y-116393750D02*
X152000000Y-116906250D01*
G75*
G02*
X151781250Y-117125000I-218750J0D01*
G01*
X151343750Y-117125000D01*
G75*
G02*
X151125000Y-116906250I0J218750D01*
G01*
X151125000Y-116393750D01*
G75*
G02*
X151343750Y-116175000I218750J0D01*
G01*
X151781250Y-116175000D01*
G75*
G02*
X152000000Y-116393750I0J-218750D01*
G01*
G37*
G36*
G01*
X163385000Y-110015000D02*
X163635000Y-110015000D01*
G75*
G02*
X163760000Y-110140000I0J-125000D01*
G01*
X163760000Y-111390000D01*
G75*
G02*
X163635000Y-111515000I-125000J0D01*
G01*
X163385000Y-111515000D01*
G75*
G02*
X163260000Y-111390000I0J125000D01*
G01*
X163260000Y-110140000D01*
G75*
G02*
X163385000Y-110015000I125000J0D01*
G01*
G37*
G36*
G01*
X162585000Y-110015000D02*
X162835000Y-110015000D01*
G75*
G02*
X162960000Y-110140000I0J-125000D01*
G01*
X162960000Y-111390000D01*
G75*
G02*
X162835000Y-111515000I-125000J0D01*
G01*
X162585000Y-111515000D01*
G75*
G02*
X162460000Y-111390000I0J125000D01*
G01*
X162460000Y-110140000D01*
G75*
G02*
X162585000Y-110015000I125000J0D01*
G01*
G37*
G36*
G01*
X161785000Y-110015000D02*
X162035000Y-110015000D01*
G75*
G02*
X162160000Y-110140000I0J-125000D01*
G01*
X162160000Y-111390000D01*
G75*
G02*
X162035000Y-111515000I-125000J0D01*
G01*
X161785000Y-111515000D01*
G75*
G02*
X161660000Y-111390000I0J125000D01*
G01*
X161660000Y-110140000D01*
G75*
G02*
X161785000Y-110015000I125000J0D01*
G01*
G37*
G36*
G01*
X160985000Y-110015000D02*
X161235000Y-110015000D01*
G75*
G02*
X161360000Y-110140000I0J-125000D01*
G01*
X161360000Y-111390000D01*
G75*
G02*
X161235000Y-111515000I-125000J0D01*
G01*
X160985000Y-111515000D01*
G75*
G02*
X160860000Y-111390000I0J125000D01*
G01*
X160860000Y-110140000D01*
G75*
G02*
X160985000Y-110015000I125000J0D01*
G01*
G37*
G36*
G01*
X160185000Y-110015000D02*
X160435000Y-110015000D01*
G75*
G02*
X160560000Y-110140000I0J-125000D01*
G01*
X160560000Y-111390000D01*
G75*
G02*
X160435000Y-111515000I-125000J0D01*
G01*
X160185000Y-111515000D01*
G75*
G02*
X160060000Y-111390000I0J125000D01*
G01*
X160060000Y-110140000D01*
G75*
G02*
X160185000Y-110015000I125000J0D01*
G01*
G37*
G36*
G01*
X159385000Y-110015000D02*
X159635000Y-110015000D01*
G75*
G02*
X159760000Y-110140000I0J-125000D01*
G01*
X159760000Y-111390000D01*
G75*
G02*
X159635000Y-111515000I-125000J0D01*
G01*
X159385000Y-111515000D01*
G75*
G02*
X159260000Y-111390000I0J125000D01*
G01*
X159260000Y-110140000D01*
G75*
G02*
X159385000Y-110015000I125000J0D01*
G01*
G37*
G36*
G01*
X158585000Y-110015000D02*
X158835000Y-110015000D01*
G75*
G02*
X158960000Y-110140000I0J-125000D01*
G01*
X158960000Y-111390000D01*
G75*
G02*
X158835000Y-111515000I-125000J0D01*
G01*
X158585000Y-111515000D01*
G75*
G02*
X158460000Y-111390000I0J125000D01*
G01*
X158460000Y-110140000D01*
G75*
G02*
X158585000Y-110015000I125000J0D01*
G01*
G37*
G36*
G01*
X157785000Y-110015000D02*
X158035000Y-110015000D01*
G75*
G02*
X158160000Y-110140000I0J-125000D01*
G01*
X158160000Y-111390000D01*
G75*
G02*
X158035000Y-111515000I-125000J0D01*
G01*
X157785000Y-111515000D01*
G75*
G02*
X157660000Y-111390000I0J125000D01*
G01*
X157660000Y-110140000D01*
G75*
G02*
X157785000Y-110015000I125000J0D01*
G01*
G37*
G36*
G01*
X155910000Y-111890000D02*
X157160000Y-111890000D01*
G75*
G02*
X157285000Y-112015000I0J-125000D01*
G01*
X157285000Y-112265000D01*
G75*
G02*
X157160000Y-112390000I-125000J0D01*
G01*
X155910000Y-112390000D01*
G75*
G02*
X155785000Y-112265000I0J125000D01*
G01*
X155785000Y-112015000D01*
G75*
G02*
X155910000Y-111890000I125000J0D01*
G01*
G37*
G36*
G01*
X155910000Y-112690000D02*
X157160000Y-112690000D01*
G75*
G02*
X157285000Y-112815000I0J-125000D01*
G01*
X157285000Y-113065000D01*
G75*
G02*
X157160000Y-113190000I-125000J0D01*
G01*
X155910000Y-113190000D01*
G75*
G02*
X155785000Y-113065000I0J125000D01*
G01*
X155785000Y-112815000D01*
G75*
G02*
X155910000Y-112690000I125000J0D01*
G01*
G37*
G36*
G01*
X155910000Y-113490000D02*
X157160000Y-113490000D01*
G75*
G02*
X157285000Y-113615000I0J-125000D01*
G01*
X157285000Y-113865000D01*
G75*
G02*
X157160000Y-113990000I-125000J0D01*
G01*
X155910000Y-113990000D01*
G75*
G02*
X155785000Y-113865000I0J125000D01*
G01*
X155785000Y-113615000D01*
G75*
G02*
X155910000Y-113490000I125000J0D01*
G01*
G37*
G36*
G01*
X155910000Y-114290000D02*
X157160000Y-114290000D01*
G75*
G02*
X157285000Y-114415000I0J-125000D01*
G01*
X157285000Y-114665000D01*
G75*
G02*
X157160000Y-114790000I-125000J0D01*
G01*
X155910000Y-114790000D01*
G75*
G02*
X155785000Y-114665000I0J125000D01*
G01*
X155785000Y-114415000D01*
G75*
G02*
X155910000Y-114290000I125000J0D01*
G01*
G37*
G36*
G01*
X155910000Y-115090000D02*
X157160000Y-115090000D01*
G75*
G02*
X157285000Y-115215000I0J-125000D01*
G01*
X157285000Y-115465000D01*
G75*
G02*
X157160000Y-115590000I-125000J0D01*
G01*
X155910000Y-115590000D01*
G75*
G02*
X155785000Y-115465000I0J125000D01*
G01*
X155785000Y-115215000D01*
G75*
G02*
X155910000Y-115090000I125000J0D01*
G01*
G37*
G36*
G01*
X155910000Y-115890000D02*
X157160000Y-115890000D01*
G75*
G02*
X157285000Y-116015000I0J-125000D01*
G01*
X157285000Y-116265000D01*
G75*
G02*
X157160000Y-116390000I-125000J0D01*
G01*
X155910000Y-116390000D01*
G75*
G02*
X155785000Y-116265000I0J125000D01*
G01*
X155785000Y-116015000D01*
G75*
G02*
X155910000Y-115890000I125000J0D01*
G01*
G37*
G36*
G01*
X155910000Y-116690000D02*
X157160000Y-116690000D01*
G75*
G02*
X157285000Y-116815000I0J-125000D01*
G01*
X157285000Y-117065000D01*
G75*
G02*
X157160000Y-117190000I-125000J0D01*
G01*
X155910000Y-117190000D01*
G75*
G02*
X155785000Y-117065000I0J125000D01*
G01*
X155785000Y-116815000D01*
G75*
G02*
X155910000Y-116690000I125000J0D01*
G01*
G37*
G36*
G01*
X155910000Y-117490000D02*
X157160000Y-117490000D01*
G75*
G02*
X157285000Y-117615000I0J-125000D01*
G01*
X157285000Y-117865000D01*
G75*
G02*
X157160000Y-117990000I-125000J0D01*
G01*
X155910000Y-117990000D01*
G75*
G02*
X155785000Y-117865000I0J125000D01*
G01*
X155785000Y-117615000D01*
G75*
G02*
X155910000Y-117490000I125000J0D01*
G01*
G37*
G36*
G01*
X157785000Y-118365000D02*
X158035000Y-118365000D01*
G75*
G02*
X158160000Y-118490000I0J-125000D01*
G01*
X158160000Y-119740000D01*
G75*
G02*
X158035000Y-119865000I-125000J0D01*
G01*
X157785000Y-119865000D01*
G75*
G02*
X157660000Y-119740000I0J125000D01*
G01*
X157660000Y-118490000D01*
G75*
G02*
X157785000Y-118365000I125000J0D01*
G01*
G37*
G36*
G01*
X158585000Y-118365000D02*
X158835000Y-118365000D01*
G75*
G02*
X158960000Y-118490000I0J-125000D01*
G01*
X158960000Y-119740000D01*
G75*
G02*
X158835000Y-119865000I-125000J0D01*
G01*
X158585000Y-119865000D01*
G75*
G02*
X158460000Y-119740000I0J125000D01*
G01*
X158460000Y-118490000D01*
G75*
G02*
X158585000Y-118365000I125000J0D01*
G01*
G37*
G36*
G01*
X159385000Y-118365000D02*
X159635000Y-118365000D01*
G75*
G02*
X159760000Y-118490000I0J-125000D01*
G01*
X159760000Y-119740000D01*
G75*
G02*
X159635000Y-119865000I-125000J0D01*
G01*
X159385000Y-119865000D01*
G75*
G02*
X159260000Y-119740000I0J125000D01*
G01*
X159260000Y-118490000D01*
G75*
G02*
X159385000Y-118365000I125000J0D01*
G01*
G37*
G36*
G01*
X160185000Y-118365000D02*
X160435000Y-118365000D01*
G75*
G02*
X160560000Y-118490000I0J-125000D01*
G01*
X160560000Y-119740000D01*
G75*
G02*
X160435000Y-119865000I-125000J0D01*
G01*
X160185000Y-119865000D01*
G75*
G02*
X160060000Y-119740000I0J125000D01*
G01*
X160060000Y-118490000D01*
G75*
G02*
X160185000Y-118365000I125000J0D01*
G01*
G37*
G36*
G01*
X160985000Y-118365000D02*
X161235000Y-118365000D01*
G75*
G02*
X161360000Y-118490000I0J-125000D01*
G01*
X161360000Y-119740000D01*
G75*
G02*
X161235000Y-119865000I-125000J0D01*
G01*
X160985000Y-119865000D01*
G75*
G02*
X160860000Y-119740000I0J125000D01*
G01*
X160860000Y-118490000D01*
G75*
G02*
X160985000Y-118365000I125000J0D01*
G01*
G37*
G36*
G01*
X161785000Y-118365000D02*
X162035000Y-118365000D01*
G75*
G02*
X162160000Y-118490000I0J-125000D01*
G01*
X162160000Y-119740000D01*
G75*
G02*
X162035000Y-119865000I-125000J0D01*
G01*
X161785000Y-119865000D01*
G75*
G02*
X161660000Y-119740000I0J125000D01*
G01*
X161660000Y-118490000D01*
G75*
G02*
X161785000Y-118365000I125000J0D01*
G01*
G37*
G36*
G01*
X162585000Y-118365000D02*
X162835000Y-118365000D01*
G75*
G02*
X162960000Y-118490000I0J-125000D01*
G01*
X162960000Y-119740000D01*
G75*
G02*
X162835000Y-119865000I-125000J0D01*
G01*
X162585000Y-119865000D01*
G75*
G02*
X162460000Y-119740000I0J125000D01*
G01*
X162460000Y-118490000D01*
G75*
G02*
X162585000Y-118365000I125000J0D01*
G01*
G37*
G36*
G01*
X163385000Y-118365000D02*
X163635000Y-118365000D01*
G75*
G02*
X163760000Y-118490000I0J-125000D01*
G01*
X163760000Y-119740000D01*
G75*
G02*
X163635000Y-119865000I-125000J0D01*
G01*
X163385000Y-119865000D01*
G75*
G02*
X163260000Y-119740000I0J125000D01*
G01*
X163260000Y-118490000D01*
G75*
G02*
X163385000Y-118365000I125000J0D01*
G01*
G37*
G36*
G01*
X164260000Y-117490000D02*
X165510000Y-117490000D01*
G75*
G02*
X165635000Y-117615000I0J-125000D01*
G01*
X165635000Y-117865000D01*
G75*
G02*
X165510000Y-117990000I-125000J0D01*
G01*
X164260000Y-117990000D01*
G75*
G02*
X164135000Y-117865000I0J125000D01*
G01*
X164135000Y-117615000D01*
G75*
G02*
X164260000Y-117490000I125000J0D01*
G01*
G37*
G36*
G01*
X164260000Y-116690000D02*
X165510000Y-116690000D01*
G75*
G02*
X165635000Y-116815000I0J-125000D01*
G01*
X165635000Y-117065000D01*
G75*
G02*
X165510000Y-117190000I-125000J0D01*
G01*
X164260000Y-117190000D01*
G75*
G02*
X164135000Y-117065000I0J125000D01*
G01*
X164135000Y-116815000D01*
G75*
G02*
X164260000Y-116690000I125000J0D01*
G01*
G37*
G36*
G01*
X164260000Y-115890000D02*
X165510000Y-115890000D01*
G75*
G02*
X165635000Y-116015000I0J-125000D01*
G01*
X165635000Y-116265000D01*
G75*
G02*
X165510000Y-116390000I-125000J0D01*
G01*
X164260000Y-116390000D01*
G75*
G02*
X164135000Y-116265000I0J125000D01*
G01*
X164135000Y-116015000D01*
G75*
G02*
X164260000Y-115890000I125000J0D01*
G01*
G37*
G36*
G01*
X164260000Y-115090000D02*
X165510000Y-115090000D01*
G75*
G02*
X165635000Y-115215000I0J-125000D01*
G01*
X165635000Y-115465000D01*
G75*
G02*
X165510000Y-115590000I-125000J0D01*
G01*
X164260000Y-115590000D01*
G75*
G02*
X164135000Y-115465000I0J125000D01*
G01*
X164135000Y-115215000D01*
G75*
G02*
X164260000Y-115090000I125000J0D01*
G01*
G37*
G36*
G01*
X164260000Y-114290000D02*
X165510000Y-114290000D01*
G75*
G02*
X165635000Y-114415000I0J-125000D01*
G01*
X165635000Y-114665000D01*
G75*
G02*
X165510000Y-114790000I-125000J0D01*
G01*
X164260000Y-114790000D01*
G75*
G02*
X164135000Y-114665000I0J125000D01*
G01*
X164135000Y-114415000D01*
G75*
G02*
X164260000Y-114290000I125000J0D01*
G01*
G37*
G36*
G01*
X164260000Y-113490000D02*
X165510000Y-113490000D01*
G75*
G02*
X165635000Y-113615000I0J-125000D01*
G01*
X165635000Y-113865000D01*
G75*
G02*
X165510000Y-113990000I-125000J0D01*
G01*
X164260000Y-113990000D01*
G75*
G02*
X164135000Y-113865000I0J125000D01*
G01*
X164135000Y-113615000D01*
G75*
G02*
X164260000Y-113490000I125000J0D01*
G01*
G37*
G36*
G01*
X164260000Y-112690000D02*
X165510000Y-112690000D01*
G75*
G02*
X165635000Y-112815000I0J-125000D01*
G01*
X165635000Y-113065000D01*
G75*
G02*
X165510000Y-113190000I-125000J0D01*
G01*
X164260000Y-113190000D01*
G75*
G02*
X164135000Y-113065000I0J125000D01*
G01*
X164135000Y-112815000D01*
G75*
G02*
X164260000Y-112690000I125000J0D01*
G01*
G37*
G36*
G01*
X164260000Y-111890000D02*
X165510000Y-111890000D01*
G75*
G02*
X165635000Y-112015000I0J-125000D01*
G01*
X165635000Y-112265000D01*
G75*
G02*
X165510000Y-112390000I-125000J0D01*
G01*
X164260000Y-112390000D01*
G75*
G02*
X164135000Y-112265000I0J125000D01*
G01*
X164135000Y-112015000D01*
G75*
G02*
X164260000Y-111890000I125000J0D01*
G01*
G37*
G36*
G01*
X177050000Y-113706250D02*
X177050000Y-113193750D01*
G75*
G02*
X177268750Y-112975000I218750J0D01*
G01*
X177706250Y-112975000D01*
G75*
G02*
X177925000Y-113193750I0J-218750D01*
G01*
X177925000Y-113706250D01*
G75*
G02*
X177706250Y-113925000I-218750J0D01*
G01*
X177268750Y-113925000D01*
G75*
G02*
X177050000Y-113706250I0J218750D01*
G01*
G37*
G36*
G01*
X175475000Y-113706250D02*
X175475000Y-113193750D01*
G75*
G02*
X175693750Y-112975000I218750J0D01*
G01*
X176131250Y-112975000D01*
G75*
G02*
X176350000Y-113193750I0J-218750D01*
G01*
X176350000Y-113706250D01*
G75*
G02*
X176131250Y-113925000I-218750J0D01*
G01*
X175693750Y-113925000D01*
G75*
G02*
X175475000Y-113706250I0J218750D01*
G01*
G37*
G36*
G01*
X147266250Y-107495000D02*
X146753750Y-107495000D01*
G75*
G02*
X146535000Y-107276250I0J218750D01*
G01*
X146535000Y-106838750D01*
G75*
G02*
X146753750Y-106620000I218750J0D01*
G01*
X147266250Y-106620000D01*
G75*
G02*
X147485000Y-106838750I0J-218750D01*
G01*
X147485000Y-107276250D01*
G75*
G02*
X147266250Y-107495000I-218750J0D01*
G01*
G37*
G36*
G01*
X147266250Y-105920000D02*
X146753750Y-105920000D01*
G75*
G02*
X146535000Y-105701250I0J218750D01*
G01*
X146535000Y-105263750D01*
G75*
G02*
X146753750Y-105045000I218750J0D01*
G01*
X147266250Y-105045000D01*
G75*
G02*
X147485000Y-105263750I0J-218750D01*
G01*
X147485000Y-105701250D01*
G75*
G02*
X147266250Y-105920000I-218750J0D01*
G01*
G37*
G36*
G01*
X145740000Y-117963750D02*
X145740000Y-118476250D01*
G75*
G02*
X145521250Y-118695000I-218750J0D01*
G01*
X145083750Y-118695000D01*
G75*
G02*
X144865000Y-118476250I0J218750D01*
G01*
X144865000Y-117963750D01*
G75*
G02*
X145083750Y-117745000I218750J0D01*
G01*
X145521250Y-117745000D01*
G75*
G02*
X145740000Y-117963750I0J-218750D01*
G01*
G37*
G36*
G01*
X147315000Y-117963750D02*
X147315000Y-118476250D01*
G75*
G02*
X147096250Y-118695000I-218750J0D01*
G01*
X146658750Y-118695000D01*
G75*
G02*
X146440000Y-118476250I0J218750D01*
G01*
X146440000Y-117963750D01*
G75*
G02*
X146658750Y-117745000I218750J0D01*
G01*
X147096250Y-117745000D01*
G75*
G02*
X147315000Y-117963750I0J-218750D01*
G01*
G37*
G36*
G01*
X143833750Y-123045000D02*
X144346250Y-123045000D01*
G75*
G02*
X144565000Y-123263750I0J-218750D01*
G01*
X144565000Y-123701250D01*
G75*
G02*
X144346250Y-123920000I-218750J0D01*
G01*
X143833750Y-123920000D01*
G75*
G02*
X143615000Y-123701250I0J218750D01*
G01*
X143615000Y-123263750D01*
G75*
G02*
X143833750Y-123045000I218750J0D01*
G01*
G37*
G36*
G01*
X143833750Y-124620000D02*
X144346250Y-124620000D01*
G75*
G02*
X144565000Y-124838750I0J-218750D01*
G01*
X144565000Y-125276250D01*
G75*
G02*
X144346250Y-125495000I-218750J0D01*
G01*
X143833750Y-125495000D01*
G75*
G02*
X143615000Y-125276250I0J218750D01*
G01*
X143615000Y-124838750D01*
G75*
G02*
X143833750Y-124620000I218750J0D01*
G01*
G37*
G36*
G01*
X150505000Y-106763750D02*
X150505000Y-107276250D01*
G75*
G02*
X150286250Y-107495000I-218750J0D01*
G01*
X149848750Y-107495000D01*
G75*
G02*
X149630000Y-107276250I0J218750D01*
G01*
X149630000Y-106763750D01*
G75*
G02*
X149848750Y-106545000I218750J0D01*
G01*
X150286250Y-106545000D01*
G75*
G02*
X150505000Y-106763750I0J-218750D01*
G01*
G37*
G36*
G01*
X148930000Y-106763750D02*
X148930000Y-107276250D01*
G75*
G02*
X148711250Y-107495000I-218750J0D01*
G01*
X148273750Y-107495000D01*
G75*
G02*
X148055000Y-107276250I0J218750D01*
G01*
X148055000Y-106763750D01*
G75*
G02*
X148273750Y-106545000I218750J0D01*
G01*
X148711250Y-106545000D01*
G75*
G02*
X148930000Y-106763750I0J-218750D01*
G01*
G37*
G36*
G01*
X149676250Y-118650000D02*
X149163750Y-118650000D01*
G75*
G02*
X148945000Y-118431250I0J218750D01*
G01*
X148945000Y-117993750D01*
G75*
G02*
X149163750Y-117775000I218750J0D01*
G01*
X149676250Y-117775000D01*
G75*
G02*
X149895000Y-117993750I0J-218750D01*
G01*
X149895000Y-118431250D01*
G75*
G02*
X149676250Y-118650000I-218750J0D01*
G01*
G37*
G36*
G01*
X149676250Y-120225000D02*
X149163750Y-120225000D01*
G75*
G02*
X148945000Y-120006250I0J218750D01*
G01*
X148945000Y-119568750D01*
G75*
G02*
X149163750Y-119350000I218750J0D01*
G01*
X149676250Y-119350000D01*
G75*
G02*
X149895000Y-119568750I0J-218750D01*
G01*
X149895000Y-120006250D01*
G75*
G02*
X149676250Y-120225000I-218750J0D01*
G01*
G37*
G36*
G01*
X147315000Y-119773750D02*
X147315000Y-120286250D01*
G75*
G02*
X147096250Y-120505000I-218750J0D01*
G01*
X146658750Y-120505000D01*
G75*
G02*
X146440000Y-120286250I0J218750D01*
G01*
X146440000Y-119773750D01*
G75*
G02*
X146658750Y-119555000I218750J0D01*
G01*
X147096250Y-119555000D01*
G75*
G02*
X147315000Y-119773750I0J-218750D01*
G01*
G37*
G36*
G01*
X145740000Y-119773750D02*
X145740000Y-120286250D01*
G75*
G02*
X145521250Y-120505000I-218750J0D01*
G01*
X145083750Y-120505000D01*
G75*
G02*
X144865000Y-120286250I0J218750D01*
G01*
X144865000Y-119773750D01*
G75*
G02*
X145083750Y-119555000I218750J0D01*
G01*
X145521250Y-119555000D01*
G75*
G02*
X145740000Y-119773750I0J-218750D01*
G01*
G37*
G36*
G01*
X167425000Y-125775000D02*
X167425000Y-124525000D01*
G75*
G02*
X167675000Y-124275000I250000J0D01*
G01*
X168425000Y-124275000D01*
G75*
G02*
X168675000Y-124525000I0J-250000D01*
G01*
X168675000Y-125775000D01*
G75*
G02*
X168425000Y-126025000I-250000J0D01*
G01*
X167675000Y-126025000D01*
G75*
G02*
X167425000Y-125775000I0J250000D01*
G01*
G37*
G36*
G01*
X170225000Y-125775000D02*
X170225000Y-124525000D01*
G75*
G02*
X170475000Y-124275000I250000J0D01*
G01*
X171225000Y-124275000D01*
G75*
G02*
X171475000Y-124525000I0J-250000D01*
G01*
X171475000Y-125775000D01*
G75*
G02*
X171225000Y-126025000I-250000J0D01*
G01*
X170475000Y-126025000D01*
G75*
G02*
X170225000Y-125775000I0J250000D01*
G01*
G37*
D22*
X159437500Y-100750000D03*
X159437500Y-101250000D03*
X160962500Y-100750000D03*
X160962500Y-101250000D03*
X159437500Y-101750000D03*
X160962500Y-101750000D03*
X159437500Y-100250000D03*
X160962500Y-100250000D03*
D23*
X159950000Y-101762500D03*
X160450000Y-101762500D03*
X160450000Y-100237500D03*
X159950000Y-100237500D03*
G36*
G01*
X156050000Y-104025000D02*
X156550000Y-104025000D01*
G75*
G02*
X156775000Y-104250000I0J-225000D01*
G01*
X156775000Y-104700000D01*
G75*
G02*
X156550000Y-104925000I-225000J0D01*
G01*
X156050000Y-104925000D01*
G75*
G02*
X155825000Y-104700000I0J225000D01*
G01*
X155825000Y-104250000D01*
G75*
G02*
X156050000Y-104025000I225000J0D01*
G01*
G37*
G36*
G01*
X156050000Y-102475000D02*
X156550000Y-102475000D01*
G75*
G02*
X156775000Y-102700000I0J-225000D01*
G01*
X156775000Y-103150000D01*
G75*
G02*
X156550000Y-103375000I-225000J0D01*
G01*
X156050000Y-103375000D01*
G75*
G02*
X155825000Y-103150000I0J225000D01*
G01*
X155825000Y-102700000D01*
G75*
G02*
X156050000Y-102475000I225000J0D01*
G01*
G37*
G36*
G01*
X164640000Y-101490000D02*
X164140000Y-101490000D01*
G75*
G02*
X163915000Y-101265000I0J225000D01*
G01*
X163915000Y-100815000D01*
G75*
G02*
X164140000Y-100590000I225000J0D01*
G01*
X164640000Y-100590000D01*
G75*
G02*
X164865000Y-100815000I0J-225000D01*
G01*
X164865000Y-101265000D01*
G75*
G02*
X164640000Y-101490000I-225000J0D01*
G01*
G37*
G36*
G01*
X164640000Y-99940000D02*
X164140000Y-99940000D01*
G75*
G02*
X163915000Y-99715000I0J225000D01*
G01*
X163915000Y-99265000D01*
G75*
G02*
X164140000Y-99040000I225000J0D01*
G01*
X164640000Y-99040000D01*
G75*
G02*
X164865000Y-99265000I0J-225000D01*
G01*
X164865000Y-99715000D01*
G75*
G02*
X164640000Y-99940000I-225000J0D01*
G01*
G37*
G36*
G01*
X163120000Y-101485000D02*
X162620000Y-101485000D01*
G75*
G02*
X162395000Y-101260000I0J225000D01*
G01*
X162395000Y-100810000D01*
G75*
G02*
X162620000Y-100585000I225000J0D01*
G01*
X163120000Y-100585000D01*
G75*
G02*
X163345000Y-100810000I0J-225000D01*
G01*
X163345000Y-101260000D01*
G75*
G02*
X163120000Y-101485000I-225000J0D01*
G01*
G37*
G36*
G01*
X163120000Y-99935000D02*
X162620000Y-99935000D01*
G75*
G02*
X162395000Y-99710000I0J225000D01*
G01*
X162395000Y-99260000D01*
G75*
G02*
X162620000Y-99035000I225000J0D01*
G01*
X163120000Y-99035000D01*
G75*
G02*
X163345000Y-99260000I0J-225000D01*
G01*
X163345000Y-99710000D01*
G75*
G02*
X163120000Y-99935000I-225000J0D01*
G01*
G37*
G36*
G01*
X163619060Y-108487020D02*
X163619060Y-107987020D01*
G75*
G02*
X163844060Y-107762020I225000J0D01*
G01*
X164294060Y-107762020D01*
G75*
G02*
X164519060Y-107987020I0J-225000D01*
G01*
X164519060Y-108487020D01*
G75*
G02*
X164294060Y-108712020I-225000J0D01*
G01*
X163844060Y-108712020D01*
G75*
G02*
X163619060Y-108487020I0J225000D01*
G01*
G37*
G36*
G01*
X162069060Y-108487020D02*
X162069060Y-107987020D01*
G75*
G02*
X162294060Y-107762020I225000J0D01*
G01*
X162744060Y-107762020D01*
G75*
G02*
X162969060Y-107987020I0J-225000D01*
G01*
X162969060Y-108487020D01*
G75*
G02*
X162744060Y-108712020I-225000J0D01*
G01*
X162294060Y-108712020D01*
G75*
G02*
X162069060Y-108487020I0J225000D01*
G01*
G37*
G36*
G01*
X162069060Y-106985880D02*
X162069060Y-106485880D01*
G75*
G02*
X162294060Y-106260880I225000J0D01*
G01*
X162744060Y-106260880D01*
G75*
G02*
X162969060Y-106485880I0J-225000D01*
G01*
X162969060Y-106985880D01*
G75*
G02*
X162744060Y-107210880I-225000J0D01*
G01*
X162294060Y-107210880D01*
G75*
G02*
X162069060Y-106985880I0J225000D01*
G01*
G37*
G36*
G01*
X163619060Y-106985880D02*
X163619060Y-106485880D01*
G75*
G02*
X163844060Y-106260880I225000J0D01*
G01*
X164294060Y-106260880D01*
G75*
G02*
X164519060Y-106485880I0J-225000D01*
G01*
X164519060Y-106985880D01*
G75*
G02*
X164294060Y-107210880I-225000J0D01*
G01*
X163844060Y-107210880D01*
G75*
G02*
X163619060Y-106985880I0J225000D01*
G01*
G37*
M02*
