G04 #@! TF.GenerationSoftware,KiCad,Pcbnew,5.1.8-1.fc33*
G04 #@! TF.CreationDate,2020-12-13T19:08:54+01:00*
G04 #@! TF.ProjectId,venom,76656e6f-6d2e-46b6-9963-61645f706362,rev?*
G04 #@! TF.SameCoordinates,Original*
G04 #@! TF.FileFunction,Profile,NP*
%FSLAX46Y46*%
G04 Gerber Fmt 4.6, Leading zero omitted, Abs format (unit mm)*
G04 Created by KiCad (PCBNEW 5.1.8-1.fc33) date 2020-12-13 19:08:54*
%MOMM*%
%LPD*%
G01*
G04 APERTURE LIST*
G04 #@! TA.AperFunction,Profile*
%ADD10C,0.050000*%
G04 #@! TD*
G04 #@! TA.AperFunction,Profile*
%ADD11C,0.200000*%
G04 #@! TD*
G04 APERTURE END LIST*
D10*
X175505039Y-139275628D02*
X174690000Y-140462000D01*
D11*
X147390000Y-100350000D02*
G75*
G03*
X147390000Y-100350000I-1200000J0D01*
G01*
X179270000Y-126040000D02*
G75*
G03*
X179270000Y-126040000I-1200000J0D01*
G01*
X174030000Y-100350000D02*
G75*
G03*
X174030000Y-100350000I-1200000J0D01*
G01*
D10*
X140920000Y-124140000D02*
G75*
G03*
X140920000Y-124140000I-1200000J0D01*
G01*
X175505039Y-135715628D02*
X175505039Y-139275628D01*
X176009999Y-133319999D02*
X175505039Y-135715628D01*
X143005040Y-133314371D02*
X143510000Y-135710000D01*
X143510000Y-139270000D02*
X144330000Y-140462000D01*
X143510000Y-135710000D02*
X143510000Y-139270000D01*
X152810000Y-138150000D02*
X152810000Y-139400000D01*
X166210000Y-138150000D02*
X152810000Y-138150000D01*
X166210000Y-139400000D02*
X166210000Y-138150000D01*
X152810000Y-139400000D02*
X166210000Y-139400000D01*
X144330000Y-140462000D02*
X174690000Y-140462000D01*
X144330000Y-98000000D02*
X174700000Y-98000000D01*
X176014960Y-104225629D02*
G75*
G02*
X176009999Y-133319999I-16504960J-14544371D01*
G01*
X143005040Y-133314371D02*
G75*
G02*
X143010001Y-104220001I16504960J14544371D01*
G01*
X143010001Y-104220001D02*
X144330000Y-98000000D01*
X176014960Y-104225629D02*
X174700000Y-98000000D01*
M02*
