G04 #@! TF.GenerationSoftware,KiCad,Pcbnew,5.1.8-1.fc33*
G04 #@! TF.CreationDate,2020-12-13T19:08:53+01:00*
G04 #@! TF.ProjectId,venom,76656e6f-6d2e-46b6-9963-61645f706362,rev?*
G04 #@! TF.SameCoordinates,Original*
G04 #@! TF.FileFunction,Copper,L1,Top*
G04 #@! TF.FilePolarity,Positive*
%FSLAX46Y46*%
G04 Gerber Fmt 4.6, Leading zero omitted, Abs format (unit mm)*
G04 Created by KiCad (PCBNEW 5.1.8-1.fc33) date 2020-12-13 19:08:53*
%MOMM*%
%LPD*%
G01*
G04 APERTURE LIST*
G04 #@! TA.AperFunction,NonConductor*
%ADD10C,0.125000*%
G04 #@! TD*
G04 #@! TA.AperFunction,ComponentPad*
%ADD11C,1.000000*%
G04 #@! TD*
G04 #@! TA.AperFunction,SMDPad,CuDef*
%ADD12R,0.350000X0.500000*%
G04 #@! TD*
G04 #@! TA.AperFunction,SMDPad,CuDef*
%ADD13R,1.800000X4.000000*%
G04 #@! TD*
G04 #@! TA.AperFunction,SMDPad,CuDef*
%ADD14R,0.300000X3.000000*%
G04 #@! TD*
G04 #@! TA.AperFunction,SMDPad,CuDef*
%ADD15C,0.100000*%
G04 #@! TD*
G04 #@! TA.AperFunction,SMDPad,CuDef*
%ADD16R,0.900000X0.800000*%
G04 #@! TD*
G04 #@! TA.AperFunction,SMDPad,CuDef*
%ADD17R,1.000000X1.550000*%
G04 #@! TD*
G04 #@! TA.AperFunction,SMDPad,CuDef*
%ADD18R,1.060000X0.650000*%
G04 #@! TD*
G04 #@! TA.AperFunction,SMDPad,CuDef*
%ADD19R,1.380000X0.450000*%
G04 #@! TD*
G04 #@! TA.AperFunction,SMDPad,CuDef*
%ADD20R,2.100000X1.475000*%
G04 #@! TD*
G04 #@! TA.AperFunction,SMDPad,CuDef*
%ADD21R,1.900000X2.375000*%
G04 #@! TD*
G04 #@! TA.AperFunction,SMDPad,CuDef*
%ADD22R,1.900000X1.175000*%
G04 #@! TD*
G04 #@! TA.AperFunction,ComponentPad*
%ADD23C,0.500000*%
G04 #@! TD*
G04 #@! TA.AperFunction,ComponentPad*
%ADD24R,1.000000X1.000000*%
G04 #@! TD*
G04 #@! TA.AperFunction,ComponentPad*
%ADD25O,1.000000X1.000000*%
G04 #@! TD*
G04 #@! TA.AperFunction,SMDPad,CuDef*
%ADD26R,0.375000X0.350000*%
G04 #@! TD*
G04 #@! TA.AperFunction,SMDPad,CuDef*
%ADD27R,0.350000X0.375000*%
G04 #@! TD*
G04 #@! TA.AperFunction,ViaPad*
%ADD28C,1.200000*%
G04 #@! TD*
G04 #@! TA.AperFunction,ViaPad*
%ADD29C,1.500000*%
G04 #@! TD*
G04 #@! TA.AperFunction,Conductor*
%ADD30C,0.400000*%
G04 #@! TD*
G04 #@! TA.AperFunction,Conductor*
%ADD31C,1.000000*%
G04 #@! TD*
G04 #@! TA.AperFunction,Conductor*
%ADD32C,0.300000*%
G04 #@! TD*
G04 #@! TA.AperFunction,Conductor*
%ADD33C,0.250000*%
G04 #@! TD*
G04 #@! TA.AperFunction,Conductor*
%ADD34C,0.254000*%
G04 #@! TD*
G04 #@! TA.AperFunction,Conductor*
%ADD35C,0.100000*%
G04 #@! TD*
G04 APERTURE END LIST*
D10*
X167580476Y-138716785D02*
X167651904Y-138740595D01*
X167675714Y-138764404D01*
X167699523Y-138812023D01*
X167699523Y-138883452D01*
X167675714Y-138931071D01*
X167651904Y-138954880D01*
X167604285Y-138978690D01*
X167413809Y-138978690D01*
X167413809Y-138478690D01*
X167580476Y-138478690D01*
X167628095Y-138502500D01*
X167651904Y-138526309D01*
X167675714Y-138573928D01*
X167675714Y-138621547D01*
X167651904Y-138669166D01*
X167628095Y-138692976D01*
X167580476Y-138716785D01*
X167413809Y-138716785D01*
X168128095Y-138978690D02*
X168128095Y-138716785D01*
X168104285Y-138669166D01*
X168056666Y-138645357D01*
X167961428Y-138645357D01*
X167913809Y-138669166D01*
X168128095Y-138954880D02*
X168080476Y-138978690D01*
X167961428Y-138978690D01*
X167913809Y-138954880D01*
X167890000Y-138907261D01*
X167890000Y-138859642D01*
X167913809Y-138812023D01*
X167961428Y-138788214D01*
X168080476Y-138788214D01*
X168128095Y-138764404D01*
X168366190Y-138978690D02*
X168366190Y-138645357D01*
X168366190Y-138740595D02*
X168390000Y-138692976D01*
X168413809Y-138669166D01*
X168461428Y-138645357D01*
X168509047Y-138645357D01*
X168604285Y-138645357D02*
X168794761Y-138645357D01*
X168675714Y-138478690D02*
X168675714Y-138907261D01*
X168699523Y-138954880D01*
X168747142Y-138978690D01*
X168794761Y-138978690D01*
X168985238Y-138478690D02*
X168937619Y-138573928D01*
X169175714Y-138954880D02*
X169223333Y-138978690D01*
X169318571Y-138978690D01*
X169366190Y-138954880D01*
X169390000Y-138907261D01*
X169390000Y-138883452D01*
X169366190Y-138835833D01*
X169318571Y-138812023D01*
X169247142Y-138812023D01*
X169199523Y-138788214D01*
X169175714Y-138740595D01*
X169175714Y-138716785D01*
X169199523Y-138669166D01*
X169247142Y-138645357D01*
X169318571Y-138645357D01*
X169366190Y-138669166D01*
X167378095Y-139353690D02*
X167544761Y-139853690D01*
X167711428Y-139353690D01*
X167878095Y-139591785D02*
X168044761Y-139591785D01*
X168116190Y-139853690D02*
X167878095Y-139853690D01*
X167878095Y-139353690D01*
X168116190Y-139353690D01*
X168330476Y-139853690D02*
X168330476Y-139353690D01*
X168616190Y-139853690D01*
X168616190Y-139353690D01*
X168949523Y-139353690D02*
X169044761Y-139353690D01*
X169092380Y-139377500D01*
X169140000Y-139425119D01*
X169163809Y-139520357D01*
X169163809Y-139687023D01*
X169140000Y-139782261D01*
X169092380Y-139829880D01*
X169044761Y-139853690D01*
X168949523Y-139853690D01*
X168901904Y-139829880D01*
X168854285Y-139782261D01*
X168830476Y-139687023D01*
X168830476Y-139520357D01*
X168854285Y-139425119D01*
X168901904Y-139377500D01*
X168949523Y-139353690D01*
X169378095Y-139853690D02*
X169378095Y-139353690D01*
X169544761Y-139710833D01*
X169711428Y-139353690D01*
X169711428Y-139853690D01*
X170282857Y-139520357D02*
X170401904Y-139853690D01*
X170520952Y-139520357D01*
X170806666Y-139353690D02*
X170854285Y-139353690D01*
X170901904Y-139377500D01*
X170925714Y-139401309D01*
X170949523Y-139448928D01*
X170973333Y-139544166D01*
X170973333Y-139663214D01*
X170949523Y-139758452D01*
X170925714Y-139806071D01*
X170901904Y-139829880D01*
X170854285Y-139853690D01*
X170806666Y-139853690D01*
X170759047Y-139829880D01*
X170735238Y-139806071D01*
X170711428Y-139758452D01*
X170687619Y-139663214D01*
X170687619Y-139544166D01*
X170711428Y-139448928D01*
X170735238Y-139401309D01*
X170759047Y-139377500D01*
X170806666Y-139353690D01*
X171187619Y-139806071D02*
X171211428Y-139829880D01*
X171187619Y-139853690D01*
X171163809Y-139829880D01*
X171187619Y-139806071D01*
X171187619Y-139853690D01*
X171663809Y-139353690D02*
X171425714Y-139353690D01*
X171401904Y-139591785D01*
X171425714Y-139567976D01*
X171473333Y-139544166D01*
X171592380Y-139544166D01*
X171640000Y-139567976D01*
X171663809Y-139591785D01*
X171687619Y-139639404D01*
X171687619Y-139758452D01*
X171663809Y-139806071D01*
X171640000Y-139829880D01*
X171592380Y-139853690D01*
X171473333Y-139853690D01*
X171425714Y-139829880D01*
X171401904Y-139806071D01*
X171901904Y-139806071D02*
X171925714Y-139829880D01*
X171901904Y-139853690D01*
X171878095Y-139829880D01*
X171901904Y-139806071D01*
X171901904Y-139853690D01*
X172092380Y-139353690D02*
X172425714Y-139353690D01*
X172211428Y-139853690D01*
D11*
X167894000Y-109728000D03*
X167894000Y-107828000D03*
D12*
X168045000Y-104505000D03*
X168695000Y-104505000D03*
X169345000Y-104505000D03*
X169995000Y-104505000D03*
X169995000Y-102455000D03*
X169345000Y-102455000D03*
X168695000Y-102455000D03*
X168045000Y-102455000D03*
D13*
X167160000Y-132510000D03*
X151860000Y-132510000D03*
D14*
X153760000Y-130710000D03*
X154260000Y-130710000D03*
X154760000Y-130710000D03*
X155260000Y-130710000D03*
X155760000Y-130710000D03*
X156260000Y-130710000D03*
X156760000Y-130710000D03*
X157260000Y-130710000D03*
X157760000Y-130710000D03*
X158260000Y-130710000D03*
X158760000Y-130710000D03*
X159260000Y-130710000D03*
X159760000Y-130710000D03*
X160260000Y-130710000D03*
X160760000Y-130710000D03*
X161260000Y-130710000D03*
X161760000Y-130710000D03*
X162260000Y-130710000D03*
X162760000Y-130710000D03*
X163260000Y-130710000D03*
X163760000Y-130710000D03*
X164260000Y-130710000D03*
X164760000Y-130710000D03*
X165260000Y-130710000D03*
G04 #@! TA.AperFunction,SMDPad,CuDef*
D15*
G36*
X140863109Y-125640513D02*
G01*
X141729135Y-125140513D01*
X142504135Y-126482853D01*
X141638109Y-126982853D01*
X140863109Y-125640513D01*
G37*
G04 #@! TD.AperFunction*
G04 #@! TA.AperFunction,SMDPad,CuDef*
G36*
X143488109Y-130187147D02*
G01*
X144354135Y-129687147D01*
X145129135Y-131029487D01*
X144263109Y-131529487D01*
X143488109Y-130187147D01*
G37*
G04 #@! TD.AperFunction*
G04 #@! TA.AperFunction,SMDPad,CuDef*
G36*
X142015865Y-131037147D02*
G01*
X142881891Y-130537147D01*
X143656891Y-131879487D01*
X142790865Y-132379487D01*
X142015865Y-131037147D01*
G37*
G04 #@! TD.AperFunction*
G04 #@! TA.AperFunction,SMDPad,CuDef*
G36*
X139390865Y-126490513D02*
G01*
X140256891Y-125990513D01*
X141031891Y-127332853D01*
X140165865Y-127832853D01*
X139390865Y-126490513D01*
G37*
G04 #@! TD.AperFunction*
G04 #@! TA.AperFunction,SMDPad,CuDef*
G36*
G01*
X155215000Y-100964999D02*
X155215000Y-103115001D01*
G75*
G02*
X154965001Y-103365000I-249999J0D01*
G01*
X154114999Y-103365000D01*
G75*
G02*
X153865000Y-103115001I0J249999D01*
G01*
X153865000Y-100964999D01*
G75*
G02*
X154114999Y-100715000I249999J0D01*
G01*
X154965001Y-100715000D01*
G75*
G02*
X155215000Y-100964999I0J-249999D01*
G01*
G37*
G04 #@! TD.AperFunction*
G04 #@! TA.AperFunction,SMDPad,CuDef*
G36*
G01*
X150715000Y-100964999D02*
X150715000Y-103115001D01*
G75*
G02*
X150465001Y-103365000I-249999J0D01*
G01*
X149614999Y-103365000D01*
G75*
G02*
X149365000Y-103115001I0J249999D01*
G01*
X149365000Y-100964999D01*
G75*
G02*
X149614999Y-100715000I249999J0D01*
G01*
X150465001Y-100715000D01*
G75*
G02*
X150715000Y-100964999I0J-249999D01*
G01*
G37*
G04 #@! TD.AperFunction*
G04 #@! TA.AperFunction,SMDPad,CuDef*
G36*
G01*
X168306000Y-100403750D02*
X168306000Y-100916250D01*
G75*
G02*
X168087250Y-101135000I-218750J0D01*
G01*
X167649750Y-101135000D01*
G75*
G02*
X167431000Y-100916250I0J218750D01*
G01*
X167431000Y-100403750D01*
G75*
G02*
X167649750Y-100185000I218750J0D01*
G01*
X168087250Y-100185000D01*
G75*
G02*
X168306000Y-100403750I0J-218750D01*
G01*
G37*
G04 #@! TD.AperFunction*
G04 #@! TA.AperFunction,SMDPad,CuDef*
G36*
G01*
X169881000Y-100403750D02*
X169881000Y-100916250D01*
G75*
G02*
X169662250Y-101135000I-218750J0D01*
G01*
X169224750Y-101135000D01*
G75*
G02*
X169006000Y-100916250I0J218750D01*
G01*
X169006000Y-100403750D01*
G75*
G02*
X169224750Y-100185000I218750J0D01*
G01*
X169662250Y-100185000D01*
G75*
G02*
X169881000Y-100403750I0J-218750D01*
G01*
G37*
G04 #@! TD.AperFunction*
G04 #@! TA.AperFunction,SMDPad,CuDef*
G36*
G01*
X166166250Y-101485000D02*
X165653750Y-101485000D01*
G75*
G02*
X165435000Y-101266250I0J218750D01*
G01*
X165435000Y-100828750D01*
G75*
G02*
X165653750Y-100610000I218750J0D01*
G01*
X166166250Y-100610000D01*
G75*
G02*
X166385000Y-100828750I0J-218750D01*
G01*
X166385000Y-101266250D01*
G75*
G02*
X166166250Y-101485000I-218750J0D01*
G01*
G37*
G04 #@! TD.AperFunction*
G04 #@! TA.AperFunction,SMDPad,CuDef*
G36*
G01*
X166166250Y-99910000D02*
X165653750Y-99910000D01*
G75*
G02*
X165435000Y-99691250I0J218750D01*
G01*
X165435000Y-99253750D01*
G75*
G02*
X165653750Y-99035000I218750J0D01*
G01*
X166166250Y-99035000D01*
G75*
G02*
X166385000Y-99253750I0J-218750D01*
G01*
X166385000Y-99691250D01*
G75*
G02*
X166166250Y-99910000I-218750J0D01*
G01*
G37*
G04 #@! TD.AperFunction*
G04 #@! TA.AperFunction,SMDPad,CuDef*
G36*
G01*
X170195000Y-110696250D02*
X170195000Y-110183750D01*
G75*
G02*
X170413750Y-109965000I218750J0D01*
G01*
X170851250Y-109965000D01*
G75*
G02*
X171070000Y-110183750I0J-218750D01*
G01*
X171070000Y-110696250D01*
G75*
G02*
X170851250Y-110915000I-218750J0D01*
G01*
X170413750Y-110915000D01*
G75*
G02*
X170195000Y-110696250I0J218750D01*
G01*
G37*
G04 #@! TD.AperFunction*
G04 #@! TA.AperFunction,SMDPad,CuDef*
G36*
G01*
X171770000Y-110696250D02*
X171770000Y-110183750D01*
G75*
G02*
X171988750Y-109965000I218750J0D01*
G01*
X172426250Y-109965000D01*
G75*
G02*
X172645000Y-110183750I0J-218750D01*
G01*
X172645000Y-110696250D01*
G75*
G02*
X172426250Y-110915000I-218750J0D01*
G01*
X171988750Y-110915000D01*
G75*
G02*
X171770000Y-110696250I0J218750D01*
G01*
G37*
G04 #@! TD.AperFunction*
G04 #@! TA.AperFunction,SMDPad,CuDef*
G36*
G01*
X171790000Y-108806250D02*
X171790000Y-108293750D01*
G75*
G02*
X172008750Y-108075000I218750J0D01*
G01*
X172446250Y-108075000D01*
G75*
G02*
X172665000Y-108293750I0J-218750D01*
G01*
X172665000Y-108806250D01*
G75*
G02*
X172446250Y-109025000I-218750J0D01*
G01*
X172008750Y-109025000D01*
G75*
G02*
X171790000Y-108806250I0J218750D01*
G01*
G37*
G04 #@! TD.AperFunction*
G04 #@! TA.AperFunction,SMDPad,CuDef*
G36*
G01*
X170215000Y-108806250D02*
X170215000Y-108293750D01*
G75*
G02*
X170433750Y-108075000I218750J0D01*
G01*
X170871250Y-108075000D01*
G75*
G02*
X171090000Y-108293750I0J-218750D01*
G01*
X171090000Y-108806250D01*
G75*
G02*
X170871250Y-109025000I-218750J0D01*
G01*
X170433750Y-109025000D01*
G75*
G02*
X170215000Y-108806250I0J218750D01*
G01*
G37*
G04 #@! TD.AperFunction*
G04 #@! TA.AperFunction,SMDPad,CuDef*
G36*
G01*
X173480000Y-118536250D02*
X173480000Y-118023750D01*
G75*
G02*
X173698750Y-117805000I218750J0D01*
G01*
X174136250Y-117805000D01*
G75*
G02*
X174355000Y-118023750I0J-218750D01*
G01*
X174355000Y-118536250D01*
G75*
G02*
X174136250Y-118755000I-218750J0D01*
G01*
X173698750Y-118755000D01*
G75*
G02*
X173480000Y-118536250I0J218750D01*
G01*
G37*
G04 #@! TD.AperFunction*
G04 #@! TA.AperFunction,SMDPad,CuDef*
G36*
G01*
X171905000Y-118536250D02*
X171905000Y-118023750D01*
G75*
G02*
X172123750Y-117805000I218750J0D01*
G01*
X172561250Y-117805000D01*
G75*
G02*
X172780000Y-118023750I0J-218750D01*
G01*
X172780000Y-118536250D01*
G75*
G02*
X172561250Y-118755000I-218750J0D01*
G01*
X172123750Y-118755000D01*
G75*
G02*
X171905000Y-118536250I0J218750D01*
G01*
G37*
G04 #@! TD.AperFunction*
G04 #@! TA.AperFunction,SMDPad,CuDef*
G36*
G01*
X165396250Y-127825000D02*
X164883750Y-127825000D01*
G75*
G02*
X164665000Y-127606250I0J218750D01*
G01*
X164665000Y-127168750D01*
G75*
G02*
X164883750Y-126950000I218750J0D01*
G01*
X165396250Y-126950000D01*
G75*
G02*
X165615000Y-127168750I0J-218750D01*
G01*
X165615000Y-127606250D01*
G75*
G02*
X165396250Y-127825000I-218750J0D01*
G01*
G37*
G04 #@! TD.AperFunction*
G04 #@! TA.AperFunction,SMDPad,CuDef*
G36*
G01*
X165396250Y-126250000D02*
X164883750Y-126250000D01*
G75*
G02*
X164665000Y-126031250I0J218750D01*
G01*
X164665000Y-125593750D01*
G75*
G02*
X164883750Y-125375000I218750J0D01*
G01*
X165396250Y-125375000D01*
G75*
G02*
X165615000Y-125593750I0J-218750D01*
G01*
X165615000Y-126031250D01*
G75*
G02*
X165396250Y-126250000I-218750J0D01*
G01*
G37*
G04 #@! TD.AperFunction*
G04 #@! TA.AperFunction,SMDPad,CuDef*
G36*
G01*
X163486250Y-127805000D02*
X162973750Y-127805000D01*
G75*
G02*
X162755000Y-127586250I0J218750D01*
G01*
X162755000Y-127148750D01*
G75*
G02*
X162973750Y-126930000I218750J0D01*
G01*
X163486250Y-126930000D01*
G75*
G02*
X163705000Y-127148750I0J-218750D01*
G01*
X163705000Y-127586250D01*
G75*
G02*
X163486250Y-127805000I-218750J0D01*
G01*
G37*
G04 #@! TD.AperFunction*
G04 #@! TA.AperFunction,SMDPad,CuDef*
G36*
G01*
X163486250Y-126230000D02*
X162973750Y-126230000D01*
G75*
G02*
X162755000Y-126011250I0J218750D01*
G01*
X162755000Y-125573750D01*
G75*
G02*
X162973750Y-125355000I218750J0D01*
G01*
X163486250Y-125355000D01*
G75*
G02*
X163705000Y-125573750I0J-218750D01*
G01*
X163705000Y-126011250D01*
G75*
G02*
X163486250Y-126230000I-218750J0D01*
G01*
G37*
G04 #@! TD.AperFunction*
G04 #@! TA.AperFunction,SMDPad,CuDef*
G36*
G01*
X158576250Y-123430000D02*
X158063750Y-123430000D01*
G75*
G02*
X157845000Y-123211250I0J218750D01*
G01*
X157845000Y-122773750D01*
G75*
G02*
X158063750Y-122555000I218750J0D01*
G01*
X158576250Y-122555000D01*
G75*
G02*
X158795000Y-122773750I0J-218750D01*
G01*
X158795000Y-123211250D01*
G75*
G02*
X158576250Y-123430000I-218750J0D01*
G01*
G37*
G04 #@! TD.AperFunction*
G04 #@! TA.AperFunction,SMDPad,CuDef*
G36*
G01*
X158576250Y-125005000D02*
X158063750Y-125005000D01*
G75*
G02*
X157845000Y-124786250I0J218750D01*
G01*
X157845000Y-124348750D01*
G75*
G02*
X158063750Y-124130000I218750J0D01*
G01*
X158576250Y-124130000D01*
G75*
G02*
X158795000Y-124348750I0J-218750D01*
G01*
X158795000Y-124786250D01*
G75*
G02*
X158576250Y-125005000I-218750J0D01*
G01*
G37*
G04 #@! TD.AperFunction*
G04 #@! TA.AperFunction,SMDPad,CuDef*
G36*
G01*
X157066250Y-123430000D02*
X156553750Y-123430000D01*
G75*
G02*
X156335000Y-123211250I0J218750D01*
G01*
X156335000Y-122773750D01*
G75*
G02*
X156553750Y-122555000I218750J0D01*
G01*
X157066250Y-122555000D01*
G75*
G02*
X157285000Y-122773750I0J-218750D01*
G01*
X157285000Y-123211250D01*
G75*
G02*
X157066250Y-123430000I-218750J0D01*
G01*
G37*
G04 #@! TD.AperFunction*
G04 #@! TA.AperFunction,SMDPad,CuDef*
G36*
G01*
X157066250Y-125005000D02*
X156553750Y-125005000D01*
G75*
G02*
X156335000Y-124786250I0J218750D01*
G01*
X156335000Y-124348750D01*
G75*
G02*
X156553750Y-124130000I218750J0D01*
G01*
X157066250Y-124130000D01*
G75*
G02*
X157285000Y-124348750I0J-218750D01*
G01*
X157285000Y-124786250D01*
G75*
G02*
X157066250Y-125005000I-218750J0D01*
G01*
G37*
G04 #@! TD.AperFunction*
G04 #@! TA.AperFunction,SMDPad,CuDef*
G36*
G01*
X155556250Y-125005000D02*
X155043750Y-125005000D01*
G75*
G02*
X154825000Y-124786250I0J218750D01*
G01*
X154825000Y-124348750D01*
G75*
G02*
X155043750Y-124130000I218750J0D01*
G01*
X155556250Y-124130000D01*
G75*
G02*
X155775000Y-124348750I0J-218750D01*
G01*
X155775000Y-124786250D01*
G75*
G02*
X155556250Y-125005000I-218750J0D01*
G01*
G37*
G04 #@! TD.AperFunction*
G04 #@! TA.AperFunction,SMDPad,CuDef*
G36*
G01*
X155556250Y-123430000D02*
X155043750Y-123430000D01*
G75*
G02*
X154825000Y-123211250I0J218750D01*
G01*
X154825000Y-122773750D01*
G75*
G02*
X155043750Y-122555000I218750J0D01*
G01*
X155556250Y-122555000D01*
G75*
G02*
X155775000Y-122773750I0J-218750D01*
G01*
X155775000Y-123211250D01*
G75*
G02*
X155556250Y-123430000I-218750J0D01*
G01*
G37*
G04 #@! TD.AperFunction*
G04 #@! TA.AperFunction,SMDPad,CuDef*
G36*
G01*
X154046250Y-124995000D02*
X153533750Y-124995000D01*
G75*
G02*
X153315000Y-124776250I0J218750D01*
G01*
X153315000Y-124338750D01*
G75*
G02*
X153533750Y-124120000I218750J0D01*
G01*
X154046250Y-124120000D01*
G75*
G02*
X154265000Y-124338750I0J-218750D01*
G01*
X154265000Y-124776250D01*
G75*
G02*
X154046250Y-124995000I-218750J0D01*
G01*
G37*
G04 #@! TD.AperFunction*
G04 #@! TA.AperFunction,SMDPad,CuDef*
G36*
G01*
X154046250Y-123420000D02*
X153533750Y-123420000D01*
G75*
G02*
X153315000Y-123201250I0J218750D01*
G01*
X153315000Y-122763750D01*
G75*
G02*
X153533750Y-122545000I218750J0D01*
G01*
X154046250Y-122545000D01*
G75*
G02*
X154265000Y-122763750I0J-218750D01*
G01*
X154265000Y-123201250D01*
G75*
G02*
X154046250Y-123420000I-218750J0D01*
G01*
G37*
G04 #@! TD.AperFunction*
G04 #@! TA.AperFunction,SMDPad,CuDef*
G36*
G01*
X152536250Y-123420000D02*
X152023750Y-123420000D01*
G75*
G02*
X151805000Y-123201250I0J218750D01*
G01*
X151805000Y-122763750D01*
G75*
G02*
X152023750Y-122545000I218750J0D01*
G01*
X152536250Y-122545000D01*
G75*
G02*
X152755000Y-122763750I0J-218750D01*
G01*
X152755000Y-123201250D01*
G75*
G02*
X152536250Y-123420000I-218750J0D01*
G01*
G37*
G04 #@! TD.AperFunction*
G04 #@! TA.AperFunction,SMDPad,CuDef*
G36*
G01*
X152536250Y-124995000D02*
X152023750Y-124995000D01*
G75*
G02*
X151805000Y-124776250I0J218750D01*
G01*
X151805000Y-124338750D01*
G75*
G02*
X152023750Y-124120000I218750J0D01*
G01*
X152536250Y-124120000D01*
G75*
G02*
X152755000Y-124338750I0J-218750D01*
G01*
X152755000Y-124776250D01*
G75*
G02*
X152536250Y-124995000I-218750J0D01*
G01*
G37*
G04 #@! TD.AperFunction*
G04 #@! TA.AperFunction,SMDPad,CuDef*
G36*
G01*
X151026250Y-124995000D02*
X150513750Y-124995000D01*
G75*
G02*
X150295000Y-124776250I0J218750D01*
G01*
X150295000Y-124338750D01*
G75*
G02*
X150513750Y-124120000I218750J0D01*
G01*
X151026250Y-124120000D01*
G75*
G02*
X151245000Y-124338750I0J-218750D01*
G01*
X151245000Y-124776250D01*
G75*
G02*
X151026250Y-124995000I-218750J0D01*
G01*
G37*
G04 #@! TD.AperFunction*
G04 #@! TA.AperFunction,SMDPad,CuDef*
G36*
G01*
X151026250Y-123420000D02*
X150513750Y-123420000D01*
G75*
G02*
X150295000Y-123201250I0J218750D01*
G01*
X150295000Y-122763750D01*
G75*
G02*
X150513750Y-122545000I218750J0D01*
G01*
X151026250Y-122545000D01*
G75*
G02*
X151245000Y-122763750I0J-218750D01*
G01*
X151245000Y-123201250D01*
G75*
G02*
X151026250Y-123420000I-218750J0D01*
G01*
G37*
G04 #@! TD.AperFunction*
G04 #@! TA.AperFunction,SMDPad,CuDef*
G36*
G01*
X149516250Y-123420000D02*
X149003750Y-123420000D01*
G75*
G02*
X148785000Y-123201250I0J218750D01*
G01*
X148785000Y-122763750D01*
G75*
G02*
X149003750Y-122545000I218750J0D01*
G01*
X149516250Y-122545000D01*
G75*
G02*
X149735000Y-122763750I0J-218750D01*
G01*
X149735000Y-123201250D01*
G75*
G02*
X149516250Y-123420000I-218750J0D01*
G01*
G37*
G04 #@! TD.AperFunction*
G04 #@! TA.AperFunction,SMDPad,CuDef*
G36*
G01*
X149516250Y-124995000D02*
X149003750Y-124995000D01*
G75*
G02*
X148785000Y-124776250I0J218750D01*
G01*
X148785000Y-124338750D01*
G75*
G02*
X149003750Y-124120000I218750J0D01*
G01*
X149516250Y-124120000D01*
G75*
G02*
X149735000Y-124338750I0J-218750D01*
G01*
X149735000Y-124776250D01*
G75*
G02*
X149516250Y-124995000I-218750J0D01*
G01*
G37*
G04 #@! TD.AperFunction*
G04 #@! TA.AperFunction,SMDPad,CuDef*
G36*
G01*
X148006250Y-123420000D02*
X147493750Y-123420000D01*
G75*
G02*
X147275000Y-123201250I0J218750D01*
G01*
X147275000Y-122763750D01*
G75*
G02*
X147493750Y-122545000I218750J0D01*
G01*
X148006250Y-122545000D01*
G75*
G02*
X148225000Y-122763750I0J-218750D01*
G01*
X148225000Y-123201250D01*
G75*
G02*
X148006250Y-123420000I-218750J0D01*
G01*
G37*
G04 #@! TD.AperFunction*
G04 #@! TA.AperFunction,SMDPad,CuDef*
G36*
G01*
X148006250Y-124995000D02*
X147493750Y-124995000D01*
G75*
G02*
X147275000Y-124776250I0J218750D01*
G01*
X147275000Y-124338750D01*
G75*
G02*
X147493750Y-124120000I218750J0D01*
G01*
X148006250Y-124120000D01*
G75*
G02*
X148225000Y-124338750I0J-218750D01*
G01*
X148225000Y-124776250D01*
G75*
G02*
X148006250Y-124995000I-218750J0D01*
G01*
G37*
G04 #@! TD.AperFunction*
G04 #@! TA.AperFunction,SMDPad,CuDef*
G36*
G01*
X155191750Y-107284000D02*
X155704250Y-107284000D01*
G75*
G02*
X155923000Y-107502750I0J-218750D01*
G01*
X155923000Y-107940250D01*
G75*
G02*
X155704250Y-108159000I-218750J0D01*
G01*
X155191750Y-108159000D01*
G75*
G02*
X154973000Y-107940250I0J218750D01*
G01*
X154973000Y-107502750D01*
G75*
G02*
X155191750Y-107284000I218750J0D01*
G01*
G37*
G04 #@! TD.AperFunction*
G04 #@! TA.AperFunction,SMDPad,CuDef*
G36*
G01*
X155191750Y-105709000D02*
X155704250Y-105709000D01*
G75*
G02*
X155923000Y-105927750I0J-218750D01*
G01*
X155923000Y-106365250D01*
G75*
G02*
X155704250Y-106584000I-218750J0D01*
G01*
X155191750Y-106584000D01*
G75*
G02*
X154973000Y-106365250I0J218750D01*
G01*
X154973000Y-105927750D01*
G75*
G02*
X155191750Y-105709000I218750J0D01*
G01*
G37*
G04 #@! TD.AperFunction*
G04 #@! TA.AperFunction,SMDPad,CuDef*
G36*
G01*
X162646250Y-107675000D02*
X162133750Y-107675000D01*
G75*
G02*
X161915000Y-107456250I0J218750D01*
G01*
X161915000Y-107018750D01*
G75*
G02*
X162133750Y-106800000I218750J0D01*
G01*
X162646250Y-106800000D01*
G75*
G02*
X162865000Y-107018750I0J-218750D01*
G01*
X162865000Y-107456250D01*
G75*
G02*
X162646250Y-107675000I-218750J0D01*
G01*
G37*
G04 #@! TD.AperFunction*
G04 #@! TA.AperFunction,SMDPad,CuDef*
G36*
G01*
X162646250Y-106100000D02*
X162133750Y-106100000D01*
G75*
G02*
X161915000Y-105881250I0J218750D01*
G01*
X161915000Y-105443750D01*
G75*
G02*
X162133750Y-105225000I218750J0D01*
G01*
X162646250Y-105225000D01*
G75*
G02*
X162865000Y-105443750I0J-218750D01*
G01*
X162865000Y-105881250D01*
G75*
G02*
X162646250Y-106100000I-218750J0D01*
G01*
G37*
G04 #@! TD.AperFunction*
D16*
X171700000Y-128590000D03*
X171700000Y-130490000D03*
X173700000Y-129540000D03*
G04 #@! TA.AperFunction,SMDPad,CuDef*
G36*
G01*
X151635750Y-107377500D02*
X152148250Y-107377500D01*
G75*
G02*
X152367000Y-107596250I0J-218750D01*
G01*
X152367000Y-108033750D01*
G75*
G02*
X152148250Y-108252500I-218750J0D01*
G01*
X151635750Y-108252500D01*
G75*
G02*
X151417000Y-108033750I0J218750D01*
G01*
X151417000Y-107596250D01*
G75*
G02*
X151635750Y-107377500I218750J0D01*
G01*
G37*
G04 #@! TD.AperFunction*
G04 #@! TA.AperFunction,SMDPad,CuDef*
G36*
G01*
X151635750Y-108952500D02*
X152148250Y-108952500D01*
G75*
G02*
X152367000Y-109171250I0J-218750D01*
G01*
X152367000Y-109608750D01*
G75*
G02*
X152148250Y-109827500I-218750J0D01*
G01*
X151635750Y-109827500D01*
G75*
G02*
X151417000Y-109608750I0J218750D01*
G01*
X151417000Y-109171250D01*
G75*
G02*
X151635750Y-108952500I218750J0D01*
G01*
G37*
G04 #@! TD.AperFunction*
G04 #@! TA.AperFunction,SMDPad,CuDef*
G36*
G01*
X168480000Y-106113750D02*
X168480000Y-106626250D01*
G75*
G02*
X168261250Y-106845000I-218750J0D01*
G01*
X167823750Y-106845000D01*
G75*
G02*
X167605000Y-106626250I0J218750D01*
G01*
X167605000Y-106113750D01*
G75*
G02*
X167823750Y-105895000I218750J0D01*
G01*
X168261250Y-105895000D01*
G75*
G02*
X168480000Y-106113750I0J-218750D01*
G01*
G37*
G04 #@! TD.AperFunction*
G04 #@! TA.AperFunction,SMDPad,CuDef*
G36*
G01*
X170055000Y-106113750D02*
X170055000Y-106626250D01*
G75*
G02*
X169836250Y-106845000I-218750J0D01*
G01*
X169398750Y-106845000D01*
G75*
G02*
X169180000Y-106626250I0J218750D01*
G01*
X169180000Y-106113750D01*
G75*
G02*
X169398750Y-105895000I218750J0D01*
G01*
X169836250Y-105895000D01*
G75*
G02*
X170055000Y-106113750I0J-218750D01*
G01*
G37*
G04 #@! TD.AperFunction*
G04 #@! TA.AperFunction,SMDPad,CuDef*
G36*
G01*
X166046250Y-106165000D02*
X165533750Y-106165000D01*
G75*
G02*
X165315000Y-105946250I0J218750D01*
G01*
X165315000Y-105508750D01*
G75*
G02*
X165533750Y-105290000I218750J0D01*
G01*
X166046250Y-105290000D01*
G75*
G02*
X166265000Y-105508750I0J-218750D01*
G01*
X166265000Y-105946250D01*
G75*
G02*
X166046250Y-106165000I-218750J0D01*
G01*
G37*
G04 #@! TD.AperFunction*
G04 #@! TA.AperFunction,SMDPad,CuDef*
G36*
G01*
X166046250Y-104590000D02*
X165533750Y-104590000D01*
G75*
G02*
X165315000Y-104371250I0J218750D01*
G01*
X165315000Y-103933750D01*
G75*
G02*
X165533750Y-103715000I218750J0D01*
G01*
X166046250Y-103715000D01*
G75*
G02*
X166265000Y-103933750I0J-218750D01*
G01*
X166265000Y-104371250D01*
G75*
G02*
X166046250Y-104590000I-218750J0D01*
G01*
G37*
G04 #@! TD.AperFunction*
G04 #@! TA.AperFunction,SMDPad,CuDef*
G36*
G01*
X169593750Y-130475000D02*
X170106250Y-130475000D01*
G75*
G02*
X170325000Y-130693750I0J-218750D01*
G01*
X170325000Y-131131250D01*
G75*
G02*
X170106250Y-131350000I-218750J0D01*
G01*
X169593750Y-131350000D01*
G75*
G02*
X169375000Y-131131250I0J218750D01*
G01*
X169375000Y-130693750D01*
G75*
G02*
X169593750Y-130475000I218750J0D01*
G01*
G37*
G04 #@! TD.AperFunction*
G04 #@! TA.AperFunction,SMDPad,CuDef*
G36*
G01*
X169593750Y-132050000D02*
X170106250Y-132050000D01*
G75*
G02*
X170325000Y-132268750I0J-218750D01*
G01*
X170325000Y-132706250D01*
G75*
G02*
X170106250Y-132925000I-218750J0D01*
G01*
X169593750Y-132925000D01*
G75*
G02*
X169375000Y-132706250I0J218750D01*
G01*
X169375000Y-132268750D01*
G75*
G02*
X169593750Y-132050000I218750J0D01*
G01*
G37*
G04 #@! TD.AperFunction*
G04 #@! TA.AperFunction,SMDPad,CuDef*
G36*
G01*
X172830000Y-132756250D02*
X172830000Y-132243750D01*
G75*
G02*
X173048750Y-132025000I218750J0D01*
G01*
X173486250Y-132025000D01*
G75*
G02*
X173705000Y-132243750I0J-218750D01*
G01*
X173705000Y-132756250D01*
G75*
G02*
X173486250Y-132975000I-218750J0D01*
G01*
X173048750Y-132975000D01*
G75*
G02*
X172830000Y-132756250I0J218750D01*
G01*
G37*
G04 #@! TD.AperFunction*
G04 #@! TA.AperFunction,SMDPad,CuDef*
G36*
G01*
X171255000Y-132756250D02*
X171255000Y-132243750D01*
G75*
G02*
X171473750Y-132025000I218750J0D01*
G01*
X171911250Y-132025000D01*
G75*
G02*
X172130000Y-132243750I0J-218750D01*
G01*
X172130000Y-132756250D01*
G75*
G02*
X171911250Y-132975000I-218750J0D01*
G01*
X171473750Y-132975000D01*
G75*
G02*
X171255000Y-132756250I0J218750D01*
G01*
G37*
G04 #@! TD.AperFunction*
G04 #@! TA.AperFunction,SMDPad,CuDef*
D15*
G36*
X144303109Y-105930513D02*
G01*
X145169135Y-106430513D01*
X144394135Y-107772853D01*
X143528109Y-107272853D01*
X144303109Y-105930513D01*
G37*
G04 #@! TD.AperFunction*
G04 #@! TA.AperFunction,SMDPad,CuDef*
G36*
X141678109Y-110477147D02*
G01*
X142544135Y-110977147D01*
X141769135Y-112319487D01*
X140903109Y-111819487D01*
X141678109Y-110477147D01*
G37*
G04 #@! TD.AperFunction*
G04 #@! TA.AperFunction,SMDPad,CuDef*
G36*
X140205865Y-109627147D02*
G01*
X141071891Y-110127147D01*
X140296891Y-111469487D01*
X139430865Y-110969487D01*
X140205865Y-109627147D01*
G37*
G04 #@! TD.AperFunction*
G04 #@! TA.AperFunction,SMDPad,CuDef*
G36*
X142830865Y-105080513D02*
G01*
X143696891Y-105580513D01*
X142921891Y-106922853D01*
X142055865Y-106422853D01*
X142830865Y-105080513D01*
G37*
G04 #@! TD.AperFunction*
D17*
X138760000Y-116155000D03*
X138760000Y-121405000D03*
X140460000Y-121405000D03*
X140460000Y-116155000D03*
D18*
X158310000Y-105830000D03*
X158310000Y-106780000D03*
X158310000Y-107730000D03*
X160510000Y-107730000D03*
X160510000Y-105830000D03*
D19*
X177210000Y-120080000D03*
X177210000Y-119430000D03*
X177210000Y-118780000D03*
X177210000Y-118130000D03*
X177210000Y-117480000D03*
D20*
X177570000Y-121242500D03*
X177570000Y-116317500D03*
D21*
X179870000Y-121690000D03*
X179870000Y-115870000D03*
D22*
X179870000Y-119620000D03*
X179870000Y-117940000D03*
G04 #@! TA.AperFunction,SMDPad,CuDef*
G36*
G01*
X173100000Y-121193750D02*
X173100000Y-121706250D01*
G75*
G02*
X172881250Y-121925000I-218750J0D01*
G01*
X172443750Y-121925000D01*
G75*
G02*
X172225000Y-121706250I0J218750D01*
G01*
X172225000Y-121193750D01*
G75*
G02*
X172443750Y-120975000I218750J0D01*
G01*
X172881250Y-120975000D01*
G75*
G02*
X173100000Y-121193750I0J-218750D01*
G01*
G37*
G04 #@! TD.AperFunction*
G04 #@! TA.AperFunction,SMDPad,CuDef*
G36*
G01*
X174675000Y-121193750D02*
X174675000Y-121706250D01*
G75*
G02*
X174456250Y-121925000I-218750J0D01*
G01*
X174018750Y-121925000D01*
G75*
G02*
X173800000Y-121706250I0J218750D01*
G01*
X173800000Y-121193750D01*
G75*
G02*
X174018750Y-120975000I218750J0D01*
G01*
X174456250Y-120975000D01*
G75*
G02*
X174675000Y-121193750I0J-218750D01*
G01*
G37*
G04 #@! TD.AperFunction*
G04 #@! TA.AperFunction,SMDPad,CuDef*
G36*
G01*
X153575000Y-116393750D02*
X153575000Y-116906250D01*
G75*
G02*
X153356250Y-117125000I-218750J0D01*
G01*
X152918750Y-117125000D01*
G75*
G02*
X152700000Y-116906250I0J218750D01*
G01*
X152700000Y-116393750D01*
G75*
G02*
X152918750Y-116175000I218750J0D01*
G01*
X153356250Y-116175000D01*
G75*
G02*
X153575000Y-116393750I0J-218750D01*
G01*
G37*
G04 #@! TD.AperFunction*
G04 #@! TA.AperFunction,SMDPad,CuDef*
G36*
G01*
X152000000Y-116393750D02*
X152000000Y-116906250D01*
G75*
G02*
X151781250Y-117125000I-218750J0D01*
G01*
X151343750Y-117125000D01*
G75*
G02*
X151125000Y-116906250I0J218750D01*
G01*
X151125000Y-116393750D01*
G75*
G02*
X151343750Y-116175000I218750J0D01*
G01*
X151781250Y-116175000D01*
G75*
G02*
X152000000Y-116393750I0J-218750D01*
G01*
G37*
G04 #@! TD.AperFunction*
G04 #@! TA.AperFunction,SMDPad,CuDef*
G36*
G01*
X163385000Y-110015000D02*
X163635000Y-110015000D01*
G75*
G02*
X163760000Y-110140000I0J-125000D01*
G01*
X163760000Y-111390000D01*
G75*
G02*
X163635000Y-111515000I-125000J0D01*
G01*
X163385000Y-111515000D01*
G75*
G02*
X163260000Y-111390000I0J125000D01*
G01*
X163260000Y-110140000D01*
G75*
G02*
X163385000Y-110015000I125000J0D01*
G01*
G37*
G04 #@! TD.AperFunction*
G04 #@! TA.AperFunction,SMDPad,CuDef*
G36*
G01*
X162585000Y-110015000D02*
X162835000Y-110015000D01*
G75*
G02*
X162960000Y-110140000I0J-125000D01*
G01*
X162960000Y-111390000D01*
G75*
G02*
X162835000Y-111515000I-125000J0D01*
G01*
X162585000Y-111515000D01*
G75*
G02*
X162460000Y-111390000I0J125000D01*
G01*
X162460000Y-110140000D01*
G75*
G02*
X162585000Y-110015000I125000J0D01*
G01*
G37*
G04 #@! TD.AperFunction*
G04 #@! TA.AperFunction,SMDPad,CuDef*
G36*
G01*
X161785000Y-110015000D02*
X162035000Y-110015000D01*
G75*
G02*
X162160000Y-110140000I0J-125000D01*
G01*
X162160000Y-111390000D01*
G75*
G02*
X162035000Y-111515000I-125000J0D01*
G01*
X161785000Y-111515000D01*
G75*
G02*
X161660000Y-111390000I0J125000D01*
G01*
X161660000Y-110140000D01*
G75*
G02*
X161785000Y-110015000I125000J0D01*
G01*
G37*
G04 #@! TD.AperFunction*
G04 #@! TA.AperFunction,SMDPad,CuDef*
G36*
G01*
X160985000Y-110015000D02*
X161235000Y-110015000D01*
G75*
G02*
X161360000Y-110140000I0J-125000D01*
G01*
X161360000Y-111390000D01*
G75*
G02*
X161235000Y-111515000I-125000J0D01*
G01*
X160985000Y-111515000D01*
G75*
G02*
X160860000Y-111390000I0J125000D01*
G01*
X160860000Y-110140000D01*
G75*
G02*
X160985000Y-110015000I125000J0D01*
G01*
G37*
G04 #@! TD.AperFunction*
G04 #@! TA.AperFunction,SMDPad,CuDef*
G36*
G01*
X160185000Y-110015000D02*
X160435000Y-110015000D01*
G75*
G02*
X160560000Y-110140000I0J-125000D01*
G01*
X160560000Y-111390000D01*
G75*
G02*
X160435000Y-111515000I-125000J0D01*
G01*
X160185000Y-111515000D01*
G75*
G02*
X160060000Y-111390000I0J125000D01*
G01*
X160060000Y-110140000D01*
G75*
G02*
X160185000Y-110015000I125000J0D01*
G01*
G37*
G04 #@! TD.AperFunction*
G04 #@! TA.AperFunction,SMDPad,CuDef*
G36*
G01*
X159385000Y-110015000D02*
X159635000Y-110015000D01*
G75*
G02*
X159760000Y-110140000I0J-125000D01*
G01*
X159760000Y-111390000D01*
G75*
G02*
X159635000Y-111515000I-125000J0D01*
G01*
X159385000Y-111515000D01*
G75*
G02*
X159260000Y-111390000I0J125000D01*
G01*
X159260000Y-110140000D01*
G75*
G02*
X159385000Y-110015000I125000J0D01*
G01*
G37*
G04 #@! TD.AperFunction*
G04 #@! TA.AperFunction,SMDPad,CuDef*
G36*
G01*
X158585000Y-110015000D02*
X158835000Y-110015000D01*
G75*
G02*
X158960000Y-110140000I0J-125000D01*
G01*
X158960000Y-111390000D01*
G75*
G02*
X158835000Y-111515000I-125000J0D01*
G01*
X158585000Y-111515000D01*
G75*
G02*
X158460000Y-111390000I0J125000D01*
G01*
X158460000Y-110140000D01*
G75*
G02*
X158585000Y-110015000I125000J0D01*
G01*
G37*
G04 #@! TD.AperFunction*
G04 #@! TA.AperFunction,SMDPad,CuDef*
G36*
G01*
X157785000Y-110015000D02*
X158035000Y-110015000D01*
G75*
G02*
X158160000Y-110140000I0J-125000D01*
G01*
X158160000Y-111390000D01*
G75*
G02*
X158035000Y-111515000I-125000J0D01*
G01*
X157785000Y-111515000D01*
G75*
G02*
X157660000Y-111390000I0J125000D01*
G01*
X157660000Y-110140000D01*
G75*
G02*
X157785000Y-110015000I125000J0D01*
G01*
G37*
G04 #@! TD.AperFunction*
G04 #@! TA.AperFunction,SMDPad,CuDef*
G36*
G01*
X155910000Y-111890000D02*
X157160000Y-111890000D01*
G75*
G02*
X157285000Y-112015000I0J-125000D01*
G01*
X157285000Y-112265000D01*
G75*
G02*
X157160000Y-112390000I-125000J0D01*
G01*
X155910000Y-112390000D01*
G75*
G02*
X155785000Y-112265000I0J125000D01*
G01*
X155785000Y-112015000D01*
G75*
G02*
X155910000Y-111890000I125000J0D01*
G01*
G37*
G04 #@! TD.AperFunction*
G04 #@! TA.AperFunction,SMDPad,CuDef*
G36*
G01*
X155910000Y-112690000D02*
X157160000Y-112690000D01*
G75*
G02*
X157285000Y-112815000I0J-125000D01*
G01*
X157285000Y-113065000D01*
G75*
G02*
X157160000Y-113190000I-125000J0D01*
G01*
X155910000Y-113190000D01*
G75*
G02*
X155785000Y-113065000I0J125000D01*
G01*
X155785000Y-112815000D01*
G75*
G02*
X155910000Y-112690000I125000J0D01*
G01*
G37*
G04 #@! TD.AperFunction*
G04 #@! TA.AperFunction,SMDPad,CuDef*
G36*
G01*
X155910000Y-113490000D02*
X157160000Y-113490000D01*
G75*
G02*
X157285000Y-113615000I0J-125000D01*
G01*
X157285000Y-113865000D01*
G75*
G02*
X157160000Y-113990000I-125000J0D01*
G01*
X155910000Y-113990000D01*
G75*
G02*
X155785000Y-113865000I0J125000D01*
G01*
X155785000Y-113615000D01*
G75*
G02*
X155910000Y-113490000I125000J0D01*
G01*
G37*
G04 #@! TD.AperFunction*
G04 #@! TA.AperFunction,SMDPad,CuDef*
G36*
G01*
X155910000Y-114290000D02*
X157160000Y-114290000D01*
G75*
G02*
X157285000Y-114415000I0J-125000D01*
G01*
X157285000Y-114665000D01*
G75*
G02*
X157160000Y-114790000I-125000J0D01*
G01*
X155910000Y-114790000D01*
G75*
G02*
X155785000Y-114665000I0J125000D01*
G01*
X155785000Y-114415000D01*
G75*
G02*
X155910000Y-114290000I125000J0D01*
G01*
G37*
G04 #@! TD.AperFunction*
G04 #@! TA.AperFunction,SMDPad,CuDef*
G36*
G01*
X155910000Y-115090000D02*
X157160000Y-115090000D01*
G75*
G02*
X157285000Y-115215000I0J-125000D01*
G01*
X157285000Y-115465000D01*
G75*
G02*
X157160000Y-115590000I-125000J0D01*
G01*
X155910000Y-115590000D01*
G75*
G02*
X155785000Y-115465000I0J125000D01*
G01*
X155785000Y-115215000D01*
G75*
G02*
X155910000Y-115090000I125000J0D01*
G01*
G37*
G04 #@! TD.AperFunction*
G04 #@! TA.AperFunction,SMDPad,CuDef*
G36*
G01*
X155910000Y-115890000D02*
X157160000Y-115890000D01*
G75*
G02*
X157285000Y-116015000I0J-125000D01*
G01*
X157285000Y-116265000D01*
G75*
G02*
X157160000Y-116390000I-125000J0D01*
G01*
X155910000Y-116390000D01*
G75*
G02*
X155785000Y-116265000I0J125000D01*
G01*
X155785000Y-116015000D01*
G75*
G02*
X155910000Y-115890000I125000J0D01*
G01*
G37*
G04 #@! TD.AperFunction*
G04 #@! TA.AperFunction,SMDPad,CuDef*
G36*
G01*
X155910000Y-116690000D02*
X157160000Y-116690000D01*
G75*
G02*
X157285000Y-116815000I0J-125000D01*
G01*
X157285000Y-117065000D01*
G75*
G02*
X157160000Y-117190000I-125000J0D01*
G01*
X155910000Y-117190000D01*
G75*
G02*
X155785000Y-117065000I0J125000D01*
G01*
X155785000Y-116815000D01*
G75*
G02*
X155910000Y-116690000I125000J0D01*
G01*
G37*
G04 #@! TD.AperFunction*
G04 #@! TA.AperFunction,SMDPad,CuDef*
G36*
G01*
X155910000Y-117490000D02*
X157160000Y-117490000D01*
G75*
G02*
X157285000Y-117615000I0J-125000D01*
G01*
X157285000Y-117865000D01*
G75*
G02*
X157160000Y-117990000I-125000J0D01*
G01*
X155910000Y-117990000D01*
G75*
G02*
X155785000Y-117865000I0J125000D01*
G01*
X155785000Y-117615000D01*
G75*
G02*
X155910000Y-117490000I125000J0D01*
G01*
G37*
G04 #@! TD.AperFunction*
G04 #@! TA.AperFunction,SMDPad,CuDef*
G36*
G01*
X157785000Y-118365000D02*
X158035000Y-118365000D01*
G75*
G02*
X158160000Y-118490000I0J-125000D01*
G01*
X158160000Y-119740000D01*
G75*
G02*
X158035000Y-119865000I-125000J0D01*
G01*
X157785000Y-119865000D01*
G75*
G02*
X157660000Y-119740000I0J125000D01*
G01*
X157660000Y-118490000D01*
G75*
G02*
X157785000Y-118365000I125000J0D01*
G01*
G37*
G04 #@! TD.AperFunction*
G04 #@! TA.AperFunction,SMDPad,CuDef*
G36*
G01*
X158585000Y-118365000D02*
X158835000Y-118365000D01*
G75*
G02*
X158960000Y-118490000I0J-125000D01*
G01*
X158960000Y-119740000D01*
G75*
G02*
X158835000Y-119865000I-125000J0D01*
G01*
X158585000Y-119865000D01*
G75*
G02*
X158460000Y-119740000I0J125000D01*
G01*
X158460000Y-118490000D01*
G75*
G02*
X158585000Y-118365000I125000J0D01*
G01*
G37*
G04 #@! TD.AperFunction*
G04 #@! TA.AperFunction,SMDPad,CuDef*
G36*
G01*
X159385000Y-118365000D02*
X159635000Y-118365000D01*
G75*
G02*
X159760000Y-118490000I0J-125000D01*
G01*
X159760000Y-119740000D01*
G75*
G02*
X159635000Y-119865000I-125000J0D01*
G01*
X159385000Y-119865000D01*
G75*
G02*
X159260000Y-119740000I0J125000D01*
G01*
X159260000Y-118490000D01*
G75*
G02*
X159385000Y-118365000I125000J0D01*
G01*
G37*
G04 #@! TD.AperFunction*
G04 #@! TA.AperFunction,SMDPad,CuDef*
G36*
G01*
X160185000Y-118365000D02*
X160435000Y-118365000D01*
G75*
G02*
X160560000Y-118490000I0J-125000D01*
G01*
X160560000Y-119740000D01*
G75*
G02*
X160435000Y-119865000I-125000J0D01*
G01*
X160185000Y-119865000D01*
G75*
G02*
X160060000Y-119740000I0J125000D01*
G01*
X160060000Y-118490000D01*
G75*
G02*
X160185000Y-118365000I125000J0D01*
G01*
G37*
G04 #@! TD.AperFunction*
G04 #@! TA.AperFunction,SMDPad,CuDef*
G36*
G01*
X160985000Y-118365000D02*
X161235000Y-118365000D01*
G75*
G02*
X161360000Y-118490000I0J-125000D01*
G01*
X161360000Y-119740000D01*
G75*
G02*
X161235000Y-119865000I-125000J0D01*
G01*
X160985000Y-119865000D01*
G75*
G02*
X160860000Y-119740000I0J125000D01*
G01*
X160860000Y-118490000D01*
G75*
G02*
X160985000Y-118365000I125000J0D01*
G01*
G37*
G04 #@! TD.AperFunction*
G04 #@! TA.AperFunction,SMDPad,CuDef*
G36*
G01*
X161785000Y-118365000D02*
X162035000Y-118365000D01*
G75*
G02*
X162160000Y-118490000I0J-125000D01*
G01*
X162160000Y-119740000D01*
G75*
G02*
X162035000Y-119865000I-125000J0D01*
G01*
X161785000Y-119865000D01*
G75*
G02*
X161660000Y-119740000I0J125000D01*
G01*
X161660000Y-118490000D01*
G75*
G02*
X161785000Y-118365000I125000J0D01*
G01*
G37*
G04 #@! TD.AperFunction*
G04 #@! TA.AperFunction,SMDPad,CuDef*
G36*
G01*
X162585000Y-118365000D02*
X162835000Y-118365000D01*
G75*
G02*
X162960000Y-118490000I0J-125000D01*
G01*
X162960000Y-119740000D01*
G75*
G02*
X162835000Y-119865000I-125000J0D01*
G01*
X162585000Y-119865000D01*
G75*
G02*
X162460000Y-119740000I0J125000D01*
G01*
X162460000Y-118490000D01*
G75*
G02*
X162585000Y-118365000I125000J0D01*
G01*
G37*
G04 #@! TD.AperFunction*
G04 #@! TA.AperFunction,SMDPad,CuDef*
G36*
G01*
X163385000Y-118365000D02*
X163635000Y-118365000D01*
G75*
G02*
X163760000Y-118490000I0J-125000D01*
G01*
X163760000Y-119740000D01*
G75*
G02*
X163635000Y-119865000I-125000J0D01*
G01*
X163385000Y-119865000D01*
G75*
G02*
X163260000Y-119740000I0J125000D01*
G01*
X163260000Y-118490000D01*
G75*
G02*
X163385000Y-118365000I125000J0D01*
G01*
G37*
G04 #@! TD.AperFunction*
G04 #@! TA.AperFunction,SMDPad,CuDef*
G36*
G01*
X164260000Y-117490000D02*
X165510000Y-117490000D01*
G75*
G02*
X165635000Y-117615000I0J-125000D01*
G01*
X165635000Y-117865000D01*
G75*
G02*
X165510000Y-117990000I-125000J0D01*
G01*
X164260000Y-117990000D01*
G75*
G02*
X164135000Y-117865000I0J125000D01*
G01*
X164135000Y-117615000D01*
G75*
G02*
X164260000Y-117490000I125000J0D01*
G01*
G37*
G04 #@! TD.AperFunction*
G04 #@! TA.AperFunction,SMDPad,CuDef*
G36*
G01*
X164260000Y-116690000D02*
X165510000Y-116690000D01*
G75*
G02*
X165635000Y-116815000I0J-125000D01*
G01*
X165635000Y-117065000D01*
G75*
G02*
X165510000Y-117190000I-125000J0D01*
G01*
X164260000Y-117190000D01*
G75*
G02*
X164135000Y-117065000I0J125000D01*
G01*
X164135000Y-116815000D01*
G75*
G02*
X164260000Y-116690000I125000J0D01*
G01*
G37*
G04 #@! TD.AperFunction*
G04 #@! TA.AperFunction,SMDPad,CuDef*
G36*
G01*
X164260000Y-115890000D02*
X165510000Y-115890000D01*
G75*
G02*
X165635000Y-116015000I0J-125000D01*
G01*
X165635000Y-116265000D01*
G75*
G02*
X165510000Y-116390000I-125000J0D01*
G01*
X164260000Y-116390000D01*
G75*
G02*
X164135000Y-116265000I0J125000D01*
G01*
X164135000Y-116015000D01*
G75*
G02*
X164260000Y-115890000I125000J0D01*
G01*
G37*
G04 #@! TD.AperFunction*
G04 #@! TA.AperFunction,SMDPad,CuDef*
G36*
G01*
X164260000Y-115090000D02*
X165510000Y-115090000D01*
G75*
G02*
X165635000Y-115215000I0J-125000D01*
G01*
X165635000Y-115465000D01*
G75*
G02*
X165510000Y-115590000I-125000J0D01*
G01*
X164260000Y-115590000D01*
G75*
G02*
X164135000Y-115465000I0J125000D01*
G01*
X164135000Y-115215000D01*
G75*
G02*
X164260000Y-115090000I125000J0D01*
G01*
G37*
G04 #@! TD.AperFunction*
G04 #@! TA.AperFunction,SMDPad,CuDef*
G36*
G01*
X164260000Y-114290000D02*
X165510000Y-114290000D01*
G75*
G02*
X165635000Y-114415000I0J-125000D01*
G01*
X165635000Y-114665000D01*
G75*
G02*
X165510000Y-114790000I-125000J0D01*
G01*
X164260000Y-114790000D01*
G75*
G02*
X164135000Y-114665000I0J125000D01*
G01*
X164135000Y-114415000D01*
G75*
G02*
X164260000Y-114290000I125000J0D01*
G01*
G37*
G04 #@! TD.AperFunction*
G04 #@! TA.AperFunction,SMDPad,CuDef*
G36*
G01*
X164260000Y-113490000D02*
X165510000Y-113490000D01*
G75*
G02*
X165635000Y-113615000I0J-125000D01*
G01*
X165635000Y-113865000D01*
G75*
G02*
X165510000Y-113990000I-125000J0D01*
G01*
X164260000Y-113990000D01*
G75*
G02*
X164135000Y-113865000I0J125000D01*
G01*
X164135000Y-113615000D01*
G75*
G02*
X164260000Y-113490000I125000J0D01*
G01*
G37*
G04 #@! TD.AperFunction*
G04 #@! TA.AperFunction,SMDPad,CuDef*
G36*
G01*
X164260000Y-112690000D02*
X165510000Y-112690000D01*
G75*
G02*
X165635000Y-112815000I0J-125000D01*
G01*
X165635000Y-113065000D01*
G75*
G02*
X165510000Y-113190000I-125000J0D01*
G01*
X164260000Y-113190000D01*
G75*
G02*
X164135000Y-113065000I0J125000D01*
G01*
X164135000Y-112815000D01*
G75*
G02*
X164260000Y-112690000I125000J0D01*
G01*
G37*
G04 #@! TD.AperFunction*
G04 #@! TA.AperFunction,SMDPad,CuDef*
G36*
G01*
X164260000Y-111890000D02*
X165510000Y-111890000D01*
G75*
G02*
X165635000Y-112015000I0J-125000D01*
G01*
X165635000Y-112265000D01*
G75*
G02*
X165510000Y-112390000I-125000J0D01*
G01*
X164260000Y-112390000D01*
G75*
G02*
X164135000Y-112265000I0J125000D01*
G01*
X164135000Y-112015000D01*
G75*
G02*
X164260000Y-111890000I125000J0D01*
G01*
G37*
G04 #@! TD.AperFunction*
D23*
X170895000Y-116420000D03*
X172805000Y-116420000D03*
X170895000Y-115120000D03*
X172805000Y-115120000D03*
X170895000Y-113820000D03*
X172805000Y-113820000D03*
G04 #@! TA.AperFunction,SMDPad,CuDef*
G36*
G01*
X170645000Y-116420003D02*
X170645000Y-113819997D01*
G75*
G02*
X170894997Y-113570000I249997J0D01*
G01*
X172805003Y-113570000D01*
G75*
G02*
X173055000Y-113819997I0J-249997D01*
G01*
X173055000Y-116420003D01*
G75*
G02*
X172805003Y-116670000I-249997J0D01*
G01*
X170894997Y-116670000D01*
G75*
G02*
X170645000Y-116420003I0J249997D01*
G01*
G37*
G04 #@! TD.AperFunction*
G04 #@! TA.AperFunction,SMDPad,CuDef*
G36*
G01*
X177050000Y-113706250D02*
X177050000Y-113193750D01*
G75*
G02*
X177268750Y-112975000I218750J0D01*
G01*
X177706250Y-112975000D01*
G75*
G02*
X177925000Y-113193750I0J-218750D01*
G01*
X177925000Y-113706250D01*
G75*
G02*
X177706250Y-113925000I-218750J0D01*
G01*
X177268750Y-113925000D01*
G75*
G02*
X177050000Y-113706250I0J218750D01*
G01*
G37*
G04 #@! TD.AperFunction*
G04 #@! TA.AperFunction,SMDPad,CuDef*
G36*
G01*
X175475000Y-113706250D02*
X175475000Y-113193750D01*
G75*
G02*
X175693750Y-112975000I218750J0D01*
G01*
X176131250Y-112975000D01*
G75*
G02*
X176350000Y-113193750I0J-218750D01*
G01*
X176350000Y-113706250D01*
G75*
G02*
X176131250Y-113925000I-218750J0D01*
G01*
X175693750Y-113925000D01*
G75*
G02*
X175475000Y-113706250I0J218750D01*
G01*
G37*
G04 #@! TD.AperFunction*
G04 #@! TA.AperFunction,SMDPad,CuDef*
G36*
G01*
X147266250Y-107495000D02*
X146753750Y-107495000D01*
G75*
G02*
X146535000Y-107276250I0J218750D01*
G01*
X146535000Y-106838750D01*
G75*
G02*
X146753750Y-106620000I218750J0D01*
G01*
X147266250Y-106620000D01*
G75*
G02*
X147485000Y-106838750I0J-218750D01*
G01*
X147485000Y-107276250D01*
G75*
G02*
X147266250Y-107495000I-218750J0D01*
G01*
G37*
G04 #@! TD.AperFunction*
G04 #@! TA.AperFunction,SMDPad,CuDef*
G36*
G01*
X147266250Y-105920000D02*
X146753750Y-105920000D01*
G75*
G02*
X146535000Y-105701250I0J218750D01*
G01*
X146535000Y-105263750D01*
G75*
G02*
X146753750Y-105045000I218750J0D01*
G01*
X147266250Y-105045000D01*
G75*
G02*
X147485000Y-105263750I0J-218750D01*
G01*
X147485000Y-105701250D01*
G75*
G02*
X147266250Y-105920000I-218750J0D01*
G01*
G37*
G04 #@! TD.AperFunction*
G04 #@! TA.AperFunction,SMDPad,CuDef*
G36*
G01*
X145740000Y-117963750D02*
X145740000Y-118476250D01*
G75*
G02*
X145521250Y-118695000I-218750J0D01*
G01*
X145083750Y-118695000D01*
G75*
G02*
X144865000Y-118476250I0J218750D01*
G01*
X144865000Y-117963750D01*
G75*
G02*
X145083750Y-117745000I218750J0D01*
G01*
X145521250Y-117745000D01*
G75*
G02*
X145740000Y-117963750I0J-218750D01*
G01*
G37*
G04 #@! TD.AperFunction*
G04 #@! TA.AperFunction,SMDPad,CuDef*
G36*
G01*
X147315000Y-117963750D02*
X147315000Y-118476250D01*
G75*
G02*
X147096250Y-118695000I-218750J0D01*
G01*
X146658750Y-118695000D01*
G75*
G02*
X146440000Y-118476250I0J218750D01*
G01*
X146440000Y-117963750D01*
G75*
G02*
X146658750Y-117745000I218750J0D01*
G01*
X147096250Y-117745000D01*
G75*
G02*
X147315000Y-117963750I0J-218750D01*
G01*
G37*
G04 #@! TD.AperFunction*
G04 #@! TA.AperFunction,SMDPad,CuDef*
G36*
G01*
X143833750Y-123045000D02*
X144346250Y-123045000D01*
G75*
G02*
X144565000Y-123263750I0J-218750D01*
G01*
X144565000Y-123701250D01*
G75*
G02*
X144346250Y-123920000I-218750J0D01*
G01*
X143833750Y-123920000D01*
G75*
G02*
X143615000Y-123701250I0J218750D01*
G01*
X143615000Y-123263750D01*
G75*
G02*
X143833750Y-123045000I218750J0D01*
G01*
G37*
G04 #@! TD.AperFunction*
G04 #@! TA.AperFunction,SMDPad,CuDef*
G36*
G01*
X143833750Y-124620000D02*
X144346250Y-124620000D01*
G75*
G02*
X144565000Y-124838750I0J-218750D01*
G01*
X144565000Y-125276250D01*
G75*
G02*
X144346250Y-125495000I-218750J0D01*
G01*
X143833750Y-125495000D01*
G75*
G02*
X143615000Y-125276250I0J218750D01*
G01*
X143615000Y-124838750D01*
G75*
G02*
X143833750Y-124620000I218750J0D01*
G01*
G37*
G04 #@! TD.AperFunction*
G04 #@! TA.AperFunction,SMDPad,CuDef*
G36*
G01*
X150505000Y-106763750D02*
X150505000Y-107276250D01*
G75*
G02*
X150286250Y-107495000I-218750J0D01*
G01*
X149848750Y-107495000D01*
G75*
G02*
X149630000Y-107276250I0J218750D01*
G01*
X149630000Y-106763750D01*
G75*
G02*
X149848750Y-106545000I218750J0D01*
G01*
X150286250Y-106545000D01*
G75*
G02*
X150505000Y-106763750I0J-218750D01*
G01*
G37*
G04 #@! TD.AperFunction*
G04 #@! TA.AperFunction,SMDPad,CuDef*
G36*
G01*
X148930000Y-106763750D02*
X148930000Y-107276250D01*
G75*
G02*
X148711250Y-107495000I-218750J0D01*
G01*
X148273750Y-107495000D01*
G75*
G02*
X148055000Y-107276250I0J218750D01*
G01*
X148055000Y-106763750D01*
G75*
G02*
X148273750Y-106545000I218750J0D01*
G01*
X148711250Y-106545000D01*
G75*
G02*
X148930000Y-106763750I0J-218750D01*
G01*
G37*
G04 #@! TD.AperFunction*
G04 #@! TA.AperFunction,SMDPad,CuDef*
G36*
G01*
X149676250Y-118650000D02*
X149163750Y-118650000D01*
G75*
G02*
X148945000Y-118431250I0J218750D01*
G01*
X148945000Y-117993750D01*
G75*
G02*
X149163750Y-117775000I218750J0D01*
G01*
X149676250Y-117775000D01*
G75*
G02*
X149895000Y-117993750I0J-218750D01*
G01*
X149895000Y-118431250D01*
G75*
G02*
X149676250Y-118650000I-218750J0D01*
G01*
G37*
G04 #@! TD.AperFunction*
G04 #@! TA.AperFunction,SMDPad,CuDef*
G36*
G01*
X149676250Y-120225000D02*
X149163750Y-120225000D01*
G75*
G02*
X148945000Y-120006250I0J218750D01*
G01*
X148945000Y-119568750D01*
G75*
G02*
X149163750Y-119350000I218750J0D01*
G01*
X149676250Y-119350000D01*
G75*
G02*
X149895000Y-119568750I0J-218750D01*
G01*
X149895000Y-120006250D01*
G75*
G02*
X149676250Y-120225000I-218750J0D01*
G01*
G37*
G04 #@! TD.AperFunction*
G04 #@! TA.AperFunction,SMDPad,CuDef*
G36*
G01*
X147315000Y-119773750D02*
X147315000Y-120286250D01*
G75*
G02*
X147096250Y-120505000I-218750J0D01*
G01*
X146658750Y-120505000D01*
G75*
G02*
X146440000Y-120286250I0J218750D01*
G01*
X146440000Y-119773750D01*
G75*
G02*
X146658750Y-119555000I218750J0D01*
G01*
X147096250Y-119555000D01*
G75*
G02*
X147315000Y-119773750I0J-218750D01*
G01*
G37*
G04 #@! TD.AperFunction*
G04 #@! TA.AperFunction,SMDPad,CuDef*
G36*
G01*
X145740000Y-119773750D02*
X145740000Y-120286250D01*
G75*
G02*
X145521250Y-120505000I-218750J0D01*
G01*
X145083750Y-120505000D01*
G75*
G02*
X144865000Y-120286250I0J218750D01*
G01*
X144865000Y-119773750D01*
G75*
G02*
X145083750Y-119555000I218750J0D01*
G01*
X145521250Y-119555000D01*
G75*
G02*
X145740000Y-119773750I0J-218750D01*
G01*
G37*
G04 #@! TD.AperFunction*
G04 #@! TA.AperFunction,SMDPad,CuDef*
G36*
G01*
X167425000Y-125775000D02*
X167425000Y-124525000D01*
G75*
G02*
X167675000Y-124275000I250000J0D01*
G01*
X168425000Y-124275000D01*
G75*
G02*
X168675000Y-124525000I0J-250000D01*
G01*
X168675000Y-125775000D01*
G75*
G02*
X168425000Y-126025000I-250000J0D01*
G01*
X167675000Y-126025000D01*
G75*
G02*
X167425000Y-125775000I0J250000D01*
G01*
G37*
G04 #@! TD.AperFunction*
G04 #@! TA.AperFunction,SMDPad,CuDef*
G36*
G01*
X170225000Y-125775000D02*
X170225000Y-124525000D01*
G75*
G02*
X170475000Y-124275000I250000J0D01*
G01*
X171225000Y-124275000D01*
G75*
G02*
X171475000Y-124525000I0J-250000D01*
G01*
X171475000Y-125775000D01*
G75*
G02*
X171225000Y-126025000I-250000J0D01*
G01*
X170475000Y-126025000D01*
G75*
G02*
X170225000Y-125775000I0J250000D01*
G01*
G37*
G04 #@! TD.AperFunction*
D24*
X147012660Y-132593080D03*
D25*
X147012660Y-133863080D03*
X147012660Y-135133080D03*
X147012660Y-136403080D03*
X147012660Y-137673080D03*
D26*
X159437500Y-100750000D03*
X159437500Y-101250000D03*
X160962500Y-100750000D03*
X160962500Y-101250000D03*
X159437500Y-101750000D03*
X160962500Y-101750000D03*
X159437500Y-100250000D03*
X160962500Y-100250000D03*
D27*
X159950000Y-101762500D03*
X160450000Y-101762500D03*
X160450000Y-100237500D03*
X159950000Y-100237500D03*
G04 #@! TA.AperFunction,SMDPad,CuDef*
G36*
G01*
X156050000Y-104025000D02*
X156550000Y-104025000D01*
G75*
G02*
X156775000Y-104250000I0J-225000D01*
G01*
X156775000Y-104700000D01*
G75*
G02*
X156550000Y-104925000I-225000J0D01*
G01*
X156050000Y-104925000D01*
G75*
G02*
X155825000Y-104700000I0J225000D01*
G01*
X155825000Y-104250000D01*
G75*
G02*
X156050000Y-104025000I225000J0D01*
G01*
G37*
G04 #@! TD.AperFunction*
G04 #@! TA.AperFunction,SMDPad,CuDef*
G36*
G01*
X156050000Y-102475000D02*
X156550000Y-102475000D01*
G75*
G02*
X156775000Y-102700000I0J-225000D01*
G01*
X156775000Y-103150000D01*
G75*
G02*
X156550000Y-103375000I-225000J0D01*
G01*
X156050000Y-103375000D01*
G75*
G02*
X155825000Y-103150000I0J225000D01*
G01*
X155825000Y-102700000D01*
G75*
G02*
X156050000Y-102475000I225000J0D01*
G01*
G37*
G04 #@! TD.AperFunction*
G04 #@! TA.AperFunction,SMDPad,CuDef*
G36*
G01*
X164640000Y-101490000D02*
X164140000Y-101490000D01*
G75*
G02*
X163915000Y-101265000I0J225000D01*
G01*
X163915000Y-100815000D01*
G75*
G02*
X164140000Y-100590000I225000J0D01*
G01*
X164640000Y-100590000D01*
G75*
G02*
X164865000Y-100815000I0J-225000D01*
G01*
X164865000Y-101265000D01*
G75*
G02*
X164640000Y-101490000I-225000J0D01*
G01*
G37*
G04 #@! TD.AperFunction*
G04 #@! TA.AperFunction,SMDPad,CuDef*
G36*
G01*
X164640000Y-99940000D02*
X164140000Y-99940000D01*
G75*
G02*
X163915000Y-99715000I0J225000D01*
G01*
X163915000Y-99265000D01*
G75*
G02*
X164140000Y-99040000I225000J0D01*
G01*
X164640000Y-99040000D01*
G75*
G02*
X164865000Y-99265000I0J-225000D01*
G01*
X164865000Y-99715000D01*
G75*
G02*
X164640000Y-99940000I-225000J0D01*
G01*
G37*
G04 #@! TD.AperFunction*
G04 #@! TA.AperFunction,SMDPad,CuDef*
G36*
G01*
X163120000Y-101485000D02*
X162620000Y-101485000D01*
G75*
G02*
X162395000Y-101260000I0J225000D01*
G01*
X162395000Y-100810000D01*
G75*
G02*
X162620000Y-100585000I225000J0D01*
G01*
X163120000Y-100585000D01*
G75*
G02*
X163345000Y-100810000I0J-225000D01*
G01*
X163345000Y-101260000D01*
G75*
G02*
X163120000Y-101485000I-225000J0D01*
G01*
G37*
G04 #@! TD.AperFunction*
G04 #@! TA.AperFunction,SMDPad,CuDef*
G36*
G01*
X163120000Y-99935000D02*
X162620000Y-99935000D01*
G75*
G02*
X162395000Y-99710000I0J225000D01*
G01*
X162395000Y-99260000D01*
G75*
G02*
X162620000Y-99035000I225000J0D01*
G01*
X163120000Y-99035000D01*
G75*
G02*
X163345000Y-99260000I0J-225000D01*
G01*
X163345000Y-99710000D01*
G75*
G02*
X163120000Y-99935000I-225000J0D01*
G01*
G37*
G04 #@! TD.AperFunction*
D28*
X145900000Y-110830000D03*
X147950000Y-115300000D03*
X144250000Y-104150000D03*
X171450000Y-103400000D03*
X163850000Y-105750000D03*
X169900000Y-118850000D03*
X179055000Y-111995000D03*
X154700000Y-120850000D03*
X175400000Y-123150000D03*
X169680000Y-99020000D03*
X153162000Y-104648000D03*
X153670000Y-107696000D03*
D29*
X156438600Y-133179820D03*
X154820000Y-99340000D03*
X159120000Y-104340000D03*
D28*
X162814000Y-104200000D03*
X152146000Y-106172000D03*
X158300000Y-127300000D03*
X164150000Y-123550000D03*
X173500000Y-126450000D03*
X149190000Y-130780000D03*
X150763173Y-127786827D03*
X164700000Y-107350000D03*
X165050000Y-110749999D03*
D29*
X157440000Y-101110000D03*
D28*
X166790000Y-102960000D03*
X166650000Y-111350000D03*
D29*
X157030000Y-99280000D03*
D28*
X152146000Y-101600000D03*
X173900000Y-111800000D03*
X169150000Y-111900000D03*
X170250000Y-121450000D03*
X168300000Y-120050000D03*
X153640000Y-110790000D03*
X154200000Y-115400000D03*
X165800000Y-119800000D03*
X162650000Y-121300000D03*
X149650000Y-109950000D03*
X170730000Y-136080000D03*
X165650000Y-122200000D03*
X143440000Y-112410000D03*
X139965000Y-113715000D03*
X142140000Y-119110000D03*
X141960000Y-124060000D03*
D30*
X158172500Y-106917500D02*
X158310000Y-106780000D01*
X160310000Y-109915000D02*
X159015000Y-108620000D01*
X160310000Y-110765000D02*
X160310000Y-109915000D01*
X159015000Y-108620000D02*
X157272500Y-108620000D01*
D31*
X144348622Y-108773317D02*
X141723622Y-111398317D01*
X144348622Y-106851683D02*
X144348622Y-108773317D01*
X141723622Y-114891378D02*
X140460000Y-116155000D01*
X141723622Y-111398317D02*
X141723622Y-114891378D01*
X144308622Y-130608317D02*
X144308622Y-128686683D01*
X140460000Y-116155000D02*
X140460000Y-121405000D01*
D30*
X174717500Y-117480000D02*
X173917500Y-118280000D01*
X177210000Y-117480000D02*
X174717500Y-117480000D01*
X172392490Y-133375010D02*
X172805888Y-132961612D01*
X170737510Y-133375010D02*
X172392490Y-133375010D01*
X169850000Y-132487500D02*
X170737510Y-133375010D01*
X162390000Y-105662500D02*
X163762500Y-105662500D01*
D32*
X163762500Y-105662500D02*
X163850000Y-105750000D01*
D30*
X169900000Y-117789340D02*
X169900000Y-118850000D01*
X169900000Y-112778002D02*
X169900000Y-117789340D01*
X171745888Y-110932114D02*
X169900000Y-112778002D01*
D32*
X171745888Y-110901612D02*
X171745888Y-110932114D01*
X172207500Y-110440000D02*
X171745888Y-110901612D01*
X179020000Y-112030000D02*
X179055000Y-111995000D01*
D30*
X177600000Y-113450000D02*
X179055000Y-111995000D01*
D32*
X161760000Y-127262500D02*
X163230000Y-125792500D01*
X161760000Y-129860000D02*
X161760000Y-127262500D01*
X161760000Y-129860000D02*
X161760000Y-130810000D01*
X157260000Y-129860000D02*
X157260000Y-130810000D01*
X161760000Y-131490000D02*
X161760000Y-129860000D01*
X172280000Y-133487500D02*
X172392490Y-133375010D01*
X168800000Y-137430000D02*
X172280000Y-137430000D01*
X144308622Y-136548622D02*
X146620000Y-138860000D01*
X152910000Y-136550000D02*
X167920000Y-136550000D01*
X172280000Y-137430000D02*
X172280000Y-133487500D01*
X167920000Y-136550000D02*
X168800000Y-137430000D01*
X144308622Y-130608317D02*
X144308622Y-136548622D01*
X146620000Y-138860000D02*
X150600000Y-138860000D01*
X150600000Y-138860000D02*
X152910000Y-136550000D01*
X144308622Y-132088622D02*
X144308622Y-130608317D01*
X169220000Y-135600000D02*
X169850000Y-134970000D01*
X169850000Y-134970000D02*
X169850000Y-132487500D01*
X163410000Y-135600000D02*
X169220000Y-135600000D01*
X161760000Y-130710000D02*
X161760000Y-133950000D01*
X161760000Y-133950000D02*
X163410000Y-135600000D01*
D30*
X165910000Y-99472500D02*
X165795000Y-99472500D01*
X165910000Y-99472500D02*
X169227500Y-99472500D01*
X169227500Y-99472500D02*
X169680000Y-99020000D01*
X156374000Y-107721500D02*
X157272500Y-108620000D01*
X155448000Y-107721500D02*
X156374000Y-107721500D01*
X157315500Y-106780000D02*
X156374000Y-107721500D01*
X158310000Y-106780000D02*
X157315500Y-106780000D01*
X152648000Y-104648000D02*
X153162000Y-104648000D01*
X150040000Y-102040000D02*
X152648000Y-104648000D01*
X171565000Y-104505000D02*
X179055000Y-111995000D01*
X169995000Y-104505000D02*
X171565000Y-104505000D01*
D32*
X169345000Y-102136500D02*
X169345000Y-102455000D01*
X167868500Y-100660000D02*
X169345000Y-102136500D01*
X156688780Y-133430000D02*
X156438600Y-133179820D01*
X157260000Y-132358420D02*
X157260000Y-130710000D01*
X156438600Y-133179820D02*
X157260000Y-132358420D01*
D30*
X159950000Y-100640002D02*
X159950000Y-100237500D01*
X159840002Y-100750000D02*
X159950000Y-100640002D01*
X159437500Y-100750000D02*
X159840002Y-100750000D01*
X159437500Y-100750000D02*
X160962500Y-100750000D01*
X159437500Y-101250000D02*
X159437500Y-100750000D01*
X156389999Y-100909999D02*
X154820000Y-99340000D01*
X156389999Y-101614001D02*
X156389999Y-100909999D01*
X156935999Y-102160001D02*
X156389999Y-101614001D01*
X157939999Y-102160001D02*
X156935999Y-102160001D01*
X158850000Y-101250000D02*
X157939999Y-102160001D01*
X159437500Y-101250000D02*
X158850000Y-101250000D01*
X161110000Y-110765000D02*
X161110000Y-109240000D01*
X160715000Y-105830000D02*
X160510000Y-105830000D01*
X161440000Y-106555000D02*
X160715000Y-105830000D01*
X161440001Y-108909999D02*
X161440000Y-106555000D01*
X161110000Y-109240000D02*
X161440001Y-108909999D01*
X161440001Y-108187499D02*
X162390000Y-107237500D01*
X161440001Y-108909999D02*
X161440001Y-108187499D01*
X160550000Y-105790000D02*
X160510000Y-105830000D01*
X170650000Y-119950000D02*
X172450000Y-118150000D01*
X170155000Y-106370000D02*
X169617500Y-106370000D01*
X173065010Y-108037450D02*
X171397560Y-106370000D01*
X171397560Y-106370000D02*
X170155000Y-106370000D01*
X158500000Y-124747500D02*
X158320000Y-124567500D01*
D32*
X158300000Y-124587500D02*
X158320000Y-124567500D01*
D30*
X158300000Y-127300000D02*
X158300000Y-124587500D01*
D32*
X168045000Y-102380000D02*
X168045000Y-102455000D01*
D30*
X167240888Y-101575888D02*
X168045000Y-102380000D01*
X173065010Y-110861840D02*
X173065010Y-110615010D01*
X171850000Y-112076850D02*
X173065010Y-110861840D01*
X171850000Y-112400000D02*
X171850000Y-112076850D01*
X172300000Y-112850000D02*
X171850000Y-112400000D01*
X173550000Y-112850000D02*
X172300000Y-112850000D01*
X173065010Y-108037450D02*
X173065010Y-110615010D01*
X172342500Y-118280000D02*
X173950000Y-116672500D01*
X173950000Y-116672500D02*
X173950000Y-113250000D01*
X173950000Y-113250000D02*
X173550000Y-112850000D01*
D32*
X170672499Y-119950001D02*
X171880888Y-118741612D01*
X171880888Y-118741612D02*
X172342500Y-118280000D01*
X158260000Y-127340000D02*
X158300000Y-127300000D01*
X158260000Y-129860000D02*
X158260000Y-127340000D01*
X157760000Y-129860000D02*
X158260000Y-129860000D01*
D30*
X170121997Y-119950001D02*
X170672499Y-119950001D01*
X168050000Y-122021998D02*
X170121997Y-119950001D01*
X167780000Y-123550000D02*
X168050000Y-123820000D01*
X164150000Y-123550000D02*
X167780000Y-123550000D01*
X168050000Y-125150000D02*
X168050000Y-123820000D01*
X168050000Y-123820000D02*
X168050000Y-122021998D01*
X167174112Y-101509112D02*
X167240888Y-101575888D01*
X166371612Y-101509112D02*
X167174112Y-101509112D01*
X165910000Y-101047500D02*
X166371612Y-101509112D01*
D32*
X169345000Y-103955000D02*
X169345000Y-104505000D01*
X169345000Y-103655000D02*
X169345000Y-103955000D01*
X168695000Y-103005000D02*
X169345000Y-103655000D01*
X168695000Y-102455000D02*
X168695000Y-103005000D01*
X169995000Y-103005000D02*
X169345000Y-103655000D01*
X169995000Y-102455000D02*
X169995000Y-103005000D01*
X169345000Y-106097500D02*
X169617500Y-106370000D01*
X169345000Y-104505000D02*
X169345000Y-106097500D01*
D30*
X164262500Y-104200000D02*
X164524250Y-104461750D01*
X164524250Y-104461750D02*
X165790000Y-105727500D01*
X164262500Y-104200000D02*
X164278000Y-104200000D01*
X165448388Y-101509112D02*
X165910000Y-101047500D01*
X165448388Y-103029612D02*
X165448388Y-101509112D01*
X164278000Y-104200000D02*
X165448388Y-103029612D01*
X164278000Y-104200000D02*
X163322000Y-104200000D01*
X162140000Y-104200000D02*
X160510000Y-105830000D01*
X163322000Y-104200000D02*
X162140000Y-104200000D01*
D32*
X151396001Y-105422001D02*
X150888001Y-105422001D01*
X152146000Y-106172000D02*
X151396001Y-105422001D01*
X150888001Y-105422001D02*
X148844000Y-103378000D01*
X148844000Y-103378000D02*
X148844000Y-100330000D01*
X148844000Y-100330000D02*
X149199000Y-99975000D01*
D30*
X151892000Y-106426000D02*
X152146000Y-106172000D01*
X151892000Y-107815000D02*
X151892000Y-106426000D01*
D32*
X168045000Y-102455000D02*
X168695000Y-102455000D01*
X169995000Y-101211500D02*
X169995000Y-102455000D01*
X169443500Y-100660000D02*
X169995000Y-101211500D01*
X157760000Y-133590000D02*
X157760000Y-130710000D01*
X155340000Y-136010000D02*
X157760000Y-133590000D01*
X148675740Y-136010000D02*
X155340000Y-136010000D01*
X147012660Y-137673080D02*
X148675740Y-136010000D01*
D30*
X164397500Y-101047500D02*
X164390000Y-101040000D01*
X165910000Y-101047500D02*
X164397500Y-101047500D01*
X164385000Y-101035000D02*
X164390000Y-101040000D01*
X162870000Y-101035000D02*
X164385000Y-101035000D01*
X162084990Y-100249990D02*
X160962500Y-100249990D01*
X162870000Y-101035000D02*
X162084990Y-100249990D01*
X159950000Y-101762500D02*
X160450000Y-101762500D01*
X159950000Y-101762500D02*
X159950000Y-102630000D01*
X159950000Y-102630000D02*
X160590000Y-103270000D01*
X160590000Y-103270000D02*
X162180000Y-103270000D01*
X162870000Y-102580000D02*
X162870000Y-101035000D01*
X162180000Y-103270000D02*
X162870000Y-102580000D01*
D32*
X170630000Y-110437500D02*
X170632500Y-110440000D01*
X162710000Y-110765000D02*
X162710000Y-109915000D01*
D30*
X168603500Y-110437500D02*
X167894000Y-109728000D01*
X170630000Y-110437500D02*
X168603500Y-110437500D01*
X167394001Y-109228001D02*
X167894000Y-109728000D01*
X163396999Y-109228001D02*
X167394001Y-109228001D01*
X162710000Y-109915000D02*
X163396999Y-109228001D01*
D32*
X170640000Y-108562500D02*
X170652500Y-108550000D01*
D30*
X161910000Y-109915000D02*
X163262500Y-108562500D01*
X161910000Y-110765000D02*
X161910000Y-109915000D01*
X168616000Y-108550000D02*
X167894000Y-107828000D01*
X170652500Y-108550000D02*
X168616000Y-108550000D01*
X167159500Y-108562500D02*
X167894000Y-107828000D01*
X163262500Y-108562500D02*
X167159500Y-108562500D01*
X172570000Y-125520000D02*
X173500000Y-126450000D01*
D32*
X173700000Y-126650000D02*
X173500000Y-126450000D01*
D30*
X173700000Y-129540000D02*
X173700000Y-126650000D01*
X172200000Y-125150000D02*
X173500000Y-126450000D01*
X172200000Y-125150000D02*
X170850000Y-125150000D01*
D32*
X163760000Y-129860000D02*
X163760000Y-128430000D01*
X163760000Y-128430000D02*
X164370000Y-127820000D01*
X164370000Y-127582500D02*
X164565000Y-127387500D01*
X164565000Y-127387500D02*
X165140000Y-127387500D01*
X164370000Y-127820000D02*
X164370000Y-127582500D01*
X163260000Y-127397500D02*
X163230000Y-127367500D01*
X163260000Y-129860000D02*
X163260000Y-127397500D01*
X156760000Y-124617500D02*
X156810000Y-124567500D01*
X156760000Y-129860000D02*
X156760000Y-124617500D01*
X156260000Y-125527500D02*
X155300000Y-124567500D01*
X156260000Y-129860000D02*
X156260000Y-125527500D01*
X155760000Y-127314301D02*
X155770000Y-127304301D01*
X155760000Y-129860000D02*
X155760000Y-127314301D01*
X155770000Y-127304301D02*
X155770000Y-126700000D01*
X155770000Y-126700000D02*
X154450000Y-125380000D01*
X154450000Y-125217500D02*
X153790000Y-124557500D01*
X154450000Y-125380000D02*
X154450000Y-125217500D01*
X155260001Y-130790003D02*
X155260000Y-130790002D01*
X149190000Y-130780000D02*
X149190000Y-130780000D01*
X155260000Y-129860000D02*
X155260000Y-127380000D01*
X155260000Y-127380000D02*
X153360000Y-125480000D01*
X153202500Y-125480000D02*
X152280000Y-124557500D01*
X153360000Y-125480000D02*
X153202500Y-125480000D01*
X155260000Y-129860000D02*
X155260000Y-130810000D01*
X155260000Y-130710000D02*
X155260000Y-132510000D01*
X155260000Y-133740000D02*
X155260000Y-130710000D01*
X153940000Y-135060000D02*
X155260000Y-133740000D01*
X150390000Y-135060000D02*
X153940000Y-135060000D01*
X149190000Y-130780000D02*
X149190000Y-133860000D01*
X149190000Y-133860000D02*
X150390000Y-135060000D01*
X154760000Y-129860000D02*
X154760000Y-128260000D01*
X154760000Y-128260000D02*
X152650000Y-126150000D01*
X152362500Y-126150000D02*
X150770000Y-124557500D01*
X152650000Y-126150000D02*
X152362500Y-126150000D01*
D30*
X149260000Y-126283654D02*
X150763173Y-127786827D01*
X149260000Y-124557500D02*
X149260000Y-126283654D01*
D32*
X151556346Y-128580000D02*
X150763173Y-127786827D01*
X154260000Y-129860000D02*
X154260000Y-128580000D01*
X154260000Y-128580000D02*
X151556346Y-128580000D01*
X147750000Y-126990000D02*
X147750000Y-124557500D01*
X153760000Y-129860000D02*
X150620000Y-129860000D01*
X150620000Y-129860000D02*
X147750000Y-126990000D01*
X171700000Y-129062500D02*
X171700000Y-128590000D01*
D30*
X169850000Y-130912500D02*
X171700000Y-129062500D01*
D32*
X164760000Y-132960000D02*
X164760000Y-129860000D01*
X165420000Y-135120000D02*
X164760000Y-134460000D01*
X168790000Y-131972500D02*
X168790000Y-132590000D01*
X169850000Y-130912500D02*
X168790000Y-131972500D01*
X168790000Y-132590000D02*
X168800000Y-132600000D01*
X168800000Y-132600000D02*
X168800000Y-134540000D01*
X168220000Y-135120000D02*
X165420000Y-135120000D01*
X168800000Y-134540000D02*
X168220000Y-135120000D01*
X164760000Y-134460000D02*
X164760000Y-132960000D01*
D30*
X171692500Y-132500000D02*
X171692500Y-130497500D01*
D32*
X164260000Y-128910000D02*
X164940000Y-128230000D01*
X164260000Y-129860000D02*
X164260000Y-128910000D01*
X164940000Y-128230000D02*
X169390000Y-128230000D01*
X169390000Y-128230000D02*
X170090000Y-127530000D01*
X170090000Y-127530000D02*
X172330000Y-127530000D01*
X172330000Y-127530000D02*
X172710000Y-127910000D01*
X172710000Y-129530000D02*
X171750000Y-130490000D01*
X171750000Y-130490000D02*
X171700000Y-130490000D01*
X172710000Y-127910000D02*
X172710000Y-129530000D01*
X162710000Y-119736766D02*
X162710000Y-119115000D01*
X161260000Y-129860000D02*
X161260000Y-121070000D01*
X161260000Y-121070000D02*
X162120000Y-120210000D01*
X162710000Y-119965000D02*
X162710000Y-119115000D01*
X162465000Y-120210000D02*
X162710000Y-119965000D01*
X162120000Y-120210000D02*
X162465000Y-120210000D01*
X161110000Y-119736766D02*
X161110000Y-119115000D01*
X160760000Y-129860000D02*
X160760000Y-120510000D01*
X161110000Y-120160000D02*
X161110000Y-119115000D01*
X160760000Y-120510000D02*
X161110000Y-120160000D01*
D30*
X159510000Y-119115000D02*
X159565000Y-119115000D01*
D32*
X160260000Y-129860000D02*
X160260000Y-121540000D01*
X159510000Y-120790000D02*
X159510000Y-119115000D01*
X160260000Y-121540000D02*
X159510000Y-120790000D01*
D30*
X168042500Y-106370000D02*
X166510000Y-106370000D01*
X164820000Y-112075000D02*
X164885000Y-112140000D01*
X166510000Y-106370000D02*
X165530000Y-107350000D01*
X165530000Y-107350000D02*
X164700000Y-107350000D01*
D32*
X164885000Y-112140000D02*
X164885000Y-110914999D01*
X164885000Y-110914999D02*
X165050000Y-110749999D01*
X168045000Y-106367500D02*
X168042500Y-106370000D01*
X168045000Y-104505000D02*
X168045000Y-106367500D01*
D30*
X158300000Y-100250000D02*
X157440000Y-101110000D01*
X159437500Y-100250000D02*
X158300000Y-100250000D01*
X165790000Y-104152500D02*
X165790000Y-103960000D01*
X165790000Y-103960000D02*
X166790000Y-102960000D01*
D32*
X168695000Y-103955000D02*
X168695000Y-104505000D01*
X168449999Y-103709999D02*
X168695000Y-103955000D01*
X167539999Y-103709999D02*
X168449999Y-103709999D01*
X166790000Y-102960000D02*
X167539999Y-103709999D01*
D30*
X166650000Y-112410660D02*
X166650000Y-111350000D01*
X166120660Y-112940000D02*
X166650000Y-112410660D01*
X164885000Y-112940000D02*
X166120660Y-112940000D01*
X160450000Y-99834998D02*
X160450000Y-100237500D01*
X159895002Y-99280000D02*
X160450000Y-99834998D01*
X157030000Y-99280000D02*
X159895002Y-99280000D01*
X159240000Y-105830000D02*
X158310000Y-105830000D01*
X159240001Y-107729999D02*
X159240000Y-105830000D01*
X158310000Y-107730000D02*
X159240001Y-107729999D01*
X158310000Y-105810000D02*
X158310000Y-105830000D01*
D33*
X175550000Y-113450000D02*
X175912500Y-113450000D01*
D30*
X173900000Y-111800000D02*
X175550000Y-113450000D01*
X155448000Y-105609000D02*
X154540000Y-104701000D01*
X155448000Y-106146500D02*
X155448000Y-105609000D01*
X154540000Y-104701000D02*
X154540000Y-104032000D01*
X154540000Y-102040000D02*
X154540000Y-104032000D01*
X154540000Y-104032000D02*
X154540000Y-104312500D01*
X155448000Y-106146500D02*
X156489500Y-106146500D01*
X156806000Y-105830000D02*
X158310000Y-105830000D01*
X156489500Y-106146500D02*
X156806000Y-105830000D01*
X152586000Y-102040000D02*
X152146000Y-101600000D01*
X154540000Y-102040000D02*
X152586000Y-102040000D01*
X169150000Y-111900000D02*
X169150000Y-117450000D01*
X170250000Y-121450000D02*
X172662500Y-121450000D01*
X168799999Y-117800001D02*
X169150000Y-117450000D01*
X168799999Y-118489341D02*
X168799999Y-117800001D01*
X168300000Y-118989340D02*
X168799999Y-118489341D01*
X168300000Y-120050000D02*
X168300000Y-118989340D01*
X175607500Y-120080000D02*
X177210000Y-120080000D01*
X174237500Y-121450000D02*
X175607500Y-120080000D01*
D32*
X179422500Y-121242500D02*
X179870000Y-121690000D01*
X177570000Y-121242500D02*
X179422500Y-121242500D01*
X179870000Y-121690000D02*
X179870000Y-119620000D01*
X179870000Y-119620000D02*
X179870000Y-117940000D01*
X179870000Y-117940000D02*
X179870000Y-115870000D01*
X179422500Y-116317500D02*
X179870000Y-115870000D01*
X177570000Y-116317500D02*
X179422500Y-116317500D01*
X157885000Y-110790000D02*
X157910000Y-110765000D01*
X153640000Y-110790000D02*
X153640000Y-110790000D01*
D30*
X153640000Y-110790000D02*
X157885000Y-110790000D01*
X154200000Y-115587500D02*
X153137500Y-116650000D01*
X154200000Y-115400000D02*
X154200000Y-115587500D01*
X164885000Y-117740000D02*
X164885000Y-118885000D01*
X164885000Y-118885000D02*
X165800000Y-119800000D01*
X163510000Y-120440000D02*
X162650000Y-121300000D01*
X163510000Y-119115000D02*
X163510000Y-120440000D01*
X159510000Y-110072522D02*
X158827478Y-109390000D01*
X159510000Y-110765000D02*
X159510000Y-110072522D01*
D32*
X150210000Y-109390000D02*
X149650000Y-109950000D01*
D30*
X150210000Y-109390000D02*
X151892000Y-109390000D01*
X158827478Y-109390000D02*
X151892000Y-109390000D01*
D32*
X159390000Y-122520000D02*
X159390000Y-128230000D01*
X158760000Y-128860000D02*
X158760000Y-129860000D01*
X159390000Y-128230000D02*
X158760000Y-128860000D01*
X155685000Y-116140000D02*
X154625000Y-117200000D01*
X156535000Y-116140000D02*
X155685000Y-116140000D01*
X154625000Y-117200000D02*
X154625000Y-118755000D01*
X154625000Y-118755000D02*
X156340000Y-120470000D01*
X158710000Y-121840000D02*
X158840000Y-121970000D01*
X157340000Y-120470000D02*
X158840000Y-121970000D01*
X156340000Y-120470000D02*
X157340000Y-120470000D01*
X158840000Y-121970000D02*
X159390000Y-122520000D01*
D30*
X164885000Y-116140000D02*
X165735000Y-116140000D01*
X165735000Y-116140000D02*
X167050000Y-117455000D01*
D32*
X159260000Y-129860000D02*
X159260000Y-131330000D01*
X159260000Y-132510000D02*
X159260000Y-130710000D01*
X169980001Y-136829999D02*
X169239999Y-136829999D01*
X168430000Y-136020000D02*
X162770000Y-136020000D01*
X170730000Y-136080000D02*
X169980001Y-136829999D01*
X169239999Y-136829999D02*
X168430000Y-136020000D01*
X162770000Y-136020000D02*
X159260000Y-132510000D01*
D30*
X166249999Y-121600001D02*
X166271999Y-121600001D01*
X166271999Y-121600001D02*
X167050000Y-120822000D01*
X167050000Y-117455000D02*
X167050000Y-120822000D01*
X165650000Y-122200000D02*
X166249999Y-121600001D01*
D32*
X159820000Y-128850000D02*
X159760000Y-128910000D01*
X159820000Y-122070000D02*
X159820000Y-128850000D01*
X159760000Y-128910000D02*
X159760000Y-129860000D01*
X158710000Y-120960000D02*
X159820000Y-122070000D01*
X158710000Y-119115000D02*
X158710000Y-120960000D01*
D30*
X148480000Y-107007500D02*
X148492500Y-107020000D01*
X148455000Y-107057500D02*
X148492500Y-107020000D01*
X147010000Y-107057500D02*
X148455000Y-107057500D01*
X143514427Y-105363634D02*
X142876378Y-106001683D01*
X145643634Y-105363634D02*
X143514427Y-105363634D01*
X145643634Y-108943634D02*
X145643634Y-105363634D01*
X142876378Y-107923317D02*
X140251378Y-110548317D01*
X142876378Y-106001683D02*
X142876378Y-107923317D01*
X148840000Y-112140000D02*
X148200000Y-111500000D01*
X148400000Y-111700000D02*
X148200000Y-111500000D01*
X156535000Y-112140000D02*
X148840000Y-112140000D01*
X148200000Y-111500000D02*
X145643634Y-108943634D01*
X145762500Y-105482500D02*
X145643634Y-105363634D01*
X147010000Y-105482500D02*
X145762500Y-105482500D01*
X138760000Y-116155000D02*
X138760000Y-114920000D01*
X138760000Y-114920000D02*
X139950000Y-113730000D01*
X138760000Y-120230000D02*
X138760000Y-116155000D01*
X138760000Y-121405000D02*
X138760000Y-120230000D01*
X144500660Y-112410000D02*
X143440000Y-112410000D01*
X145777998Y-112410000D02*
X144500660Y-112410000D01*
X146108008Y-112740010D02*
X145777998Y-112410000D01*
X155485010Y-112740010D02*
X146108008Y-112740010D01*
X155685000Y-112940000D02*
X155485010Y-112740010D01*
X156535000Y-112940000D02*
X155685000Y-112940000D01*
X144140000Y-119382500D02*
X145302500Y-118220000D01*
X138760000Y-121405000D02*
X138760000Y-121680000D01*
X144140000Y-120380000D02*
X144140000Y-119382500D01*
X138760000Y-121680000D02*
X139720000Y-122640000D01*
X141880000Y-122640000D02*
X142015000Y-122505000D01*
X139720000Y-122640000D02*
X141880000Y-122640000D01*
X142015000Y-122505000D02*
X144140000Y-120380000D01*
X146885000Y-118212500D02*
X146877500Y-118220000D01*
X149420000Y-118212500D02*
X146885000Y-118212500D01*
X145302500Y-122000000D02*
X145302500Y-120030000D01*
X144551612Y-122750888D02*
X145302500Y-122000000D01*
X144551612Y-123020888D02*
X144551612Y-122750888D01*
X144090000Y-123482500D02*
X144551612Y-123020888D01*
X142836378Y-131458317D02*
X142836378Y-129536683D01*
X142140000Y-117160000D02*
X142140000Y-119110000D01*
X156535000Y-113740000D02*
X145560000Y-113740000D01*
X145560000Y-113740000D02*
X142140000Y-117160000D01*
X142170000Y-119080000D02*
X142140000Y-119110000D01*
X142942500Y-123910000D02*
X144090000Y-125057500D01*
X142110000Y-123910000D02*
X142942500Y-123910000D01*
X141960000Y-124060000D02*
X142110000Y-123910000D01*
X143410000Y-127580000D02*
X142144847Y-128845153D01*
X142836378Y-129536683D02*
X142144847Y-128845153D01*
X142144847Y-128845153D02*
X140211378Y-126911683D01*
X143410000Y-125737500D02*
X144090000Y-125057500D01*
X143410000Y-127580000D02*
X143410000Y-125737500D01*
X158262500Y-102925000D02*
X159437500Y-101750000D01*
X156300000Y-102925000D02*
X158262500Y-102925000D01*
D34*
X153240713Y-114612733D02*
X153105557Y-114815008D01*
X153012460Y-115039764D01*
X152965000Y-115278363D01*
X152965000Y-115521637D01*
X152968042Y-115536928D01*
X152918750Y-115536928D01*
X152751592Y-115553392D01*
X152590858Y-115602150D01*
X152442725Y-115681329D01*
X152421070Y-115699100D01*
X152354494Y-115644463D01*
X152244180Y-115585498D01*
X152124482Y-115549188D01*
X152000000Y-115536928D01*
X151848250Y-115540000D01*
X151689500Y-115698750D01*
X151689500Y-116523000D01*
X151709500Y-116523000D01*
X151709500Y-116777000D01*
X151689500Y-116777000D01*
X151689500Y-117601250D01*
X151848250Y-117760000D01*
X152000000Y-117763072D01*
X152124482Y-117750812D01*
X152244180Y-117714502D01*
X152354494Y-117655537D01*
X152421070Y-117600900D01*
X152442725Y-117618671D01*
X152590858Y-117697850D01*
X152751592Y-117746608D01*
X152918750Y-117763072D01*
X153356250Y-117763072D01*
X153523408Y-117746608D01*
X153684142Y-117697850D01*
X153832275Y-117618671D01*
X153840000Y-117612331D01*
X153840001Y-118716438D01*
X153836203Y-118755000D01*
X153851359Y-118908886D01*
X153896246Y-119056859D01*
X153916730Y-119095181D01*
X153969139Y-119193233D01*
X153995635Y-119225518D01*
X154042655Y-119282812D01*
X154042659Y-119282816D01*
X154067237Y-119312764D01*
X154097185Y-119337342D01*
X155757658Y-120997816D01*
X155782236Y-121027764D01*
X155812184Y-121052342D01*
X155812187Y-121052345D01*
X155829263Y-121066359D01*
X155901767Y-121125862D01*
X156038140Y-121198754D01*
X156151672Y-121233194D01*
X156186112Y-121243641D01*
X156200490Y-121245057D01*
X156301439Y-121255000D01*
X156301446Y-121255000D01*
X156339999Y-121258797D01*
X156378552Y-121255000D01*
X157014843Y-121255000D01*
X157696359Y-121936517D01*
X157600820Y-121965498D01*
X157565000Y-121984644D01*
X157529180Y-121965498D01*
X157409482Y-121929188D01*
X157285000Y-121916928D01*
X157095750Y-121920000D01*
X156937000Y-122078750D01*
X156937000Y-122865500D01*
X158193000Y-122865500D01*
X158193000Y-122845500D01*
X158447000Y-122845500D01*
X158447000Y-122865500D01*
X158467000Y-122865500D01*
X158467000Y-123119500D01*
X158447000Y-123119500D01*
X158447000Y-123139500D01*
X158193000Y-123139500D01*
X158193000Y-123119500D01*
X156937000Y-123119500D01*
X156937000Y-123139500D01*
X156683000Y-123139500D01*
X156683000Y-123119500D01*
X155427000Y-123119500D01*
X155427000Y-123139500D01*
X155173000Y-123139500D01*
X155173000Y-123119500D01*
X154751250Y-123119500D01*
X154741250Y-123109500D01*
X153917000Y-123109500D01*
X153917000Y-123129500D01*
X153663000Y-123129500D01*
X153663000Y-123109500D01*
X152407000Y-123109500D01*
X152407000Y-123129500D01*
X152153000Y-123129500D01*
X152153000Y-123109500D01*
X150897000Y-123109500D01*
X150897000Y-123129500D01*
X150643000Y-123129500D01*
X150643000Y-123109500D01*
X149387000Y-123109500D01*
X149387000Y-123129500D01*
X149133000Y-123129500D01*
X149133000Y-123109500D01*
X147877000Y-123109500D01*
X147877000Y-123129500D01*
X147623000Y-123129500D01*
X147623000Y-123109500D01*
X146798750Y-123109500D01*
X146640000Y-123268250D01*
X146636928Y-123420000D01*
X146649188Y-123544482D01*
X146685498Y-123664180D01*
X146744463Y-123774494D01*
X146799100Y-123841070D01*
X146781329Y-123862725D01*
X146702150Y-124010858D01*
X146653392Y-124171592D01*
X146636928Y-124338750D01*
X146636928Y-124776250D01*
X146653392Y-124943408D01*
X146702150Y-125104142D01*
X146781329Y-125252275D01*
X146887885Y-125382115D01*
X146965001Y-125445402D01*
X146965000Y-126951447D01*
X146961203Y-126990000D01*
X146965000Y-127028553D01*
X146965000Y-127028560D01*
X146976359Y-127143886D01*
X147021246Y-127291859D01*
X147094138Y-127428232D01*
X147192236Y-127547764D01*
X147222190Y-127572347D01*
X149194842Y-129545000D01*
X149068363Y-129545000D01*
X148829764Y-129592460D01*
X148605008Y-129685557D01*
X148402733Y-129820713D01*
X148230713Y-129992733D01*
X148095557Y-130195008D01*
X148002460Y-130419764D01*
X147955000Y-130658363D01*
X147955000Y-130901637D01*
X148002460Y-131140236D01*
X148095557Y-131364992D01*
X148230713Y-131567267D01*
X148402733Y-131739287D01*
X148405000Y-131740802D01*
X148405001Y-133821437D01*
X148401203Y-133860000D01*
X148416359Y-134013886D01*
X148461246Y-134161859D01*
X148495177Y-134225340D01*
X148534139Y-134298233D01*
X148573636Y-134346359D01*
X148607655Y-134387812D01*
X148607659Y-134387816D01*
X148632237Y-134417764D01*
X148662185Y-134442342D01*
X149444842Y-135225000D01*
X148714292Y-135225000D01*
X148675739Y-135221203D01*
X148637186Y-135225000D01*
X148637179Y-135225000D01*
X148536230Y-135234943D01*
X148521852Y-135236359D01*
X148506382Y-135241052D01*
X148373880Y-135281246D01*
X148237507Y-135354138D01*
X148184968Y-135397256D01*
X148147927Y-135427655D01*
X148147924Y-135427658D01*
X148117976Y-135452236D01*
X148093398Y-135482184D01*
X148092050Y-135483532D01*
X148106779Y-135434954D01*
X147980614Y-135260080D01*
X147139660Y-135260080D01*
X147139660Y-135271106D01*
X147124448Y-135268080D01*
X146900872Y-135268080D01*
X146885660Y-135271106D01*
X146885660Y-135260080D01*
X146044706Y-135260080D01*
X145918541Y-135434954D01*
X145935214Y-135489944D01*
X146025537Y-135693286D01*
X146075013Y-135763422D01*
X146006836Y-135865456D01*
X145921277Y-136072013D01*
X145877660Y-136291292D01*
X145877660Y-136514868D01*
X145921277Y-136734147D01*
X146006836Y-136940704D01*
X146071901Y-137038080D01*
X146006836Y-137135456D01*
X145921277Y-137342013D01*
X145877660Y-137561292D01*
X145877660Y-137784868D01*
X145921277Y-138004147D01*
X146006836Y-138210704D01*
X146131048Y-138396600D01*
X146289140Y-138554692D01*
X146475036Y-138678904D01*
X146681593Y-138764463D01*
X146900872Y-138808080D01*
X147124448Y-138808080D01*
X147343727Y-138764463D01*
X147550284Y-138678904D01*
X147736180Y-138554692D01*
X147894272Y-138396600D01*
X148018484Y-138210704D01*
X148104043Y-138004147D01*
X148147660Y-137784868D01*
X148147660Y-137648237D01*
X149000898Y-136795000D01*
X155301447Y-136795000D01*
X155340000Y-136798797D01*
X155378553Y-136795000D01*
X155378561Y-136795000D01*
X155493887Y-136783641D01*
X155641860Y-136738754D01*
X155778233Y-136665862D01*
X155897764Y-136567764D01*
X155922347Y-136537810D01*
X158287811Y-134172346D01*
X158317764Y-134147764D01*
X158415862Y-134028233D01*
X158488754Y-133891860D01*
X158493802Y-133875220D01*
X158533642Y-133743887D01*
X158544573Y-133632894D01*
X158545000Y-133628561D01*
X158545000Y-133628556D01*
X158548797Y-133590000D01*
X158545000Y-133551444D01*
X158545000Y-132841670D01*
X158547301Y-132841897D01*
X158604138Y-132948232D01*
X158702236Y-133067764D01*
X158732190Y-133092347D01*
X162187653Y-136547810D01*
X162212236Y-136577764D01*
X162331767Y-136675862D01*
X162440812Y-136734147D01*
X162468140Y-136748754D01*
X162616113Y-136793642D01*
X162691026Y-136801020D01*
X162731439Y-136805000D01*
X162731444Y-136805000D01*
X162770000Y-136808797D01*
X162808556Y-136805000D01*
X168104843Y-136805000D01*
X168657652Y-137357809D01*
X168682235Y-137387763D01*
X168801766Y-137485861D01*
X168938139Y-137558753D01*
X169086112Y-137603641D01*
X169161025Y-137611019D01*
X169201438Y-137614999D01*
X169201443Y-137614999D01*
X169239999Y-137618796D01*
X169278555Y-137614999D01*
X169941448Y-137614999D01*
X169980001Y-137618796D01*
X170018554Y-137614999D01*
X170018562Y-137614999D01*
X170133888Y-137603640D01*
X170281861Y-137558753D01*
X170418234Y-137485861D01*
X170537765Y-137387763D01*
X170562348Y-137357809D01*
X170605689Y-137314468D01*
X170608363Y-137315000D01*
X170851637Y-137315000D01*
X171090236Y-137267540D01*
X171314992Y-137174443D01*
X171517267Y-137039287D01*
X171689287Y-136867267D01*
X171824443Y-136664992D01*
X171917540Y-136440236D01*
X171965000Y-136201637D01*
X171965000Y-135958363D01*
X171917540Y-135719764D01*
X171824443Y-135495008D01*
X171689287Y-135292733D01*
X171517267Y-135120713D01*
X171314992Y-134985557D01*
X171090236Y-134892460D01*
X170851637Y-134845000D01*
X170608363Y-134845000D01*
X170369764Y-134892460D01*
X170145008Y-134985557D01*
X169942733Y-135120713D01*
X169770713Y-135292733D01*
X169635557Y-135495008D01*
X169542460Y-135719764D01*
X169495000Y-135958363D01*
X169495000Y-135974843D01*
X169012345Y-135492188D01*
X168987835Y-135462322D01*
X169327810Y-135122347D01*
X169357764Y-135097764D01*
X169455862Y-134978233D01*
X169528754Y-134841860D01*
X169535949Y-134818141D01*
X169573642Y-134693887D01*
X169581521Y-134613886D01*
X169585000Y-134578561D01*
X169585000Y-134578556D01*
X169588797Y-134540000D01*
X169585000Y-134501444D01*
X169585000Y-133539250D01*
X169723000Y-133401250D01*
X169723000Y-132614500D01*
X169703000Y-132614500D01*
X169703000Y-132360500D01*
X169723000Y-132360500D01*
X169723000Y-132340500D01*
X169977000Y-132340500D01*
X169977000Y-132360500D01*
X169997000Y-132360500D01*
X169997000Y-132614500D01*
X169977000Y-132614500D01*
X169977000Y-133401250D01*
X170135750Y-133560000D01*
X170325000Y-133563072D01*
X170449482Y-133550812D01*
X170569180Y-133514502D01*
X170679494Y-133455537D01*
X170776185Y-133376185D01*
X170827809Y-133313281D01*
X170867885Y-133362115D01*
X170997725Y-133468671D01*
X171145858Y-133547850D01*
X171306592Y-133596608D01*
X171473750Y-133613072D01*
X171911250Y-133613072D01*
X172078408Y-133596608D01*
X172239142Y-133547850D01*
X172387275Y-133468671D01*
X172408930Y-133450900D01*
X172475506Y-133505537D01*
X172585820Y-133564502D01*
X172705518Y-133600812D01*
X172830000Y-133613072D01*
X172981750Y-133610000D01*
X173140500Y-133451250D01*
X173140500Y-132627000D01*
X173394500Y-132627000D01*
X173394500Y-133451250D01*
X173553250Y-133610000D01*
X173705000Y-133613072D01*
X173829482Y-133600812D01*
X173949180Y-133564502D01*
X174059494Y-133505537D01*
X174156185Y-133426185D01*
X174235537Y-133329494D01*
X174294502Y-133219180D01*
X174330812Y-133099482D01*
X174343072Y-132975000D01*
X174340000Y-132785750D01*
X174181250Y-132627000D01*
X173394500Y-132627000D01*
X173140500Y-132627000D01*
X173120500Y-132627000D01*
X173120500Y-132373000D01*
X173140500Y-132373000D01*
X173140500Y-131548750D01*
X173394500Y-131548750D01*
X173394500Y-132373000D01*
X174181250Y-132373000D01*
X174340000Y-132214250D01*
X174343072Y-132025000D01*
X174330812Y-131900518D01*
X174294502Y-131780820D01*
X174235537Y-131670506D01*
X174156185Y-131573815D01*
X174059494Y-131494463D01*
X173949180Y-131435498D01*
X173829482Y-131399188D01*
X173705000Y-131386928D01*
X173553250Y-131390000D01*
X173394500Y-131548750D01*
X173140500Y-131548750D01*
X172981750Y-131390000D01*
X172830000Y-131386928D01*
X172705518Y-131399188D01*
X172585820Y-131435498D01*
X172527500Y-131466671D01*
X172527500Y-131401657D01*
X172601185Y-131341185D01*
X172680537Y-131244494D01*
X172739502Y-131134180D01*
X172775812Y-131014482D01*
X172788072Y-130890000D01*
X172788072Y-130562086D01*
X172886781Y-130463377D01*
X172895506Y-130470537D01*
X173005820Y-130529502D01*
X173125518Y-130565812D01*
X173250000Y-130578072D01*
X174150000Y-130578072D01*
X174274482Y-130565812D01*
X174394180Y-130529502D01*
X174504494Y-130470537D01*
X174601185Y-130391185D01*
X174680537Y-130294494D01*
X174739502Y-130184180D01*
X174775812Y-130064482D01*
X174788072Y-129940000D01*
X174788072Y-129140000D01*
X174775812Y-129015518D01*
X174739502Y-128895820D01*
X174680537Y-128785506D01*
X174601185Y-128688815D01*
X174535000Y-128634499D01*
X174535000Y-127123955D01*
X174594443Y-127034992D01*
X174687540Y-126810236D01*
X174735000Y-126571637D01*
X174735000Y-126328363D01*
X174687540Y-126089764D01*
X174594443Y-125865008D01*
X174459287Y-125662733D01*
X174287267Y-125490713D01*
X174084992Y-125355557D01*
X173860236Y-125262460D01*
X173621637Y-125215000D01*
X173445868Y-125215000D01*
X172819446Y-124588578D01*
X172793291Y-124556709D01*
X172666146Y-124452364D01*
X172521087Y-124374828D01*
X172363689Y-124327082D01*
X172241019Y-124315000D01*
X172241018Y-124315000D01*
X172200000Y-124310960D01*
X172158982Y-124315000D01*
X172084861Y-124315000D01*
X172045472Y-124185150D01*
X171963405Y-124031614D01*
X171852962Y-123897038D01*
X171718386Y-123786595D01*
X171564850Y-123704528D01*
X171398254Y-123653992D01*
X171225000Y-123636928D01*
X170885327Y-123636928D01*
X170879803Y-123630197D01*
X170860557Y-123614403D01*
X170838601Y-123602667D01*
X170814776Y-123595440D01*
X170789515Y-123593001D01*
X168885000Y-123600270D01*
X168885000Y-122367865D01*
X169180517Y-122072348D01*
X169290713Y-122237267D01*
X169462733Y-122409287D01*
X169665008Y-122544443D01*
X169889764Y-122637540D01*
X170128363Y-122685000D01*
X170371637Y-122685000D01*
X170610236Y-122637540D01*
X170834992Y-122544443D01*
X171037267Y-122409287D01*
X171161554Y-122285000D01*
X171815632Y-122285000D01*
X171837885Y-122312115D01*
X171967725Y-122418671D01*
X172115858Y-122497850D01*
X172276592Y-122546608D01*
X172443750Y-122563072D01*
X172881250Y-122563072D01*
X173048408Y-122546608D01*
X173209142Y-122497850D01*
X173357275Y-122418671D01*
X173450000Y-122342574D01*
X173542725Y-122418671D01*
X173690858Y-122497850D01*
X173851592Y-122546608D01*
X174018750Y-122563072D01*
X174456250Y-122563072D01*
X174623408Y-122546608D01*
X174784142Y-122497850D01*
X174932275Y-122418671D01*
X175062115Y-122312115D01*
X175168671Y-122182275D01*
X175247850Y-122034142D01*
X175296608Y-121873408D01*
X175313072Y-121706250D01*
X175313072Y-121555296D01*
X175881928Y-120986441D01*
X175881928Y-121980000D01*
X175894188Y-122104482D01*
X175930498Y-122224180D01*
X175989463Y-122334494D01*
X176068815Y-122431185D01*
X176165506Y-122510537D01*
X176275820Y-122569502D01*
X176395518Y-122605812D01*
X176520000Y-122618072D01*
X178281928Y-122618072D01*
X178281928Y-122877500D01*
X178294188Y-123001982D01*
X178330498Y-123121680D01*
X178389463Y-123231994D01*
X178468815Y-123328685D01*
X178565506Y-123408037D01*
X178675820Y-123467002D01*
X178795518Y-123503312D01*
X178920000Y-123515572D01*
X180297779Y-123515572D01*
X179999708Y-124727900D01*
X179834986Y-125216991D01*
X179794156Y-125118419D01*
X179581235Y-124799761D01*
X179310239Y-124528765D01*
X178991581Y-124315844D01*
X178637507Y-124169182D01*
X178261624Y-124094414D01*
X177878376Y-124094414D01*
X177502493Y-124169182D01*
X177148419Y-124315844D01*
X176829761Y-124528765D01*
X176558765Y-124799761D01*
X176345844Y-125118419D01*
X176199182Y-125472493D01*
X176124414Y-125848376D01*
X176124414Y-126231624D01*
X176199182Y-126607507D01*
X176345844Y-126961581D01*
X176558765Y-127280239D01*
X176829761Y-127551235D01*
X177148419Y-127764156D01*
X177502493Y-127910818D01*
X177878376Y-127985586D01*
X178261624Y-127985586D01*
X178584165Y-127921428D01*
X177172882Y-130715881D01*
X176900651Y-131134870D01*
X175798611Y-132554941D01*
X175549965Y-132842900D01*
X175546423Y-132845740D01*
X175462809Y-132945291D01*
X175400220Y-133059242D01*
X175370877Y-133152152D01*
X174865141Y-135551461D01*
X174854589Y-135586246D01*
X174848582Y-135647236D01*
X174841889Y-135708073D01*
X174845039Y-135744277D01*
X174845040Y-138221321D01*
X174587021Y-139443000D01*
X173194643Y-139443000D01*
X173194643Y-137726250D01*
X166716041Y-137726250D01*
X166678948Y-137681052D01*
X166578450Y-137598575D01*
X166463793Y-137537290D01*
X166339383Y-137499550D01*
X166242419Y-137490000D01*
X166210000Y-137486807D01*
X166177581Y-137490000D01*
X152842419Y-137490000D01*
X152810000Y-137486807D01*
X152777581Y-137490000D01*
X152680617Y-137499550D01*
X152556207Y-137537290D01*
X152441550Y-137598575D01*
X152341052Y-137681052D01*
X152258575Y-137781550D01*
X152197290Y-137896207D01*
X152159550Y-138020617D01*
X152146807Y-138150000D01*
X152150000Y-138182420D01*
X152150001Y-139367571D01*
X152146807Y-139400000D01*
X152151042Y-139443000D01*
X144432852Y-139443000D01*
X144170000Y-138205816D01*
X144170000Y-135738648D01*
X144173150Y-135702444D01*
X144166457Y-135641607D01*
X144160450Y-135580617D01*
X144149898Y-135545832D01*
X143644162Y-133146523D01*
X143614819Y-133053614D01*
X143552230Y-132939663D01*
X143514318Y-132894525D01*
X143406232Y-132760987D01*
X143975927Y-132432074D01*
X144077601Y-132359215D01*
X144163107Y-132267921D01*
X144226470Y-132166025D01*
X144346394Y-132162100D01*
X144468211Y-132133697D01*
X144557852Y-132093080D01*
X145874588Y-132093080D01*
X145874588Y-133093080D01*
X145886848Y-133217562D01*
X145923158Y-133337260D01*
X145967548Y-133420306D01*
X145921277Y-133532013D01*
X145877660Y-133751292D01*
X145877660Y-133974868D01*
X145921277Y-134194147D01*
X146006836Y-134400704D01*
X146075013Y-134502738D01*
X146025537Y-134572874D01*
X145935214Y-134776216D01*
X145918541Y-134831206D01*
X146044706Y-135006080D01*
X146885660Y-135006080D01*
X146885660Y-134995054D01*
X146900872Y-134998080D01*
X147124448Y-134998080D01*
X147139660Y-134995054D01*
X147139660Y-135006080D01*
X147980614Y-135006080D01*
X148106779Y-134831206D01*
X148090106Y-134776216D01*
X147999783Y-134572874D01*
X147950307Y-134502738D01*
X148018484Y-134400704D01*
X148104043Y-134194147D01*
X148147660Y-133974868D01*
X148147660Y-133751292D01*
X148104043Y-133532013D01*
X148057772Y-133420306D01*
X148102162Y-133337260D01*
X148138472Y-133217562D01*
X148150732Y-133093080D01*
X148150732Y-132093080D01*
X148138472Y-131968598D01*
X148102162Y-131848900D01*
X148043197Y-131738586D01*
X147963845Y-131641895D01*
X147867154Y-131562543D01*
X147756840Y-131503578D01*
X147637142Y-131467268D01*
X147512660Y-131455008D01*
X146512660Y-131455008D01*
X146388178Y-131467268D01*
X146268480Y-131503578D01*
X146158166Y-131562543D01*
X146061475Y-131641895D01*
X145982123Y-131738586D01*
X145923158Y-131848900D01*
X145886848Y-131968598D01*
X145874588Y-132093080D01*
X144557852Y-132093080D01*
X144582145Y-132082073D01*
X144766155Y-131972288D01*
X144824262Y-131755431D01*
X144262137Y-130781802D01*
X144244816Y-130791802D01*
X144165719Y-130654802D01*
X144482107Y-130654802D01*
X145044232Y-131628431D01*
X145261089Y-131686538D01*
X145448171Y-131582073D01*
X145549845Y-131509215D01*
X145635352Y-131417920D01*
X145701404Y-131311698D01*
X145745465Y-131194632D01*
X145765840Y-131071219D01*
X145761748Y-130946202D01*
X145733345Y-130824385D01*
X145681721Y-130710451D01*
X145434436Y-130288284D01*
X145217579Y-130230177D01*
X144482107Y-130654802D01*
X144165719Y-130654802D01*
X144117816Y-130571832D01*
X144135137Y-130561832D01*
X144125137Y-130544511D01*
X144345107Y-130417511D01*
X144355107Y-130434832D01*
X145090579Y-130010207D01*
X145148686Y-129793350D01*
X144906721Y-129368111D01*
X144833863Y-129266437D01*
X144742568Y-129180930D01*
X144636346Y-129114878D01*
X144519280Y-129070817D01*
X144395867Y-129050442D01*
X144270850Y-129054534D01*
X144149033Y-129082937D01*
X144035099Y-129134561D01*
X143851089Y-129244346D01*
X143792983Y-129461200D01*
X143713609Y-129323720D01*
X143654671Y-129357748D01*
X143611550Y-129215595D01*
X143534014Y-129070537D01*
X143488436Y-129015000D01*
X143429669Y-128943392D01*
X143397804Y-128917241D01*
X143325715Y-128845153D01*
X143971433Y-128199436D01*
X144003291Y-128173291D01*
X144033601Y-128136359D01*
X144068586Y-128093729D01*
X144107636Y-128046146D01*
X144185172Y-127901087D01*
X144232918Y-127743689D01*
X144245000Y-127621019D01*
X144245000Y-127621018D01*
X144249040Y-127580000D01*
X144245000Y-127538982D01*
X144245000Y-126133072D01*
X144346250Y-126133072D01*
X144513408Y-126116608D01*
X144674142Y-126067850D01*
X144822275Y-125988671D01*
X144952115Y-125882115D01*
X145058671Y-125752275D01*
X145137850Y-125604142D01*
X145186608Y-125443408D01*
X145203072Y-125276250D01*
X145203072Y-124838750D01*
X145186608Y-124671592D01*
X145137850Y-124510858D01*
X145058671Y-124362725D01*
X144982574Y-124270000D01*
X145058671Y-124177275D01*
X145137850Y-124029142D01*
X145186608Y-123868408D01*
X145203072Y-123701250D01*
X145203072Y-123543300D01*
X145249248Y-123487034D01*
X145326784Y-123341975D01*
X145374530Y-123184577D01*
X145382805Y-123100563D01*
X145863927Y-122619441D01*
X145895791Y-122593291D01*
X145935422Y-122545000D01*
X146636928Y-122545000D01*
X146640000Y-122696750D01*
X146798750Y-122855500D01*
X147623000Y-122855500D01*
X147623000Y-122068750D01*
X147877000Y-122068750D01*
X147877000Y-122855500D01*
X149133000Y-122855500D01*
X149133000Y-122068750D01*
X149387000Y-122068750D01*
X149387000Y-122855500D01*
X150643000Y-122855500D01*
X150643000Y-122068750D01*
X150897000Y-122068750D01*
X150897000Y-122855500D01*
X152153000Y-122855500D01*
X152153000Y-122068750D01*
X152407000Y-122068750D01*
X152407000Y-122855500D01*
X153663000Y-122855500D01*
X153663000Y-122068750D01*
X153917000Y-122068750D01*
X153917000Y-122855500D01*
X154338750Y-122855500D01*
X154348750Y-122865500D01*
X155173000Y-122865500D01*
X155173000Y-122078750D01*
X155427000Y-122078750D01*
X155427000Y-122865500D01*
X156683000Y-122865500D01*
X156683000Y-122078750D01*
X156524250Y-121920000D01*
X156335000Y-121916928D01*
X156210518Y-121929188D01*
X156090820Y-121965498D01*
X156055000Y-121984644D01*
X156019180Y-121965498D01*
X155899482Y-121929188D01*
X155775000Y-121916928D01*
X155585750Y-121920000D01*
X155427000Y-122078750D01*
X155173000Y-122078750D01*
X155014250Y-121920000D01*
X154825000Y-121916928D01*
X154700518Y-121929188D01*
X154580820Y-121965498D01*
X154554354Y-121979644D01*
X154509180Y-121955498D01*
X154389482Y-121919188D01*
X154265000Y-121906928D01*
X154075750Y-121910000D01*
X153917000Y-122068750D01*
X153663000Y-122068750D01*
X153504250Y-121910000D01*
X153315000Y-121906928D01*
X153190518Y-121919188D01*
X153070820Y-121955498D01*
X153035000Y-121974644D01*
X152999180Y-121955498D01*
X152879482Y-121919188D01*
X152755000Y-121906928D01*
X152565750Y-121910000D01*
X152407000Y-122068750D01*
X152153000Y-122068750D01*
X151994250Y-121910000D01*
X151805000Y-121906928D01*
X151680518Y-121919188D01*
X151560820Y-121955498D01*
X151525000Y-121974644D01*
X151489180Y-121955498D01*
X151369482Y-121919188D01*
X151245000Y-121906928D01*
X151055750Y-121910000D01*
X150897000Y-122068750D01*
X150643000Y-122068750D01*
X150484250Y-121910000D01*
X150295000Y-121906928D01*
X150170518Y-121919188D01*
X150050820Y-121955498D01*
X150015000Y-121974644D01*
X149979180Y-121955498D01*
X149859482Y-121919188D01*
X149735000Y-121906928D01*
X149545750Y-121910000D01*
X149387000Y-122068750D01*
X149133000Y-122068750D01*
X148974250Y-121910000D01*
X148785000Y-121906928D01*
X148660518Y-121919188D01*
X148540820Y-121955498D01*
X148505000Y-121974644D01*
X148469180Y-121955498D01*
X148349482Y-121919188D01*
X148225000Y-121906928D01*
X148035750Y-121910000D01*
X147877000Y-122068750D01*
X147623000Y-122068750D01*
X147464250Y-121910000D01*
X147275000Y-121906928D01*
X147150518Y-121919188D01*
X147030820Y-121955498D01*
X146920506Y-122014463D01*
X146823815Y-122093815D01*
X146744463Y-122190506D01*
X146685498Y-122300820D01*
X146649188Y-122420518D01*
X146636928Y-122545000D01*
X145935422Y-122545000D01*
X146000136Y-122466146D01*
X146077672Y-122321087D01*
X146125418Y-122163689D01*
X146137500Y-122041019D01*
X146137500Y-122041018D01*
X146141540Y-122000000D01*
X146137500Y-121958982D01*
X146137500Y-121063329D01*
X146195820Y-121094502D01*
X146315518Y-121130812D01*
X146440000Y-121143072D01*
X146591750Y-121140000D01*
X146750500Y-120981250D01*
X146750500Y-120157000D01*
X147004500Y-120157000D01*
X147004500Y-120981250D01*
X147163250Y-121140000D01*
X147315000Y-121143072D01*
X147439482Y-121130812D01*
X147559180Y-121094502D01*
X147669494Y-121035537D01*
X147766185Y-120956185D01*
X147845537Y-120859494D01*
X147904502Y-120749180D01*
X147940812Y-120629482D01*
X147953072Y-120505000D01*
X147950000Y-120315750D01*
X147859250Y-120225000D01*
X148306928Y-120225000D01*
X148319188Y-120349482D01*
X148355498Y-120469180D01*
X148414463Y-120579494D01*
X148493815Y-120676185D01*
X148590506Y-120755537D01*
X148700820Y-120814502D01*
X148820518Y-120850812D01*
X148945000Y-120863072D01*
X149134250Y-120860000D01*
X149293000Y-120701250D01*
X149293000Y-119914500D01*
X149547000Y-119914500D01*
X149547000Y-120701250D01*
X149705750Y-120860000D01*
X149895000Y-120863072D01*
X150019482Y-120850812D01*
X150139180Y-120814502D01*
X150249494Y-120755537D01*
X150346185Y-120676185D01*
X150425537Y-120579494D01*
X150484502Y-120469180D01*
X150520812Y-120349482D01*
X150533072Y-120225000D01*
X150530000Y-120073250D01*
X150371250Y-119914500D01*
X149547000Y-119914500D01*
X149293000Y-119914500D01*
X148468750Y-119914500D01*
X148310000Y-120073250D01*
X148306928Y-120225000D01*
X147859250Y-120225000D01*
X147791250Y-120157000D01*
X147004500Y-120157000D01*
X146750500Y-120157000D01*
X146730500Y-120157000D01*
X146730500Y-119903000D01*
X146750500Y-119903000D01*
X146750500Y-119883000D01*
X147004500Y-119883000D01*
X147004500Y-119903000D01*
X147791250Y-119903000D01*
X147950000Y-119744250D01*
X147953072Y-119555000D01*
X147940812Y-119430518D01*
X147904502Y-119310820D01*
X147845537Y-119200506D01*
X147766185Y-119103815D01*
X147717259Y-119063662D01*
X147730523Y-119047500D01*
X148386671Y-119047500D01*
X148355498Y-119105820D01*
X148319188Y-119225518D01*
X148306928Y-119350000D01*
X148310000Y-119501750D01*
X148468750Y-119660500D01*
X149293000Y-119660500D01*
X149293000Y-119640500D01*
X149547000Y-119640500D01*
X149547000Y-119660500D01*
X150371250Y-119660500D01*
X150530000Y-119501750D01*
X150533072Y-119350000D01*
X150520812Y-119225518D01*
X150484502Y-119105820D01*
X150425537Y-118995506D01*
X150370900Y-118928930D01*
X150388671Y-118907275D01*
X150467850Y-118759142D01*
X150516608Y-118598408D01*
X150533072Y-118431250D01*
X150533072Y-117993750D01*
X150516608Y-117826592D01*
X150467850Y-117665858D01*
X150388671Y-117517725D01*
X150282115Y-117387885D01*
X150152275Y-117281329D01*
X150004142Y-117202150D01*
X149843408Y-117153392D01*
X149676250Y-117136928D01*
X149163750Y-117136928D01*
X148996592Y-117153392D01*
X148835858Y-117202150D01*
X148687725Y-117281329D01*
X148570539Y-117377500D01*
X147718212Y-117377500D01*
X147702115Y-117357885D01*
X147572275Y-117251329D01*
X147424142Y-117172150D01*
X147268709Y-117125000D01*
X150486928Y-117125000D01*
X150499188Y-117249482D01*
X150535498Y-117369180D01*
X150594463Y-117479494D01*
X150673815Y-117576185D01*
X150770506Y-117655537D01*
X150880820Y-117714502D01*
X151000518Y-117750812D01*
X151125000Y-117763072D01*
X151276750Y-117760000D01*
X151435500Y-117601250D01*
X151435500Y-116777000D01*
X150648750Y-116777000D01*
X150490000Y-116935750D01*
X150486928Y-117125000D01*
X147268709Y-117125000D01*
X147263408Y-117123392D01*
X147096250Y-117106928D01*
X146658750Y-117106928D01*
X146491592Y-117123392D01*
X146330858Y-117172150D01*
X146182725Y-117251329D01*
X146090000Y-117327426D01*
X145997275Y-117251329D01*
X145849142Y-117172150D01*
X145688408Y-117123392D01*
X145521250Y-117106928D01*
X145083750Y-117106928D01*
X144916592Y-117123392D01*
X144755858Y-117172150D01*
X144607725Y-117251329D01*
X144477885Y-117357885D01*
X144371329Y-117487725D01*
X144292150Y-117635858D01*
X144243392Y-117796592D01*
X144226928Y-117963750D01*
X144226928Y-118114704D01*
X143578574Y-118763059D01*
X143546710Y-118789209D01*
X143468097Y-118885000D01*
X143442364Y-118916355D01*
X143375000Y-119042384D01*
X143375000Y-118988363D01*
X143327540Y-118749764D01*
X143234443Y-118525008D01*
X143132135Y-118371894D01*
X143132487Y-117348380D01*
X144305867Y-116175000D01*
X150486928Y-116175000D01*
X150490000Y-116364250D01*
X150648750Y-116523000D01*
X151435500Y-116523000D01*
X151435500Y-115698750D01*
X151276750Y-115540000D01*
X151125000Y-115536928D01*
X151000518Y-115549188D01*
X150880820Y-115585498D01*
X150770506Y-115644463D01*
X150673815Y-115723815D01*
X150594463Y-115820506D01*
X150535498Y-115930820D01*
X150499188Y-116050518D01*
X150486928Y-116175000D01*
X144305867Y-116175000D01*
X145905868Y-114575000D01*
X153278446Y-114575000D01*
X153240713Y-114612733D01*
G04 #@! TA.AperFunction,Conductor*
D35*
G36*
X153240713Y-114612733D02*
G01*
X153105557Y-114815008D01*
X153012460Y-115039764D01*
X152965000Y-115278363D01*
X152965000Y-115521637D01*
X152968042Y-115536928D01*
X152918750Y-115536928D01*
X152751592Y-115553392D01*
X152590858Y-115602150D01*
X152442725Y-115681329D01*
X152421070Y-115699100D01*
X152354494Y-115644463D01*
X152244180Y-115585498D01*
X152124482Y-115549188D01*
X152000000Y-115536928D01*
X151848250Y-115540000D01*
X151689500Y-115698750D01*
X151689500Y-116523000D01*
X151709500Y-116523000D01*
X151709500Y-116777000D01*
X151689500Y-116777000D01*
X151689500Y-117601250D01*
X151848250Y-117760000D01*
X152000000Y-117763072D01*
X152124482Y-117750812D01*
X152244180Y-117714502D01*
X152354494Y-117655537D01*
X152421070Y-117600900D01*
X152442725Y-117618671D01*
X152590858Y-117697850D01*
X152751592Y-117746608D01*
X152918750Y-117763072D01*
X153356250Y-117763072D01*
X153523408Y-117746608D01*
X153684142Y-117697850D01*
X153832275Y-117618671D01*
X153840000Y-117612331D01*
X153840001Y-118716438D01*
X153836203Y-118755000D01*
X153851359Y-118908886D01*
X153896246Y-119056859D01*
X153916730Y-119095181D01*
X153969139Y-119193233D01*
X153995635Y-119225518D01*
X154042655Y-119282812D01*
X154042659Y-119282816D01*
X154067237Y-119312764D01*
X154097185Y-119337342D01*
X155757658Y-120997816D01*
X155782236Y-121027764D01*
X155812184Y-121052342D01*
X155812187Y-121052345D01*
X155829263Y-121066359D01*
X155901767Y-121125862D01*
X156038140Y-121198754D01*
X156151672Y-121233194D01*
X156186112Y-121243641D01*
X156200490Y-121245057D01*
X156301439Y-121255000D01*
X156301446Y-121255000D01*
X156339999Y-121258797D01*
X156378552Y-121255000D01*
X157014843Y-121255000D01*
X157696359Y-121936517D01*
X157600820Y-121965498D01*
X157565000Y-121984644D01*
X157529180Y-121965498D01*
X157409482Y-121929188D01*
X157285000Y-121916928D01*
X157095750Y-121920000D01*
X156937000Y-122078750D01*
X156937000Y-122865500D01*
X158193000Y-122865500D01*
X158193000Y-122845500D01*
X158447000Y-122845500D01*
X158447000Y-122865500D01*
X158467000Y-122865500D01*
X158467000Y-123119500D01*
X158447000Y-123119500D01*
X158447000Y-123139500D01*
X158193000Y-123139500D01*
X158193000Y-123119500D01*
X156937000Y-123119500D01*
X156937000Y-123139500D01*
X156683000Y-123139500D01*
X156683000Y-123119500D01*
X155427000Y-123119500D01*
X155427000Y-123139500D01*
X155173000Y-123139500D01*
X155173000Y-123119500D01*
X154751250Y-123119500D01*
X154741250Y-123109500D01*
X153917000Y-123109500D01*
X153917000Y-123129500D01*
X153663000Y-123129500D01*
X153663000Y-123109500D01*
X152407000Y-123109500D01*
X152407000Y-123129500D01*
X152153000Y-123129500D01*
X152153000Y-123109500D01*
X150897000Y-123109500D01*
X150897000Y-123129500D01*
X150643000Y-123129500D01*
X150643000Y-123109500D01*
X149387000Y-123109500D01*
X149387000Y-123129500D01*
X149133000Y-123129500D01*
X149133000Y-123109500D01*
X147877000Y-123109500D01*
X147877000Y-123129500D01*
X147623000Y-123129500D01*
X147623000Y-123109500D01*
X146798750Y-123109500D01*
X146640000Y-123268250D01*
X146636928Y-123420000D01*
X146649188Y-123544482D01*
X146685498Y-123664180D01*
X146744463Y-123774494D01*
X146799100Y-123841070D01*
X146781329Y-123862725D01*
X146702150Y-124010858D01*
X146653392Y-124171592D01*
X146636928Y-124338750D01*
X146636928Y-124776250D01*
X146653392Y-124943408D01*
X146702150Y-125104142D01*
X146781329Y-125252275D01*
X146887885Y-125382115D01*
X146965001Y-125445402D01*
X146965000Y-126951447D01*
X146961203Y-126990000D01*
X146965000Y-127028553D01*
X146965000Y-127028560D01*
X146976359Y-127143886D01*
X147021246Y-127291859D01*
X147094138Y-127428232D01*
X147192236Y-127547764D01*
X147222190Y-127572347D01*
X149194842Y-129545000D01*
X149068363Y-129545000D01*
X148829764Y-129592460D01*
X148605008Y-129685557D01*
X148402733Y-129820713D01*
X148230713Y-129992733D01*
X148095557Y-130195008D01*
X148002460Y-130419764D01*
X147955000Y-130658363D01*
X147955000Y-130901637D01*
X148002460Y-131140236D01*
X148095557Y-131364992D01*
X148230713Y-131567267D01*
X148402733Y-131739287D01*
X148405000Y-131740802D01*
X148405001Y-133821437D01*
X148401203Y-133860000D01*
X148416359Y-134013886D01*
X148461246Y-134161859D01*
X148495177Y-134225340D01*
X148534139Y-134298233D01*
X148573636Y-134346359D01*
X148607655Y-134387812D01*
X148607659Y-134387816D01*
X148632237Y-134417764D01*
X148662185Y-134442342D01*
X149444842Y-135225000D01*
X148714292Y-135225000D01*
X148675739Y-135221203D01*
X148637186Y-135225000D01*
X148637179Y-135225000D01*
X148536230Y-135234943D01*
X148521852Y-135236359D01*
X148506382Y-135241052D01*
X148373880Y-135281246D01*
X148237507Y-135354138D01*
X148184968Y-135397256D01*
X148147927Y-135427655D01*
X148147924Y-135427658D01*
X148117976Y-135452236D01*
X148093398Y-135482184D01*
X148092050Y-135483532D01*
X148106779Y-135434954D01*
X147980614Y-135260080D01*
X147139660Y-135260080D01*
X147139660Y-135271106D01*
X147124448Y-135268080D01*
X146900872Y-135268080D01*
X146885660Y-135271106D01*
X146885660Y-135260080D01*
X146044706Y-135260080D01*
X145918541Y-135434954D01*
X145935214Y-135489944D01*
X146025537Y-135693286D01*
X146075013Y-135763422D01*
X146006836Y-135865456D01*
X145921277Y-136072013D01*
X145877660Y-136291292D01*
X145877660Y-136514868D01*
X145921277Y-136734147D01*
X146006836Y-136940704D01*
X146071901Y-137038080D01*
X146006836Y-137135456D01*
X145921277Y-137342013D01*
X145877660Y-137561292D01*
X145877660Y-137784868D01*
X145921277Y-138004147D01*
X146006836Y-138210704D01*
X146131048Y-138396600D01*
X146289140Y-138554692D01*
X146475036Y-138678904D01*
X146681593Y-138764463D01*
X146900872Y-138808080D01*
X147124448Y-138808080D01*
X147343727Y-138764463D01*
X147550284Y-138678904D01*
X147736180Y-138554692D01*
X147894272Y-138396600D01*
X148018484Y-138210704D01*
X148104043Y-138004147D01*
X148147660Y-137784868D01*
X148147660Y-137648237D01*
X149000898Y-136795000D01*
X155301447Y-136795000D01*
X155340000Y-136798797D01*
X155378553Y-136795000D01*
X155378561Y-136795000D01*
X155493887Y-136783641D01*
X155641860Y-136738754D01*
X155778233Y-136665862D01*
X155897764Y-136567764D01*
X155922347Y-136537810D01*
X158287811Y-134172346D01*
X158317764Y-134147764D01*
X158415862Y-134028233D01*
X158488754Y-133891860D01*
X158493802Y-133875220D01*
X158533642Y-133743887D01*
X158544573Y-133632894D01*
X158545000Y-133628561D01*
X158545000Y-133628556D01*
X158548797Y-133590000D01*
X158545000Y-133551444D01*
X158545000Y-132841670D01*
X158547301Y-132841897D01*
X158604138Y-132948232D01*
X158702236Y-133067764D01*
X158732190Y-133092347D01*
X162187653Y-136547810D01*
X162212236Y-136577764D01*
X162331767Y-136675862D01*
X162440812Y-136734147D01*
X162468140Y-136748754D01*
X162616113Y-136793642D01*
X162691026Y-136801020D01*
X162731439Y-136805000D01*
X162731444Y-136805000D01*
X162770000Y-136808797D01*
X162808556Y-136805000D01*
X168104843Y-136805000D01*
X168657652Y-137357809D01*
X168682235Y-137387763D01*
X168801766Y-137485861D01*
X168938139Y-137558753D01*
X169086112Y-137603641D01*
X169161025Y-137611019D01*
X169201438Y-137614999D01*
X169201443Y-137614999D01*
X169239999Y-137618796D01*
X169278555Y-137614999D01*
X169941448Y-137614999D01*
X169980001Y-137618796D01*
X170018554Y-137614999D01*
X170018562Y-137614999D01*
X170133888Y-137603640D01*
X170281861Y-137558753D01*
X170418234Y-137485861D01*
X170537765Y-137387763D01*
X170562348Y-137357809D01*
X170605689Y-137314468D01*
X170608363Y-137315000D01*
X170851637Y-137315000D01*
X171090236Y-137267540D01*
X171314992Y-137174443D01*
X171517267Y-137039287D01*
X171689287Y-136867267D01*
X171824443Y-136664992D01*
X171917540Y-136440236D01*
X171965000Y-136201637D01*
X171965000Y-135958363D01*
X171917540Y-135719764D01*
X171824443Y-135495008D01*
X171689287Y-135292733D01*
X171517267Y-135120713D01*
X171314992Y-134985557D01*
X171090236Y-134892460D01*
X170851637Y-134845000D01*
X170608363Y-134845000D01*
X170369764Y-134892460D01*
X170145008Y-134985557D01*
X169942733Y-135120713D01*
X169770713Y-135292733D01*
X169635557Y-135495008D01*
X169542460Y-135719764D01*
X169495000Y-135958363D01*
X169495000Y-135974843D01*
X169012345Y-135492188D01*
X168987835Y-135462322D01*
X169327810Y-135122347D01*
X169357764Y-135097764D01*
X169455862Y-134978233D01*
X169528754Y-134841860D01*
X169535949Y-134818141D01*
X169573642Y-134693887D01*
X169581521Y-134613886D01*
X169585000Y-134578561D01*
X169585000Y-134578556D01*
X169588797Y-134540000D01*
X169585000Y-134501444D01*
X169585000Y-133539250D01*
X169723000Y-133401250D01*
X169723000Y-132614500D01*
X169703000Y-132614500D01*
X169703000Y-132360500D01*
X169723000Y-132360500D01*
X169723000Y-132340500D01*
X169977000Y-132340500D01*
X169977000Y-132360500D01*
X169997000Y-132360500D01*
X169997000Y-132614500D01*
X169977000Y-132614500D01*
X169977000Y-133401250D01*
X170135750Y-133560000D01*
X170325000Y-133563072D01*
X170449482Y-133550812D01*
X170569180Y-133514502D01*
X170679494Y-133455537D01*
X170776185Y-133376185D01*
X170827809Y-133313281D01*
X170867885Y-133362115D01*
X170997725Y-133468671D01*
X171145858Y-133547850D01*
X171306592Y-133596608D01*
X171473750Y-133613072D01*
X171911250Y-133613072D01*
X172078408Y-133596608D01*
X172239142Y-133547850D01*
X172387275Y-133468671D01*
X172408930Y-133450900D01*
X172475506Y-133505537D01*
X172585820Y-133564502D01*
X172705518Y-133600812D01*
X172830000Y-133613072D01*
X172981750Y-133610000D01*
X173140500Y-133451250D01*
X173140500Y-132627000D01*
X173394500Y-132627000D01*
X173394500Y-133451250D01*
X173553250Y-133610000D01*
X173705000Y-133613072D01*
X173829482Y-133600812D01*
X173949180Y-133564502D01*
X174059494Y-133505537D01*
X174156185Y-133426185D01*
X174235537Y-133329494D01*
X174294502Y-133219180D01*
X174330812Y-133099482D01*
X174343072Y-132975000D01*
X174340000Y-132785750D01*
X174181250Y-132627000D01*
X173394500Y-132627000D01*
X173140500Y-132627000D01*
X173120500Y-132627000D01*
X173120500Y-132373000D01*
X173140500Y-132373000D01*
X173140500Y-131548750D01*
X173394500Y-131548750D01*
X173394500Y-132373000D01*
X174181250Y-132373000D01*
X174340000Y-132214250D01*
X174343072Y-132025000D01*
X174330812Y-131900518D01*
X174294502Y-131780820D01*
X174235537Y-131670506D01*
X174156185Y-131573815D01*
X174059494Y-131494463D01*
X173949180Y-131435498D01*
X173829482Y-131399188D01*
X173705000Y-131386928D01*
X173553250Y-131390000D01*
X173394500Y-131548750D01*
X173140500Y-131548750D01*
X172981750Y-131390000D01*
X172830000Y-131386928D01*
X172705518Y-131399188D01*
X172585820Y-131435498D01*
X172527500Y-131466671D01*
X172527500Y-131401657D01*
X172601185Y-131341185D01*
X172680537Y-131244494D01*
X172739502Y-131134180D01*
X172775812Y-131014482D01*
X172788072Y-130890000D01*
X172788072Y-130562086D01*
X172886781Y-130463377D01*
X172895506Y-130470537D01*
X173005820Y-130529502D01*
X173125518Y-130565812D01*
X173250000Y-130578072D01*
X174150000Y-130578072D01*
X174274482Y-130565812D01*
X174394180Y-130529502D01*
X174504494Y-130470537D01*
X174601185Y-130391185D01*
X174680537Y-130294494D01*
X174739502Y-130184180D01*
X174775812Y-130064482D01*
X174788072Y-129940000D01*
X174788072Y-129140000D01*
X174775812Y-129015518D01*
X174739502Y-128895820D01*
X174680537Y-128785506D01*
X174601185Y-128688815D01*
X174535000Y-128634499D01*
X174535000Y-127123955D01*
X174594443Y-127034992D01*
X174687540Y-126810236D01*
X174735000Y-126571637D01*
X174735000Y-126328363D01*
X174687540Y-126089764D01*
X174594443Y-125865008D01*
X174459287Y-125662733D01*
X174287267Y-125490713D01*
X174084992Y-125355557D01*
X173860236Y-125262460D01*
X173621637Y-125215000D01*
X173445868Y-125215000D01*
X172819446Y-124588578D01*
X172793291Y-124556709D01*
X172666146Y-124452364D01*
X172521087Y-124374828D01*
X172363689Y-124327082D01*
X172241019Y-124315000D01*
X172241018Y-124315000D01*
X172200000Y-124310960D01*
X172158982Y-124315000D01*
X172084861Y-124315000D01*
X172045472Y-124185150D01*
X171963405Y-124031614D01*
X171852962Y-123897038D01*
X171718386Y-123786595D01*
X171564850Y-123704528D01*
X171398254Y-123653992D01*
X171225000Y-123636928D01*
X170885327Y-123636928D01*
X170879803Y-123630197D01*
X170860557Y-123614403D01*
X170838601Y-123602667D01*
X170814776Y-123595440D01*
X170789515Y-123593001D01*
X168885000Y-123600270D01*
X168885000Y-122367865D01*
X169180517Y-122072348D01*
X169290713Y-122237267D01*
X169462733Y-122409287D01*
X169665008Y-122544443D01*
X169889764Y-122637540D01*
X170128363Y-122685000D01*
X170371637Y-122685000D01*
X170610236Y-122637540D01*
X170834992Y-122544443D01*
X171037267Y-122409287D01*
X171161554Y-122285000D01*
X171815632Y-122285000D01*
X171837885Y-122312115D01*
X171967725Y-122418671D01*
X172115858Y-122497850D01*
X172276592Y-122546608D01*
X172443750Y-122563072D01*
X172881250Y-122563072D01*
X173048408Y-122546608D01*
X173209142Y-122497850D01*
X173357275Y-122418671D01*
X173450000Y-122342574D01*
X173542725Y-122418671D01*
X173690858Y-122497850D01*
X173851592Y-122546608D01*
X174018750Y-122563072D01*
X174456250Y-122563072D01*
X174623408Y-122546608D01*
X174784142Y-122497850D01*
X174932275Y-122418671D01*
X175062115Y-122312115D01*
X175168671Y-122182275D01*
X175247850Y-122034142D01*
X175296608Y-121873408D01*
X175313072Y-121706250D01*
X175313072Y-121555296D01*
X175881928Y-120986441D01*
X175881928Y-121980000D01*
X175894188Y-122104482D01*
X175930498Y-122224180D01*
X175989463Y-122334494D01*
X176068815Y-122431185D01*
X176165506Y-122510537D01*
X176275820Y-122569502D01*
X176395518Y-122605812D01*
X176520000Y-122618072D01*
X178281928Y-122618072D01*
X178281928Y-122877500D01*
X178294188Y-123001982D01*
X178330498Y-123121680D01*
X178389463Y-123231994D01*
X178468815Y-123328685D01*
X178565506Y-123408037D01*
X178675820Y-123467002D01*
X178795518Y-123503312D01*
X178920000Y-123515572D01*
X180297779Y-123515572D01*
X179999708Y-124727900D01*
X179834986Y-125216991D01*
X179794156Y-125118419D01*
X179581235Y-124799761D01*
X179310239Y-124528765D01*
X178991581Y-124315844D01*
X178637507Y-124169182D01*
X178261624Y-124094414D01*
X177878376Y-124094414D01*
X177502493Y-124169182D01*
X177148419Y-124315844D01*
X176829761Y-124528765D01*
X176558765Y-124799761D01*
X176345844Y-125118419D01*
X176199182Y-125472493D01*
X176124414Y-125848376D01*
X176124414Y-126231624D01*
X176199182Y-126607507D01*
X176345844Y-126961581D01*
X176558765Y-127280239D01*
X176829761Y-127551235D01*
X177148419Y-127764156D01*
X177502493Y-127910818D01*
X177878376Y-127985586D01*
X178261624Y-127985586D01*
X178584165Y-127921428D01*
X177172882Y-130715881D01*
X176900651Y-131134870D01*
X175798611Y-132554941D01*
X175549965Y-132842900D01*
X175546423Y-132845740D01*
X175462809Y-132945291D01*
X175400220Y-133059242D01*
X175370877Y-133152152D01*
X174865141Y-135551461D01*
X174854589Y-135586246D01*
X174848582Y-135647236D01*
X174841889Y-135708073D01*
X174845039Y-135744277D01*
X174845040Y-138221321D01*
X174587021Y-139443000D01*
X173194643Y-139443000D01*
X173194643Y-137726250D01*
X166716041Y-137726250D01*
X166678948Y-137681052D01*
X166578450Y-137598575D01*
X166463793Y-137537290D01*
X166339383Y-137499550D01*
X166242419Y-137490000D01*
X166210000Y-137486807D01*
X166177581Y-137490000D01*
X152842419Y-137490000D01*
X152810000Y-137486807D01*
X152777581Y-137490000D01*
X152680617Y-137499550D01*
X152556207Y-137537290D01*
X152441550Y-137598575D01*
X152341052Y-137681052D01*
X152258575Y-137781550D01*
X152197290Y-137896207D01*
X152159550Y-138020617D01*
X152146807Y-138150000D01*
X152150000Y-138182420D01*
X152150001Y-139367571D01*
X152146807Y-139400000D01*
X152151042Y-139443000D01*
X144432852Y-139443000D01*
X144170000Y-138205816D01*
X144170000Y-135738648D01*
X144173150Y-135702444D01*
X144166457Y-135641607D01*
X144160450Y-135580617D01*
X144149898Y-135545832D01*
X143644162Y-133146523D01*
X143614819Y-133053614D01*
X143552230Y-132939663D01*
X143514318Y-132894525D01*
X143406232Y-132760987D01*
X143975927Y-132432074D01*
X144077601Y-132359215D01*
X144163107Y-132267921D01*
X144226470Y-132166025D01*
X144346394Y-132162100D01*
X144468211Y-132133697D01*
X144557852Y-132093080D01*
X145874588Y-132093080D01*
X145874588Y-133093080D01*
X145886848Y-133217562D01*
X145923158Y-133337260D01*
X145967548Y-133420306D01*
X145921277Y-133532013D01*
X145877660Y-133751292D01*
X145877660Y-133974868D01*
X145921277Y-134194147D01*
X146006836Y-134400704D01*
X146075013Y-134502738D01*
X146025537Y-134572874D01*
X145935214Y-134776216D01*
X145918541Y-134831206D01*
X146044706Y-135006080D01*
X146885660Y-135006080D01*
X146885660Y-134995054D01*
X146900872Y-134998080D01*
X147124448Y-134998080D01*
X147139660Y-134995054D01*
X147139660Y-135006080D01*
X147980614Y-135006080D01*
X148106779Y-134831206D01*
X148090106Y-134776216D01*
X147999783Y-134572874D01*
X147950307Y-134502738D01*
X148018484Y-134400704D01*
X148104043Y-134194147D01*
X148147660Y-133974868D01*
X148147660Y-133751292D01*
X148104043Y-133532013D01*
X148057772Y-133420306D01*
X148102162Y-133337260D01*
X148138472Y-133217562D01*
X148150732Y-133093080D01*
X148150732Y-132093080D01*
X148138472Y-131968598D01*
X148102162Y-131848900D01*
X148043197Y-131738586D01*
X147963845Y-131641895D01*
X147867154Y-131562543D01*
X147756840Y-131503578D01*
X147637142Y-131467268D01*
X147512660Y-131455008D01*
X146512660Y-131455008D01*
X146388178Y-131467268D01*
X146268480Y-131503578D01*
X146158166Y-131562543D01*
X146061475Y-131641895D01*
X145982123Y-131738586D01*
X145923158Y-131848900D01*
X145886848Y-131968598D01*
X145874588Y-132093080D01*
X144557852Y-132093080D01*
X144582145Y-132082073D01*
X144766155Y-131972288D01*
X144824262Y-131755431D01*
X144262137Y-130781802D01*
X144244816Y-130791802D01*
X144165719Y-130654802D01*
X144482107Y-130654802D01*
X145044232Y-131628431D01*
X145261089Y-131686538D01*
X145448171Y-131582073D01*
X145549845Y-131509215D01*
X145635352Y-131417920D01*
X145701404Y-131311698D01*
X145745465Y-131194632D01*
X145765840Y-131071219D01*
X145761748Y-130946202D01*
X145733345Y-130824385D01*
X145681721Y-130710451D01*
X145434436Y-130288284D01*
X145217579Y-130230177D01*
X144482107Y-130654802D01*
X144165719Y-130654802D01*
X144117816Y-130571832D01*
X144135137Y-130561832D01*
X144125137Y-130544511D01*
X144345107Y-130417511D01*
X144355107Y-130434832D01*
X145090579Y-130010207D01*
X145148686Y-129793350D01*
X144906721Y-129368111D01*
X144833863Y-129266437D01*
X144742568Y-129180930D01*
X144636346Y-129114878D01*
X144519280Y-129070817D01*
X144395867Y-129050442D01*
X144270850Y-129054534D01*
X144149033Y-129082937D01*
X144035099Y-129134561D01*
X143851089Y-129244346D01*
X143792983Y-129461200D01*
X143713609Y-129323720D01*
X143654671Y-129357748D01*
X143611550Y-129215595D01*
X143534014Y-129070537D01*
X143488436Y-129015000D01*
X143429669Y-128943392D01*
X143397804Y-128917241D01*
X143325715Y-128845153D01*
X143971433Y-128199436D01*
X144003291Y-128173291D01*
X144033601Y-128136359D01*
X144068586Y-128093729D01*
X144107636Y-128046146D01*
X144185172Y-127901087D01*
X144232918Y-127743689D01*
X144245000Y-127621019D01*
X144245000Y-127621018D01*
X144249040Y-127580000D01*
X144245000Y-127538982D01*
X144245000Y-126133072D01*
X144346250Y-126133072D01*
X144513408Y-126116608D01*
X144674142Y-126067850D01*
X144822275Y-125988671D01*
X144952115Y-125882115D01*
X145058671Y-125752275D01*
X145137850Y-125604142D01*
X145186608Y-125443408D01*
X145203072Y-125276250D01*
X145203072Y-124838750D01*
X145186608Y-124671592D01*
X145137850Y-124510858D01*
X145058671Y-124362725D01*
X144982574Y-124270000D01*
X145058671Y-124177275D01*
X145137850Y-124029142D01*
X145186608Y-123868408D01*
X145203072Y-123701250D01*
X145203072Y-123543300D01*
X145249248Y-123487034D01*
X145326784Y-123341975D01*
X145374530Y-123184577D01*
X145382805Y-123100563D01*
X145863927Y-122619441D01*
X145895791Y-122593291D01*
X145935422Y-122545000D01*
X146636928Y-122545000D01*
X146640000Y-122696750D01*
X146798750Y-122855500D01*
X147623000Y-122855500D01*
X147623000Y-122068750D01*
X147877000Y-122068750D01*
X147877000Y-122855500D01*
X149133000Y-122855500D01*
X149133000Y-122068750D01*
X149387000Y-122068750D01*
X149387000Y-122855500D01*
X150643000Y-122855500D01*
X150643000Y-122068750D01*
X150897000Y-122068750D01*
X150897000Y-122855500D01*
X152153000Y-122855500D01*
X152153000Y-122068750D01*
X152407000Y-122068750D01*
X152407000Y-122855500D01*
X153663000Y-122855500D01*
X153663000Y-122068750D01*
X153917000Y-122068750D01*
X153917000Y-122855500D01*
X154338750Y-122855500D01*
X154348750Y-122865500D01*
X155173000Y-122865500D01*
X155173000Y-122078750D01*
X155427000Y-122078750D01*
X155427000Y-122865500D01*
X156683000Y-122865500D01*
X156683000Y-122078750D01*
X156524250Y-121920000D01*
X156335000Y-121916928D01*
X156210518Y-121929188D01*
X156090820Y-121965498D01*
X156055000Y-121984644D01*
X156019180Y-121965498D01*
X155899482Y-121929188D01*
X155775000Y-121916928D01*
X155585750Y-121920000D01*
X155427000Y-122078750D01*
X155173000Y-122078750D01*
X155014250Y-121920000D01*
X154825000Y-121916928D01*
X154700518Y-121929188D01*
X154580820Y-121965498D01*
X154554354Y-121979644D01*
X154509180Y-121955498D01*
X154389482Y-121919188D01*
X154265000Y-121906928D01*
X154075750Y-121910000D01*
X153917000Y-122068750D01*
X153663000Y-122068750D01*
X153504250Y-121910000D01*
X153315000Y-121906928D01*
X153190518Y-121919188D01*
X153070820Y-121955498D01*
X153035000Y-121974644D01*
X152999180Y-121955498D01*
X152879482Y-121919188D01*
X152755000Y-121906928D01*
X152565750Y-121910000D01*
X152407000Y-122068750D01*
X152153000Y-122068750D01*
X151994250Y-121910000D01*
X151805000Y-121906928D01*
X151680518Y-121919188D01*
X151560820Y-121955498D01*
X151525000Y-121974644D01*
X151489180Y-121955498D01*
X151369482Y-121919188D01*
X151245000Y-121906928D01*
X151055750Y-121910000D01*
X150897000Y-122068750D01*
X150643000Y-122068750D01*
X150484250Y-121910000D01*
X150295000Y-121906928D01*
X150170518Y-121919188D01*
X150050820Y-121955498D01*
X150015000Y-121974644D01*
X149979180Y-121955498D01*
X149859482Y-121919188D01*
X149735000Y-121906928D01*
X149545750Y-121910000D01*
X149387000Y-122068750D01*
X149133000Y-122068750D01*
X148974250Y-121910000D01*
X148785000Y-121906928D01*
X148660518Y-121919188D01*
X148540820Y-121955498D01*
X148505000Y-121974644D01*
X148469180Y-121955498D01*
X148349482Y-121919188D01*
X148225000Y-121906928D01*
X148035750Y-121910000D01*
X147877000Y-122068750D01*
X147623000Y-122068750D01*
X147464250Y-121910000D01*
X147275000Y-121906928D01*
X147150518Y-121919188D01*
X147030820Y-121955498D01*
X146920506Y-122014463D01*
X146823815Y-122093815D01*
X146744463Y-122190506D01*
X146685498Y-122300820D01*
X146649188Y-122420518D01*
X146636928Y-122545000D01*
X145935422Y-122545000D01*
X146000136Y-122466146D01*
X146077672Y-122321087D01*
X146125418Y-122163689D01*
X146137500Y-122041019D01*
X146137500Y-122041018D01*
X146141540Y-122000000D01*
X146137500Y-121958982D01*
X146137500Y-121063329D01*
X146195820Y-121094502D01*
X146315518Y-121130812D01*
X146440000Y-121143072D01*
X146591750Y-121140000D01*
X146750500Y-120981250D01*
X146750500Y-120157000D01*
X147004500Y-120157000D01*
X147004500Y-120981250D01*
X147163250Y-121140000D01*
X147315000Y-121143072D01*
X147439482Y-121130812D01*
X147559180Y-121094502D01*
X147669494Y-121035537D01*
X147766185Y-120956185D01*
X147845537Y-120859494D01*
X147904502Y-120749180D01*
X147940812Y-120629482D01*
X147953072Y-120505000D01*
X147950000Y-120315750D01*
X147859250Y-120225000D01*
X148306928Y-120225000D01*
X148319188Y-120349482D01*
X148355498Y-120469180D01*
X148414463Y-120579494D01*
X148493815Y-120676185D01*
X148590506Y-120755537D01*
X148700820Y-120814502D01*
X148820518Y-120850812D01*
X148945000Y-120863072D01*
X149134250Y-120860000D01*
X149293000Y-120701250D01*
X149293000Y-119914500D01*
X149547000Y-119914500D01*
X149547000Y-120701250D01*
X149705750Y-120860000D01*
X149895000Y-120863072D01*
X150019482Y-120850812D01*
X150139180Y-120814502D01*
X150249494Y-120755537D01*
X150346185Y-120676185D01*
X150425537Y-120579494D01*
X150484502Y-120469180D01*
X150520812Y-120349482D01*
X150533072Y-120225000D01*
X150530000Y-120073250D01*
X150371250Y-119914500D01*
X149547000Y-119914500D01*
X149293000Y-119914500D01*
X148468750Y-119914500D01*
X148310000Y-120073250D01*
X148306928Y-120225000D01*
X147859250Y-120225000D01*
X147791250Y-120157000D01*
X147004500Y-120157000D01*
X146750500Y-120157000D01*
X146730500Y-120157000D01*
X146730500Y-119903000D01*
X146750500Y-119903000D01*
X146750500Y-119883000D01*
X147004500Y-119883000D01*
X147004500Y-119903000D01*
X147791250Y-119903000D01*
X147950000Y-119744250D01*
X147953072Y-119555000D01*
X147940812Y-119430518D01*
X147904502Y-119310820D01*
X147845537Y-119200506D01*
X147766185Y-119103815D01*
X147717259Y-119063662D01*
X147730523Y-119047500D01*
X148386671Y-119047500D01*
X148355498Y-119105820D01*
X148319188Y-119225518D01*
X148306928Y-119350000D01*
X148310000Y-119501750D01*
X148468750Y-119660500D01*
X149293000Y-119660500D01*
X149293000Y-119640500D01*
X149547000Y-119640500D01*
X149547000Y-119660500D01*
X150371250Y-119660500D01*
X150530000Y-119501750D01*
X150533072Y-119350000D01*
X150520812Y-119225518D01*
X150484502Y-119105820D01*
X150425537Y-118995506D01*
X150370900Y-118928930D01*
X150388671Y-118907275D01*
X150467850Y-118759142D01*
X150516608Y-118598408D01*
X150533072Y-118431250D01*
X150533072Y-117993750D01*
X150516608Y-117826592D01*
X150467850Y-117665858D01*
X150388671Y-117517725D01*
X150282115Y-117387885D01*
X150152275Y-117281329D01*
X150004142Y-117202150D01*
X149843408Y-117153392D01*
X149676250Y-117136928D01*
X149163750Y-117136928D01*
X148996592Y-117153392D01*
X148835858Y-117202150D01*
X148687725Y-117281329D01*
X148570539Y-117377500D01*
X147718212Y-117377500D01*
X147702115Y-117357885D01*
X147572275Y-117251329D01*
X147424142Y-117172150D01*
X147268709Y-117125000D01*
X150486928Y-117125000D01*
X150499188Y-117249482D01*
X150535498Y-117369180D01*
X150594463Y-117479494D01*
X150673815Y-117576185D01*
X150770506Y-117655537D01*
X150880820Y-117714502D01*
X151000518Y-117750812D01*
X151125000Y-117763072D01*
X151276750Y-117760000D01*
X151435500Y-117601250D01*
X151435500Y-116777000D01*
X150648750Y-116777000D01*
X150490000Y-116935750D01*
X150486928Y-117125000D01*
X147268709Y-117125000D01*
X147263408Y-117123392D01*
X147096250Y-117106928D01*
X146658750Y-117106928D01*
X146491592Y-117123392D01*
X146330858Y-117172150D01*
X146182725Y-117251329D01*
X146090000Y-117327426D01*
X145997275Y-117251329D01*
X145849142Y-117172150D01*
X145688408Y-117123392D01*
X145521250Y-117106928D01*
X145083750Y-117106928D01*
X144916592Y-117123392D01*
X144755858Y-117172150D01*
X144607725Y-117251329D01*
X144477885Y-117357885D01*
X144371329Y-117487725D01*
X144292150Y-117635858D01*
X144243392Y-117796592D01*
X144226928Y-117963750D01*
X144226928Y-118114704D01*
X143578574Y-118763059D01*
X143546710Y-118789209D01*
X143468097Y-118885000D01*
X143442364Y-118916355D01*
X143375000Y-119042384D01*
X143375000Y-118988363D01*
X143327540Y-118749764D01*
X143234443Y-118525008D01*
X143132135Y-118371894D01*
X143132487Y-117348380D01*
X144305867Y-116175000D01*
X150486928Y-116175000D01*
X150490000Y-116364250D01*
X150648750Y-116523000D01*
X151435500Y-116523000D01*
X151435500Y-115698750D01*
X151276750Y-115540000D01*
X151125000Y-115536928D01*
X151000518Y-115549188D01*
X150880820Y-115585498D01*
X150770506Y-115644463D01*
X150673815Y-115723815D01*
X150594463Y-115820506D01*
X150535498Y-115930820D01*
X150499188Y-116050518D01*
X150486928Y-116175000D01*
X144305867Y-116175000D01*
X145905868Y-114575000D01*
X153278446Y-114575000D01*
X153240713Y-114612733D01*
G37*
G04 #@! TD.AperFunction*
D34*
X161865820Y-132799502D02*
X161909503Y-132812753D01*
X161941750Y-132845000D01*
X162008124Y-132838038D01*
X162110000Y-132848072D01*
X162410000Y-132848072D01*
X162510000Y-132838223D01*
X162610000Y-132848072D01*
X162910000Y-132848072D01*
X163010000Y-132838223D01*
X163110000Y-132848072D01*
X163410000Y-132848072D01*
X163510000Y-132838223D01*
X163610000Y-132848072D01*
X163910000Y-132848072D01*
X163975000Y-132841670D01*
X163975000Y-132998560D01*
X163975001Y-132998570D01*
X163975000Y-134421447D01*
X163971203Y-134460000D01*
X163975000Y-134498553D01*
X163975000Y-134498560D01*
X163986359Y-134613886D01*
X164031246Y-134761859D01*
X164104138Y-134898232D01*
X164202236Y-135017764D01*
X164232189Y-135042347D01*
X164424843Y-135235000D01*
X163095157Y-135235000D01*
X160708229Y-132848072D01*
X160910000Y-132848072D01*
X161010000Y-132838223D01*
X161110000Y-132848072D01*
X161410000Y-132848072D01*
X161511876Y-132838038D01*
X161578250Y-132845000D01*
X161610497Y-132812753D01*
X161654180Y-132799502D01*
X161760000Y-132742939D01*
X161865820Y-132799502D01*
G04 #@! TA.AperFunction,Conductor*
D35*
G36*
X161865820Y-132799502D02*
G01*
X161909503Y-132812753D01*
X161941750Y-132845000D01*
X162008124Y-132838038D01*
X162110000Y-132848072D01*
X162410000Y-132848072D01*
X162510000Y-132838223D01*
X162610000Y-132848072D01*
X162910000Y-132848072D01*
X163010000Y-132838223D01*
X163110000Y-132848072D01*
X163410000Y-132848072D01*
X163510000Y-132838223D01*
X163610000Y-132848072D01*
X163910000Y-132848072D01*
X163975000Y-132841670D01*
X163975000Y-132998560D01*
X163975001Y-132998570D01*
X163975000Y-134421447D01*
X163971203Y-134460000D01*
X163975000Y-134498553D01*
X163975000Y-134498560D01*
X163986359Y-134613886D01*
X164031246Y-134761859D01*
X164104138Y-134898232D01*
X164202236Y-135017764D01*
X164232189Y-135042347D01*
X164424843Y-135235000D01*
X163095157Y-135235000D01*
X160708229Y-132848072D01*
X160910000Y-132848072D01*
X161010000Y-132838223D01*
X161110000Y-132848072D01*
X161410000Y-132848072D01*
X161511876Y-132838038D01*
X161578250Y-132845000D01*
X161610497Y-132812753D01*
X161654180Y-132799502D01*
X161760000Y-132742939D01*
X161865820Y-132799502D01*
G37*
G04 #@! TD.AperFunction*
D34*
X156610000Y-132848072D02*
X156910000Y-132848072D01*
X156975000Y-132841670D01*
X156975000Y-133264843D01*
X155014843Y-135225000D01*
X154885157Y-135225000D01*
X155787817Y-134322341D01*
X155817764Y-134297764D01*
X155860360Y-134245862D01*
X155867007Y-134237762D01*
X155915862Y-134178233D01*
X155988754Y-134041860D01*
X155994849Y-134021768D01*
X156033642Y-133893887D01*
X156044743Y-133781168D01*
X156045000Y-133778561D01*
X156045000Y-133778556D01*
X156048797Y-133740000D01*
X156045000Y-133701444D01*
X156045000Y-132841670D01*
X156110000Y-132848072D01*
X156410000Y-132848072D01*
X156510000Y-132838223D01*
X156610000Y-132848072D01*
G04 #@! TA.AperFunction,Conductor*
D35*
G36*
X156610000Y-132848072D02*
G01*
X156910000Y-132848072D01*
X156975000Y-132841670D01*
X156975000Y-133264843D01*
X155014843Y-135225000D01*
X154885157Y-135225000D01*
X155787817Y-134322341D01*
X155817764Y-134297764D01*
X155860360Y-134245862D01*
X155867007Y-134237762D01*
X155915862Y-134178233D01*
X155988754Y-134041860D01*
X155994849Y-134021768D01*
X156033642Y-133893887D01*
X156044743Y-133781168D01*
X156045000Y-133778561D01*
X156045000Y-133778556D01*
X156048797Y-133740000D01*
X156045000Y-133701444D01*
X156045000Y-132841670D01*
X156110000Y-132848072D01*
X156410000Y-132848072D01*
X156510000Y-132838223D01*
X156610000Y-132848072D01*
G37*
G04 #@! TD.AperFunction*
D34*
X164565000Y-119745867D02*
X164565000Y-119921637D01*
X164612460Y-120160236D01*
X164705557Y-120384992D01*
X164840713Y-120587267D01*
X165012733Y-120759287D01*
X165215008Y-120894443D01*
X165431745Y-120984218D01*
X165289764Y-121012460D01*
X165065008Y-121105557D01*
X164862733Y-121240713D01*
X164690713Y-121412733D01*
X164555557Y-121615008D01*
X164462460Y-121839764D01*
X164415000Y-122078363D01*
X164415000Y-122321637D01*
X164419531Y-122344418D01*
X164271637Y-122315000D01*
X164028363Y-122315000D01*
X163789764Y-122362460D01*
X163565008Y-122455557D01*
X163362733Y-122590713D01*
X163190713Y-122762733D01*
X163055557Y-122965008D01*
X162962460Y-123189764D01*
X162915000Y-123428363D01*
X162915000Y-123671637D01*
X162962460Y-123910236D01*
X163055557Y-124134992D01*
X163190713Y-124337267D01*
X163362733Y-124509287D01*
X163565008Y-124644443D01*
X163750921Y-124721451D01*
X163705000Y-124716928D01*
X163515750Y-124720000D01*
X163357000Y-124878750D01*
X163357000Y-125665500D01*
X164168750Y-125665500D01*
X164188750Y-125685500D01*
X165013000Y-125685500D01*
X165013000Y-124898750D01*
X165267000Y-124898750D01*
X165267000Y-125685500D01*
X166091250Y-125685500D01*
X166250000Y-125526750D01*
X166253072Y-125375000D01*
X166240812Y-125250518D01*
X166204502Y-125130820D01*
X166145537Y-125020506D01*
X166066185Y-124923815D01*
X165969494Y-124844463D01*
X165859180Y-124785498D01*
X165739482Y-124749188D01*
X165615000Y-124736928D01*
X165425750Y-124740000D01*
X165267000Y-124898750D01*
X165013000Y-124898750D01*
X164854250Y-124740000D01*
X164665000Y-124736928D01*
X164540518Y-124749188D01*
X164420820Y-124785498D01*
X164310506Y-124844463D01*
X164213815Y-124923815D01*
X164193207Y-124948926D01*
X164156185Y-124903815D01*
X164059494Y-124824463D01*
X163960359Y-124771473D01*
X164028363Y-124785000D01*
X164271637Y-124785000D01*
X164510236Y-124737540D01*
X164734992Y-124644443D01*
X164937267Y-124509287D01*
X165061554Y-124385000D01*
X166800717Y-124385000D01*
X166786928Y-124525000D01*
X166786928Y-125775000D01*
X166803992Y-125948254D01*
X166854528Y-126114850D01*
X166936595Y-126268386D01*
X167047038Y-126402962D01*
X167181614Y-126513405D01*
X167335150Y-126595472D01*
X167501746Y-126646008D01*
X167675000Y-126663072D01*
X168043000Y-126663072D01*
X168043000Y-127445000D01*
X166253072Y-127445000D01*
X166253072Y-127168750D01*
X166236608Y-127001592D01*
X166187850Y-126840858D01*
X166108671Y-126692725D01*
X166090900Y-126671070D01*
X166145537Y-126604494D01*
X166204502Y-126494180D01*
X166240812Y-126374482D01*
X166253072Y-126250000D01*
X166250000Y-126098250D01*
X166091250Y-125939500D01*
X165267000Y-125939500D01*
X165267000Y-125959500D01*
X165013000Y-125959500D01*
X165013000Y-125939500D01*
X164201250Y-125939500D01*
X164181250Y-125919500D01*
X163357000Y-125919500D01*
X163357000Y-125939500D01*
X163103000Y-125939500D01*
X163103000Y-125919500D01*
X162278750Y-125919500D01*
X162120000Y-126078250D01*
X162116928Y-126230000D01*
X162129188Y-126354482D01*
X162165498Y-126474180D01*
X162224463Y-126584494D01*
X162279100Y-126651070D01*
X162261329Y-126672725D01*
X162182150Y-126820858D01*
X162133392Y-126981592D01*
X162116928Y-127148750D01*
X162116928Y-127586250D01*
X162133392Y-127753408D01*
X162182150Y-127914142D01*
X162261329Y-128062275D01*
X162367885Y-128192115D01*
X162475001Y-128280022D01*
X162475001Y-128578330D01*
X162410000Y-128571928D01*
X162110000Y-128571928D01*
X162045000Y-128578330D01*
X162045000Y-125355000D01*
X162116928Y-125355000D01*
X162120000Y-125506750D01*
X162278750Y-125665500D01*
X163103000Y-125665500D01*
X163103000Y-124878750D01*
X162944250Y-124720000D01*
X162755000Y-124716928D01*
X162630518Y-124729188D01*
X162510820Y-124765498D01*
X162400506Y-124824463D01*
X162303815Y-124903815D01*
X162224463Y-125000506D01*
X162165498Y-125110820D01*
X162129188Y-125230518D01*
X162116928Y-125355000D01*
X162045000Y-125355000D01*
X162045000Y-122381074D01*
X162065008Y-122394443D01*
X162289764Y-122487540D01*
X162528363Y-122535000D01*
X162771637Y-122535000D01*
X163010236Y-122487540D01*
X163234992Y-122394443D01*
X163437267Y-122259287D01*
X163609287Y-122087267D01*
X163744443Y-121884992D01*
X163837540Y-121660236D01*
X163885000Y-121421637D01*
X163885000Y-121245868D01*
X164071432Y-121059437D01*
X164103291Y-121033291D01*
X164131600Y-120998797D01*
X164207636Y-120906146D01*
X164285172Y-120761087D01*
X164298326Y-120717725D01*
X164332918Y-120603689D01*
X164345000Y-120481019D01*
X164345000Y-120481018D01*
X164349040Y-120440000D01*
X164345000Y-120398982D01*
X164345000Y-120015489D01*
X164383410Y-119888868D01*
X164398072Y-119740000D01*
X164398072Y-119578939D01*
X164565000Y-119745867D01*
G04 #@! TA.AperFunction,Conductor*
D35*
G36*
X164565000Y-119745867D02*
G01*
X164565000Y-119921637D01*
X164612460Y-120160236D01*
X164705557Y-120384992D01*
X164840713Y-120587267D01*
X165012733Y-120759287D01*
X165215008Y-120894443D01*
X165431745Y-120984218D01*
X165289764Y-121012460D01*
X165065008Y-121105557D01*
X164862733Y-121240713D01*
X164690713Y-121412733D01*
X164555557Y-121615008D01*
X164462460Y-121839764D01*
X164415000Y-122078363D01*
X164415000Y-122321637D01*
X164419531Y-122344418D01*
X164271637Y-122315000D01*
X164028363Y-122315000D01*
X163789764Y-122362460D01*
X163565008Y-122455557D01*
X163362733Y-122590713D01*
X163190713Y-122762733D01*
X163055557Y-122965008D01*
X162962460Y-123189764D01*
X162915000Y-123428363D01*
X162915000Y-123671637D01*
X162962460Y-123910236D01*
X163055557Y-124134992D01*
X163190713Y-124337267D01*
X163362733Y-124509287D01*
X163565008Y-124644443D01*
X163750921Y-124721451D01*
X163705000Y-124716928D01*
X163515750Y-124720000D01*
X163357000Y-124878750D01*
X163357000Y-125665500D01*
X164168750Y-125665500D01*
X164188750Y-125685500D01*
X165013000Y-125685500D01*
X165013000Y-124898750D01*
X165267000Y-124898750D01*
X165267000Y-125685500D01*
X166091250Y-125685500D01*
X166250000Y-125526750D01*
X166253072Y-125375000D01*
X166240812Y-125250518D01*
X166204502Y-125130820D01*
X166145537Y-125020506D01*
X166066185Y-124923815D01*
X165969494Y-124844463D01*
X165859180Y-124785498D01*
X165739482Y-124749188D01*
X165615000Y-124736928D01*
X165425750Y-124740000D01*
X165267000Y-124898750D01*
X165013000Y-124898750D01*
X164854250Y-124740000D01*
X164665000Y-124736928D01*
X164540518Y-124749188D01*
X164420820Y-124785498D01*
X164310506Y-124844463D01*
X164213815Y-124923815D01*
X164193207Y-124948926D01*
X164156185Y-124903815D01*
X164059494Y-124824463D01*
X163960359Y-124771473D01*
X164028363Y-124785000D01*
X164271637Y-124785000D01*
X164510236Y-124737540D01*
X164734992Y-124644443D01*
X164937267Y-124509287D01*
X165061554Y-124385000D01*
X166800717Y-124385000D01*
X166786928Y-124525000D01*
X166786928Y-125775000D01*
X166803992Y-125948254D01*
X166854528Y-126114850D01*
X166936595Y-126268386D01*
X167047038Y-126402962D01*
X167181614Y-126513405D01*
X167335150Y-126595472D01*
X167501746Y-126646008D01*
X167675000Y-126663072D01*
X168043000Y-126663072D01*
X168043000Y-127445000D01*
X166253072Y-127445000D01*
X166253072Y-127168750D01*
X166236608Y-127001592D01*
X166187850Y-126840858D01*
X166108671Y-126692725D01*
X166090900Y-126671070D01*
X166145537Y-126604494D01*
X166204502Y-126494180D01*
X166240812Y-126374482D01*
X166253072Y-126250000D01*
X166250000Y-126098250D01*
X166091250Y-125939500D01*
X165267000Y-125939500D01*
X165267000Y-125959500D01*
X165013000Y-125959500D01*
X165013000Y-125939500D01*
X164201250Y-125939500D01*
X164181250Y-125919500D01*
X163357000Y-125919500D01*
X163357000Y-125939500D01*
X163103000Y-125939500D01*
X163103000Y-125919500D01*
X162278750Y-125919500D01*
X162120000Y-126078250D01*
X162116928Y-126230000D01*
X162129188Y-126354482D01*
X162165498Y-126474180D01*
X162224463Y-126584494D01*
X162279100Y-126651070D01*
X162261329Y-126672725D01*
X162182150Y-126820858D01*
X162133392Y-126981592D01*
X162116928Y-127148750D01*
X162116928Y-127586250D01*
X162133392Y-127753408D01*
X162182150Y-127914142D01*
X162261329Y-128062275D01*
X162367885Y-128192115D01*
X162475001Y-128280022D01*
X162475001Y-128578330D01*
X162410000Y-128571928D01*
X162110000Y-128571928D01*
X162045000Y-128578330D01*
X162045000Y-125355000D01*
X162116928Y-125355000D01*
X162120000Y-125506750D01*
X162278750Y-125665500D01*
X163103000Y-125665500D01*
X163103000Y-124878750D01*
X162944250Y-124720000D01*
X162755000Y-124716928D01*
X162630518Y-124729188D01*
X162510820Y-124765498D01*
X162400506Y-124824463D01*
X162303815Y-124903815D01*
X162224463Y-125000506D01*
X162165498Y-125110820D01*
X162129188Y-125230518D01*
X162116928Y-125355000D01*
X162045000Y-125355000D01*
X162045000Y-122381074D01*
X162065008Y-122394443D01*
X162289764Y-122487540D01*
X162528363Y-122535000D01*
X162771637Y-122535000D01*
X163010236Y-122487540D01*
X163234992Y-122394443D01*
X163437267Y-122259287D01*
X163609287Y-122087267D01*
X163744443Y-121884992D01*
X163837540Y-121660236D01*
X163885000Y-121421637D01*
X163885000Y-121245868D01*
X164071432Y-121059437D01*
X164103291Y-121033291D01*
X164131600Y-120998797D01*
X164207636Y-120906146D01*
X164285172Y-120761087D01*
X164298326Y-120717725D01*
X164332918Y-120603689D01*
X164345000Y-120481019D01*
X164345000Y-120481018D01*
X164349040Y-120440000D01*
X164345000Y-120398982D01*
X164345000Y-120015489D01*
X164383410Y-119888868D01*
X164398072Y-119740000D01*
X164398072Y-119578939D01*
X164565000Y-119745867D01*
G37*
G04 #@! TD.AperFunction*
D34*
X171589761Y-98838765D02*
X171318765Y-99109761D01*
X171105844Y-99428419D01*
X170959182Y-99782493D01*
X170884414Y-100158376D01*
X170884414Y-100541624D01*
X170959182Y-100917507D01*
X171105844Y-101271581D01*
X171318765Y-101590239D01*
X171589761Y-101861235D01*
X171908419Y-102074156D01*
X172262493Y-102220818D01*
X172638376Y-102295586D01*
X173021624Y-102295586D01*
X173397507Y-102220818D01*
X173751581Y-102074156D01*
X174070239Y-101861235D01*
X174341235Y-101590239D01*
X174554156Y-101271581D01*
X174661643Y-101012085D01*
X175375906Y-104393742D01*
X175405289Y-104486639D01*
X175467924Y-104600564D01*
X175505797Y-104645617D01*
X176643705Y-106051476D01*
X177219279Y-106898824D01*
X179579688Y-111577323D01*
X179873362Y-112393620D01*
X180315290Y-114044428D01*
X178920000Y-114044428D01*
X178795518Y-114056688D01*
X178675820Y-114092998D01*
X178565506Y-114151963D01*
X178491038Y-114213077D01*
X178514502Y-114169180D01*
X178550812Y-114049482D01*
X178563072Y-113925000D01*
X178560000Y-113735750D01*
X178401250Y-113577000D01*
X177614500Y-113577000D01*
X177614500Y-114401250D01*
X177773250Y-114560000D01*
X177925000Y-114563072D01*
X178049482Y-114550812D01*
X178169180Y-114514502D01*
X178279494Y-114455537D01*
X178353962Y-114394423D01*
X178330498Y-114438320D01*
X178294188Y-114558018D01*
X178281928Y-114682500D01*
X178281928Y-114941928D01*
X176520000Y-114941928D01*
X176395518Y-114954188D01*
X176275820Y-114990498D01*
X176165506Y-115049463D01*
X176068815Y-115128815D01*
X175989463Y-115225506D01*
X175930498Y-115335820D01*
X175894188Y-115455518D01*
X175881928Y-115580000D01*
X175881928Y-117055000D01*
X175892105Y-117158334D01*
X175885000Y-117223250D01*
X175917247Y-117255497D01*
X175930498Y-117299180D01*
X175989463Y-117409494D01*
X176047326Y-117480000D01*
X175989463Y-117550506D01*
X175930498Y-117660820D01*
X175917247Y-117704503D01*
X175885000Y-117736750D01*
X175892105Y-117801666D01*
X175881928Y-117905000D01*
X175881928Y-118355000D01*
X175891777Y-118455000D01*
X175881928Y-118555000D01*
X175881928Y-119005000D01*
X175891777Y-119105000D01*
X175881928Y-119205000D01*
X175881928Y-119245000D01*
X175648518Y-119245000D01*
X175607500Y-119240960D01*
X175566482Y-119245000D01*
X175566481Y-119245000D01*
X175443811Y-119257082D01*
X175286413Y-119304828D01*
X175141354Y-119382364D01*
X175092827Y-119422189D01*
X175047238Y-119459603D01*
X175014209Y-119486709D01*
X174988063Y-119518568D01*
X174169704Y-120336928D01*
X174018750Y-120336928D01*
X173851592Y-120353392D01*
X173690858Y-120402150D01*
X173542725Y-120481329D01*
X173450000Y-120557426D01*
X173357275Y-120481329D01*
X173209142Y-120402150D01*
X173048408Y-120353392D01*
X172881250Y-120336928D01*
X172443750Y-120336928D01*
X172276592Y-120353392D01*
X172115858Y-120402150D01*
X171967725Y-120481329D01*
X171837885Y-120587885D01*
X171815632Y-120615000D01*
X171178413Y-120615000D01*
X171265790Y-120543292D01*
X171370135Y-120416147D01*
X171376353Y-120404514D01*
X172387796Y-119393072D01*
X172561250Y-119393072D01*
X172728408Y-119376608D01*
X172889142Y-119327850D01*
X173037275Y-119248671D01*
X173058930Y-119230900D01*
X173125506Y-119285537D01*
X173235820Y-119344502D01*
X173355518Y-119380812D01*
X173480000Y-119393072D01*
X173631750Y-119390000D01*
X173790500Y-119231250D01*
X173790500Y-118407000D01*
X174044500Y-118407000D01*
X174044500Y-119231250D01*
X174203250Y-119390000D01*
X174355000Y-119393072D01*
X174479482Y-119380812D01*
X174599180Y-119344502D01*
X174709494Y-119285537D01*
X174806185Y-119206185D01*
X174885537Y-119109494D01*
X174944502Y-118999180D01*
X174980812Y-118879482D01*
X174993072Y-118755000D01*
X174990000Y-118565750D01*
X174831250Y-118407000D01*
X174044500Y-118407000D01*
X173790500Y-118407000D01*
X173770500Y-118407000D01*
X173770500Y-118153000D01*
X173790500Y-118153000D01*
X173790500Y-118133000D01*
X174044500Y-118133000D01*
X174044500Y-118153000D01*
X174831250Y-118153000D01*
X174990000Y-117994250D01*
X174993072Y-117805000D01*
X174980812Y-117680518D01*
X174944502Y-117560820D01*
X174885537Y-117450506D01*
X174806185Y-117353815D01*
X174709494Y-117274463D01*
X174599180Y-117215498D01*
X174587478Y-117211948D01*
X174647636Y-117138646D01*
X174725172Y-116993587D01*
X174772918Y-116836189D01*
X174785000Y-116713519D01*
X174785000Y-116713509D01*
X174789039Y-116672501D01*
X174785000Y-116631493D01*
X174785000Y-113865868D01*
X174879889Y-113960757D01*
X174902150Y-114034142D01*
X174981329Y-114182275D01*
X175087885Y-114312115D01*
X175217725Y-114418671D01*
X175365858Y-114497850D01*
X175526592Y-114546608D01*
X175693750Y-114563072D01*
X176131250Y-114563072D01*
X176298408Y-114546608D01*
X176459142Y-114497850D01*
X176607275Y-114418671D01*
X176628930Y-114400900D01*
X176695506Y-114455537D01*
X176805820Y-114514502D01*
X176925518Y-114550812D01*
X177050000Y-114563072D01*
X177201750Y-114560000D01*
X177360500Y-114401250D01*
X177360500Y-113577000D01*
X177340500Y-113577000D01*
X177340500Y-113323000D01*
X177360500Y-113323000D01*
X177360500Y-112498750D01*
X177614500Y-112498750D01*
X177614500Y-113323000D01*
X178401250Y-113323000D01*
X178560000Y-113164250D01*
X178563072Y-112975000D01*
X178550812Y-112850518D01*
X178514502Y-112730820D01*
X178455537Y-112620506D01*
X178376185Y-112523815D01*
X178279494Y-112444463D01*
X178169180Y-112385498D01*
X178049482Y-112349188D01*
X177925000Y-112336928D01*
X177773250Y-112340000D01*
X177614500Y-112498750D01*
X177360500Y-112498750D01*
X177201750Y-112340000D01*
X177050000Y-112336928D01*
X176925518Y-112349188D01*
X176805820Y-112385498D01*
X176695506Y-112444463D01*
X176628930Y-112499100D01*
X176607275Y-112481329D01*
X176459142Y-112402150D01*
X176298408Y-112353392D01*
X176131250Y-112336928D01*
X175693750Y-112336928D01*
X175624606Y-112343738D01*
X175135000Y-111854133D01*
X175135000Y-111678363D01*
X175087540Y-111439764D01*
X174994443Y-111215008D01*
X174859287Y-111012733D01*
X174687267Y-110840713D01*
X174484992Y-110705557D01*
X174260236Y-110612460D01*
X174021637Y-110565000D01*
X173900010Y-110565000D01*
X173900010Y-108078457D01*
X173904049Y-108037449D01*
X173900010Y-107996441D01*
X173900010Y-107996431D01*
X173887928Y-107873761D01*
X173840182Y-107716363D01*
X173762646Y-107571304D01*
X173658301Y-107444159D01*
X173626438Y-107418010D01*
X172017006Y-105808579D01*
X171990851Y-105776709D01*
X171863706Y-105672364D01*
X171718647Y-105594828D01*
X171561249Y-105547082D01*
X171438579Y-105535000D01*
X171438578Y-105535000D01*
X171397560Y-105530960D01*
X171356542Y-105535000D01*
X170464368Y-105535000D01*
X170442115Y-105507885D01*
X170312275Y-105401329D01*
X170275015Y-105381413D01*
X170311932Y-105377086D01*
X170430568Y-105337443D01*
X170539190Y-105275417D01*
X170633625Y-105193392D01*
X170710243Y-105094520D01*
X170766099Y-104982600D01*
X170799048Y-104861934D01*
X170805000Y-104786750D01*
X170646250Y-104628000D01*
X170158072Y-104628000D01*
X170158072Y-104382000D01*
X170646250Y-104382000D01*
X170805000Y-104223250D01*
X170799048Y-104148066D01*
X170766099Y-104027400D01*
X170710243Y-103915480D01*
X170633625Y-103816608D01*
X170539190Y-103734583D01*
X170435044Y-103675113D01*
X170522810Y-103587347D01*
X170552764Y-103562764D01*
X170650862Y-103443233D01*
X170723754Y-103306860D01*
X170732619Y-103277636D01*
X170768642Y-103158887D01*
X170776644Y-103077636D01*
X170780000Y-103043561D01*
X170780000Y-103043556D01*
X170783797Y-103005000D01*
X170780000Y-102966444D01*
X170780000Y-102881607D01*
X170795812Y-102829482D01*
X170808072Y-102705000D01*
X170808072Y-102205000D01*
X170795812Y-102080518D01*
X170780000Y-102028393D01*
X170780000Y-101250056D01*
X170783797Y-101211500D01*
X170780000Y-101172940D01*
X170780000Y-101172939D01*
X170772642Y-101098232D01*
X170768642Y-101057613D01*
X170723754Y-100909640D01*
X170719865Y-100902364D01*
X170650862Y-100773267D01*
X170552764Y-100653736D01*
X170522811Y-100629154D01*
X170519072Y-100625415D01*
X170519072Y-100403750D01*
X170502608Y-100236592D01*
X170453850Y-100075858D01*
X170374671Y-99927725D01*
X170268115Y-99797885D01*
X170138275Y-99691329D01*
X169990142Y-99612150D01*
X169829408Y-99563392D01*
X169662250Y-99546928D01*
X169224750Y-99546928D01*
X169057592Y-99563392D01*
X168896858Y-99612150D01*
X168748725Y-99691329D01*
X168727070Y-99709100D01*
X168660494Y-99654463D01*
X168550180Y-99595498D01*
X168430482Y-99559188D01*
X168306000Y-99546928D01*
X168154250Y-99550000D01*
X167995500Y-99708750D01*
X167995500Y-100533000D01*
X168015500Y-100533000D01*
X168015500Y-100787000D01*
X167995500Y-100787000D01*
X167995500Y-100807000D01*
X167741500Y-100807000D01*
X167741500Y-100787000D01*
X167721500Y-100787000D01*
X167721500Y-100533000D01*
X167741500Y-100533000D01*
X167741500Y-99708750D01*
X167582750Y-99550000D01*
X167431000Y-99546928D01*
X167306518Y-99559188D01*
X167186820Y-99595498D01*
X167076506Y-99654463D01*
X166988466Y-99726716D01*
X166861250Y-99599500D01*
X166037000Y-99599500D01*
X166037000Y-99619500D01*
X165783000Y-99619500D01*
X165783000Y-99599500D01*
X164958750Y-99599500D01*
X164941250Y-99617000D01*
X164517000Y-99617000D01*
X164517000Y-99637000D01*
X164263000Y-99637000D01*
X164263000Y-99617000D01*
X163826250Y-99617000D01*
X163821250Y-99612000D01*
X162997000Y-99612000D01*
X162997000Y-99632000D01*
X162743000Y-99632000D01*
X162743000Y-99612000D01*
X162723000Y-99612000D01*
X162723000Y-99358000D01*
X162743000Y-99358000D01*
X162743000Y-99338000D01*
X162997000Y-99338000D01*
X162997000Y-99358000D01*
X163433750Y-99358000D01*
X163438750Y-99363000D01*
X164263000Y-99363000D01*
X164263000Y-99343000D01*
X164517000Y-99343000D01*
X164517000Y-99363000D01*
X165341250Y-99363000D01*
X165358750Y-99345500D01*
X165783000Y-99345500D01*
X165783000Y-99325500D01*
X166037000Y-99325500D01*
X166037000Y-99345500D01*
X166861250Y-99345500D01*
X167020000Y-99186750D01*
X167023072Y-99035000D01*
X167010812Y-98910518D01*
X166974502Y-98790820D01*
X166915537Y-98680506D01*
X166898708Y-98660000D01*
X171857301Y-98660000D01*
X171589761Y-98838765D01*
G04 #@! TA.AperFunction,Conductor*
D35*
G36*
X171589761Y-98838765D02*
G01*
X171318765Y-99109761D01*
X171105844Y-99428419D01*
X170959182Y-99782493D01*
X170884414Y-100158376D01*
X170884414Y-100541624D01*
X170959182Y-100917507D01*
X171105844Y-101271581D01*
X171318765Y-101590239D01*
X171589761Y-101861235D01*
X171908419Y-102074156D01*
X172262493Y-102220818D01*
X172638376Y-102295586D01*
X173021624Y-102295586D01*
X173397507Y-102220818D01*
X173751581Y-102074156D01*
X174070239Y-101861235D01*
X174341235Y-101590239D01*
X174554156Y-101271581D01*
X174661643Y-101012085D01*
X175375906Y-104393742D01*
X175405289Y-104486639D01*
X175467924Y-104600564D01*
X175505797Y-104645617D01*
X176643705Y-106051476D01*
X177219279Y-106898824D01*
X179579688Y-111577323D01*
X179873362Y-112393620D01*
X180315290Y-114044428D01*
X178920000Y-114044428D01*
X178795518Y-114056688D01*
X178675820Y-114092998D01*
X178565506Y-114151963D01*
X178491038Y-114213077D01*
X178514502Y-114169180D01*
X178550812Y-114049482D01*
X178563072Y-113925000D01*
X178560000Y-113735750D01*
X178401250Y-113577000D01*
X177614500Y-113577000D01*
X177614500Y-114401250D01*
X177773250Y-114560000D01*
X177925000Y-114563072D01*
X178049482Y-114550812D01*
X178169180Y-114514502D01*
X178279494Y-114455537D01*
X178353962Y-114394423D01*
X178330498Y-114438320D01*
X178294188Y-114558018D01*
X178281928Y-114682500D01*
X178281928Y-114941928D01*
X176520000Y-114941928D01*
X176395518Y-114954188D01*
X176275820Y-114990498D01*
X176165506Y-115049463D01*
X176068815Y-115128815D01*
X175989463Y-115225506D01*
X175930498Y-115335820D01*
X175894188Y-115455518D01*
X175881928Y-115580000D01*
X175881928Y-117055000D01*
X175892105Y-117158334D01*
X175885000Y-117223250D01*
X175917247Y-117255497D01*
X175930498Y-117299180D01*
X175989463Y-117409494D01*
X176047326Y-117480000D01*
X175989463Y-117550506D01*
X175930498Y-117660820D01*
X175917247Y-117704503D01*
X175885000Y-117736750D01*
X175892105Y-117801666D01*
X175881928Y-117905000D01*
X175881928Y-118355000D01*
X175891777Y-118455000D01*
X175881928Y-118555000D01*
X175881928Y-119005000D01*
X175891777Y-119105000D01*
X175881928Y-119205000D01*
X175881928Y-119245000D01*
X175648518Y-119245000D01*
X175607500Y-119240960D01*
X175566482Y-119245000D01*
X175566481Y-119245000D01*
X175443811Y-119257082D01*
X175286413Y-119304828D01*
X175141354Y-119382364D01*
X175092827Y-119422189D01*
X175047238Y-119459603D01*
X175014209Y-119486709D01*
X174988063Y-119518568D01*
X174169704Y-120336928D01*
X174018750Y-120336928D01*
X173851592Y-120353392D01*
X173690858Y-120402150D01*
X173542725Y-120481329D01*
X173450000Y-120557426D01*
X173357275Y-120481329D01*
X173209142Y-120402150D01*
X173048408Y-120353392D01*
X172881250Y-120336928D01*
X172443750Y-120336928D01*
X172276592Y-120353392D01*
X172115858Y-120402150D01*
X171967725Y-120481329D01*
X171837885Y-120587885D01*
X171815632Y-120615000D01*
X171178413Y-120615000D01*
X171265790Y-120543292D01*
X171370135Y-120416147D01*
X171376353Y-120404514D01*
X172387796Y-119393072D01*
X172561250Y-119393072D01*
X172728408Y-119376608D01*
X172889142Y-119327850D01*
X173037275Y-119248671D01*
X173058930Y-119230900D01*
X173125506Y-119285537D01*
X173235820Y-119344502D01*
X173355518Y-119380812D01*
X173480000Y-119393072D01*
X173631750Y-119390000D01*
X173790500Y-119231250D01*
X173790500Y-118407000D01*
X174044500Y-118407000D01*
X174044500Y-119231250D01*
X174203250Y-119390000D01*
X174355000Y-119393072D01*
X174479482Y-119380812D01*
X174599180Y-119344502D01*
X174709494Y-119285537D01*
X174806185Y-119206185D01*
X174885537Y-119109494D01*
X174944502Y-118999180D01*
X174980812Y-118879482D01*
X174993072Y-118755000D01*
X174990000Y-118565750D01*
X174831250Y-118407000D01*
X174044500Y-118407000D01*
X173790500Y-118407000D01*
X173770500Y-118407000D01*
X173770500Y-118153000D01*
X173790500Y-118153000D01*
X173790500Y-118133000D01*
X174044500Y-118133000D01*
X174044500Y-118153000D01*
X174831250Y-118153000D01*
X174990000Y-117994250D01*
X174993072Y-117805000D01*
X174980812Y-117680518D01*
X174944502Y-117560820D01*
X174885537Y-117450506D01*
X174806185Y-117353815D01*
X174709494Y-117274463D01*
X174599180Y-117215498D01*
X174587478Y-117211948D01*
X174647636Y-117138646D01*
X174725172Y-116993587D01*
X174772918Y-116836189D01*
X174785000Y-116713519D01*
X174785000Y-116713509D01*
X174789039Y-116672501D01*
X174785000Y-116631493D01*
X174785000Y-113865868D01*
X174879889Y-113960757D01*
X174902150Y-114034142D01*
X174981329Y-114182275D01*
X175087885Y-114312115D01*
X175217725Y-114418671D01*
X175365858Y-114497850D01*
X175526592Y-114546608D01*
X175693750Y-114563072D01*
X176131250Y-114563072D01*
X176298408Y-114546608D01*
X176459142Y-114497850D01*
X176607275Y-114418671D01*
X176628930Y-114400900D01*
X176695506Y-114455537D01*
X176805820Y-114514502D01*
X176925518Y-114550812D01*
X177050000Y-114563072D01*
X177201750Y-114560000D01*
X177360500Y-114401250D01*
X177360500Y-113577000D01*
X177340500Y-113577000D01*
X177340500Y-113323000D01*
X177360500Y-113323000D01*
X177360500Y-112498750D01*
X177614500Y-112498750D01*
X177614500Y-113323000D01*
X178401250Y-113323000D01*
X178560000Y-113164250D01*
X178563072Y-112975000D01*
X178550812Y-112850518D01*
X178514502Y-112730820D01*
X178455537Y-112620506D01*
X178376185Y-112523815D01*
X178279494Y-112444463D01*
X178169180Y-112385498D01*
X178049482Y-112349188D01*
X177925000Y-112336928D01*
X177773250Y-112340000D01*
X177614500Y-112498750D01*
X177360500Y-112498750D01*
X177201750Y-112340000D01*
X177050000Y-112336928D01*
X176925518Y-112349188D01*
X176805820Y-112385498D01*
X176695506Y-112444463D01*
X176628930Y-112499100D01*
X176607275Y-112481329D01*
X176459142Y-112402150D01*
X176298408Y-112353392D01*
X176131250Y-112336928D01*
X175693750Y-112336928D01*
X175624606Y-112343738D01*
X175135000Y-111854133D01*
X175135000Y-111678363D01*
X175087540Y-111439764D01*
X174994443Y-111215008D01*
X174859287Y-111012733D01*
X174687267Y-110840713D01*
X174484992Y-110705557D01*
X174260236Y-110612460D01*
X174021637Y-110565000D01*
X173900010Y-110565000D01*
X173900010Y-108078457D01*
X173904049Y-108037449D01*
X173900010Y-107996441D01*
X173900010Y-107996431D01*
X173887928Y-107873761D01*
X173840182Y-107716363D01*
X173762646Y-107571304D01*
X173658301Y-107444159D01*
X173626438Y-107418010D01*
X172017006Y-105808579D01*
X171990851Y-105776709D01*
X171863706Y-105672364D01*
X171718647Y-105594828D01*
X171561249Y-105547082D01*
X171438579Y-105535000D01*
X171438578Y-105535000D01*
X171397560Y-105530960D01*
X171356542Y-105535000D01*
X170464368Y-105535000D01*
X170442115Y-105507885D01*
X170312275Y-105401329D01*
X170275015Y-105381413D01*
X170311932Y-105377086D01*
X170430568Y-105337443D01*
X170539190Y-105275417D01*
X170633625Y-105193392D01*
X170710243Y-105094520D01*
X170766099Y-104982600D01*
X170799048Y-104861934D01*
X170805000Y-104786750D01*
X170646250Y-104628000D01*
X170158072Y-104628000D01*
X170158072Y-104382000D01*
X170646250Y-104382000D01*
X170805000Y-104223250D01*
X170799048Y-104148066D01*
X170766099Y-104027400D01*
X170710243Y-103915480D01*
X170633625Y-103816608D01*
X170539190Y-103734583D01*
X170435044Y-103675113D01*
X170522810Y-103587347D01*
X170552764Y-103562764D01*
X170650862Y-103443233D01*
X170723754Y-103306860D01*
X170732619Y-103277636D01*
X170768642Y-103158887D01*
X170776644Y-103077636D01*
X170780000Y-103043561D01*
X170780000Y-103043556D01*
X170783797Y-103005000D01*
X170780000Y-102966444D01*
X170780000Y-102881607D01*
X170795812Y-102829482D01*
X170808072Y-102705000D01*
X170808072Y-102205000D01*
X170795812Y-102080518D01*
X170780000Y-102028393D01*
X170780000Y-101250056D01*
X170783797Y-101211500D01*
X170780000Y-101172940D01*
X170780000Y-101172939D01*
X170772642Y-101098232D01*
X170768642Y-101057613D01*
X170723754Y-100909640D01*
X170719865Y-100902364D01*
X170650862Y-100773267D01*
X170552764Y-100653736D01*
X170522811Y-100629154D01*
X170519072Y-100625415D01*
X170519072Y-100403750D01*
X170502608Y-100236592D01*
X170453850Y-100075858D01*
X170374671Y-99927725D01*
X170268115Y-99797885D01*
X170138275Y-99691329D01*
X169990142Y-99612150D01*
X169829408Y-99563392D01*
X169662250Y-99546928D01*
X169224750Y-99546928D01*
X169057592Y-99563392D01*
X168896858Y-99612150D01*
X168748725Y-99691329D01*
X168727070Y-99709100D01*
X168660494Y-99654463D01*
X168550180Y-99595498D01*
X168430482Y-99559188D01*
X168306000Y-99546928D01*
X168154250Y-99550000D01*
X167995500Y-99708750D01*
X167995500Y-100533000D01*
X168015500Y-100533000D01*
X168015500Y-100787000D01*
X167995500Y-100787000D01*
X167995500Y-100807000D01*
X167741500Y-100807000D01*
X167741500Y-100787000D01*
X167721500Y-100787000D01*
X167721500Y-100533000D01*
X167741500Y-100533000D01*
X167741500Y-99708750D01*
X167582750Y-99550000D01*
X167431000Y-99546928D01*
X167306518Y-99559188D01*
X167186820Y-99595498D01*
X167076506Y-99654463D01*
X166988466Y-99726716D01*
X166861250Y-99599500D01*
X166037000Y-99599500D01*
X166037000Y-99619500D01*
X165783000Y-99619500D01*
X165783000Y-99599500D01*
X164958750Y-99599500D01*
X164941250Y-99617000D01*
X164517000Y-99617000D01*
X164517000Y-99637000D01*
X164263000Y-99637000D01*
X164263000Y-99617000D01*
X163826250Y-99617000D01*
X163821250Y-99612000D01*
X162997000Y-99612000D01*
X162997000Y-99632000D01*
X162743000Y-99632000D01*
X162743000Y-99612000D01*
X162723000Y-99612000D01*
X162723000Y-99358000D01*
X162743000Y-99358000D01*
X162743000Y-99338000D01*
X162997000Y-99338000D01*
X162997000Y-99358000D01*
X163433750Y-99358000D01*
X163438750Y-99363000D01*
X164263000Y-99363000D01*
X164263000Y-99343000D01*
X164517000Y-99343000D01*
X164517000Y-99363000D01*
X165341250Y-99363000D01*
X165358750Y-99345500D01*
X165783000Y-99345500D01*
X165783000Y-99325500D01*
X166037000Y-99325500D01*
X166037000Y-99345500D01*
X166861250Y-99345500D01*
X167020000Y-99186750D01*
X167023072Y-99035000D01*
X167010812Y-98910518D01*
X166974502Y-98790820D01*
X166915537Y-98680506D01*
X166898708Y-98660000D01*
X171857301Y-98660000D01*
X171589761Y-98838765D01*
G37*
G04 #@! TD.AperFunction*
D34*
X171352310Y-111393673D02*
X171288577Y-111457406D01*
X171256709Y-111483559D01*
X171152364Y-111610704D01*
X171074828Y-111755763D01*
X171027082Y-111913161D01*
X171016452Y-112021086D01*
X171010960Y-112076850D01*
X171015000Y-112117868D01*
X171015000Y-112358982D01*
X171010960Y-112400000D01*
X171016977Y-112461087D01*
X171027082Y-112563688D01*
X171074828Y-112721086D01*
X171152364Y-112866145D01*
X171206350Y-112931928D01*
X170894997Y-112931928D01*
X170863806Y-112935000D01*
X170807835Y-112935000D01*
X170752939Y-112945919D01*
X170721743Y-112948992D01*
X170691746Y-112958092D01*
X170636855Y-112969010D01*
X170585149Y-112990427D01*
X170555148Y-112999528D01*
X170527500Y-113014306D01*
X170475795Y-113035723D01*
X170429261Y-113066816D01*
X170401612Y-113081595D01*
X170377376Y-113101485D01*
X170330845Y-113132576D01*
X170291278Y-113172143D01*
X170267037Y-113192037D01*
X170247143Y-113216278D01*
X170207576Y-113255845D01*
X170176485Y-113302376D01*
X170156595Y-113326612D01*
X170141816Y-113354261D01*
X170110723Y-113400795D01*
X170089306Y-113452500D01*
X170074528Y-113480148D01*
X170065427Y-113510149D01*
X170044010Y-113561855D01*
X170033092Y-113616746D01*
X170023992Y-113646743D01*
X170020919Y-113677939D01*
X170010000Y-113732835D01*
X170010000Y-113788806D01*
X170006928Y-113819997D01*
X170006928Y-116420003D01*
X170010000Y-116451194D01*
X170010000Y-116507165D01*
X170020919Y-116562061D01*
X170023992Y-116593257D01*
X170033092Y-116623254D01*
X170044010Y-116678145D01*
X170065427Y-116729851D01*
X170074528Y-116759852D01*
X170089306Y-116787500D01*
X170110723Y-116839205D01*
X170141816Y-116885739D01*
X170156595Y-116913388D01*
X170176485Y-116937624D01*
X170207576Y-116984155D01*
X170247143Y-117023722D01*
X170267037Y-117047963D01*
X170291278Y-117067857D01*
X170330845Y-117107424D01*
X170377376Y-117138515D01*
X170401612Y-117158405D01*
X170429261Y-117173184D01*
X170475795Y-117204277D01*
X170527500Y-117225694D01*
X170555148Y-117240472D01*
X170585149Y-117249573D01*
X170636855Y-117270990D01*
X170691746Y-117281908D01*
X170721743Y-117291008D01*
X170752939Y-117294081D01*
X170807835Y-117305000D01*
X170863806Y-117305000D01*
X170894997Y-117308072D01*
X171653818Y-117308072D01*
X171647725Y-117311329D01*
X171517885Y-117417885D01*
X171411329Y-117547725D01*
X171332150Y-117695858D01*
X171283392Y-117856592D01*
X171266928Y-118023750D01*
X171266928Y-118152204D01*
X170304132Y-119115001D01*
X170163004Y-119115001D01*
X170121996Y-119110962D01*
X170080988Y-119115001D01*
X170080978Y-119115001D01*
X169958308Y-119127083D01*
X169800910Y-119174829D01*
X169655851Y-119252365D01*
X169528706Y-119356710D01*
X169502556Y-119388574D01*
X169403722Y-119487408D01*
X169394443Y-119465008D01*
X169259287Y-119262733D01*
X169233381Y-119236827D01*
X169361421Y-119108786D01*
X169393290Y-119082632D01*
X169497635Y-118955487D01*
X169575171Y-118810428D01*
X169622917Y-118653030D01*
X169634999Y-118530360D01*
X169634999Y-118530350D01*
X169639038Y-118489342D01*
X169634999Y-118448334D01*
X169634999Y-118145868D01*
X169711421Y-118069446D01*
X169743291Y-118043291D01*
X169847636Y-117916146D01*
X169925172Y-117771087D01*
X169972918Y-117613689D01*
X169985000Y-117491019D01*
X169989040Y-117450001D01*
X169985000Y-117408982D01*
X169985000Y-112811554D01*
X170109287Y-112687267D01*
X170244443Y-112484992D01*
X170337540Y-112260236D01*
X170385000Y-112021637D01*
X170385000Y-111778363D01*
X170338717Y-111545682D01*
X170413750Y-111553072D01*
X170851250Y-111553072D01*
X171018408Y-111536608D01*
X171179142Y-111487850D01*
X171327275Y-111408671D01*
X171348930Y-111390900D01*
X171352310Y-111393673D01*
G04 #@! TA.AperFunction,Conductor*
D35*
G36*
X171352310Y-111393673D02*
G01*
X171288577Y-111457406D01*
X171256709Y-111483559D01*
X171152364Y-111610704D01*
X171074828Y-111755763D01*
X171027082Y-111913161D01*
X171016452Y-112021086D01*
X171010960Y-112076850D01*
X171015000Y-112117868D01*
X171015000Y-112358982D01*
X171010960Y-112400000D01*
X171016977Y-112461087D01*
X171027082Y-112563688D01*
X171074828Y-112721086D01*
X171152364Y-112866145D01*
X171206350Y-112931928D01*
X170894997Y-112931928D01*
X170863806Y-112935000D01*
X170807835Y-112935000D01*
X170752939Y-112945919D01*
X170721743Y-112948992D01*
X170691746Y-112958092D01*
X170636855Y-112969010D01*
X170585149Y-112990427D01*
X170555148Y-112999528D01*
X170527500Y-113014306D01*
X170475795Y-113035723D01*
X170429261Y-113066816D01*
X170401612Y-113081595D01*
X170377376Y-113101485D01*
X170330845Y-113132576D01*
X170291278Y-113172143D01*
X170267037Y-113192037D01*
X170247143Y-113216278D01*
X170207576Y-113255845D01*
X170176485Y-113302376D01*
X170156595Y-113326612D01*
X170141816Y-113354261D01*
X170110723Y-113400795D01*
X170089306Y-113452500D01*
X170074528Y-113480148D01*
X170065427Y-113510149D01*
X170044010Y-113561855D01*
X170033092Y-113616746D01*
X170023992Y-113646743D01*
X170020919Y-113677939D01*
X170010000Y-113732835D01*
X170010000Y-113788806D01*
X170006928Y-113819997D01*
X170006928Y-116420003D01*
X170010000Y-116451194D01*
X170010000Y-116507165D01*
X170020919Y-116562061D01*
X170023992Y-116593257D01*
X170033092Y-116623254D01*
X170044010Y-116678145D01*
X170065427Y-116729851D01*
X170074528Y-116759852D01*
X170089306Y-116787500D01*
X170110723Y-116839205D01*
X170141816Y-116885739D01*
X170156595Y-116913388D01*
X170176485Y-116937624D01*
X170207576Y-116984155D01*
X170247143Y-117023722D01*
X170267037Y-117047963D01*
X170291278Y-117067857D01*
X170330845Y-117107424D01*
X170377376Y-117138515D01*
X170401612Y-117158405D01*
X170429261Y-117173184D01*
X170475795Y-117204277D01*
X170527500Y-117225694D01*
X170555148Y-117240472D01*
X170585149Y-117249573D01*
X170636855Y-117270990D01*
X170691746Y-117281908D01*
X170721743Y-117291008D01*
X170752939Y-117294081D01*
X170807835Y-117305000D01*
X170863806Y-117305000D01*
X170894997Y-117308072D01*
X171653818Y-117308072D01*
X171647725Y-117311329D01*
X171517885Y-117417885D01*
X171411329Y-117547725D01*
X171332150Y-117695858D01*
X171283392Y-117856592D01*
X171266928Y-118023750D01*
X171266928Y-118152204D01*
X170304132Y-119115001D01*
X170163004Y-119115001D01*
X170121996Y-119110962D01*
X170080988Y-119115001D01*
X170080978Y-119115001D01*
X169958308Y-119127083D01*
X169800910Y-119174829D01*
X169655851Y-119252365D01*
X169528706Y-119356710D01*
X169502556Y-119388574D01*
X169403722Y-119487408D01*
X169394443Y-119465008D01*
X169259287Y-119262733D01*
X169233381Y-119236827D01*
X169361421Y-119108786D01*
X169393290Y-119082632D01*
X169497635Y-118955487D01*
X169575171Y-118810428D01*
X169622917Y-118653030D01*
X169634999Y-118530360D01*
X169634999Y-118530350D01*
X169639038Y-118489342D01*
X169634999Y-118448334D01*
X169634999Y-118145868D01*
X169711421Y-118069446D01*
X169743291Y-118043291D01*
X169847636Y-117916146D01*
X169925172Y-117771087D01*
X169972918Y-117613689D01*
X169985000Y-117491019D01*
X169989040Y-117450001D01*
X169985000Y-117408982D01*
X169985000Y-112811554D01*
X170109287Y-112687267D01*
X170244443Y-112484992D01*
X170337540Y-112260236D01*
X170385000Y-112021637D01*
X170385000Y-111778363D01*
X170338717Y-111545682D01*
X170413750Y-111553072D01*
X170851250Y-111553072D01*
X171018408Y-111536608D01*
X171179142Y-111487850D01*
X171327275Y-111408671D01*
X171348930Y-111390900D01*
X171352310Y-111393673D01*
G37*
G04 #@! TD.AperFunction*
D34*
X143891089Y-108215654D02*
X144075099Y-108325439D01*
X144189033Y-108377063D01*
X144310850Y-108405466D01*
X144435867Y-108409558D01*
X144559280Y-108389183D01*
X144676346Y-108345122D01*
X144782568Y-108279070D01*
X144808634Y-108254656D01*
X144808634Y-108902615D01*
X144804594Y-108943634D01*
X144808634Y-108984652D01*
X144820716Y-109107322D01*
X144868462Y-109264720D01*
X144945998Y-109409779D01*
X145050343Y-109536925D01*
X145082213Y-109563080D01*
X147424142Y-111905010D01*
X146453875Y-111905010D01*
X146397443Y-111848578D01*
X146371289Y-111816709D01*
X146244144Y-111712364D01*
X146099085Y-111634828D01*
X145941687Y-111587082D01*
X145819017Y-111575000D01*
X145819016Y-111575000D01*
X145777998Y-111570960D01*
X145736980Y-111575000D01*
X144351554Y-111575000D01*
X144227267Y-111450713D01*
X144024992Y-111315557D01*
X143800236Y-111222460D01*
X143561637Y-111175000D01*
X143318363Y-111175000D01*
X143135114Y-111211450D01*
X143148345Y-111182249D01*
X143176748Y-111060432D01*
X143180840Y-110935415D01*
X143160465Y-110812002D01*
X143134757Y-110743699D01*
X143135410Y-108845154D01*
X143437810Y-108542754D01*
X143469669Y-108516608D01*
X143557523Y-108409558D01*
X143574014Y-108389463D01*
X143651550Y-108244404D01*
X143676673Y-108161584D01*
X143694671Y-108102252D01*
X143753609Y-108136280D01*
X143832983Y-107998800D01*
X143891089Y-108215654D01*
G04 #@! TA.AperFunction,Conductor*
D35*
G36*
X143891089Y-108215654D02*
G01*
X144075099Y-108325439D01*
X144189033Y-108377063D01*
X144310850Y-108405466D01*
X144435867Y-108409558D01*
X144559280Y-108389183D01*
X144676346Y-108345122D01*
X144782568Y-108279070D01*
X144808634Y-108254656D01*
X144808634Y-108902615D01*
X144804594Y-108943634D01*
X144808634Y-108984652D01*
X144820716Y-109107322D01*
X144868462Y-109264720D01*
X144945998Y-109409779D01*
X145050343Y-109536925D01*
X145082213Y-109563080D01*
X147424142Y-111905010D01*
X146453875Y-111905010D01*
X146397443Y-111848578D01*
X146371289Y-111816709D01*
X146244144Y-111712364D01*
X146099085Y-111634828D01*
X145941687Y-111587082D01*
X145819017Y-111575000D01*
X145819016Y-111575000D01*
X145777998Y-111570960D01*
X145736980Y-111575000D01*
X144351554Y-111575000D01*
X144227267Y-111450713D01*
X144024992Y-111315557D01*
X143800236Y-111222460D01*
X143561637Y-111175000D01*
X143318363Y-111175000D01*
X143135114Y-111211450D01*
X143148345Y-111182249D01*
X143176748Y-111060432D01*
X143180840Y-110935415D01*
X143160465Y-110812002D01*
X143134757Y-110743699D01*
X143135410Y-108845154D01*
X143437810Y-108542754D01*
X143469669Y-108516608D01*
X143557523Y-108409558D01*
X143574014Y-108389463D01*
X143651550Y-108244404D01*
X143676673Y-108161584D01*
X143694671Y-108102252D01*
X143753609Y-108136280D01*
X143832983Y-107998800D01*
X143891089Y-108215654D01*
G37*
G04 #@! TD.AperFunction*
D34*
X148059000Y-103339447D02*
X148055203Y-103378000D01*
X148059000Y-103416553D01*
X148059000Y-103416560D01*
X148070359Y-103531886D01*
X148115246Y-103679859D01*
X148188138Y-103816232D01*
X148286236Y-103935764D01*
X148316190Y-103960347D01*
X150305659Y-105949817D01*
X150309163Y-105954087D01*
X150194500Y-106068750D01*
X150194500Y-106893000D01*
X150214500Y-106893000D01*
X150214500Y-107147000D01*
X150194500Y-107147000D01*
X150194500Y-107971250D01*
X150353250Y-108130000D01*
X150505000Y-108133072D01*
X150629482Y-108120812D01*
X150749180Y-108084502D01*
X150782189Y-108066858D01*
X150795392Y-108200908D01*
X150844150Y-108361642D01*
X150923329Y-108509775D01*
X150960444Y-108555000D01*
X150168981Y-108555000D01*
X150046311Y-108567082D01*
X149888913Y-108614828D01*
X149743854Y-108692364D01*
X149716272Y-108715000D01*
X149528363Y-108715000D01*
X149289764Y-108762460D01*
X149065008Y-108855557D01*
X148862733Y-108990713D01*
X148690713Y-109162733D01*
X148555557Y-109365008D01*
X148462460Y-109589764D01*
X148415000Y-109828363D01*
X148415000Y-110071637D01*
X148462460Y-110310236D01*
X148555557Y-110534992D01*
X148690713Y-110737267D01*
X148862733Y-110909287D01*
X149065008Y-111044443D01*
X149289764Y-111137540D01*
X149528363Y-111185000D01*
X149771637Y-111185000D01*
X150010236Y-111137540D01*
X150234992Y-111044443D01*
X150437267Y-110909287D01*
X150609287Y-110737267D01*
X150744443Y-110534992D01*
X150837540Y-110310236D01*
X150854494Y-110225000D01*
X151042539Y-110225000D01*
X151159725Y-110321171D01*
X151307858Y-110400350D01*
X151468592Y-110449108D01*
X151635750Y-110465572D01*
X152148250Y-110465572D01*
X152315408Y-110449108D01*
X152462991Y-110404339D01*
X152452460Y-110429764D01*
X152405000Y-110668363D01*
X152405000Y-110911637D01*
X152452460Y-111150236D01*
X152516565Y-111305000D01*
X149185868Y-111305000D01*
X148819438Y-110938570D01*
X146478634Y-108597767D01*
X146478634Y-108083859D01*
X146586592Y-108116608D01*
X146753750Y-108133072D01*
X147266250Y-108133072D01*
X147433408Y-108116608D01*
X147594142Y-108067850D01*
X147742275Y-107988671D01*
X147770000Y-107965918D01*
X147797725Y-107988671D01*
X147945858Y-108067850D01*
X148106592Y-108116608D01*
X148273750Y-108133072D01*
X148711250Y-108133072D01*
X148878408Y-108116608D01*
X149039142Y-108067850D01*
X149187275Y-107988671D01*
X149208930Y-107970900D01*
X149275506Y-108025537D01*
X149385820Y-108084502D01*
X149505518Y-108120812D01*
X149630000Y-108133072D01*
X149781750Y-108130000D01*
X149940500Y-107971250D01*
X149940500Y-107147000D01*
X149920500Y-107147000D01*
X149920500Y-106893000D01*
X149940500Y-106893000D01*
X149940500Y-106068750D01*
X149781750Y-105910000D01*
X149630000Y-105906928D01*
X149505518Y-105919188D01*
X149385820Y-105955498D01*
X149275506Y-106014463D01*
X149208930Y-106069100D01*
X149187275Y-106051329D01*
X149039142Y-105972150D01*
X148878408Y-105923392D01*
X148711250Y-105906928D01*
X148273750Y-105906928D01*
X148106592Y-105923392D01*
X148088240Y-105928959D01*
X148106608Y-105868408D01*
X148123072Y-105701250D01*
X148123072Y-105263750D01*
X148106608Y-105096592D01*
X148057850Y-104935858D01*
X147978671Y-104787725D01*
X147872115Y-104657885D01*
X147742275Y-104551329D01*
X147594142Y-104472150D01*
X147433408Y-104423392D01*
X147266250Y-104406928D01*
X146753750Y-104406928D01*
X146586592Y-104423392D01*
X146425858Y-104472150D01*
X146277725Y-104551329D01*
X146160539Y-104647500D01*
X146075173Y-104647500D01*
X145964721Y-104588462D01*
X145807323Y-104540716D01*
X145643634Y-104524594D01*
X145602616Y-104528634D01*
X143593500Y-104528634D01*
X143619421Y-104481595D01*
X143648892Y-104388726D01*
X144363065Y-101023451D01*
X144465844Y-101271581D01*
X144678765Y-101590239D01*
X144949761Y-101861235D01*
X145268419Y-102074156D01*
X145622493Y-102220818D01*
X145998376Y-102295586D01*
X146381624Y-102295586D01*
X146757507Y-102220818D01*
X147111581Y-102074156D01*
X147430239Y-101861235D01*
X147701235Y-101590239D01*
X147914156Y-101271581D01*
X148059001Y-100921894D01*
X148059000Y-103339447D01*
G04 #@! TA.AperFunction,Conductor*
D35*
G36*
X148059000Y-103339447D02*
G01*
X148055203Y-103378000D01*
X148059000Y-103416553D01*
X148059000Y-103416560D01*
X148070359Y-103531886D01*
X148115246Y-103679859D01*
X148188138Y-103816232D01*
X148286236Y-103935764D01*
X148316190Y-103960347D01*
X150305659Y-105949817D01*
X150309163Y-105954087D01*
X150194500Y-106068750D01*
X150194500Y-106893000D01*
X150214500Y-106893000D01*
X150214500Y-107147000D01*
X150194500Y-107147000D01*
X150194500Y-107971250D01*
X150353250Y-108130000D01*
X150505000Y-108133072D01*
X150629482Y-108120812D01*
X150749180Y-108084502D01*
X150782189Y-108066858D01*
X150795392Y-108200908D01*
X150844150Y-108361642D01*
X150923329Y-108509775D01*
X150960444Y-108555000D01*
X150168981Y-108555000D01*
X150046311Y-108567082D01*
X149888913Y-108614828D01*
X149743854Y-108692364D01*
X149716272Y-108715000D01*
X149528363Y-108715000D01*
X149289764Y-108762460D01*
X149065008Y-108855557D01*
X148862733Y-108990713D01*
X148690713Y-109162733D01*
X148555557Y-109365008D01*
X148462460Y-109589764D01*
X148415000Y-109828363D01*
X148415000Y-110071637D01*
X148462460Y-110310236D01*
X148555557Y-110534992D01*
X148690713Y-110737267D01*
X148862733Y-110909287D01*
X149065008Y-111044443D01*
X149289764Y-111137540D01*
X149528363Y-111185000D01*
X149771637Y-111185000D01*
X150010236Y-111137540D01*
X150234992Y-111044443D01*
X150437267Y-110909287D01*
X150609287Y-110737267D01*
X150744443Y-110534992D01*
X150837540Y-110310236D01*
X150854494Y-110225000D01*
X151042539Y-110225000D01*
X151159725Y-110321171D01*
X151307858Y-110400350D01*
X151468592Y-110449108D01*
X151635750Y-110465572D01*
X152148250Y-110465572D01*
X152315408Y-110449108D01*
X152462991Y-110404339D01*
X152452460Y-110429764D01*
X152405000Y-110668363D01*
X152405000Y-110911637D01*
X152452460Y-111150236D01*
X152516565Y-111305000D01*
X149185868Y-111305000D01*
X148819438Y-110938570D01*
X146478634Y-108597767D01*
X146478634Y-108083859D01*
X146586592Y-108116608D01*
X146753750Y-108133072D01*
X147266250Y-108133072D01*
X147433408Y-108116608D01*
X147594142Y-108067850D01*
X147742275Y-107988671D01*
X147770000Y-107965918D01*
X147797725Y-107988671D01*
X147945858Y-108067850D01*
X148106592Y-108116608D01*
X148273750Y-108133072D01*
X148711250Y-108133072D01*
X148878408Y-108116608D01*
X149039142Y-108067850D01*
X149187275Y-107988671D01*
X149208930Y-107970900D01*
X149275506Y-108025537D01*
X149385820Y-108084502D01*
X149505518Y-108120812D01*
X149630000Y-108133072D01*
X149781750Y-108130000D01*
X149940500Y-107971250D01*
X149940500Y-107147000D01*
X149920500Y-107147000D01*
X149920500Y-106893000D01*
X149940500Y-106893000D01*
X149940500Y-106068750D01*
X149781750Y-105910000D01*
X149630000Y-105906928D01*
X149505518Y-105919188D01*
X149385820Y-105955498D01*
X149275506Y-106014463D01*
X149208930Y-106069100D01*
X149187275Y-106051329D01*
X149039142Y-105972150D01*
X148878408Y-105923392D01*
X148711250Y-105906928D01*
X148273750Y-105906928D01*
X148106592Y-105923392D01*
X148088240Y-105928959D01*
X148106608Y-105868408D01*
X148123072Y-105701250D01*
X148123072Y-105263750D01*
X148106608Y-105096592D01*
X148057850Y-104935858D01*
X147978671Y-104787725D01*
X147872115Y-104657885D01*
X147742275Y-104551329D01*
X147594142Y-104472150D01*
X147433408Y-104423392D01*
X147266250Y-104406928D01*
X146753750Y-104406928D01*
X146586592Y-104423392D01*
X146425858Y-104472150D01*
X146277725Y-104551329D01*
X146160539Y-104647500D01*
X146075173Y-104647500D01*
X145964721Y-104588462D01*
X145807323Y-104540716D01*
X145643634Y-104524594D01*
X145602616Y-104528634D01*
X143593500Y-104528634D01*
X143619421Y-104481595D01*
X143648892Y-104388726D01*
X144363065Y-101023451D01*
X144465844Y-101271581D01*
X144678765Y-101590239D01*
X144949761Y-101861235D01*
X145268419Y-102074156D01*
X145622493Y-102220818D01*
X145998376Y-102295586D01*
X146381624Y-102295586D01*
X146757507Y-102220818D01*
X147111581Y-102074156D01*
X147430239Y-101861235D01*
X147701235Y-101590239D01*
X147914156Y-101271581D01*
X148059001Y-100921894D01*
X148059000Y-103339447D01*
G37*
G04 #@! TD.AperFunction*
D34*
X172230011Y-110515970D02*
X172158981Y-110587000D01*
X172080500Y-110587000D01*
X172080500Y-110567000D01*
X172060500Y-110567000D01*
X172060500Y-110313000D01*
X172080500Y-110313000D01*
X172080500Y-109521250D01*
X172100500Y-109501250D01*
X172100500Y-108677000D01*
X172080500Y-108677000D01*
X172080500Y-108423000D01*
X172100500Y-108423000D01*
X172100500Y-108403000D01*
X172230010Y-108403000D01*
X172230011Y-110515970D01*
G04 #@! TA.AperFunction,Conductor*
D35*
G36*
X172230011Y-110515970D02*
G01*
X172158981Y-110587000D01*
X172080500Y-110587000D01*
X172080500Y-110567000D01*
X172060500Y-110567000D01*
X172060500Y-110313000D01*
X172080500Y-110313000D01*
X172080500Y-109521250D01*
X172100500Y-109501250D01*
X172100500Y-108677000D01*
X172080500Y-108677000D01*
X172080500Y-108423000D01*
X172100500Y-108423000D01*
X172100500Y-108403000D01*
X172230010Y-108403000D01*
X172230011Y-110515970D01*
G37*
G04 #@! TD.AperFunction*
D34*
X151358733Y-102559287D02*
X151561008Y-102694443D01*
X151785764Y-102787540D01*
X152024363Y-102835000D01*
X152267637Y-102835000D01*
X152305470Y-102827475D01*
X152422311Y-102862918D01*
X152586000Y-102879040D01*
X152627018Y-102875000D01*
X153226928Y-102875000D01*
X153226928Y-103115001D01*
X153243992Y-103288255D01*
X153294528Y-103454851D01*
X153376595Y-103608387D01*
X153487038Y-103742962D01*
X153621613Y-103853405D01*
X153705001Y-103897977D01*
X153705001Y-103990971D01*
X153705000Y-103990981D01*
X153705000Y-104659982D01*
X153700960Y-104701000D01*
X153712625Y-104819438D01*
X153717082Y-104864688D01*
X153764828Y-105022086D01*
X153842364Y-105167145D01*
X153946709Y-105294291D01*
X153978578Y-105320445D01*
X154367063Y-105708931D01*
X154351392Y-105760592D01*
X154334928Y-105927750D01*
X154334928Y-106365250D01*
X154351392Y-106532408D01*
X154400150Y-106693142D01*
X154479329Y-106841275D01*
X154497100Y-106862930D01*
X154442463Y-106929506D01*
X154383498Y-107039820D01*
X154347188Y-107159518D01*
X154334928Y-107284000D01*
X154338000Y-107435750D01*
X154496750Y-107594500D01*
X155321000Y-107594500D01*
X155321000Y-107574500D01*
X155575000Y-107574500D01*
X155575000Y-107594500D01*
X156399250Y-107594500D01*
X156558000Y-107435750D01*
X156561072Y-107284000D01*
X156548812Y-107159518D01*
X156512502Y-107039820D01*
X156483154Y-106984915D01*
X156489500Y-106985540D01*
X156530518Y-106981500D01*
X156530519Y-106981500D01*
X156653189Y-106969418D01*
X156810587Y-106921672D01*
X156955646Y-106844136D01*
X157082791Y-106739791D01*
X157108945Y-106707922D01*
X157151867Y-106665000D01*
X157400482Y-106665000D01*
X157425506Y-106685537D01*
X157535820Y-106744502D01*
X157652841Y-106780000D01*
X157535820Y-106815498D01*
X157425506Y-106874463D01*
X157385859Y-106907000D01*
X157303750Y-106907000D01*
X157145000Y-107065750D01*
X157141928Y-107105000D01*
X157154188Y-107229482D01*
X157161929Y-107255000D01*
X157154188Y-107280518D01*
X157141928Y-107405000D01*
X157141928Y-108055000D01*
X157154188Y-108179482D01*
X157190498Y-108299180D01*
X157249463Y-108409494D01*
X157328815Y-108506185D01*
X157388296Y-108555000D01*
X156419474Y-108555000D01*
X156453537Y-108513494D01*
X156512502Y-108403180D01*
X156548812Y-108283482D01*
X156561072Y-108159000D01*
X156558000Y-108007250D01*
X156399250Y-107848500D01*
X155575000Y-107848500D01*
X155575000Y-107868500D01*
X155321000Y-107868500D01*
X155321000Y-107848500D01*
X154496750Y-107848500D01*
X154338000Y-108007250D01*
X154334928Y-108159000D01*
X154347188Y-108283482D01*
X154383498Y-108403180D01*
X154442463Y-108513494D01*
X154476526Y-108555000D01*
X152823556Y-108555000D01*
X152860671Y-108509775D01*
X152939850Y-108361642D01*
X152988608Y-108200908D01*
X153005072Y-108033750D01*
X153005072Y-107596250D01*
X152988608Y-107429092D01*
X152939850Y-107268358D01*
X152884132Y-107164118D01*
X152933267Y-107131287D01*
X153105287Y-106959267D01*
X153240443Y-106756992D01*
X153333540Y-106532236D01*
X153381000Y-106293637D01*
X153381000Y-106050363D01*
X153333540Y-105811764D01*
X153240443Y-105587008D01*
X153105287Y-105384733D01*
X152933267Y-105212713D01*
X152730992Y-105077557D01*
X152506236Y-104984460D01*
X152267637Y-104937000D01*
X152024363Y-104937000D01*
X152021689Y-104937532D01*
X151978348Y-104894191D01*
X151953765Y-104864237D01*
X151834234Y-104766139D01*
X151697861Y-104693247D01*
X151549888Y-104648360D01*
X151434562Y-104637001D01*
X151434554Y-104637001D01*
X151396001Y-104633204D01*
X151357448Y-104637001D01*
X151213159Y-104637001D01*
X150578150Y-104001992D01*
X150715000Y-104003072D01*
X150839482Y-103990812D01*
X150959180Y-103954502D01*
X151069494Y-103895537D01*
X151166185Y-103816185D01*
X151245537Y-103719494D01*
X151304502Y-103609180D01*
X151340812Y-103489482D01*
X151353072Y-103365000D01*
X151350666Y-102551220D01*
X151358733Y-102559287D01*
G04 #@! TA.AperFunction,Conductor*
D35*
G36*
X151358733Y-102559287D02*
G01*
X151561008Y-102694443D01*
X151785764Y-102787540D01*
X152024363Y-102835000D01*
X152267637Y-102835000D01*
X152305470Y-102827475D01*
X152422311Y-102862918D01*
X152586000Y-102879040D01*
X152627018Y-102875000D01*
X153226928Y-102875000D01*
X153226928Y-103115001D01*
X153243992Y-103288255D01*
X153294528Y-103454851D01*
X153376595Y-103608387D01*
X153487038Y-103742962D01*
X153621613Y-103853405D01*
X153705001Y-103897977D01*
X153705001Y-103990971D01*
X153705000Y-103990981D01*
X153705000Y-104659982D01*
X153700960Y-104701000D01*
X153712625Y-104819438D01*
X153717082Y-104864688D01*
X153764828Y-105022086D01*
X153842364Y-105167145D01*
X153946709Y-105294291D01*
X153978578Y-105320445D01*
X154367063Y-105708931D01*
X154351392Y-105760592D01*
X154334928Y-105927750D01*
X154334928Y-106365250D01*
X154351392Y-106532408D01*
X154400150Y-106693142D01*
X154479329Y-106841275D01*
X154497100Y-106862930D01*
X154442463Y-106929506D01*
X154383498Y-107039820D01*
X154347188Y-107159518D01*
X154334928Y-107284000D01*
X154338000Y-107435750D01*
X154496750Y-107594500D01*
X155321000Y-107594500D01*
X155321000Y-107574500D01*
X155575000Y-107574500D01*
X155575000Y-107594500D01*
X156399250Y-107594500D01*
X156558000Y-107435750D01*
X156561072Y-107284000D01*
X156548812Y-107159518D01*
X156512502Y-107039820D01*
X156483154Y-106984915D01*
X156489500Y-106985540D01*
X156530518Y-106981500D01*
X156530519Y-106981500D01*
X156653189Y-106969418D01*
X156810587Y-106921672D01*
X156955646Y-106844136D01*
X157082791Y-106739791D01*
X157108945Y-106707922D01*
X157151867Y-106665000D01*
X157400482Y-106665000D01*
X157425506Y-106685537D01*
X157535820Y-106744502D01*
X157652841Y-106780000D01*
X157535820Y-106815498D01*
X157425506Y-106874463D01*
X157385859Y-106907000D01*
X157303750Y-106907000D01*
X157145000Y-107065750D01*
X157141928Y-107105000D01*
X157154188Y-107229482D01*
X157161929Y-107255000D01*
X157154188Y-107280518D01*
X157141928Y-107405000D01*
X157141928Y-108055000D01*
X157154188Y-108179482D01*
X157190498Y-108299180D01*
X157249463Y-108409494D01*
X157328815Y-108506185D01*
X157388296Y-108555000D01*
X156419474Y-108555000D01*
X156453537Y-108513494D01*
X156512502Y-108403180D01*
X156548812Y-108283482D01*
X156561072Y-108159000D01*
X156558000Y-108007250D01*
X156399250Y-107848500D01*
X155575000Y-107848500D01*
X155575000Y-107868500D01*
X155321000Y-107868500D01*
X155321000Y-107848500D01*
X154496750Y-107848500D01*
X154338000Y-108007250D01*
X154334928Y-108159000D01*
X154347188Y-108283482D01*
X154383498Y-108403180D01*
X154442463Y-108513494D01*
X154476526Y-108555000D01*
X152823556Y-108555000D01*
X152860671Y-108509775D01*
X152939850Y-108361642D01*
X152988608Y-108200908D01*
X153005072Y-108033750D01*
X153005072Y-107596250D01*
X152988608Y-107429092D01*
X152939850Y-107268358D01*
X152884132Y-107164118D01*
X152933267Y-107131287D01*
X153105287Y-106959267D01*
X153240443Y-106756992D01*
X153333540Y-106532236D01*
X153381000Y-106293637D01*
X153381000Y-106050363D01*
X153333540Y-105811764D01*
X153240443Y-105587008D01*
X153105287Y-105384733D01*
X152933267Y-105212713D01*
X152730992Y-105077557D01*
X152506236Y-104984460D01*
X152267637Y-104937000D01*
X152024363Y-104937000D01*
X152021689Y-104937532D01*
X151978348Y-104894191D01*
X151953765Y-104864237D01*
X151834234Y-104766139D01*
X151697861Y-104693247D01*
X151549888Y-104648360D01*
X151434562Y-104637001D01*
X151434554Y-104637001D01*
X151396001Y-104633204D01*
X151357448Y-104637001D01*
X151213159Y-104637001D01*
X150578150Y-104001992D01*
X150715000Y-104003072D01*
X150839482Y-103990812D01*
X150959180Y-103954502D01*
X151069494Y-103895537D01*
X151166185Y-103816185D01*
X151245537Y-103719494D01*
X151304502Y-103609180D01*
X151340812Y-103489482D01*
X151353072Y-103365000D01*
X151350666Y-102551220D01*
X151358733Y-102559287D01*
G37*
G04 #@! TD.AperFunction*
D34*
X144532107Y-106787877D02*
X144522107Y-106805198D01*
X144539428Y-106815198D01*
X144412428Y-107035168D01*
X144395107Y-107025168D01*
X144385107Y-107042489D01*
X144165137Y-106915489D01*
X144175137Y-106898168D01*
X144157816Y-106888168D01*
X144284816Y-106668198D01*
X144302137Y-106678198D01*
X144312137Y-106660877D01*
X144532107Y-106787877D01*
G04 #@! TA.AperFunction,Conductor*
D35*
G36*
X144532107Y-106787877D02*
G01*
X144522107Y-106805198D01*
X144539428Y-106815198D01*
X144412428Y-107035168D01*
X144395107Y-107025168D01*
X144385107Y-107042489D01*
X144165137Y-106915489D01*
X144175137Y-106898168D01*
X144157816Y-106888168D01*
X144284816Y-106668198D01*
X144302137Y-106678198D01*
X144312137Y-106660877D01*
X144532107Y-106787877D01*
G37*
G04 #@! TD.AperFunction*
D34*
X164676928Y-105795296D02*
X164676928Y-105946250D01*
X164693392Y-106113408D01*
X164693875Y-106115000D01*
X164578363Y-106115000D01*
X164339764Y-106162460D01*
X164115008Y-106255557D01*
X163912733Y-106390713D01*
X163740713Y-106562733D01*
X163605557Y-106765008D01*
X163512460Y-106989764D01*
X163503072Y-107036961D01*
X163503072Y-107018750D01*
X163486608Y-106851592D01*
X163437850Y-106690858D01*
X163358671Y-106542725D01*
X163340900Y-106521070D01*
X163395537Y-106454494D01*
X163454502Y-106344180D01*
X163490812Y-106224482D01*
X163503072Y-106100000D01*
X163500000Y-105948250D01*
X163341250Y-105789500D01*
X162517000Y-105789500D01*
X162517000Y-105809500D01*
X162263000Y-105809500D01*
X162263000Y-105789500D01*
X162243000Y-105789500D01*
X162243000Y-105535500D01*
X162263000Y-105535500D01*
X162263000Y-105515500D01*
X162517000Y-105515500D01*
X162517000Y-105535500D01*
X163341250Y-105535500D01*
X163500000Y-105376750D01*
X163503072Y-105225000D01*
X163503063Y-105224905D01*
X163601267Y-105159287D01*
X163725554Y-105035000D01*
X163916633Y-105035000D01*
X164676928Y-105795296D01*
G04 #@! TA.AperFunction,Conductor*
D35*
G36*
X164676928Y-105795296D02*
G01*
X164676928Y-105946250D01*
X164693392Y-106113408D01*
X164693875Y-106115000D01*
X164578363Y-106115000D01*
X164339764Y-106162460D01*
X164115008Y-106255557D01*
X163912733Y-106390713D01*
X163740713Y-106562733D01*
X163605557Y-106765008D01*
X163512460Y-106989764D01*
X163503072Y-107036961D01*
X163503072Y-107018750D01*
X163486608Y-106851592D01*
X163437850Y-106690858D01*
X163358671Y-106542725D01*
X163340900Y-106521070D01*
X163395537Y-106454494D01*
X163454502Y-106344180D01*
X163490812Y-106224482D01*
X163503072Y-106100000D01*
X163500000Y-105948250D01*
X163341250Y-105789500D01*
X162517000Y-105789500D01*
X162517000Y-105809500D01*
X162263000Y-105809500D01*
X162263000Y-105789500D01*
X162243000Y-105789500D01*
X162243000Y-105535500D01*
X162263000Y-105535500D01*
X162263000Y-105515500D01*
X162517000Y-105515500D01*
X162517000Y-105535500D01*
X163341250Y-105535500D01*
X163500000Y-105376750D01*
X163503072Y-105225000D01*
X163503063Y-105224905D01*
X163601267Y-105159287D01*
X163725554Y-105035000D01*
X163916633Y-105035000D01*
X164676928Y-105795296D01*
G37*
G04 #@! TD.AperFunction*
D34*
X159356710Y-103223291D02*
X159388573Y-103249441D01*
X159970562Y-103831431D01*
X159996709Y-103863291D01*
X160028568Y-103889437D01*
X160028570Y-103889439D01*
X160107850Y-103954502D01*
X160123854Y-103967636D01*
X160268913Y-104045172D01*
X160426311Y-104092918D01*
X160548981Y-104105000D01*
X160548982Y-104105000D01*
X160590000Y-104109040D01*
X160631018Y-104105000D01*
X161054132Y-104105000D01*
X160292205Y-104866928D01*
X159980000Y-104866928D01*
X159855518Y-104879188D01*
X159735820Y-104915498D01*
X159625506Y-104974463D01*
X159536623Y-105047407D01*
X159403689Y-105007082D01*
X159281019Y-104995000D01*
X159281011Y-104995000D01*
X159240000Y-104990961D01*
X159217319Y-104993195D01*
X159194494Y-104974463D01*
X159084180Y-104915498D01*
X158964482Y-104879188D01*
X158840000Y-104866928D01*
X157780000Y-104866928D01*
X157655518Y-104879188D01*
X157535820Y-104915498D01*
X157425506Y-104974463D01*
X157406679Y-104989914D01*
X157413072Y-104925000D01*
X157410000Y-104760750D01*
X157251250Y-104602000D01*
X156427000Y-104602000D01*
X156427000Y-104622000D01*
X156173000Y-104622000D01*
X156173000Y-104602000D01*
X156153000Y-104602000D01*
X156153000Y-104348000D01*
X156173000Y-104348000D01*
X156173000Y-104328000D01*
X156427000Y-104328000D01*
X156427000Y-104348000D01*
X157251250Y-104348000D01*
X157410000Y-104189250D01*
X157413072Y-104025000D01*
X157400812Y-103900518D01*
X157364502Y-103780820D01*
X157353373Y-103760000D01*
X158221482Y-103760000D01*
X158262500Y-103764040D01*
X158303518Y-103760000D01*
X158303519Y-103760000D01*
X158426189Y-103747918D01*
X158583587Y-103700172D01*
X158728646Y-103622636D01*
X158855791Y-103518291D01*
X158881945Y-103486422D01*
X159261315Y-103107052D01*
X159356710Y-103223291D01*
G04 #@! TA.AperFunction,Conductor*
D35*
G36*
X159356710Y-103223291D02*
G01*
X159388573Y-103249441D01*
X159970562Y-103831431D01*
X159996709Y-103863291D01*
X160028568Y-103889437D01*
X160028570Y-103889439D01*
X160107850Y-103954502D01*
X160123854Y-103967636D01*
X160268913Y-104045172D01*
X160426311Y-104092918D01*
X160548981Y-104105000D01*
X160548982Y-104105000D01*
X160590000Y-104109040D01*
X160631018Y-104105000D01*
X161054132Y-104105000D01*
X160292205Y-104866928D01*
X159980000Y-104866928D01*
X159855518Y-104879188D01*
X159735820Y-104915498D01*
X159625506Y-104974463D01*
X159536623Y-105047407D01*
X159403689Y-105007082D01*
X159281019Y-104995000D01*
X159281011Y-104995000D01*
X159240000Y-104990961D01*
X159217319Y-104993195D01*
X159194494Y-104974463D01*
X159084180Y-104915498D01*
X158964482Y-104879188D01*
X158840000Y-104866928D01*
X157780000Y-104866928D01*
X157655518Y-104879188D01*
X157535820Y-104915498D01*
X157425506Y-104974463D01*
X157406679Y-104989914D01*
X157413072Y-104925000D01*
X157410000Y-104760750D01*
X157251250Y-104602000D01*
X156427000Y-104602000D01*
X156427000Y-104622000D01*
X156173000Y-104622000D01*
X156173000Y-104602000D01*
X156153000Y-104602000D01*
X156153000Y-104348000D01*
X156173000Y-104348000D01*
X156173000Y-104328000D01*
X156427000Y-104328000D01*
X156427000Y-104348000D01*
X157251250Y-104348000D01*
X157410000Y-104189250D01*
X157413072Y-104025000D01*
X157400812Y-103900518D01*
X157364502Y-103780820D01*
X157353373Y-103760000D01*
X158221482Y-103760000D01*
X158262500Y-103764040D01*
X158303518Y-103760000D01*
X158303519Y-103760000D01*
X158426189Y-103747918D01*
X158583587Y-103700172D01*
X158728646Y-103622636D01*
X158855791Y-103518291D01*
X158881945Y-103486422D01*
X159261315Y-103107052D01*
X159356710Y-103223291D01*
G37*
G04 #@! TD.AperFunction*
D34*
X155698225Y-98876011D02*
X155645000Y-99143589D01*
X155645000Y-99416411D01*
X155698225Y-99683989D01*
X155802629Y-99936043D01*
X155954201Y-100162886D01*
X156147114Y-100355799D01*
X156237750Y-100416360D01*
X156212629Y-100453957D01*
X156108225Y-100706011D01*
X156055000Y-100973589D01*
X156055000Y-101246411D01*
X156108225Y-101513989D01*
X156212629Y-101766043D01*
X156259993Y-101836928D01*
X156050000Y-101836928D01*
X155881623Y-101853512D01*
X155853072Y-101862173D01*
X155853072Y-100964999D01*
X155836008Y-100791745D01*
X155785472Y-100625149D01*
X155703405Y-100471613D01*
X155592962Y-100337038D01*
X155458387Y-100226595D01*
X155304851Y-100144528D01*
X155138255Y-100093992D01*
X154965001Y-100076928D01*
X154114999Y-100076928D01*
X153941745Y-100093992D01*
X153775149Y-100144528D01*
X153621613Y-100226595D01*
X153487038Y-100337038D01*
X153376595Y-100471613D01*
X153294528Y-100625149D01*
X153243992Y-100791745D01*
X153226928Y-100964999D01*
X153226928Y-100994781D01*
X153105287Y-100812733D01*
X152933267Y-100640713D01*
X152730992Y-100505557D01*
X152506236Y-100412460D01*
X152267637Y-100365000D01*
X152024363Y-100365000D01*
X151785764Y-100412460D01*
X151561008Y-100505557D01*
X151358733Y-100640713D01*
X151346919Y-100652527D01*
X151340812Y-100590518D01*
X151304502Y-100470820D01*
X151245537Y-100360506D01*
X151166185Y-100263815D01*
X151069494Y-100184463D01*
X150959180Y-100125498D01*
X150839482Y-100089188D01*
X150715000Y-100076928D01*
X150325750Y-100080000D01*
X150167000Y-100238750D01*
X150167000Y-101913000D01*
X150187000Y-101913000D01*
X150187000Y-102167000D01*
X150167000Y-102167000D01*
X150167000Y-102187000D01*
X149913000Y-102187000D01*
X149913000Y-102167000D01*
X149893000Y-102167000D01*
X149893000Y-101913000D01*
X149913000Y-101913000D01*
X149913000Y-100304463D01*
X149927754Y-100276860D01*
X149972642Y-100128887D01*
X149987797Y-99975000D01*
X149972642Y-99821113D01*
X149927754Y-99673141D01*
X149854861Y-99536768D01*
X149756764Y-99417236D01*
X149637232Y-99319139D01*
X149500859Y-99246246D01*
X149352887Y-99201358D01*
X149199000Y-99186203D01*
X149045113Y-99201358D01*
X148897140Y-99246246D01*
X148760768Y-99319139D01*
X148671189Y-99392655D01*
X148316186Y-99747657D01*
X148286237Y-99772236D01*
X148261659Y-99802184D01*
X148261655Y-99802188D01*
X148234729Y-99834998D01*
X148188139Y-99891767D01*
X148158655Y-99946928D01*
X148115246Y-100028141D01*
X148111885Y-100039222D01*
X148060818Y-99782493D01*
X147914156Y-99428419D01*
X147701235Y-99109761D01*
X147430239Y-98838765D01*
X147162699Y-98660000D01*
X155787700Y-98660000D01*
X155698225Y-98876011D01*
G04 #@! TA.AperFunction,Conductor*
D35*
G36*
X155698225Y-98876011D02*
G01*
X155645000Y-99143589D01*
X155645000Y-99416411D01*
X155698225Y-99683989D01*
X155802629Y-99936043D01*
X155954201Y-100162886D01*
X156147114Y-100355799D01*
X156237750Y-100416360D01*
X156212629Y-100453957D01*
X156108225Y-100706011D01*
X156055000Y-100973589D01*
X156055000Y-101246411D01*
X156108225Y-101513989D01*
X156212629Y-101766043D01*
X156259993Y-101836928D01*
X156050000Y-101836928D01*
X155881623Y-101853512D01*
X155853072Y-101862173D01*
X155853072Y-100964999D01*
X155836008Y-100791745D01*
X155785472Y-100625149D01*
X155703405Y-100471613D01*
X155592962Y-100337038D01*
X155458387Y-100226595D01*
X155304851Y-100144528D01*
X155138255Y-100093992D01*
X154965001Y-100076928D01*
X154114999Y-100076928D01*
X153941745Y-100093992D01*
X153775149Y-100144528D01*
X153621613Y-100226595D01*
X153487038Y-100337038D01*
X153376595Y-100471613D01*
X153294528Y-100625149D01*
X153243992Y-100791745D01*
X153226928Y-100964999D01*
X153226928Y-100994781D01*
X153105287Y-100812733D01*
X152933267Y-100640713D01*
X152730992Y-100505557D01*
X152506236Y-100412460D01*
X152267637Y-100365000D01*
X152024363Y-100365000D01*
X151785764Y-100412460D01*
X151561008Y-100505557D01*
X151358733Y-100640713D01*
X151346919Y-100652527D01*
X151340812Y-100590518D01*
X151304502Y-100470820D01*
X151245537Y-100360506D01*
X151166185Y-100263815D01*
X151069494Y-100184463D01*
X150959180Y-100125498D01*
X150839482Y-100089188D01*
X150715000Y-100076928D01*
X150325750Y-100080000D01*
X150167000Y-100238750D01*
X150167000Y-101913000D01*
X150187000Y-101913000D01*
X150187000Y-102167000D01*
X150167000Y-102167000D01*
X150167000Y-102187000D01*
X149913000Y-102187000D01*
X149913000Y-102167000D01*
X149893000Y-102167000D01*
X149893000Y-101913000D01*
X149913000Y-101913000D01*
X149913000Y-100304463D01*
X149927754Y-100276860D01*
X149972642Y-100128887D01*
X149987797Y-99975000D01*
X149972642Y-99821113D01*
X149927754Y-99673141D01*
X149854861Y-99536768D01*
X149756764Y-99417236D01*
X149637232Y-99319139D01*
X149500859Y-99246246D01*
X149352887Y-99201358D01*
X149199000Y-99186203D01*
X149045113Y-99201358D01*
X148897140Y-99246246D01*
X148760768Y-99319139D01*
X148671189Y-99392655D01*
X148316186Y-99747657D01*
X148286237Y-99772236D01*
X148261659Y-99802184D01*
X148261655Y-99802188D01*
X148234729Y-99834998D01*
X148188139Y-99891767D01*
X148158655Y-99946928D01*
X148115246Y-100028141D01*
X148111885Y-100039222D01*
X148060818Y-99782493D01*
X147914156Y-99428419D01*
X147701235Y-99109761D01*
X147430239Y-98838765D01*
X147162699Y-98660000D01*
X155787700Y-98660000D01*
X155698225Y-98876011D01*
G37*
G04 #@! TD.AperFunction*
M02*
