G04 #@! TF.GenerationSoftware,KiCad,Pcbnew,5.1.8-1.fc33*
G04 #@! TF.CreationDate,2020-11-26T22:59:40+01:00*
G04 #@! TF.ProjectId,venom,76656e6f-6d2e-46b6-9963-61645f706362,rev?*
G04 #@! TF.SameCoordinates,Original*
G04 #@! TF.FileFunction,Paste,Bot*
G04 #@! TF.FilePolarity,Positive*
%FSLAX46Y46*%
G04 Gerber Fmt 4.6, Leading zero omitted, Abs format (unit mm)*
G04 Created by KiCad (PCBNEW 5.1.8-1.fc33) date 2020-11-26 22:59:40*
%MOMM*%
%LPD*%
G01*
G04 APERTURE LIST*
%ADD10R,0.900000X1.200000*%
G04 APERTURE END LIST*
G36*
G01*
X147825000Y-118336250D02*
X147825000Y-117823750D01*
G75*
G02*
X148043750Y-117605000I218750J0D01*
G01*
X148481250Y-117605000D01*
G75*
G02*
X148700000Y-117823750I0J-218750D01*
G01*
X148700000Y-118336250D01*
G75*
G02*
X148481250Y-118555000I-218750J0D01*
G01*
X148043750Y-118555000D01*
G75*
G02*
X147825000Y-118336250I0J218750D01*
G01*
G37*
G36*
G01*
X149400000Y-118336250D02*
X149400000Y-117823750D01*
G75*
G02*
X149618750Y-117605000I218750J0D01*
G01*
X150056250Y-117605000D01*
G75*
G02*
X150275000Y-117823750I0J-218750D01*
G01*
X150275000Y-118336250D01*
G75*
G02*
X150056250Y-118555000I-218750J0D01*
G01*
X149618750Y-118555000D01*
G75*
G02*
X149400000Y-118336250I0J218750D01*
G01*
G37*
D10*
X146540000Y-123070000D03*
X149840000Y-123070000D03*
X146540000Y-125450000D03*
X149840000Y-125450000D03*
X146550000Y-120560000D03*
X149850000Y-120560000D03*
G36*
G01*
X147743750Y-105670000D02*
X148256250Y-105670000D01*
G75*
G02*
X148475000Y-105888750I0J-218750D01*
G01*
X148475000Y-106326250D01*
G75*
G02*
X148256250Y-106545000I-218750J0D01*
G01*
X147743750Y-106545000D01*
G75*
G02*
X147525000Y-106326250I0J218750D01*
G01*
X147525000Y-105888750D01*
G75*
G02*
X147743750Y-105670000I218750J0D01*
G01*
G37*
G36*
G01*
X147743750Y-104095000D02*
X148256250Y-104095000D01*
G75*
G02*
X148475000Y-104313750I0J-218750D01*
G01*
X148475000Y-104751250D01*
G75*
G02*
X148256250Y-104970000I-218750J0D01*
G01*
X147743750Y-104970000D01*
G75*
G02*
X147525000Y-104751250I0J218750D01*
G01*
X147525000Y-104313750D01*
G75*
G02*
X147743750Y-104095000I218750J0D01*
G01*
G37*
G36*
G01*
X147743750Y-107155000D02*
X148256250Y-107155000D01*
G75*
G02*
X148475000Y-107373750I0J-218750D01*
G01*
X148475000Y-107811250D01*
G75*
G02*
X148256250Y-108030000I-218750J0D01*
G01*
X147743750Y-108030000D01*
G75*
G02*
X147525000Y-107811250I0J218750D01*
G01*
X147525000Y-107373750D01*
G75*
G02*
X147743750Y-107155000I218750J0D01*
G01*
G37*
G36*
G01*
X147743750Y-108730000D02*
X148256250Y-108730000D01*
G75*
G02*
X148475000Y-108948750I0J-218750D01*
G01*
X148475000Y-109386250D01*
G75*
G02*
X148256250Y-109605000I-218750J0D01*
G01*
X147743750Y-109605000D01*
G75*
G02*
X147525000Y-109386250I0J218750D01*
G01*
X147525000Y-108948750D01*
G75*
G02*
X147743750Y-108730000I218750J0D01*
G01*
G37*
G36*
G01*
X175083750Y-108895000D02*
X175596250Y-108895000D01*
G75*
G02*
X175815000Y-109113750I0J-218750D01*
G01*
X175815000Y-109551250D01*
G75*
G02*
X175596250Y-109770000I-218750J0D01*
G01*
X175083750Y-109770000D01*
G75*
G02*
X174865000Y-109551250I0J218750D01*
G01*
X174865000Y-109113750D01*
G75*
G02*
X175083750Y-108895000I218750J0D01*
G01*
G37*
G36*
G01*
X175083750Y-110470000D02*
X175596250Y-110470000D01*
G75*
G02*
X175815000Y-110688750I0J-218750D01*
G01*
X175815000Y-111126250D01*
G75*
G02*
X175596250Y-111345000I-218750J0D01*
G01*
X175083750Y-111345000D01*
G75*
G02*
X174865000Y-111126250I0J218750D01*
G01*
X174865000Y-110688750D01*
G75*
G02*
X175083750Y-110470000I218750J0D01*
G01*
G37*
G36*
G01*
X176603750Y-110470000D02*
X177116250Y-110470000D01*
G75*
G02*
X177335000Y-110688750I0J-218750D01*
G01*
X177335000Y-111126250D01*
G75*
G02*
X177116250Y-111345000I-218750J0D01*
G01*
X176603750Y-111345000D01*
G75*
G02*
X176385000Y-111126250I0J218750D01*
G01*
X176385000Y-110688750D01*
G75*
G02*
X176603750Y-110470000I218750J0D01*
G01*
G37*
G36*
G01*
X176603750Y-108895000D02*
X177116250Y-108895000D01*
G75*
G02*
X177335000Y-109113750I0J-218750D01*
G01*
X177335000Y-109551250D01*
G75*
G02*
X177116250Y-109770000I-218750J0D01*
G01*
X176603750Y-109770000D01*
G75*
G02*
X176385000Y-109551250I0J218750D01*
G01*
X176385000Y-109113750D01*
G75*
G02*
X176603750Y-108895000I218750J0D01*
G01*
G37*
G36*
G01*
X170765000Y-116277500D02*
X170765000Y-115512500D01*
G75*
G02*
X171007500Y-115270000I242500J0D01*
G01*
X171492500Y-115270000D01*
G75*
G02*
X171735000Y-115512500I0J-242500D01*
G01*
X171735000Y-116277500D01*
G75*
G02*
X171492500Y-116520000I-242500J0D01*
G01*
X171007500Y-116520000D01*
G75*
G02*
X170765000Y-116277500I0J242500D01*
G01*
G37*
G36*
G01*
X170765000Y-114727500D02*
X170765000Y-113962500D01*
G75*
G02*
X171007500Y-113720000I242500J0D01*
G01*
X171492500Y-113720000D01*
G75*
G02*
X171735000Y-113962500I0J-242500D01*
G01*
X171735000Y-114727500D01*
G75*
G02*
X171492500Y-114970000I-242500J0D01*
G01*
X171007500Y-114970000D01*
G75*
G02*
X170765000Y-114727500I0J242500D01*
G01*
G37*
G36*
G01*
X171965000Y-116277500D02*
X171965000Y-115512500D01*
G75*
G02*
X172207500Y-115270000I242500J0D01*
G01*
X172692500Y-115270000D01*
G75*
G02*
X172935000Y-115512500I0J-242500D01*
G01*
X172935000Y-116277500D01*
G75*
G02*
X172692500Y-116520000I-242500J0D01*
G01*
X172207500Y-116520000D01*
G75*
G02*
X171965000Y-116277500I0J242500D01*
G01*
G37*
G36*
G01*
X171965000Y-114727500D02*
X171965000Y-113962500D01*
G75*
G02*
X172207500Y-113720000I242500J0D01*
G01*
X172692500Y-113720000D01*
G75*
G02*
X172935000Y-113962500I0J-242500D01*
G01*
X172935000Y-114727500D01*
G75*
G02*
X172692500Y-114970000I-242500J0D01*
G01*
X172207500Y-114970000D01*
G75*
G02*
X171965000Y-114727500I0J242500D01*
G01*
G37*
G36*
G01*
X168400000Y-117175000D02*
X168400000Y-116875000D01*
G75*
G02*
X168550000Y-116725000I150000J0D01*
G01*
X169850000Y-116725000D01*
G75*
G02*
X170000000Y-116875000I0J-150000D01*
G01*
X170000000Y-117175000D01*
G75*
G02*
X169850000Y-117325000I-150000J0D01*
G01*
X168550000Y-117325000D01*
G75*
G02*
X168400000Y-117175000I0J150000D01*
G01*
G37*
G36*
G01*
X168400000Y-115905000D02*
X168400000Y-115605000D01*
G75*
G02*
X168550000Y-115455000I150000J0D01*
G01*
X169850000Y-115455000D01*
G75*
G02*
X170000000Y-115605000I0J-150000D01*
G01*
X170000000Y-115905000D01*
G75*
G02*
X169850000Y-116055000I-150000J0D01*
G01*
X168550000Y-116055000D01*
G75*
G02*
X168400000Y-115905000I0J150000D01*
G01*
G37*
G36*
G01*
X168400000Y-114635000D02*
X168400000Y-114335000D01*
G75*
G02*
X168550000Y-114185000I150000J0D01*
G01*
X169850000Y-114185000D01*
G75*
G02*
X170000000Y-114335000I0J-150000D01*
G01*
X170000000Y-114635000D01*
G75*
G02*
X169850000Y-114785000I-150000J0D01*
G01*
X168550000Y-114785000D01*
G75*
G02*
X168400000Y-114635000I0J150000D01*
G01*
G37*
G36*
G01*
X168400000Y-113365000D02*
X168400000Y-113065000D01*
G75*
G02*
X168550000Y-112915000I150000J0D01*
G01*
X169850000Y-112915000D01*
G75*
G02*
X170000000Y-113065000I0J-150000D01*
G01*
X170000000Y-113365000D01*
G75*
G02*
X169850000Y-113515000I-150000J0D01*
G01*
X168550000Y-113515000D01*
G75*
G02*
X168400000Y-113365000I0J150000D01*
G01*
G37*
G36*
G01*
X173700000Y-113365000D02*
X173700000Y-113065000D01*
G75*
G02*
X173850000Y-112915000I150000J0D01*
G01*
X175150000Y-112915000D01*
G75*
G02*
X175300000Y-113065000I0J-150000D01*
G01*
X175300000Y-113365000D01*
G75*
G02*
X175150000Y-113515000I-150000J0D01*
G01*
X173850000Y-113515000D01*
G75*
G02*
X173700000Y-113365000I0J150000D01*
G01*
G37*
G36*
G01*
X173700000Y-114635000D02*
X173700000Y-114335000D01*
G75*
G02*
X173850000Y-114185000I150000J0D01*
G01*
X175150000Y-114185000D01*
G75*
G02*
X175300000Y-114335000I0J-150000D01*
G01*
X175300000Y-114635000D01*
G75*
G02*
X175150000Y-114785000I-150000J0D01*
G01*
X173850000Y-114785000D01*
G75*
G02*
X173700000Y-114635000I0J150000D01*
G01*
G37*
G36*
G01*
X173700000Y-115905000D02*
X173700000Y-115605000D01*
G75*
G02*
X173850000Y-115455000I150000J0D01*
G01*
X175150000Y-115455000D01*
G75*
G02*
X175300000Y-115605000I0J-150000D01*
G01*
X175300000Y-115905000D01*
G75*
G02*
X175150000Y-116055000I-150000J0D01*
G01*
X173850000Y-116055000D01*
G75*
G02*
X173700000Y-115905000I0J150000D01*
G01*
G37*
G36*
G01*
X173700000Y-117175000D02*
X173700000Y-116875000D01*
G75*
G02*
X173850000Y-116725000I150000J0D01*
G01*
X175150000Y-116725000D01*
G75*
G02*
X175300000Y-116875000I0J-150000D01*
G01*
X175300000Y-117175000D01*
G75*
G02*
X175150000Y-117325000I-150000J0D01*
G01*
X173850000Y-117325000D01*
G75*
G02*
X173700000Y-117175000I0J150000D01*
G01*
G37*
G36*
G01*
X174943750Y-118275000D02*
X175456250Y-118275000D01*
G75*
G02*
X175675000Y-118493750I0J-218750D01*
G01*
X175675000Y-118931250D01*
G75*
G02*
X175456250Y-119150000I-218750J0D01*
G01*
X174943750Y-119150000D01*
G75*
G02*
X174725000Y-118931250I0J218750D01*
G01*
X174725000Y-118493750D01*
G75*
G02*
X174943750Y-118275000I218750J0D01*
G01*
G37*
G36*
G01*
X174943750Y-119850000D02*
X175456250Y-119850000D01*
G75*
G02*
X175675000Y-120068750I0J-218750D01*
G01*
X175675000Y-120506250D01*
G75*
G02*
X175456250Y-120725000I-218750J0D01*
G01*
X174943750Y-120725000D01*
G75*
G02*
X174725000Y-120506250I0J218750D01*
G01*
X174725000Y-120068750D01*
G75*
G02*
X174943750Y-119850000I218750J0D01*
G01*
G37*
G36*
G01*
X174456250Y-106000000D02*
X173943750Y-106000000D01*
G75*
G02*
X173725000Y-105781250I0J218750D01*
G01*
X173725000Y-105343750D01*
G75*
G02*
X173943750Y-105125000I218750J0D01*
G01*
X174456250Y-105125000D01*
G75*
G02*
X174675000Y-105343750I0J-218750D01*
G01*
X174675000Y-105781250D01*
G75*
G02*
X174456250Y-106000000I-218750J0D01*
G01*
G37*
G36*
G01*
X174456250Y-107575000D02*
X173943750Y-107575000D01*
G75*
G02*
X173725000Y-107356250I0J218750D01*
G01*
X173725000Y-106918750D01*
G75*
G02*
X173943750Y-106700000I218750J0D01*
G01*
X174456250Y-106700000D01*
G75*
G02*
X174675000Y-106918750I0J-218750D01*
G01*
X174675000Y-107356250D01*
G75*
G02*
X174456250Y-107575000I-218750J0D01*
G01*
G37*
G36*
G01*
X176256250Y-108225000D02*
X175743750Y-108225000D01*
G75*
G02*
X175525000Y-108006250I0J218750D01*
G01*
X175525000Y-107568750D01*
G75*
G02*
X175743750Y-107350000I218750J0D01*
G01*
X176256250Y-107350000D01*
G75*
G02*
X176475000Y-107568750I0J-218750D01*
G01*
X176475000Y-108006250D01*
G75*
G02*
X176256250Y-108225000I-218750J0D01*
G01*
G37*
G36*
G01*
X176256250Y-106650000D02*
X175743750Y-106650000D01*
G75*
G02*
X175525000Y-106431250I0J218750D01*
G01*
X175525000Y-105993750D01*
G75*
G02*
X175743750Y-105775000I218750J0D01*
G01*
X176256250Y-105775000D01*
G75*
G02*
X176475000Y-105993750I0J-218750D01*
G01*
X176475000Y-106431250D01*
G75*
G02*
X176256250Y-106650000I-218750J0D01*
G01*
G37*
G36*
G01*
X152515000Y-112503750D02*
X152515000Y-113016250D01*
G75*
G02*
X152296250Y-113235000I-218750J0D01*
G01*
X151858750Y-113235000D01*
G75*
G02*
X151640000Y-113016250I0J218750D01*
G01*
X151640000Y-112503750D01*
G75*
G02*
X151858750Y-112285000I218750J0D01*
G01*
X152296250Y-112285000D01*
G75*
G02*
X152515000Y-112503750I0J-218750D01*
G01*
G37*
G36*
G01*
X150940000Y-112503750D02*
X150940000Y-113016250D01*
G75*
G02*
X150721250Y-113235000I-218750J0D01*
G01*
X150283750Y-113235000D01*
G75*
G02*
X150065000Y-113016250I0J218750D01*
G01*
X150065000Y-112503750D01*
G75*
G02*
X150283750Y-112285000I218750J0D01*
G01*
X150721250Y-112285000D01*
G75*
G02*
X150940000Y-112503750I0J-218750D01*
G01*
G37*
M02*
