G04 #@! TF.GenerationSoftware,KiCad,Pcbnew,5.1.8-1.fc33*
G04 #@! TF.CreationDate,2020-12-20T15:22:44+01:00*
G04 #@! TF.ProjectId,venom,76656e6f-6d2e-46b6-9963-61645f706362,rev?*
G04 #@! TF.SameCoordinates,Original*
G04 #@! TF.FileFunction,Soldermask,Bot*
G04 #@! TF.FilePolarity,Negative*
%FSLAX46Y46*%
G04 Gerber Fmt 4.6, Leading zero omitted, Abs format (unit mm)*
G04 Created by KiCad (PCBNEW 5.1.8-1.fc33) date 2020-12-20 15:22:44*
%MOMM*%
%LPD*%
G01*
G04 APERTURE LIST*
%ADD10C,1.102000*%
%ADD11O,1.102000X1.102000*%
%ADD12C,0.100000*%
G04 APERTURE END LIST*
D10*
X167894000Y-109728000D03*
X167894000Y-107828000D03*
G36*
G01*
X147774000Y-118361750D02*
X147774000Y-117798250D01*
G75*
G02*
X148018250Y-117554000I244250J0D01*
G01*
X148506750Y-117554000D01*
G75*
G02*
X148751000Y-117798250I0J-244250D01*
G01*
X148751000Y-118361750D01*
G75*
G02*
X148506750Y-118606000I-244250J0D01*
G01*
X148018250Y-118606000D01*
G75*
G02*
X147774000Y-118361750I0J244250D01*
G01*
G37*
G36*
G01*
X149349000Y-118361750D02*
X149349000Y-117798250D01*
G75*
G02*
X149593250Y-117554000I244250J0D01*
G01*
X150081750Y-117554000D01*
G75*
G02*
X150326000Y-117798250I0J-244250D01*
G01*
X150326000Y-118361750D01*
G75*
G02*
X150081750Y-118606000I-244250J0D01*
G01*
X149593250Y-118606000D01*
G75*
G02*
X149349000Y-118361750I0J244250D01*
G01*
G37*
G36*
G01*
X146039000Y-123670000D02*
X146039000Y-122470000D01*
G75*
G02*
X146090000Y-122419000I51000J0D01*
G01*
X146990000Y-122419000D01*
G75*
G02*
X147041000Y-122470000I0J-51000D01*
G01*
X147041000Y-123670000D01*
G75*
G02*
X146990000Y-123721000I-51000J0D01*
G01*
X146090000Y-123721000D01*
G75*
G02*
X146039000Y-123670000I0J51000D01*
G01*
G37*
G36*
G01*
X149339000Y-123670000D02*
X149339000Y-122470000D01*
G75*
G02*
X149390000Y-122419000I51000J0D01*
G01*
X150290000Y-122419000D01*
G75*
G02*
X150341000Y-122470000I0J-51000D01*
G01*
X150341000Y-123670000D01*
G75*
G02*
X150290000Y-123721000I-51000J0D01*
G01*
X149390000Y-123721000D01*
G75*
G02*
X149339000Y-123670000I0J51000D01*
G01*
G37*
G36*
G01*
X147041000Y-124850000D02*
X147041000Y-126050000D01*
G75*
G02*
X146990000Y-126101000I-51000J0D01*
G01*
X146090000Y-126101000D01*
G75*
G02*
X146039000Y-126050000I0J51000D01*
G01*
X146039000Y-124850000D01*
G75*
G02*
X146090000Y-124799000I51000J0D01*
G01*
X146990000Y-124799000D01*
G75*
G02*
X147041000Y-124850000I0J-51000D01*
G01*
G37*
G36*
G01*
X150341000Y-124850000D02*
X150341000Y-126050000D01*
G75*
G02*
X150290000Y-126101000I-51000J0D01*
G01*
X149390000Y-126101000D01*
G75*
G02*
X149339000Y-126050000I0J51000D01*
G01*
X149339000Y-124850000D01*
G75*
G02*
X149390000Y-124799000I51000J0D01*
G01*
X150290000Y-124799000D01*
G75*
G02*
X150341000Y-124850000I0J-51000D01*
G01*
G37*
G36*
G01*
X146049000Y-121160000D02*
X146049000Y-119960000D01*
G75*
G02*
X146100000Y-119909000I51000J0D01*
G01*
X147000000Y-119909000D01*
G75*
G02*
X147051000Y-119960000I0J-51000D01*
G01*
X147051000Y-121160000D01*
G75*
G02*
X147000000Y-121211000I-51000J0D01*
G01*
X146100000Y-121211000D01*
G75*
G02*
X146049000Y-121160000I0J51000D01*
G01*
G37*
G36*
G01*
X149349000Y-121160000D02*
X149349000Y-119960000D01*
G75*
G02*
X149400000Y-119909000I51000J0D01*
G01*
X150300000Y-119909000D01*
G75*
G02*
X150351000Y-119960000I0J-51000D01*
G01*
X150351000Y-121160000D01*
G75*
G02*
X150300000Y-121211000I-51000J0D01*
G01*
X149400000Y-121211000D01*
G75*
G02*
X149349000Y-121160000I0J51000D01*
G01*
G37*
G36*
G01*
X147718250Y-105619000D02*
X148281750Y-105619000D01*
G75*
G02*
X148526000Y-105863250I0J-244250D01*
G01*
X148526000Y-106351750D01*
G75*
G02*
X148281750Y-106596000I-244250J0D01*
G01*
X147718250Y-106596000D01*
G75*
G02*
X147474000Y-106351750I0J244250D01*
G01*
X147474000Y-105863250D01*
G75*
G02*
X147718250Y-105619000I244250J0D01*
G01*
G37*
G36*
G01*
X147718250Y-104044000D02*
X148281750Y-104044000D01*
G75*
G02*
X148526000Y-104288250I0J-244250D01*
G01*
X148526000Y-104776750D01*
G75*
G02*
X148281750Y-105021000I-244250J0D01*
G01*
X147718250Y-105021000D01*
G75*
G02*
X147474000Y-104776750I0J244250D01*
G01*
X147474000Y-104288250D01*
G75*
G02*
X147718250Y-104044000I244250J0D01*
G01*
G37*
G36*
G01*
X147718250Y-107104000D02*
X148281750Y-107104000D01*
G75*
G02*
X148526000Y-107348250I0J-244250D01*
G01*
X148526000Y-107836750D01*
G75*
G02*
X148281750Y-108081000I-244250J0D01*
G01*
X147718250Y-108081000D01*
G75*
G02*
X147474000Y-107836750I0J244250D01*
G01*
X147474000Y-107348250D01*
G75*
G02*
X147718250Y-107104000I244250J0D01*
G01*
G37*
G36*
G01*
X147718250Y-108679000D02*
X148281750Y-108679000D01*
G75*
G02*
X148526000Y-108923250I0J-244250D01*
G01*
X148526000Y-109411750D01*
G75*
G02*
X148281750Y-109656000I-244250J0D01*
G01*
X147718250Y-109656000D01*
G75*
G02*
X147474000Y-109411750I0J244250D01*
G01*
X147474000Y-108923250D01*
G75*
G02*
X147718250Y-108679000I244250J0D01*
G01*
G37*
G36*
G01*
X175058250Y-108844000D02*
X175621750Y-108844000D01*
G75*
G02*
X175866000Y-109088250I0J-244250D01*
G01*
X175866000Y-109576750D01*
G75*
G02*
X175621750Y-109821000I-244250J0D01*
G01*
X175058250Y-109821000D01*
G75*
G02*
X174814000Y-109576750I0J244250D01*
G01*
X174814000Y-109088250D01*
G75*
G02*
X175058250Y-108844000I244250J0D01*
G01*
G37*
G36*
G01*
X175058250Y-110419000D02*
X175621750Y-110419000D01*
G75*
G02*
X175866000Y-110663250I0J-244250D01*
G01*
X175866000Y-111151750D01*
G75*
G02*
X175621750Y-111396000I-244250J0D01*
G01*
X175058250Y-111396000D01*
G75*
G02*
X174814000Y-111151750I0J244250D01*
G01*
X174814000Y-110663250D01*
G75*
G02*
X175058250Y-110419000I244250J0D01*
G01*
G37*
G36*
G01*
X176578250Y-110419000D02*
X177141750Y-110419000D01*
G75*
G02*
X177386000Y-110663250I0J-244250D01*
G01*
X177386000Y-111151750D01*
G75*
G02*
X177141750Y-111396000I-244250J0D01*
G01*
X176578250Y-111396000D01*
G75*
G02*
X176334000Y-111151750I0J244250D01*
G01*
X176334000Y-110663250D01*
G75*
G02*
X176578250Y-110419000I244250J0D01*
G01*
G37*
G36*
G01*
X176578250Y-108844000D02*
X177141750Y-108844000D01*
G75*
G02*
X177386000Y-109088250I0J-244250D01*
G01*
X177386000Y-109576750D01*
G75*
G02*
X177141750Y-109821000I-244250J0D01*
G01*
X176578250Y-109821000D01*
G75*
G02*
X176334000Y-109576750I0J244250D01*
G01*
X176334000Y-109088250D01*
G75*
G02*
X176578250Y-108844000I244250J0D01*
G01*
G37*
G36*
G01*
X170594000Y-116460423D02*
X170594000Y-113779577D01*
G75*
G02*
X170854577Y-113519000I260577J0D01*
G01*
X172845423Y-113519000D01*
G75*
G02*
X173106000Y-113779577I0J-260577D01*
G01*
X173106000Y-116460423D01*
G75*
G02*
X172845423Y-116721000I-260577J0D01*
G01*
X170854577Y-116721000D01*
G75*
G02*
X170594000Y-116460423I0J260577D01*
G01*
G37*
G36*
G01*
X168349000Y-117200500D02*
X168349000Y-116849500D01*
G75*
G02*
X168524500Y-116674000I175500J0D01*
G01*
X169875500Y-116674000D01*
G75*
G02*
X170051000Y-116849500I0J-175500D01*
G01*
X170051000Y-117200500D01*
G75*
G02*
X169875500Y-117376000I-175500J0D01*
G01*
X168524500Y-117376000D01*
G75*
G02*
X168349000Y-117200500I0J175500D01*
G01*
G37*
G36*
G01*
X168349000Y-115930500D02*
X168349000Y-115579500D01*
G75*
G02*
X168524500Y-115404000I175500J0D01*
G01*
X169875500Y-115404000D01*
G75*
G02*
X170051000Y-115579500I0J-175500D01*
G01*
X170051000Y-115930500D01*
G75*
G02*
X169875500Y-116106000I-175500J0D01*
G01*
X168524500Y-116106000D01*
G75*
G02*
X168349000Y-115930500I0J175500D01*
G01*
G37*
G36*
G01*
X168349000Y-114660500D02*
X168349000Y-114309500D01*
G75*
G02*
X168524500Y-114134000I175500J0D01*
G01*
X169875500Y-114134000D01*
G75*
G02*
X170051000Y-114309500I0J-175500D01*
G01*
X170051000Y-114660500D01*
G75*
G02*
X169875500Y-114836000I-175500J0D01*
G01*
X168524500Y-114836000D01*
G75*
G02*
X168349000Y-114660500I0J175500D01*
G01*
G37*
G36*
G01*
X168349000Y-113390500D02*
X168349000Y-113039500D01*
G75*
G02*
X168524500Y-112864000I175500J0D01*
G01*
X169875500Y-112864000D01*
G75*
G02*
X170051000Y-113039500I0J-175500D01*
G01*
X170051000Y-113390500D01*
G75*
G02*
X169875500Y-113566000I-175500J0D01*
G01*
X168524500Y-113566000D01*
G75*
G02*
X168349000Y-113390500I0J175500D01*
G01*
G37*
G36*
G01*
X173649000Y-113390500D02*
X173649000Y-113039500D01*
G75*
G02*
X173824500Y-112864000I175500J0D01*
G01*
X175175500Y-112864000D01*
G75*
G02*
X175351000Y-113039500I0J-175500D01*
G01*
X175351000Y-113390500D01*
G75*
G02*
X175175500Y-113566000I-175500J0D01*
G01*
X173824500Y-113566000D01*
G75*
G02*
X173649000Y-113390500I0J175500D01*
G01*
G37*
G36*
G01*
X173649000Y-114660500D02*
X173649000Y-114309500D01*
G75*
G02*
X173824500Y-114134000I175500J0D01*
G01*
X175175500Y-114134000D01*
G75*
G02*
X175351000Y-114309500I0J-175500D01*
G01*
X175351000Y-114660500D01*
G75*
G02*
X175175500Y-114836000I-175500J0D01*
G01*
X173824500Y-114836000D01*
G75*
G02*
X173649000Y-114660500I0J175500D01*
G01*
G37*
G36*
G01*
X173649000Y-115930500D02*
X173649000Y-115579500D01*
G75*
G02*
X173824500Y-115404000I175500J0D01*
G01*
X175175500Y-115404000D01*
G75*
G02*
X175351000Y-115579500I0J-175500D01*
G01*
X175351000Y-115930500D01*
G75*
G02*
X175175500Y-116106000I-175500J0D01*
G01*
X173824500Y-116106000D01*
G75*
G02*
X173649000Y-115930500I0J175500D01*
G01*
G37*
G36*
G01*
X173649000Y-117200500D02*
X173649000Y-116849500D01*
G75*
G02*
X173824500Y-116674000I175500J0D01*
G01*
X175175500Y-116674000D01*
G75*
G02*
X175351000Y-116849500I0J-175500D01*
G01*
X175351000Y-117200500D01*
G75*
G02*
X175175500Y-117376000I-175500J0D01*
G01*
X173824500Y-117376000D01*
G75*
G02*
X173649000Y-117200500I0J175500D01*
G01*
G37*
G36*
G01*
X174918250Y-118224000D02*
X175481750Y-118224000D01*
G75*
G02*
X175726000Y-118468250I0J-244250D01*
G01*
X175726000Y-118956750D01*
G75*
G02*
X175481750Y-119201000I-244250J0D01*
G01*
X174918250Y-119201000D01*
G75*
G02*
X174674000Y-118956750I0J244250D01*
G01*
X174674000Y-118468250D01*
G75*
G02*
X174918250Y-118224000I244250J0D01*
G01*
G37*
G36*
G01*
X174918250Y-119799000D02*
X175481750Y-119799000D01*
G75*
G02*
X175726000Y-120043250I0J-244250D01*
G01*
X175726000Y-120531750D01*
G75*
G02*
X175481750Y-120776000I-244250J0D01*
G01*
X174918250Y-120776000D01*
G75*
G02*
X174674000Y-120531750I0J244250D01*
G01*
X174674000Y-120043250D01*
G75*
G02*
X174918250Y-119799000I244250J0D01*
G01*
G37*
G36*
G01*
X174481750Y-106051000D02*
X173918250Y-106051000D01*
G75*
G02*
X173674000Y-105806750I0J244250D01*
G01*
X173674000Y-105318250D01*
G75*
G02*
X173918250Y-105074000I244250J0D01*
G01*
X174481750Y-105074000D01*
G75*
G02*
X174726000Y-105318250I0J-244250D01*
G01*
X174726000Y-105806750D01*
G75*
G02*
X174481750Y-106051000I-244250J0D01*
G01*
G37*
G36*
G01*
X174481750Y-107626000D02*
X173918250Y-107626000D01*
G75*
G02*
X173674000Y-107381750I0J244250D01*
G01*
X173674000Y-106893250D01*
G75*
G02*
X173918250Y-106649000I244250J0D01*
G01*
X174481750Y-106649000D01*
G75*
G02*
X174726000Y-106893250I0J-244250D01*
G01*
X174726000Y-107381750D01*
G75*
G02*
X174481750Y-107626000I-244250J0D01*
G01*
G37*
G36*
G01*
X176281750Y-108276000D02*
X175718250Y-108276000D01*
G75*
G02*
X175474000Y-108031750I0J244250D01*
G01*
X175474000Y-107543250D01*
G75*
G02*
X175718250Y-107299000I244250J0D01*
G01*
X176281750Y-107299000D01*
G75*
G02*
X176526000Y-107543250I0J-244250D01*
G01*
X176526000Y-108031750D01*
G75*
G02*
X176281750Y-108276000I-244250J0D01*
G01*
G37*
G36*
G01*
X176281750Y-106701000D02*
X175718250Y-106701000D01*
G75*
G02*
X175474000Y-106456750I0J244250D01*
G01*
X175474000Y-105968250D01*
G75*
G02*
X175718250Y-105724000I244250J0D01*
G01*
X176281750Y-105724000D01*
G75*
G02*
X176526000Y-105968250I0J-244250D01*
G01*
X176526000Y-106456750D01*
G75*
G02*
X176281750Y-106701000I-244250J0D01*
G01*
G37*
G36*
G01*
X152566000Y-112478250D02*
X152566000Y-113041750D01*
G75*
G02*
X152321750Y-113286000I-244250J0D01*
G01*
X151833250Y-113286000D01*
G75*
G02*
X151589000Y-113041750I0J244250D01*
G01*
X151589000Y-112478250D01*
G75*
G02*
X151833250Y-112234000I244250J0D01*
G01*
X152321750Y-112234000D01*
G75*
G02*
X152566000Y-112478250I0J-244250D01*
G01*
G37*
G36*
G01*
X150991000Y-112478250D02*
X150991000Y-113041750D01*
G75*
G02*
X150746750Y-113286000I-244250J0D01*
G01*
X150258250Y-113286000D01*
G75*
G02*
X150014000Y-113041750I0J244250D01*
G01*
X150014000Y-112478250D01*
G75*
G02*
X150258250Y-112234000I244250J0D01*
G01*
X150746750Y-112234000D01*
G75*
G02*
X150991000Y-112478250I0J-244250D01*
G01*
G37*
G36*
G01*
X146461660Y-133093080D02*
X146461660Y-132093080D01*
G75*
G02*
X146512660Y-132042080I51000J0D01*
G01*
X147512660Y-132042080D01*
G75*
G02*
X147563660Y-132093080I0J-51000D01*
G01*
X147563660Y-133093080D01*
G75*
G02*
X147512660Y-133144080I-51000J0D01*
G01*
X146512660Y-133144080D01*
G75*
G02*
X146461660Y-133093080I0J51000D01*
G01*
G37*
D11*
X147012660Y-133863080D03*
X147012660Y-135133080D03*
X147012660Y-136403080D03*
X147012660Y-137673080D03*
G36*
G01*
X162434620Y-114514540D02*
X162434620Y-113963540D01*
G75*
G02*
X162685120Y-113713040I250500J0D01*
G01*
X163186120Y-113713040D01*
G75*
G02*
X163436620Y-113963540I0J-250500D01*
G01*
X163436620Y-114514540D01*
G75*
G02*
X163186120Y-114765040I-250500J0D01*
G01*
X162685120Y-114765040D01*
G75*
G02*
X162434620Y-114514540I0J250500D01*
G01*
G37*
G36*
G01*
X163984620Y-114514540D02*
X163984620Y-113963540D01*
G75*
G02*
X164235120Y-113713040I250500J0D01*
G01*
X164736120Y-113713040D01*
G75*
G02*
X164986620Y-113963540I0J-250500D01*
G01*
X164986620Y-114514540D01*
G75*
G02*
X164736120Y-114765040I-250500J0D01*
G01*
X164235120Y-114765040D01*
G75*
G02*
X163984620Y-114514540I0J250500D01*
G01*
G37*
G36*
G01*
X173757380Y-127140780D02*
X174207380Y-127140780D01*
G75*
G02*
X174258380Y-127191780I0J-51000D01*
G01*
X174258380Y-127791780D01*
G75*
G02*
X174207380Y-127842780I-51000J0D01*
G01*
X173757380Y-127842780D01*
G75*
G02*
X173706380Y-127791780I0J51000D01*
G01*
X173706380Y-127191780D01*
G75*
G02*
X173757380Y-127140780I51000J0D01*
G01*
G37*
G36*
G01*
X173757380Y-129240780D02*
X174207380Y-129240780D01*
G75*
G02*
X174258380Y-129291780I0J-51000D01*
G01*
X174258380Y-129891780D01*
G75*
G02*
X174207380Y-129942780I-51000J0D01*
G01*
X173757380Y-129942780D01*
G75*
G02*
X173706380Y-129891780I0J51000D01*
G01*
X173706380Y-129291780D01*
G75*
G02*
X173757380Y-129240780I51000J0D01*
G01*
G37*
G36*
G01*
X170705160Y-127062720D02*
X170705160Y-127663720D01*
G75*
G02*
X170479660Y-127889220I-225500J0D01*
G01*
X170028660Y-127889220D01*
G75*
G02*
X169803160Y-127663720I0J225500D01*
G01*
X169803160Y-127062720D01*
G75*
G02*
X170028660Y-126837220I225500J0D01*
G01*
X170479660Y-126837220D01*
G75*
G02*
X170705160Y-127062720I0J-225500D01*
G01*
G37*
G36*
G01*
X172355160Y-127062720D02*
X172355160Y-127663720D01*
G75*
G02*
X172129660Y-127889220I-225500J0D01*
G01*
X171678660Y-127889220D01*
G75*
G02*
X171453160Y-127663720I0J225500D01*
G01*
X171453160Y-127062720D01*
G75*
G02*
X171678660Y-126837220I225500J0D01*
G01*
X172129660Y-126837220D01*
G75*
G02*
X172355160Y-127062720I0J-225500D01*
G01*
G37*
G36*
G01*
X169218960Y-124859560D02*
X169218960Y-124258560D01*
G75*
G02*
X169444460Y-124033060I225500J0D01*
G01*
X169895460Y-124033060D01*
G75*
G02*
X170120960Y-124258560I0J-225500D01*
G01*
X170120960Y-124859560D01*
G75*
G02*
X169895460Y-125085060I-225500J0D01*
G01*
X169444460Y-125085060D01*
G75*
G02*
X169218960Y-124859560I0J225500D01*
G01*
G37*
G36*
G01*
X170868960Y-124859560D02*
X170868960Y-124258560D01*
G75*
G02*
X171094460Y-124033060I225500J0D01*
G01*
X171545460Y-124033060D01*
G75*
G02*
X171770960Y-124258560I0J-225500D01*
G01*
X171770960Y-124859560D01*
G75*
G02*
X171545460Y-125085060I-225500J0D01*
G01*
X171094460Y-125085060D01*
G75*
G02*
X170868960Y-124859560I0J225500D01*
G01*
G37*
G36*
G01*
X173568740Y-132219880D02*
X174568740Y-132219880D01*
G75*
G02*
X174619740Y-132270880I0J-51000D01*
G01*
X174619740Y-133270880D01*
G75*
G02*
X174568740Y-133321880I-51000J0D01*
G01*
X173568740Y-133321880D01*
G75*
G02*
X173517740Y-133270880I0J51000D01*
G01*
X173517740Y-132270880D01*
G75*
G02*
X173568740Y-132219880I51000J0D01*
G01*
G37*
X172798740Y-132770880D03*
X171528740Y-132770880D03*
G36*
G01*
X158195500Y-109376560D02*
X158796500Y-109376560D01*
G75*
G02*
X159022000Y-109602060I0J-225500D01*
G01*
X159022000Y-110053060D01*
G75*
G02*
X158796500Y-110278560I-225500J0D01*
G01*
X158195500Y-110278560D01*
G75*
G02*
X157970000Y-110053060I0J225500D01*
G01*
X157970000Y-109602060D01*
G75*
G02*
X158195500Y-109376560I225500J0D01*
G01*
G37*
G36*
G01*
X158195500Y-111026560D02*
X158796500Y-111026560D01*
G75*
G02*
X159022000Y-111252060I0J-225500D01*
G01*
X159022000Y-111703060D01*
G75*
G02*
X158796500Y-111928560I-225500J0D01*
G01*
X158195500Y-111928560D01*
G75*
G02*
X157970000Y-111703060I0J225500D01*
G01*
X157970000Y-111252060D01*
G75*
G02*
X158195500Y-111026560I225500J0D01*
G01*
G37*
D12*
G36*
X147185566Y-136923904D02*
G01*
X147186331Y-136925752D01*
X147185291Y-136927255D01*
X147169269Y-136935818D01*
X147150632Y-136951113D01*
X147135337Y-136969750D01*
X147123972Y-136991014D01*
X147116972Y-137014089D01*
X147114609Y-137038080D01*
X147116972Y-137062071D01*
X147123972Y-137085146D01*
X147135337Y-137106410D01*
X147150632Y-137125047D01*
X147169269Y-137140342D01*
X147185291Y-137148905D01*
X147186347Y-137150604D01*
X147185404Y-137152367D01*
X147183583Y-137152517D01*
X147172025Y-137147730D01*
X147066468Y-137126733D01*
X146958852Y-137126733D01*
X146853295Y-137147730D01*
X146841737Y-137152517D01*
X146839754Y-137152256D01*
X146838989Y-137150408D01*
X146840029Y-137148905D01*
X146856051Y-137140342D01*
X146874688Y-137125047D01*
X146889983Y-137106410D01*
X146901348Y-137085146D01*
X146908348Y-137062071D01*
X146910711Y-137038080D01*
X146908348Y-137014089D01*
X146901348Y-136991014D01*
X146889983Y-136969750D01*
X146874688Y-136951113D01*
X146856051Y-136935818D01*
X146840029Y-136927255D01*
X146838973Y-136925556D01*
X146839916Y-136923793D01*
X146841737Y-136923643D01*
X146853295Y-136928430D01*
X146958852Y-136949427D01*
X147066468Y-136949427D01*
X147172025Y-136928430D01*
X147183583Y-136923643D01*
X147185566Y-136923904D01*
G37*
G36*
X147185566Y-135653904D02*
G01*
X147186331Y-135655752D01*
X147185291Y-135657255D01*
X147169269Y-135665818D01*
X147150632Y-135681113D01*
X147135337Y-135699750D01*
X147123972Y-135721014D01*
X147116972Y-135744089D01*
X147114609Y-135768080D01*
X147116972Y-135792071D01*
X147123972Y-135815146D01*
X147135337Y-135836410D01*
X147150632Y-135855047D01*
X147169269Y-135870342D01*
X147185291Y-135878905D01*
X147186347Y-135880604D01*
X147185404Y-135882367D01*
X147183583Y-135882517D01*
X147172025Y-135877730D01*
X147066468Y-135856733D01*
X146958852Y-135856733D01*
X146853295Y-135877730D01*
X146841737Y-135882517D01*
X146839754Y-135882256D01*
X146838989Y-135880408D01*
X146840029Y-135878905D01*
X146856051Y-135870342D01*
X146874688Y-135855047D01*
X146889983Y-135836410D01*
X146901348Y-135815146D01*
X146908348Y-135792071D01*
X146910711Y-135768080D01*
X146908348Y-135744089D01*
X146901348Y-135721014D01*
X146889983Y-135699750D01*
X146874688Y-135681113D01*
X146856051Y-135665818D01*
X146840029Y-135657255D01*
X146838973Y-135655556D01*
X146839916Y-135653793D01*
X146841737Y-135653643D01*
X146853295Y-135658430D01*
X146958852Y-135679427D01*
X147066468Y-135679427D01*
X147172025Y-135658430D01*
X147183583Y-135653643D01*
X147185566Y-135653904D01*
G37*
G36*
X147185566Y-134383904D02*
G01*
X147186331Y-134385752D01*
X147185291Y-134387255D01*
X147169269Y-134395818D01*
X147150632Y-134411113D01*
X147135337Y-134429750D01*
X147123972Y-134451014D01*
X147116972Y-134474089D01*
X147114609Y-134498080D01*
X147116972Y-134522071D01*
X147123972Y-134545146D01*
X147135337Y-134566410D01*
X147150632Y-134585047D01*
X147169269Y-134600342D01*
X147185291Y-134608905D01*
X147186347Y-134610604D01*
X147185404Y-134612367D01*
X147183583Y-134612517D01*
X147172025Y-134607730D01*
X147066468Y-134586733D01*
X146958852Y-134586733D01*
X146853295Y-134607730D01*
X146841737Y-134612517D01*
X146839754Y-134612256D01*
X146838989Y-134610408D01*
X146840029Y-134608905D01*
X146856051Y-134600342D01*
X146874688Y-134585047D01*
X146889983Y-134566410D01*
X146901348Y-134545146D01*
X146908348Y-134522071D01*
X146910711Y-134498080D01*
X146908348Y-134474089D01*
X146901348Y-134451014D01*
X146889983Y-134429750D01*
X146874688Y-134411113D01*
X146856051Y-134395818D01*
X146840029Y-134387255D01*
X146838973Y-134385556D01*
X146839916Y-134383793D01*
X146841737Y-134383643D01*
X146853295Y-134388430D01*
X146958852Y-134409427D01*
X147066468Y-134409427D01*
X147172025Y-134388430D01*
X147183583Y-134383643D01*
X147185566Y-134383904D01*
G37*
G36*
X147336314Y-133143080D02*
G01*
X147336314Y-133145080D01*
X147334778Y-133146070D01*
X147310591Y-133148452D01*
X147287516Y-133155452D01*
X147266252Y-133166817D01*
X147247615Y-133182112D01*
X147232320Y-133200749D01*
X147220955Y-133222013D01*
X147213955Y-133245088D01*
X147211592Y-133269078D01*
X147213955Y-133293070D01*
X147220955Y-133316145D01*
X147232320Y-133337409D01*
X147247615Y-133356046D01*
X147266330Y-133371404D01*
X147270658Y-133374296D01*
X147271543Y-133376090D01*
X147270432Y-133377753D01*
X147268782Y-133377807D01*
X147172025Y-133337730D01*
X147066468Y-133316733D01*
X146958852Y-133316733D01*
X146853295Y-133337730D01*
X146756538Y-133377807D01*
X146754555Y-133377546D01*
X146753790Y-133375698D01*
X146754662Y-133374296D01*
X146758990Y-133371404D01*
X146777705Y-133356045D01*
X146793000Y-133337408D01*
X146804365Y-133316145D01*
X146811365Y-133293070D01*
X146813728Y-133269078D01*
X146811365Y-133245087D01*
X146804365Y-133222012D01*
X146793000Y-133200749D01*
X146777704Y-133182112D01*
X146759067Y-133166817D01*
X146737804Y-133155452D01*
X146714729Y-133148452D01*
X146690542Y-133146070D01*
X146688916Y-133144905D01*
X146689112Y-133142915D01*
X146690738Y-133142080D01*
X147334582Y-133142080D01*
X147336314Y-133143080D01*
G37*
G36*
X173518905Y-132447332D02*
G01*
X173519740Y-132448958D01*
X173519740Y-133092802D01*
X173518740Y-133094534D01*
X173516740Y-133094534D01*
X173515750Y-133092998D01*
X173513368Y-133068811D01*
X173506368Y-133045736D01*
X173495003Y-133024472D01*
X173479708Y-133005835D01*
X173461071Y-132990540D01*
X173439807Y-132979175D01*
X173416732Y-132972175D01*
X173392741Y-132969812D01*
X173368750Y-132972175D01*
X173345675Y-132979175D01*
X173324411Y-132990540D01*
X173305774Y-133005835D01*
X173290416Y-133024550D01*
X173287524Y-133028878D01*
X173285730Y-133029763D01*
X173284067Y-133028652D01*
X173284013Y-133027002D01*
X173324090Y-132930245D01*
X173345087Y-132824688D01*
X173345087Y-132717072D01*
X173324090Y-132611515D01*
X173284013Y-132514758D01*
X173284274Y-132512775D01*
X173286122Y-132512010D01*
X173287524Y-132512882D01*
X173290416Y-132517210D01*
X173305775Y-132535925D01*
X173324412Y-132551220D01*
X173345675Y-132562585D01*
X173368750Y-132569585D01*
X173392742Y-132571948D01*
X173416733Y-132569585D01*
X173439808Y-132562585D01*
X173461071Y-132551220D01*
X173479708Y-132535924D01*
X173495003Y-132517287D01*
X173506368Y-132496024D01*
X173513368Y-132472949D01*
X173515750Y-132448762D01*
X173516915Y-132447136D01*
X173518905Y-132447332D01*
G37*
G36*
X172278027Y-132598136D02*
G01*
X172278177Y-132599957D01*
X172273390Y-132611515D01*
X172252393Y-132717072D01*
X172252393Y-132824688D01*
X172273390Y-132930245D01*
X172278177Y-132941803D01*
X172277916Y-132943786D01*
X172276068Y-132944551D01*
X172274565Y-132943511D01*
X172266002Y-132927489D01*
X172250707Y-132908852D01*
X172232070Y-132893557D01*
X172210806Y-132882192D01*
X172187731Y-132875192D01*
X172163740Y-132872829D01*
X172139749Y-132875192D01*
X172116674Y-132882192D01*
X172095410Y-132893557D01*
X172076773Y-132908852D01*
X172061478Y-132927489D01*
X172052915Y-132943511D01*
X172051216Y-132944567D01*
X172049453Y-132943624D01*
X172049303Y-132941803D01*
X172054090Y-132930245D01*
X172075087Y-132824688D01*
X172075087Y-132717072D01*
X172054090Y-132611515D01*
X172049303Y-132599957D01*
X172049564Y-132597974D01*
X172051412Y-132597209D01*
X172052915Y-132598249D01*
X172061478Y-132614271D01*
X172076773Y-132632908D01*
X172095410Y-132648203D01*
X172116674Y-132659568D01*
X172139749Y-132666568D01*
X172163740Y-132668931D01*
X172187731Y-132666568D01*
X172210806Y-132659568D01*
X172232070Y-132648203D01*
X172250707Y-132632908D01*
X172266002Y-132614271D01*
X172274565Y-132598249D01*
X172276264Y-132597193D01*
X172278027Y-132598136D01*
G37*
G36*
X170595990Y-116460227D02*
G01*
X170600977Y-116510864D01*
X170615692Y-116559373D01*
X170639586Y-116604076D01*
X170671742Y-116643258D01*
X170710924Y-116675414D01*
X170755627Y-116699308D01*
X170804136Y-116714023D01*
X170854773Y-116719010D01*
X170856399Y-116720175D01*
X170856203Y-116722165D01*
X170854577Y-116723000D01*
X170761651Y-116723000D01*
X170761455Y-116722990D01*
X170723926Y-116719294D01*
X170723541Y-116719218D01*
X170693352Y-116710060D01*
X170692990Y-116709910D01*
X170665175Y-116695043D01*
X170664849Y-116694825D01*
X170640464Y-116674813D01*
X170640187Y-116674536D01*
X170620175Y-116650151D01*
X170619957Y-116649825D01*
X170605090Y-116622010D01*
X170604940Y-116621648D01*
X170595782Y-116591459D01*
X170595706Y-116591074D01*
X170592010Y-116553545D01*
X170592000Y-116553349D01*
X170592000Y-116460423D01*
X170593000Y-116458691D01*
X170595000Y-116458691D01*
X170595990Y-116460227D01*
G37*
G36*
X173107165Y-116458797D02*
G01*
X173108000Y-116460423D01*
X173108000Y-116553349D01*
X173107990Y-116553545D01*
X173104294Y-116591074D01*
X173104218Y-116591459D01*
X173095060Y-116621648D01*
X173094910Y-116622010D01*
X173080043Y-116649825D01*
X173079825Y-116650151D01*
X173059813Y-116674536D01*
X173059536Y-116674813D01*
X173035151Y-116694825D01*
X173034825Y-116695043D01*
X173007010Y-116709910D01*
X173006648Y-116710060D01*
X172976459Y-116719218D01*
X172976074Y-116719294D01*
X172938545Y-116722990D01*
X172938349Y-116723000D01*
X172845423Y-116723000D01*
X172843691Y-116722000D01*
X172843691Y-116720000D01*
X172845227Y-116719010D01*
X172895864Y-116714023D01*
X172944373Y-116699308D01*
X172989076Y-116675414D01*
X173028258Y-116643258D01*
X173060414Y-116604076D01*
X173084308Y-116559373D01*
X173099023Y-116510864D01*
X173104010Y-116460227D01*
X173105175Y-116458601D01*
X173107165Y-116458797D01*
G37*
G36*
X170856309Y-113518000D02*
G01*
X170856309Y-113520000D01*
X170854773Y-113520990D01*
X170804136Y-113525977D01*
X170755627Y-113540692D01*
X170710924Y-113564586D01*
X170671742Y-113596742D01*
X170639586Y-113635924D01*
X170615692Y-113680627D01*
X170600977Y-113729136D01*
X170595990Y-113779773D01*
X170594825Y-113781399D01*
X170592835Y-113781203D01*
X170592000Y-113779577D01*
X170592000Y-113686651D01*
X170592010Y-113686455D01*
X170595706Y-113648926D01*
X170595782Y-113648541D01*
X170604940Y-113618352D01*
X170605090Y-113617990D01*
X170619957Y-113590175D01*
X170620175Y-113589849D01*
X170640187Y-113565464D01*
X170640464Y-113565187D01*
X170664849Y-113545175D01*
X170665175Y-113544957D01*
X170692990Y-113530090D01*
X170693352Y-113529940D01*
X170723541Y-113520782D01*
X170723926Y-113520706D01*
X170761455Y-113517010D01*
X170761651Y-113517000D01*
X170854577Y-113517000D01*
X170856309Y-113518000D01*
G37*
G36*
X172938545Y-113517010D02*
G01*
X172976074Y-113520706D01*
X172976459Y-113520782D01*
X173006648Y-113529940D01*
X173007010Y-113530090D01*
X173034825Y-113544957D01*
X173035151Y-113545175D01*
X173059536Y-113565187D01*
X173059813Y-113565464D01*
X173079825Y-113589849D01*
X173080043Y-113590175D01*
X173094910Y-113617990D01*
X173095060Y-113618352D01*
X173104218Y-113648541D01*
X173104294Y-113648926D01*
X173107990Y-113686455D01*
X173108000Y-113686651D01*
X173108000Y-113779577D01*
X173107000Y-113781309D01*
X173105000Y-113781309D01*
X173104010Y-113779773D01*
X173099023Y-113729136D01*
X173084308Y-113680627D01*
X173060414Y-113635924D01*
X173028258Y-113596742D01*
X172989076Y-113564586D01*
X172944373Y-113540692D01*
X172895864Y-113525977D01*
X172845227Y-113520990D01*
X172843601Y-113519825D01*
X172843797Y-113517835D01*
X172845423Y-113517000D01*
X172938349Y-113517000D01*
X172938545Y-113517010D01*
G37*
M02*
