G04 #@! TF.GenerationSoftware,KiCad,Pcbnew,5.1.8-1.fc33*
G04 #@! TF.CreationDate,2021-08-02T18:18:17+02:00*
G04 #@! TF.ProjectId,sense,73656e73-652e-46b6-9963-61645f706362,rev?*
G04 #@! TF.SameCoordinates,Original*
G04 #@! TF.FileFunction,Copper,L2,Bot*
G04 #@! TF.FilePolarity,Positive*
%FSLAX46Y46*%
G04 Gerber Fmt 4.6, Leading zero omitted, Abs format (unit mm)*
G04 Created by KiCad (PCBNEW 5.1.8-1.fc33) date 2021-08-02 18:18:17*
%MOMM*%
%LPD*%
G01*
G04 APERTURE LIST*
G04 #@! TA.AperFunction,ComponentPad*
%ADD10C,1.000000*%
G04 #@! TD*
G04 #@! TA.AperFunction,SMDPad,CuDef*
%ADD11R,0.900000X1.200000*%
G04 #@! TD*
G04 #@! TA.AperFunction,ComponentPad*
%ADD12R,1.000000X1.000000*%
G04 #@! TD*
G04 #@! TA.AperFunction,ComponentPad*
%ADD13O,1.000000X1.000000*%
G04 #@! TD*
G04 #@! TA.AperFunction,SMDPad,CuDef*
%ADD14R,0.450000X0.600000*%
G04 #@! TD*
G04 #@! TA.AperFunction,SMDPad,CuDef*
%ADD15R,1.060000X0.650000*%
G04 #@! TD*
G04 #@! TA.AperFunction,ComponentPad*
%ADD16C,0.100000*%
G04 #@! TD*
G04 #@! TA.AperFunction,ComponentPad*
%ADD17O,1.700000X1.700000*%
G04 #@! TD*
G04 #@! TA.AperFunction,ComponentPad*
%ADD18R,1.700000X1.700000*%
G04 #@! TD*
G04 #@! TA.AperFunction,ViaPad*
%ADD19C,1.200000*%
G04 #@! TD*
G04 #@! TA.AperFunction,Conductor*
%ADD20C,0.400000*%
G04 #@! TD*
G04 #@! TA.AperFunction,Conductor*
%ADD21C,0.300000*%
G04 #@! TD*
G04 #@! TA.AperFunction,Conductor*
%ADD22C,0.254000*%
G04 #@! TD*
G04 #@! TA.AperFunction,Conductor*
%ADD23C,0.100000*%
G04 #@! TD*
G04 APERTURE END LIST*
D10*
X167894000Y-109728000D03*
X167894000Y-107828000D03*
G04 #@! TA.AperFunction,SMDPad,CuDef*
G36*
G01*
X147825000Y-118336250D02*
X147825000Y-117823750D01*
G75*
G02*
X148043750Y-117605000I218750J0D01*
G01*
X148481250Y-117605000D01*
G75*
G02*
X148700000Y-117823750I0J-218750D01*
G01*
X148700000Y-118336250D01*
G75*
G02*
X148481250Y-118555000I-218750J0D01*
G01*
X148043750Y-118555000D01*
G75*
G02*
X147825000Y-118336250I0J218750D01*
G01*
G37*
G04 #@! TD.AperFunction*
G04 #@! TA.AperFunction,SMDPad,CuDef*
G36*
G01*
X149400000Y-118336250D02*
X149400000Y-117823750D01*
G75*
G02*
X149618750Y-117605000I218750J0D01*
G01*
X150056250Y-117605000D01*
G75*
G02*
X150275000Y-117823750I0J-218750D01*
G01*
X150275000Y-118336250D01*
G75*
G02*
X150056250Y-118555000I-218750J0D01*
G01*
X149618750Y-118555000D01*
G75*
G02*
X149400000Y-118336250I0J218750D01*
G01*
G37*
G04 #@! TD.AperFunction*
D11*
X146540000Y-123070000D03*
X149840000Y-123070000D03*
X146540000Y-125450000D03*
X149840000Y-125450000D03*
X146550000Y-120560000D03*
X149850000Y-120560000D03*
G04 #@! TA.AperFunction,SMDPad,CuDef*
G36*
G01*
X147743750Y-105670000D02*
X148256250Y-105670000D01*
G75*
G02*
X148475000Y-105888750I0J-218750D01*
G01*
X148475000Y-106326250D01*
G75*
G02*
X148256250Y-106545000I-218750J0D01*
G01*
X147743750Y-106545000D01*
G75*
G02*
X147525000Y-106326250I0J218750D01*
G01*
X147525000Y-105888750D01*
G75*
G02*
X147743750Y-105670000I218750J0D01*
G01*
G37*
G04 #@! TD.AperFunction*
G04 #@! TA.AperFunction,SMDPad,CuDef*
G36*
G01*
X147743750Y-104095000D02*
X148256250Y-104095000D01*
G75*
G02*
X148475000Y-104313750I0J-218750D01*
G01*
X148475000Y-104751250D01*
G75*
G02*
X148256250Y-104970000I-218750J0D01*
G01*
X147743750Y-104970000D01*
G75*
G02*
X147525000Y-104751250I0J218750D01*
G01*
X147525000Y-104313750D01*
G75*
G02*
X147743750Y-104095000I218750J0D01*
G01*
G37*
G04 #@! TD.AperFunction*
G04 #@! TA.AperFunction,SMDPad,CuDef*
G36*
G01*
X147743750Y-107155000D02*
X148256250Y-107155000D01*
G75*
G02*
X148475000Y-107373750I0J-218750D01*
G01*
X148475000Y-107811250D01*
G75*
G02*
X148256250Y-108030000I-218750J0D01*
G01*
X147743750Y-108030000D01*
G75*
G02*
X147525000Y-107811250I0J218750D01*
G01*
X147525000Y-107373750D01*
G75*
G02*
X147743750Y-107155000I218750J0D01*
G01*
G37*
G04 #@! TD.AperFunction*
G04 #@! TA.AperFunction,SMDPad,CuDef*
G36*
G01*
X147743750Y-108730000D02*
X148256250Y-108730000D01*
G75*
G02*
X148475000Y-108948750I0J-218750D01*
G01*
X148475000Y-109386250D01*
G75*
G02*
X148256250Y-109605000I-218750J0D01*
G01*
X147743750Y-109605000D01*
G75*
G02*
X147525000Y-109386250I0J218750D01*
G01*
X147525000Y-108948750D01*
G75*
G02*
X147743750Y-108730000I218750J0D01*
G01*
G37*
G04 #@! TD.AperFunction*
G04 #@! TA.AperFunction,SMDPad,CuDef*
G36*
G01*
X176603750Y-110470000D02*
X177116250Y-110470000D01*
G75*
G02*
X177335000Y-110688750I0J-218750D01*
G01*
X177335000Y-111126250D01*
G75*
G02*
X177116250Y-111345000I-218750J0D01*
G01*
X176603750Y-111345000D01*
G75*
G02*
X176385000Y-111126250I0J218750D01*
G01*
X176385000Y-110688750D01*
G75*
G02*
X176603750Y-110470000I218750J0D01*
G01*
G37*
G04 #@! TD.AperFunction*
G04 #@! TA.AperFunction,SMDPad,CuDef*
G36*
G01*
X176603750Y-108895000D02*
X177116250Y-108895000D01*
G75*
G02*
X177335000Y-109113750I0J-218750D01*
G01*
X177335000Y-109551250D01*
G75*
G02*
X177116250Y-109770000I-218750J0D01*
G01*
X176603750Y-109770000D01*
G75*
G02*
X176385000Y-109551250I0J218750D01*
G01*
X176385000Y-109113750D01*
G75*
G02*
X176603750Y-108895000I218750J0D01*
G01*
G37*
G04 #@! TD.AperFunction*
G04 #@! TA.AperFunction,SMDPad,CuDef*
G36*
G01*
X174943750Y-118275000D02*
X175456250Y-118275000D01*
G75*
G02*
X175675000Y-118493750I0J-218750D01*
G01*
X175675000Y-118931250D01*
G75*
G02*
X175456250Y-119150000I-218750J0D01*
G01*
X174943750Y-119150000D01*
G75*
G02*
X174725000Y-118931250I0J218750D01*
G01*
X174725000Y-118493750D01*
G75*
G02*
X174943750Y-118275000I218750J0D01*
G01*
G37*
G04 #@! TD.AperFunction*
G04 #@! TA.AperFunction,SMDPad,CuDef*
G36*
G01*
X174943750Y-119850000D02*
X175456250Y-119850000D01*
G75*
G02*
X175675000Y-120068750I0J-218750D01*
G01*
X175675000Y-120506250D01*
G75*
G02*
X175456250Y-120725000I-218750J0D01*
G01*
X174943750Y-120725000D01*
G75*
G02*
X174725000Y-120506250I0J218750D01*
G01*
X174725000Y-120068750D01*
G75*
G02*
X174943750Y-119850000I218750J0D01*
G01*
G37*
G04 #@! TD.AperFunction*
G04 #@! TA.AperFunction,SMDPad,CuDef*
G36*
G01*
X176256250Y-108225000D02*
X175743750Y-108225000D01*
G75*
G02*
X175525000Y-108006250I0J218750D01*
G01*
X175525000Y-107568750D01*
G75*
G02*
X175743750Y-107350000I218750J0D01*
G01*
X176256250Y-107350000D01*
G75*
G02*
X176475000Y-107568750I0J-218750D01*
G01*
X176475000Y-108006250D01*
G75*
G02*
X176256250Y-108225000I-218750J0D01*
G01*
G37*
G04 #@! TD.AperFunction*
G04 #@! TA.AperFunction,SMDPad,CuDef*
G36*
G01*
X176256250Y-106650000D02*
X175743750Y-106650000D01*
G75*
G02*
X175525000Y-106431250I0J218750D01*
G01*
X175525000Y-105993750D01*
G75*
G02*
X175743750Y-105775000I218750J0D01*
G01*
X176256250Y-105775000D01*
G75*
G02*
X176475000Y-105993750I0J-218750D01*
G01*
X176475000Y-106431250D01*
G75*
G02*
X176256250Y-106650000I-218750J0D01*
G01*
G37*
G04 #@! TD.AperFunction*
G04 #@! TA.AperFunction,SMDPad,CuDef*
G36*
G01*
X152515000Y-112503750D02*
X152515000Y-113016250D01*
G75*
G02*
X152296250Y-113235000I-218750J0D01*
G01*
X151858750Y-113235000D01*
G75*
G02*
X151640000Y-113016250I0J218750D01*
G01*
X151640000Y-112503750D01*
G75*
G02*
X151858750Y-112285000I218750J0D01*
G01*
X152296250Y-112285000D01*
G75*
G02*
X152515000Y-112503750I0J-218750D01*
G01*
G37*
G04 #@! TD.AperFunction*
G04 #@! TA.AperFunction,SMDPad,CuDef*
G36*
G01*
X150940000Y-112503750D02*
X150940000Y-113016250D01*
G75*
G02*
X150721250Y-113235000I-218750J0D01*
G01*
X150283750Y-113235000D01*
G75*
G02*
X150065000Y-113016250I0J218750D01*
G01*
X150065000Y-112503750D01*
G75*
G02*
X150283750Y-112285000I218750J0D01*
G01*
X150721250Y-112285000D01*
G75*
G02*
X150940000Y-112503750I0J-218750D01*
G01*
G37*
G04 #@! TD.AperFunction*
D12*
X147012660Y-132593080D03*
D13*
X147012660Y-133863080D03*
X147012660Y-135133080D03*
X147012660Y-136403080D03*
X147012660Y-137673080D03*
G04 #@! TA.AperFunction,SMDPad,CuDef*
G36*
G01*
X162485620Y-114489040D02*
X162485620Y-113989040D01*
G75*
G02*
X162710620Y-113764040I225000J0D01*
G01*
X163160620Y-113764040D01*
G75*
G02*
X163385620Y-113989040I0J-225000D01*
G01*
X163385620Y-114489040D01*
G75*
G02*
X163160620Y-114714040I-225000J0D01*
G01*
X162710620Y-114714040D01*
G75*
G02*
X162485620Y-114489040I0J225000D01*
G01*
G37*
G04 #@! TD.AperFunction*
G04 #@! TA.AperFunction,SMDPad,CuDef*
G36*
G01*
X164035620Y-114489040D02*
X164035620Y-113989040D01*
G75*
G02*
X164260620Y-113764040I225000J0D01*
G01*
X164710620Y-113764040D01*
G75*
G02*
X164935620Y-113989040I0J-225000D01*
G01*
X164935620Y-114489040D01*
G75*
G02*
X164710620Y-114714040I-225000J0D01*
G01*
X164260620Y-114714040D01*
G75*
G02*
X164035620Y-114489040I0J225000D01*
G01*
G37*
G04 #@! TD.AperFunction*
D14*
X173982380Y-127491780D03*
X173982380Y-129591780D03*
G04 #@! TA.AperFunction,SMDPad,CuDef*
G36*
G01*
X170654160Y-127088220D02*
X170654160Y-127638220D01*
G75*
G02*
X170454160Y-127838220I-200000J0D01*
G01*
X170054160Y-127838220D01*
G75*
G02*
X169854160Y-127638220I0J200000D01*
G01*
X169854160Y-127088220D01*
G75*
G02*
X170054160Y-126888220I200000J0D01*
G01*
X170454160Y-126888220D01*
G75*
G02*
X170654160Y-127088220I0J-200000D01*
G01*
G37*
G04 #@! TD.AperFunction*
G04 #@! TA.AperFunction,SMDPad,CuDef*
G36*
G01*
X172304160Y-127088220D02*
X172304160Y-127638220D01*
G75*
G02*
X172104160Y-127838220I-200000J0D01*
G01*
X171704160Y-127838220D01*
G75*
G02*
X171504160Y-127638220I0J200000D01*
G01*
X171504160Y-127088220D01*
G75*
G02*
X171704160Y-126888220I200000J0D01*
G01*
X172104160Y-126888220D01*
G75*
G02*
X172304160Y-127088220I0J-200000D01*
G01*
G37*
G04 #@! TD.AperFunction*
G04 #@! TA.AperFunction,SMDPad,CuDef*
G36*
G01*
X169269960Y-124834060D02*
X169269960Y-124284060D01*
G75*
G02*
X169469960Y-124084060I200000J0D01*
G01*
X169869960Y-124084060D01*
G75*
G02*
X170069960Y-124284060I0J-200000D01*
G01*
X170069960Y-124834060D01*
G75*
G02*
X169869960Y-125034060I-200000J0D01*
G01*
X169469960Y-125034060D01*
G75*
G02*
X169269960Y-124834060I0J200000D01*
G01*
G37*
G04 #@! TD.AperFunction*
G04 #@! TA.AperFunction,SMDPad,CuDef*
G36*
G01*
X170919960Y-124834060D02*
X170919960Y-124284060D01*
G75*
G02*
X171119960Y-124084060I200000J0D01*
G01*
X171519960Y-124084060D01*
G75*
G02*
X171719960Y-124284060I0J-200000D01*
G01*
X171719960Y-124834060D01*
G75*
G02*
X171519960Y-125034060I-200000J0D01*
G01*
X171119960Y-125034060D01*
G75*
G02*
X170919960Y-124834060I0J200000D01*
G01*
G37*
G04 #@! TD.AperFunction*
D12*
X174068740Y-132770880D03*
D13*
X172798740Y-132770880D03*
X171528740Y-132770880D03*
G04 #@! TA.AperFunction,SMDPad,CuDef*
G36*
G01*
X158221000Y-109427560D02*
X158771000Y-109427560D01*
G75*
G02*
X158971000Y-109627560I0J-200000D01*
G01*
X158971000Y-110027560D01*
G75*
G02*
X158771000Y-110227560I-200000J0D01*
G01*
X158221000Y-110227560D01*
G75*
G02*
X158021000Y-110027560I0J200000D01*
G01*
X158021000Y-109627560D01*
G75*
G02*
X158221000Y-109427560I200000J0D01*
G01*
G37*
G04 #@! TD.AperFunction*
G04 #@! TA.AperFunction,SMDPad,CuDef*
G36*
G01*
X158221000Y-111077560D02*
X158771000Y-111077560D01*
G75*
G02*
X158971000Y-111277560I0J-200000D01*
G01*
X158971000Y-111677560D01*
G75*
G02*
X158771000Y-111877560I-200000J0D01*
G01*
X158221000Y-111877560D01*
G75*
G02*
X158021000Y-111677560I0J200000D01*
G01*
X158021000Y-111277560D01*
G75*
G02*
X158221000Y-111077560I200000J0D01*
G01*
G37*
G04 #@! TD.AperFunction*
D15*
X173609180Y-115227060D03*
X173609180Y-116177060D03*
X173609180Y-117127060D03*
X171409180Y-117127060D03*
X171409180Y-115227060D03*
G04 #@! TA.AperFunction,ComponentPad*
D16*
G36*
X141838878Y-108011122D02*
G01*
X142688878Y-106538878D01*
X144161122Y-107388878D01*
X143311122Y-108861122D01*
X141838878Y-108011122D01*
G37*
G04 #@! TD.AperFunction*
G04 #@! TA.AperFunction,ComponentPad*
G36*
G01*
X140993878Y-109474705D02*
X140993878Y-109474705D01*
G75*
G02*
X142155000Y-109163583I736122J-425000D01*
G01*
X142155000Y-109163583D01*
G75*
G02*
X142466122Y-110324705I-425000J-736122D01*
G01*
X142466122Y-110324705D01*
G75*
G02*
X141305000Y-110635827I-736122J425000D01*
G01*
X141305000Y-110635827D01*
G75*
G02*
X140993878Y-109474705I425000J736122D01*
G01*
G37*
G04 #@! TD.AperFunction*
D17*
X139700000Y-120040000D03*
D18*
X139700000Y-117500000D03*
G04 #@! TA.AperFunction,ComponentPad*
D16*
G36*
X141388878Y-128661122D02*
G01*
X140538878Y-127188878D01*
X142011122Y-126338878D01*
X142861122Y-127811122D01*
X141388878Y-128661122D01*
G37*
G04 #@! TD.AperFunction*
G04 #@! TA.AperFunction,ComponentPad*
G36*
G01*
X142233878Y-130124705D02*
X142233878Y-130124705D01*
G75*
G02*
X142545000Y-128963583I736122J425000D01*
G01*
X142545000Y-128963583D01*
G75*
G02*
X143706122Y-129274705I425000J-736122D01*
G01*
X143706122Y-129274705D01*
G75*
G02*
X143395000Y-130435827I-736122J-425000D01*
G01*
X143395000Y-130435827D01*
G75*
G02*
X142233878Y-130124705I-425000J736122D01*
G01*
G37*
G04 #@! TD.AperFunction*
G04 #@! TA.AperFunction,SMDPad,CuDef*
G36*
G01*
X145825000Y-127225000D02*
X145825000Y-127775000D01*
G75*
G02*
X145625000Y-127975000I-200000J0D01*
G01*
X145225000Y-127975000D01*
G75*
G02*
X145025000Y-127775000I0J200000D01*
G01*
X145025000Y-127225000D01*
G75*
G02*
X145225000Y-127025000I200000J0D01*
G01*
X145625000Y-127025000D01*
G75*
G02*
X145825000Y-127225000I0J-200000D01*
G01*
G37*
G04 #@! TD.AperFunction*
G04 #@! TA.AperFunction,SMDPad,CuDef*
G36*
G01*
X144175000Y-127225000D02*
X144175000Y-127775000D01*
G75*
G02*
X143975000Y-127975000I-200000J0D01*
G01*
X143575000Y-127975000D01*
G75*
G02*
X143375000Y-127775000I0J200000D01*
G01*
X143375000Y-127225000D01*
G75*
G02*
X143575000Y-127025000I200000J0D01*
G01*
X143975000Y-127025000D01*
G75*
G02*
X144175000Y-127225000I0J-200000D01*
G01*
G37*
G04 #@! TD.AperFunction*
G04 #@! TA.AperFunction,SMDPad,CuDef*
G36*
G01*
X144775000Y-134125000D02*
X144225000Y-134125000D01*
G75*
G02*
X144025000Y-133925000I0J200000D01*
G01*
X144025000Y-133525000D01*
G75*
G02*
X144225000Y-133325000I200000J0D01*
G01*
X144775000Y-133325000D01*
G75*
G02*
X144975000Y-133525000I0J-200000D01*
G01*
X144975000Y-133925000D01*
G75*
G02*
X144775000Y-134125000I-200000J0D01*
G01*
G37*
G04 #@! TD.AperFunction*
G04 #@! TA.AperFunction,SMDPad,CuDef*
G36*
G01*
X144775000Y-132475000D02*
X144225000Y-132475000D01*
G75*
G02*
X144025000Y-132275000I0J200000D01*
G01*
X144025000Y-131875000D01*
G75*
G02*
X144225000Y-131675000I200000J0D01*
G01*
X144775000Y-131675000D01*
G75*
G02*
X144975000Y-131875000I0J-200000D01*
G01*
X144975000Y-132275000D01*
G75*
G02*
X144775000Y-132475000I-200000J0D01*
G01*
G37*
G04 #@! TD.AperFunction*
G04 #@! TA.AperFunction,SMDPad,CuDef*
G36*
G01*
X142750000Y-123775000D02*
X142250000Y-123775000D01*
G75*
G02*
X142025000Y-123550000I0J225000D01*
G01*
X142025000Y-123100000D01*
G75*
G02*
X142250000Y-122875000I225000J0D01*
G01*
X142750000Y-122875000D01*
G75*
G02*
X142975000Y-123100000I0J-225000D01*
G01*
X142975000Y-123550000D01*
G75*
G02*
X142750000Y-123775000I-225000J0D01*
G01*
G37*
G04 #@! TD.AperFunction*
G04 #@! TA.AperFunction,SMDPad,CuDef*
G36*
G01*
X142750000Y-125325000D02*
X142250000Y-125325000D01*
G75*
G02*
X142025000Y-125100000I0J225000D01*
G01*
X142025000Y-124650000D01*
G75*
G02*
X142250000Y-124425000I225000J0D01*
G01*
X142750000Y-124425000D01*
G75*
G02*
X142975000Y-124650000I0J-225000D01*
G01*
X142975000Y-125100000D01*
G75*
G02*
X142750000Y-125325000I-225000J0D01*
G01*
G37*
G04 #@! TD.AperFunction*
G04 #@! TA.AperFunction,SMDPad,CuDef*
G36*
G01*
X174756250Y-108225000D02*
X174243750Y-108225000D01*
G75*
G02*
X174025000Y-108006250I0J218750D01*
G01*
X174025000Y-107568750D01*
G75*
G02*
X174243750Y-107350000I218750J0D01*
G01*
X174756250Y-107350000D01*
G75*
G02*
X174975000Y-107568750I0J-218750D01*
G01*
X174975000Y-108006250D01*
G75*
G02*
X174756250Y-108225000I-218750J0D01*
G01*
G37*
G04 #@! TD.AperFunction*
G04 #@! TA.AperFunction,SMDPad,CuDef*
G36*
G01*
X174756250Y-106650000D02*
X174243750Y-106650000D01*
G75*
G02*
X174025000Y-106431250I0J218750D01*
G01*
X174025000Y-105993750D01*
G75*
G02*
X174243750Y-105775000I218750J0D01*
G01*
X174756250Y-105775000D01*
G75*
G02*
X174975000Y-105993750I0J-218750D01*
G01*
X174975000Y-106431250D01*
G75*
G02*
X174756250Y-106650000I-218750J0D01*
G01*
G37*
G04 #@! TD.AperFunction*
G04 #@! TA.AperFunction,SMDPad,CuDef*
G36*
G01*
X173025000Y-106225000D02*
X173025000Y-106775000D01*
G75*
G02*
X172825000Y-106975000I-200000J0D01*
G01*
X172425000Y-106975000D01*
G75*
G02*
X172225000Y-106775000I0J200000D01*
G01*
X172225000Y-106225000D01*
G75*
G02*
X172425000Y-106025000I200000J0D01*
G01*
X172825000Y-106025000D01*
G75*
G02*
X173025000Y-106225000I0J-200000D01*
G01*
G37*
G04 #@! TD.AperFunction*
G04 #@! TA.AperFunction,SMDPad,CuDef*
G36*
G01*
X171375000Y-106225000D02*
X171375000Y-106775000D01*
G75*
G02*
X171175000Y-106975000I-200000J0D01*
G01*
X170775000Y-106975000D01*
G75*
G02*
X170575000Y-106775000I0J200000D01*
G01*
X170575000Y-106225000D01*
G75*
G02*
X170775000Y-106025000I200000J0D01*
G01*
X171175000Y-106025000D01*
G75*
G02*
X171375000Y-106225000I0J-200000D01*
G01*
G37*
G04 #@! TD.AperFunction*
D19*
X149400000Y-114600000D03*
X144250000Y-104150000D03*
X171450000Y-103400000D03*
X169900000Y-118850000D03*
X179055000Y-111995000D03*
X153600000Y-120900000D03*
X175400000Y-123150000D03*
X169680000Y-99020000D03*
X153162000Y-104648000D03*
X153670000Y-107696000D03*
X156438600Y-133179820D03*
X154820000Y-99340000D03*
X157873700Y-103995220D03*
X171805600Y-112463580D03*
X175361600Y-116413280D03*
X163774120Y-105443020D03*
X161533840Y-112806480D03*
X160162240Y-109189520D03*
X144500000Y-109900000D03*
X148600000Y-134700000D03*
X145500000Y-131200000D03*
X150900000Y-119100000D03*
X151482220Y-116500001D03*
X156900000Y-121600000D03*
X162814000Y-104200000D03*
X152146000Y-106172000D03*
X158300000Y-127300000D03*
X164150000Y-123550000D03*
X172552360Y-123195080D03*
X149190000Y-130780000D03*
X150763173Y-127786827D03*
X165798500Y-107878880D03*
X165050000Y-110749999D03*
X157440000Y-101110000D03*
X166790000Y-102960000D03*
X166650000Y-111350000D03*
X157030000Y-99280000D03*
X152146000Y-101600000D03*
X173900000Y-111800000D03*
X172095160Y-120317260D03*
X153640000Y-110790000D03*
X153400000Y-115200000D03*
X165011100Y-119933720D03*
X162650000Y-121300000D03*
X152000000Y-110900000D03*
X170730000Y-136080000D03*
X165650000Y-122200000D03*
X168419780Y-127096520D03*
X160124468Y-114378412D03*
X153400000Y-119400000D03*
X158400000Y-115000000D03*
X145600000Y-114100000D03*
X150800000Y-114100000D03*
X145200000Y-128700000D03*
X169500000Y-107800000D03*
D20*
X148000000Y-109167500D02*
X147562500Y-109167500D01*
X149069999Y-126450001D02*
X151649999Y-126450001D01*
X146540000Y-123070000D02*
X146540000Y-123220000D01*
X151649999Y-126450001D02*
X152500000Y-125600000D01*
X169200000Y-117025000D02*
X169200000Y-118150000D01*
X169200000Y-118150000D02*
X169900000Y-118850000D01*
X146540000Y-123220000D02*
X148800000Y-125480000D01*
X148800000Y-125480000D02*
X148800000Y-126111458D01*
X149104271Y-126415729D02*
X148800000Y-126111458D01*
X175200000Y-122950000D02*
X175400000Y-123150000D01*
X175200000Y-120287500D02*
X175200000Y-122950000D01*
X168829290Y-116654290D02*
X169200000Y-117025000D01*
X167969168Y-116654290D02*
X168829290Y-116654290D01*
X147950000Y-115300000D02*
X149150001Y-116500001D01*
X167814879Y-116500001D02*
X167969168Y-116654290D01*
X149150001Y-116500001D02*
X167814879Y-116500001D01*
X173990940Y-124559060D02*
X175400000Y-123150000D01*
X171319960Y-124559060D02*
X173990940Y-124559060D01*
X171473584Y-112463580D02*
X171805600Y-112463580D01*
X175125380Y-116177060D02*
X175361600Y-116413280D01*
X173609180Y-116177060D02*
X175125380Y-116177060D01*
X170030140Y-114239040D02*
X171805600Y-112463580D01*
X168480740Y-114239040D02*
X170030140Y-114239040D01*
X164485620Y-114239040D02*
X168480740Y-114239040D01*
X168480740Y-114239040D02*
X168954040Y-114239040D01*
X149800001Y-115000001D02*
X149400000Y-114600000D01*
X151232001Y-115000001D02*
X149800001Y-115000001D01*
X151700001Y-114532001D02*
X151232001Y-115000001D01*
X151700001Y-113667999D02*
X151700001Y-114532001D01*
X150792002Y-112760000D02*
X151700001Y-113667999D01*
X150502500Y-112760000D02*
X150792002Y-112760000D01*
X142500000Y-123325000D02*
X142500000Y-122300000D01*
X142500000Y-122300000D02*
X143800000Y-121000000D01*
X149150001Y-116500001D02*
X149300001Y-116500001D01*
X147445740Y-134700000D02*
X148600000Y-134700000D01*
X147012660Y-135133080D02*
X147445740Y-134700000D01*
X145275010Y-131424990D02*
X145500000Y-131200000D01*
X145275010Y-133395430D02*
X145275010Y-131424990D01*
X147012660Y-135133080D02*
X145275010Y-133395430D01*
X160400000Y-127300000D02*
X158300000Y-127300000D01*
X164150000Y-123550000D02*
X160400000Y-127300000D01*
X152146000Y-106172000D02*
X159428000Y-106172000D01*
X159428000Y-106172000D02*
X161400000Y-104200000D01*
X160083000Y-106931000D02*
X162814000Y-104200000D01*
X160083000Y-107983020D02*
X160083000Y-106931000D01*
X158496000Y-109570020D02*
X160083000Y-107983020D01*
X158496000Y-109827560D02*
X158496000Y-109570020D01*
X161400000Y-104200000D02*
X162814000Y-104200000D01*
X147012660Y-137587082D02*
X147012660Y-137673080D01*
X144500000Y-135074422D02*
X147012660Y-137587082D01*
X144500000Y-133725000D02*
X144500000Y-135074422D01*
X149840000Y-122920000D02*
X149840000Y-123070000D01*
X148262500Y-122242500D02*
X149090000Y-123070000D01*
X149090000Y-123070000D02*
X149840000Y-123070000D01*
X148262500Y-118080000D02*
X148262500Y-122242500D01*
X149840000Y-125450000D02*
X149840000Y-123070000D01*
D21*
X149850000Y-118092500D02*
X149837500Y-118080000D01*
D20*
X149850000Y-120560000D02*
X149850000Y-118092500D01*
D21*
X167321440Y-120878560D02*
X167471440Y-121028560D01*
D20*
X169637960Y-123195080D02*
X172552360Y-123195080D01*
X167471440Y-121028560D02*
X169637960Y-123195080D01*
X167199999Y-120757119D02*
X167471440Y-121028560D01*
X165680000Y-118080002D02*
X167199999Y-119600001D01*
X165680000Y-118080000D02*
X165680000Y-118080002D01*
X167199999Y-119600001D02*
X167199999Y-120757119D01*
X149837500Y-118080000D02*
X165680000Y-118080000D01*
X146550000Y-120560000D02*
X146550000Y-121460000D01*
X146550000Y-121460000D02*
X145790000Y-121460000D01*
X145790000Y-121460000D02*
X145300000Y-121950000D01*
X147055000Y-127455000D02*
X147055000Y-128645000D01*
X145300000Y-125700000D02*
X147055000Y-127455000D01*
X147055000Y-128645000D02*
X149190000Y-130780000D01*
X145300000Y-121950000D02*
X145300000Y-125700000D01*
X146540000Y-125450000D02*
X147290000Y-125450000D01*
X147290000Y-125450000D02*
X149343419Y-127503419D01*
X149343419Y-127503419D02*
X150479765Y-127503419D01*
X150479765Y-127503419D02*
X150763173Y-127786827D01*
X165050000Y-108627380D02*
X165798500Y-107878880D01*
X165050000Y-110749999D02*
X165050000Y-108627380D01*
X165449999Y-107530379D02*
X165798500Y-107878880D01*
X165449999Y-105279999D02*
X165449999Y-107530379D01*
X163020000Y-102850000D02*
X165449999Y-105279999D01*
X158000000Y-102850000D02*
X163020000Y-102850000D01*
X157440000Y-102290000D02*
X158000000Y-102850000D01*
X157440000Y-101110000D02*
X157440000Y-102290000D01*
D21*
X166900000Y-103070000D02*
X166790000Y-102960000D01*
D20*
X166790000Y-111210000D02*
X166650000Y-111350000D01*
X166790000Y-102960000D02*
X166790000Y-111210000D01*
X166790000Y-102940000D02*
X166790000Y-102960000D01*
X166790000Y-102960000D02*
X163110000Y-99280000D01*
X157030000Y-99280000D02*
X163110000Y-99280000D01*
D21*
X173900000Y-111800000D02*
X174060000Y-111640000D01*
D20*
X148461612Y-104070888D02*
X150919112Y-104070888D01*
X148000000Y-104532500D02*
X148461612Y-104070888D01*
X173900000Y-111800000D02*
X172190000Y-110090000D01*
X150919112Y-106977112D02*
X153416000Y-109474000D01*
X150919112Y-104070888D02*
X150919112Y-106977112D01*
X153416000Y-109474000D02*
X154178000Y-109474000D01*
X152146000Y-102844000D02*
X152146000Y-101600000D01*
X150919112Y-104070888D02*
X152146000Y-102844000D01*
X172190000Y-110090000D02*
X169056000Y-110090000D01*
X169056000Y-110090000D02*
X167550001Y-111595999D01*
X155333700Y-110629700D02*
X163304220Y-110629700D01*
X154178000Y-109474000D02*
X155333700Y-110629700D01*
X164924521Y-112250001D02*
X167391641Y-112250001D01*
X167391641Y-112250001D02*
X167550001Y-112091641D01*
X163304220Y-110629700D02*
X164924521Y-112250001D01*
X167550001Y-111595999D02*
X167550001Y-112091641D01*
X173144380Y-112555620D02*
X173900000Y-111800000D01*
X172779179Y-112920821D02*
X173900000Y-111800000D01*
X172779179Y-116742061D02*
X172779179Y-112920821D01*
X173164178Y-117127060D02*
X172779179Y-116742061D01*
X173609180Y-117127060D02*
X173164178Y-117127060D01*
X176972510Y-107185010D02*
X176000000Y-106212500D01*
X176972510Y-108201016D02*
X177685010Y-108913516D01*
X176972510Y-107185010D02*
X176972510Y-108201016D01*
X173595240Y-120317260D02*
X175200000Y-118712500D01*
X172095160Y-120317260D02*
X173595240Y-120317260D01*
X171409180Y-119631280D02*
X172095160Y-120317260D01*
X171409180Y-117127060D02*
X171409180Y-119631280D01*
X177685010Y-115421872D02*
X175200000Y-117906882D01*
X175200000Y-117906882D02*
X175200000Y-118712500D01*
X177685010Y-108913516D02*
X177685010Y-115421872D01*
X176000000Y-108472500D02*
X176860000Y-109332500D01*
X176000000Y-107787500D02*
X176000000Y-108472500D01*
X148000000Y-106107500D02*
X148000000Y-107592500D01*
X148000000Y-106107500D02*
X148957500Y-106107500D01*
X148957500Y-106107500D02*
X153640000Y-110790000D01*
X152077500Y-112352500D02*
X153640000Y-110790000D01*
X152077500Y-112760000D02*
X152077500Y-112352500D01*
X173609180Y-114158320D02*
X176860000Y-110907500D01*
X173609180Y-115227060D02*
X173609180Y-114158320D01*
X153400000Y-115200000D02*
X154199991Y-115999991D01*
X168972922Y-115227060D02*
X171409180Y-115227060D01*
X168199991Y-115999991D02*
X168972922Y-115227060D01*
X154199991Y-115999991D02*
X168199991Y-115999991D01*
D21*
X165028003Y-120549999D02*
X165050001Y-120549999D01*
D20*
X147815740Y-135600000D02*
X147012660Y-136403080D01*
X149900000Y-135600000D02*
X147815740Y-135600000D01*
X150600000Y-134900000D02*
X149900000Y-135600000D01*
X150600000Y-132900000D02*
X150600000Y-134900000D01*
X158050000Y-125450000D02*
X150600000Y-132900000D01*
X160128002Y-125450000D02*
X158050000Y-125450000D01*
X165011100Y-120566902D02*
X165011100Y-119933720D01*
X160128002Y-125450000D02*
X165011100Y-120566902D01*
D21*
X161492880Y-121300000D02*
X162650000Y-121300000D01*
D20*
X160400000Y-121300000D02*
X162650000Y-121300000D01*
X147836920Y-133863080D02*
X149299310Y-132400690D01*
X149299310Y-132400690D02*
X160400000Y-121300000D01*
X147012660Y-133863080D02*
X147836920Y-133863080D01*
X149000000Y-132700000D02*
X149299310Y-132400690D01*
X145400000Y-111000000D02*
X151900000Y-111000000D01*
X144550000Y-127907122D02*
X144550000Y-111850000D01*
X144182112Y-128275010D02*
X144550000Y-127907122D01*
X151900000Y-111000000D02*
X152000000Y-110900000D01*
X144182112Y-129209815D02*
X144182112Y-128275010D01*
X144872297Y-129900000D02*
X144182112Y-129209815D01*
X144550000Y-111850000D02*
X145400000Y-111000000D01*
X145500000Y-129900000D02*
X144872297Y-129900000D01*
X147012660Y-131412660D02*
X145500000Y-129900000D01*
X147012660Y-132593080D02*
X147012660Y-131412660D01*
X166240000Y-131590000D02*
X170730000Y-136080000D01*
X170730000Y-136080000D02*
X166199979Y-131549979D01*
X166199979Y-122749979D02*
X165650000Y-122200000D01*
X166199979Y-131549979D02*
X166199979Y-122749979D01*
X141700000Y-127500000D02*
X143775000Y-127500000D01*
X141700000Y-125675000D02*
X142500000Y-124875000D01*
X141700000Y-127500000D02*
X141700000Y-125675000D01*
X173853820Y-127363220D02*
X173982380Y-127491780D01*
X171904160Y-127363220D02*
X173853820Y-127363220D01*
X172798740Y-130775420D02*
X173982380Y-129591780D01*
X172798740Y-132770880D02*
X172798740Y-130775420D01*
X169987460Y-127096520D02*
X170254160Y-127363220D01*
X168419780Y-127096520D02*
X169987460Y-127096520D01*
X160263840Y-114239040D02*
X160124468Y-114378412D01*
X162935620Y-114239040D02*
X160263840Y-114239040D01*
X169669960Y-126779020D02*
X170254160Y-127363220D01*
X169669960Y-124559060D02*
X169669960Y-126779020D01*
X158231840Y-111741720D02*
X158496000Y-111477560D01*
X158231840Y-114831840D02*
X158400000Y-115000000D01*
X158400000Y-115000000D02*
X156800000Y-113400000D01*
X156800000Y-113400000D02*
X156800000Y-112300000D01*
X157622440Y-111477560D02*
X158496000Y-111477560D01*
X156800000Y-112300000D02*
X157622440Y-111477560D01*
X166699989Y-127942129D02*
X171528740Y-132770880D01*
X166699989Y-120290607D02*
X166699989Y-127942129D01*
X165209383Y-118800001D02*
X166699989Y-120290607D01*
X153999999Y-118800001D02*
X165209383Y-118800001D01*
X153400000Y-119400000D02*
X153999999Y-118800001D01*
X144500000Y-131229705D02*
X142970000Y-129699705D01*
X144500000Y-132075000D02*
X144500000Y-131229705D01*
X146000001Y-113699999D02*
X150399999Y-113699999D01*
X150399999Y-113699999D02*
X150800000Y-114100000D01*
X145600000Y-114100000D02*
X146000001Y-113699999D01*
X145425000Y-128475000D02*
X145200000Y-128700000D01*
X145425000Y-127500000D02*
X145425000Y-128475000D01*
D21*
X173212500Y-106500000D02*
X174500000Y-107787500D01*
X172625000Y-106500000D02*
X173212500Y-106500000D01*
D20*
X174012490Y-105724990D02*
X174500000Y-106212500D01*
X172217888Y-105724990D02*
X174012490Y-105724990D01*
X171924990Y-106017888D02*
X172217888Y-105724990D01*
X171924990Y-106732132D02*
X171924990Y-106017888D01*
X170857122Y-107800000D02*
X171924990Y-106732132D01*
X169500000Y-107800000D02*
X170857122Y-107800000D01*
D22*
X179579688Y-111577323D02*
X179873362Y-112393620D01*
X180335507Y-114119948D01*
X180651576Y-115878894D01*
X180819351Y-117658115D01*
X180837657Y-119445133D01*
X180706365Y-121227409D01*
X180426394Y-122992463D01*
X179999708Y-124727900D01*
X179834986Y-125216991D01*
X179794156Y-125118419D01*
X179581235Y-124799761D01*
X179310239Y-124528765D01*
X178991581Y-124315844D01*
X178637507Y-124169182D01*
X178261624Y-124094414D01*
X177878376Y-124094414D01*
X177502493Y-124169182D01*
X177148419Y-124315844D01*
X176829761Y-124528765D01*
X176558765Y-124799761D01*
X176345844Y-125118419D01*
X176199182Y-125472493D01*
X176124414Y-125848376D01*
X176124414Y-126231624D01*
X176199182Y-126607507D01*
X176345844Y-126961581D01*
X176558765Y-127280239D01*
X176829761Y-127551235D01*
X177148419Y-127764156D01*
X177502493Y-127910818D01*
X177878376Y-127985586D01*
X178261624Y-127985586D01*
X178584165Y-127921428D01*
X177172882Y-130715881D01*
X176900651Y-131134870D01*
X175798611Y-132554941D01*
X175549965Y-132842900D01*
X175546423Y-132845740D01*
X175462809Y-132945291D01*
X175400220Y-133059242D01*
X175370877Y-133152152D01*
X174865141Y-135551461D01*
X174854589Y-135586246D01*
X174848582Y-135647236D01*
X174841889Y-135708073D01*
X174845039Y-135744277D01*
X174845040Y-138221321D01*
X174587021Y-139443000D01*
X166868958Y-139443000D01*
X166873193Y-139400000D01*
X166870000Y-139367581D01*
X166870000Y-138182419D01*
X166873193Y-138150000D01*
X166860450Y-138020617D01*
X166822710Y-137896207D01*
X166761425Y-137781550D01*
X166678948Y-137681052D01*
X166578450Y-137598575D01*
X166463793Y-137537290D01*
X166339383Y-137499550D01*
X166242419Y-137490000D01*
X166210000Y-137486807D01*
X166177581Y-137490000D01*
X152842419Y-137490000D01*
X152810000Y-137486807D01*
X152777581Y-137490000D01*
X152680617Y-137499550D01*
X152556207Y-137537290D01*
X152441550Y-137598575D01*
X152341052Y-137681052D01*
X152258575Y-137781550D01*
X152197290Y-137896207D01*
X152159550Y-138020617D01*
X152146807Y-138150000D01*
X152150000Y-138182420D01*
X152150001Y-139367571D01*
X152146807Y-139400000D01*
X152151042Y-139443000D01*
X144432852Y-139443000D01*
X144170000Y-138205816D01*
X144170000Y-135925289D01*
X145877660Y-137632951D01*
X145877660Y-137784868D01*
X145921277Y-138004147D01*
X146006836Y-138210704D01*
X146131048Y-138396600D01*
X146289140Y-138554692D01*
X146475036Y-138678904D01*
X146681593Y-138764463D01*
X146900872Y-138808080D01*
X147124448Y-138808080D01*
X147343727Y-138764463D01*
X147550284Y-138678904D01*
X147736180Y-138554692D01*
X147894272Y-138396600D01*
X148018484Y-138210704D01*
X148104043Y-138004147D01*
X148147660Y-137784868D01*
X148147660Y-137561292D01*
X148104043Y-137342013D01*
X148018484Y-137135456D01*
X147953419Y-137038080D01*
X148018484Y-136940704D01*
X148104043Y-136734147D01*
X148147660Y-136514868D01*
X148147660Y-136448948D01*
X148161608Y-136435000D01*
X149858982Y-136435000D01*
X149900000Y-136439040D01*
X149941018Y-136435000D01*
X149941019Y-136435000D01*
X150063689Y-136422918D01*
X150221087Y-136375172D01*
X150366146Y-136297636D01*
X150493291Y-136193291D01*
X150519446Y-136161422D01*
X151161426Y-135519442D01*
X151193291Y-135493291D01*
X151297636Y-135366146D01*
X151375172Y-135221087D01*
X151422918Y-135063689D01*
X151435000Y-134941019D01*
X151435000Y-134941009D01*
X151439039Y-134900001D01*
X151435000Y-134858993D01*
X151435000Y-133245867D01*
X157097225Y-127583643D01*
X157112460Y-127660236D01*
X157205557Y-127884992D01*
X157340713Y-128087267D01*
X157512733Y-128259287D01*
X157715008Y-128394443D01*
X157939764Y-128487540D01*
X158178363Y-128535000D01*
X158421637Y-128535000D01*
X158660236Y-128487540D01*
X158884992Y-128394443D01*
X159087267Y-128259287D01*
X159211554Y-128135000D01*
X160358982Y-128135000D01*
X160400000Y-128139040D01*
X160441018Y-128135000D01*
X160441019Y-128135000D01*
X160563689Y-128122918D01*
X160721087Y-128075172D01*
X160866146Y-127997636D01*
X160993291Y-127893291D01*
X161019446Y-127861421D01*
X164095869Y-124785000D01*
X164271637Y-124785000D01*
X164510236Y-124737540D01*
X164734992Y-124644443D01*
X164937267Y-124509287D01*
X165109287Y-124337267D01*
X165244443Y-124134992D01*
X165337540Y-123910236D01*
X165364980Y-123772286D01*
X165364979Y-131508960D01*
X165360939Y-131549979D01*
X165364979Y-131590997D01*
X165377061Y-131713667D01*
X165424807Y-131871065D01*
X165502343Y-132016124D01*
X165606688Y-132143270D01*
X165638558Y-132169425D01*
X169495000Y-136025869D01*
X169495000Y-136201637D01*
X169542460Y-136440236D01*
X169635557Y-136664992D01*
X169770713Y-136867267D01*
X169942733Y-137039287D01*
X170145008Y-137174443D01*
X170369764Y-137267540D01*
X170608363Y-137315000D01*
X170851637Y-137315000D01*
X171090236Y-137267540D01*
X171314992Y-137174443D01*
X171517267Y-137039287D01*
X171689287Y-136867267D01*
X171824443Y-136664992D01*
X171917540Y-136440236D01*
X171965000Y-136201637D01*
X171965000Y-135958363D01*
X171917540Y-135719764D01*
X171824443Y-135495008D01*
X171689287Y-135292733D01*
X171517267Y-135120713D01*
X171314992Y-134985557D01*
X171090236Y-134892460D01*
X170851637Y-134845000D01*
X170675869Y-134845000D01*
X167034979Y-131204112D01*
X167034979Y-129457986D01*
X170393740Y-132816748D01*
X170393740Y-132882668D01*
X170437357Y-133101947D01*
X170522916Y-133308504D01*
X170647128Y-133494400D01*
X170805220Y-133652492D01*
X170991116Y-133776704D01*
X171197673Y-133862263D01*
X171416952Y-133905880D01*
X171640528Y-133905880D01*
X171859807Y-133862263D01*
X172066364Y-133776704D01*
X172163740Y-133711639D01*
X172261116Y-133776704D01*
X172467673Y-133862263D01*
X172686952Y-133905880D01*
X172910528Y-133905880D01*
X173129807Y-133862263D01*
X173241514Y-133815992D01*
X173324560Y-133860382D01*
X173444258Y-133896692D01*
X173568740Y-133908952D01*
X173782990Y-133905880D01*
X173941740Y-133747130D01*
X173941740Y-132897880D01*
X174195740Y-132897880D01*
X174195740Y-133747130D01*
X174354490Y-133905880D01*
X174568740Y-133908952D01*
X174693222Y-133896692D01*
X174812920Y-133860382D01*
X174923234Y-133801417D01*
X175019925Y-133722065D01*
X175099277Y-133625374D01*
X175158242Y-133515060D01*
X175194552Y-133395362D01*
X175206812Y-133270880D01*
X175203740Y-133056630D01*
X175044990Y-132897880D01*
X174195740Y-132897880D01*
X173941740Y-132897880D01*
X173930714Y-132897880D01*
X173933740Y-132882668D01*
X173933740Y-132659092D01*
X173930714Y-132643880D01*
X173941740Y-132643880D01*
X173941740Y-131794630D01*
X174195740Y-131794630D01*
X174195740Y-132643880D01*
X175044990Y-132643880D01*
X175203740Y-132485130D01*
X175206812Y-132270880D01*
X175194552Y-132146398D01*
X175158242Y-132026700D01*
X175099277Y-131916386D01*
X175019925Y-131819695D01*
X174923234Y-131740343D01*
X174812920Y-131681378D01*
X174693222Y-131645068D01*
X174568740Y-131632808D01*
X174354490Y-131635880D01*
X174195740Y-131794630D01*
X173941740Y-131794630D01*
X173782990Y-131635880D01*
X173633740Y-131633740D01*
X173633740Y-131121287D01*
X174227121Y-130527908D01*
X174331862Y-130517592D01*
X174451560Y-130481282D01*
X174561874Y-130422317D01*
X174658565Y-130342965D01*
X174737917Y-130246274D01*
X174796882Y-130135960D01*
X174833192Y-130016262D01*
X174845452Y-129891780D01*
X174845452Y-129291780D01*
X174833192Y-129167298D01*
X174796882Y-129047600D01*
X174737917Y-128937286D01*
X174658565Y-128840595D01*
X174561874Y-128761243D01*
X174451560Y-128702278D01*
X174331862Y-128665968D01*
X174207380Y-128653708D01*
X173757380Y-128653708D01*
X173632898Y-128665968D01*
X173513200Y-128702278D01*
X173402886Y-128761243D01*
X173306195Y-128840595D01*
X173226843Y-128937286D01*
X173167878Y-129047600D01*
X173131568Y-129167298D01*
X173121252Y-129272039D01*
X172237314Y-130155979D01*
X172205450Y-130182129D01*
X172134356Y-130268758D01*
X172101104Y-130309275D01*
X172023568Y-130454334D01*
X171975822Y-130611732D01*
X171959700Y-130775420D01*
X171963741Y-130816448D01*
X171963741Y-131722548D01*
X171859807Y-131679497D01*
X171640528Y-131635880D01*
X171574608Y-131635880D01*
X168263321Y-128324593D01*
X168298143Y-128331520D01*
X168541417Y-128331520D01*
X168780016Y-128284060D01*
X169004772Y-128190963D01*
X169207047Y-128055807D01*
X169288254Y-127974600D01*
X169357329Y-128103828D01*
X169461554Y-128230826D01*
X169588552Y-128335051D01*
X169733444Y-128412498D01*
X169890660Y-128460189D01*
X170054160Y-128476292D01*
X170454160Y-128476292D01*
X170617660Y-128460189D01*
X170774876Y-128412498D01*
X170919768Y-128335051D01*
X171046766Y-128230826D01*
X171079160Y-128191354D01*
X171111554Y-128230826D01*
X171238552Y-128335051D01*
X171383444Y-128412498D01*
X171540660Y-128460189D01*
X171704160Y-128476292D01*
X172104160Y-128476292D01*
X172267660Y-128460189D01*
X172424876Y-128412498D01*
X172569768Y-128335051D01*
X172696766Y-128230826D01*
X172723525Y-128198220D01*
X173269474Y-128198220D01*
X173306195Y-128242965D01*
X173402886Y-128322317D01*
X173513200Y-128381282D01*
X173632898Y-128417592D01*
X173757380Y-128429852D01*
X174207380Y-128429852D01*
X174331862Y-128417592D01*
X174451560Y-128381282D01*
X174561874Y-128322317D01*
X174658565Y-128242965D01*
X174737917Y-128146274D01*
X174796882Y-128035960D01*
X174833192Y-127916262D01*
X174845452Y-127791780D01*
X174845452Y-127191780D01*
X174833192Y-127067298D01*
X174796882Y-126947600D01*
X174737917Y-126837286D01*
X174658565Y-126740595D01*
X174561874Y-126661243D01*
X174451560Y-126602278D01*
X174331862Y-126565968D01*
X174207380Y-126553708D01*
X174061703Y-126553708D01*
X174017509Y-126540302D01*
X173894839Y-126528220D01*
X173894838Y-126528220D01*
X173853820Y-126524180D01*
X173812802Y-126528220D01*
X172723525Y-126528220D01*
X172696766Y-126495614D01*
X172569768Y-126391389D01*
X172424876Y-126313942D01*
X172267660Y-126266251D01*
X172104160Y-126250148D01*
X171704160Y-126250148D01*
X171540660Y-126266251D01*
X171383444Y-126313942D01*
X171238552Y-126391389D01*
X171111554Y-126495614D01*
X171079160Y-126535086D01*
X171046766Y-126495614D01*
X170919768Y-126391389D01*
X170774876Y-126313942D01*
X170617660Y-126266251D01*
X170504960Y-126255151D01*
X170504960Y-125514941D01*
X170565466Y-125564597D01*
X170675780Y-125623562D01*
X170795478Y-125659872D01*
X170919960Y-125672132D01*
X171034210Y-125669060D01*
X171192960Y-125510310D01*
X171192960Y-124686060D01*
X171446960Y-124686060D01*
X171446960Y-125510310D01*
X171605710Y-125669060D01*
X171719960Y-125672132D01*
X171844442Y-125659872D01*
X171964140Y-125623562D01*
X172074454Y-125564597D01*
X172171145Y-125485245D01*
X172250497Y-125388554D01*
X172309462Y-125278240D01*
X172345772Y-125158542D01*
X172358032Y-125034060D01*
X172354960Y-124844810D01*
X172196210Y-124686060D01*
X171446960Y-124686060D01*
X171192960Y-124686060D01*
X171172960Y-124686060D01*
X171172960Y-124432060D01*
X171192960Y-124432060D01*
X171192960Y-124412060D01*
X171446960Y-124412060D01*
X171446960Y-124432060D01*
X172196210Y-124432060D01*
X172236770Y-124391500D01*
X172430723Y-124430080D01*
X172673997Y-124430080D01*
X172912596Y-124382620D01*
X173137352Y-124289523D01*
X173339627Y-124154367D01*
X173511647Y-123982347D01*
X173646803Y-123780072D01*
X173739900Y-123555316D01*
X173787360Y-123316717D01*
X173787360Y-123073443D01*
X173739900Y-122834844D01*
X173646803Y-122610088D01*
X173511647Y-122407813D01*
X173339627Y-122235793D01*
X173137352Y-122100637D01*
X172912596Y-122007540D01*
X172673997Y-121960080D01*
X172430723Y-121960080D01*
X172192124Y-122007540D01*
X171967368Y-122100637D01*
X171765093Y-122235793D01*
X171640806Y-122360080D01*
X169983828Y-122360080D01*
X168090883Y-120467136D01*
X168090879Y-120467131D01*
X168034999Y-120411251D01*
X168034999Y-119641019D01*
X168039039Y-119600000D01*
X168022917Y-119436312D01*
X167975171Y-119278914D01*
X167897635Y-119133855D01*
X167852546Y-119078914D01*
X167793290Y-119006710D01*
X167761427Y-118980561D01*
X166299455Y-117518590D01*
X166273291Y-117486709D01*
X166146146Y-117382364D01*
X166001087Y-117304828D01*
X165843689Y-117257082D01*
X165721019Y-117245000D01*
X165721018Y-117245000D01*
X165680000Y-117240960D01*
X165638981Y-117245000D01*
X150684368Y-117245000D01*
X150662115Y-117217885D01*
X150532275Y-117111329D01*
X150384142Y-117032150D01*
X150223408Y-116983392D01*
X150056250Y-116966928D01*
X149618750Y-116966928D01*
X149451592Y-116983392D01*
X149290858Y-117032150D01*
X149142725Y-117111329D01*
X149050000Y-117187426D01*
X148957275Y-117111329D01*
X148809142Y-117032150D01*
X148648408Y-116983392D01*
X148481250Y-116966928D01*
X148043750Y-116966928D01*
X147876592Y-116983392D01*
X147715858Y-117032150D01*
X147567725Y-117111329D01*
X147437885Y-117217885D01*
X147331329Y-117347725D01*
X147252150Y-117495858D01*
X147203392Y-117656592D01*
X147186928Y-117823750D01*
X147186928Y-118336250D01*
X147203392Y-118503408D01*
X147252150Y-118664142D01*
X147331329Y-118812275D01*
X147427500Y-118929461D01*
X147427500Y-119489378D01*
X147354494Y-119429463D01*
X147244180Y-119370498D01*
X147124482Y-119334188D01*
X147000000Y-119321928D01*
X146100000Y-119321928D01*
X145975518Y-119334188D01*
X145855820Y-119370498D01*
X145745506Y-119429463D01*
X145648815Y-119508815D01*
X145569463Y-119605506D01*
X145510498Y-119715820D01*
X145474188Y-119835518D01*
X145461928Y-119960000D01*
X145461928Y-120688562D01*
X145385000Y-120729681D01*
X145385000Y-115316429D01*
X145478363Y-115335000D01*
X145721637Y-115335000D01*
X145960236Y-115287540D01*
X146184992Y-115194443D01*
X146387267Y-115059287D01*
X146559287Y-114887267D01*
X146694443Y-114684992D01*
X146756572Y-114534999D01*
X149643428Y-114534999D01*
X149705557Y-114684992D01*
X149840713Y-114887267D01*
X150012733Y-115059287D01*
X150215008Y-115194443D01*
X150439764Y-115287540D01*
X150678363Y-115335000D01*
X150921637Y-115335000D01*
X151160236Y-115287540D01*
X151384992Y-115194443D01*
X151587267Y-115059287D01*
X151759287Y-114887267D01*
X151894443Y-114684992D01*
X151987540Y-114460236D01*
X152035000Y-114221637D01*
X152035000Y-113978363D01*
X152014056Y-113873072D01*
X152296250Y-113873072D01*
X152463408Y-113856608D01*
X152624142Y-113807850D01*
X152772275Y-113728671D01*
X152902115Y-113622115D01*
X153008671Y-113492275D01*
X153087850Y-113344142D01*
X153136608Y-113183408D01*
X153153072Y-113016250D01*
X153153072Y-112503750D01*
X153148952Y-112461916D01*
X153585868Y-112025000D01*
X153761637Y-112025000D01*
X154000236Y-111977540D01*
X154224992Y-111884443D01*
X154427267Y-111749287D01*
X154599287Y-111577267D01*
X154734443Y-111374992D01*
X154782944Y-111257899D01*
X154830381Y-111296829D01*
X154867554Y-111327336D01*
X155012613Y-111404872D01*
X155170011Y-111452618D01*
X155292681Y-111464700D01*
X155292682Y-111464700D01*
X155333700Y-111468740D01*
X155374718Y-111464700D01*
X156454432Y-111464700D01*
X156238574Y-111680559D01*
X156206710Y-111706709D01*
X156154313Y-111770555D01*
X156102364Y-111833855D01*
X156024828Y-111978914D01*
X155977082Y-112136312D01*
X155960960Y-112300000D01*
X155965001Y-112341028D01*
X155965000Y-113358981D01*
X155960960Y-113400000D01*
X155965000Y-113441018D01*
X155977082Y-113563688D01*
X156024828Y-113721086D01*
X156102364Y-113866145D01*
X156206709Y-113993291D01*
X156238579Y-114019446D01*
X157165000Y-114945868D01*
X157165000Y-115121637D01*
X157173624Y-115164991D01*
X154635000Y-115164991D01*
X154635000Y-115078363D01*
X154587540Y-114839764D01*
X154494443Y-114615008D01*
X154359287Y-114412733D01*
X154187267Y-114240713D01*
X153984992Y-114105557D01*
X153760236Y-114012460D01*
X153521637Y-113965000D01*
X153278363Y-113965000D01*
X153039764Y-114012460D01*
X152815008Y-114105557D01*
X152612733Y-114240713D01*
X152440713Y-114412733D01*
X152305557Y-114615008D01*
X152212460Y-114839764D01*
X152165000Y-115078363D01*
X152165000Y-115321637D01*
X152212460Y-115560236D01*
X152305557Y-115784992D01*
X152440713Y-115987267D01*
X152612733Y-116159287D01*
X152815008Y-116294443D01*
X153039764Y-116387540D01*
X153278363Y-116435000D01*
X153454132Y-116435000D01*
X153580549Y-116561417D01*
X153606700Y-116593282D01*
X153691195Y-116662625D01*
X153733845Y-116697627D01*
X153878904Y-116775163D01*
X154036302Y-116822909D01*
X154199990Y-116839031D01*
X154241009Y-116834991D01*
X168158973Y-116834991D01*
X168199991Y-116839031D01*
X168241009Y-116834991D01*
X168241010Y-116834991D01*
X168363680Y-116822909D01*
X168521078Y-116775163D01*
X168666137Y-116697627D01*
X168793282Y-116593282D01*
X168819437Y-116561412D01*
X169318790Y-116062060D01*
X170499662Y-116062060D01*
X170524686Y-116082597D01*
X170635000Y-116141562D01*
X170752021Y-116177060D01*
X170635000Y-116212558D01*
X170524686Y-116271523D01*
X170427995Y-116350875D01*
X170348643Y-116447566D01*
X170289678Y-116557880D01*
X170253368Y-116677578D01*
X170241108Y-116802060D01*
X170241108Y-117452060D01*
X170253368Y-117576542D01*
X170289678Y-117696240D01*
X170348643Y-117806554D01*
X170427995Y-117903245D01*
X170524686Y-117982597D01*
X170574180Y-118009053D01*
X170574181Y-119590252D01*
X170570140Y-119631280D01*
X170586262Y-119794968D01*
X170634008Y-119952366D01*
X170711544Y-120097425D01*
X170723883Y-120112460D01*
X170815890Y-120224571D01*
X170847754Y-120250721D01*
X170860160Y-120263127D01*
X170860160Y-120438897D01*
X170907620Y-120677496D01*
X171000717Y-120902252D01*
X171135873Y-121104527D01*
X171307893Y-121276547D01*
X171510168Y-121411703D01*
X171734924Y-121504800D01*
X171973523Y-121552260D01*
X172216797Y-121552260D01*
X172455396Y-121504800D01*
X172680152Y-121411703D01*
X172882427Y-121276547D01*
X173006714Y-121152260D01*
X173554222Y-121152260D01*
X173595240Y-121156300D01*
X173636258Y-121152260D01*
X173636259Y-121152260D01*
X173758929Y-121140178D01*
X173916327Y-121092432D01*
X174061386Y-121014896D01*
X174131829Y-120957085D01*
X174135498Y-120969180D01*
X174194463Y-121079494D01*
X174273815Y-121176185D01*
X174370506Y-121255537D01*
X174480820Y-121314502D01*
X174600518Y-121350812D01*
X174725000Y-121363072D01*
X174914250Y-121360000D01*
X175073000Y-121201250D01*
X175073000Y-120414500D01*
X175327000Y-120414500D01*
X175327000Y-121201250D01*
X175485750Y-121360000D01*
X175675000Y-121363072D01*
X175799482Y-121350812D01*
X175919180Y-121314502D01*
X176029494Y-121255537D01*
X176126185Y-121176185D01*
X176205537Y-121079494D01*
X176264502Y-120969180D01*
X176300812Y-120849482D01*
X176313072Y-120725000D01*
X176310000Y-120573250D01*
X176151250Y-120414500D01*
X175327000Y-120414500D01*
X175073000Y-120414500D01*
X175053000Y-120414500D01*
X175053000Y-120160500D01*
X175073000Y-120160500D01*
X175073000Y-120140500D01*
X175327000Y-120140500D01*
X175327000Y-120160500D01*
X176151250Y-120160500D01*
X176310000Y-120001750D01*
X176313072Y-119850000D01*
X176300812Y-119725518D01*
X176264502Y-119605820D01*
X176205537Y-119495506D01*
X176150900Y-119428930D01*
X176168671Y-119407275D01*
X176247850Y-119259142D01*
X176296608Y-119098408D01*
X176313072Y-118931250D01*
X176313072Y-118493750D01*
X176296608Y-118326592D01*
X176247850Y-118165858D01*
X176203975Y-118083774D01*
X178246442Y-116041309D01*
X178278301Y-116015163D01*
X178312355Y-115973669D01*
X178382646Y-115888018D01*
X178460182Y-115742959D01*
X178507928Y-115585561D01*
X178511613Y-115548146D01*
X178520010Y-115462891D01*
X178524050Y-115421872D01*
X178520010Y-115380854D01*
X178520010Y-109476965D01*
X179579688Y-111577323D01*
G04 #@! TA.AperFunction,Conductor*
D23*
G36*
X179579688Y-111577323D02*
G01*
X179873362Y-112393620D01*
X180335507Y-114119948D01*
X180651576Y-115878894D01*
X180819351Y-117658115D01*
X180837657Y-119445133D01*
X180706365Y-121227409D01*
X180426394Y-122992463D01*
X179999708Y-124727900D01*
X179834986Y-125216991D01*
X179794156Y-125118419D01*
X179581235Y-124799761D01*
X179310239Y-124528765D01*
X178991581Y-124315844D01*
X178637507Y-124169182D01*
X178261624Y-124094414D01*
X177878376Y-124094414D01*
X177502493Y-124169182D01*
X177148419Y-124315844D01*
X176829761Y-124528765D01*
X176558765Y-124799761D01*
X176345844Y-125118419D01*
X176199182Y-125472493D01*
X176124414Y-125848376D01*
X176124414Y-126231624D01*
X176199182Y-126607507D01*
X176345844Y-126961581D01*
X176558765Y-127280239D01*
X176829761Y-127551235D01*
X177148419Y-127764156D01*
X177502493Y-127910818D01*
X177878376Y-127985586D01*
X178261624Y-127985586D01*
X178584165Y-127921428D01*
X177172882Y-130715881D01*
X176900651Y-131134870D01*
X175798611Y-132554941D01*
X175549965Y-132842900D01*
X175546423Y-132845740D01*
X175462809Y-132945291D01*
X175400220Y-133059242D01*
X175370877Y-133152152D01*
X174865141Y-135551461D01*
X174854589Y-135586246D01*
X174848582Y-135647236D01*
X174841889Y-135708073D01*
X174845039Y-135744277D01*
X174845040Y-138221321D01*
X174587021Y-139443000D01*
X166868958Y-139443000D01*
X166873193Y-139400000D01*
X166870000Y-139367581D01*
X166870000Y-138182419D01*
X166873193Y-138150000D01*
X166860450Y-138020617D01*
X166822710Y-137896207D01*
X166761425Y-137781550D01*
X166678948Y-137681052D01*
X166578450Y-137598575D01*
X166463793Y-137537290D01*
X166339383Y-137499550D01*
X166242419Y-137490000D01*
X166210000Y-137486807D01*
X166177581Y-137490000D01*
X152842419Y-137490000D01*
X152810000Y-137486807D01*
X152777581Y-137490000D01*
X152680617Y-137499550D01*
X152556207Y-137537290D01*
X152441550Y-137598575D01*
X152341052Y-137681052D01*
X152258575Y-137781550D01*
X152197290Y-137896207D01*
X152159550Y-138020617D01*
X152146807Y-138150000D01*
X152150000Y-138182420D01*
X152150001Y-139367571D01*
X152146807Y-139400000D01*
X152151042Y-139443000D01*
X144432852Y-139443000D01*
X144170000Y-138205816D01*
X144170000Y-135925289D01*
X145877660Y-137632951D01*
X145877660Y-137784868D01*
X145921277Y-138004147D01*
X146006836Y-138210704D01*
X146131048Y-138396600D01*
X146289140Y-138554692D01*
X146475036Y-138678904D01*
X146681593Y-138764463D01*
X146900872Y-138808080D01*
X147124448Y-138808080D01*
X147343727Y-138764463D01*
X147550284Y-138678904D01*
X147736180Y-138554692D01*
X147894272Y-138396600D01*
X148018484Y-138210704D01*
X148104043Y-138004147D01*
X148147660Y-137784868D01*
X148147660Y-137561292D01*
X148104043Y-137342013D01*
X148018484Y-137135456D01*
X147953419Y-137038080D01*
X148018484Y-136940704D01*
X148104043Y-136734147D01*
X148147660Y-136514868D01*
X148147660Y-136448948D01*
X148161608Y-136435000D01*
X149858982Y-136435000D01*
X149900000Y-136439040D01*
X149941018Y-136435000D01*
X149941019Y-136435000D01*
X150063689Y-136422918D01*
X150221087Y-136375172D01*
X150366146Y-136297636D01*
X150493291Y-136193291D01*
X150519446Y-136161422D01*
X151161426Y-135519442D01*
X151193291Y-135493291D01*
X151297636Y-135366146D01*
X151375172Y-135221087D01*
X151422918Y-135063689D01*
X151435000Y-134941019D01*
X151435000Y-134941009D01*
X151439039Y-134900001D01*
X151435000Y-134858993D01*
X151435000Y-133245867D01*
X157097225Y-127583643D01*
X157112460Y-127660236D01*
X157205557Y-127884992D01*
X157340713Y-128087267D01*
X157512733Y-128259287D01*
X157715008Y-128394443D01*
X157939764Y-128487540D01*
X158178363Y-128535000D01*
X158421637Y-128535000D01*
X158660236Y-128487540D01*
X158884992Y-128394443D01*
X159087267Y-128259287D01*
X159211554Y-128135000D01*
X160358982Y-128135000D01*
X160400000Y-128139040D01*
X160441018Y-128135000D01*
X160441019Y-128135000D01*
X160563689Y-128122918D01*
X160721087Y-128075172D01*
X160866146Y-127997636D01*
X160993291Y-127893291D01*
X161019446Y-127861421D01*
X164095869Y-124785000D01*
X164271637Y-124785000D01*
X164510236Y-124737540D01*
X164734992Y-124644443D01*
X164937267Y-124509287D01*
X165109287Y-124337267D01*
X165244443Y-124134992D01*
X165337540Y-123910236D01*
X165364980Y-123772286D01*
X165364979Y-131508960D01*
X165360939Y-131549979D01*
X165364979Y-131590997D01*
X165377061Y-131713667D01*
X165424807Y-131871065D01*
X165502343Y-132016124D01*
X165606688Y-132143270D01*
X165638558Y-132169425D01*
X169495000Y-136025869D01*
X169495000Y-136201637D01*
X169542460Y-136440236D01*
X169635557Y-136664992D01*
X169770713Y-136867267D01*
X169942733Y-137039287D01*
X170145008Y-137174443D01*
X170369764Y-137267540D01*
X170608363Y-137315000D01*
X170851637Y-137315000D01*
X171090236Y-137267540D01*
X171314992Y-137174443D01*
X171517267Y-137039287D01*
X171689287Y-136867267D01*
X171824443Y-136664992D01*
X171917540Y-136440236D01*
X171965000Y-136201637D01*
X171965000Y-135958363D01*
X171917540Y-135719764D01*
X171824443Y-135495008D01*
X171689287Y-135292733D01*
X171517267Y-135120713D01*
X171314992Y-134985557D01*
X171090236Y-134892460D01*
X170851637Y-134845000D01*
X170675869Y-134845000D01*
X167034979Y-131204112D01*
X167034979Y-129457986D01*
X170393740Y-132816748D01*
X170393740Y-132882668D01*
X170437357Y-133101947D01*
X170522916Y-133308504D01*
X170647128Y-133494400D01*
X170805220Y-133652492D01*
X170991116Y-133776704D01*
X171197673Y-133862263D01*
X171416952Y-133905880D01*
X171640528Y-133905880D01*
X171859807Y-133862263D01*
X172066364Y-133776704D01*
X172163740Y-133711639D01*
X172261116Y-133776704D01*
X172467673Y-133862263D01*
X172686952Y-133905880D01*
X172910528Y-133905880D01*
X173129807Y-133862263D01*
X173241514Y-133815992D01*
X173324560Y-133860382D01*
X173444258Y-133896692D01*
X173568740Y-133908952D01*
X173782990Y-133905880D01*
X173941740Y-133747130D01*
X173941740Y-132897880D01*
X174195740Y-132897880D01*
X174195740Y-133747130D01*
X174354490Y-133905880D01*
X174568740Y-133908952D01*
X174693222Y-133896692D01*
X174812920Y-133860382D01*
X174923234Y-133801417D01*
X175019925Y-133722065D01*
X175099277Y-133625374D01*
X175158242Y-133515060D01*
X175194552Y-133395362D01*
X175206812Y-133270880D01*
X175203740Y-133056630D01*
X175044990Y-132897880D01*
X174195740Y-132897880D01*
X173941740Y-132897880D01*
X173930714Y-132897880D01*
X173933740Y-132882668D01*
X173933740Y-132659092D01*
X173930714Y-132643880D01*
X173941740Y-132643880D01*
X173941740Y-131794630D01*
X174195740Y-131794630D01*
X174195740Y-132643880D01*
X175044990Y-132643880D01*
X175203740Y-132485130D01*
X175206812Y-132270880D01*
X175194552Y-132146398D01*
X175158242Y-132026700D01*
X175099277Y-131916386D01*
X175019925Y-131819695D01*
X174923234Y-131740343D01*
X174812920Y-131681378D01*
X174693222Y-131645068D01*
X174568740Y-131632808D01*
X174354490Y-131635880D01*
X174195740Y-131794630D01*
X173941740Y-131794630D01*
X173782990Y-131635880D01*
X173633740Y-131633740D01*
X173633740Y-131121287D01*
X174227121Y-130527908D01*
X174331862Y-130517592D01*
X174451560Y-130481282D01*
X174561874Y-130422317D01*
X174658565Y-130342965D01*
X174737917Y-130246274D01*
X174796882Y-130135960D01*
X174833192Y-130016262D01*
X174845452Y-129891780D01*
X174845452Y-129291780D01*
X174833192Y-129167298D01*
X174796882Y-129047600D01*
X174737917Y-128937286D01*
X174658565Y-128840595D01*
X174561874Y-128761243D01*
X174451560Y-128702278D01*
X174331862Y-128665968D01*
X174207380Y-128653708D01*
X173757380Y-128653708D01*
X173632898Y-128665968D01*
X173513200Y-128702278D01*
X173402886Y-128761243D01*
X173306195Y-128840595D01*
X173226843Y-128937286D01*
X173167878Y-129047600D01*
X173131568Y-129167298D01*
X173121252Y-129272039D01*
X172237314Y-130155979D01*
X172205450Y-130182129D01*
X172134356Y-130268758D01*
X172101104Y-130309275D01*
X172023568Y-130454334D01*
X171975822Y-130611732D01*
X171959700Y-130775420D01*
X171963741Y-130816448D01*
X171963741Y-131722548D01*
X171859807Y-131679497D01*
X171640528Y-131635880D01*
X171574608Y-131635880D01*
X168263321Y-128324593D01*
X168298143Y-128331520D01*
X168541417Y-128331520D01*
X168780016Y-128284060D01*
X169004772Y-128190963D01*
X169207047Y-128055807D01*
X169288254Y-127974600D01*
X169357329Y-128103828D01*
X169461554Y-128230826D01*
X169588552Y-128335051D01*
X169733444Y-128412498D01*
X169890660Y-128460189D01*
X170054160Y-128476292D01*
X170454160Y-128476292D01*
X170617660Y-128460189D01*
X170774876Y-128412498D01*
X170919768Y-128335051D01*
X171046766Y-128230826D01*
X171079160Y-128191354D01*
X171111554Y-128230826D01*
X171238552Y-128335051D01*
X171383444Y-128412498D01*
X171540660Y-128460189D01*
X171704160Y-128476292D01*
X172104160Y-128476292D01*
X172267660Y-128460189D01*
X172424876Y-128412498D01*
X172569768Y-128335051D01*
X172696766Y-128230826D01*
X172723525Y-128198220D01*
X173269474Y-128198220D01*
X173306195Y-128242965D01*
X173402886Y-128322317D01*
X173513200Y-128381282D01*
X173632898Y-128417592D01*
X173757380Y-128429852D01*
X174207380Y-128429852D01*
X174331862Y-128417592D01*
X174451560Y-128381282D01*
X174561874Y-128322317D01*
X174658565Y-128242965D01*
X174737917Y-128146274D01*
X174796882Y-128035960D01*
X174833192Y-127916262D01*
X174845452Y-127791780D01*
X174845452Y-127191780D01*
X174833192Y-127067298D01*
X174796882Y-126947600D01*
X174737917Y-126837286D01*
X174658565Y-126740595D01*
X174561874Y-126661243D01*
X174451560Y-126602278D01*
X174331862Y-126565968D01*
X174207380Y-126553708D01*
X174061703Y-126553708D01*
X174017509Y-126540302D01*
X173894839Y-126528220D01*
X173894838Y-126528220D01*
X173853820Y-126524180D01*
X173812802Y-126528220D01*
X172723525Y-126528220D01*
X172696766Y-126495614D01*
X172569768Y-126391389D01*
X172424876Y-126313942D01*
X172267660Y-126266251D01*
X172104160Y-126250148D01*
X171704160Y-126250148D01*
X171540660Y-126266251D01*
X171383444Y-126313942D01*
X171238552Y-126391389D01*
X171111554Y-126495614D01*
X171079160Y-126535086D01*
X171046766Y-126495614D01*
X170919768Y-126391389D01*
X170774876Y-126313942D01*
X170617660Y-126266251D01*
X170504960Y-126255151D01*
X170504960Y-125514941D01*
X170565466Y-125564597D01*
X170675780Y-125623562D01*
X170795478Y-125659872D01*
X170919960Y-125672132D01*
X171034210Y-125669060D01*
X171192960Y-125510310D01*
X171192960Y-124686060D01*
X171446960Y-124686060D01*
X171446960Y-125510310D01*
X171605710Y-125669060D01*
X171719960Y-125672132D01*
X171844442Y-125659872D01*
X171964140Y-125623562D01*
X172074454Y-125564597D01*
X172171145Y-125485245D01*
X172250497Y-125388554D01*
X172309462Y-125278240D01*
X172345772Y-125158542D01*
X172358032Y-125034060D01*
X172354960Y-124844810D01*
X172196210Y-124686060D01*
X171446960Y-124686060D01*
X171192960Y-124686060D01*
X171172960Y-124686060D01*
X171172960Y-124432060D01*
X171192960Y-124432060D01*
X171192960Y-124412060D01*
X171446960Y-124412060D01*
X171446960Y-124432060D01*
X172196210Y-124432060D01*
X172236770Y-124391500D01*
X172430723Y-124430080D01*
X172673997Y-124430080D01*
X172912596Y-124382620D01*
X173137352Y-124289523D01*
X173339627Y-124154367D01*
X173511647Y-123982347D01*
X173646803Y-123780072D01*
X173739900Y-123555316D01*
X173787360Y-123316717D01*
X173787360Y-123073443D01*
X173739900Y-122834844D01*
X173646803Y-122610088D01*
X173511647Y-122407813D01*
X173339627Y-122235793D01*
X173137352Y-122100637D01*
X172912596Y-122007540D01*
X172673997Y-121960080D01*
X172430723Y-121960080D01*
X172192124Y-122007540D01*
X171967368Y-122100637D01*
X171765093Y-122235793D01*
X171640806Y-122360080D01*
X169983828Y-122360080D01*
X168090883Y-120467136D01*
X168090879Y-120467131D01*
X168034999Y-120411251D01*
X168034999Y-119641019D01*
X168039039Y-119600000D01*
X168022917Y-119436312D01*
X167975171Y-119278914D01*
X167897635Y-119133855D01*
X167852546Y-119078914D01*
X167793290Y-119006710D01*
X167761427Y-118980561D01*
X166299455Y-117518590D01*
X166273291Y-117486709D01*
X166146146Y-117382364D01*
X166001087Y-117304828D01*
X165843689Y-117257082D01*
X165721019Y-117245000D01*
X165721018Y-117245000D01*
X165680000Y-117240960D01*
X165638981Y-117245000D01*
X150684368Y-117245000D01*
X150662115Y-117217885D01*
X150532275Y-117111329D01*
X150384142Y-117032150D01*
X150223408Y-116983392D01*
X150056250Y-116966928D01*
X149618750Y-116966928D01*
X149451592Y-116983392D01*
X149290858Y-117032150D01*
X149142725Y-117111329D01*
X149050000Y-117187426D01*
X148957275Y-117111329D01*
X148809142Y-117032150D01*
X148648408Y-116983392D01*
X148481250Y-116966928D01*
X148043750Y-116966928D01*
X147876592Y-116983392D01*
X147715858Y-117032150D01*
X147567725Y-117111329D01*
X147437885Y-117217885D01*
X147331329Y-117347725D01*
X147252150Y-117495858D01*
X147203392Y-117656592D01*
X147186928Y-117823750D01*
X147186928Y-118336250D01*
X147203392Y-118503408D01*
X147252150Y-118664142D01*
X147331329Y-118812275D01*
X147427500Y-118929461D01*
X147427500Y-119489378D01*
X147354494Y-119429463D01*
X147244180Y-119370498D01*
X147124482Y-119334188D01*
X147000000Y-119321928D01*
X146100000Y-119321928D01*
X145975518Y-119334188D01*
X145855820Y-119370498D01*
X145745506Y-119429463D01*
X145648815Y-119508815D01*
X145569463Y-119605506D01*
X145510498Y-119715820D01*
X145474188Y-119835518D01*
X145461928Y-119960000D01*
X145461928Y-120688562D01*
X145385000Y-120729681D01*
X145385000Y-115316429D01*
X145478363Y-115335000D01*
X145721637Y-115335000D01*
X145960236Y-115287540D01*
X146184992Y-115194443D01*
X146387267Y-115059287D01*
X146559287Y-114887267D01*
X146694443Y-114684992D01*
X146756572Y-114534999D01*
X149643428Y-114534999D01*
X149705557Y-114684992D01*
X149840713Y-114887267D01*
X150012733Y-115059287D01*
X150215008Y-115194443D01*
X150439764Y-115287540D01*
X150678363Y-115335000D01*
X150921637Y-115335000D01*
X151160236Y-115287540D01*
X151384992Y-115194443D01*
X151587267Y-115059287D01*
X151759287Y-114887267D01*
X151894443Y-114684992D01*
X151987540Y-114460236D01*
X152035000Y-114221637D01*
X152035000Y-113978363D01*
X152014056Y-113873072D01*
X152296250Y-113873072D01*
X152463408Y-113856608D01*
X152624142Y-113807850D01*
X152772275Y-113728671D01*
X152902115Y-113622115D01*
X153008671Y-113492275D01*
X153087850Y-113344142D01*
X153136608Y-113183408D01*
X153153072Y-113016250D01*
X153153072Y-112503750D01*
X153148952Y-112461916D01*
X153585868Y-112025000D01*
X153761637Y-112025000D01*
X154000236Y-111977540D01*
X154224992Y-111884443D01*
X154427267Y-111749287D01*
X154599287Y-111577267D01*
X154734443Y-111374992D01*
X154782944Y-111257899D01*
X154830381Y-111296829D01*
X154867554Y-111327336D01*
X155012613Y-111404872D01*
X155170011Y-111452618D01*
X155292681Y-111464700D01*
X155292682Y-111464700D01*
X155333700Y-111468740D01*
X155374718Y-111464700D01*
X156454432Y-111464700D01*
X156238574Y-111680559D01*
X156206710Y-111706709D01*
X156154313Y-111770555D01*
X156102364Y-111833855D01*
X156024828Y-111978914D01*
X155977082Y-112136312D01*
X155960960Y-112300000D01*
X155965001Y-112341028D01*
X155965000Y-113358981D01*
X155960960Y-113400000D01*
X155965000Y-113441018D01*
X155977082Y-113563688D01*
X156024828Y-113721086D01*
X156102364Y-113866145D01*
X156206709Y-113993291D01*
X156238579Y-114019446D01*
X157165000Y-114945868D01*
X157165000Y-115121637D01*
X157173624Y-115164991D01*
X154635000Y-115164991D01*
X154635000Y-115078363D01*
X154587540Y-114839764D01*
X154494443Y-114615008D01*
X154359287Y-114412733D01*
X154187267Y-114240713D01*
X153984992Y-114105557D01*
X153760236Y-114012460D01*
X153521637Y-113965000D01*
X153278363Y-113965000D01*
X153039764Y-114012460D01*
X152815008Y-114105557D01*
X152612733Y-114240713D01*
X152440713Y-114412733D01*
X152305557Y-114615008D01*
X152212460Y-114839764D01*
X152165000Y-115078363D01*
X152165000Y-115321637D01*
X152212460Y-115560236D01*
X152305557Y-115784992D01*
X152440713Y-115987267D01*
X152612733Y-116159287D01*
X152815008Y-116294443D01*
X153039764Y-116387540D01*
X153278363Y-116435000D01*
X153454132Y-116435000D01*
X153580549Y-116561417D01*
X153606700Y-116593282D01*
X153691195Y-116662625D01*
X153733845Y-116697627D01*
X153878904Y-116775163D01*
X154036302Y-116822909D01*
X154199990Y-116839031D01*
X154241009Y-116834991D01*
X168158973Y-116834991D01*
X168199991Y-116839031D01*
X168241009Y-116834991D01*
X168241010Y-116834991D01*
X168363680Y-116822909D01*
X168521078Y-116775163D01*
X168666137Y-116697627D01*
X168793282Y-116593282D01*
X168819437Y-116561412D01*
X169318790Y-116062060D01*
X170499662Y-116062060D01*
X170524686Y-116082597D01*
X170635000Y-116141562D01*
X170752021Y-116177060D01*
X170635000Y-116212558D01*
X170524686Y-116271523D01*
X170427995Y-116350875D01*
X170348643Y-116447566D01*
X170289678Y-116557880D01*
X170253368Y-116677578D01*
X170241108Y-116802060D01*
X170241108Y-117452060D01*
X170253368Y-117576542D01*
X170289678Y-117696240D01*
X170348643Y-117806554D01*
X170427995Y-117903245D01*
X170524686Y-117982597D01*
X170574180Y-118009053D01*
X170574181Y-119590252D01*
X170570140Y-119631280D01*
X170586262Y-119794968D01*
X170634008Y-119952366D01*
X170711544Y-120097425D01*
X170723883Y-120112460D01*
X170815890Y-120224571D01*
X170847754Y-120250721D01*
X170860160Y-120263127D01*
X170860160Y-120438897D01*
X170907620Y-120677496D01*
X171000717Y-120902252D01*
X171135873Y-121104527D01*
X171307893Y-121276547D01*
X171510168Y-121411703D01*
X171734924Y-121504800D01*
X171973523Y-121552260D01*
X172216797Y-121552260D01*
X172455396Y-121504800D01*
X172680152Y-121411703D01*
X172882427Y-121276547D01*
X173006714Y-121152260D01*
X173554222Y-121152260D01*
X173595240Y-121156300D01*
X173636258Y-121152260D01*
X173636259Y-121152260D01*
X173758929Y-121140178D01*
X173916327Y-121092432D01*
X174061386Y-121014896D01*
X174131829Y-120957085D01*
X174135498Y-120969180D01*
X174194463Y-121079494D01*
X174273815Y-121176185D01*
X174370506Y-121255537D01*
X174480820Y-121314502D01*
X174600518Y-121350812D01*
X174725000Y-121363072D01*
X174914250Y-121360000D01*
X175073000Y-121201250D01*
X175073000Y-120414500D01*
X175327000Y-120414500D01*
X175327000Y-121201250D01*
X175485750Y-121360000D01*
X175675000Y-121363072D01*
X175799482Y-121350812D01*
X175919180Y-121314502D01*
X176029494Y-121255537D01*
X176126185Y-121176185D01*
X176205537Y-121079494D01*
X176264502Y-120969180D01*
X176300812Y-120849482D01*
X176313072Y-120725000D01*
X176310000Y-120573250D01*
X176151250Y-120414500D01*
X175327000Y-120414500D01*
X175073000Y-120414500D01*
X175053000Y-120414500D01*
X175053000Y-120160500D01*
X175073000Y-120160500D01*
X175073000Y-120140500D01*
X175327000Y-120140500D01*
X175327000Y-120160500D01*
X176151250Y-120160500D01*
X176310000Y-120001750D01*
X176313072Y-119850000D01*
X176300812Y-119725518D01*
X176264502Y-119605820D01*
X176205537Y-119495506D01*
X176150900Y-119428930D01*
X176168671Y-119407275D01*
X176247850Y-119259142D01*
X176296608Y-119098408D01*
X176313072Y-118931250D01*
X176313072Y-118493750D01*
X176296608Y-118326592D01*
X176247850Y-118165858D01*
X176203975Y-118083774D01*
X178246442Y-116041309D01*
X178278301Y-116015163D01*
X178312355Y-115973669D01*
X178382646Y-115888018D01*
X178460182Y-115742959D01*
X178507928Y-115585561D01*
X178511613Y-115548146D01*
X178520010Y-115462891D01*
X178524050Y-115421872D01*
X178520010Y-115380854D01*
X178520010Y-109476965D01*
X179579688Y-111577323D01*
G37*
G04 #@! TD.AperFunction*
D22*
X146061273Y-131642141D02*
X145982123Y-131738586D01*
X145923158Y-131848900D01*
X145886848Y-131968598D01*
X145874588Y-132093080D01*
X145874588Y-133093080D01*
X145886848Y-133217562D01*
X145923158Y-133337260D01*
X145967548Y-133420306D01*
X145921277Y-133532013D01*
X145877660Y-133751292D01*
X145877660Y-133974868D01*
X145921277Y-134194147D01*
X146006836Y-134400704D01*
X146075013Y-134502738D01*
X146025537Y-134572874D01*
X145935214Y-134776216D01*
X145918541Y-134831206D01*
X146044706Y-135006080D01*
X146885660Y-135006080D01*
X146885660Y-134995054D01*
X146900872Y-134998080D01*
X147124448Y-134998080D01*
X147139660Y-134995054D01*
X147139660Y-135006080D01*
X147159660Y-135006080D01*
X147159660Y-135075211D01*
X146966792Y-135268080D01*
X146900872Y-135268080D01*
X146885660Y-135271106D01*
X146885660Y-135260080D01*
X146044706Y-135260080D01*
X145970031Y-135363585D01*
X145335000Y-134728555D01*
X145335000Y-134544365D01*
X145367606Y-134517606D01*
X145471831Y-134390608D01*
X145549278Y-134245716D01*
X145596969Y-134088500D01*
X145613072Y-133925000D01*
X145613072Y-133525000D01*
X145596969Y-133361500D01*
X145549278Y-133204284D01*
X145471831Y-133059392D01*
X145367606Y-132932394D01*
X145328134Y-132900000D01*
X145367606Y-132867606D01*
X145471831Y-132740608D01*
X145549278Y-132595716D01*
X145596969Y-132438500D01*
X145613072Y-132275000D01*
X145613072Y-131875000D01*
X145596969Y-131711500D01*
X145549278Y-131554284D01*
X145471831Y-131409392D01*
X145367606Y-131282394D01*
X145336375Y-131256763D01*
X145339040Y-131229705D01*
X145322918Y-131066017D01*
X145321383Y-131060955D01*
X145275172Y-130908618D01*
X145214796Y-130795664D01*
X146061273Y-131642141D01*
G04 #@! TA.AperFunction,Conductor*
D23*
G36*
X146061273Y-131642141D02*
G01*
X145982123Y-131738586D01*
X145923158Y-131848900D01*
X145886848Y-131968598D01*
X145874588Y-132093080D01*
X145874588Y-133093080D01*
X145886848Y-133217562D01*
X145923158Y-133337260D01*
X145967548Y-133420306D01*
X145921277Y-133532013D01*
X145877660Y-133751292D01*
X145877660Y-133974868D01*
X145921277Y-134194147D01*
X146006836Y-134400704D01*
X146075013Y-134502738D01*
X146025537Y-134572874D01*
X145935214Y-134776216D01*
X145918541Y-134831206D01*
X146044706Y-135006080D01*
X146885660Y-135006080D01*
X146885660Y-134995054D01*
X146900872Y-134998080D01*
X147124448Y-134998080D01*
X147139660Y-134995054D01*
X147139660Y-135006080D01*
X147159660Y-135006080D01*
X147159660Y-135075211D01*
X146966792Y-135268080D01*
X146900872Y-135268080D01*
X146885660Y-135271106D01*
X146885660Y-135260080D01*
X146044706Y-135260080D01*
X145970031Y-135363585D01*
X145335000Y-134728555D01*
X145335000Y-134544365D01*
X145367606Y-134517606D01*
X145471831Y-134390608D01*
X145549278Y-134245716D01*
X145596969Y-134088500D01*
X145613072Y-133925000D01*
X145613072Y-133525000D01*
X145596969Y-133361500D01*
X145549278Y-133204284D01*
X145471831Y-133059392D01*
X145367606Y-132932394D01*
X145328134Y-132900000D01*
X145367606Y-132867606D01*
X145471831Y-132740608D01*
X145549278Y-132595716D01*
X145596969Y-132438500D01*
X145613072Y-132275000D01*
X145613072Y-131875000D01*
X145596969Y-131711500D01*
X145549278Y-131554284D01*
X145471831Y-131409392D01*
X145367606Y-131282394D01*
X145336375Y-131256763D01*
X145339040Y-131229705D01*
X145322918Y-131066017D01*
X145321383Y-131060955D01*
X145275172Y-130908618D01*
X145214796Y-130795664D01*
X146061273Y-131642141D01*
G37*
G04 #@! TD.AperFunction*
D22*
X149765001Y-134554132D02*
X149554133Y-134765000D01*
X148085124Y-134765000D01*
X148044163Y-134672786D01*
X148158007Y-134638252D01*
X148303066Y-134560716D01*
X148430211Y-134456371D01*
X148456366Y-134424502D01*
X149765000Y-133115869D01*
X149765001Y-134554132D01*
G04 #@! TA.AperFunction,Conductor*
D23*
G36*
X149765001Y-134554132D02*
G01*
X149554133Y-134765000D01*
X148085124Y-134765000D01*
X148044163Y-134672786D01*
X148158007Y-134638252D01*
X148303066Y-134560716D01*
X148430211Y-134456371D01*
X148456366Y-134424502D01*
X149765000Y-133115869D01*
X149765001Y-134554132D01*
G37*
G04 #@! TD.AperFunction*
D22*
X152212460Y-119039764D02*
X152165000Y-119278363D01*
X152165000Y-119521637D01*
X152212460Y-119760236D01*
X152305557Y-119984992D01*
X152440713Y-120187267D01*
X152612733Y-120359287D01*
X152815008Y-120494443D01*
X153039764Y-120587540D01*
X153278363Y-120635000D01*
X153521637Y-120635000D01*
X153760236Y-120587540D01*
X153984992Y-120494443D01*
X154187267Y-120359287D01*
X154359287Y-120187267D01*
X154494443Y-119984992D01*
X154587540Y-119760236D01*
X154612451Y-119635001D01*
X163811324Y-119635001D01*
X163776100Y-119812083D01*
X163776100Y-120055357D01*
X163823560Y-120293956D01*
X163905458Y-120491676D01*
X163719482Y-120677652D01*
X163609287Y-120512733D01*
X163437267Y-120340713D01*
X163234992Y-120205557D01*
X163010236Y-120112460D01*
X162771637Y-120065000D01*
X162528363Y-120065000D01*
X162289764Y-120112460D01*
X162065008Y-120205557D01*
X161862733Y-120340713D01*
X161738446Y-120465000D01*
X160441007Y-120465000D01*
X160399999Y-120460961D01*
X160358991Y-120465000D01*
X160358981Y-120465000D01*
X160236311Y-120477082D01*
X160078913Y-120524828D01*
X159933854Y-120602364D01*
X159806709Y-120706709D01*
X159780559Y-120738573D01*
X150296066Y-130223067D01*
X150284443Y-130195008D01*
X150149287Y-129992733D01*
X149977267Y-129820713D01*
X149774992Y-129685557D01*
X149550236Y-129592460D01*
X149311637Y-129545000D01*
X149135868Y-129545000D01*
X147890000Y-128299133D01*
X147890000Y-127496018D01*
X147894040Y-127455000D01*
X147877918Y-127291311D01*
X147846338Y-127187206D01*
X148723978Y-128064846D01*
X148750128Y-128096710D01*
X148877273Y-128201055D01*
X149022332Y-128278591D01*
X149179730Y-128326337D01*
X149268205Y-128335051D01*
X149343419Y-128342459D01*
X149384437Y-128338419D01*
X149654895Y-128338419D01*
X149668730Y-128371819D01*
X149803886Y-128574094D01*
X149975906Y-128746114D01*
X150178181Y-128881270D01*
X150402937Y-128974367D01*
X150641536Y-129021827D01*
X150884810Y-129021827D01*
X151123409Y-128974367D01*
X151348165Y-128881270D01*
X151550440Y-128746114D01*
X151722460Y-128574094D01*
X151857616Y-128371819D01*
X151950713Y-128147063D01*
X151998173Y-127908464D01*
X151998173Y-127665190D01*
X151950713Y-127426591D01*
X151857616Y-127201835D01*
X151722460Y-126999560D01*
X151550440Y-126827540D01*
X151348165Y-126692384D01*
X151123409Y-126599287D01*
X150884810Y-126551827D01*
X150679477Y-126551827D01*
X150741185Y-126501185D01*
X150820537Y-126404494D01*
X150879502Y-126294180D01*
X150915812Y-126174482D01*
X150928072Y-126050000D01*
X150928072Y-124850000D01*
X150915812Y-124725518D01*
X150879502Y-124605820D01*
X150820537Y-124495506D01*
X150741185Y-124398815D01*
X150675000Y-124344499D01*
X150675000Y-124175501D01*
X150741185Y-124121185D01*
X150820537Y-124024494D01*
X150879502Y-123914180D01*
X150915812Y-123794482D01*
X150928072Y-123670000D01*
X150928072Y-122470000D01*
X150915812Y-122345518D01*
X150879502Y-122225820D01*
X150820537Y-122115506D01*
X150741185Y-122018815D01*
X150644494Y-121939463D01*
X150534180Y-121880498D01*
X150414482Y-121844188D01*
X150290000Y-121831928D01*
X149390000Y-121831928D01*
X149265518Y-121844188D01*
X149145820Y-121880498D01*
X149103817Y-121902949D01*
X149097500Y-121896632D01*
X149097500Y-121718329D01*
X149155820Y-121749502D01*
X149275518Y-121785812D01*
X149400000Y-121798072D01*
X150300000Y-121798072D01*
X150424482Y-121785812D01*
X150544180Y-121749502D01*
X150654494Y-121690537D01*
X150751185Y-121611185D01*
X150830537Y-121514494D01*
X150889502Y-121404180D01*
X150925812Y-121284482D01*
X150938072Y-121160000D01*
X150938072Y-119960000D01*
X150925812Y-119835518D01*
X150889502Y-119715820D01*
X150830537Y-119605506D01*
X150751185Y-119508815D01*
X150685000Y-119454499D01*
X150685000Y-118915000D01*
X152264139Y-118915000D01*
X152212460Y-119039764D01*
G04 #@! TA.AperFunction,Conductor*
D23*
G36*
X152212460Y-119039764D02*
G01*
X152165000Y-119278363D01*
X152165000Y-119521637D01*
X152212460Y-119760236D01*
X152305557Y-119984992D01*
X152440713Y-120187267D01*
X152612733Y-120359287D01*
X152815008Y-120494443D01*
X153039764Y-120587540D01*
X153278363Y-120635000D01*
X153521637Y-120635000D01*
X153760236Y-120587540D01*
X153984992Y-120494443D01*
X154187267Y-120359287D01*
X154359287Y-120187267D01*
X154494443Y-119984992D01*
X154587540Y-119760236D01*
X154612451Y-119635001D01*
X163811324Y-119635001D01*
X163776100Y-119812083D01*
X163776100Y-120055357D01*
X163823560Y-120293956D01*
X163905458Y-120491676D01*
X163719482Y-120677652D01*
X163609287Y-120512733D01*
X163437267Y-120340713D01*
X163234992Y-120205557D01*
X163010236Y-120112460D01*
X162771637Y-120065000D01*
X162528363Y-120065000D01*
X162289764Y-120112460D01*
X162065008Y-120205557D01*
X161862733Y-120340713D01*
X161738446Y-120465000D01*
X160441007Y-120465000D01*
X160399999Y-120460961D01*
X160358991Y-120465000D01*
X160358981Y-120465000D01*
X160236311Y-120477082D01*
X160078913Y-120524828D01*
X159933854Y-120602364D01*
X159806709Y-120706709D01*
X159780559Y-120738573D01*
X150296066Y-130223067D01*
X150284443Y-130195008D01*
X150149287Y-129992733D01*
X149977267Y-129820713D01*
X149774992Y-129685557D01*
X149550236Y-129592460D01*
X149311637Y-129545000D01*
X149135868Y-129545000D01*
X147890000Y-128299133D01*
X147890000Y-127496018D01*
X147894040Y-127455000D01*
X147877918Y-127291311D01*
X147846338Y-127187206D01*
X148723978Y-128064846D01*
X148750128Y-128096710D01*
X148877273Y-128201055D01*
X149022332Y-128278591D01*
X149179730Y-128326337D01*
X149268205Y-128335051D01*
X149343419Y-128342459D01*
X149384437Y-128338419D01*
X149654895Y-128338419D01*
X149668730Y-128371819D01*
X149803886Y-128574094D01*
X149975906Y-128746114D01*
X150178181Y-128881270D01*
X150402937Y-128974367D01*
X150641536Y-129021827D01*
X150884810Y-129021827D01*
X151123409Y-128974367D01*
X151348165Y-128881270D01*
X151550440Y-128746114D01*
X151722460Y-128574094D01*
X151857616Y-128371819D01*
X151950713Y-128147063D01*
X151998173Y-127908464D01*
X151998173Y-127665190D01*
X151950713Y-127426591D01*
X151857616Y-127201835D01*
X151722460Y-126999560D01*
X151550440Y-126827540D01*
X151348165Y-126692384D01*
X151123409Y-126599287D01*
X150884810Y-126551827D01*
X150679477Y-126551827D01*
X150741185Y-126501185D01*
X150820537Y-126404494D01*
X150879502Y-126294180D01*
X150915812Y-126174482D01*
X150928072Y-126050000D01*
X150928072Y-124850000D01*
X150915812Y-124725518D01*
X150879502Y-124605820D01*
X150820537Y-124495506D01*
X150741185Y-124398815D01*
X150675000Y-124344499D01*
X150675000Y-124175501D01*
X150741185Y-124121185D01*
X150820537Y-124024494D01*
X150879502Y-123914180D01*
X150915812Y-123794482D01*
X150928072Y-123670000D01*
X150928072Y-122470000D01*
X150915812Y-122345518D01*
X150879502Y-122225820D01*
X150820537Y-122115506D01*
X150741185Y-122018815D01*
X150644494Y-121939463D01*
X150534180Y-121880498D01*
X150414482Y-121844188D01*
X150290000Y-121831928D01*
X149390000Y-121831928D01*
X149265518Y-121844188D01*
X149145820Y-121880498D01*
X149103817Y-121902949D01*
X149097500Y-121896632D01*
X149097500Y-121718329D01*
X149155820Y-121749502D01*
X149275518Y-121785812D01*
X149400000Y-121798072D01*
X150300000Y-121798072D01*
X150424482Y-121785812D01*
X150544180Y-121749502D01*
X150654494Y-121690537D01*
X150751185Y-121611185D01*
X150830537Y-121514494D01*
X150889502Y-121404180D01*
X150925812Y-121284482D01*
X150938072Y-121160000D01*
X150938072Y-119960000D01*
X150925812Y-119835518D01*
X150889502Y-119715820D01*
X150830537Y-119605506D01*
X150751185Y-119508815D01*
X150685000Y-119454499D01*
X150685000Y-118915000D01*
X152264139Y-118915000D01*
X152212460Y-119039764D01*
G37*
G04 #@! TD.AperFunction*
D22*
X155935557Y-98695008D02*
X155842460Y-98919764D01*
X155795000Y-99158363D01*
X155795000Y-99401637D01*
X155842460Y-99640236D01*
X155935557Y-99864992D01*
X156070713Y-100067267D01*
X156242733Y-100239287D01*
X156445008Y-100374443D01*
X156445911Y-100374817D01*
X156345557Y-100525008D01*
X156252460Y-100749764D01*
X156205000Y-100988363D01*
X156205000Y-101231637D01*
X156252460Y-101470236D01*
X156345557Y-101694992D01*
X156480713Y-101897267D01*
X156605001Y-102021555D01*
X156605001Y-102248972D01*
X156600960Y-102290000D01*
X156617082Y-102453688D01*
X156664828Y-102611086D01*
X156742364Y-102756145D01*
X156742365Y-102756146D01*
X156846710Y-102883291D01*
X156878574Y-102909441D01*
X157380558Y-103411426D01*
X157406709Y-103443291D01*
X157533854Y-103547636D01*
X157678913Y-103625172D01*
X157836311Y-103672918D01*
X157958981Y-103685000D01*
X157958982Y-103685000D01*
X158000000Y-103689040D01*
X158041018Y-103685000D01*
X160734132Y-103685000D01*
X159082133Y-105337000D01*
X153057554Y-105337000D01*
X152933267Y-105212713D01*
X152730992Y-105077557D01*
X152506236Y-104984460D01*
X152267637Y-104937000D01*
X152024363Y-104937000D01*
X151785764Y-104984460D01*
X151754112Y-104997571D01*
X151754112Y-104416755D01*
X152707433Y-103463436D01*
X152739291Y-103437291D01*
X152788703Y-103377083D01*
X152843636Y-103310146D01*
X152921172Y-103165087D01*
X152946486Y-103081637D01*
X152968918Y-103007689D01*
X152981000Y-102885019D01*
X152981000Y-102885018D01*
X152985040Y-102844000D01*
X152981000Y-102802982D01*
X152981000Y-102511554D01*
X153105287Y-102387267D01*
X153240443Y-102184992D01*
X153333540Y-101960236D01*
X153381000Y-101721637D01*
X153381000Y-101478363D01*
X153333540Y-101239764D01*
X153240443Y-101015008D01*
X153105287Y-100812733D01*
X152933267Y-100640713D01*
X152730992Y-100505557D01*
X152506236Y-100412460D01*
X152267637Y-100365000D01*
X152024363Y-100365000D01*
X151785764Y-100412460D01*
X151561008Y-100505557D01*
X151358733Y-100640713D01*
X151186713Y-100812733D01*
X151051557Y-101015008D01*
X150958460Y-101239764D01*
X150911000Y-101478363D01*
X150911000Y-101721637D01*
X150958460Y-101960236D01*
X151051557Y-102184992D01*
X151186713Y-102387267D01*
X151304289Y-102504843D01*
X150573245Y-103235888D01*
X148502630Y-103235888D01*
X148461612Y-103231848D01*
X148420593Y-103235888D01*
X148297923Y-103247970D01*
X148140525Y-103295716D01*
X147995466Y-103373252D01*
X147893506Y-103456928D01*
X147743750Y-103456928D01*
X147576592Y-103473392D01*
X147415858Y-103522150D01*
X147267725Y-103601329D01*
X147137885Y-103707885D01*
X147031329Y-103837725D01*
X146952150Y-103985858D01*
X146903392Y-104146592D01*
X146886928Y-104313750D01*
X146886928Y-104751250D01*
X146903392Y-104918408D01*
X146952150Y-105079142D01*
X147031329Y-105227275D01*
X147107426Y-105320000D01*
X147031329Y-105412725D01*
X146952150Y-105560858D01*
X146903392Y-105721592D01*
X146886928Y-105888750D01*
X146886928Y-106326250D01*
X146903392Y-106493408D01*
X146952150Y-106654142D01*
X147031329Y-106802275D01*
X147070496Y-106850000D01*
X147031329Y-106897725D01*
X146952150Y-107045858D01*
X146903392Y-107206592D01*
X146886928Y-107373750D01*
X146886928Y-107811250D01*
X146903392Y-107978408D01*
X146952150Y-108139142D01*
X147031329Y-108287275D01*
X147049100Y-108308930D01*
X146994463Y-108375506D01*
X146935498Y-108485820D01*
X146899188Y-108605518D01*
X146886928Y-108730000D01*
X146890000Y-108881750D01*
X147048750Y-109040500D01*
X147873000Y-109040500D01*
X147873000Y-109020500D01*
X148127000Y-109020500D01*
X148127000Y-109040500D01*
X148951250Y-109040500D01*
X149110000Y-108881750D01*
X149113072Y-108730000D01*
X149100812Y-108605518D01*
X149064502Y-108485820D01*
X149005537Y-108375506D01*
X148950900Y-108308930D01*
X148968671Y-108287275D01*
X149047850Y-108139142D01*
X149096608Y-107978408D01*
X149113072Y-107811250D01*
X149113072Y-107443939D01*
X151457209Y-109788077D01*
X151415008Y-109805557D01*
X151212733Y-109940713D01*
X151040713Y-110112733D01*
X151005789Y-110165000D01*
X148774373Y-110165000D01*
X148829494Y-110135537D01*
X148926185Y-110056185D01*
X149005537Y-109959494D01*
X149064502Y-109849180D01*
X149100812Y-109729482D01*
X149113072Y-109605000D01*
X149110000Y-109453250D01*
X148951250Y-109294500D01*
X148127000Y-109294500D01*
X148127000Y-109314500D01*
X147873000Y-109314500D01*
X147873000Y-109294500D01*
X147048750Y-109294500D01*
X146890000Y-109453250D01*
X146886928Y-109605000D01*
X146899188Y-109729482D01*
X146935498Y-109849180D01*
X146994463Y-109959494D01*
X147073815Y-110056185D01*
X147170506Y-110135537D01*
X147225627Y-110165000D01*
X145441018Y-110165000D01*
X145400000Y-110160960D01*
X145358982Y-110165000D01*
X145358981Y-110165000D01*
X145236311Y-110177082D01*
X145078913Y-110224828D01*
X144933854Y-110302364D01*
X144806709Y-110406709D01*
X144780563Y-110438568D01*
X143988574Y-111230559D01*
X143956710Y-111256709D01*
X143898748Y-111327336D01*
X143852364Y-111383855D01*
X143774828Y-111528914D01*
X143727082Y-111686312D01*
X143710960Y-111850000D01*
X143715001Y-111891029D01*
X143715000Y-126386928D01*
X143575000Y-126386928D01*
X143411500Y-126403031D01*
X143254284Y-126450722D01*
X143129335Y-126517509D01*
X143129557Y-125871037D01*
X143229497Y-125817618D01*
X143360284Y-125710284D01*
X143467618Y-125579497D01*
X143547375Y-125430283D01*
X143596488Y-125268377D01*
X143613072Y-125100000D01*
X143613072Y-124650000D01*
X143596488Y-124481623D01*
X143547375Y-124319717D01*
X143469300Y-124173649D01*
X143505537Y-124129494D01*
X143564502Y-124019180D01*
X143600812Y-123899482D01*
X143613072Y-123775000D01*
X143610000Y-123610750D01*
X143451250Y-123452000D01*
X143130389Y-123452000D01*
X143130476Y-123198000D01*
X143451250Y-123198000D01*
X143610000Y-123039250D01*
X143613072Y-122875000D01*
X143600812Y-122750518D01*
X143564502Y-122630820D01*
X143505537Y-122520506D01*
X143426185Y-122423815D01*
X143329494Y-122344463D01*
X143219180Y-122285498D01*
X143130799Y-122258688D01*
X143134879Y-110388517D01*
X143157932Y-110332863D01*
X143215000Y-110045965D01*
X143215000Y-109753445D01*
X143160203Y-109477965D01*
X143227837Y-109493735D01*
X143352854Y-109497828D01*
X143476267Y-109477452D01*
X143593334Y-109433391D01*
X143699556Y-109367338D01*
X143790850Y-109281832D01*
X143863709Y-109180158D01*
X144713709Y-107707914D01*
X144765332Y-107593979D01*
X144793735Y-107472163D01*
X144797828Y-107347146D01*
X144777452Y-107223733D01*
X144733391Y-107106666D01*
X144667338Y-107000444D01*
X144581832Y-106909150D01*
X144480158Y-106836291D01*
X143136367Y-106060453D01*
X143136699Y-105094190D01*
X143221391Y-104985058D01*
X143469737Y-104697445D01*
X143472924Y-104694897D01*
X143556676Y-104595460D01*
X143619421Y-104481595D01*
X143648892Y-104388726D01*
X144363065Y-101023451D01*
X144465844Y-101271581D01*
X144678765Y-101590239D01*
X144949761Y-101861235D01*
X145268419Y-102074156D01*
X145622493Y-102220818D01*
X145998376Y-102295586D01*
X146381624Y-102295586D01*
X146757507Y-102220818D01*
X147111581Y-102074156D01*
X147430239Y-101861235D01*
X147701235Y-101590239D01*
X147914156Y-101271581D01*
X148060818Y-100917507D01*
X148135586Y-100541624D01*
X148135586Y-100158376D01*
X148060818Y-99782493D01*
X147914156Y-99428419D01*
X147701235Y-99109761D01*
X147430239Y-98838765D01*
X147162699Y-98660000D01*
X155958949Y-98660000D01*
X155935557Y-98695008D01*
G04 #@! TA.AperFunction,Conductor*
D23*
G36*
X155935557Y-98695008D02*
G01*
X155842460Y-98919764D01*
X155795000Y-99158363D01*
X155795000Y-99401637D01*
X155842460Y-99640236D01*
X155935557Y-99864992D01*
X156070713Y-100067267D01*
X156242733Y-100239287D01*
X156445008Y-100374443D01*
X156445911Y-100374817D01*
X156345557Y-100525008D01*
X156252460Y-100749764D01*
X156205000Y-100988363D01*
X156205000Y-101231637D01*
X156252460Y-101470236D01*
X156345557Y-101694992D01*
X156480713Y-101897267D01*
X156605001Y-102021555D01*
X156605001Y-102248972D01*
X156600960Y-102290000D01*
X156617082Y-102453688D01*
X156664828Y-102611086D01*
X156742364Y-102756145D01*
X156742365Y-102756146D01*
X156846710Y-102883291D01*
X156878574Y-102909441D01*
X157380558Y-103411426D01*
X157406709Y-103443291D01*
X157533854Y-103547636D01*
X157678913Y-103625172D01*
X157836311Y-103672918D01*
X157958981Y-103685000D01*
X157958982Y-103685000D01*
X158000000Y-103689040D01*
X158041018Y-103685000D01*
X160734132Y-103685000D01*
X159082133Y-105337000D01*
X153057554Y-105337000D01*
X152933267Y-105212713D01*
X152730992Y-105077557D01*
X152506236Y-104984460D01*
X152267637Y-104937000D01*
X152024363Y-104937000D01*
X151785764Y-104984460D01*
X151754112Y-104997571D01*
X151754112Y-104416755D01*
X152707433Y-103463436D01*
X152739291Y-103437291D01*
X152788703Y-103377083D01*
X152843636Y-103310146D01*
X152921172Y-103165087D01*
X152946486Y-103081637D01*
X152968918Y-103007689D01*
X152981000Y-102885019D01*
X152981000Y-102885018D01*
X152985040Y-102844000D01*
X152981000Y-102802982D01*
X152981000Y-102511554D01*
X153105287Y-102387267D01*
X153240443Y-102184992D01*
X153333540Y-101960236D01*
X153381000Y-101721637D01*
X153381000Y-101478363D01*
X153333540Y-101239764D01*
X153240443Y-101015008D01*
X153105287Y-100812733D01*
X152933267Y-100640713D01*
X152730992Y-100505557D01*
X152506236Y-100412460D01*
X152267637Y-100365000D01*
X152024363Y-100365000D01*
X151785764Y-100412460D01*
X151561008Y-100505557D01*
X151358733Y-100640713D01*
X151186713Y-100812733D01*
X151051557Y-101015008D01*
X150958460Y-101239764D01*
X150911000Y-101478363D01*
X150911000Y-101721637D01*
X150958460Y-101960236D01*
X151051557Y-102184992D01*
X151186713Y-102387267D01*
X151304289Y-102504843D01*
X150573245Y-103235888D01*
X148502630Y-103235888D01*
X148461612Y-103231848D01*
X148420593Y-103235888D01*
X148297923Y-103247970D01*
X148140525Y-103295716D01*
X147995466Y-103373252D01*
X147893506Y-103456928D01*
X147743750Y-103456928D01*
X147576592Y-103473392D01*
X147415858Y-103522150D01*
X147267725Y-103601329D01*
X147137885Y-103707885D01*
X147031329Y-103837725D01*
X146952150Y-103985858D01*
X146903392Y-104146592D01*
X146886928Y-104313750D01*
X146886928Y-104751250D01*
X146903392Y-104918408D01*
X146952150Y-105079142D01*
X147031329Y-105227275D01*
X147107426Y-105320000D01*
X147031329Y-105412725D01*
X146952150Y-105560858D01*
X146903392Y-105721592D01*
X146886928Y-105888750D01*
X146886928Y-106326250D01*
X146903392Y-106493408D01*
X146952150Y-106654142D01*
X147031329Y-106802275D01*
X147070496Y-106850000D01*
X147031329Y-106897725D01*
X146952150Y-107045858D01*
X146903392Y-107206592D01*
X146886928Y-107373750D01*
X146886928Y-107811250D01*
X146903392Y-107978408D01*
X146952150Y-108139142D01*
X147031329Y-108287275D01*
X147049100Y-108308930D01*
X146994463Y-108375506D01*
X146935498Y-108485820D01*
X146899188Y-108605518D01*
X146886928Y-108730000D01*
X146890000Y-108881750D01*
X147048750Y-109040500D01*
X147873000Y-109040500D01*
X147873000Y-109020500D01*
X148127000Y-109020500D01*
X148127000Y-109040500D01*
X148951250Y-109040500D01*
X149110000Y-108881750D01*
X149113072Y-108730000D01*
X149100812Y-108605518D01*
X149064502Y-108485820D01*
X149005537Y-108375506D01*
X148950900Y-108308930D01*
X148968671Y-108287275D01*
X149047850Y-108139142D01*
X149096608Y-107978408D01*
X149113072Y-107811250D01*
X149113072Y-107443939D01*
X151457209Y-109788077D01*
X151415008Y-109805557D01*
X151212733Y-109940713D01*
X151040713Y-110112733D01*
X151005789Y-110165000D01*
X148774373Y-110165000D01*
X148829494Y-110135537D01*
X148926185Y-110056185D01*
X149005537Y-109959494D01*
X149064502Y-109849180D01*
X149100812Y-109729482D01*
X149113072Y-109605000D01*
X149110000Y-109453250D01*
X148951250Y-109294500D01*
X148127000Y-109294500D01*
X148127000Y-109314500D01*
X147873000Y-109314500D01*
X147873000Y-109294500D01*
X147048750Y-109294500D01*
X146890000Y-109453250D01*
X146886928Y-109605000D01*
X146899188Y-109729482D01*
X146935498Y-109849180D01*
X146994463Y-109959494D01*
X147073815Y-110056185D01*
X147170506Y-110135537D01*
X147225627Y-110165000D01*
X145441018Y-110165000D01*
X145400000Y-110160960D01*
X145358982Y-110165000D01*
X145358981Y-110165000D01*
X145236311Y-110177082D01*
X145078913Y-110224828D01*
X144933854Y-110302364D01*
X144806709Y-110406709D01*
X144780563Y-110438568D01*
X143988574Y-111230559D01*
X143956710Y-111256709D01*
X143898748Y-111327336D01*
X143852364Y-111383855D01*
X143774828Y-111528914D01*
X143727082Y-111686312D01*
X143710960Y-111850000D01*
X143715001Y-111891029D01*
X143715000Y-126386928D01*
X143575000Y-126386928D01*
X143411500Y-126403031D01*
X143254284Y-126450722D01*
X143129335Y-126517509D01*
X143129557Y-125871037D01*
X143229497Y-125817618D01*
X143360284Y-125710284D01*
X143467618Y-125579497D01*
X143547375Y-125430283D01*
X143596488Y-125268377D01*
X143613072Y-125100000D01*
X143613072Y-124650000D01*
X143596488Y-124481623D01*
X143547375Y-124319717D01*
X143469300Y-124173649D01*
X143505537Y-124129494D01*
X143564502Y-124019180D01*
X143600812Y-123899482D01*
X143613072Y-123775000D01*
X143610000Y-123610750D01*
X143451250Y-123452000D01*
X143130389Y-123452000D01*
X143130476Y-123198000D01*
X143451250Y-123198000D01*
X143610000Y-123039250D01*
X143613072Y-122875000D01*
X143600812Y-122750518D01*
X143564502Y-122630820D01*
X143505537Y-122520506D01*
X143426185Y-122423815D01*
X143329494Y-122344463D01*
X143219180Y-122285498D01*
X143130799Y-122258688D01*
X143134879Y-110388517D01*
X143157932Y-110332863D01*
X143215000Y-110045965D01*
X143215000Y-109753445D01*
X143160203Y-109477965D01*
X143227837Y-109493735D01*
X143352854Y-109497828D01*
X143476267Y-109477452D01*
X143593334Y-109433391D01*
X143699556Y-109367338D01*
X143790850Y-109281832D01*
X143863709Y-109180158D01*
X144713709Y-107707914D01*
X144765332Y-107593979D01*
X144793735Y-107472163D01*
X144797828Y-107347146D01*
X144777452Y-107223733D01*
X144733391Y-107106666D01*
X144667338Y-107000444D01*
X144581832Y-106909150D01*
X144480158Y-106836291D01*
X143136367Y-106060453D01*
X143136699Y-105094190D01*
X143221391Y-104985058D01*
X143469737Y-104697445D01*
X143472924Y-104694897D01*
X143556676Y-104595460D01*
X143619421Y-104481595D01*
X143648892Y-104388726D01*
X144363065Y-101023451D01*
X144465844Y-101271581D01*
X144678765Y-101590239D01*
X144949761Y-101861235D01*
X145268419Y-102074156D01*
X145622493Y-102220818D01*
X145998376Y-102295586D01*
X146381624Y-102295586D01*
X146757507Y-102220818D01*
X147111581Y-102074156D01*
X147430239Y-101861235D01*
X147701235Y-101590239D01*
X147914156Y-101271581D01*
X148060818Y-100917507D01*
X148135586Y-100541624D01*
X148135586Y-100158376D01*
X148060818Y-99782493D01*
X147914156Y-99428419D01*
X147701235Y-99109761D01*
X147430239Y-98838765D01*
X147162699Y-98660000D01*
X155958949Y-98660000D01*
X155935557Y-98695008D01*
G37*
G04 #@! TD.AperFunction*
D22*
X147669210Y-122835791D02*
X147701074Y-122861941D01*
X148470563Y-123631432D01*
X148496709Y-123663291D01*
X148528568Y-123689437D01*
X148528570Y-123689439D01*
X148585478Y-123736142D01*
X148623854Y-123767636D01*
X148768913Y-123845172D01*
X148780644Y-123848731D01*
X148800498Y-123914180D01*
X148859463Y-124024494D01*
X148938815Y-124121185D01*
X149005001Y-124175502D01*
X149005000Y-124344498D01*
X148938815Y-124398815D01*
X148859463Y-124495506D01*
X148800498Y-124605820D01*
X148764188Y-124725518D01*
X148751928Y-124850000D01*
X148751928Y-125731061D01*
X147909446Y-124888579D01*
X147883291Y-124856709D01*
X147756146Y-124752364D01*
X147611087Y-124674828D01*
X147599356Y-124671269D01*
X147579502Y-124605820D01*
X147520537Y-124495506D01*
X147441185Y-124398815D01*
X147344494Y-124319463D01*
X147234180Y-124260498D01*
X147232538Y-124260000D01*
X147234180Y-124259502D01*
X147344494Y-124200537D01*
X147441185Y-124121185D01*
X147520537Y-124024494D01*
X147579502Y-123914180D01*
X147615812Y-123794482D01*
X147628072Y-123670000D01*
X147625000Y-123355750D01*
X147466250Y-123197000D01*
X146667000Y-123197000D01*
X146667000Y-123217000D01*
X146413000Y-123217000D01*
X146413000Y-123197000D01*
X146393000Y-123197000D01*
X146393000Y-122943000D01*
X146413000Y-122943000D01*
X146413000Y-122923000D01*
X146667000Y-122923000D01*
X146667000Y-122943000D01*
X147466250Y-122943000D01*
X147625000Y-122784250D01*
X147625023Y-122781948D01*
X147669210Y-122835791D01*
G04 #@! TA.AperFunction,Conductor*
D23*
G36*
X147669210Y-122835791D02*
G01*
X147701074Y-122861941D01*
X148470563Y-123631432D01*
X148496709Y-123663291D01*
X148528568Y-123689437D01*
X148528570Y-123689439D01*
X148585478Y-123736142D01*
X148623854Y-123767636D01*
X148768913Y-123845172D01*
X148780644Y-123848731D01*
X148800498Y-123914180D01*
X148859463Y-124024494D01*
X148938815Y-124121185D01*
X149005001Y-124175502D01*
X149005000Y-124344498D01*
X148938815Y-124398815D01*
X148859463Y-124495506D01*
X148800498Y-124605820D01*
X148764188Y-124725518D01*
X148751928Y-124850000D01*
X148751928Y-125731061D01*
X147909446Y-124888579D01*
X147883291Y-124856709D01*
X147756146Y-124752364D01*
X147611087Y-124674828D01*
X147599356Y-124671269D01*
X147579502Y-124605820D01*
X147520537Y-124495506D01*
X147441185Y-124398815D01*
X147344494Y-124319463D01*
X147234180Y-124260498D01*
X147232538Y-124260000D01*
X147234180Y-124259502D01*
X147344494Y-124200537D01*
X147441185Y-124121185D01*
X147520537Y-124024494D01*
X147579502Y-123914180D01*
X147615812Y-123794482D01*
X147628072Y-123670000D01*
X147625000Y-123355750D01*
X147466250Y-123197000D01*
X146667000Y-123197000D01*
X146667000Y-123217000D01*
X146413000Y-123217000D01*
X146413000Y-123197000D01*
X146393000Y-123197000D01*
X146393000Y-122943000D01*
X146413000Y-122943000D01*
X146413000Y-122923000D01*
X146667000Y-122923000D01*
X146667000Y-122943000D01*
X147466250Y-122943000D01*
X147625000Y-122784250D01*
X147625023Y-122781948D01*
X147669210Y-122835791D01*
G37*
G04 #@! TD.AperFunction*
D22*
X176850011Y-115076002D02*
X174777252Y-117148763D01*
X174777252Y-116802060D01*
X174764992Y-116677578D01*
X174757251Y-116652060D01*
X174764992Y-116626542D01*
X174777252Y-116502060D01*
X174774180Y-116462810D01*
X174615430Y-116304060D01*
X174533321Y-116304060D01*
X174493674Y-116271523D01*
X174383360Y-116212558D01*
X174266339Y-116177060D01*
X174383360Y-116141562D01*
X174493674Y-116082597D01*
X174533321Y-116050060D01*
X174615430Y-116050060D01*
X174774180Y-115891310D01*
X174777252Y-115852060D01*
X174764992Y-115727578D01*
X174757251Y-115702060D01*
X174764992Y-115676542D01*
X174777252Y-115552060D01*
X174777252Y-114902060D01*
X174764992Y-114777578D01*
X174728682Y-114657880D01*
X174669717Y-114547566D01*
X174590365Y-114450875D01*
X174539355Y-114409012D01*
X176850010Y-112098358D01*
X176850011Y-115076002D01*
G04 #@! TA.AperFunction,Conductor*
D23*
G36*
X176850011Y-115076002D02*
G01*
X174777252Y-117148763D01*
X174777252Y-116802060D01*
X174764992Y-116677578D01*
X174757251Y-116652060D01*
X174764992Y-116626542D01*
X174777252Y-116502060D01*
X174774180Y-116462810D01*
X174615430Y-116304060D01*
X174533321Y-116304060D01*
X174493674Y-116271523D01*
X174383360Y-116212558D01*
X174266339Y-116177060D01*
X174383360Y-116141562D01*
X174493674Y-116082597D01*
X174533321Y-116050060D01*
X174615430Y-116050060D01*
X174774180Y-115891310D01*
X174777252Y-115852060D01*
X174764992Y-115727578D01*
X174757251Y-115702060D01*
X174764992Y-115676542D01*
X174777252Y-115552060D01*
X174777252Y-114902060D01*
X174764992Y-114777578D01*
X174728682Y-114657880D01*
X174669717Y-114547566D01*
X174590365Y-114450875D01*
X174539355Y-114409012D01*
X176850010Y-112098358D01*
X176850011Y-115076002D01*
G37*
G04 #@! TD.AperFunction*
D22*
X172665000Y-111745868D02*
X172665000Y-111854133D01*
X172217753Y-112301380D01*
X172185889Y-112327530D01*
X172112456Y-112417009D01*
X172081543Y-112454676D01*
X172004007Y-112599735D01*
X171956261Y-112757133D01*
X171940139Y-112920821D01*
X171944180Y-112961849D01*
X171944180Y-114264480D01*
X171939180Y-114263988D01*
X170879180Y-114263988D01*
X170754698Y-114276248D01*
X170635000Y-114312558D01*
X170524686Y-114371523D01*
X170499662Y-114392060D01*
X169013940Y-114392060D01*
X168972922Y-114388020D01*
X168931904Y-114392060D01*
X168931903Y-114392060D01*
X168809233Y-114404142D01*
X168651835Y-114451888D01*
X168506776Y-114529424D01*
X168379631Y-114633769D01*
X168353480Y-114665634D01*
X167854124Y-115164991D01*
X165386997Y-115164991D01*
X165466157Y-115068534D01*
X165525122Y-114958220D01*
X165561432Y-114838522D01*
X165573692Y-114714040D01*
X165570620Y-114524790D01*
X165411870Y-114366040D01*
X164612620Y-114366040D01*
X164612620Y-114386040D01*
X164358620Y-114386040D01*
X164358620Y-114366040D01*
X164338620Y-114366040D01*
X164338620Y-114112040D01*
X164358620Y-114112040D01*
X164358620Y-113287790D01*
X164612620Y-113287790D01*
X164612620Y-114112040D01*
X165411870Y-114112040D01*
X165570620Y-113953290D01*
X165573692Y-113764040D01*
X165561432Y-113639558D01*
X165525122Y-113519860D01*
X165466157Y-113409546D01*
X165386805Y-113312855D01*
X165290114Y-113233503D01*
X165179800Y-113174538D01*
X165060102Y-113138228D01*
X164935620Y-113125968D01*
X164771370Y-113129040D01*
X164612620Y-113287790D01*
X164358620Y-113287790D01*
X164199870Y-113129040D01*
X164035620Y-113125968D01*
X163911138Y-113138228D01*
X163791440Y-113174538D01*
X163681126Y-113233503D01*
X163636971Y-113269740D01*
X163490903Y-113191665D01*
X163328997Y-113142552D01*
X163160620Y-113125968D01*
X162710620Y-113125968D01*
X162542243Y-113142552D01*
X162380337Y-113191665D01*
X162231123Y-113271422D01*
X162100336Y-113378756D01*
X162079586Y-113404040D01*
X160889159Y-113404040D01*
X160709460Y-113283969D01*
X160484704Y-113190872D01*
X160246105Y-113143412D01*
X160002831Y-113143412D01*
X159764232Y-113190872D01*
X159539476Y-113283969D01*
X159337201Y-113419125D01*
X159165181Y-113591145D01*
X159030025Y-113793420D01*
X158983784Y-113905056D01*
X158760236Y-113812460D01*
X158521637Y-113765000D01*
X158345868Y-113765000D01*
X157635000Y-113054133D01*
X157635000Y-112645868D01*
X157815103Y-112465765D01*
X157910754Y-112516892D01*
X158068152Y-112564638D01*
X158231840Y-112580760D01*
X158395528Y-112564638D01*
X158552926Y-112516892D01*
X158555283Y-112515632D01*
X158771000Y-112515632D01*
X158934500Y-112499529D01*
X159091716Y-112451838D01*
X159236608Y-112374391D01*
X159363606Y-112270166D01*
X159467831Y-112143168D01*
X159545278Y-111998276D01*
X159592969Y-111841060D01*
X159609072Y-111677560D01*
X159609072Y-111464700D01*
X162958353Y-111464700D01*
X164305084Y-112811433D01*
X164331230Y-112843292D01*
X164363089Y-112869438D01*
X164363091Y-112869440D01*
X164456124Y-112945790D01*
X164458375Y-112947637D01*
X164603434Y-113025173D01*
X164760832Y-113072919D01*
X164883502Y-113085001D01*
X164883503Y-113085001D01*
X164924521Y-113089041D01*
X164965539Y-113085001D01*
X167350623Y-113085001D01*
X167391641Y-113089041D01*
X167432659Y-113085001D01*
X167432660Y-113085001D01*
X167555330Y-113072919D01*
X167712728Y-113025173D01*
X167857787Y-112947637D01*
X167984932Y-112843292D01*
X168011086Y-112811424D01*
X168111426Y-112711084D01*
X168143292Y-112684932D01*
X168247637Y-112557787D01*
X168325173Y-112412728D01*
X168372919Y-112255330D01*
X168385001Y-112132660D01*
X168385001Y-112132659D01*
X168389041Y-112091641D01*
X168385001Y-112050623D01*
X168385001Y-111941866D01*
X169401868Y-110925000D01*
X171844133Y-110925000D01*
X172665000Y-111745868D01*
G04 #@! TA.AperFunction,Conductor*
D23*
G36*
X172665000Y-111745868D02*
G01*
X172665000Y-111854133D01*
X172217753Y-112301380D01*
X172185889Y-112327530D01*
X172112456Y-112417009D01*
X172081543Y-112454676D01*
X172004007Y-112599735D01*
X171956261Y-112757133D01*
X171940139Y-112920821D01*
X171944180Y-112961849D01*
X171944180Y-114264480D01*
X171939180Y-114263988D01*
X170879180Y-114263988D01*
X170754698Y-114276248D01*
X170635000Y-114312558D01*
X170524686Y-114371523D01*
X170499662Y-114392060D01*
X169013940Y-114392060D01*
X168972922Y-114388020D01*
X168931904Y-114392060D01*
X168931903Y-114392060D01*
X168809233Y-114404142D01*
X168651835Y-114451888D01*
X168506776Y-114529424D01*
X168379631Y-114633769D01*
X168353480Y-114665634D01*
X167854124Y-115164991D01*
X165386997Y-115164991D01*
X165466157Y-115068534D01*
X165525122Y-114958220D01*
X165561432Y-114838522D01*
X165573692Y-114714040D01*
X165570620Y-114524790D01*
X165411870Y-114366040D01*
X164612620Y-114366040D01*
X164612620Y-114386040D01*
X164358620Y-114386040D01*
X164358620Y-114366040D01*
X164338620Y-114366040D01*
X164338620Y-114112040D01*
X164358620Y-114112040D01*
X164358620Y-113287790D01*
X164612620Y-113287790D01*
X164612620Y-114112040D01*
X165411870Y-114112040D01*
X165570620Y-113953290D01*
X165573692Y-113764040D01*
X165561432Y-113639558D01*
X165525122Y-113519860D01*
X165466157Y-113409546D01*
X165386805Y-113312855D01*
X165290114Y-113233503D01*
X165179800Y-113174538D01*
X165060102Y-113138228D01*
X164935620Y-113125968D01*
X164771370Y-113129040D01*
X164612620Y-113287790D01*
X164358620Y-113287790D01*
X164199870Y-113129040D01*
X164035620Y-113125968D01*
X163911138Y-113138228D01*
X163791440Y-113174538D01*
X163681126Y-113233503D01*
X163636971Y-113269740D01*
X163490903Y-113191665D01*
X163328997Y-113142552D01*
X163160620Y-113125968D01*
X162710620Y-113125968D01*
X162542243Y-113142552D01*
X162380337Y-113191665D01*
X162231123Y-113271422D01*
X162100336Y-113378756D01*
X162079586Y-113404040D01*
X160889159Y-113404040D01*
X160709460Y-113283969D01*
X160484704Y-113190872D01*
X160246105Y-113143412D01*
X160002831Y-113143412D01*
X159764232Y-113190872D01*
X159539476Y-113283969D01*
X159337201Y-113419125D01*
X159165181Y-113591145D01*
X159030025Y-113793420D01*
X158983784Y-113905056D01*
X158760236Y-113812460D01*
X158521637Y-113765000D01*
X158345868Y-113765000D01*
X157635000Y-113054133D01*
X157635000Y-112645868D01*
X157815103Y-112465765D01*
X157910754Y-112516892D01*
X158068152Y-112564638D01*
X158231840Y-112580760D01*
X158395528Y-112564638D01*
X158552926Y-112516892D01*
X158555283Y-112515632D01*
X158771000Y-112515632D01*
X158934500Y-112499529D01*
X159091716Y-112451838D01*
X159236608Y-112374391D01*
X159363606Y-112270166D01*
X159467831Y-112143168D01*
X159545278Y-111998276D01*
X159592969Y-111841060D01*
X159609072Y-111677560D01*
X159609072Y-111464700D01*
X162958353Y-111464700D01*
X164305084Y-112811433D01*
X164331230Y-112843292D01*
X164363089Y-112869438D01*
X164363091Y-112869440D01*
X164456124Y-112945790D01*
X164458375Y-112947637D01*
X164603434Y-113025173D01*
X164760832Y-113072919D01*
X164883502Y-113085001D01*
X164883503Y-113085001D01*
X164924521Y-113089041D01*
X164965539Y-113085001D01*
X167350623Y-113085001D01*
X167391641Y-113089041D01*
X167432659Y-113085001D01*
X167432660Y-113085001D01*
X167555330Y-113072919D01*
X167712728Y-113025173D01*
X167857787Y-112947637D01*
X167984932Y-112843292D01*
X168011086Y-112811424D01*
X168111426Y-112711084D01*
X168143292Y-112684932D01*
X168247637Y-112557787D01*
X168325173Y-112412728D01*
X168372919Y-112255330D01*
X168385001Y-112132660D01*
X168385001Y-112132659D01*
X168389041Y-112091641D01*
X168385001Y-112050623D01*
X168385001Y-111941866D01*
X169401868Y-110925000D01*
X171844133Y-110925000D01*
X172665000Y-111745868D01*
G37*
G04 #@! TD.AperFunction*
D22*
X149534463Y-111930506D02*
X149475498Y-112040820D01*
X149439188Y-112160518D01*
X149426928Y-112285000D01*
X149430000Y-112474250D01*
X149588750Y-112633000D01*
X150375500Y-112633000D01*
X150375500Y-112613000D01*
X150629500Y-112613000D01*
X150629500Y-112633000D01*
X150649500Y-112633000D01*
X150649500Y-112870741D01*
X150585050Y-112883561D01*
X150563688Y-112877081D01*
X150441018Y-112864999D01*
X150441017Y-112864999D01*
X150399999Y-112860959D01*
X150358981Y-112864999D01*
X146041019Y-112864999D01*
X146000001Y-112860959D01*
X145958982Y-112864999D01*
X145836312Y-112877081D01*
X145814950Y-112883561D01*
X145721637Y-112865000D01*
X145478363Y-112865000D01*
X145385000Y-112883571D01*
X145385000Y-112195868D01*
X145745868Y-111835000D01*
X149612842Y-111835000D01*
X149534463Y-111930506D01*
G04 #@! TA.AperFunction,Conductor*
D23*
G36*
X149534463Y-111930506D02*
G01*
X149475498Y-112040820D01*
X149439188Y-112160518D01*
X149426928Y-112285000D01*
X149430000Y-112474250D01*
X149588750Y-112633000D01*
X150375500Y-112633000D01*
X150375500Y-112613000D01*
X150629500Y-112613000D01*
X150629500Y-112633000D01*
X150649500Y-112633000D01*
X150649500Y-112870741D01*
X150585050Y-112883561D01*
X150563688Y-112877081D01*
X150441018Y-112864999D01*
X150441017Y-112864999D01*
X150399999Y-112860959D01*
X150358981Y-112864999D01*
X146041019Y-112864999D01*
X146000001Y-112860959D01*
X145958982Y-112864999D01*
X145836312Y-112877081D01*
X145814950Y-112883561D01*
X145721637Y-112865000D01*
X145478363Y-112865000D01*
X145385000Y-112883571D01*
X145385000Y-112195868D01*
X145745868Y-111835000D01*
X149612842Y-111835000D01*
X149534463Y-111930506D01*
G37*
G04 #@! TD.AperFunction*
D22*
X164614999Y-105625868D02*
X164615000Y-107489351D01*
X164612475Y-107514986D01*
X164610960Y-107518644D01*
X164563500Y-107757243D01*
X164563500Y-107933013D01*
X164488574Y-108007939D01*
X164456710Y-108034089D01*
X164398204Y-108105379D01*
X164352364Y-108161235D01*
X164274828Y-108306294D01*
X164227082Y-108463692D01*
X164210960Y-108627380D01*
X164215001Y-108668408D01*
X164215000Y-109838445D01*
X164090713Y-109962732D01*
X163981527Y-110126140D01*
X163923666Y-110068279D01*
X163897511Y-110036409D01*
X163770366Y-109932064D01*
X163625307Y-109854528D01*
X163467909Y-109806782D01*
X163345239Y-109794700D01*
X163345238Y-109794700D01*
X163304220Y-109790660D01*
X163263202Y-109794700D01*
X159609072Y-109794700D01*
X159609072Y-109637816D01*
X160644433Y-108602456D01*
X160676291Y-108576311D01*
X160710020Y-108535213D01*
X160780636Y-108449166D01*
X160858172Y-108304107D01*
X160905918Y-108146709D01*
X160911444Y-108090598D01*
X160918000Y-108024039D01*
X160918000Y-108024038D01*
X160922040Y-107983020D01*
X160918000Y-107942002D01*
X160918000Y-107276867D01*
X162759868Y-105435000D01*
X162935637Y-105435000D01*
X163174236Y-105387540D01*
X163398992Y-105294443D01*
X163601267Y-105159287D01*
X163773287Y-104987267D01*
X163854642Y-104865510D01*
X164614999Y-105625868D01*
G04 #@! TA.AperFunction,Conductor*
D23*
G36*
X164614999Y-105625868D02*
G01*
X164615000Y-107489351D01*
X164612475Y-107514986D01*
X164610960Y-107518644D01*
X164563500Y-107757243D01*
X164563500Y-107933013D01*
X164488574Y-108007939D01*
X164456710Y-108034089D01*
X164398204Y-108105379D01*
X164352364Y-108161235D01*
X164274828Y-108306294D01*
X164227082Y-108463692D01*
X164210960Y-108627380D01*
X164215001Y-108668408D01*
X164215000Y-109838445D01*
X164090713Y-109962732D01*
X163981527Y-110126140D01*
X163923666Y-110068279D01*
X163897511Y-110036409D01*
X163770366Y-109932064D01*
X163625307Y-109854528D01*
X163467909Y-109806782D01*
X163345239Y-109794700D01*
X163345238Y-109794700D01*
X163304220Y-109790660D01*
X163263202Y-109794700D01*
X159609072Y-109794700D01*
X159609072Y-109637816D01*
X160644433Y-108602456D01*
X160676291Y-108576311D01*
X160710020Y-108535213D01*
X160780636Y-108449166D01*
X160858172Y-108304107D01*
X160905918Y-108146709D01*
X160911444Y-108090598D01*
X160918000Y-108024039D01*
X160918000Y-108024038D01*
X160922040Y-107983020D01*
X160918000Y-107942002D01*
X160918000Y-107276867D01*
X162759868Y-105435000D01*
X162935637Y-105435000D01*
X163174236Y-105387540D01*
X163398992Y-105294443D01*
X163601267Y-105159287D01*
X163773287Y-104987267D01*
X163854642Y-104865510D01*
X164614999Y-105625868D01*
G37*
G04 #@! TD.AperFunction*
D22*
X159248000Y-107637151D02*
X158081972Y-108803181D01*
X158057500Y-108805591D01*
X157900284Y-108853282D01*
X157755392Y-108930729D01*
X157628394Y-109034954D01*
X157524169Y-109161952D01*
X157446722Y-109306844D01*
X157399031Y-109464060D01*
X157382928Y-109627560D01*
X157382928Y-109794700D01*
X155679569Y-109794700D01*
X154797445Y-108912578D01*
X154771291Y-108880709D01*
X154644146Y-108776364D01*
X154499087Y-108698828D01*
X154341689Y-108651082D01*
X154219019Y-108639000D01*
X154219018Y-108639000D01*
X154178000Y-108634960D01*
X154136982Y-108639000D01*
X153761869Y-108639000D01*
X152486361Y-107363493D01*
X152506236Y-107359540D01*
X152730992Y-107266443D01*
X152933267Y-107131287D01*
X153057554Y-107007000D01*
X159248001Y-107007000D01*
X159248000Y-107637151D01*
G04 #@! TA.AperFunction,Conductor*
D23*
G36*
X159248000Y-107637151D02*
G01*
X158081972Y-108803181D01*
X158057500Y-108805591D01*
X157900284Y-108853282D01*
X157755392Y-108930729D01*
X157628394Y-109034954D01*
X157524169Y-109161952D01*
X157446722Y-109306844D01*
X157399031Y-109464060D01*
X157382928Y-109627560D01*
X157382928Y-109794700D01*
X155679569Y-109794700D01*
X154797445Y-108912578D01*
X154771291Y-108880709D01*
X154644146Y-108776364D01*
X154499087Y-108698828D01*
X154341689Y-108651082D01*
X154219019Y-108639000D01*
X154219018Y-108639000D01*
X154178000Y-108634960D01*
X154136982Y-108639000D01*
X153761869Y-108639000D01*
X152486361Y-107363493D01*
X152506236Y-107359540D01*
X152730992Y-107266443D01*
X152933267Y-107131287D01*
X153057554Y-107007000D01*
X159248001Y-107007000D01*
X159248000Y-107637151D01*
G37*
G04 #@! TD.AperFunction*
D22*
X171589761Y-98838765D02*
X171318765Y-99109761D01*
X171105844Y-99428419D01*
X170959182Y-99782493D01*
X170884414Y-100158376D01*
X170884414Y-100541624D01*
X170959182Y-100917507D01*
X171105844Y-101271581D01*
X171318765Y-101590239D01*
X171589761Y-101861235D01*
X171908419Y-102074156D01*
X172262493Y-102220818D01*
X172638376Y-102295586D01*
X173021624Y-102295586D01*
X173397507Y-102220818D01*
X173751581Y-102074156D01*
X174070239Y-101861235D01*
X174341235Y-101590239D01*
X174554156Y-101271581D01*
X174661643Y-101012085D01*
X175375906Y-104393742D01*
X175405289Y-104486639D01*
X175467924Y-104600564D01*
X175505797Y-104645617D01*
X175903466Y-105136928D01*
X175743750Y-105136928D01*
X175576592Y-105153392D01*
X175415858Y-105202150D01*
X175267725Y-105281329D01*
X175250000Y-105295875D01*
X175232275Y-105281329D01*
X175084142Y-105202150D01*
X174923408Y-105153392D01*
X174756250Y-105136928D01*
X174610072Y-105136928D01*
X174605781Y-105131699D01*
X174478636Y-105027354D01*
X174333577Y-104949818D01*
X174176179Y-104902072D01*
X174053509Y-104889990D01*
X174053508Y-104889990D01*
X174012490Y-104885950D01*
X173971472Y-104889990D01*
X172258895Y-104889990D01*
X172217887Y-104885951D01*
X172176879Y-104889990D01*
X172176869Y-104889990D01*
X172054199Y-104902072D01*
X171896801Y-104949818D01*
X171751742Y-105027354D01*
X171624597Y-105131699D01*
X171598442Y-105163569D01*
X171375076Y-105386935D01*
X171375000Y-105386928D01*
X171260750Y-105390000D01*
X171102000Y-105548750D01*
X171102000Y-105854930D01*
X171091614Y-105960378D01*
X171085950Y-106017888D01*
X171089990Y-106058906D01*
X171089990Y-106386264D01*
X170848000Y-106628254D01*
X170848000Y-106627000D01*
X170098750Y-106627000D01*
X170039172Y-106686578D01*
X169860236Y-106612460D01*
X169621637Y-106565000D01*
X169378363Y-106565000D01*
X169139764Y-106612460D01*
X168915008Y-106705557D01*
X168712733Y-106840713D01*
X168611248Y-106942198D01*
X168431624Y-106822176D01*
X168225067Y-106736617D01*
X168005788Y-106693000D01*
X167782212Y-106693000D01*
X167625000Y-106724271D01*
X167625000Y-106025000D01*
X169936928Y-106025000D01*
X169940000Y-106214250D01*
X170098750Y-106373000D01*
X170848000Y-106373000D01*
X170848000Y-105548750D01*
X170689250Y-105390000D01*
X170575000Y-105386928D01*
X170450518Y-105399188D01*
X170330820Y-105435498D01*
X170220506Y-105494463D01*
X170123815Y-105573815D01*
X170044463Y-105670506D01*
X169985498Y-105780820D01*
X169949188Y-105900518D01*
X169936928Y-106025000D01*
X167625000Y-106025000D01*
X167625000Y-103871554D01*
X167749287Y-103747267D01*
X167884443Y-103544992D01*
X167977540Y-103320236D01*
X168025000Y-103081637D01*
X168025000Y-102838363D01*
X167977540Y-102599764D01*
X167884443Y-102375008D01*
X167749287Y-102172733D01*
X167577267Y-102000713D01*
X167374992Y-101865557D01*
X167150236Y-101772460D01*
X166911637Y-101725000D01*
X166735869Y-101725000D01*
X163729446Y-98718579D01*
X163703291Y-98686709D01*
X163670746Y-98660000D01*
X171857301Y-98660000D01*
X171589761Y-98838765D01*
G04 #@! TA.AperFunction,Conductor*
D23*
G36*
X171589761Y-98838765D02*
G01*
X171318765Y-99109761D01*
X171105844Y-99428419D01*
X170959182Y-99782493D01*
X170884414Y-100158376D01*
X170884414Y-100541624D01*
X170959182Y-100917507D01*
X171105844Y-101271581D01*
X171318765Y-101590239D01*
X171589761Y-101861235D01*
X171908419Y-102074156D01*
X172262493Y-102220818D01*
X172638376Y-102295586D01*
X173021624Y-102295586D01*
X173397507Y-102220818D01*
X173751581Y-102074156D01*
X174070239Y-101861235D01*
X174341235Y-101590239D01*
X174554156Y-101271581D01*
X174661643Y-101012085D01*
X175375906Y-104393742D01*
X175405289Y-104486639D01*
X175467924Y-104600564D01*
X175505797Y-104645617D01*
X175903466Y-105136928D01*
X175743750Y-105136928D01*
X175576592Y-105153392D01*
X175415858Y-105202150D01*
X175267725Y-105281329D01*
X175250000Y-105295875D01*
X175232275Y-105281329D01*
X175084142Y-105202150D01*
X174923408Y-105153392D01*
X174756250Y-105136928D01*
X174610072Y-105136928D01*
X174605781Y-105131699D01*
X174478636Y-105027354D01*
X174333577Y-104949818D01*
X174176179Y-104902072D01*
X174053509Y-104889990D01*
X174053508Y-104889990D01*
X174012490Y-104885950D01*
X173971472Y-104889990D01*
X172258895Y-104889990D01*
X172217887Y-104885951D01*
X172176879Y-104889990D01*
X172176869Y-104889990D01*
X172054199Y-104902072D01*
X171896801Y-104949818D01*
X171751742Y-105027354D01*
X171624597Y-105131699D01*
X171598442Y-105163569D01*
X171375076Y-105386935D01*
X171375000Y-105386928D01*
X171260750Y-105390000D01*
X171102000Y-105548750D01*
X171102000Y-105854930D01*
X171091614Y-105960378D01*
X171085950Y-106017888D01*
X171089990Y-106058906D01*
X171089990Y-106386264D01*
X170848000Y-106628254D01*
X170848000Y-106627000D01*
X170098750Y-106627000D01*
X170039172Y-106686578D01*
X169860236Y-106612460D01*
X169621637Y-106565000D01*
X169378363Y-106565000D01*
X169139764Y-106612460D01*
X168915008Y-106705557D01*
X168712733Y-106840713D01*
X168611248Y-106942198D01*
X168431624Y-106822176D01*
X168225067Y-106736617D01*
X168005788Y-106693000D01*
X167782212Y-106693000D01*
X167625000Y-106724271D01*
X167625000Y-106025000D01*
X169936928Y-106025000D01*
X169940000Y-106214250D01*
X170098750Y-106373000D01*
X170848000Y-106373000D01*
X170848000Y-105548750D01*
X170689250Y-105390000D01*
X170575000Y-105386928D01*
X170450518Y-105399188D01*
X170330820Y-105435498D01*
X170220506Y-105494463D01*
X170123815Y-105573815D01*
X170044463Y-105670506D01*
X169985498Y-105780820D01*
X169949188Y-105900518D01*
X169936928Y-106025000D01*
X167625000Y-106025000D01*
X167625000Y-103871554D01*
X167749287Y-103747267D01*
X167884443Y-103544992D01*
X167977540Y-103320236D01*
X168025000Y-103081637D01*
X168025000Y-102838363D01*
X167977540Y-102599764D01*
X167884443Y-102375008D01*
X167749287Y-102172733D01*
X167577267Y-102000713D01*
X167374992Y-101865557D01*
X167150236Y-101772460D01*
X166911637Y-101725000D01*
X166735869Y-101725000D01*
X163729446Y-98718579D01*
X163703291Y-98686709D01*
X163670746Y-98660000D01*
X171857301Y-98660000D01*
X171589761Y-98838765D01*
G37*
G04 #@! TD.AperFunction*
M02*
