M48
; DRILL file {KiCad 5.1.8-1.fc33} date Mon Aug  2 18:18:12 2021
; FORMAT={-:-/ absolute / inch / decimal}
; #@! TF.CreationDate,2021-08-02T18:18:12+02:00
; #@! TF.GenerationSoftware,Kicad,Pcbnew,5.1.8-1.fc33
; #@! TF.FileFunction,Plated,1,2,PTH
FMAT,2
INCH
T1C0.0197
T2C0.0236
T3C0.0256
T4C0.0394
%
G90
G05
T1
X6.61Y-4.2452
X6.61Y-4.32
T2
X5.6791Y-4.1004
X5.689Y-4.3268
X5.7165Y-5.0669
X5.7283Y-5.1654
X5.7323Y-4.4921
X5.8504Y-5.3031
X5.8736Y-5.1488
X5.8819Y-4.5118
X5.9356Y-5.031
X5.937Y-4.4921
X5.9409Y-4.689
X5.9639Y-4.5866
X5.9843Y-4.3661
X5.99Y-4.0
X5.99Y-4.18
X6.03Y-4.12
X6.0394Y-4.5354
X6.0394Y-4.7008
X6.0472Y-4.7598
X6.0488Y-4.3618
X6.05Y-4.24
X6.0953Y-3.911
X6.159Y-5.2433
X6.1772Y-4.7874
X6.1823Y-3.9087
X6.1984Y-3.9807
X6.2155Y-4.0943
X6.2323Y-5.0118
X6.2362Y-4.5276
X6.3041Y-4.5031
X6.3056Y-4.2988
X6.3596Y-4.4412
X6.4035Y-4.7756
X6.41Y-4.1024
X6.4478Y-4.1513
X6.4626Y-4.8642
X6.4965Y-4.7218
X6.498Y-4.3602
X6.5217Y-4.811
X6.5275Y-4.2472
X6.561Y-4.3839
X6.5665Y-4.0535
X6.6307Y-5.0038
X6.6732Y-4.2441
X6.6803Y-3.8984
X6.689Y-4.6791
X6.7217Y-5.3575
X6.75Y-4.0709
X6.764Y-4.4277
X6.7754Y-4.7369
X6.7934Y-4.8502
X6.8465Y-4.4016
X6.904Y-4.5832
X6.9055Y-4.8484
X7.0494Y-4.4093
T3
X6.7531Y-5.2272
X6.8031Y-5.2272
X6.8531Y-5.2272
X5.7879Y-5.2202
X5.7879Y-5.2702
X5.7879Y-5.3202
X5.7879Y-5.3702
X5.7879Y-5.4202
T4
X5.5Y-4.626
X5.5Y-4.726
X5.5799Y-4.3268
X5.6299Y-4.2402
X5.5787Y-5.0197
X5.6287Y-5.1063
T0
M30
