G04 #@! TF.GenerationSoftware,KiCad,Pcbnew,5.1.8-1.fc33*
G04 #@! TF.CreationDate,2020-12-20T15:22:41+01:00*
G04 #@! TF.ProjectId,venom,76656e6f-6d2e-46b6-9963-61645f706362,rev?*
G04 #@! TF.SameCoordinates,Original*
G04 #@! TF.FileFunction,Copper,L2,Bot*
G04 #@! TF.FilePolarity,Positive*
%FSLAX46Y46*%
G04 Gerber Fmt 4.6, Leading zero omitted, Abs format (unit mm)*
G04 Created by KiCad (PCBNEW 5.1.8-1.fc33) date 2020-12-20 15:22:41*
%MOMM*%
%LPD*%
G01*
G04 APERTURE LIST*
G04 #@! TA.AperFunction,ComponentPad*
%ADD10C,1.000000*%
G04 #@! TD*
G04 #@! TA.AperFunction,SMDPad,CuDef*
%ADD11R,0.900000X1.200000*%
G04 #@! TD*
G04 #@! TA.AperFunction,ComponentPad*
%ADD12C,0.500000*%
G04 #@! TD*
G04 #@! TA.AperFunction,ComponentPad*
%ADD13R,1.000000X1.000000*%
G04 #@! TD*
G04 #@! TA.AperFunction,ComponentPad*
%ADD14O,1.000000X1.000000*%
G04 #@! TD*
G04 #@! TA.AperFunction,SMDPad,CuDef*
%ADD15R,0.450000X0.600000*%
G04 #@! TD*
G04 #@! TA.AperFunction,ViaPad*
%ADD16C,1.200000*%
G04 #@! TD*
G04 #@! TA.AperFunction,ViaPad*
%ADD17C,1.500000*%
G04 #@! TD*
G04 #@! TA.AperFunction,Conductor*
%ADD18C,0.400000*%
G04 #@! TD*
G04 #@! TA.AperFunction,Conductor*
%ADD19C,0.300000*%
G04 #@! TD*
G04 #@! TA.AperFunction,Conductor*
%ADD20C,0.254000*%
G04 #@! TD*
G04 #@! TA.AperFunction,Conductor*
%ADD21C,0.100000*%
G04 #@! TD*
G04 APERTURE END LIST*
D10*
X167894000Y-109728000D03*
X167894000Y-107828000D03*
G04 #@! TA.AperFunction,SMDPad,CuDef*
G36*
G01*
X147825000Y-118336250D02*
X147825000Y-117823750D01*
G75*
G02*
X148043750Y-117605000I218750J0D01*
G01*
X148481250Y-117605000D01*
G75*
G02*
X148700000Y-117823750I0J-218750D01*
G01*
X148700000Y-118336250D01*
G75*
G02*
X148481250Y-118555000I-218750J0D01*
G01*
X148043750Y-118555000D01*
G75*
G02*
X147825000Y-118336250I0J218750D01*
G01*
G37*
G04 #@! TD.AperFunction*
G04 #@! TA.AperFunction,SMDPad,CuDef*
G36*
G01*
X149400000Y-118336250D02*
X149400000Y-117823750D01*
G75*
G02*
X149618750Y-117605000I218750J0D01*
G01*
X150056250Y-117605000D01*
G75*
G02*
X150275000Y-117823750I0J-218750D01*
G01*
X150275000Y-118336250D01*
G75*
G02*
X150056250Y-118555000I-218750J0D01*
G01*
X149618750Y-118555000D01*
G75*
G02*
X149400000Y-118336250I0J218750D01*
G01*
G37*
G04 #@! TD.AperFunction*
D11*
X146540000Y-123070000D03*
X149840000Y-123070000D03*
X146540000Y-125450000D03*
X149840000Y-125450000D03*
X146550000Y-120560000D03*
X149850000Y-120560000D03*
G04 #@! TA.AperFunction,SMDPad,CuDef*
G36*
G01*
X147743750Y-105670000D02*
X148256250Y-105670000D01*
G75*
G02*
X148475000Y-105888750I0J-218750D01*
G01*
X148475000Y-106326250D01*
G75*
G02*
X148256250Y-106545000I-218750J0D01*
G01*
X147743750Y-106545000D01*
G75*
G02*
X147525000Y-106326250I0J218750D01*
G01*
X147525000Y-105888750D01*
G75*
G02*
X147743750Y-105670000I218750J0D01*
G01*
G37*
G04 #@! TD.AperFunction*
G04 #@! TA.AperFunction,SMDPad,CuDef*
G36*
G01*
X147743750Y-104095000D02*
X148256250Y-104095000D01*
G75*
G02*
X148475000Y-104313750I0J-218750D01*
G01*
X148475000Y-104751250D01*
G75*
G02*
X148256250Y-104970000I-218750J0D01*
G01*
X147743750Y-104970000D01*
G75*
G02*
X147525000Y-104751250I0J218750D01*
G01*
X147525000Y-104313750D01*
G75*
G02*
X147743750Y-104095000I218750J0D01*
G01*
G37*
G04 #@! TD.AperFunction*
G04 #@! TA.AperFunction,SMDPad,CuDef*
G36*
G01*
X147743750Y-107155000D02*
X148256250Y-107155000D01*
G75*
G02*
X148475000Y-107373750I0J-218750D01*
G01*
X148475000Y-107811250D01*
G75*
G02*
X148256250Y-108030000I-218750J0D01*
G01*
X147743750Y-108030000D01*
G75*
G02*
X147525000Y-107811250I0J218750D01*
G01*
X147525000Y-107373750D01*
G75*
G02*
X147743750Y-107155000I218750J0D01*
G01*
G37*
G04 #@! TD.AperFunction*
G04 #@! TA.AperFunction,SMDPad,CuDef*
G36*
G01*
X147743750Y-108730000D02*
X148256250Y-108730000D01*
G75*
G02*
X148475000Y-108948750I0J-218750D01*
G01*
X148475000Y-109386250D01*
G75*
G02*
X148256250Y-109605000I-218750J0D01*
G01*
X147743750Y-109605000D01*
G75*
G02*
X147525000Y-109386250I0J218750D01*
G01*
X147525000Y-108948750D01*
G75*
G02*
X147743750Y-108730000I218750J0D01*
G01*
G37*
G04 #@! TD.AperFunction*
G04 #@! TA.AperFunction,SMDPad,CuDef*
G36*
G01*
X175083750Y-108895000D02*
X175596250Y-108895000D01*
G75*
G02*
X175815000Y-109113750I0J-218750D01*
G01*
X175815000Y-109551250D01*
G75*
G02*
X175596250Y-109770000I-218750J0D01*
G01*
X175083750Y-109770000D01*
G75*
G02*
X174865000Y-109551250I0J218750D01*
G01*
X174865000Y-109113750D01*
G75*
G02*
X175083750Y-108895000I218750J0D01*
G01*
G37*
G04 #@! TD.AperFunction*
G04 #@! TA.AperFunction,SMDPad,CuDef*
G36*
G01*
X175083750Y-110470000D02*
X175596250Y-110470000D01*
G75*
G02*
X175815000Y-110688750I0J-218750D01*
G01*
X175815000Y-111126250D01*
G75*
G02*
X175596250Y-111345000I-218750J0D01*
G01*
X175083750Y-111345000D01*
G75*
G02*
X174865000Y-111126250I0J218750D01*
G01*
X174865000Y-110688750D01*
G75*
G02*
X175083750Y-110470000I218750J0D01*
G01*
G37*
G04 #@! TD.AperFunction*
G04 #@! TA.AperFunction,SMDPad,CuDef*
G36*
G01*
X176603750Y-110470000D02*
X177116250Y-110470000D01*
G75*
G02*
X177335000Y-110688750I0J-218750D01*
G01*
X177335000Y-111126250D01*
G75*
G02*
X177116250Y-111345000I-218750J0D01*
G01*
X176603750Y-111345000D01*
G75*
G02*
X176385000Y-111126250I0J218750D01*
G01*
X176385000Y-110688750D01*
G75*
G02*
X176603750Y-110470000I218750J0D01*
G01*
G37*
G04 #@! TD.AperFunction*
G04 #@! TA.AperFunction,SMDPad,CuDef*
G36*
G01*
X176603750Y-108895000D02*
X177116250Y-108895000D01*
G75*
G02*
X177335000Y-109113750I0J-218750D01*
G01*
X177335000Y-109551250D01*
G75*
G02*
X177116250Y-109770000I-218750J0D01*
G01*
X176603750Y-109770000D01*
G75*
G02*
X176385000Y-109551250I0J218750D01*
G01*
X176385000Y-109113750D01*
G75*
G02*
X176603750Y-108895000I218750J0D01*
G01*
G37*
G04 #@! TD.AperFunction*
G04 #@! TA.AperFunction,SMDPad,CuDef*
G36*
G01*
X170645000Y-116420003D02*
X170645000Y-113819997D01*
G75*
G02*
X170894997Y-113570000I249997J0D01*
G01*
X172805003Y-113570000D01*
G75*
G02*
X173055000Y-113819997I0J-249997D01*
G01*
X173055000Y-116420003D01*
G75*
G02*
X172805003Y-116670000I-249997J0D01*
G01*
X170894997Y-116670000D01*
G75*
G02*
X170645000Y-116420003I0J249997D01*
G01*
G37*
G04 #@! TD.AperFunction*
D12*
X170895000Y-116420000D03*
X172805000Y-116420000D03*
X170895000Y-115120000D03*
X172805000Y-115120000D03*
X170895000Y-113820000D03*
X172805000Y-113820000D03*
G04 #@! TA.AperFunction,SMDPad,CuDef*
G36*
G01*
X168400000Y-117175000D02*
X168400000Y-116875000D01*
G75*
G02*
X168550000Y-116725000I150000J0D01*
G01*
X169850000Y-116725000D01*
G75*
G02*
X170000000Y-116875000I0J-150000D01*
G01*
X170000000Y-117175000D01*
G75*
G02*
X169850000Y-117325000I-150000J0D01*
G01*
X168550000Y-117325000D01*
G75*
G02*
X168400000Y-117175000I0J150000D01*
G01*
G37*
G04 #@! TD.AperFunction*
G04 #@! TA.AperFunction,SMDPad,CuDef*
G36*
G01*
X168400000Y-115905000D02*
X168400000Y-115605000D01*
G75*
G02*
X168550000Y-115455000I150000J0D01*
G01*
X169850000Y-115455000D01*
G75*
G02*
X170000000Y-115605000I0J-150000D01*
G01*
X170000000Y-115905000D01*
G75*
G02*
X169850000Y-116055000I-150000J0D01*
G01*
X168550000Y-116055000D01*
G75*
G02*
X168400000Y-115905000I0J150000D01*
G01*
G37*
G04 #@! TD.AperFunction*
G04 #@! TA.AperFunction,SMDPad,CuDef*
G36*
G01*
X168400000Y-114635000D02*
X168400000Y-114335000D01*
G75*
G02*
X168550000Y-114185000I150000J0D01*
G01*
X169850000Y-114185000D01*
G75*
G02*
X170000000Y-114335000I0J-150000D01*
G01*
X170000000Y-114635000D01*
G75*
G02*
X169850000Y-114785000I-150000J0D01*
G01*
X168550000Y-114785000D01*
G75*
G02*
X168400000Y-114635000I0J150000D01*
G01*
G37*
G04 #@! TD.AperFunction*
G04 #@! TA.AperFunction,SMDPad,CuDef*
G36*
G01*
X168400000Y-113365000D02*
X168400000Y-113065000D01*
G75*
G02*
X168550000Y-112915000I150000J0D01*
G01*
X169850000Y-112915000D01*
G75*
G02*
X170000000Y-113065000I0J-150000D01*
G01*
X170000000Y-113365000D01*
G75*
G02*
X169850000Y-113515000I-150000J0D01*
G01*
X168550000Y-113515000D01*
G75*
G02*
X168400000Y-113365000I0J150000D01*
G01*
G37*
G04 #@! TD.AperFunction*
G04 #@! TA.AperFunction,SMDPad,CuDef*
G36*
G01*
X173700000Y-113365000D02*
X173700000Y-113065000D01*
G75*
G02*
X173850000Y-112915000I150000J0D01*
G01*
X175150000Y-112915000D01*
G75*
G02*
X175300000Y-113065000I0J-150000D01*
G01*
X175300000Y-113365000D01*
G75*
G02*
X175150000Y-113515000I-150000J0D01*
G01*
X173850000Y-113515000D01*
G75*
G02*
X173700000Y-113365000I0J150000D01*
G01*
G37*
G04 #@! TD.AperFunction*
G04 #@! TA.AperFunction,SMDPad,CuDef*
G36*
G01*
X173700000Y-114635000D02*
X173700000Y-114335000D01*
G75*
G02*
X173850000Y-114185000I150000J0D01*
G01*
X175150000Y-114185000D01*
G75*
G02*
X175300000Y-114335000I0J-150000D01*
G01*
X175300000Y-114635000D01*
G75*
G02*
X175150000Y-114785000I-150000J0D01*
G01*
X173850000Y-114785000D01*
G75*
G02*
X173700000Y-114635000I0J150000D01*
G01*
G37*
G04 #@! TD.AperFunction*
G04 #@! TA.AperFunction,SMDPad,CuDef*
G36*
G01*
X173700000Y-115905000D02*
X173700000Y-115605000D01*
G75*
G02*
X173850000Y-115455000I150000J0D01*
G01*
X175150000Y-115455000D01*
G75*
G02*
X175300000Y-115605000I0J-150000D01*
G01*
X175300000Y-115905000D01*
G75*
G02*
X175150000Y-116055000I-150000J0D01*
G01*
X173850000Y-116055000D01*
G75*
G02*
X173700000Y-115905000I0J150000D01*
G01*
G37*
G04 #@! TD.AperFunction*
G04 #@! TA.AperFunction,SMDPad,CuDef*
G36*
G01*
X173700000Y-117175000D02*
X173700000Y-116875000D01*
G75*
G02*
X173850000Y-116725000I150000J0D01*
G01*
X175150000Y-116725000D01*
G75*
G02*
X175300000Y-116875000I0J-150000D01*
G01*
X175300000Y-117175000D01*
G75*
G02*
X175150000Y-117325000I-150000J0D01*
G01*
X173850000Y-117325000D01*
G75*
G02*
X173700000Y-117175000I0J150000D01*
G01*
G37*
G04 #@! TD.AperFunction*
G04 #@! TA.AperFunction,SMDPad,CuDef*
G36*
G01*
X174943750Y-118275000D02*
X175456250Y-118275000D01*
G75*
G02*
X175675000Y-118493750I0J-218750D01*
G01*
X175675000Y-118931250D01*
G75*
G02*
X175456250Y-119150000I-218750J0D01*
G01*
X174943750Y-119150000D01*
G75*
G02*
X174725000Y-118931250I0J218750D01*
G01*
X174725000Y-118493750D01*
G75*
G02*
X174943750Y-118275000I218750J0D01*
G01*
G37*
G04 #@! TD.AperFunction*
G04 #@! TA.AperFunction,SMDPad,CuDef*
G36*
G01*
X174943750Y-119850000D02*
X175456250Y-119850000D01*
G75*
G02*
X175675000Y-120068750I0J-218750D01*
G01*
X175675000Y-120506250D01*
G75*
G02*
X175456250Y-120725000I-218750J0D01*
G01*
X174943750Y-120725000D01*
G75*
G02*
X174725000Y-120506250I0J218750D01*
G01*
X174725000Y-120068750D01*
G75*
G02*
X174943750Y-119850000I218750J0D01*
G01*
G37*
G04 #@! TD.AperFunction*
G04 #@! TA.AperFunction,SMDPad,CuDef*
G36*
G01*
X174456250Y-106000000D02*
X173943750Y-106000000D01*
G75*
G02*
X173725000Y-105781250I0J218750D01*
G01*
X173725000Y-105343750D01*
G75*
G02*
X173943750Y-105125000I218750J0D01*
G01*
X174456250Y-105125000D01*
G75*
G02*
X174675000Y-105343750I0J-218750D01*
G01*
X174675000Y-105781250D01*
G75*
G02*
X174456250Y-106000000I-218750J0D01*
G01*
G37*
G04 #@! TD.AperFunction*
G04 #@! TA.AperFunction,SMDPad,CuDef*
G36*
G01*
X174456250Y-107575000D02*
X173943750Y-107575000D01*
G75*
G02*
X173725000Y-107356250I0J218750D01*
G01*
X173725000Y-106918750D01*
G75*
G02*
X173943750Y-106700000I218750J0D01*
G01*
X174456250Y-106700000D01*
G75*
G02*
X174675000Y-106918750I0J-218750D01*
G01*
X174675000Y-107356250D01*
G75*
G02*
X174456250Y-107575000I-218750J0D01*
G01*
G37*
G04 #@! TD.AperFunction*
G04 #@! TA.AperFunction,SMDPad,CuDef*
G36*
G01*
X176256250Y-108225000D02*
X175743750Y-108225000D01*
G75*
G02*
X175525000Y-108006250I0J218750D01*
G01*
X175525000Y-107568750D01*
G75*
G02*
X175743750Y-107350000I218750J0D01*
G01*
X176256250Y-107350000D01*
G75*
G02*
X176475000Y-107568750I0J-218750D01*
G01*
X176475000Y-108006250D01*
G75*
G02*
X176256250Y-108225000I-218750J0D01*
G01*
G37*
G04 #@! TD.AperFunction*
G04 #@! TA.AperFunction,SMDPad,CuDef*
G36*
G01*
X176256250Y-106650000D02*
X175743750Y-106650000D01*
G75*
G02*
X175525000Y-106431250I0J218750D01*
G01*
X175525000Y-105993750D01*
G75*
G02*
X175743750Y-105775000I218750J0D01*
G01*
X176256250Y-105775000D01*
G75*
G02*
X176475000Y-105993750I0J-218750D01*
G01*
X176475000Y-106431250D01*
G75*
G02*
X176256250Y-106650000I-218750J0D01*
G01*
G37*
G04 #@! TD.AperFunction*
G04 #@! TA.AperFunction,SMDPad,CuDef*
G36*
G01*
X152515000Y-112503750D02*
X152515000Y-113016250D01*
G75*
G02*
X152296250Y-113235000I-218750J0D01*
G01*
X151858750Y-113235000D01*
G75*
G02*
X151640000Y-113016250I0J218750D01*
G01*
X151640000Y-112503750D01*
G75*
G02*
X151858750Y-112285000I218750J0D01*
G01*
X152296250Y-112285000D01*
G75*
G02*
X152515000Y-112503750I0J-218750D01*
G01*
G37*
G04 #@! TD.AperFunction*
G04 #@! TA.AperFunction,SMDPad,CuDef*
G36*
G01*
X150940000Y-112503750D02*
X150940000Y-113016250D01*
G75*
G02*
X150721250Y-113235000I-218750J0D01*
G01*
X150283750Y-113235000D01*
G75*
G02*
X150065000Y-113016250I0J218750D01*
G01*
X150065000Y-112503750D01*
G75*
G02*
X150283750Y-112285000I218750J0D01*
G01*
X150721250Y-112285000D01*
G75*
G02*
X150940000Y-112503750I0J-218750D01*
G01*
G37*
G04 #@! TD.AperFunction*
D13*
X147012660Y-132593080D03*
D14*
X147012660Y-133863080D03*
X147012660Y-135133080D03*
X147012660Y-136403080D03*
X147012660Y-137673080D03*
G04 #@! TA.AperFunction,SMDPad,CuDef*
G36*
G01*
X162485620Y-114489040D02*
X162485620Y-113989040D01*
G75*
G02*
X162710620Y-113764040I225000J0D01*
G01*
X163160620Y-113764040D01*
G75*
G02*
X163385620Y-113989040I0J-225000D01*
G01*
X163385620Y-114489040D01*
G75*
G02*
X163160620Y-114714040I-225000J0D01*
G01*
X162710620Y-114714040D01*
G75*
G02*
X162485620Y-114489040I0J225000D01*
G01*
G37*
G04 #@! TD.AperFunction*
G04 #@! TA.AperFunction,SMDPad,CuDef*
G36*
G01*
X164035620Y-114489040D02*
X164035620Y-113989040D01*
G75*
G02*
X164260620Y-113764040I225000J0D01*
G01*
X164710620Y-113764040D01*
G75*
G02*
X164935620Y-113989040I0J-225000D01*
G01*
X164935620Y-114489040D01*
G75*
G02*
X164710620Y-114714040I-225000J0D01*
G01*
X164260620Y-114714040D01*
G75*
G02*
X164035620Y-114489040I0J225000D01*
G01*
G37*
G04 #@! TD.AperFunction*
D15*
X173982380Y-127491780D03*
X173982380Y-129591780D03*
G04 #@! TA.AperFunction,SMDPad,CuDef*
G36*
G01*
X170654160Y-127088220D02*
X170654160Y-127638220D01*
G75*
G02*
X170454160Y-127838220I-200000J0D01*
G01*
X170054160Y-127838220D01*
G75*
G02*
X169854160Y-127638220I0J200000D01*
G01*
X169854160Y-127088220D01*
G75*
G02*
X170054160Y-126888220I200000J0D01*
G01*
X170454160Y-126888220D01*
G75*
G02*
X170654160Y-127088220I0J-200000D01*
G01*
G37*
G04 #@! TD.AperFunction*
G04 #@! TA.AperFunction,SMDPad,CuDef*
G36*
G01*
X172304160Y-127088220D02*
X172304160Y-127638220D01*
G75*
G02*
X172104160Y-127838220I-200000J0D01*
G01*
X171704160Y-127838220D01*
G75*
G02*
X171504160Y-127638220I0J200000D01*
G01*
X171504160Y-127088220D01*
G75*
G02*
X171704160Y-126888220I200000J0D01*
G01*
X172104160Y-126888220D01*
G75*
G02*
X172304160Y-127088220I0J-200000D01*
G01*
G37*
G04 #@! TD.AperFunction*
G04 #@! TA.AperFunction,SMDPad,CuDef*
G36*
G01*
X169269960Y-124834060D02*
X169269960Y-124284060D01*
G75*
G02*
X169469960Y-124084060I200000J0D01*
G01*
X169869960Y-124084060D01*
G75*
G02*
X170069960Y-124284060I0J-200000D01*
G01*
X170069960Y-124834060D01*
G75*
G02*
X169869960Y-125034060I-200000J0D01*
G01*
X169469960Y-125034060D01*
G75*
G02*
X169269960Y-124834060I0J200000D01*
G01*
G37*
G04 #@! TD.AperFunction*
G04 #@! TA.AperFunction,SMDPad,CuDef*
G36*
G01*
X170919960Y-124834060D02*
X170919960Y-124284060D01*
G75*
G02*
X171119960Y-124084060I200000J0D01*
G01*
X171519960Y-124084060D01*
G75*
G02*
X171719960Y-124284060I0J-200000D01*
G01*
X171719960Y-124834060D01*
G75*
G02*
X171519960Y-125034060I-200000J0D01*
G01*
X171119960Y-125034060D01*
G75*
G02*
X170919960Y-124834060I0J200000D01*
G01*
G37*
G04 #@! TD.AperFunction*
D13*
X174068740Y-132770880D03*
D14*
X172798740Y-132770880D03*
X171528740Y-132770880D03*
G04 #@! TA.AperFunction,SMDPad,CuDef*
G36*
G01*
X158221000Y-109427560D02*
X158771000Y-109427560D01*
G75*
G02*
X158971000Y-109627560I0J-200000D01*
G01*
X158971000Y-110027560D01*
G75*
G02*
X158771000Y-110227560I-200000J0D01*
G01*
X158221000Y-110227560D01*
G75*
G02*
X158021000Y-110027560I0J200000D01*
G01*
X158021000Y-109627560D01*
G75*
G02*
X158221000Y-109427560I200000J0D01*
G01*
G37*
G04 #@! TD.AperFunction*
G04 #@! TA.AperFunction,SMDPad,CuDef*
G36*
G01*
X158221000Y-111077560D02*
X158771000Y-111077560D01*
G75*
G02*
X158971000Y-111277560I0J-200000D01*
G01*
X158971000Y-111677560D01*
G75*
G02*
X158771000Y-111877560I-200000J0D01*
G01*
X158221000Y-111877560D01*
G75*
G02*
X158021000Y-111677560I0J200000D01*
G01*
X158021000Y-111277560D01*
G75*
G02*
X158221000Y-111077560I200000J0D01*
G01*
G37*
G04 #@! TD.AperFunction*
D16*
X145900000Y-110830000D03*
X147950000Y-115300000D03*
X144250000Y-104150000D03*
X171450000Y-103400000D03*
X169900000Y-118850000D03*
X179055000Y-111995000D03*
X154700000Y-120850000D03*
X175400000Y-123150000D03*
X169680000Y-99020000D03*
X153162000Y-104648000D03*
X153670000Y-107696000D03*
D17*
X156438600Y-133179820D03*
X154820000Y-99340000D03*
X157873700Y-103995220D03*
X171805600Y-112463580D03*
D16*
X162814000Y-104200000D03*
X152146000Y-106172000D03*
X158300000Y-127300000D03*
X164150000Y-123550000D03*
X172552360Y-123195080D03*
X149190000Y-130780000D03*
X150763173Y-127786827D03*
X164700000Y-107350000D03*
X165050000Y-110749999D03*
D17*
X157440000Y-101110000D03*
D16*
X166790000Y-102960000D03*
X166650000Y-111350000D03*
D17*
X157030000Y-99280000D03*
D16*
X152146000Y-101600000D03*
X173900000Y-111800000D03*
X169150000Y-111900000D03*
X170250000Y-121450000D03*
X168300000Y-120050000D03*
X153640000Y-110790000D03*
X154200000Y-115400000D03*
X165011100Y-119933720D03*
X162650000Y-121300000D03*
X149650000Y-109950000D03*
X170730000Y-136080000D03*
X165650000Y-122200000D03*
X143440000Y-112410000D03*
X139965000Y-113715000D03*
X142140000Y-119110000D03*
X141960000Y-124060000D03*
D17*
X168419780Y-127096520D03*
X160124468Y-114378412D03*
X152382220Y-120053100D03*
X158231840Y-114401600D03*
D18*
X148000000Y-109167500D02*
X147562500Y-109167500D01*
X147562500Y-109167500D02*
X145900000Y-110830000D01*
X149069999Y-126450001D02*
X151649999Y-126450001D01*
X146540000Y-123070000D02*
X146540000Y-123220000D01*
X151649999Y-126450001D02*
X152500000Y-125600000D01*
D19*
X145900000Y-110830000D02*
X145900000Y-110830000D01*
D18*
X169200000Y-117025000D02*
X169200000Y-118150000D01*
X169200000Y-118150000D02*
X169900000Y-118850000D01*
X168135000Y-114485000D02*
X167300000Y-113650000D01*
X169200000Y-114485000D02*
X168135000Y-114485000D01*
D19*
X175400000Y-123150000D02*
X175400000Y-123150000D01*
D18*
X146540000Y-123220000D02*
X148800000Y-125480000D01*
X148800000Y-125480000D02*
X148800000Y-126111458D01*
X149104271Y-126415729D02*
X148800000Y-126111458D01*
X175200000Y-122950000D02*
X175400000Y-123150000D01*
X175200000Y-120287500D02*
X175200000Y-122950000D01*
X168829290Y-116654290D02*
X169200000Y-117025000D01*
X167969168Y-116654290D02*
X168829290Y-116654290D01*
X147950000Y-115300000D02*
X149150001Y-116500001D01*
X167814879Y-116500001D02*
X167969168Y-116654290D01*
X149150001Y-116500001D02*
X167814879Y-116500001D01*
X168954040Y-114239040D02*
X169200000Y-114485000D01*
X164485620Y-114239040D02*
X168954040Y-114239040D01*
X173990940Y-124559060D02*
X175400000Y-123150000D01*
X171319960Y-124559060D02*
X173990940Y-124559060D01*
X171473584Y-112463580D02*
X171805600Y-112463580D01*
X169452164Y-114485000D02*
X171473584Y-112463580D01*
X169200000Y-114485000D02*
X169452164Y-114485000D01*
X160400000Y-127300000D02*
X158300000Y-127300000D01*
X164150000Y-123550000D02*
X160400000Y-127300000D01*
X152146000Y-106172000D02*
X159428000Y-106172000D01*
X159428000Y-106172000D02*
X161400000Y-104200000D01*
X161400000Y-104200000D02*
X163322000Y-104200000D01*
X160083000Y-106931000D02*
X162814000Y-104200000D01*
X160083000Y-107983020D02*
X160083000Y-106931000D01*
X158496000Y-109570020D02*
X160083000Y-107983020D01*
X158496000Y-109827560D02*
X158496000Y-109570020D01*
X149840000Y-122920000D02*
X149840000Y-123070000D01*
X148262500Y-122242500D02*
X149090000Y-123070000D01*
X149090000Y-123070000D02*
X149840000Y-123070000D01*
X148262500Y-118080000D02*
X148262500Y-122242500D01*
X149840000Y-125450000D02*
X149840000Y-123070000D01*
D19*
X149850000Y-118092500D02*
X149837500Y-118080000D01*
D18*
X149850000Y-120560000D02*
X149850000Y-118092500D01*
X167199999Y-118199999D02*
X167199999Y-120757119D01*
X166310000Y-117310000D02*
X167199999Y-118199999D01*
X167199999Y-120757119D02*
X167471440Y-121028560D01*
D19*
X167321440Y-120878560D02*
X167471440Y-121028560D01*
D18*
X156150002Y-117310000D02*
X166310000Y-117310000D01*
X169637960Y-123195080D02*
X172552360Y-123195080D01*
X167471440Y-121028560D02*
X169637960Y-123195080D01*
X155380002Y-118080000D02*
X156150002Y-117310000D01*
X149837500Y-118080000D02*
X155380002Y-118080000D01*
X146550000Y-120560000D02*
X146550000Y-121460000D01*
X149180000Y-130770000D02*
X149190000Y-130780000D01*
X149190000Y-130780000D02*
X149190000Y-130780000D01*
X146550000Y-121460000D02*
X145790000Y-121460000D01*
X145790000Y-121460000D02*
X145300000Y-121950000D01*
X145300000Y-126890000D02*
X146355000Y-127945000D01*
X145739999Y-127329999D02*
X146355000Y-127945000D01*
X145300000Y-121950000D02*
X145300000Y-126890000D01*
X146355000Y-127945000D02*
X149180000Y-130770000D01*
X146540000Y-125450000D02*
X147290000Y-125450000D01*
X147290000Y-125450000D02*
X149343419Y-127503419D01*
X149343419Y-127503419D02*
X150479765Y-127503419D01*
X150479765Y-127503419D02*
X150763173Y-127786827D01*
D19*
X165050000Y-107700000D02*
X164700000Y-107350000D01*
D18*
X165050000Y-110749999D02*
X165050000Y-107700000D01*
X157440000Y-102290000D02*
X157440000Y-101110000D01*
X158000000Y-102850000D02*
X157440000Y-102290000D01*
X163020000Y-102850000D02*
X158000000Y-102850000D01*
X165449999Y-105279999D02*
X163020000Y-102850000D01*
X165449999Y-106600001D02*
X165449999Y-105279999D01*
X164700000Y-107350000D02*
X165449999Y-106600001D01*
X166790000Y-102960000D02*
X166790000Y-102960000D01*
D19*
X166900000Y-103070000D02*
X166790000Y-102960000D01*
D18*
X166790000Y-111210000D02*
X166650000Y-111350000D01*
X166790000Y-102960000D02*
X166790000Y-111210000D01*
X166790000Y-102940000D02*
X166790000Y-102960000D01*
X166790000Y-102960000D02*
X166040001Y-102210001D01*
X163110000Y-99280000D02*
X166040001Y-102210001D01*
X157030000Y-99280000D02*
X163110000Y-99280000D01*
D19*
X173900000Y-111800000D02*
X174060000Y-111640000D01*
D18*
X174060000Y-111640000D02*
X174060000Y-110890000D01*
D19*
X174060000Y-111600000D02*
X174060000Y-110890000D01*
D18*
X174500000Y-112400000D02*
X173900000Y-111800000D01*
X174500000Y-113215000D02*
X174500000Y-112400000D01*
X148461612Y-104070888D02*
X150919112Y-104070888D01*
X148000000Y-104532500D02*
X148461612Y-104070888D01*
X174060000Y-110890000D02*
X174060000Y-108510000D01*
X173900000Y-111800000D02*
X172190000Y-110090000D01*
X150919112Y-106977112D02*
X153416000Y-109474000D01*
X150919112Y-104070888D02*
X150919112Y-106977112D01*
X153416000Y-109474000D02*
X154178000Y-109474000D01*
X152146000Y-102844000D02*
X152146000Y-101600000D01*
X150919112Y-104070888D02*
X152146000Y-102844000D01*
X172190000Y-110090000D02*
X169056000Y-110090000D01*
X169056000Y-110090000D02*
X167550001Y-111595999D01*
X155333700Y-110629700D02*
X163304220Y-110629700D01*
X154178000Y-109474000D02*
X155333700Y-110629700D01*
X164924521Y-112250001D02*
X167391641Y-112250001D01*
X167391641Y-112250001D02*
X167550001Y-112091641D01*
X163304220Y-110629700D02*
X164924521Y-112250001D01*
X167550001Y-111595999D02*
X167550001Y-112091641D01*
D19*
X175400000Y-117025000D02*
X174500000Y-117025000D01*
D18*
X177685010Y-114739990D02*
X175400000Y-117025000D01*
X169200000Y-113215000D02*
X169200000Y-111950000D01*
D19*
X169200000Y-111950000D02*
X169150000Y-111900000D01*
D18*
X168850000Y-120050000D02*
X170250000Y-121450000D01*
D19*
X168300000Y-120050000D02*
X168850000Y-120050000D01*
D18*
X176972510Y-107185010D02*
X176000000Y-106212500D01*
X175350000Y-105562500D02*
X176000000Y-106212500D01*
X174200000Y-105562500D02*
X175350000Y-105562500D01*
X177685010Y-108913516D02*
X177685010Y-114739990D01*
X176972510Y-108201016D02*
X177685010Y-108913516D01*
X176972510Y-107185010D02*
X176972510Y-108201016D01*
X172462500Y-121450000D02*
X175200000Y-118712500D01*
X170250000Y-121450000D02*
X172462500Y-121450000D01*
X174500000Y-118012500D02*
X175200000Y-118712500D01*
X174500000Y-117025000D02*
X174500000Y-118012500D01*
X175340000Y-108815000D02*
X175340000Y-109332500D01*
X174200000Y-107675000D02*
X175340000Y-108815000D01*
X174200000Y-107137500D02*
X174200000Y-107675000D01*
X176000000Y-108472500D02*
X176860000Y-109332500D01*
X176000000Y-107787500D02*
X176000000Y-108472500D01*
X148000000Y-106107500D02*
X148000000Y-107592500D01*
X148000000Y-106107500D02*
X148957500Y-106107500D01*
X148957500Y-106107500D02*
X153640000Y-110790000D01*
X152077500Y-112352500D02*
X153640000Y-110790000D01*
X152077500Y-112760000D02*
X152077500Y-112352500D01*
X175650010Y-111755010D02*
X175340000Y-111445000D01*
D19*
X175340000Y-111445000D02*
X175340000Y-110907500D01*
D18*
X175650010Y-113572114D02*
X175650010Y-111755010D01*
X175107834Y-114114290D02*
X175650010Y-113572114D01*
X174870710Y-114114290D02*
X175107834Y-114114290D01*
X174500000Y-114485000D02*
X174870710Y-114114290D01*
X175107834Y-115384290D02*
X176860000Y-113632124D01*
D19*
X176860000Y-111445000D02*
X176860000Y-110907500D01*
D18*
X174870710Y-115384290D02*
X175107834Y-115384290D01*
X176860000Y-113632124D02*
X176860000Y-111445000D01*
X174500000Y-115755000D02*
X174870710Y-115384290D01*
X154200000Y-115400000D02*
X154555000Y-115755000D01*
X167776998Y-115755000D02*
X169200000Y-115755000D01*
X154555000Y-115755000D02*
X167776998Y-115755000D01*
D19*
X165028003Y-120549999D02*
X165050001Y-120549999D01*
D18*
X147815740Y-135600000D02*
X147012660Y-136403080D01*
X149900000Y-135600000D02*
X147815740Y-135600000D01*
X150600000Y-134900000D02*
X149900000Y-135600000D01*
X150600000Y-132900000D02*
X150600000Y-134900000D01*
X158050000Y-125450000D02*
X150600000Y-132900000D01*
X160128002Y-125450000D02*
X158050000Y-125450000D01*
X165011100Y-120566902D02*
X165011100Y-119933720D01*
X160128002Y-125450000D02*
X165011100Y-120566902D01*
D19*
X161492880Y-121300000D02*
X162650000Y-121300000D01*
D18*
X160400000Y-121300000D02*
X162650000Y-121300000D01*
X147836920Y-133863080D02*
X149299310Y-132400690D01*
X149299310Y-132400690D02*
X160400000Y-121300000D01*
X147012660Y-133863080D02*
X147836920Y-133863080D01*
X149000000Y-132700000D02*
X149299310Y-132400690D01*
X145189989Y-114410011D02*
X149650000Y-109950000D01*
X145089989Y-114410011D02*
X145189989Y-114410011D01*
X144550000Y-128950000D02*
X144550000Y-114950000D01*
X147012660Y-131412660D02*
X144550000Y-128950000D01*
X144550000Y-114950000D02*
X145089989Y-114410011D01*
X147012660Y-132593080D02*
X147012660Y-131412660D01*
X166240000Y-131590000D02*
X170730000Y-136080000D01*
X170730000Y-136080000D02*
X166199979Y-131549979D01*
X166199979Y-122749979D02*
X165650000Y-122200000D01*
X166199979Y-131549979D02*
X166199979Y-122749979D01*
X139950000Y-113730000D02*
X139965000Y-113715000D01*
X141270000Y-112410000D02*
X143440000Y-112410000D01*
X143440000Y-112410000D02*
X143500000Y-112410000D01*
X139965000Y-113715000D02*
X141270000Y-112410000D01*
X142140000Y-121980000D02*
X142140000Y-119110000D01*
X142140000Y-121980000D02*
X142140000Y-123880000D01*
X142140000Y-123880000D02*
X141960000Y-124060000D01*
X173853820Y-127363220D02*
X173982380Y-127491780D01*
X171904160Y-127363220D02*
X173853820Y-127363220D01*
X172798740Y-130775420D02*
X173982380Y-129591780D01*
X172798740Y-132770880D02*
X172798740Y-130775420D01*
X169987460Y-127096520D02*
X170254160Y-127363220D01*
X168419780Y-127096520D02*
X169987460Y-127096520D01*
X160263840Y-114239040D02*
X160124468Y-114378412D01*
X162935620Y-114239040D02*
X160263840Y-114239040D01*
X169669960Y-126779020D02*
X170254160Y-127363220D01*
X169669960Y-124559060D02*
X169669960Y-126779020D01*
X166699989Y-127942129D02*
X171528740Y-132770880D01*
X166699989Y-120290607D02*
X166699989Y-127942129D01*
X165443101Y-119033719D02*
X166699989Y-120290607D01*
X153401601Y-119033719D02*
X165443101Y-119033719D01*
X152382220Y-120053100D02*
X153401601Y-119033719D01*
X158231840Y-111741720D02*
X158496000Y-111477560D01*
X158231840Y-114401600D02*
X158231840Y-111741720D01*
D20*
X155698225Y-98876011D02*
X155645000Y-99143589D01*
X155645000Y-99416411D01*
X155698225Y-99683989D01*
X155802629Y-99936043D01*
X155954201Y-100162886D01*
X156147114Y-100355799D01*
X156237750Y-100416360D01*
X156212629Y-100453957D01*
X156108225Y-100706011D01*
X156055000Y-100973589D01*
X156055000Y-101246411D01*
X156108225Y-101513989D01*
X156212629Y-101766043D01*
X156364201Y-101992886D01*
X156557114Y-102185799D01*
X156605000Y-102217796D01*
X156605000Y-102248981D01*
X156600960Y-102290000D01*
X156605000Y-102331018D01*
X156617082Y-102453688D01*
X156664828Y-102611086D01*
X156742364Y-102756145D01*
X156846709Y-102883291D01*
X156878578Y-102909445D01*
X157380558Y-103411426D01*
X157406709Y-103443291D01*
X157533854Y-103547636D01*
X157678913Y-103625172D01*
X157836311Y-103672918D01*
X157958981Y-103685000D01*
X157958982Y-103685000D01*
X158000000Y-103689040D01*
X158041018Y-103685000D01*
X160734132Y-103685000D01*
X159082133Y-105337000D01*
X153057554Y-105337000D01*
X152933267Y-105212713D01*
X152730992Y-105077557D01*
X152506236Y-104984460D01*
X152267637Y-104937000D01*
X152024363Y-104937000D01*
X151785764Y-104984460D01*
X151754112Y-104997571D01*
X151754112Y-104416755D01*
X152707433Y-103463436D01*
X152739291Y-103437291D01*
X152788703Y-103377083D01*
X152843636Y-103310146D01*
X152921172Y-103165087D01*
X152946486Y-103081637D01*
X152968918Y-103007689D01*
X152981000Y-102885019D01*
X152981000Y-102885018D01*
X152985040Y-102844000D01*
X152981000Y-102802982D01*
X152981000Y-102511554D01*
X153105287Y-102387267D01*
X153240443Y-102184992D01*
X153333540Y-101960236D01*
X153381000Y-101721637D01*
X153381000Y-101478363D01*
X153333540Y-101239764D01*
X153240443Y-101015008D01*
X153105287Y-100812733D01*
X152933267Y-100640713D01*
X152730992Y-100505557D01*
X152506236Y-100412460D01*
X152267637Y-100365000D01*
X152024363Y-100365000D01*
X151785764Y-100412460D01*
X151561008Y-100505557D01*
X151358733Y-100640713D01*
X151186713Y-100812733D01*
X151051557Y-101015008D01*
X150958460Y-101239764D01*
X150911000Y-101478363D01*
X150911000Y-101721637D01*
X150958460Y-101960236D01*
X151051557Y-102184992D01*
X151186713Y-102387267D01*
X151304289Y-102504843D01*
X150573245Y-103235888D01*
X148502630Y-103235888D01*
X148461612Y-103231848D01*
X148420593Y-103235888D01*
X148297923Y-103247970D01*
X148140525Y-103295716D01*
X147995466Y-103373252D01*
X147893506Y-103456928D01*
X147743750Y-103456928D01*
X147576592Y-103473392D01*
X147415858Y-103522150D01*
X147267725Y-103601329D01*
X147137885Y-103707885D01*
X147031329Y-103837725D01*
X146952150Y-103985858D01*
X146903392Y-104146592D01*
X146886928Y-104313750D01*
X146886928Y-104751250D01*
X146903392Y-104918408D01*
X146952150Y-105079142D01*
X147031329Y-105227275D01*
X147107426Y-105320000D01*
X147031329Y-105412725D01*
X146952150Y-105560858D01*
X146903392Y-105721592D01*
X146886928Y-105888750D01*
X146886928Y-106326250D01*
X146903392Y-106493408D01*
X146952150Y-106654142D01*
X147031329Y-106802275D01*
X147070496Y-106850000D01*
X147031329Y-106897725D01*
X146952150Y-107045858D01*
X146903392Y-107206592D01*
X146886928Y-107373750D01*
X146886928Y-107811250D01*
X146903392Y-107978408D01*
X146952150Y-108139142D01*
X147031329Y-108287275D01*
X147049100Y-108308930D01*
X146994463Y-108375506D01*
X146935498Y-108485820D01*
X146899188Y-108605518D01*
X146886928Y-108730000D01*
X146890000Y-108881750D01*
X147048750Y-109040500D01*
X147873000Y-109040500D01*
X147873000Y-109020500D01*
X148127000Y-109020500D01*
X148127000Y-109040500D01*
X148147000Y-109040500D01*
X148147000Y-109294500D01*
X148127000Y-109294500D01*
X148127000Y-110081250D01*
X148232441Y-110186691D01*
X144790996Y-113628137D01*
X144768902Y-113634839D01*
X144623843Y-113712375D01*
X144496698Y-113816720D01*
X144470550Y-113848582D01*
X143988574Y-114330559D01*
X143956710Y-114356709D01*
X143886206Y-114442619D01*
X143852364Y-114483855D01*
X143774828Y-114628914D01*
X143727082Y-114786312D01*
X143710960Y-114950000D01*
X143715001Y-114991029D01*
X143715000Y-128908981D01*
X143710960Y-128950000D01*
X143720573Y-129047600D01*
X143727082Y-129113688D01*
X143774828Y-129271086D01*
X143852364Y-129416145D01*
X143956709Y-129543291D01*
X143988579Y-129569446D01*
X146061273Y-131642141D01*
X145982123Y-131738586D01*
X145923158Y-131848900D01*
X145886848Y-131968598D01*
X145874588Y-132093080D01*
X145874588Y-133093080D01*
X145886848Y-133217562D01*
X145923158Y-133337260D01*
X145967548Y-133420306D01*
X145921277Y-133532013D01*
X145877660Y-133751292D01*
X145877660Y-133974868D01*
X145921277Y-134194147D01*
X146006836Y-134400704D01*
X146075013Y-134502738D01*
X146025537Y-134572874D01*
X145935214Y-134776216D01*
X145918541Y-134831206D01*
X146044706Y-135006080D01*
X146885660Y-135006080D01*
X146885660Y-134995054D01*
X146900872Y-134998080D01*
X147124448Y-134998080D01*
X147139660Y-134995054D01*
X147139660Y-135006080D01*
X147159660Y-135006080D01*
X147159660Y-135075211D01*
X146966792Y-135268080D01*
X146900872Y-135268080D01*
X146885660Y-135271106D01*
X146885660Y-135260080D01*
X146044706Y-135260080D01*
X145918541Y-135434954D01*
X145935214Y-135489944D01*
X146025537Y-135693286D01*
X146075013Y-135763422D01*
X146006836Y-135865456D01*
X145921277Y-136072013D01*
X145877660Y-136291292D01*
X145877660Y-136514868D01*
X145921277Y-136734147D01*
X146006836Y-136940704D01*
X146071901Y-137038080D01*
X146006836Y-137135456D01*
X145921277Y-137342013D01*
X145877660Y-137561292D01*
X145877660Y-137784868D01*
X145921277Y-138004147D01*
X146006836Y-138210704D01*
X146131048Y-138396600D01*
X146289140Y-138554692D01*
X146475036Y-138678904D01*
X146681593Y-138764463D01*
X146900872Y-138808080D01*
X147124448Y-138808080D01*
X147343727Y-138764463D01*
X147550284Y-138678904D01*
X147736180Y-138554692D01*
X147894272Y-138396600D01*
X148018484Y-138210704D01*
X148104043Y-138004147D01*
X148147660Y-137784868D01*
X148147660Y-137561292D01*
X148104043Y-137342013D01*
X148018484Y-137135456D01*
X147953419Y-137038080D01*
X148018484Y-136940704D01*
X148104043Y-136734147D01*
X148147660Y-136514868D01*
X148147660Y-136448948D01*
X148161608Y-136435000D01*
X149858982Y-136435000D01*
X149900000Y-136439040D01*
X149941018Y-136435000D01*
X149941019Y-136435000D01*
X150063689Y-136422918D01*
X150221087Y-136375172D01*
X150366146Y-136297636D01*
X150493291Y-136193291D01*
X150519446Y-136161422D01*
X151161426Y-135519442D01*
X151193291Y-135493291D01*
X151297636Y-135366146D01*
X151375172Y-135221087D01*
X151422918Y-135063689D01*
X151435000Y-134941019D01*
X151435000Y-134941009D01*
X151439039Y-134900001D01*
X151435000Y-134858993D01*
X151435000Y-133245867D01*
X157097225Y-127583643D01*
X157112460Y-127660236D01*
X157205557Y-127884992D01*
X157340713Y-128087267D01*
X157512733Y-128259287D01*
X157715008Y-128394443D01*
X157939764Y-128487540D01*
X158178363Y-128535000D01*
X158421637Y-128535000D01*
X158660236Y-128487540D01*
X158884992Y-128394443D01*
X159087267Y-128259287D01*
X159211554Y-128135000D01*
X160358982Y-128135000D01*
X160400000Y-128139040D01*
X160441018Y-128135000D01*
X160441019Y-128135000D01*
X160563689Y-128122918D01*
X160721087Y-128075172D01*
X160866146Y-127997636D01*
X160993291Y-127893291D01*
X161019446Y-127861421D01*
X164095869Y-124785000D01*
X164271637Y-124785000D01*
X164510236Y-124737540D01*
X164734992Y-124644443D01*
X164937267Y-124509287D01*
X165109287Y-124337267D01*
X165244443Y-124134992D01*
X165337540Y-123910236D01*
X165364980Y-123772286D01*
X165364979Y-131508960D01*
X165360939Y-131549979D01*
X165364979Y-131590997D01*
X165377061Y-131713667D01*
X165424807Y-131871065D01*
X165502343Y-132016124D01*
X165606688Y-132143270D01*
X165638558Y-132169425D01*
X169495000Y-136025869D01*
X169495000Y-136201637D01*
X169542460Y-136440236D01*
X169635557Y-136664992D01*
X169770713Y-136867267D01*
X169942733Y-137039287D01*
X170145008Y-137174443D01*
X170369764Y-137267540D01*
X170608363Y-137315000D01*
X170851637Y-137315000D01*
X171090236Y-137267540D01*
X171314992Y-137174443D01*
X171517267Y-137039287D01*
X171689287Y-136867267D01*
X171824443Y-136664992D01*
X171917540Y-136440236D01*
X171965000Y-136201637D01*
X171965000Y-135958363D01*
X171917540Y-135719764D01*
X171824443Y-135495008D01*
X171689287Y-135292733D01*
X171517267Y-135120713D01*
X171314992Y-134985557D01*
X171090236Y-134892460D01*
X170851637Y-134845000D01*
X170675869Y-134845000D01*
X167034979Y-131204112D01*
X167034979Y-129457986D01*
X170393740Y-132816748D01*
X170393740Y-132882668D01*
X170437357Y-133101947D01*
X170522916Y-133308504D01*
X170647128Y-133494400D01*
X170805220Y-133652492D01*
X170991116Y-133776704D01*
X171197673Y-133862263D01*
X171416952Y-133905880D01*
X171640528Y-133905880D01*
X171859807Y-133862263D01*
X172066364Y-133776704D01*
X172163740Y-133711639D01*
X172261116Y-133776704D01*
X172467673Y-133862263D01*
X172686952Y-133905880D01*
X172910528Y-133905880D01*
X173129807Y-133862263D01*
X173241514Y-133815992D01*
X173324560Y-133860382D01*
X173444258Y-133896692D01*
X173568740Y-133908952D01*
X173782990Y-133905880D01*
X173941740Y-133747130D01*
X173941740Y-132897880D01*
X174195740Y-132897880D01*
X174195740Y-133747130D01*
X174354490Y-133905880D01*
X174568740Y-133908952D01*
X174693222Y-133896692D01*
X174812920Y-133860382D01*
X174923234Y-133801417D01*
X175019925Y-133722065D01*
X175099277Y-133625374D01*
X175158242Y-133515060D01*
X175194552Y-133395362D01*
X175206812Y-133270880D01*
X175203740Y-133056630D01*
X175044990Y-132897880D01*
X174195740Y-132897880D01*
X173941740Y-132897880D01*
X173930714Y-132897880D01*
X173933740Y-132882668D01*
X173933740Y-132659092D01*
X173930714Y-132643880D01*
X173941740Y-132643880D01*
X173941740Y-131794630D01*
X174195740Y-131794630D01*
X174195740Y-132643880D01*
X175044990Y-132643880D01*
X175203740Y-132485130D01*
X175206812Y-132270880D01*
X175194552Y-132146398D01*
X175158242Y-132026700D01*
X175099277Y-131916386D01*
X175019925Y-131819695D01*
X174923234Y-131740343D01*
X174812920Y-131681378D01*
X174693222Y-131645068D01*
X174568740Y-131632808D01*
X174354490Y-131635880D01*
X174195740Y-131794630D01*
X173941740Y-131794630D01*
X173782990Y-131635880D01*
X173633740Y-131633740D01*
X173633740Y-131121287D01*
X174227121Y-130527908D01*
X174331862Y-130517592D01*
X174451560Y-130481282D01*
X174561874Y-130422317D01*
X174658565Y-130342965D01*
X174737917Y-130246274D01*
X174796882Y-130135960D01*
X174833192Y-130016262D01*
X174845452Y-129891780D01*
X174845452Y-129291780D01*
X174833192Y-129167298D01*
X174796882Y-129047600D01*
X174737917Y-128937286D01*
X174658565Y-128840595D01*
X174561874Y-128761243D01*
X174451560Y-128702278D01*
X174331862Y-128665968D01*
X174207380Y-128653708D01*
X173757380Y-128653708D01*
X173632898Y-128665968D01*
X173513200Y-128702278D01*
X173402886Y-128761243D01*
X173306195Y-128840595D01*
X173226843Y-128937286D01*
X173167878Y-129047600D01*
X173131568Y-129167298D01*
X173121252Y-129272039D01*
X172237314Y-130155979D01*
X172205450Y-130182129D01*
X172162103Y-130234948D01*
X172101104Y-130309275D01*
X172023568Y-130454334D01*
X171975822Y-130611732D01*
X171959700Y-130775420D01*
X171963741Y-130816448D01*
X171963741Y-131722548D01*
X171859807Y-131679497D01*
X171640528Y-131635880D01*
X171574608Y-131635880D01*
X168420247Y-128481520D01*
X168556191Y-128481520D01*
X168823769Y-128428295D01*
X169075823Y-128323891D01*
X169302666Y-128172319D01*
X169363562Y-128111423D01*
X169461554Y-128230826D01*
X169588552Y-128335051D01*
X169733444Y-128412498D01*
X169890660Y-128460189D01*
X170054160Y-128476292D01*
X170454160Y-128476292D01*
X170617660Y-128460189D01*
X170774876Y-128412498D01*
X170919768Y-128335051D01*
X171046766Y-128230826D01*
X171079160Y-128191354D01*
X171111554Y-128230826D01*
X171238552Y-128335051D01*
X171383444Y-128412498D01*
X171540660Y-128460189D01*
X171704160Y-128476292D01*
X172104160Y-128476292D01*
X172267660Y-128460189D01*
X172424876Y-128412498D01*
X172569768Y-128335051D01*
X172696766Y-128230826D01*
X172723525Y-128198220D01*
X173269474Y-128198220D01*
X173306195Y-128242965D01*
X173402886Y-128322317D01*
X173513200Y-128381282D01*
X173632898Y-128417592D01*
X173757380Y-128429852D01*
X174207380Y-128429852D01*
X174331862Y-128417592D01*
X174451560Y-128381282D01*
X174561874Y-128322317D01*
X174658565Y-128242965D01*
X174737917Y-128146274D01*
X174796882Y-128035960D01*
X174833192Y-127916262D01*
X174845452Y-127791780D01*
X174845452Y-127191780D01*
X174833192Y-127067298D01*
X174796882Y-126947600D01*
X174737917Y-126837286D01*
X174658565Y-126740595D01*
X174561874Y-126661243D01*
X174451560Y-126602278D01*
X174331862Y-126565968D01*
X174207380Y-126553708D01*
X174061703Y-126553708D01*
X174017509Y-126540302D01*
X173894839Y-126528220D01*
X173894838Y-126528220D01*
X173853820Y-126524180D01*
X173812802Y-126528220D01*
X172723525Y-126528220D01*
X172696766Y-126495614D01*
X172569768Y-126391389D01*
X172424876Y-126313942D01*
X172267660Y-126266251D01*
X172104160Y-126250148D01*
X171704160Y-126250148D01*
X171540660Y-126266251D01*
X171383444Y-126313942D01*
X171238552Y-126391389D01*
X171111554Y-126495614D01*
X171079160Y-126535086D01*
X171046766Y-126495614D01*
X170919768Y-126391389D01*
X170774876Y-126313942D01*
X170617660Y-126266251D01*
X170504960Y-126255151D01*
X170504960Y-125514941D01*
X170565466Y-125564597D01*
X170675780Y-125623562D01*
X170795478Y-125659872D01*
X170919960Y-125672132D01*
X171034210Y-125669060D01*
X171192960Y-125510310D01*
X171192960Y-124686060D01*
X171446960Y-124686060D01*
X171446960Y-125510310D01*
X171605710Y-125669060D01*
X171719960Y-125672132D01*
X171844442Y-125659872D01*
X171964140Y-125623562D01*
X172074454Y-125564597D01*
X172171145Y-125485245D01*
X172250497Y-125388554D01*
X172309462Y-125278240D01*
X172345772Y-125158542D01*
X172358032Y-125034060D01*
X172354960Y-124844810D01*
X172196210Y-124686060D01*
X171446960Y-124686060D01*
X171192960Y-124686060D01*
X171172960Y-124686060D01*
X171172960Y-124432060D01*
X171192960Y-124432060D01*
X171192960Y-124412060D01*
X171446960Y-124412060D01*
X171446960Y-124432060D01*
X172196210Y-124432060D01*
X172236770Y-124391500D01*
X172430723Y-124430080D01*
X172673997Y-124430080D01*
X172912596Y-124382620D01*
X173137352Y-124289523D01*
X173339627Y-124154367D01*
X173511647Y-123982347D01*
X173646803Y-123780072D01*
X173739900Y-123555316D01*
X173787360Y-123316717D01*
X173787360Y-123073443D01*
X173739900Y-122834844D01*
X173646803Y-122610088D01*
X173511647Y-122407813D01*
X173339627Y-122235793D01*
X173137352Y-122100637D01*
X173036711Y-122058950D01*
X173055791Y-122043291D01*
X173081946Y-122011421D01*
X174132866Y-120960502D01*
X174135498Y-120969180D01*
X174194463Y-121079494D01*
X174273815Y-121176185D01*
X174370506Y-121255537D01*
X174480820Y-121314502D01*
X174600518Y-121350812D01*
X174725000Y-121363072D01*
X174914250Y-121360000D01*
X175073000Y-121201250D01*
X175073000Y-120414500D01*
X175327000Y-120414500D01*
X175327000Y-121201250D01*
X175485750Y-121360000D01*
X175675000Y-121363072D01*
X175799482Y-121350812D01*
X175919180Y-121314502D01*
X176029494Y-121255537D01*
X176126185Y-121176185D01*
X176205537Y-121079494D01*
X176264502Y-120969180D01*
X176300812Y-120849482D01*
X176313072Y-120725000D01*
X176310000Y-120573250D01*
X176151250Y-120414500D01*
X175327000Y-120414500D01*
X175073000Y-120414500D01*
X175053000Y-120414500D01*
X175053000Y-120160500D01*
X175073000Y-120160500D01*
X175073000Y-120140500D01*
X175327000Y-120140500D01*
X175327000Y-120160500D01*
X176151250Y-120160500D01*
X176310000Y-120001750D01*
X176313072Y-119850000D01*
X176300812Y-119725518D01*
X176264502Y-119605820D01*
X176205537Y-119495506D01*
X176150900Y-119428930D01*
X176168671Y-119407275D01*
X176247850Y-119259142D01*
X176296608Y-119098408D01*
X176313072Y-118931250D01*
X176313072Y-118493750D01*
X176296608Y-118326592D01*
X176247850Y-118165858D01*
X176168671Y-118017725D01*
X176062115Y-117887885D01*
X175932275Y-117781329D01*
X175844307Y-117734309D01*
X175866145Y-117722636D01*
X175961429Y-117644438D01*
X178246437Y-115359431D01*
X178278301Y-115333281D01*
X178382646Y-115206136D01*
X178460182Y-115061077D01*
X178507928Y-114903679D01*
X178520010Y-114781009D01*
X178524050Y-114739991D01*
X178520010Y-114698972D01*
X178520010Y-109476965D01*
X179579688Y-111577323D01*
X179873362Y-112393620D01*
X180335507Y-114119948D01*
X180651576Y-115878894D01*
X180819351Y-117658115D01*
X180837657Y-119445133D01*
X180706365Y-121227409D01*
X180426394Y-122992463D01*
X179999708Y-124727900D01*
X179834986Y-125216991D01*
X179794156Y-125118419D01*
X179581235Y-124799761D01*
X179310239Y-124528765D01*
X178991581Y-124315844D01*
X178637507Y-124169182D01*
X178261624Y-124094414D01*
X177878376Y-124094414D01*
X177502493Y-124169182D01*
X177148419Y-124315844D01*
X176829761Y-124528765D01*
X176558765Y-124799761D01*
X176345844Y-125118419D01*
X176199182Y-125472493D01*
X176124414Y-125848376D01*
X176124414Y-126231624D01*
X176199182Y-126607507D01*
X176345844Y-126961581D01*
X176558765Y-127280239D01*
X176829761Y-127551235D01*
X177148419Y-127764156D01*
X177502493Y-127910818D01*
X177878376Y-127985586D01*
X178261624Y-127985586D01*
X178584165Y-127921428D01*
X177172882Y-130715881D01*
X176900651Y-131134870D01*
X175798611Y-132554941D01*
X175549965Y-132842900D01*
X175546423Y-132845740D01*
X175462809Y-132945291D01*
X175400220Y-133059242D01*
X175370877Y-133152152D01*
X174865141Y-135551461D01*
X174854589Y-135586246D01*
X174848582Y-135647236D01*
X174841889Y-135708073D01*
X174845039Y-135744277D01*
X174845040Y-138221321D01*
X174587021Y-139443000D01*
X166868958Y-139443000D01*
X166873193Y-139400000D01*
X166870000Y-139367581D01*
X166870000Y-138182419D01*
X166873193Y-138150000D01*
X166860450Y-138020617D01*
X166822710Y-137896207D01*
X166761425Y-137781550D01*
X166678948Y-137681052D01*
X166578450Y-137598575D01*
X166463793Y-137537290D01*
X166339383Y-137499550D01*
X166242419Y-137490000D01*
X166210000Y-137486807D01*
X166177581Y-137490000D01*
X152842419Y-137490000D01*
X152810000Y-137486807D01*
X152777581Y-137490000D01*
X152680617Y-137499550D01*
X152556207Y-137537290D01*
X152441550Y-137598575D01*
X152341052Y-137681052D01*
X152258575Y-137781550D01*
X152197290Y-137896207D01*
X152159550Y-138020617D01*
X152146807Y-138150000D01*
X152150000Y-138182420D01*
X152150001Y-139367571D01*
X152146807Y-139400000D01*
X152151042Y-139443000D01*
X144432852Y-139443000D01*
X144170000Y-138205816D01*
X144170000Y-135738648D01*
X144173150Y-135702444D01*
X144166457Y-135641607D01*
X144160450Y-135580617D01*
X144149898Y-135545832D01*
X143644162Y-133146523D01*
X143614819Y-133053614D01*
X143552230Y-132939663D01*
X143514318Y-132894525D01*
X143127308Y-132416383D01*
X143130042Y-124462481D01*
X143147540Y-124420236D01*
X143195000Y-124181637D01*
X143195000Y-123938363D01*
X143147540Y-123699764D01*
X143130318Y-123658187D01*
X143131627Y-119848866D01*
X143234443Y-119694992D01*
X143327540Y-119470236D01*
X143375000Y-119231637D01*
X143375000Y-118988363D01*
X143327540Y-118749764D01*
X143234443Y-118525008D01*
X143132135Y-118371894D01*
X143133773Y-113608283D01*
X143318363Y-113645000D01*
X143561637Y-113645000D01*
X143800236Y-113597540D01*
X144024992Y-113504443D01*
X144227267Y-113369287D01*
X144399287Y-113197267D01*
X144534443Y-112994992D01*
X144627540Y-112770236D01*
X144675000Y-112531637D01*
X144675000Y-112288363D01*
X144627540Y-112049764D01*
X144534443Y-111825008D01*
X144399287Y-111622733D01*
X144227267Y-111450713D01*
X144024992Y-111315557D01*
X143800236Y-111222460D01*
X143561637Y-111175000D01*
X143318363Y-111175000D01*
X143134596Y-111211553D01*
X143135148Y-109605000D01*
X146886928Y-109605000D01*
X146899188Y-109729482D01*
X146935498Y-109849180D01*
X146994463Y-109959494D01*
X147073815Y-110056185D01*
X147170506Y-110135537D01*
X147280820Y-110194502D01*
X147400518Y-110230812D01*
X147525000Y-110243072D01*
X147714250Y-110240000D01*
X147873000Y-110081250D01*
X147873000Y-109294500D01*
X147048750Y-109294500D01*
X146890000Y-109453250D01*
X146886928Y-109605000D01*
X143135148Y-109605000D01*
X143136699Y-105094190D01*
X143221391Y-104985058D01*
X143469737Y-104697445D01*
X143472924Y-104694897D01*
X143556676Y-104595460D01*
X143619421Y-104481595D01*
X143648892Y-104388726D01*
X144363065Y-101023451D01*
X144465844Y-101271581D01*
X144678765Y-101590239D01*
X144949761Y-101861235D01*
X145268419Y-102074156D01*
X145622493Y-102220818D01*
X145998376Y-102295586D01*
X146381624Y-102295586D01*
X146757507Y-102220818D01*
X147111581Y-102074156D01*
X147430239Y-101861235D01*
X147701235Y-101590239D01*
X147914156Y-101271581D01*
X148060818Y-100917507D01*
X148135586Y-100541624D01*
X148135586Y-100158376D01*
X148060818Y-99782493D01*
X147914156Y-99428419D01*
X147701235Y-99109761D01*
X147430239Y-98838765D01*
X147162699Y-98660000D01*
X155787700Y-98660000D01*
X155698225Y-98876011D01*
G04 #@! TA.AperFunction,Conductor*
D21*
G36*
X155698225Y-98876011D02*
G01*
X155645000Y-99143589D01*
X155645000Y-99416411D01*
X155698225Y-99683989D01*
X155802629Y-99936043D01*
X155954201Y-100162886D01*
X156147114Y-100355799D01*
X156237750Y-100416360D01*
X156212629Y-100453957D01*
X156108225Y-100706011D01*
X156055000Y-100973589D01*
X156055000Y-101246411D01*
X156108225Y-101513989D01*
X156212629Y-101766043D01*
X156364201Y-101992886D01*
X156557114Y-102185799D01*
X156605000Y-102217796D01*
X156605000Y-102248981D01*
X156600960Y-102290000D01*
X156605000Y-102331018D01*
X156617082Y-102453688D01*
X156664828Y-102611086D01*
X156742364Y-102756145D01*
X156846709Y-102883291D01*
X156878578Y-102909445D01*
X157380558Y-103411426D01*
X157406709Y-103443291D01*
X157533854Y-103547636D01*
X157678913Y-103625172D01*
X157836311Y-103672918D01*
X157958981Y-103685000D01*
X157958982Y-103685000D01*
X158000000Y-103689040D01*
X158041018Y-103685000D01*
X160734132Y-103685000D01*
X159082133Y-105337000D01*
X153057554Y-105337000D01*
X152933267Y-105212713D01*
X152730992Y-105077557D01*
X152506236Y-104984460D01*
X152267637Y-104937000D01*
X152024363Y-104937000D01*
X151785764Y-104984460D01*
X151754112Y-104997571D01*
X151754112Y-104416755D01*
X152707433Y-103463436D01*
X152739291Y-103437291D01*
X152788703Y-103377083D01*
X152843636Y-103310146D01*
X152921172Y-103165087D01*
X152946486Y-103081637D01*
X152968918Y-103007689D01*
X152981000Y-102885019D01*
X152981000Y-102885018D01*
X152985040Y-102844000D01*
X152981000Y-102802982D01*
X152981000Y-102511554D01*
X153105287Y-102387267D01*
X153240443Y-102184992D01*
X153333540Y-101960236D01*
X153381000Y-101721637D01*
X153381000Y-101478363D01*
X153333540Y-101239764D01*
X153240443Y-101015008D01*
X153105287Y-100812733D01*
X152933267Y-100640713D01*
X152730992Y-100505557D01*
X152506236Y-100412460D01*
X152267637Y-100365000D01*
X152024363Y-100365000D01*
X151785764Y-100412460D01*
X151561008Y-100505557D01*
X151358733Y-100640713D01*
X151186713Y-100812733D01*
X151051557Y-101015008D01*
X150958460Y-101239764D01*
X150911000Y-101478363D01*
X150911000Y-101721637D01*
X150958460Y-101960236D01*
X151051557Y-102184992D01*
X151186713Y-102387267D01*
X151304289Y-102504843D01*
X150573245Y-103235888D01*
X148502630Y-103235888D01*
X148461612Y-103231848D01*
X148420593Y-103235888D01*
X148297923Y-103247970D01*
X148140525Y-103295716D01*
X147995466Y-103373252D01*
X147893506Y-103456928D01*
X147743750Y-103456928D01*
X147576592Y-103473392D01*
X147415858Y-103522150D01*
X147267725Y-103601329D01*
X147137885Y-103707885D01*
X147031329Y-103837725D01*
X146952150Y-103985858D01*
X146903392Y-104146592D01*
X146886928Y-104313750D01*
X146886928Y-104751250D01*
X146903392Y-104918408D01*
X146952150Y-105079142D01*
X147031329Y-105227275D01*
X147107426Y-105320000D01*
X147031329Y-105412725D01*
X146952150Y-105560858D01*
X146903392Y-105721592D01*
X146886928Y-105888750D01*
X146886928Y-106326250D01*
X146903392Y-106493408D01*
X146952150Y-106654142D01*
X147031329Y-106802275D01*
X147070496Y-106850000D01*
X147031329Y-106897725D01*
X146952150Y-107045858D01*
X146903392Y-107206592D01*
X146886928Y-107373750D01*
X146886928Y-107811250D01*
X146903392Y-107978408D01*
X146952150Y-108139142D01*
X147031329Y-108287275D01*
X147049100Y-108308930D01*
X146994463Y-108375506D01*
X146935498Y-108485820D01*
X146899188Y-108605518D01*
X146886928Y-108730000D01*
X146890000Y-108881750D01*
X147048750Y-109040500D01*
X147873000Y-109040500D01*
X147873000Y-109020500D01*
X148127000Y-109020500D01*
X148127000Y-109040500D01*
X148147000Y-109040500D01*
X148147000Y-109294500D01*
X148127000Y-109294500D01*
X148127000Y-110081250D01*
X148232441Y-110186691D01*
X144790996Y-113628137D01*
X144768902Y-113634839D01*
X144623843Y-113712375D01*
X144496698Y-113816720D01*
X144470550Y-113848582D01*
X143988574Y-114330559D01*
X143956710Y-114356709D01*
X143886206Y-114442619D01*
X143852364Y-114483855D01*
X143774828Y-114628914D01*
X143727082Y-114786312D01*
X143710960Y-114950000D01*
X143715001Y-114991029D01*
X143715000Y-128908981D01*
X143710960Y-128950000D01*
X143720573Y-129047600D01*
X143727082Y-129113688D01*
X143774828Y-129271086D01*
X143852364Y-129416145D01*
X143956709Y-129543291D01*
X143988579Y-129569446D01*
X146061273Y-131642141D01*
X145982123Y-131738586D01*
X145923158Y-131848900D01*
X145886848Y-131968598D01*
X145874588Y-132093080D01*
X145874588Y-133093080D01*
X145886848Y-133217562D01*
X145923158Y-133337260D01*
X145967548Y-133420306D01*
X145921277Y-133532013D01*
X145877660Y-133751292D01*
X145877660Y-133974868D01*
X145921277Y-134194147D01*
X146006836Y-134400704D01*
X146075013Y-134502738D01*
X146025537Y-134572874D01*
X145935214Y-134776216D01*
X145918541Y-134831206D01*
X146044706Y-135006080D01*
X146885660Y-135006080D01*
X146885660Y-134995054D01*
X146900872Y-134998080D01*
X147124448Y-134998080D01*
X147139660Y-134995054D01*
X147139660Y-135006080D01*
X147159660Y-135006080D01*
X147159660Y-135075211D01*
X146966792Y-135268080D01*
X146900872Y-135268080D01*
X146885660Y-135271106D01*
X146885660Y-135260080D01*
X146044706Y-135260080D01*
X145918541Y-135434954D01*
X145935214Y-135489944D01*
X146025537Y-135693286D01*
X146075013Y-135763422D01*
X146006836Y-135865456D01*
X145921277Y-136072013D01*
X145877660Y-136291292D01*
X145877660Y-136514868D01*
X145921277Y-136734147D01*
X146006836Y-136940704D01*
X146071901Y-137038080D01*
X146006836Y-137135456D01*
X145921277Y-137342013D01*
X145877660Y-137561292D01*
X145877660Y-137784868D01*
X145921277Y-138004147D01*
X146006836Y-138210704D01*
X146131048Y-138396600D01*
X146289140Y-138554692D01*
X146475036Y-138678904D01*
X146681593Y-138764463D01*
X146900872Y-138808080D01*
X147124448Y-138808080D01*
X147343727Y-138764463D01*
X147550284Y-138678904D01*
X147736180Y-138554692D01*
X147894272Y-138396600D01*
X148018484Y-138210704D01*
X148104043Y-138004147D01*
X148147660Y-137784868D01*
X148147660Y-137561292D01*
X148104043Y-137342013D01*
X148018484Y-137135456D01*
X147953419Y-137038080D01*
X148018484Y-136940704D01*
X148104043Y-136734147D01*
X148147660Y-136514868D01*
X148147660Y-136448948D01*
X148161608Y-136435000D01*
X149858982Y-136435000D01*
X149900000Y-136439040D01*
X149941018Y-136435000D01*
X149941019Y-136435000D01*
X150063689Y-136422918D01*
X150221087Y-136375172D01*
X150366146Y-136297636D01*
X150493291Y-136193291D01*
X150519446Y-136161422D01*
X151161426Y-135519442D01*
X151193291Y-135493291D01*
X151297636Y-135366146D01*
X151375172Y-135221087D01*
X151422918Y-135063689D01*
X151435000Y-134941019D01*
X151435000Y-134941009D01*
X151439039Y-134900001D01*
X151435000Y-134858993D01*
X151435000Y-133245867D01*
X157097225Y-127583643D01*
X157112460Y-127660236D01*
X157205557Y-127884992D01*
X157340713Y-128087267D01*
X157512733Y-128259287D01*
X157715008Y-128394443D01*
X157939764Y-128487540D01*
X158178363Y-128535000D01*
X158421637Y-128535000D01*
X158660236Y-128487540D01*
X158884992Y-128394443D01*
X159087267Y-128259287D01*
X159211554Y-128135000D01*
X160358982Y-128135000D01*
X160400000Y-128139040D01*
X160441018Y-128135000D01*
X160441019Y-128135000D01*
X160563689Y-128122918D01*
X160721087Y-128075172D01*
X160866146Y-127997636D01*
X160993291Y-127893291D01*
X161019446Y-127861421D01*
X164095869Y-124785000D01*
X164271637Y-124785000D01*
X164510236Y-124737540D01*
X164734992Y-124644443D01*
X164937267Y-124509287D01*
X165109287Y-124337267D01*
X165244443Y-124134992D01*
X165337540Y-123910236D01*
X165364980Y-123772286D01*
X165364979Y-131508960D01*
X165360939Y-131549979D01*
X165364979Y-131590997D01*
X165377061Y-131713667D01*
X165424807Y-131871065D01*
X165502343Y-132016124D01*
X165606688Y-132143270D01*
X165638558Y-132169425D01*
X169495000Y-136025869D01*
X169495000Y-136201637D01*
X169542460Y-136440236D01*
X169635557Y-136664992D01*
X169770713Y-136867267D01*
X169942733Y-137039287D01*
X170145008Y-137174443D01*
X170369764Y-137267540D01*
X170608363Y-137315000D01*
X170851637Y-137315000D01*
X171090236Y-137267540D01*
X171314992Y-137174443D01*
X171517267Y-137039287D01*
X171689287Y-136867267D01*
X171824443Y-136664992D01*
X171917540Y-136440236D01*
X171965000Y-136201637D01*
X171965000Y-135958363D01*
X171917540Y-135719764D01*
X171824443Y-135495008D01*
X171689287Y-135292733D01*
X171517267Y-135120713D01*
X171314992Y-134985557D01*
X171090236Y-134892460D01*
X170851637Y-134845000D01*
X170675869Y-134845000D01*
X167034979Y-131204112D01*
X167034979Y-129457986D01*
X170393740Y-132816748D01*
X170393740Y-132882668D01*
X170437357Y-133101947D01*
X170522916Y-133308504D01*
X170647128Y-133494400D01*
X170805220Y-133652492D01*
X170991116Y-133776704D01*
X171197673Y-133862263D01*
X171416952Y-133905880D01*
X171640528Y-133905880D01*
X171859807Y-133862263D01*
X172066364Y-133776704D01*
X172163740Y-133711639D01*
X172261116Y-133776704D01*
X172467673Y-133862263D01*
X172686952Y-133905880D01*
X172910528Y-133905880D01*
X173129807Y-133862263D01*
X173241514Y-133815992D01*
X173324560Y-133860382D01*
X173444258Y-133896692D01*
X173568740Y-133908952D01*
X173782990Y-133905880D01*
X173941740Y-133747130D01*
X173941740Y-132897880D01*
X174195740Y-132897880D01*
X174195740Y-133747130D01*
X174354490Y-133905880D01*
X174568740Y-133908952D01*
X174693222Y-133896692D01*
X174812920Y-133860382D01*
X174923234Y-133801417D01*
X175019925Y-133722065D01*
X175099277Y-133625374D01*
X175158242Y-133515060D01*
X175194552Y-133395362D01*
X175206812Y-133270880D01*
X175203740Y-133056630D01*
X175044990Y-132897880D01*
X174195740Y-132897880D01*
X173941740Y-132897880D01*
X173930714Y-132897880D01*
X173933740Y-132882668D01*
X173933740Y-132659092D01*
X173930714Y-132643880D01*
X173941740Y-132643880D01*
X173941740Y-131794630D01*
X174195740Y-131794630D01*
X174195740Y-132643880D01*
X175044990Y-132643880D01*
X175203740Y-132485130D01*
X175206812Y-132270880D01*
X175194552Y-132146398D01*
X175158242Y-132026700D01*
X175099277Y-131916386D01*
X175019925Y-131819695D01*
X174923234Y-131740343D01*
X174812920Y-131681378D01*
X174693222Y-131645068D01*
X174568740Y-131632808D01*
X174354490Y-131635880D01*
X174195740Y-131794630D01*
X173941740Y-131794630D01*
X173782990Y-131635880D01*
X173633740Y-131633740D01*
X173633740Y-131121287D01*
X174227121Y-130527908D01*
X174331862Y-130517592D01*
X174451560Y-130481282D01*
X174561874Y-130422317D01*
X174658565Y-130342965D01*
X174737917Y-130246274D01*
X174796882Y-130135960D01*
X174833192Y-130016262D01*
X174845452Y-129891780D01*
X174845452Y-129291780D01*
X174833192Y-129167298D01*
X174796882Y-129047600D01*
X174737917Y-128937286D01*
X174658565Y-128840595D01*
X174561874Y-128761243D01*
X174451560Y-128702278D01*
X174331862Y-128665968D01*
X174207380Y-128653708D01*
X173757380Y-128653708D01*
X173632898Y-128665968D01*
X173513200Y-128702278D01*
X173402886Y-128761243D01*
X173306195Y-128840595D01*
X173226843Y-128937286D01*
X173167878Y-129047600D01*
X173131568Y-129167298D01*
X173121252Y-129272039D01*
X172237314Y-130155979D01*
X172205450Y-130182129D01*
X172162103Y-130234948D01*
X172101104Y-130309275D01*
X172023568Y-130454334D01*
X171975822Y-130611732D01*
X171959700Y-130775420D01*
X171963741Y-130816448D01*
X171963741Y-131722548D01*
X171859807Y-131679497D01*
X171640528Y-131635880D01*
X171574608Y-131635880D01*
X168420247Y-128481520D01*
X168556191Y-128481520D01*
X168823769Y-128428295D01*
X169075823Y-128323891D01*
X169302666Y-128172319D01*
X169363562Y-128111423D01*
X169461554Y-128230826D01*
X169588552Y-128335051D01*
X169733444Y-128412498D01*
X169890660Y-128460189D01*
X170054160Y-128476292D01*
X170454160Y-128476292D01*
X170617660Y-128460189D01*
X170774876Y-128412498D01*
X170919768Y-128335051D01*
X171046766Y-128230826D01*
X171079160Y-128191354D01*
X171111554Y-128230826D01*
X171238552Y-128335051D01*
X171383444Y-128412498D01*
X171540660Y-128460189D01*
X171704160Y-128476292D01*
X172104160Y-128476292D01*
X172267660Y-128460189D01*
X172424876Y-128412498D01*
X172569768Y-128335051D01*
X172696766Y-128230826D01*
X172723525Y-128198220D01*
X173269474Y-128198220D01*
X173306195Y-128242965D01*
X173402886Y-128322317D01*
X173513200Y-128381282D01*
X173632898Y-128417592D01*
X173757380Y-128429852D01*
X174207380Y-128429852D01*
X174331862Y-128417592D01*
X174451560Y-128381282D01*
X174561874Y-128322317D01*
X174658565Y-128242965D01*
X174737917Y-128146274D01*
X174796882Y-128035960D01*
X174833192Y-127916262D01*
X174845452Y-127791780D01*
X174845452Y-127191780D01*
X174833192Y-127067298D01*
X174796882Y-126947600D01*
X174737917Y-126837286D01*
X174658565Y-126740595D01*
X174561874Y-126661243D01*
X174451560Y-126602278D01*
X174331862Y-126565968D01*
X174207380Y-126553708D01*
X174061703Y-126553708D01*
X174017509Y-126540302D01*
X173894839Y-126528220D01*
X173894838Y-126528220D01*
X173853820Y-126524180D01*
X173812802Y-126528220D01*
X172723525Y-126528220D01*
X172696766Y-126495614D01*
X172569768Y-126391389D01*
X172424876Y-126313942D01*
X172267660Y-126266251D01*
X172104160Y-126250148D01*
X171704160Y-126250148D01*
X171540660Y-126266251D01*
X171383444Y-126313942D01*
X171238552Y-126391389D01*
X171111554Y-126495614D01*
X171079160Y-126535086D01*
X171046766Y-126495614D01*
X170919768Y-126391389D01*
X170774876Y-126313942D01*
X170617660Y-126266251D01*
X170504960Y-126255151D01*
X170504960Y-125514941D01*
X170565466Y-125564597D01*
X170675780Y-125623562D01*
X170795478Y-125659872D01*
X170919960Y-125672132D01*
X171034210Y-125669060D01*
X171192960Y-125510310D01*
X171192960Y-124686060D01*
X171446960Y-124686060D01*
X171446960Y-125510310D01*
X171605710Y-125669060D01*
X171719960Y-125672132D01*
X171844442Y-125659872D01*
X171964140Y-125623562D01*
X172074454Y-125564597D01*
X172171145Y-125485245D01*
X172250497Y-125388554D01*
X172309462Y-125278240D01*
X172345772Y-125158542D01*
X172358032Y-125034060D01*
X172354960Y-124844810D01*
X172196210Y-124686060D01*
X171446960Y-124686060D01*
X171192960Y-124686060D01*
X171172960Y-124686060D01*
X171172960Y-124432060D01*
X171192960Y-124432060D01*
X171192960Y-124412060D01*
X171446960Y-124412060D01*
X171446960Y-124432060D01*
X172196210Y-124432060D01*
X172236770Y-124391500D01*
X172430723Y-124430080D01*
X172673997Y-124430080D01*
X172912596Y-124382620D01*
X173137352Y-124289523D01*
X173339627Y-124154367D01*
X173511647Y-123982347D01*
X173646803Y-123780072D01*
X173739900Y-123555316D01*
X173787360Y-123316717D01*
X173787360Y-123073443D01*
X173739900Y-122834844D01*
X173646803Y-122610088D01*
X173511647Y-122407813D01*
X173339627Y-122235793D01*
X173137352Y-122100637D01*
X173036711Y-122058950D01*
X173055791Y-122043291D01*
X173081946Y-122011421D01*
X174132866Y-120960502D01*
X174135498Y-120969180D01*
X174194463Y-121079494D01*
X174273815Y-121176185D01*
X174370506Y-121255537D01*
X174480820Y-121314502D01*
X174600518Y-121350812D01*
X174725000Y-121363072D01*
X174914250Y-121360000D01*
X175073000Y-121201250D01*
X175073000Y-120414500D01*
X175327000Y-120414500D01*
X175327000Y-121201250D01*
X175485750Y-121360000D01*
X175675000Y-121363072D01*
X175799482Y-121350812D01*
X175919180Y-121314502D01*
X176029494Y-121255537D01*
X176126185Y-121176185D01*
X176205537Y-121079494D01*
X176264502Y-120969180D01*
X176300812Y-120849482D01*
X176313072Y-120725000D01*
X176310000Y-120573250D01*
X176151250Y-120414500D01*
X175327000Y-120414500D01*
X175073000Y-120414500D01*
X175053000Y-120414500D01*
X175053000Y-120160500D01*
X175073000Y-120160500D01*
X175073000Y-120140500D01*
X175327000Y-120140500D01*
X175327000Y-120160500D01*
X176151250Y-120160500D01*
X176310000Y-120001750D01*
X176313072Y-119850000D01*
X176300812Y-119725518D01*
X176264502Y-119605820D01*
X176205537Y-119495506D01*
X176150900Y-119428930D01*
X176168671Y-119407275D01*
X176247850Y-119259142D01*
X176296608Y-119098408D01*
X176313072Y-118931250D01*
X176313072Y-118493750D01*
X176296608Y-118326592D01*
X176247850Y-118165858D01*
X176168671Y-118017725D01*
X176062115Y-117887885D01*
X175932275Y-117781329D01*
X175844307Y-117734309D01*
X175866145Y-117722636D01*
X175961429Y-117644438D01*
X178246437Y-115359431D01*
X178278301Y-115333281D01*
X178382646Y-115206136D01*
X178460182Y-115061077D01*
X178507928Y-114903679D01*
X178520010Y-114781009D01*
X178524050Y-114739991D01*
X178520010Y-114698972D01*
X178520010Y-109476965D01*
X179579688Y-111577323D01*
X179873362Y-112393620D01*
X180335507Y-114119948D01*
X180651576Y-115878894D01*
X180819351Y-117658115D01*
X180837657Y-119445133D01*
X180706365Y-121227409D01*
X180426394Y-122992463D01*
X179999708Y-124727900D01*
X179834986Y-125216991D01*
X179794156Y-125118419D01*
X179581235Y-124799761D01*
X179310239Y-124528765D01*
X178991581Y-124315844D01*
X178637507Y-124169182D01*
X178261624Y-124094414D01*
X177878376Y-124094414D01*
X177502493Y-124169182D01*
X177148419Y-124315844D01*
X176829761Y-124528765D01*
X176558765Y-124799761D01*
X176345844Y-125118419D01*
X176199182Y-125472493D01*
X176124414Y-125848376D01*
X176124414Y-126231624D01*
X176199182Y-126607507D01*
X176345844Y-126961581D01*
X176558765Y-127280239D01*
X176829761Y-127551235D01*
X177148419Y-127764156D01*
X177502493Y-127910818D01*
X177878376Y-127985586D01*
X178261624Y-127985586D01*
X178584165Y-127921428D01*
X177172882Y-130715881D01*
X176900651Y-131134870D01*
X175798611Y-132554941D01*
X175549965Y-132842900D01*
X175546423Y-132845740D01*
X175462809Y-132945291D01*
X175400220Y-133059242D01*
X175370877Y-133152152D01*
X174865141Y-135551461D01*
X174854589Y-135586246D01*
X174848582Y-135647236D01*
X174841889Y-135708073D01*
X174845039Y-135744277D01*
X174845040Y-138221321D01*
X174587021Y-139443000D01*
X166868958Y-139443000D01*
X166873193Y-139400000D01*
X166870000Y-139367581D01*
X166870000Y-138182419D01*
X166873193Y-138150000D01*
X166860450Y-138020617D01*
X166822710Y-137896207D01*
X166761425Y-137781550D01*
X166678948Y-137681052D01*
X166578450Y-137598575D01*
X166463793Y-137537290D01*
X166339383Y-137499550D01*
X166242419Y-137490000D01*
X166210000Y-137486807D01*
X166177581Y-137490000D01*
X152842419Y-137490000D01*
X152810000Y-137486807D01*
X152777581Y-137490000D01*
X152680617Y-137499550D01*
X152556207Y-137537290D01*
X152441550Y-137598575D01*
X152341052Y-137681052D01*
X152258575Y-137781550D01*
X152197290Y-137896207D01*
X152159550Y-138020617D01*
X152146807Y-138150000D01*
X152150000Y-138182420D01*
X152150001Y-139367571D01*
X152146807Y-139400000D01*
X152151042Y-139443000D01*
X144432852Y-139443000D01*
X144170000Y-138205816D01*
X144170000Y-135738648D01*
X144173150Y-135702444D01*
X144166457Y-135641607D01*
X144160450Y-135580617D01*
X144149898Y-135545832D01*
X143644162Y-133146523D01*
X143614819Y-133053614D01*
X143552230Y-132939663D01*
X143514318Y-132894525D01*
X143127308Y-132416383D01*
X143130042Y-124462481D01*
X143147540Y-124420236D01*
X143195000Y-124181637D01*
X143195000Y-123938363D01*
X143147540Y-123699764D01*
X143130318Y-123658187D01*
X143131627Y-119848866D01*
X143234443Y-119694992D01*
X143327540Y-119470236D01*
X143375000Y-119231637D01*
X143375000Y-118988363D01*
X143327540Y-118749764D01*
X143234443Y-118525008D01*
X143132135Y-118371894D01*
X143133773Y-113608283D01*
X143318363Y-113645000D01*
X143561637Y-113645000D01*
X143800236Y-113597540D01*
X144024992Y-113504443D01*
X144227267Y-113369287D01*
X144399287Y-113197267D01*
X144534443Y-112994992D01*
X144627540Y-112770236D01*
X144675000Y-112531637D01*
X144675000Y-112288363D01*
X144627540Y-112049764D01*
X144534443Y-111825008D01*
X144399287Y-111622733D01*
X144227267Y-111450713D01*
X144024992Y-111315557D01*
X143800236Y-111222460D01*
X143561637Y-111175000D01*
X143318363Y-111175000D01*
X143134596Y-111211553D01*
X143135148Y-109605000D01*
X146886928Y-109605000D01*
X146899188Y-109729482D01*
X146935498Y-109849180D01*
X146994463Y-109959494D01*
X147073815Y-110056185D01*
X147170506Y-110135537D01*
X147280820Y-110194502D01*
X147400518Y-110230812D01*
X147525000Y-110243072D01*
X147714250Y-110240000D01*
X147873000Y-110081250D01*
X147873000Y-109294500D01*
X147048750Y-109294500D01*
X146890000Y-109453250D01*
X146886928Y-109605000D01*
X143135148Y-109605000D01*
X143136699Y-105094190D01*
X143221391Y-104985058D01*
X143469737Y-104697445D01*
X143472924Y-104694897D01*
X143556676Y-104595460D01*
X143619421Y-104481595D01*
X143648892Y-104388726D01*
X144363065Y-101023451D01*
X144465844Y-101271581D01*
X144678765Y-101590239D01*
X144949761Y-101861235D01*
X145268419Y-102074156D01*
X145622493Y-102220818D01*
X145998376Y-102295586D01*
X146381624Y-102295586D01*
X146757507Y-102220818D01*
X147111581Y-102074156D01*
X147430239Y-101861235D01*
X147701235Y-101590239D01*
X147914156Y-101271581D01*
X148060818Y-100917507D01*
X148135586Y-100541624D01*
X148135586Y-100158376D01*
X148060818Y-99782493D01*
X147914156Y-99428419D01*
X147701235Y-99109761D01*
X147430239Y-98838765D01*
X147162699Y-98660000D01*
X155787700Y-98660000D01*
X155698225Y-98876011D01*
G37*
G04 #@! TD.AperFunction*
D20*
X151499334Y-118977301D02*
X151306421Y-119170214D01*
X151154849Y-119397057D01*
X151050445Y-119649111D01*
X150997220Y-119916689D01*
X150997220Y-120189511D01*
X151050445Y-120457089D01*
X151154849Y-120709143D01*
X151306421Y-120935986D01*
X151499334Y-121128899D01*
X151726177Y-121280471D01*
X151978231Y-121384875D01*
X152245809Y-121438100D01*
X152518631Y-121438100D01*
X152786209Y-121384875D01*
X153038263Y-121280471D01*
X153265106Y-121128899D01*
X153458019Y-120935986D01*
X153609591Y-120709143D01*
X153713995Y-120457089D01*
X153767220Y-120189511D01*
X153767220Y-119916689D01*
X153757678Y-119868719D01*
X163776100Y-119868719D01*
X163776100Y-120055357D01*
X163823560Y-120293956D01*
X163905458Y-120491676D01*
X163719482Y-120677652D01*
X163609287Y-120512733D01*
X163437267Y-120340713D01*
X163234992Y-120205557D01*
X163010236Y-120112460D01*
X162771637Y-120065000D01*
X162528363Y-120065000D01*
X162289764Y-120112460D01*
X162065008Y-120205557D01*
X161862733Y-120340713D01*
X161738446Y-120465000D01*
X160441007Y-120465000D01*
X160399999Y-120460961D01*
X160358991Y-120465000D01*
X160358981Y-120465000D01*
X160236311Y-120477082D01*
X160078913Y-120524828D01*
X159933854Y-120602364D01*
X159806709Y-120706709D01*
X159780559Y-120738573D01*
X150296066Y-130223067D01*
X150284443Y-130195008D01*
X150149287Y-129992733D01*
X149977267Y-129820713D01*
X149774992Y-129685557D01*
X149550236Y-129592460D01*
X149311637Y-129545000D01*
X149135868Y-129545000D01*
X146974448Y-127383581D01*
X146974439Y-127383570D01*
X146471074Y-126880206D01*
X146278939Y-126688072D01*
X146990000Y-126688072D01*
X147114482Y-126675812D01*
X147234180Y-126639502D01*
X147276183Y-126617050D01*
X148723978Y-128064846D01*
X148750128Y-128096710D01*
X148877273Y-128201055D01*
X149022332Y-128278591D01*
X149179730Y-128326337D01*
X149268205Y-128335051D01*
X149343419Y-128342459D01*
X149384437Y-128338419D01*
X149654895Y-128338419D01*
X149668730Y-128371819D01*
X149803886Y-128574094D01*
X149975906Y-128746114D01*
X150178181Y-128881270D01*
X150402937Y-128974367D01*
X150641536Y-129021827D01*
X150884810Y-129021827D01*
X151123409Y-128974367D01*
X151348165Y-128881270D01*
X151550440Y-128746114D01*
X151722460Y-128574094D01*
X151857616Y-128371819D01*
X151950713Y-128147063D01*
X151998173Y-127908464D01*
X151998173Y-127665190D01*
X151950713Y-127426591D01*
X151857616Y-127201835D01*
X151722460Y-126999560D01*
X151550440Y-126827540D01*
X151348165Y-126692384D01*
X151123409Y-126599287D01*
X150884810Y-126551827D01*
X150679477Y-126551827D01*
X150741185Y-126501185D01*
X150820537Y-126404494D01*
X150879502Y-126294180D01*
X150915812Y-126174482D01*
X150928072Y-126050000D01*
X150928072Y-124850000D01*
X150915812Y-124725518D01*
X150879502Y-124605820D01*
X150820537Y-124495506D01*
X150741185Y-124398815D01*
X150675000Y-124344499D01*
X150675000Y-124175501D01*
X150741185Y-124121185D01*
X150820537Y-124024494D01*
X150879502Y-123914180D01*
X150915812Y-123794482D01*
X150928072Y-123670000D01*
X150928072Y-122470000D01*
X150915812Y-122345518D01*
X150879502Y-122225820D01*
X150820537Y-122115506D01*
X150741185Y-122018815D01*
X150644494Y-121939463D01*
X150534180Y-121880498D01*
X150414482Y-121844188D01*
X150290000Y-121831928D01*
X149390000Y-121831928D01*
X149265518Y-121844188D01*
X149145820Y-121880498D01*
X149103817Y-121902949D01*
X149097500Y-121896632D01*
X149097500Y-121718329D01*
X149155820Y-121749502D01*
X149275518Y-121785812D01*
X149400000Y-121798072D01*
X150300000Y-121798072D01*
X150424482Y-121785812D01*
X150544180Y-121749502D01*
X150654494Y-121690537D01*
X150751185Y-121611185D01*
X150830537Y-121514494D01*
X150889502Y-121404180D01*
X150925812Y-121284482D01*
X150938072Y-121160000D01*
X150938072Y-119960000D01*
X150925812Y-119835518D01*
X150889502Y-119715820D01*
X150830537Y-119605506D01*
X150751185Y-119508815D01*
X150685000Y-119454499D01*
X150685000Y-118915000D01*
X151592574Y-118915000D01*
X151499334Y-118977301D01*
G04 #@! TA.AperFunction,Conductor*
D21*
G36*
X151499334Y-118977301D02*
G01*
X151306421Y-119170214D01*
X151154849Y-119397057D01*
X151050445Y-119649111D01*
X150997220Y-119916689D01*
X150997220Y-120189511D01*
X151050445Y-120457089D01*
X151154849Y-120709143D01*
X151306421Y-120935986D01*
X151499334Y-121128899D01*
X151726177Y-121280471D01*
X151978231Y-121384875D01*
X152245809Y-121438100D01*
X152518631Y-121438100D01*
X152786209Y-121384875D01*
X153038263Y-121280471D01*
X153265106Y-121128899D01*
X153458019Y-120935986D01*
X153609591Y-120709143D01*
X153713995Y-120457089D01*
X153767220Y-120189511D01*
X153767220Y-119916689D01*
X153757678Y-119868719D01*
X163776100Y-119868719D01*
X163776100Y-120055357D01*
X163823560Y-120293956D01*
X163905458Y-120491676D01*
X163719482Y-120677652D01*
X163609287Y-120512733D01*
X163437267Y-120340713D01*
X163234992Y-120205557D01*
X163010236Y-120112460D01*
X162771637Y-120065000D01*
X162528363Y-120065000D01*
X162289764Y-120112460D01*
X162065008Y-120205557D01*
X161862733Y-120340713D01*
X161738446Y-120465000D01*
X160441007Y-120465000D01*
X160399999Y-120460961D01*
X160358991Y-120465000D01*
X160358981Y-120465000D01*
X160236311Y-120477082D01*
X160078913Y-120524828D01*
X159933854Y-120602364D01*
X159806709Y-120706709D01*
X159780559Y-120738573D01*
X150296066Y-130223067D01*
X150284443Y-130195008D01*
X150149287Y-129992733D01*
X149977267Y-129820713D01*
X149774992Y-129685557D01*
X149550236Y-129592460D01*
X149311637Y-129545000D01*
X149135868Y-129545000D01*
X146974448Y-127383581D01*
X146974439Y-127383570D01*
X146471074Y-126880206D01*
X146278939Y-126688072D01*
X146990000Y-126688072D01*
X147114482Y-126675812D01*
X147234180Y-126639502D01*
X147276183Y-126617050D01*
X148723978Y-128064846D01*
X148750128Y-128096710D01*
X148877273Y-128201055D01*
X149022332Y-128278591D01*
X149179730Y-128326337D01*
X149268205Y-128335051D01*
X149343419Y-128342459D01*
X149384437Y-128338419D01*
X149654895Y-128338419D01*
X149668730Y-128371819D01*
X149803886Y-128574094D01*
X149975906Y-128746114D01*
X150178181Y-128881270D01*
X150402937Y-128974367D01*
X150641536Y-129021827D01*
X150884810Y-129021827D01*
X151123409Y-128974367D01*
X151348165Y-128881270D01*
X151550440Y-128746114D01*
X151722460Y-128574094D01*
X151857616Y-128371819D01*
X151950713Y-128147063D01*
X151998173Y-127908464D01*
X151998173Y-127665190D01*
X151950713Y-127426591D01*
X151857616Y-127201835D01*
X151722460Y-126999560D01*
X151550440Y-126827540D01*
X151348165Y-126692384D01*
X151123409Y-126599287D01*
X150884810Y-126551827D01*
X150679477Y-126551827D01*
X150741185Y-126501185D01*
X150820537Y-126404494D01*
X150879502Y-126294180D01*
X150915812Y-126174482D01*
X150928072Y-126050000D01*
X150928072Y-124850000D01*
X150915812Y-124725518D01*
X150879502Y-124605820D01*
X150820537Y-124495506D01*
X150741185Y-124398815D01*
X150675000Y-124344499D01*
X150675000Y-124175501D01*
X150741185Y-124121185D01*
X150820537Y-124024494D01*
X150879502Y-123914180D01*
X150915812Y-123794482D01*
X150928072Y-123670000D01*
X150928072Y-122470000D01*
X150915812Y-122345518D01*
X150879502Y-122225820D01*
X150820537Y-122115506D01*
X150741185Y-122018815D01*
X150644494Y-121939463D01*
X150534180Y-121880498D01*
X150414482Y-121844188D01*
X150290000Y-121831928D01*
X149390000Y-121831928D01*
X149265518Y-121844188D01*
X149145820Y-121880498D01*
X149103817Y-121902949D01*
X149097500Y-121896632D01*
X149097500Y-121718329D01*
X149155820Y-121749502D01*
X149275518Y-121785812D01*
X149400000Y-121798072D01*
X150300000Y-121798072D01*
X150424482Y-121785812D01*
X150544180Y-121749502D01*
X150654494Y-121690537D01*
X150751185Y-121611185D01*
X150830537Y-121514494D01*
X150889502Y-121404180D01*
X150925812Y-121284482D01*
X150938072Y-121160000D01*
X150938072Y-119960000D01*
X150925812Y-119835518D01*
X150889502Y-119715820D01*
X150830537Y-119605506D01*
X150751185Y-119508815D01*
X150685000Y-119454499D01*
X150685000Y-118915000D01*
X151592574Y-118915000D01*
X151499334Y-118977301D01*
G37*
G04 #@! TD.AperFunction*
D20*
X147669210Y-122835791D02*
X147701074Y-122861941D01*
X148470563Y-123631432D01*
X148496709Y-123663291D01*
X148528568Y-123689437D01*
X148528570Y-123689439D01*
X148585478Y-123736142D01*
X148623854Y-123767636D01*
X148768913Y-123845172D01*
X148780644Y-123848731D01*
X148800498Y-123914180D01*
X148859463Y-124024494D01*
X148938815Y-124121185D01*
X149005001Y-124175502D01*
X149005000Y-124344498D01*
X148938815Y-124398815D01*
X148859463Y-124495506D01*
X148800498Y-124605820D01*
X148764188Y-124725518D01*
X148751928Y-124850000D01*
X148751928Y-125731061D01*
X147909446Y-124888579D01*
X147883291Y-124856709D01*
X147756146Y-124752364D01*
X147611087Y-124674828D01*
X147599356Y-124671269D01*
X147579502Y-124605820D01*
X147520537Y-124495506D01*
X147441185Y-124398815D01*
X147344494Y-124319463D01*
X147234180Y-124260498D01*
X147232538Y-124260000D01*
X147234180Y-124259502D01*
X147344494Y-124200537D01*
X147441185Y-124121185D01*
X147520537Y-124024494D01*
X147579502Y-123914180D01*
X147615812Y-123794482D01*
X147628072Y-123670000D01*
X147625000Y-123355750D01*
X147466250Y-123197000D01*
X146667000Y-123197000D01*
X146667000Y-123217000D01*
X146413000Y-123217000D01*
X146413000Y-123197000D01*
X146393000Y-123197000D01*
X146393000Y-122943000D01*
X146413000Y-122943000D01*
X146413000Y-122923000D01*
X146667000Y-122923000D01*
X146667000Y-122943000D01*
X147466250Y-122943000D01*
X147625000Y-122784250D01*
X147625023Y-122781948D01*
X147669210Y-122835791D01*
G04 #@! TA.AperFunction,Conductor*
D21*
G36*
X147669210Y-122835791D02*
G01*
X147701074Y-122861941D01*
X148470563Y-123631432D01*
X148496709Y-123663291D01*
X148528568Y-123689437D01*
X148528570Y-123689439D01*
X148585478Y-123736142D01*
X148623854Y-123767636D01*
X148768913Y-123845172D01*
X148780644Y-123848731D01*
X148800498Y-123914180D01*
X148859463Y-124024494D01*
X148938815Y-124121185D01*
X149005001Y-124175502D01*
X149005000Y-124344498D01*
X148938815Y-124398815D01*
X148859463Y-124495506D01*
X148800498Y-124605820D01*
X148764188Y-124725518D01*
X148751928Y-124850000D01*
X148751928Y-125731061D01*
X147909446Y-124888579D01*
X147883291Y-124856709D01*
X147756146Y-124752364D01*
X147611087Y-124674828D01*
X147599356Y-124671269D01*
X147579502Y-124605820D01*
X147520537Y-124495506D01*
X147441185Y-124398815D01*
X147344494Y-124319463D01*
X147234180Y-124260498D01*
X147232538Y-124260000D01*
X147234180Y-124259502D01*
X147344494Y-124200537D01*
X147441185Y-124121185D01*
X147520537Y-124024494D01*
X147579502Y-123914180D01*
X147615812Y-123794482D01*
X147628072Y-123670000D01*
X147625000Y-123355750D01*
X147466250Y-123197000D01*
X146667000Y-123197000D01*
X146667000Y-123217000D01*
X146413000Y-123217000D01*
X146413000Y-123197000D01*
X146393000Y-123197000D01*
X146393000Y-122943000D01*
X146413000Y-122943000D01*
X146413000Y-122923000D01*
X146667000Y-122923000D01*
X146667000Y-122943000D01*
X147466250Y-122943000D01*
X147625000Y-122784250D01*
X147625023Y-122781948D01*
X147669210Y-122835791D01*
G37*
G04 #@! TD.AperFunction*
D20*
X152405000Y-110735868D02*
X152405000Y-110844132D01*
X151539650Y-111709483D01*
X151530858Y-111712150D01*
X151382725Y-111791329D01*
X151361070Y-111809100D01*
X151294494Y-111754463D01*
X151184180Y-111695498D01*
X151064482Y-111659188D01*
X150940000Y-111646928D01*
X150788250Y-111650000D01*
X150629500Y-111808750D01*
X150629500Y-112633000D01*
X150649500Y-112633000D01*
X150649500Y-112887000D01*
X150629500Y-112887000D01*
X150629500Y-113711250D01*
X150788250Y-113870000D01*
X150940000Y-113873072D01*
X151064482Y-113860812D01*
X151184180Y-113824502D01*
X151294494Y-113765537D01*
X151361070Y-113710900D01*
X151382725Y-113728671D01*
X151530858Y-113807850D01*
X151691592Y-113856608D01*
X151858750Y-113873072D01*
X152296250Y-113873072D01*
X152463408Y-113856608D01*
X152624142Y-113807850D01*
X152772275Y-113728671D01*
X152902115Y-113622115D01*
X153008671Y-113492275D01*
X153087850Y-113344142D01*
X153136608Y-113183408D01*
X153153072Y-113016250D01*
X153153072Y-112503750D01*
X153148952Y-112461916D01*
X153585868Y-112025000D01*
X153761637Y-112025000D01*
X154000236Y-111977540D01*
X154224992Y-111884443D01*
X154427267Y-111749287D01*
X154599287Y-111577267D01*
X154734443Y-111374992D01*
X154782944Y-111257899D01*
X154830381Y-111296829D01*
X154867554Y-111327336D01*
X155012613Y-111404872D01*
X155170011Y-111452618D01*
X155292681Y-111464700D01*
X155292682Y-111464700D01*
X155333700Y-111468740D01*
X155374718Y-111464700D01*
X157382928Y-111464700D01*
X157382928Y-111677560D01*
X157396841Y-111818824D01*
X157396840Y-113293804D01*
X157348954Y-113325801D01*
X157156041Y-113518714D01*
X157004469Y-113745557D01*
X156900065Y-113997611D01*
X156846840Y-114265189D01*
X156846840Y-114538011D01*
X156900065Y-114805589D01*
X156947456Y-114920000D01*
X155337932Y-114920000D01*
X155294443Y-114815008D01*
X155159287Y-114612733D01*
X154987267Y-114440713D01*
X154784992Y-114305557D01*
X154560236Y-114212460D01*
X154321637Y-114165000D01*
X154078363Y-114165000D01*
X153839764Y-114212460D01*
X153615008Y-114305557D01*
X153412733Y-114440713D01*
X153240713Y-114612733D01*
X153105557Y-114815008D01*
X153012460Y-115039764D01*
X152965000Y-115278363D01*
X152965000Y-115521637D01*
X153012460Y-115760236D01*
X153105557Y-115984992D01*
X153240713Y-116187267D01*
X153412733Y-116359287D01*
X153615008Y-116494443D01*
X153839764Y-116587540D01*
X154078363Y-116635000D01*
X154321637Y-116635000D01*
X154536646Y-116592232D01*
X154555000Y-116594040D01*
X154596018Y-116590000D01*
X155725696Y-116590000D01*
X155683856Y-116612364D01*
X155556711Y-116716709D01*
X155530560Y-116748574D01*
X155034135Y-117245000D01*
X150684368Y-117245000D01*
X150662115Y-117217885D01*
X150532275Y-117111329D01*
X150384142Y-117032150D01*
X150223408Y-116983392D01*
X150056250Y-116966928D01*
X149618750Y-116966928D01*
X149451592Y-116983392D01*
X149290858Y-117032150D01*
X149142725Y-117111329D01*
X149050000Y-117187426D01*
X148957275Y-117111329D01*
X148809142Y-117032150D01*
X148648408Y-116983392D01*
X148481250Y-116966928D01*
X148043750Y-116966928D01*
X147876592Y-116983392D01*
X147715858Y-117032150D01*
X147567725Y-117111329D01*
X147437885Y-117217885D01*
X147331329Y-117347725D01*
X147252150Y-117495858D01*
X147203392Y-117656592D01*
X147186928Y-117823750D01*
X147186928Y-118336250D01*
X147203392Y-118503408D01*
X147252150Y-118664142D01*
X147331329Y-118812275D01*
X147427500Y-118929461D01*
X147427500Y-119489378D01*
X147354494Y-119429463D01*
X147244180Y-119370498D01*
X147124482Y-119334188D01*
X147000000Y-119321928D01*
X146100000Y-119321928D01*
X145975518Y-119334188D01*
X145855820Y-119370498D01*
X145745506Y-119429463D01*
X145648815Y-119508815D01*
X145569463Y-119605506D01*
X145510498Y-119715820D01*
X145474188Y-119835518D01*
X145461928Y-119960000D01*
X145461928Y-120688562D01*
X145385000Y-120729681D01*
X145385000Y-115295867D01*
X145488983Y-115191885D01*
X145511076Y-115185183D01*
X145656135Y-115107647D01*
X145783280Y-115003302D01*
X145809435Y-114971432D01*
X147545867Y-113235000D01*
X149426928Y-113235000D01*
X149439188Y-113359482D01*
X149475498Y-113479180D01*
X149534463Y-113589494D01*
X149613815Y-113686185D01*
X149710506Y-113765537D01*
X149820820Y-113824502D01*
X149940518Y-113860812D01*
X150065000Y-113873072D01*
X150216750Y-113870000D01*
X150375500Y-113711250D01*
X150375500Y-112887000D01*
X149588750Y-112887000D01*
X149430000Y-113045750D01*
X149426928Y-113235000D01*
X147545867Y-113235000D01*
X148495867Y-112285000D01*
X149426928Y-112285000D01*
X149430000Y-112474250D01*
X149588750Y-112633000D01*
X150375500Y-112633000D01*
X150375500Y-111808750D01*
X150216750Y-111650000D01*
X150065000Y-111646928D01*
X149940518Y-111659188D01*
X149820820Y-111695498D01*
X149710506Y-111754463D01*
X149613815Y-111833815D01*
X149534463Y-111930506D01*
X149475498Y-112040820D01*
X149439188Y-112160518D01*
X149426928Y-112285000D01*
X148495867Y-112285000D01*
X149595868Y-111185000D01*
X149771637Y-111185000D01*
X150010236Y-111137540D01*
X150234992Y-111044443D01*
X150437267Y-110909287D01*
X150609287Y-110737267D01*
X150744443Y-110534992D01*
X150837540Y-110310236D01*
X150885000Y-110071637D01*
X150885000Y-109828363D01*
X150837540Y-109589764D01*
X150744443Y-109365008D01*
X150609287Y-109162733D01*
X150437267Y-108990713D01*
X150234992Y-108855557D01*
X150010236Y-108762460D01*
X149771637Y-108715000D01*
X149528363Y-108715000D01*
X149289764Y-108762460D01*
X149110915Y-108836542D01*
X149113072Y-108730000D01*
X149100812Y-108605518D01*
X149064502Y-108485820D01*
X149005537Y-108375506D01*
X148950900Y-108308930D01*
X148968671Y-108287275D01*
X149047850Y-108139142D01*
X149096608Y-107978408D01*
X149113072Y-107811250D01*
X149113072Y-107443939D01*
X152405000Y-110735868D01*
G04 #@! TA.AperFunction,Conductor*
D21*
G36*
X152405000Y-110735868D02*
G01*
X152405000Y-110844132D01*
X151539650Y-111709483D01*
X151530858Y-111712150D01*
X151382725Y-111791329D01*
X151361070Y-111809100D01*
X151294494Y-111754463D01*
X151184180Y-111695498D01*
X151064482Y-111659188D01*
X150940000Y-111646928D01*
X150788250Y-111650000D01*
X150629500Y-111808750D01*
X150629500Y-112633000D01*
X150649500Y-112633000D01*
X150649500Y-112887000D01*
X150629500Y-112887000D01*
X150629500Y-113711250D01*
X150788250Y-113870000D01*
X150940000Y-113873072D01*
X151064482Y-113860812D01*
X151184180Y-113824502D01*
X151294494Y-113765537D01*
X151361070Y-113710900D01*
X151382725Y-113728671D01*
X151530858Y-113807850D01*
X151691592Y-113856608D01*
X151858750Y-113873072D01*
X152296250Y-113873072D01*
X152463408Y-113856608D01*
X152624142Y-113807850D01*
X152772275Y-113728671D01*
X152902115Y-113622115D01*
X153008671Y-113492275D01*
X153087850Y-113344142D01*
X153136608Y-113183408D01*
X153153072Y-113016250D01*
X153153072Y-112503750D01*
X153148952Y-112461916D01*
X153585868Y-112025000D01*
X153761637Y-112025000D01*
X154000236Y-111977540D01*
X154224992Y-111884443D01*
X154427267Y-111749287D01*
X154599287Y-111577267D01*
X154734443Y-111374992D01*
X154782944Y-111257899D01*
X154830381Y-111296829D01*
X154867554Y-111327336D01*
X155012613Y-111404872D01*
X155170011Y-111452618D01*
X155292681Y-111464700D01*
X155292682Y-111464700D01*
X155333700Y-111468740D01*
X155374718Y-111464700D01*
X157382928Y-111464700D01*
X157382928Y-111677560D01*
X157396841Y-111818824D01*
X157396840Y-113293804D01*
X157348954Y-113325801D01*
X157156041Y-113518714D01*
X157004469Y-113745557D01*
X156900065Y-113997611D01*
X156846840Y-114265189D01*
X156846840Y-114538011D01*
X156900065Y-114805589D01*
X156947456Y-114920000D01*
X155337932Y-114920000D01*
X155294443Y-114815008D01*
X155159287Y-114612733D01*
X154987267Y-114440713D01*
X154784992Y-114305557D01*
X154560236Y-114212460D01*
X154321637Y-114165000D01*
X154078363Y-114165000D01*
X153839764Y-114212460D01*
X153615008Y-114305557D01*
X153412733Y-114440713D01*
X153240713Y-114612733D01*
X153105557Y-114815008D01*
X153012460Y-115039764D01*
X152965000Y-115278363D01*
X152965000Y-115521637D01*
X153012460Y-115760236D01*
X153105557Y-115984992D01*
X153240713Y-116187267D01*
X153412733Y-116359287D01*
X153615008Y-116494443D01*
X153839764Y-116587540D01*
X154078363Y-116635000D01*
X154321637Y-116635000D01*
X154536646Y-116592232D01*
X154555000Y-116594040D01*
X154596018Y-116590000D01*
X155725696Y-116590000D01*
X155683856Y-116612364D01*
X155556711Y-116716709D01*
X155530560Y-116748574D01*
X155034135Y-117245000D01*
X150684368Y-117245000D01*
X150662115Y-117217885D01*
X150532275Y-117111329D01*
X150384142Y-117032150D01*
X150223408Y-116983392D01*
X150056250Y-116966928D01*
X149618750Y-116966928D01*
X149451592Y-116983392D01*
X149290858Y-117032150D01*
X149142725Y-117111329D01*
X149050000Y-117187426D01*
X148957275Y-117111329D01*
X148809142Y-117032150D01*
X148648408Y-116983392D01*
X148481250Y-116966928D01*
X148043750Y-116966928D01*
X147876592Y-116983392D01*
X147715858Y-117032150D01*
X147567725Y-117111329D01*
X147437885Y-117217885D01*
X147331329Y-117347725D01*
X147252150Y-117495858D01*
X147203392Y-117656592D01*
X147186928Y-117823750D01*
X147186928Y-118336250D01*
X147203392Y-118503408D01*
X147252150Y-118664142D01*
X147331329Y-118812275D01*
X147427500Y-118929461D01*
X147427500Y-119489378D01*
X147354494Y-119429463D01*
X147244180Y-119370498D01*
X147124482Y-119334188D01*
X147000000Y-119321928D01*
X146100000Y-119321928D01*
X145975518Y-119334188D01*
X145855820Y-119370498D01*
X145745506Y-119429463D01*
X145648815Y-119508815D01*
X145569463Y-119605506D01*
X145510498Y-119715820D01*
X145474188Y-119835518D01*
X145461928Y-119960000D01*
X145461928Y-120688562D01*
X145385000Y-120729681D01*
X145385000Y-115295867D01*
X145488983Y-115191885D01*
X145511076Y-115185183D01*
X145656135Y-115107647D01*
X145783280Y-115003302D01*
X145809435Y-114971432D01*
X147545867Y-113235000D01*
X149426928Y-113235000D01*
X149439188Y-113359482D01*
X149475498Y-113479180D01*
X149534463Y-113589494D01*
X149613815Y-113686185D01*
X149710506Y-113765537D01*
X149820820Y-113824502D01*
X149940518Y-113860812D01*
X150065000Y-113873072D01*
X150216750Y-113870000D01*
X150375500Y-113711250D01*
X150375500Y-112887000D01*
X149588750Y-112887000D01*
X149430000Y-113045750D01*
X149426928Y-113235000D01*
X147545867Y-113235000D01*
X148495867Y-112285000D01*
X149426928Y-112285000D01*
X149430000Y-112474250D01*
X149588750Y-112633000D01*
X150375500Y-112633000D01*
X150375500Y-111808750D01*
X150216750Y-111650000D01*
X150065000Y-111646928D01*
X149940518Y-111659188D01*
X149820820Y-111695498D01*
X149710506Y-111754463D01*
X149613815Y-111833815D01*
X149534463Y-111930506D01*
X149475498Y-112040820D01*
X149439188Y-112160518D01*
X149426928Y-112285000D01*
X148495867Y-112285000D01*
X149595868Y-111185000D01*
X149771637Y-111185000D01*
X150010236Y-111137540D01*
X150234992Y-111044443D01*
X150437267Y-110909287D01*
X150609287Y-110737267D01*
X150744443Y-110534992D01*
X150837540Y-110310236D01*
X150885000Y-110071637D01*
X150885000Y-109828363D01*
X150837540Y-109589764D01*
X150744443Y-109365008D01*
X150609287Y-109162733D01*
X150437267Y-108990713D01*
X150234992Y-108855557D01*
X150010236Y-108762460D01*
X149771637Y-108715000D01*
X149528363Y-108715000D01*
X149289764Y-108762460D01*
X149110915Y-108836542D01*
X149113072Y-108730000D01*
X149100812Y-108605518D01*
X149064502Y-108485820D01*
X149005537Y-108375506D01*
X148950900Y-108308930D01*
X148968671Y-108287275D01*
X149047850Y-108139142D01*
X149096608Y-107978408D01*
X149113072Y-107811250D01*
X149113072Y-107443939D01*
X152405000Y-110735868D01*
G37*
G04 #@! TD.AperFunction*
D20*
X167774188Y-116600518D02*
X167761928Y-116725000D01*
X167765000Y-116739250D01*
X167923750Y-116898000D01*
X169073000Y-116898000D01*
X169073000Y-116878000D01*
X169327000Y-116878000D01*
X169327000Y-116898000D01*
X169347000Y-116898000D01*
X169347000Y-117152000D01*
X169327000Y-117152000D01*
X169327000Y-117801250D01*
X169485750Y-117960000D01*
X170000000Y-117963072D01*
X170124482Y-117950812D01*
X170244180Y-117914502D01*
X170354494Y-117855537D01*
X170451185Y-117776185D01*
X170530537Y-117679494D01*
X170589502Y-117569180D01*
X170625812Y-117449482D01*
X170638072Y-117325000D01*
X170635000Y-117310750D01*
X170568891Y-117244641D01*
X170585149Y-117249573D01*
X170636855Y-117270990D01*
X170691746Y-117281908D01*
X170721743Y-117291008D01*
X170752939Y-117294081D01*
X170807835Y-117305000D01*
X170863806Y-117305000D01*
X170894997Y-117308072D01*
X172805003Y-117308072D01*
X172836194Y-117305000D01*
X172892165Y-117305000D01*
X172947061Y-117294081D01*
X172978257Y-117291008D01*
X173008254Y-117281908D01*
X173063145Y-117270990D01*
X173071060Y-117267712D01*
X173077071Y-117328745D01*
X173121916Y-117476582D01*
X173194742Y-117612829D01*
X173292749Y-117732251D01*
X173412171Y-117830258D01*
X173548418Y-117903084D01*
X173665001Y-117938448D01*
X173665001Y-117971472D01*
X173660960Y-118012500D01*
X173677082Y-118176188D01*
X173724828Y-118333586D01*
X173802364Y-118478645D01*
X173819959Y-118500085D01*
X173906710Y-118605791D01*
X173938574Y-118631941D01*
X174019132Y-118712499D01*
X172116633Y-120615000D01*
X171161554Y-120615000D01*
X171037267Y-120490713D01*
X170834992Y-120355557D01*
X170610236Y-120262460D01*
X170371637Y-120215000D01*
X170195868Y-120215000D01*
X169411429Y-119430562D01*
X169322857Y-119357873D01*
X169259287Y-119262733D01*
X169087267Y-119090713D01*
X168884992Y-118955557D01*
X168660236Y-118862460D01*
X168421637Y-118815000D01*
X168178363Y-118815000D01*
X168034999Y-118843517D01*
X168034999Y-118241017D01*
X168039039Y-118199999D01*
X168031028Y-118118664D01*
X168022917Y-118036310D01*
X167975171Y-117878912D01*
X167897635Y-117733853D01*
X167896320Y-117732251D01*
X167819438Y-117638569D01*
X167819436Y-117638567D01*
X167793290Y-117606708D01*
X167761432Y-117580563D01*
X167505869Y-117325000D01*
X167761928Y-117325000D01*
X167774188Y-117449482D01*
X167810498Y-117569180D01*
X167869463Y-117679494D01*
X167948815Y-117776185D01*
X168045506Y-117855537D01*
X168155820Y-117914502D01*
X168275518Y-117950812D01*
X168400000Y-117963072D01*
X168914250Y-117960000D01*
X169073000Y-117801250D01*
X169073000Y-117152000D01*
X167923750Y-117152000D01*
X167765000Y-117310750D01*
X167761928Y-117325000D01*
X167505869Y-117325000D01*
X166929445Y-116748578D01*
X166903291Y-116716709D01*
X166776146Y-116612364D01*
X166734306Y-116590000D01*
X167777379Y-116590000D01*
X167774188Y-116600518D01*
G04 #@! TA.AperFunction,Conductor*
D21*
G36*
X167774188Y-116600518D02*
G01*
X167761928Y-116725000D01*
X167765000Y-116739250D01*
X167923750Y-116898000D01*
X169073000Y-116898000D01*
X169073000Y-116878000D01*
X169327000Y-116878000D01*
X169327000Y-116898000D01*
X169347000Y-116898000D01*
X169347000Y-117152000D01*
X169327000Y-117152000D01*
X169327000Y-117801250D01*
X169485750Y-117960000D01*
X170000000Y-117963072D01*
X170124482Y-117950812D01*
X170244180Y-117914502D01*
X170354494Y-117855537D01*
X170451185Y-117776185D01*
X170530537Y-117679494D01*
X170589502Y-117569180D01*
X170625812Y-117449482D01*
X170638072Y-117325000D01*
X170635000Y-117310750D01*
X170568891Y-117244641D01*
X170585149Y-117249573D01*
X170636855Y-117270990D01*
X170691746Y-117281908D01*
X170721743Y-117291008D01*
X170752939Y-117294081D01*
X170807835Y-117305000D01*
X170863806Y-117305000D01*
X170894997Y-117308072D01*
X172805003Y-117308072D01*
X172836194Y-117305000D01*
X172892165Y-117305000D01*
X172947061Y-117294081D01*
X172978257Y-117291008D01*
X173008254Y-117281908D01*
X173063145Y-117270990D01*
X173071060Y-117267712D01*
X173077071Y-117328745D01*
X173121916Y-117476582D01*
X173194742Y-117612829D01*
X173292749Y-117732251D01*
X173412171Y-117830258D01*
X173548418Y-117903084D01*
X173665001Y-117938448D01*
X173665001Y-117971472D01*
X173660960Y-118012500D01*
X173677082Y-118176188D01*
X173724828Y-118333586D01*
X173802364Y-118478645D01*
X173819959Y-118500085D01*
X173906710Y-118605791D01*
X173938574Y-118631941D01*
X174019132Y-118712499D01*
X172116633Y-120615000D01*
X171161554Y-120615000D01*
X171037267Y-120490713D01*
X170834992Y-120355557D01*
X170610236Y-120262460D01*
X170371637Y-120215000D01*
X170195868Y-120215000D01*
X169411429Y-119430562D01*
X169322857Y-119357873D01*
X169259287Y-119262733D01*
X169087267Y-119090713D01*
X168884992Y-118955557D01*
X168660236Y-118862460D01*
X168421637Y-118815000D01*
X168178363Y-118815000D01*
X168034999Y-118843517D01*
X168034999Y-118241017D01*
X168039039Y-118199999D01*
X168031028Y-118118664D01*
X168022917Y-118036310D01*
X167975171Y-117878912D01*
X167897635Y-117733853D01*
X167896320Y-117732251D01*
X167819438Y-117638569D01*
X167819436Y-117638567D01*
X167793290Y-117606708D01*
X167761432Y-117580563D01*
X167505869Y-117325000D01*
X167761928Y-117325000D01*
X167774188Y-117449482D01*
X167810498Y-117569180D01*
X167869463Y-117679494D01*
X167948815Y-117776185D01*
X168045506Y-117855537D01*
X168155820Y-117914502D01*
X168275518Y-117950812D01*
X168400000Y-117963072D01*
X168914250Y-117960000D01*
X169073000Y-117801250D01*
X169073000Y-117152000D01*
X167923750Y-117152000D01*
X167765000Y-117310750D01*
X167761928Y-117325000D01*
X167505869Y-117325000D01*
X166929445Y-116748578D01*
X166903291Y-116716709D01*
X166776146Y-116612364D01*
X166734306Y-116590000D01*
X167777379Y-116590000D01*
X167774188Y-116600518D01*
G37*
G04 #@! TD.AperFunction*
D20*
X164305084Y-112811433D02*
X164331230Y-112843292D01*
X164363089Y-112869438D01*
X164363091Y-112869440D01*
X164414043Y-112911255D01*
X164458375Y-112947637D01*
X164603434Y-113025173D01*
X164760832Y-113072919D01*
X164883502Y-113085001D01*
X164883503Y-113085001D01*
X164924521Y-113089041D01*
X164965539Y-113085001D01*
X167350623Y-113085001D01*
X167391641Y-113089041D01*
X167432659Y-113085001D01*
X167432660Y-113085001D01*
X167555330Y-113072919D01*
X167712728Y-113025173D01*
X167768803Y-112995200D01*
X167761928Y-113065000D01*
X167761928Y-113365000D01*
X167777071Y-113518745D01*
X167821916Y-113666582D01*
X167893730Y-113800936D01*
X167869463Y-113830506D01*
X167810498Y-113940820D01*
X167774188Y-114060518D01*
X167761928Y-114185000D01*
X167765000Y-114199250D01*
X167923750Y-114358000D01*
X169073000Y-114358000D01*
X169073000Y-114338000D01*
X169327000Y-114338000D01*
X169327000Y-114358000D01*
X169347000Y-114358000D01*
X169347000Y-114612000D01*
X169327000Y-114612000D01*
X169327000Y-114632000D01*
X169073000Y-114632000D01*
X169073000Y-114612000D01*
X167923750Y-114612000D01*
X167765000Y-114770750D01*
X167761928Y-114785000D01*
X167774188Y-114909482D01*
X167777379Y-114920000D01*
X165536716Y-114920000D01*
X165561432Y-114838522D01*
X165573692Y-114714040D01*
X165570620Y-114524790D01*
X165411870Y-114366040D01*
X164612620Y-114366040D01*
X164612620Y-114386040D01*
X164358620Y-114386040D01*
X164358620Y-114366040D01*
X164338620Y-114366040D01*
X164338620Y-114112040D01*
X164358620Y-114112040D01*
X164358620Y-113287790D01*
X164612620Y-113287790D01*
X164612620Y-114112040D01*
X165411870Y-114112040D01*
X165570620Y-113953290D01*
X165573692Y-113764040D01*
X165561432Y-113639558D01*
X165525122Y-113519860D01*
X165466157Y-113409546D01*
X165386805Y-113312855D01*
X165290114Y-113233503D01*
X165179800Y-113174538D01*
X165060102Y-113138228D01*
X164935620Y-113125968D01*
X164771370Y-113129040D01*
X164612620Y-113287790D01*
X164358620Y-113287790D01*
X164199870Y-113129040D01*
X164035620Y-113125968D01*
X163911138Y-113138228D01*
X163791440Y-113174538D01*
X163681126Y-113233503D01*
X163636971Y-113269740D01*
X163490903Y-113191665D01*
X163328997Y-113142552D01*
X163160620Y-113125968D01*
X162710620Y-113125968D01*
X162542243Y-113142552D01*
X162380337Y-113191665D01*
X162231123Y-113271422D01*
X162100336Y-113378756D01*
X162079586Y-113404040D01*
X161108781Y-113404040D01*
X161007354Y-113302613D01*
X160780511Y-113151041D01*
X160528457Y-113046637D01*
X160260879Y-112993412D01*
X159988057Y-112993412D01*
X159720479Y-113046637D01*
X159468425Y-113151041D01*
X159241582Y-113302613D01*
X159166560Y-113377635D01*
X159114726Y-113325801D01*
X159066840Y-113293805D01*
X159066840Y-112459384D01*
X159091716Y-112451838D01*
X159236608Y-112374391D01*
X159363606Y-112270166D01*
X159467831Y-112143168D01*
X159545278Y-111998276D01*
X159592969Y-111841060D01*
X159609072Y-111677560D01*
X159609072Y-111464700D01*
X162958353Y-111464700D01*
X164305084Y-112811433D01*
G04 #@! TA.AperFunction,Conductor*
D21*
G36*
X164305084Y-112811433D02*
G01*
X164331230Y-112843292D01*
X164363089Y-112869438D01*
X164363091Y-112869440D01*
X164414043Y-112911255D01*
X164458375Y-112947637D01*
X164603434Y-113025173D01*
X164760832Y-113072919D01*
X164883502Y-113085001D01*
X164883503Y-113085001D01*
X164924521Y-113089041D01*
X164965539Y-113085001D01*
X167350623Y-113085001D01*
X167391641Y-113089041D01*
X167432659Y-113085001D01*
X167432660Y-113085001D01*
X167555330Y-113072919D01*
X167712728Y-113025173D01*
X167768803Y-112995200D01*
X167761928Y-113065000D01*
X167761928Y-113365000D01*
X167777071Y-113518745D01*
X167821916Y-113666582D01*
X167893730Y-113800936D01*
X167869463Y-113830506D01*
X167810498Y-113940820D01*
X167774188Y-114060518D01*
X167761928Y-114185000D01*
X167765000Y-114199250D01*
X167923750Y-114358000D01*
X169073000Y-114358000D01*
X169073000Y-114338000D01*
X169327000Y-114338000D01*
X169327000Y-114358000D01*
X169347000Y-114358000D01*
X169347000Y-114612000D01*
X169327000Y-114612000D01*
X169327000Y-114632000D01*
X169073000Y-114632000D01*
X169073000Y-114612000D01*
X167923750Y-114612000D01*
X167765000Y-114770750D01*
X167761928Y-114785000D01*
X167774188Y-114909482D01*
X167777379Y-114920000D01*
X165536716Y-114920000D01*
X165561432Y-114838522D01*
X165573692Y-114714040D01*
X165570620Y-114524790D01*
X165411870Y-114366040D01*
X164612620Y-114366040D01*
X164612620Y-114386040D01*
X164358620Y-114386040D01*
X164358620Y-114366040D01*
X164338620Y-114366040D01*
X164338620Y-114112040D01*
X164358620Y-114112040D01*
X164358620Y-113287790D01*
X164612620Y-113287790D01*
X164612620Y-114112040D01*
X165411870Y-114112040D01*
X165570620Y-113953290D01*
X165573692Y-113764040D01*
X165561432Y-113639558D01*
X165525122Y-113519860D01*
X165466157Y-113409546D01*
X165386805Y-113312855D01*
X165290114Y-113233503D01*
X165179800Y-113174538D01*
X165060102Y-113138228D01*
X164935620Y-113125968D01*
X164771370Y-113129040D01*
X164612620Y-113287790D01*
X164358620Y-113287790D01*
X164199870Y-113129040D01*
X164035620Y-113125968D01*
X163911138Y-113138228D01*
X163791440Y-113174538D01*
X163681126Y-113233503D01*
X163636971Y-113269740D01*
X163490903Y-113191665D01*
X163328997Y-113142552D01*
X163160620Y-113125968D01*
X162710620Y-113125968D01*
X162542243Y-113142552D01*
X162380337Y-113191665D01*
X162231123Y-113271422D01*
X162100336Y-113378756D01*
X162079586Y-113404040D01*
X161108781Y-113404040D01*
X161007354Y-113302613D01*
X160780511Y-113151041D01*
X160528457Y-113046637D01*
X160260879Y-112993412D01*
X159988057Y-112993412D01*
X159720479Y-113046637D01*
X159468425Y-113151041D01*
X159241582Y-113302613D01*
X159166560Y-113377635D01*
X159114726Y-113325801D01*
X159066840Y-113293805D01*
X159066840Y-112459384D01*
X159091716Y-112451838D01*
X159236608Y-112374391D01*
X159363606Y-112270166D01*
X159467831Y-112143168D01*
X159545278Y-111998276D01*
X159592969Y-111841060D01*
X159609072Y-111677560D01*
X159609072Y-111464700D01*
X162958353Y-111464700D01*
X164305084Y-112811433D01*
G37*
G04 #@! TD.AperFunction*
D20*
X172665000Y-111745868D02*
X172665000Y-111921637D01*
X172712460Y-112160236D01*
X172805557Y-112384992D01*
X172940713Y-112587267D01*
X173112733Y-112759287D01*
X173121410Y-112765085D01*
X173077071Y-112911255D01*
X173071060Y-112972288D01*
X173063145Y-112969010D01*
X173008254Y-112958092D01*
X172978257Y-112948992D01*
X172947061Y-112945919D01*
X172892165Y-112935000D01*
X172836194Y-112935000D01*
X172805003Y-112931928D01*
X170894997Y-112931928D01*
X170863806Y-112935000D01*
X170807835Y-112935000D01*
X170752939Y-112945919D01*
X170721743Y-112948992D01*
X170691746Y-112958092D01*
X170636855Y-112969010D01*
X170628940Y-112972288D01*
X170622929Y-112911255D01*
X170578084Y-112763418D01*
X170505258Y-112627171D01*
X170407251Y-112507749D01*
X170287829Y-112409742D01*
X170277827Y-112404396D01*
X170337540Y-112260236D01*
X170385000Y-112021637D01*
X170385000Y-111778363D01*
X170337540Y-111539764D01*
X170244443Y-111315008D01*
X170109287Y-111112733D01*
X169937267Y-110940713D01*
X169913751Y-110925000D01*
X171844133Y-110925000D01*
X172665000Y-111745868D01*
G04 #@! TA.AperFunction,Conductor*
D21*
G36*
X172665000Y-111745868D02*
G01*
X172665000Y-111921637D01*
X172712460Y-112160236D01*
X172805557Y-112384992D01*
X172940713Y-112587267D01*
X173112733Y-112759287D01*
X173121410Y-112765085D01*
X173077071Y-112911255D01*
X173071060Y-112972288D01*
X173063145Y-112969010D01*
X173008254Y-112958092D01*
X172978257Y-112948992D01*
X172947061Y-112945919D01*
X172892165Y-112935000D01*
X172836194Y-112935000D01*
X172805003Y-112931928D01*
X170894997Y-112931928D01*
X170863806Y-112935000D01*
X170807835Y-112935000D01*
X170752939Y-112945919D01*
X170721743Y-112948992D01*
X170691746Y-112958092D01*
X170636855Y-112969010D01*
X170628940Y-112972288D01*
X170622929Y-112911255D01*
X170578084Y-112763418D01*
X170505258Y-112627171D01*
X170407251Y-112507749D01*
X170287829Y-112409742D01*
X170277827Y-112404396D01*
X170337540Y-112260236D01*
X170385000Y-112021637D01*
X170385000Y-111778363D01*
X170337540Y-111539764D01*
X170244443Y-111315008D01*
X170109287Y-111112733D01*
X169937267Y-110940713D01*
X169913751Y-110925000D01*
X171844133Y-110925000D01*
X172665000Y-111745868D01*
G37*
G04 #@! TD.AperFunction*
D20*
X171589761Y-98838765D02*
X171318765Y-99109761D01*
X171105844Y-99428419D01*
X170959182Y-99782493D01*
X170884414Y-100158376D01*
X170884414Y-100541624D01*
X170959182Y-100917507D01*
X171105844Y-101271581D01*
X171318765Y-101590239D01*
X171589761Y-101861235D01*
X171908419Y-102074156D01*
X172262493Y-102220818D01*
X172638376Y-102295586D01*
X173021624Y-102295586D01*
X173397507Y-102220818D01*
X173751581Y-102074156D01*
X174070239Y-101861235D01*
X174341235Y-101590239D01*
X174554156Y-101271581D01*
X174661643Y-101012085D01*
X175375906Y-104393742D01*
X175405289Y-104486639D01*
X175467924Y-104600564D01*
X175505797Y-104645617D01*
X175604035Y-104766988D01*
X175513689Y-104739582D01*
X175391019Y-104727500D01*
X175391018Y-104727500D01*
X175350000Y-104723460D01*
X175308982Y-104727500D01*
X175049461Y-104727500D01*
X174932275Y-104631329D01*
X174784142Y-104552150D01*
X174623408Y-104503392D01*
X174456250Y-104486928D01*
X173943750Y-104486928D01*
X173776592Y-104503392D01*
X173615858Y-104552150D01*
X173467725Y-104631329D01*
X173337885Y-104737885D01*
X173231329Y-104867725D01*
X173152150Y-105015858D01*
X173103392Y-105176592D01*
X173086928Y-105343750D01*
X173086928Y-105781250D01*
X173103392Y-105948408D01*
X173152150Y-106109142D01*
X173231329Y-106257275D01*
X173307426Y-106350000D01*
X173231329Y-106442725D01*
X173152150Y-106590858D01*
X173103392Y-106751592D01*
X173086928Y-106918750D01*
X173086928Y-107356250D01*
X173103392Y-107523408D01*
X173152150Y-107684142D01*
X173231329Y-107832275D01*
X173337885Y-107962115D01*
X173392597Y-108007016D01*
X173362365Y-108043854D01*
X173284829Y-108188913D01*
X173237083Y-108346311D01*
X173225001Y-108468981D01*
X173225000Y-109944133D01*
X172809446Y-109528579D01*
X172783291Y-109496709D01*
X172656146Y-109392364D01*
X172511087Y-109314828D01*
X172353689Y-109267082D01*
X172231019Y-109255000D01*
X172231018Y-109255000D01*
X172190000Y-109250960D01*
X172148982Y-109255000D01*
X169097015Y-109255000D01*
X169055999Y-109250960D01*
X169014983Y-109255000D01*
X169014981Y-109255000D01*
X168930057Y-109263364D01*
X168899824Y-109190376D01*
X168775612Y-109004480D01*
X168617520Y-108846388D01*
X168515170Y-108778000D01*
X168617520Y-108709612D01*
X168775612Y-108551520D01*
X168899824Y-108365624D01*
X168985383Y-108159067D01*
X169029000Y-107939788D01*
X169029000Y-107716212D01*
X168985383Y-107496933D01*
X168899824Y-107290376D01*
X168775612Y-107104480D01*
X168617520Y-106946388D01*
X168431624Y-106822176D01*
X168225067Y-106736617D01*
X168005788Y-106693000D01*
X167782212Y-106693000D01*
X167625000Y-106724271D01*
X167625000Y-103871554D01*
X167749287Y-103747267D01*
X167884443Y-103544992D01*
X167977540Y-103320236D01*
X168025000Y-103081637D01*
X168025000Y-102838363D01*
X167977540Y-102599764D01*
X167884443Y-102375008D01*
X167749287Y-102172733D01*
X167577267Y-102000713D01*
X167374992Y-101865557D01*
X167150236Y-101772460D01*
X166911637Y-101725000D01*
X166735867Y-101725000D01*
X166659443Y-101648576D01*
X166659439Y-101648571D01*
X163729446Y-98718579D01*
X163703291Y-98686709D01*
X163670746Y-98660000D01*
X171857301Y-98660000D01*
X171589761Y-98838765D01*
G04 #@! TA.AperFunction,Conductor*
D21*
G36*
X171589761Y-98838765D02*
G01*
X171318765Y-99109761D01*
X171105844Y-99428419D01*
X170959182Y-99782493D01*
X170884414Y-100158376D01*
X170884414Y-100541624D01*
X170959182Y-100917507D01*
X171105844Y-101271581D01*
X171318765Y-101590239D01*
X171589761Y-101861235D01*
X171908419Y-102074156D01*
X172262493Y-102220818D01*
X172638376Y-102295586D01*
X173021624Y-102295586D01*
X173397507Y-102220818D01*
X173751581Y-102074156D01*
X174070239Y-101861235D01*
X174341235Y-101590239D01*
X174554156Y-101271581D01*
X174661643Y-101012085D01*
X175375906Y-104393742D01*
X175405289Y-104486639D01*
X175467924Y-104600564D01*
X175505797Y-104645617D01*
X175604035Y-104766988D01*
X175513689Y-104739582D01*
X175391019Y-104727500D01*
X175391018Y-104727500D01*
X175350000Y-104723460D01*
X175308982Y-104727500D01*
X175049461Y-104727500D01*
X174932275Y-104631329D01*
X174784142Y-104552150D01*
X174623408Y-104503392D01*
X174456250Y-104486928D01*
X173943750Y-104486928D01*
X173776592Y-104503392D01*
X173615858Y-104552150D01*
X173467725Y-104631329D01*
X173337885Y-104737885D01*
X173231329Y-104867725D01*
X173152150Y-105015858D01*
X173103392Y-105176592D01*
X173086928Y-105343750D01*
X173086928Y-105781250D01*
X173103392Y-105948408D01*
X173152150Y-106109142D01*
X173231329Y-106257275D01*
X173307426Y-106350000D01*
X173231329Y-106442725D01*
X173152150Y-106590858D01*
X173103392Y-106751592D01*
X173086928Y-106918750D01*
X173086928Y-107356250D01*
X173103392Y-107523408D01*
X173152150Y-107684142D01*
X173231329Y-107832275D01*
X173337885Y-107962115D01*
X173392597Y-108007016D01*
X173362365Y-108043854D01*
X173284829Y-108188913D01*
X173237083Y-108346311D01*
X173225001Y-108468981D01*
X173225000Y-109944133D01*
X172809446Y-109528579D01*
X172783291Y-109496709D01*
X172656146Y-109392364D01*
X172511087Y-109314828D01*
X172353689Y-109267082D01*
X172231019Y-109255000D01*
X172231018Y-109255000D01*
X172190000Y-109250960D01*
X172148982Y-109255000D01*
X169097015Y-109255000D01*
X169055999Y-109250960D01*
X169014983Y-109255000D01*
X169014981Y-109255000D01*
X168930057Y-109263364D01*
X168899824Y-109190376D01*
X168775612Y-109004480D01*
X168617520Y-108846388D01*
X168515170Y-108778000D01*
X168617520Y-108709612D01*
X168775612Y-108551520D01*
X168899824Y-108365624D01*
X168985383Y-108159067D01*
X169029000Y-107939788D01*
X169029000Y-107716212D01*
X168985383Y-107496933D01*
X168899824Y-107290376D01*
X168775612Y-107104480D01*
X168617520Y-106946388D01*
X168431624Y-106822176D01*
X168225067Y-106736617D01*
X168005788Y-106693000D01*
X167782212Y-106693000D01*
X167625000Y-106724271D01*
X167625000Y-103871554D01*
X167749287Y-103747267D01*
X167884443Y-103544992D01*
X167977540Y-103320236D01*
X168025000Y-103081637D01*
X168025000Y-102838363D01*
X167977540Y-102599764D01*
X167884443Y-102375008D01*
X167749287Y-102172733D01*
X167577267Y-102000713D01*
X167374992Y-101865557D01*
X167150236Y-101772460D01*
X166911637Y-101725000D01*
X166735867Y-101725000D01*
X166659443Y-101648576D01*
X166659439Y-101648571D01*
X163729446Y-98718579D01*
X163703291Y-98686709D01*
X163670746Y-98660000D01*
X171857301Y-98660000D01*
X171589761Y-98838765D01*
G37*
G04 #@! TD.AperFunction*
D20*
X159248000Y-107637151D02*
X158081972Y-108803181D01*
X158057500Y-108805591D01*
X157900284Y-108853282D01*
X157755392Y-108930729D01*
X157628394Y-109034954D01*
X157524169Y-109161952D01*
X157446722Y-109306844D01*
X157399031Y-109464060D01*
X157382928Y-109627560D01*
X157382928Y-109794700D01*
X155679569Y-109794700D01*
X154797445Y-108912578D01*
X154771291Y-108880709D01*
X154644146Y-108776364D01*
X154499087Y-108698828D01*
X154341689Y-108651082D01*
X154219019Y-108639000D01*
X154219018Y-108639000D01*
X154178000Y-108634960D01*
X154136982Y-108639000D01*
X153761869Y-108639000D01*
X152486361Y-107363493D01*
X152506236Y-107359540D01*
X152730992Y-107266443D01*
X152933267Y-107131287D01*
X153057554Y-107007000D01*
X159248001Y-107007000D01*
X159248000Y-107637151D01*
G04 #@! TA.AperFunction,Conductor*
D21*
G36*
X159248000Y-107637151D02*
G01*
X158081972Y-108803181D01*
X158057500Y-108805591D01*
X157900284Y-108853282D01*
X157755392Y-108930729D01*
X157628394Y-109034954D01*
X157524169Y-109161952D01*
X157446722Y-109306844D01*
X157399031Y-109464060D01*
X157382928Y-109627560D01*
X157382928Y-109794700D01*
X155679569Y-109794700D01*
X154797445Y-108912578D01*
X154771291Y-108880709D01*
X154644146Y-108776364D01*
X154499087Y-108698828D01*
X154341689Y-108651082D01*
X154219019Y-108639000D01*
X154219018Y-108639000D01*
X154178000Y-108634960D01*
X154136982Y-108639000D01*
X153761869Y-108639000D01*
X152486361Y-107363493D01*
X152506236Y-107359540D01*
X152730992Y-107266443D01*
X152933267Y-107131287D01*
X153057554Y-107007000D01*
X159248001Y-107007000D01*
X159248000Y-107637151D01*
G37*
G04 #@! TD.AperFunction*
M02*
