M48
; DRILL file {KiCad 5.1.4-1.fc30} date pon, 6 kwi 2020, 19:00:15
; FORMAT={-:-/ absolute / metric / decimal}
; #@! TF.CreationDate,2020-04-06T19:00:15+02:00
; #@! TF.GenerationSoftware,Kicad,Pcbnew,5.1.4-1.fc30
; #@! TF.FileFunction,Plated,1,2,PTH
FMAT,2
METRIC
T1C0.200
T2C0.600
%
G90
G05
T1
X170.895Y-113.82
X170.895Y-115.12
X170.895Y-116.42
X172.805Y-113.82
X172.805Y-115.12
X172.805Y-116.42
T2
X139.965Y-113.715
X141.96Y-124.06
X142.14Y-119.11
X143.44Y-112.41
X144.25Y-104.15
X145.9Y-110.83
X147.19Y-137.47
X147.95Y-115.3
X149.19Y-130.78
X149.65Y-109.95
X150.763Y-127.787
X152.96Y-105.66
X153.64Y-110.79
X154.2Y-115.4
X154.7Y-120.85
X156.61Y-101.21
X158.3Y-127.3
X160.55Y-103.06
X162.65Y-121.3
X163.85Y-105.75
X164.15Y-123.55
X164.7Y-107.35
X165.05Y-110.75
X165.65Y-122.2
X165.8Y-119.8
X166.79Y-102.96
X166.9Y-111.7
X168.3Y-120.05
X169.15Y-111.9
X169.9Y-118.85
X170.25Y-121.45
X170.73Y-136.08
X171.45Y-103.4
X173.5Y-126.45
X173.9Y-111.8
X175.4Y-123.15
X179.055Y-111.995
T0
M30
