M48
; DRILL file {KiCad 5.1.8-1.fc33} date Thu Nov 26 22:59:44 2020
; FORMAT={-:-/ absolute / inch / decimal}
; #@! TF.CreationDate,2020-11-26T22:59:44+01:00
; #@! TF.GenerationSoftware,Kicad,Pcbnew,5.1.8-1.fc33
; #@! TF.FileFunction,Plated,1,2,PTH
FMAT,2
INCH
T1C0.0079
T2C0.0197
T3C0.0236
T4C0.0256
%
G90
G05
T1
X6.7281Y-4.4811
X6.7281Y-4.5323
X6.7281Y-4.5835
X6.8033Y-4.4811
X6.8033Y-4.5323
X6.8033Y-4.5835
T2
X6.61Y-4.2452
X6.61Y-4.32
T3
X5.5104Y-4.477
X5.589Y-4.8843
X5.5961Y-4.6894
X5.6472Y-4.4256
X5.6791Y-4.1004
X5.7441Y-4.3634
X5.8248Y-4.5394
X5.8736Y-5.1488
X5.8917Y-4.3287
X5.9356Y-5.031
X5.99Y-4.0
X5.99Y-4.18
X6.03Y-4.12
X6.0488Y-4.3618
X6.05Y-4.24
X6.0709Y-4.5433
X6.0906Y-4.7579
X6.14Y-4.11
X6.159Y-5.2433
X6.21Y-4.09
X6.2323Y-5.0118
X6.3Y-4.09
X6.31Y-3.8927
X6.38Y-3.9
X6.4035Y-4.7756
X6.41Y-4.1024
X6.4508Y-4.1634
X6.4626Y-4.8642
X6.4843Y-4.2264
X6.498Y-4.3602
X6.5217Y-4.811
X6.5276Y-4.7165
X6.561Y-4.3839
X6.5665Y-4.0535
X6.626Y-4.7264
X6.6594Y-4.4055
X6.6803Y-3.8984
X6.689Y-4.6791
X6.7028Y-4.7815
X6.7217Y-5.3575
X6.75Y-4.0709
X6.8307Y-4.9783
X6.8465Y-4.4016
X6.9055Y-4.8484
X7.0494Y-4.4093
T4
X5.7879Y-5.2202
X5.7879Y-5.2702
X5.7879Y-5.3202
X5.7879Y-5.3702
X5.7879Y-5.4202
T0
M30
