G04 #@! TF.GenerationSoftware,KiCad,Pcbnew,5.1.4-1.fc30*
G04 #@! TF.CreationDate,2020-04-06T19:00:12+02:00*
G04 #@! TF.ProjectId,venom,76656e6f-6d2e-46b6-9963-61645f706362,rev?*
G04 #@! TF.SameCoordinates,Original*
G04 #@! TF.FileFunction,Legend,Bot*
G04 #@! TF.FilePolarity,Positive*
%FSLAX46Y46*%
G04 Gerber Fmt 4.6, Leading zero omitted, Abs format (unit mm)*
G04 Created by KiCad (PCBNEW 5.1.4-1.fc30) date 2020-04-06 19:00:12*
%MOMM*%
%LPD*%
G04 APERTURE LIST*
%ADD10C,0.120000*%
%ADD11C,0.150000*%
G04 APERTURE END LIST*
D10*
X148887221Y-118590000D02*
X149212779Y-118590000D01*
X148887221Y-117570000D02*
X149212779Y-117570000D01*
X145940000Y-124070000D02*
X145940000Y-122070000D01*
X145940000Y-122070000D02*
X149840000Y-122070000D01*
X145940000Y-124070000D02*
X149840000Y-124070000D01*
X150440000Y-124450000D02*
X146540000Y-124450000D01*
X150440000Y-126450000D02*
X146540000Y-126450000D01*
X150440000Y-124450000D02*
X150440000Y-126450000D01*
X145950000Y-121560000D02*
X145950000Y-119560000D01*
X145950000Y-119560000D02*
X149850000Y-119560000D01*
X145950000Y-121560000D02*
X149850000Y-121560000D01*
X148510000Y-105157221D02*
X148510000Y-105482779D01*
X147490000Y-105157221D02*
X147490000Y-105482779D01*
X147490000Y-108217221D02*
X147490000Y-108542779D01*
X148510000Y-108217221D02*
X148510000Y-108542779D01*
X174830000Y-109957221D02*
X174830000Y-110282779D01*
X175850000Y-109957221D02*
X175850000Y-110282779D01*
X177370000Y-109957221D02*
X177370000Y-110282779D01*
X176350000Y-109957221D02*
X176350000Y-110282779D01*
X168400000Y-117680000D02*
X173800000Y-117680000D01*
X169900000Y-112560000D02*
X173800000Y-112560000D01*
X174690000Y-119337221D02*
X174690000Y-119662779D01*
X175710000Y-119337221D02*
X175710000Y-119662779D01*
X173465000Y-107835000D02*
X173465000Y-105550000D01*
X174935000Y-107835000D02*
X173465000Y-107835000D01*
X174935000Y-105550000D02*
X174935000Y-107835000D01*
X176735000Y-106200000D02*
X176735000Y-108485000D01*
X176735000Y-108485000D02*
X175265000Y-108485000D01*
X175265000Y-108485000D02*
X175265000Y-106200000D01*
X151452779Y-112250000D02*
X151127221Y-112250000D01*
X151452779Y-113270000D02*
X151127221Y-113270000D01*
D11*
X149166666Y-131661904D02*
X149166666Y-132233333D01*
X149204761Y-132347619D01*
X149280952Y-132423809D01*
X149395238Y-132461904D01*
X149471428Y-132461904D01*
X148442857Y-131661904D02*
X148595238Y-131661904D01*
X148671428Y-131700000D01*
X148709523Y-131738095D01*
X148785714Y-131852380D01*
X148823809Y-132004761D01*
X148823809Y-132309523D01*
X148785714Y-132385714D01*
X148747619Y-132423809D01*
X148671428Y-132461904D01*
X148519047Y-132461904D01*
X148442857Y-132423809D01*
X148404761Y-132385714D01*
X148366666Y-132309523D01*
X148366666Y-132119047D01*
X148404761Y-132042857D01*
X148442857Y-132004761D01*
X148519047Y-131966666D01*
X148671428Y-131966666D01*
X148747619Y-132004761D01*
X148785714Y-132042857D01*
X148823809Y-132119047D01*
X151466666Y-135161904D02*
X151466666Y-135733333D01*
X151504761Y-135847619D01*
X151580952Y-135923809D01*
X151695238Y-135961904D01*
X151771428Y-135961904D01*
X150742857Y-135428571D02*
X150742857Y-135961904D01*
X150933333Y-135123809D02*
X151123809Y-135695238D01*
X150628571Y-135695238D01*
X145316666Y-133111904D02*
X145316666Y-133683333D01*
X145354761Y-133797619D01*
X145430952Y-133873809D01*
X145545238Y-133911904D01*
X145621428Y-133911904D01*
X145011904Y-133111904D02*
X144478571Y-133111904D01*
X144821428Y-133911904D01*
X145366666Y-135361904D02*
X145366666Y-135933333D01*
X145404761Y-136047619D01*
X145480952Y-136123809D01*
X145595238Y-136161904D01*
X145671428Y-136161904D01*
X144604761Y-135361904D02*
X144985714Y-135361904D01*
X145023809Y-135742857D01*
X144985714Y-135704761D01*
X144909523Y-135666666D01*
X144719047Y-135666666D01*
X144642857Y-135704761D01*
X144604761Y-135742857D01*
X144566666Y-135819047D01*
X144566666Y-136009523D01*
X144604761Y-136085714D01*
X144642857Y-136123809D01*
X144719047Y-136161904D01*
X144909523Y-136161904D01*
X144985714Y-136123809D01*
X145023809Y-136085714D01*
X151096666Y-137191904D02*
X151096666Y-137763333D01*
X151134761Y-137877619D01*
X151210952Y-137953809D01*
X151325238Y-137991904D01*
X151401428Y-137991904D01*
X150791904Y-137191904D02*
X150296666Y-137191904D01*
X150563333Y-137496666D01*
X150449047Y-137496666D01*
X150372857Y-137534761D01*
X150334761Y-137572857D01*
X150296666Y-137649047D01*
X150296666Y-137839523D01*
X150334761Y-137915714D01*
X150372857Y-137953809D01*
X150449047Y-137991904D01*
X150677619Y-137991904D01*
X150753809Y-137953809D01*
X150791904Y-137915714D01*
X149116666Y-117117142D02*
X149164285Y-117164761D01*
X149307142Y-117212380D01*
X149402380Y-117212380D01*
X149545238Y-117164761D01*
X149640476Y-117069523D01*
X149688095Y-116974285D01*
X149735714Y-116783809D01*
X149735714Y-116640952D01*
X149688095Y-116450476D01*
X149640476Y-116355238D01*
X149545238Y-116260000D01*
X149402380Y-116212380D01*
X149307142Y-116212380D01*
X149164285Y-116260000D01*
X149116666Y-116307619D01*
X148259523Y-116212380D02*
X148450000Y-116212380D01*
X148545238Y-116260000D01*
X148592857Y-116307619D01*
X148688095Y-116450476D01*
X148735714Y-116640952D01*
X148735714Y-117021904D01*
X148688095Y-117117142D01*
X148640476Y-117164761D01*
X148545238Y-117212380D01*
X148354761Y-117212380D01*
X148259523Y-117164761D01*
X148211904Y-117117142D01*
X148164285Y-117021904D01*
X148164285Y-116783809D01*
X148211904Y-116688571D01*
X148259523Y-116640952D01*
X148354761Y-116593333D01*
X148545238Y-116593333D01*
X148640476Y-116640952D01*
X148688095Y-116688571D01*
X148735714Y-116783809D01*
X145468095Y-123552380D02*
X145468095Y-122552380D01*
X145230000Y-122552380D01*
X145087142Y-122600000D01*
X144991904Y-122695238D01*
X144944285Y-122790476D01*
X144896666Y-122980952D01*
X144896666Y-123123809D01*
X144944285Y-123314285D01*
X144991904Y-123409523D01*
X145087142Y-123504761D01*
X145230000Y-123552380D01*
X145468095Y-123552380D01*
X143944285Y-123552380D02*
X144515714Y-123552380D01*
X144230000Y-123552380D02*
X144230000Y-122552380D01*
X144325238Y-122695238D01*
X144420476Y-122790476D01*
X144515714Y-122838095D01*
X145368095Y-125952380D02*
X145368095Y-124952380D01*
X145130000Y-124952380D01*
X144987142Y-125000000D01*
X144891904Y-125095238D01*
X144844285Y-125190476D01*
X144796666Y-125380952D01*
X144796666Y-125523809D01*
X144844285Y-125714285D01*
X144891904Y-125809523D01*
X144987142Y-125904761D01*
X145130000Y-125952380D01*
X145368095Y-125952380D01*
X144415714Y-125047619D02*
X144368095Y-125000000D01*
X144272857Y-124952380D01*
X144034761Y-124952380D01*
X143939523Y-125000000D01*
X143891904Y-125047619D01*
X143844285Y-125142857D01*
X143844285Y-125238095D01*
X143891904Y-125380952D01*
X144463333Y-125952380D01*
X143844285Y-125952380D01*
X145348095Y-121992380D02*
X145348095Y-120992380D01*
X145110000Y-120992380D01*
X144967142Y-121040000D01*
X144871904Y-121135238D01*
X144824285Y-121230476D01*
X144776666Y-121420952D01*
X144776666Y-121563809D01*
X144824285Y-121754285D01*
X144871904Y-121849523D01*
X144967142Y-121944761D01*
X145110000Y-121992380D01*
X145348095Y-121992380D01*
X144443333Y-120992380D02*
X143824285Y-120992380D01*
X144157619Y-121373333D01*
X144014761Y-121373333D01*
X143919523Y-121420952D01*
X143871904Y-121468571D01*
X143824285Y-121563809D01*
X143824285Y-121801904D01*
X143871904Y-121897142D01*
X143919523Y-121944761D01*
X144014761Y-121992380D01*
X144300476Y-121992380D01*
X144395714Y-121944761D01*
X144443333Y-121897142D01*
X147022380Y-105153333D02*
X146546190Y-104820000D01*
X147022380Y-104581904D02*
X146022380Y-104581904D01*
X146022380Y-104962857D01*
X146070000Y-105058095D01*
X146117619Y-105105714D01*
X146212857Y-105153333D01*
X146355714Y-105153333D01*
X146450952Y-105105714D01*
X146498571Y-105058095D01*
X146546190Y-104962857D01*
X146546190Y-104581904D01*
X146022380Y-106010476D02*
X146022380Y-105820000D01*
X146070000Y-105724761D01*
X146117619Y-105677142D01*
X146260476Y-105581904D01*
X146450952Y-105534285D01*
X146831904Y-105534285D01*
X146927142Y-105581904D01*
X146974761Y-105629523D01*
X147022380Y-105724761D01*
X147022380Y-105915238D01*
X146974761Y-106010476D01*
X146927142Y-106058095D01*
X146831904Y-106105714D01*
X146593809Y-106105714D01*
X146498571Y-106058095D01*
X146450952Y-106010476D01*
X146403333Y-105915238D01*
X146403333Y-105724761D01*
X146450952Y-105629523D01*
X146498571Y-105581904D01*
X146593809Y-105534285D01*
X147022380Y-108213333D02*
X146546190Y-107880000D01*
X147022380Y-107641904D02*
X146022380Y-107641904D01*
X146022380Y-108022857D01*
X146070000Y-108118095D01*
X146117619Y-108165714D01*
X146212857Y-108213333D01*
X146355714Y-108213333D01*
X146450952Y-108165714D01*
X146498571Y-108118095D01*
X146546190Y-108022857D01*
X146546190Y-107641904D01*
X146022380Y-108546666D02*
X146022380Y-109213333D01*
X147022380Y-108784761D01*
X174362380Y-109953333D02*
X173886190Y-109620000D01*
X174362380Y-109381904D02*
X173362380Y-109381904D01*
X173362380Y-109762857D01*
X173410000Y-109858095D01*
X173457619Y-109905714D01*
X173552857Y-109953333D01*
X173695714Y-109953333D01*
X173790952Y-109905714D01*
X173838571Y-109858095D01*
X173886190Y-109762857D01*
X173886190Y-109381904D01*
X173790952Y-110524761D02*
X173743333Y-110429523D01*
X173695714Y-110381904D01*
X173600476Y-110334285D01*
X173552857Y-110334285D01*
X173457619Y-110381904D01*
X173410000Y-110429523D01*
X173362380Y-110524761D01*
X173362380Y-110715238D01*
X173410000Y-110810476D01*
X173457619Y-110858095D01*
X173552857Y-110905714D01*
X173600476Y-110905714D01*
X173695714Y-110858095D01*
X173743333Y-110810476D01*
X173790952Y-110715238D01*
X173790952Y-110524761D01*
X173838571Y-110429523D01*
X173886190Y-110381904D01*
X173981428Y-110334285D01*
X174171904Y-110334285D01*
X174267142Y-110381904D01*
X174314761Y-110429523D01*
X174362380Y-110524761D01*
X174362380Y-110715238D01*
X174314761Y-110810476D01*
X174267142Y-110858095D01*
X174171904Y-110905714D01*
X173981428Y-110905714D01*
X173886190Y-110858095D01*
X173838571Y-110810476D01*
X173790952Y-110715238D01*
X178812380Y-109983333D02*
X178336190Y-109650000D01*
X178812380Y-109411904D02*
X177812380Y-109411904D01*
X177812380Y-109792857D01*
X177860000Y-109888095D01*
X177907619Y-109935714D01*
X178002857Y-109983333D01*
X178145714Y-109983333D01*
X178240952Y-109935714D01*
X178288571Y-109888095D01*
X178336190Y-109792857D01*
X178336190Y-109411904D01*
X178812380Y-110459523D02*
X178812380Y-110650000D01*
X178764761Y-110745238D01*
X178717142Y-110792857D01*
X178574285Y-110888095D01*
X178383809Y-110935714D01*
X178002857Y-110935714D01*
X177907619Y-110888095D01*
X177860000Y-110840476D01*
X177812380Y-110745238D01*
X177812380Y-110554761D01*
X177860000Y-110459523D01*
X177907619Y-110411904D01*
X178002857Y-110364285D01*
X178240952Y-110364285D01*
X178336190Y-110411904D01*
X178383809Y-110459523D01*
X178431428Y-110554761D01*
X178431428Y-110745238D01*
X178383809Y-110840476D01*
X178336190Y-110888095D01*
X178240952Y-110935714D01*
X172611904Y-117972380D02*
X172611904Y-118781904D01*
X172564285Y-118877142D01*
X172516666Y-118924761D01*
X172421428Y-118972380D01*
X172230952Y-118972380D01*
X172135714Y-118924761D01*
X172088095Y-118877142D01*
X172040476Y-118781904D01*
X172040476Y-117972380D01*
X171135714Y-118305714D02*
X171135714Y-118972380D01*
X171373809Y-117924761D02*
X171611904Y-118639047D01*
X170992857Y-118639047D01*
X174127142Y-118857142D02*
X174174761Y-118809523D01*
X174222380Y-118666666D01*
X174222380Y-118571428D01*
X174174761Y-118428571D01*
X174079523Y-118333333D01*
X173984285Y-118285714D01*
X173793809Y-118238095D01*
X173650952Y-118238095D01*
X173460476Y-118285714D01*
X173365238Y-118333333D01*
X173270000Y-118428571D01*
X173222380Y-118571428D01*
X173222380Y-118666666D01*
X173270000Y-118809523D01*
X173317619Y-118857142D01*
X174222380Y-119809523D02*
X174222380Y-119238095D01*
X174222380Y-119523809D02*
X173222380Y-119523809D01*
X173365238Y-119428571D01*
X173460476Y-119333333D01*
X173508095Y-119238095D01*
X174222380Y-120285714D02*
X174222380Y-120476190D01*
X174174761Y-120571428D01*
X174127142Y-120619047D01*
X173984285Y-120714285D01*
X173793809Y-120761904D01*
X173412857Y-120761904D01*
X173317619Y-120714285D01*
X173270000Y-120666666D01*
X173222380Y-120571428D01*
X173222380Y-120380952D01*
X173270000Y-120285714D01*
X173317619Y-120238095D01*
X173412857Y-120190476D01*
X173650952Y-120190476D01*
X173746190Y-120238095D01*
X173793809Y-120285714D01*
X173841428Y-120380952D01*
X173841428Y-120571428D01*
X173793809Y-120666666D01*
X173746190Y-120714285D01*
X173650952Y-120761904D01*
X173552380Y-102961904D02*
X172552380Y-102961904D01*
X172552380Y-103200000D01*
X172600000Y-103342857D01*
X172695238Y-103438095D01*
X172790476Y-103485714D01*
X172980952Y-103533333D01*
X173123809Y-103533333D01*
X173314285Y-103485714D01*
X173409523Y-103438095D01*
X173504761Y-103342857D01*
X173552380Y-103200000D01*
X173552380Y-102961904D01*
X172885714Y-104390476D02*
X173552380Y-104390476D01*
X172504761Y-104152380D02*
X173219047Y-103914285D01*
X173219047Y-104533333D01*
X174852380Y-102961904D02*
X173852380Y-102961904D01*
X173852380Y-103200000D01*
X173900000Y-103342857D01*
X173995238Y-103438095D01*
X174090476Y-103485714D01*
X174280952Y-103533333D01*
X174423809Y-103533333D01*
X174614285Y-103485714D01*
X174709523Y-103438095D01*
X174804761Y-103342857D01*
X174852380Y-103200000D01*
X174852380Y-102961904D01*
X173852380Y-104438095D02*
X173852380Y-103961904D01*
X174328571Y-103914285D01*
X174280952Y-103961904D01*
X174233333Y-104057142D01*
X174233333Y-104295238D01*
X174280952Y-104390476D01*
X174328571Y-104438095D01*
X174423809Y-104485714D01*
X174661904Y-104485714D01*
X174757142Y-104438095D01*
X174804761Y-104390476D01*
X174852380Y-104295238D01*
X174852380Y-104057142D01*
X174804761Y-103961904D01*
X174757142Y-103914285D01*
X151932857Y-111687142D02*
X151980476Y-111734761D01*
X152123333Y-111782380D01*
X152218571Y-111782380D01*
X152361428Y-111734761D01*
X152456666Y-111639523D01*
X152504285Y-111544285D01*
X152551904Y-111353809D01*
X152551904Y-111210952D01*
X152504285Y-111020476D01*
X152456666Y-110925238D01*
X152361428Y-110830000D01*
X152218571Y-110782380D01*
X152123333Y-110782380D01*
X151980476Y-110830000D01*
X151932857Y-110877619D01*
X151551904Y-110877619D02*
X151504285Y-110830000D01*
X151409047Y-110782380D01*
X151170952Y-110782380D01*
X151075714Y-110830000D01*
X151028095Y-110877619D01*
X150980476Y-110972857D01*
X150980476Y-111068095D01*
X151028095Y-111210952D01*
X151599523Y-111782380D01*
X150980476Y-111782380D01*
X150028095Y-111782380D02*
X150599523Y-111782380D01*
X150313809Y-111782380D02*
X150313809Y-110782380D01*
X150409047Y-110925238D01*
X150504285Y-111020476D01*
X150599523Y-111068095D01*
M02*
