G04 #@! TF.GenerationSoftware,KiCad,Pcbnew,5.1.4-1.fc30*
G04 #@! TF.CreationDate,2020-04-06T19:00:12+02:00*
G04 #@! TF.ProjectId,venom,76656e6f-6d2e-46b6-9963-61645f706362,rev?*
G04 #@! TF.SameCoordinates,Original*
G04 #@! TF.FileFunction,Legend,Top*
G04 #@! TF.FilePolarity,Positive*
%FSLAX46Y46*%
G04 Gerber Fmt 4.6, Leading zero omitted, Abs format (unit mm)*
G04 Created by KiCad (PCBNEW 5.1.4-1.fc30) date 2020-04-06 19:00:12*
%MOMM*%
%LPD*%
G04 APERTURE LIST*
%ADD10C,0.220000*%
%ADD11C,0.120000*%
%ADD12C,0.100000*%
%ADD13C,0.150000*%
G04 APERTURE END LIST*
D10*
X149728095Y-99482857D02*
X151251904Y-99482857D01*
X153418095Y-99452857D02*
X154941904Y-99452857D01*
X154180000Y-100214761D02*
X154180000Y-98690952D01*
D11*
X153350000Y-130410000D02*
X151860000Y-130410000D01*
X165670000Y-130410000D02*
X167160000Y-130410000D01*
X151860000Y-134470000D02*
X151860000Y-136210000D01*
X151860000Y-136210000D02*
X167160000Y-136210000D01*
X167160000Y-136210000D02*
X167160000Y-134470000D01*
X153350000Y-130410000D02*
X153350000Y-129210000D01*
X139482853Y-127649840D02*
X139945353Y-128450914D01*
X142687147Y-125799840D02*
X145037147Y-129870160D01*
X143723157Y-130744262D02*
X143246843Y-131019262D01*
X141273157Y-126500738D02*
X140796843Y-126775738D01*
X141370353Y-130919086D02*
X141832853Y-131720160D01*
X153692064Y-103400000D02*
X150887936Y-103400000D01*
X153692064Y-100680000D02*
X150887936Y-100680000D01*
X168712779Y-99340000D02*
X168387221Y-99340000D01*
X168712779Y-100360000D02*
X168387221Y-100360000D01*
X164450000Y-101412779D02*
X164450000Y-101087221D01*
X165470000Y-101412779D02*
X165470000Y-101087221D01*
X171257221Y-109930000D02*
X171582779Y-109930000D01*
X171257221Y-110950000D02*
X171582779Y-110950000D01*
X171277221Y-109060000D02*
X171602779Y-109060000D01*
X171277221Y-108040000D02*
X171602779Y-108040000D01*
X172967221Y-118790000D02*
X173292779Y-118790000D01*
X172967221Y-117770000D02*
X173292779Y-117770000D01*
X164630000Y-126762779D02*
X164630000Y-126437221D01*
X165650000Y-126762779D02*
X165650000Y-126437221D01*
X162720000Y-126742779D02*
X162720000Y-126417221D01*
X163740000Y-126742779D02*
X163740000Y-126417221D01*
X158830000Y-123942779D02*
X158830000Y-123617221D01*
X157810000Y-123942779D02*
X157810000Y-123617221D01*
X157320000Y-123942779D02*
X157320000Y-123617221D01*
X156300000Y-123942779D02*
X156300000Y-123617221D01*
X154790000Y-123942779D02*
X154790000Y-123617221D01*
X155810000Y-123942779D02*
X155810000Y-123617221D01*
X153280000Y-123932779D02*
X153280000Y-123607221D01*
X154300000Y-123932779D02*
X154300000Y-123607221D01*
X152790000Y-123932779D02*
X152790000Y-123607221D01*
X151770000Y-123932779D02*
X151770000Y-123607221D01*
X150260000Y-123932779D02*
X150260000Y-123607221D01*
X151280000Y-123932779D02*
X151280000Y-123607221D01*
X149770000Y-123932779D02*
X149770000Y-123607221D01*
X148750000Y-123932779D02*
X148750000Y-123607221D01*
X148260000Y-123932779D02*
X148260000Y-123607221D01*
X147240000Y-123932779D02*
X147240000Y-123607221D01*
X155060000Y-105967221D02*
X155060000Y-106292779D01*
X156080000Y-105967221D02*
X156080000Y-106292779D01*
X161880000Y-106612779D02*
X161880000Y-106287221D01*
X162900000Y-106612779D02*
X162900000Y-106287221D01*
X173460000Y-131120000D02*
X173460000Y-130190000D01*
X173460000Y-127960000D02*
X173460000Y-128890000D01*
X173460000Y-127960000D02*
X171300000Y-127960000D01*
X173460000Y-131120000D02*
X172000000Y-131120000D01*
X153590000Y-108439721D02*
X153590000Y-108765279D01*
X152570000Y-108439721D02*
X152570000Y-108765279D01*
X168992779Y-105860000D02*
X168667221Y-105860000D01*
X168992779Y-106880000D02*
X168667221Y-106880000D01*
X165280000Y-105102779D02*
X165280000Y-104777221D01*
X166300000Y-105102779D02*
X166300000Y-104777221D01*
X170360000Y-131537221D02*
X170360000Y-131862779D01*
X169340000Y-131537221D02*
X169340000Y-131862779D01*
X172317221Y-133010000D02*
X172642779Y-133010000D01*
X172317221Y-131990000D02*
X172642779Y-131990000D01*
X141872853Y-105739840D02*
X141410353Y-106540914D01*
X145077147Y-107589840D02*
X142727147Y-111660160D01*
X141313157Y-110959262D02*
X140836843Y-110684262D01*
X143763157Y-106715738D02*
X143286843Y-106440738D01*
X139985353Y-109009086D02*
X139522853Y-109810160D01*
X137760000Y-120205000D02*
X137760000Y-121130000D01*
X139885000Y-116330000D02*
X139335000Y-116330000D01*
X139885000Y-121230000D02*
X139335000Y-121230000D01*
X141460000Y-116430000D02*
X141460000Y-121130000D01*
X137760000Y-116430000D02*
X137760000Y-117355000D01*
D12*
X170370000Y-102120000D02*
X170220000Y-102120000D01*
X170370000Y-102130000D02*
X170370000Y-102280000D01*
X167670000Y-102130000D02*
X167670000Y-102280000D01*
X167670000Y-102130000D02*
X167820000Y-102130000D01*
X167820000Y-104830000D02*
X167670000Y-104830000D01*
X167670000Y-104830000D02*
X167670000Y-104680000D01*
X170370000Y-104680000D02*
X170370000Y-104930000D01*
D11*
X158510000Y-108390000D02*
X160310000Y-108390000D01*
X160310000Y-105170000D02*
X157860000Y-105170000D01*
X168270000Y-109758578D02*
X168270000Y-109241422D01*
X169690000Y-109758578D02*
X169690000Y-109241422D01*
X176960000Y-114970000D02*
X176960000Y-115350000D01*
X181010000Y-114970000D02*
X181270000Y-114970000D01*
X176960000Y-114970000D02*
X178730000Y-114970000D01*
X176960000Y-122590000D02*
X176960000Y-122210000D01*
X178730000Y-122590000D02*
X176960000Y-122590000D01*
X181270000Y-122590000D02*
X181010000Y-122590000D01*
X173612779Y-120940000D02*
X173287221Y-120940000D01*
X173612779Y-121960000D02*
X173287221Y-121960000D01*
X152512779Y-117160000D02*
X152187221Y-117160000D01*
X152512779Y-116140000D02*
X152187221Y-116140000D01*
X157100000Y-118250000D02*
X157100000Y-118550000D01*
X157100000Y-118550000D02*
X157400000Y-118550000D01*
X157100000Y-111630000D02*
X157100000Y-111330000D01*
X157100000Y-111330000D02*
X157400000Y-111330000D01*
X164320000Y-118250000D02*
X164320000Y-118550000D01*
X164320000Y-118550000D02*
X164020000Y-118550000D01*
X164320000Y-111630000D02*
X164320000Y-111330000D01*
X164320000Y-111330000D02*
X164020000Y-111330000D01*
X164020000Y-111330000D02*
X164020000Y-110015000D01*
X176537221Y-113960000D02*
X176862779Y-113960000D01*
X176537221Y-112940000D02*
X176862779Y-112940000D01*
X146500000Y-106432779D02*
X146500000Y-106107221D01*
X147520000Y-106432779D02*
X147520000Y-106107221D01*
X146252779Y-117710000D02*
X145927221Y-117710000D01*
X146252779Y-118730000D02*
X145927221Y-118730000D01*
X144600000Y-124107221D02*
X144600000Y-124432779D01*
X143580000Y-124107221D02*
X143580000Y-124432779D01*
X149442779Y-107530000D02*
X149117221Y-107530000D01*
X149442779Y-106510000D02*
X149117221Y-106510000D01*
X149930000Y-119162779D02*
X149930000Y-118837221D01*
X148910000Y-119162779D02*
X148910000Y-118837221D01*
X146252779Y-120540000D02*
X145927221Y-120540000D01*
X146252779Y-119520000D02*
X145927221Y-119520000D01*
X168847936Y-124240000D02*
X170052064Y-124240000D01*
X168847936Y-126060000D02*
X170052064Y-126060000D01*
D13*
X159176666Y-127462380D02*
X159176666Y-128176666D01*
X159129047Y-128319523D01*
X159033809Y-128414761D01*
X158890952Y-128462380D01*
X158795714Y-128462380D01*
X160176666Y-128462380D02*
X159605238Y-128462380D01*
X159890952Y-128462380D02*
X159890952Y-127462380D01*
X159795714Y-127605238D01*
X159700476Y-127700476D01*
X159605238Y-127748095D01*
X144142799Y-127127680D02*
X144172988Y-127275207D01*
X144292036Y-127481404D01*
X144380894Y-127540073D01*
X144445943Y-127557503D01*
X144552231Y-127551123D01*
X144634710Y-127503504D01*
X144693379Y-127414646D01*
X144710808Y-127349597D01*
X144704429Y-127243309D01*
X144650430Y-127054542D01*
X144644050Y-126948254D01*
X144661480Y-126883205D01*
X144720149Y-126794347D01*
X144802628Y-126746728D01*
X144908916Y-126740348D01*
X144973965Y-126757778D01*
X145062823Y-126816447D01*
X145181871Y-127022643D01*
X145212060Y-127170171D01*
X145419966Y-127435036D02*
X144672988Y-128141233D01*
X145386816Y-127949047D01*
X144863464Y-128471147D01*
X145848537Y-128177344D01*
X145991394Y-128424780D02*
X146300918Y-128960891D01*
X145804337Y-128862692D01*
X145875766Y-128986409D01*
X145882145Y-129092698D01*
X145864716Y-129157746D01*
X145806047Y-129246605D01*
X145599850Y-129365652D01*
X145493562Y-129372032D01*
X145428513Y-129354602D01*
X145339655Y-129295933D01*
X145196798Y-129048497D01*
X145190418Y-128942209D01*
X145207848Y-128877161D01*
X151504285Y-104248571D02*
X151647142Y-104296190D01*
X151694761Y-104343809D01*
X151742380Y-104439047D01*
X151742380Y-104581904D01*
X151694761Y-104677142D01*
X151647142Y-104724761D01*
X151551904Y-104772380D01*
X151170952Y-104772380D01*
X151170952Y-103772380D01*
X151504285Y-103772380D01*
X151599523Y-103820000D01*
X151647142Y-103867619D01*
X151694761Y-103962857D01*
X151694761Y-104058095D01*
X151647142Y-104153333D01*
X151599523Y-104200952D01*
X151504285Y-104248571D01*
X151170952Y-104248571D01*
X152028095Y-103772380D02*
X152599523Y-103772380D01*
X152313809Y-104772380D02*
X152313809Y-103772380D01*
X153456666Y-104772380D02*
X152885238Y-104772380D01*
X153170952Y-104772380D02*
X153170952Y-103772380D01*
X153075714Y-103915238D01*
X152980476Y-104010476D01*
X152885238Y-104058095D01*
X166533333Y-101507142D02*
X166485714Y-101554761D01*
X166342857Y-101602380D01*
X166247619Y-101602380D01*
X166104761Y-101554761D01*
X166009523Y-101459523D01*
X165961904Y-101364285D01*
X165914285Y-101173809D01*
X165914285Y-101030952D01*
X165961904Y-100840476D01*
X166009523Y-100745238D01*
X166104761Y-100650000D01*
X166247619Y-100602380D01*
X166342857Y-100602380D01*
X166485714Y-100650000D01*
X166533333Y-100697619D01*
X167485714Y-101602380D02*
X166914285Y-101602380D01*
X167200000Y-101602380D02*
X167200000Y-100602380D01*
X167104761Y-100745238D01*
X167009523Y-100840476D01*
X166914285Y-100888095D01*
X163887142Y-101416666D02*
X163934761Y-101464285D01*
X163982380Y-101607142D01*
X163982380Y-101702380D01*
X163934761Y-101845238D01*
X163839523Y-101940476D01*
X163744285Y-101988095D01*
X163553809Y-102035714D01*
X163410952Y-102035714D01*
X163220476Y-101988095D01*
X163125238Y-101940476D01*
X163030000Y-101845238D01*
X162982380Y-101702380D01*
X162982380Y-101607142D01*
X163030000Y-101464285D01*
X163077619Y-101416666D01*
X163077619Y-101035714D02*
X163030000Y-100988095D01*
X162982380Y-100892857D01*
X162982380Y-100654761D01*
X163030000Y-100559523D01*
X163077619Y-100511904D01*
X163172857Y-100464285D01*
X163268095Y-100464285D01*
X163410952Y-100511904D01*
X163982380Y-101083333D01*
X163982380Y-100464285D01*
X171283333Y-112307142D02*
X171235714Y-112354761D01*
X171092857Y-112402380D01*
X170997619Y-112402380D01*
X170854761Y-112354761D01*
X170759523Y-112259523D01*
X170711904Y-112164285D01*
X170664285Y-111973809D01*
X170664285Y-111830952D01*
X170711904Y-111640476D01*
X170759523Y-111545238D01*
X170854761Y-111450000D01*
X170997619Y-111402380D01*
X171092857Y-111402380D01*
X171235714Y-111450000D01*
X171283333Y-111497619D01*
X171616666Y-111402380D02*
X172235714Y-111402380D01*
X171902380Y-111783333D01*
X172045238Y-111783333D01*
X172140476Y-111830952D01*
X172188095Y-111878571D01*
X172235714Y-111973809D01*
X172235714Y-112211904D01*
X172188095Y-112307142D01*
X172140476Y-112354761D01*
X172045238Y-112402380D01*
X171759523Y-112402380D01*
X171664285Y-112354761D01*
X171616666Y-112307142D01*
X171273333Y-107477142D02*
X171225714Y-107524761D01*
X171082857Y-107572380D01*
X170987619Y-107572380D01*
X170844761Y-107524761D01*
X170749523Y-107429523D01*
X170701904Y-107334285D01*
X170654285Y-107143809D01*
X170654285Y-107000952D01*
X170701904Y-106810476D01*
X170749523Y-106715238D01*
X170844761Y-106620000D01*
X170987619Y-106572380D01*
X171082857Y-106572380D01*
X171225714Y-106620000D01*
X171273333Y-106667619D01*
X172130476Y-106905714D02*
X172130476Y-107572380D01*
X171892380Y-106524761D02*
X171654285Y-107239047D01*
X172273333Y-107239047D01*
X172963333Y-117207142D02*
X172915714Y-117254761D01*
X172772857Y-117302380D01*
X172677619Y-117302380D01*
X172534761Y-117254761D01*
X172439523Y-117159523D01*
X172391904Y-117064285D01*
X172344285Y-116873809D01*
X172344285Y-116730952D01*
X172391904Y-116540476D01*
X172439523Y-116445238D01*
X172534761Y-116350000D01*
X172677619Y-116302380D01*
X172772857Y-116302380D01*
X172915714Y-116350000D01*
X172963333Y-116397619D01*
X173868095Y-116302380D02*
X173391904Y-116302380D01*
X173344285Y-116778571D01*
X173391904Y-116730952D01*
X173487142Y-116683333D01*
X173725238Y-116683333D01*
X173820476Y-116730952D01*
X173868095Y-116778571D01*
X173915714Y-116873809D01*
X173915714Y-117111904D01*
X173868095Y-117207142D01*
X173820476Y-117254761D01*
X173725238Y-117302380D01*
X173487142Y-117302380D01*
X173391904Y-117254761D01*
X173344285Y-117207142D01*
X165567142Y-124066666D02*
X165614761Y-124114285D01*
X165662380Y-124257142D01*
X165662380Y-124352380D01*
X165614761Y-124495238D01*
X165519523Y-124590476D01*
X165424285Y-124638095D01*
X165233809Y-124685714D01*
X165090952Y-124685714D01*
X164900476Y-124638095D01*
X164805238Y-124590476D01*
X164710000Y-124495238D01*
X164662380Y-124352380D01*
X164662380Y-124257142D01*
X164710000Y-124114285D01*
X164757619Y-124066666D01*
X164662380Y-123733333D02*
X164662380Y-123066666D01*
X165662380Y-123495238D01*
X163447142Y-123966666D02*
X163494761Y-124014285D01*
X163542380Y-124157142D01*
X163542380Y-124252380D01*
X163494761Y-124395238D01*
X163399523Y-124490476D01*
X163304285Y-124538095D01*
X163113809Y-124585714D01*
X162970952Y-124585714D01*
X162780476Y-124538095D01*
X162685238Y-124490476D01*
X162590000Y-124395238D01*
X162542380Y-124252380D01*
X162542380Y-124157142D01*
X162590000Y-124014285D01*
X162637619Y-123966666D01*
X162970952Y-123395238D02*
X162923333Y-123490476D01*
X162875714Y-123538095D01*
X162780476Y-123585714D01*
X162732857Y-123585714D01*
X162637619Y-123538095D01*
X162590000Y-123490476D01*
X162542380Y-123395238D01*
X162542380Y-123204761D01*
X162590000Y-123109523D01*
X162637619Y-123061904D01*
X162732857Y-123014285D01*
X162780476Y-123014285D01*
X162875714Y-123061904D01*
X162923333Y-123109523D01*
X162970952Y-123204761D01*
X162970952Y-123395238D01*
X163018571Y-123490476D01*
X163066190Y-123538095D01*
X163161428Y-123585714D01*
X163351904Y-123585714D01*
X163447142Y-123538095D01*
X163494761Y-123490476D01*
X163542380Y-123395238D01*
X163542380Y-123204761D01*
X163494761Y-123109523D01*
X163447142Y-123061904D01*
X163351904Y-123014285D01*
X163161428Y-123014285D01*
X163066190Y-123061904D01*
X163018571Y-123109523D01*
X162970952Y-123204761D01*
X158637142Y-121256666D02*
X158684761Y-121304285D01*
X158732380Y-121447142D01*
X158732380Y-121542380D01*
X158684761Y-121685238D01*
X158589523Y-121780476D01*
X158494285Y-121828095D01*
X158303809Y-121875714D01*
X158160952Y-121875714D01*
X157970476Y-121828095D01*
X157875238Y-121780476D01*
X157780000Y-121685238D01*
X157732380Y-121542380D01*
X157732380Y-121447142D01*
X157780000Y-121304285D01*
X157827619Y-121256666D01*
X158732380Y-120780476D02*
X158732380Y-120590000D01*
X158684761Y-120494761D01*
X158637142Y-120447142D01*
X158494285Y-120351904D01*
X158303809Y-120304285D01*
X157922857Y-120304285D01*
X157827619Y-120351904D01*
X157780000Y-120399523D01*
X157732380Y-120494761D01*
X157732380Y-120685238D01*
X157780000Y-120780476D01*
X157827619Y-120828095D01*
X157922857Y-120875714D01*
X158160952Y-120875714D01*
X158256190Y-120828095D01*
X158303809Y-120780476D01*
X158351428Y-120685238D01*
X158351428Y-120494761D01*
X158303809Y-120399523D01*
X158256190Y-120351904D01*
X158160952Y-120304285D01*
X157167142Y-121272857D02*
X157214761Y-121320476D01*
X157262380Y-121463333D01*
X157262380Y-121558571D01*
X157214761Y-121701428D01*
X157119523Y-121796666D01*
X157024285Y-121844285D01*
X156833809Y-121891904D01*
X156690952Y-121891904D01*
X156500476Y-121844285D01*
X156405238Y-121796666D01*
X156310000Y-121701428D01*
X156262380Y-121558571D01*
X156262380Y-121463333D01*
X156310000Y-121320476D01*
X156357619Y-121272857D01*
X157262380Y-120320476D02*
X157262380Y-120891904D01*
X157262380Y-120606190D02*
X156262380Y-120606190D01*
X156405238Y-120701428D01*
X156500476Y-120796666D01*
X156548095Y-120891904D01*
X156262380Y-119701428D02*
X156262380Y-119606190D01*
X156310000Y-119510952D01*
X156357619Y-119463333D01*
X156452857Y-119415714D01*
X156643333Y-119368095D01*
X156881428Y-119368095D01*
X157071904Y-119415714D01*
X157167142Y-119463333D01*
X157214761Y-119510952D01*
X157262380Y-119606190D01*
X157262380Y-119701428D01*
X157214761Y-119796666D01*
X157167142Y-119844285D01*
X157071904Y-119891904D01*
X156881428Y-119939523D01*
X156643333Y-119939523D01*
X156452857Y-119891904D01*
X156357619Y-119844285D01*
X156310000Y-119796666D01*
X156262380Y-119701428D01*
X155677142Y-121272857D02*
X155724761Y-121320476D01*
X155772380Y-121463333D01*
X155772380Y-121558571D01*
X155724761Y-121701428D01*
X155629523Y-121796666D01*
X155534285Y-121844285D01*
X155343809Y-121891904D01*
X155200952Y-121891904D01*
X155010476Y-121844285D01*
X154915238Y-121796666D01*
X154820000Y-121701428D01*
X154772380Y-121558571D01*
X154772380Y-121463333D01*
X154820000Y-121320476D01*
X154867619Y-121272857D01*
X155772380Y-120320476D02*
X155772380Y-120891904D01*
X155772380Y-120606190D02*
X154772380Y-120606190D01*
X154915238Y-120701428D01*
X155010476Y-120796666D01*
X155058095Y-120891904D01*
X155772380Y-119368095D02*
X155772380Y-119939523D01*
X155772380Y-119653809D02*
X154772380Y-119653809D01*
X154915238Y-119749047D01*
X155010476Y-119844285D01*
X155058095Y-119939523D01*
X154167142Y-121302857D02*
X154214761Y-121350476D01*
X154262380Y-121493333D01*
X154262380Y-121588571D01*
X154214761Y-121731428D01*
X154119523Y-121826666D01*
X154024285Y-121874285D01*
X153833809Y-121921904D01*
X153690952Y-121921904D01*
X153500476Y-121874285D01*
X153405238Y-121826666D01*
X153310000Y-121731428D01*
X153262380Y-121588571D01*
X153262380Y-121493333D01*
X153310000Y-121350476D01*
X153357619Y-121302857D01*
X154262380Y-120350476D02*
X154262380Y-120921904D01*
X154262380Y-120636190D02*
X153262380Y-120636190D01*
X153405238Y-120731428D01*
X153500476Y-120826666D01*
X153548095Y-120921904D01*
X153357619Y-119969523D02*
X153310000Y-119921904D01*
X153262380Y-119826666D01*
X153262380Y-119588571D01*
X153310000Y-119493333D01*
X153357619Y-119445714D01*
X153452857Y-119398095D01*
X153548095Y-119398095D01*
X153690952Y-119445714D01*
X154262380Y-120017142D01*
X154262380Y-119398095D01*
X152637142Y-121372857D02*
X152684761Y-121420476D01*
X152732380Y-121563333D01*
X152732380Y-121658571D01*
X152684761Y-121801428D01*
X152589523Y-121896666D01*
X152494285Y-121944285D01*
X152303809Y-121991904D01*
X152160952Y-121991904D01*
X151970476Y-121944285D01*
X151875238Y-121896666D01*
X151780000Y-121801428D01*
X151732380Y-121658571D01*
X151732380Y-121563333D01*
X151780000Y-121420476D01*
X151827619Y-121372857D01*
X152732380Y-120420476D02*
X152732380Y-120991904D01*
X152732380Y-120706190D02*
X151732380Y-120706190D01*
X151875238Y-120801428D01*
X151970476Y-120896666D01*
X152018095Y-120991904D01*
X151732380Y-120087142D02*
X151732380Y-119468095D01*
X152113333Y-119801428D01*
X152113333Y-119658571D01*
X152160952Y-119563333D01*
X152208571Y-119515714D01*
X152303809Y-119468095D01*
X152541904Y-119468095D01*
X152637142Y-119515714D01*
X152684761Y-119563333D01*
X152732380Y-119658571D01*
X152732380Y-119944285D01*
X152684761Y-120039523D01*
X152637142Y-120087142D01*
X151097142Y-121382857D02*
X151144761Y-121430476D01*
X151192380Y-121573333D01*
X151192380Y-121668571D01*
X151144761Y-121811428D01*
X151049523Y-121906666D01*
X150954285Y-121954285D01*
X150763809Y-122001904D01*
X150620952Y-122001904D01*
X150430476Y-121954285D01*
X150335238Y-121906666D01*
X150240000Y-121811428D01*
X150192380Y-121668571D01*
X150192380Y-121573333D01*
X150240000Y-121430476D01*
X150287619Y-121382857D01*
X151192380Y-120430476D02*
X151192380Y-121001904D01*
X151192380Y-120716190D02*
X150192380Y-120716190D01*
X150335238Y-120811428D01*
X150430476Y-120906666D01*
X150478095Y-121001904D01*
X150525714Y-119573333D02*
X151192380Y-119573333D01*
X150144761Y-119811428D02*
X150859047Y-120049523D01*
X150859047Y-119430476D01*
X149407142Y-127452857D02*
X149454761Y-127500476D01*
X149502380Y-127643333D01*
X149502380Y-127738571D01*
X149454761Y-127881428D01*
X149359523Y-127976666D01*
X149264285Y-128024285D01*
X149073809Y-128071904D01*
X148930952Y-128071904D01*
X148740476Y-128024285D01*
X148645238Y-127976666D01*
X148550000Y-127881428D01*
X148502380Y-127738571D01*
X148502380Y-127643333D01*
X148550000Y-127500476D01*
X148597619Y-127452857D01*
X149502380Y-126500476D02*
X149502380Y-127071904D01*
X149502380Y-126786190D02*
X148502380Y-126786190D01*
X148645238Y-126881428D01*
X148740476Y-126976666D01*
X148788095Y-127071904D01*
X148502380Y-125595714D02*
X148502380Y-126071904D01*
X148978571Y-126119523D01*
X148930952Y-126071904D01*
X148883333Y-125976666D01*
X148883333Y-125738571D01*
X148930952Y-125643333D01*
X148978571Y-125595714D01*
X149073809Y-125548095D01*
X149311904Y-125548095D01*
X149407142Y-125595714D01*
X149454761Y-125643333D01*
X149502380Y-125738571D01*
X149502380Y-125976666D01*
X149454761Y-126071904D01*
X149407142Y-126119523D01*
X147777142Y-127552857D02*
X147824761Y-127600476D01*
X147872380Y-127743333D01*
X147872380Y-127838571D01*
X147824761Y-127981428D01*
X147729523Y-128076666D01*
X147634285Y-128124285D01*
X147443809Y-128171904D01*
X147300952Y-128171904D01*
X147110476Y-128124285D01*
X147015238Y-128076666D01*
X146920000Y-127981428D01*
X146872380Y-127838571D01*
X146872380Y-127743333D01*
X146920000Y-127600476D01*
X146967619Y-127552857D01*
X147872380Y-126600476D02*
X147872380Y-127171904D01*
X147872380Y-126886190D02*
X146872380Y-126886190D01*
X147015238Y-126981428D01*
X147110476Y-127076666D01*
X147158095Y-127171904D01*
X146872380Y-125743333D02*
X146872380Y-125933809D01*
X146920000Y-126029047D01*
X146967619Y-126076666D01*
X147110476Y-126171904D01*
X147300952Y-126219523D01*
X147681904Y-126219523D01*
X147777142Y-126171904D01*
X147824761Y-126124285D01*
X147872380Y-126029047D01*
X147872380Y-125838571D01*
X147824761Y-125743333D01*
X147777142Y-125695714D01*
X147681904Y-125648095D01*
X147443809Y-125648095D01*
X147348571Y-125695714D01*
X147300952Y-125743333D01*
X147253333Y-125838571D01*
X147253333Y-126029047D01*
X147300952Y-126124285D01*
X147348571Y-126171904D01*
X147443809Y-126219523D01*
X155947142Y-109792857D02*
X155994761Y-109840476D01*
X156042380Y-109983333D01*
X156042380Y-110078571D01*
X155994761Y-110221428D01*
X155899523Y-110316666D01*
X155804285Y-110364285D01*
X155613809Y-110411904D01*
X155470952Y-110411904D01*
X155280476Y-110364285D01*
X155185238Y-110316666D01*
X155090000Y-110221428D01*
X155042380Y-110078571D01*
X155042380Y-109983333D01*
X155090000Y-109840476D01*
X155137619Y-109792857D01*
X156042380Y-108840476D02*
X156042380Y-109411904D01*
X156042380Y-109126190D02*
X155042380Y-109126190D01*
X155185238Y-109221428D01*
X155280476Y-109316666D01*
X155328095Y-109411904D01*
X155042380Y-108507142D02*
X155042380Y-107840476D01*
X156042380Y-108269047D01*
X162727142Y-104062857D02*
X162774761Y-104110476D01*
X162822380Y-104253333D01*
X162822380Y-104348571D01*
X162774761Y-104491428D01*
X162679523Y-104586666D01*
X162584285Y-104634285D01*
X162393809Y-104681904D01*
X162250952Y-104681904D01*
X162060476Y-104634285D01*
X161965238Y-104586666D01*
X161870000Y-104491428D01*
X161822380Y-104348571D01*
X161822380Y-104253333D01*
X161870000Y-104110476D01*
X161917619Y-104062857D01*
X162822380Y-103110476D02*
X162822380Y-103681904D01*
X162822380Y-103396190D02*
X161822380Y-103396190D01*
X161965238Y-103491428D01*
X162060476Y-103586666D01*
X162108095Y-103681904D01*
X162250952Y-102539047D02*
X162203333Y-102634285D01*
X162155714Y-102681904D01*
X162060476Y-102729523D01*
X162012857Y-102729523D01*
X161917619Y-102681904D01*
X161870000Y-102634285D01*
X161822380Y-102539047D01*
X161822380Y-102348571D01*
X161870000Y-102253333D01*
X161917619Y-102205714D01*
X162012857Y-102158095D01*
X162060476Y-102158095D01*
X162155714Y-102205714D01*
X162203333Y-102253333D01*
X162250952Y-102348571D01*
X162250952Y-102539047D01*
X162298571Y-102634285D01*
X162346190Y-102681904D01*
X162441428Y-102729523D01*
X162631904Y-102729523D01*
X162727142Y-102681904D01*
X162774761Y-102634285D01*
X162822380Y-102539047D01*
X162822380Y-102348571D01*
X162774761Y-102253333D01*
X162727142Y-102205714D01*
X162631904Y-102158095D01*
X162441428Y-102158095D01*
X162346190Y-102205714D01*
X162298571Y-102253333D01*
X162250952Y-102348571D01*
X175774761Y-129237619D02*
X175679523Y-129190000D01*
X175584285Y-129094761D01*
X175441428Y-128951904D01*
X175346190Y-128904285D01*
X175250952Y-128904285D01*
X175298571Y-129142380D02*
X175203333Y-129094761D01*
X175108095Y-128999523D01*
X175060476Y-128809047D01*
X175060476Y-128475714D01*
X175108095Y-128285238D01*
X175203333Y-128190000D01*
X175298571Y-128142380D01*
X175489047Y-128142380D01*
X175584285Y-128190000D01*
X175679523Y-128285238D01*
X175727142Y-128475714D01*
X175727142Y-128809047D01*
X175679523Y-128999523D01*
X175584285Y-129094761D01*
X175489047Y-129142380D01*
X175298571Y-129142380D01*
X176679523Y-129142380D02*
X176108095Y-129142380D01*
X176393809Y-129142380D02*
X176393809Y-128142380D01*
X176298571Y-128285238D01*
X176203333Y-128380476D01*
X176108095Y-128428095D01*
X152022380Y-108306666D02*
X151546190Y-108640000D01*
X152022380Y-108878095D02*
X151022380Y-108878095D01*
X151022380Y-108497142D01*
X151070000Y-108401904D01*
X151117619Y-108354285D01*
X151212857Y-108306666D01*
X151355714Y-108306666D01*
X151450952Y-108354285D01*
X151498571Y-108401904D01*
X151546190Y-108497142D01*
X151546190Y-108878095D01*
X152022380Y-107354285D02*
X152022380Y-107925714D01*
X152022380Y-107640000D02*
X151022380Y-107640000D01*
X151165238Y-107735238D01*
X151260476Y-107830476D01*
X151308095Y-107925714D01*
X166783333Y-108102380D02*
X166450000Y-107626190D01*
X166211904Y-108102380D02*
X166211904Y-107102380D01*
X166592857Y-107102380D01*
X166688095Y-107150000D01*
X166735714Y-107197619D01*
X166783333Y-107292857D01*
X166783333Y-107435714D01*
X166735714Y-107530952D01*
X166688095Y-107578571D01*
X166592857Y-107626190D01*
X166211904Y-107626190D01*
X167164285Y-107197619D02*
X167211904Y-107150000D01*
X167307142Y-107102380D01*
X167545238Y-107102380D01*
X167640476Y-107150000D01*
X167688095Y-107197619D01*
X167735714Y-107292857D01*
X167735714Y-107388095D01*
X167688095Y-107530952D01*
X167116666Y-108102380D01*
X167735714Y-108102380D01*
X164812380Y-103966666D02*
X164336190Y-104300000D01*
X164812380Y-104538095D02*
X163812380Y-104538095D01*
X163812380Y-104157142D01*
X163860000Y-104061904D01*
X163907619Y-104014285D01*
X164002857Y-103966666D01*
X164145714Y-103966666D01*
X164240952Y-104014285D01*
X164288571Y-104061904D01*
X164336190Y-104157142D01*
X164336190Y-104538095D01*
X163812380Y-103633333D02*
X163812380Y-103014285D01*
X164193333Y-103347619D01*
X164193333Y-103204761D01*
X164240952Y-103109523D01*
X164288571Y-103061904D01*
X164383809Y-103014285D01*
X164621904Y-103014285D01*
X164717142Y-103061904D01*
X164764761Y-103109523D01*
X164812380Y-103204761D01*
X164812380Y-103490476D01*
X164764761Y-103585714D01*
X164717142Y-103633333D01*
X169683333Y-134252380D02*
X169350000Y-133776190D01*
X169111904Y-134252380D02*
X169111904Y-133252380D01*
X169492857Y-133252380D01*
X169588095Y-133300000D01*
X169635714Y-133347619D01*
X169683333Y-133442857D01*
X169683333Y-133585714D01*
X169635714Y-133680952D01*
X169588095Y-133728571D01*
X169492857Y-133776190D01*
X169111904Y-133776190D01*
X170540476Y-133585714D02*
X170540476Y-134252380D01*
X170302380Y-133204761D02*
X170064285Y-133919047D01*
X170683333Y-133919047D01*
X174703333Y-133122380D02*
X174370000Y-132646190D01*
X174131904Y-133122380D02*
X174131904Y-132122380D01*
X174512857Y-132122380D01*
X174608095Y-132170000D01*
X174655714Y-132217619D01*
X174703333Y-132312857D01*
X174703333Y-132455714D01*
X174655714Y-132550952D01*
X174608095Y-132598571D01*
X174512857Y-132646190D01*
X174131904Y-132646190D01*
X175608095Y-132122380D02*
X175131904Y-132122380D01*
X175084285Y-132598571D01*
X175131904Y-132550952D01*
X175227142Y-132503333D01*
X175465238Y-132503333D01*
X175560476Y-132550952D01*
X175608095Y-132598571D01*
X175655714Y-132693809D01*
X175655714Y-132931904D01*
X175608095Y-133027142D01*
X175560476Y-133074761D01*
X175465238Y-133122380D01*
X175227142Y-133122380D01*
X175131904Y-133074761D01*
X175084285Y-133027142D01*
X145083867Y-110307081D02*
X145196535Y-110207173D01*
X145315582Y-110000976D01*
X145321962Y-109894688D01*
X145304532Y-109829639D01*
X145245863Y-109740781D01*
X145163385Y-109693162D01*
X145057097Y-109686782D01*
X144992048Y-109704212D01*
X144903189Y-109762881D01*
X144766712Y-109904029D01*
X144677854Y-109962698D01*
X144612805Y-109980127D01*
X144506517Y-109973748D01*
X144424038Y-109926129D01*
X144365369Y-109837270D01*
X144347939Y-109772221D01*
X144354319Y-109665933D01*
X144473367Y-109459737D01*
X144586034Y-109359828D01*
X144711462Y-109047344D02*
X145696535Y-109341147D01*
X145173183Y-108819047D01*
X145887011Y-109011233D01*
X145140033Y-108305036D01*
X146458440Y-108021489D02*
X146172725Y-108516361D01*
X146315582Y-108268925D02*
X145449557Y-107768925D01*
X145525656Y-107922832D01*
X145560515Y-108052930D01*
X145554136Y-108159218D01*
X142954761Y-117583333D02*
X143002380Y-117440476D01*
X143002380Y-117202380D01*
X142954761Y-117107142D01*
X142907142Y-117059523D01*
X142811904Y-117011904D01*
X142716666Y-117011904D01*
X142621428Y-117059523D01*
X142573809Y-117107142D01*
X142526190Y-117202380D01*
X142478571Y-117392857D01*
X142430952Y-117488095D01*
X142383333Y-117535714D01*
X142288095Y-117583333D01*
X142192857Y-117583333D01*
X142097619Y-117535714D01*
X142050000Y-117488095D01*
X142002380Y-117392857D01*
X142002380Y-117154761D01*
X142050000Y-117011904D01*
X142002380Y-116678571D02*
X143002380Y-116440476D01*
X142288095Y-116250000D01*
X143002380Y-116059523D01*
X142002380Y-115821428D01*
X142097619Y-115488095D02*
X142050000Y-115440476D01*
X142002380Y-115345238D01*
X142002380Y-115107142D01*
X142050000Y-115011904D01*
X142097619Y-114964285D01*
X142192857Y-114916666D01*
X142288095Y-114916666D01*
X142430952Y-114964285D01*
X143002380Y-115535714D01*
X143002380Y-114916666D01*
X170888095Y-103482380D02*
X170888095Y-104291904D01*
X170935714Y-104387142D01*
X170983333Y-104434761D01*
X171078571Y-104482380D01*
X171269047Y-104482380D01*
X171364285Y-104434761D01*
X171411904Y-104387142D01*
X171459523Y-104291904D01*
X171459523Y-103482380D01*
X172459523Y-104482380D02*
X171888095Y-104482380D01*
X172173809Y-104482380D02*
X172173809Y-103482380D01*
X172078571Y-103625238D01*
X171983333Y-103720476D01*
X171888095Y-103768095D01*
X157888095Y-103702380D02*
X157888095Y-104511904D01*
X157935714Y-104607142D01*
X157983333Y-104654761D01*
X158078571Y-104702380D01*
X158269047Y-104702380D01*
X158364285Y-104654761D01*
X158411904Y-104607142D01*
X158459523Y-104511904D01*
X158459523Y-103702380D01*
X158840476Y-103702380D02*
X159459523Y-103702380D01*
X159126190Y-104083333D01*
X159269047Y-104083333D01*
X159364285Y-104130952D01*
X159411904Y-104178571D01*
X159459523Y-104273809D01*
X159459523Y-104511904D01*
X159411904Y-104607142D01*
X159364285Y-104654761D01*
X159269047Y-104702380D01*
X158983333Y-104702380D01*
X158888095Y-104654761D01*
X158840476Y-104607142D01*
X167306190Y-109976190D02*
X167782380Y-109976190D01*
X166782380Y-110309523D02*
X167306190Y-109976190D01*
X166782380Y-109642857D01*
X167782380Y-108785714D02*
X167782380Y-109357142D01*
X167782380Y-109071428D02*
X166782380Y-109071428D01*
X166925238Y-109166666D01*
X167020476Y-109261904D01*
X167068095Y-109357142D01*
X174822380Y-119113333D02*
X175536666Y-119113333D01*
X175679523Y-119160952D01*
X175774761Y-119256190D01*
X175822380Y-119399047D01*
X175822380Y-119494285D01*
X174917619Y-118684761D02*
X174870000Y-118637142D01*
X174822380Y-118541904D01*
X174822380Y-118303809D01*
X174870000Y-118208571D01*
X174917619Y-118160952D01*
X175012857Y-118113333D01*
X175108095Y-118113333D01*
X175250952Y-118160952D01*
X175822380Y-118732380D01*
X175822380Y-118113333D01*
X172807142Y-123332380D02*
X172473809Y-122856190D01*
X172235714Y-123332380D02*
X172235714Y-122332380D01*
X172616666Y-122332380D01*
X172711904Y-122380000D01*
X172759523Y-122427619D01*
X172807142Y-122522857D01*
X172807142Y-122665714D01*
X172759523Y-122760952D01*
X172711904Y-122808571D01*
X172616666Y-122856190D01*
X172235714Y-122856190D01*
X173759523Y-123332380D02*
X173188095Y-123332380D01*
X173473809Y-123332380D02*
X173473809Y-122332380D01*
X173378571Y-122475238D01*
X173283333Y-122570476D01*
X173188095Y-122618095D01*
X174378571Y-122332380D02*
X174473809Y-122332380D01*
X174569047Y-122380000D01*
X174616666Y-122427619D01*
X174664285Y-122522857D01*
X174711904Y-122713333D01*
X174711904Y-122951428D01*
X174664285Y-123141904D01*
X174616666Y-123237142D01*
X174569047Y-123284761D01*
X174473809Y-123332380D01*
X174378571Y-123332380D01*
X174283333Y-123284761D01*
X174235714Y-123237142D01*
X174188095Y-123141904D01*
X174140476Y-122951428D01*
X174140476Y-122713333D01*
X174188095Y-122522857D01*
X174235714Y-122427619D01*
X174283333Y-122380000D01*
X174378571Y-122332380D01*
X151707142Y-118532380D02*
X151373809Y-118056190D01*
X151135714Y-118532380D02*
X151135714Y-117532380D01*
X151516666Y-117532380D01*
X151611904Y-117580000D01*
X151659523Y-117627619D01*
X151707142Y-117722857D01*
X151707142Y-117865714D01*
X151659523Y-117960952D01*
X151611904Y-118008571D01*
X151516666Y-118056190D01*
X151135714Y-118056190D01*
X152659523Y-118532380D02*
X152088095Y-118532380D01*
X152373809Y-118532380D02*
X152373809Y-117532380D01*
X152278571Y-117675238D01*
X152183333Y-117770476D01*
X152088095Y-117818095D01*
X153611904Y-118532380D02*
X153040476Y-118532380D01*
X153326190Y-118532380D02*
X153326190Y-117532380D01*
X153230952Y-117675238D01*
X153135714Y-117770476D01*
X153040476Y-117818095D01*
X166042380Y-115701904D02*
X166851904Y-115701904D01*
X166947142Y-115654285D01*
X166994761Y-115606666D01*
X167042380Y-115511428D01*
X167042380Y-115320952D01*
X166994761Y-115225714D01*
X166947142Y-115178095D01*
X166851904Y-115130476D01*
X166042380Y-115130476D01*
X166137619Y-114701904D02*
X166090000Y-114654285D01*
X166042380Y-114559047D01*
X166042380Y-114320952D01*
X166090000Y-114225714D01*
X166137619Y-114178095D01*
X166232857Y-114130476D01*
X166328095Y-114130476D01*
X166470952Y-114178095D01*
X167042380Y-114749523D01*
X167042380Y-114130476D01*
X176057142Y-112377142D02*
X176009523Y-112424761D01*
X175866666Y-112472380D01*
X175771428Y-112472380D01*
X175628571Y-112424761D01*
X175533333Y-112329523D01*
X175485714Y-112234285D01*
X175438095Y-112043809D01*
X175438095Y-111900952D01*
X175485714Y-111710476D01*
X175533333Y-111615238D01*
X175628571Y-111520000D01*
X175771428Y-111472380D01*
X175866666Y-111472380D01*
X176009523Y-111520000D01*
X176057142Y-111567619D01*
X176438095Y-111567619D02*
X176485714Y-111520000D01*
X176580952Y-111472380D01*
X176819047Y-111472380D01*
X176914285Y-111520000D01*
X176961904Y-111567619D01*
X177009523Y-111662857D01*
X177009523Y-111758095D01*
X176961904Y-111900952D01*
X176390476Y-112472380D01*
X177009523Y-112472380D01*
X177628571Y-111472380D02*
X177723809Y-111472380D01*
X177819047Y-111520000D01*
X177866666Y-111567619D01*
X177914285Y-111662857D01*
X177961904Y-111853333D01*
X177961904Y-112091428D01*
X177914285Y-112281904D01*
X177866666Y-112377142D01*
X177819047Y-112424761D01*
X177723809Y-112472380D01*
X177628571Y-112472380D01*
X177533333Y-112424761D01*
X177485714Y-112377142D01*
X177438095Y-112281904D01*
X177390476Y-112091428D01*
X177390476Y-111853333D01*
X177438095Y-111662857D01*
X177485714Y-111567619D01*
X177533333Y-111520000D01*
X177628571Y-111472380D01*
X146167142Y-105452857D02*
X146214761Y-105500476D01*
X146262380Y-105643333D01*
X146262380Y-105738571D01*
X146214761Y-105881428D01*
X146119523Y-105976666D01*
X146024285Y-106024285D01*
X145833809Y-106071904D01*
X145690952Y-106071904D01*
X145500476Y-106024285D01*
X145405238Y-105976666D01*
X145310000Y-105881428D01*
X145262380Y-105738571D01*
X145262380Y-105643333D01*
X145310000Y-105500476D01*
X145357619Y-105452857D01*
X145357619Y-105071904D02*
X145310000Y-105024285D01*
X145262380Y-104929047D01*
X145262380Y-104690952D01*
X145310000Y-104595714D01*
X145357619Y-104548095D01*
X145452857Y-104500476D01*
X145548095Y-104500476D01*
X145690952Y-104548095D01*
X146262380Y-105119523D01*
X146262380Y-104500476D01*
X145357619Y-104119523D02*
X145310000Y-104071904D01*
X145262380Y-103976666D01*
X145262380Y-103738571D01*
X145310000Y-103643333D01*
X145357619Y-103595714D01*
X145452857Y-103548095D01*
X145548095Y-103548095D01*
X145690952Y-103595714D01*
X146262380Y-104167142D01*
X146262380Y-103548095D01*
X145287142Y-116957142D02*
X145239523Y-117004761D01*
X145096666Y-117052380D01*
X145001428Y-117052380D01*
X144858571Y-117004761D01*
X144763333Y-116909523D01*
X144715714Y-116814285D01*
X144668095Y-116623809D01*
X144668095Y-116480952D01*
X144715714Y-116290476D01*
X144763333Y-116195238D01*
X144858571Y-116100000D01*
X145001428Y-116052380D01*
X145096666Y-116052380D01*
X145239523Y-116100000D01*
X145287142Y-116147619D01*
X145668095Y-116147619D02*
X145715714Y-116100000D01*
X145810952Y-116052380D01*
X146049047Y-116052380D01*
X146144285Y-116100000D01*
X146191904Y-116147619D01*
X146239523Y-116242857D01*
X146239523Y-116338095D01*
X146191904Y-116480952D01*
X145620476Y-117052380D01*
X146239523Y-117052380D01*
X146572857Y-116052380D02*
X147191904Y-116052380D01*
X146858571Y-116433333D01*
X147001428Y-116433333D01*
X147096666Y-116480952D01*
X147144285Y-116528571D01*
X147191904Y-116623809D01*
X147191904Y-116861904D01*
X147144285Y-116957142D01*
X147096666Y-117004761D01*
X147001428Y-117052380D01*
X146715714Y-117052380D01*
X146620476Y-117004761D01*
X146572857Y-116957142D01*
X145877142Y-124912857D02*
X145924761Y-124960476D01*
X145972380Y-125103333D01*
X145972380Y-125198571D01*
X145924761Y-125341428D01*
X145829523Y-125436666D01*
X145734285Y-125484285D01*
X145543809Y-125531904D01*
X145400952Y-125531904D01*
X145210476Y-125484285D01*
X145115238Y-125436666D01*
X145020000Y-125341428D01*
X144972380Y-125198571D01*
X144972380Y-125103333D01*
X145020000Y-124960476D01*
X145067619Y-124912857D01*
X145067619Y-124531904D02*
X145020000Y-124484285D01*
X144972380Y-124389047D01*
X144972380Y-124150952D01*
X145020000Y-124055714D01*
X145067619Y-124008095D01*
X145162857Y-123960476D01*
X145258095Y-123960476D01*
X145400952Y-124008095D01*
X145972380Y-124579523D01*
X145972380Y-123960476D01*
X145305714Y-123103333D02*
X145972380Y-123103333D01*
X144924761Y-123341428D02*
X145639047Y-123579523D01*
X145639047Y-122960476D01*
X148637142Y-108902380D02*
X148303809Y-108426190D01*
X148065714Y-108902380D02*
X148065714Y-107902380D01*
X148446666Y-107902380D01*
X148541904Y-107950000D01*
X148589523Y-107997619D01*
X148637142Y-108092857D01*
X148637142Y-108235714D01*
X148589523Y-108330952D01*
X148541904Y-108378571D01*
X148446666Y-108426190D01*
X148065714Y-108426190D01*
X149589523Y-108902380D02*
X149018095Y-108902380D01*
X149303809Y-108902380D02*
X149303809Y-107902380D01*
X149208571Y-108045238D01*
X149113333Y-108140476D01*
X149018095Y-108188095D01*
X149970476Y-107997619D02*
X150018095Y-107950000D01*
X150113333Y-107902380D01*
X150351428Y-107902380D01*
X150446666Y-107950000D01*
X150494285Y-107997619D01*
X150541904Y-108092857D01*
X150541904Y-108188095D01*
X150494285Y-108330952D01*
X149922857Y-108902380D01*
X150541904Y-108902380D01*
X148507142Y-117092380D02*
X148173809Y-116616190D01*
X147935714Y-117092380D02*
X147935714Y-116092380D01*
X148316666Y-116092380D01*
X148411904Y-116140000D01*
X148459523Y-116187619D01*
X148507142Y-116282857D01*
X148507142Y-116425714D01*
X148459523Y-116520952D01*
X148411904Y-116568571D01*
X148316666Y-116616190D01*
X147935714Y-116616190D01*
X149459523Y-117092380D02*
X148888095Y-117092380D01*
X149173809Y-117092380D02*
X149173809Y-116092380D01*
X149078571Y-116235238D01*
X148983333Y-116330476D01*
X148888095Y-116378095D01*
X149792857Y-116092380D02*
X150411904Y-116092380D01*
X150078571Y-116473333D01*
X150221428Y-116473333D01*
X150316666Y-116520952D01*
X150364285Y-116568571D01*
X150411904Y-116663809D01*
X150411904Y-116901904D01*
X150364285Y-116997142D01*
X150316666Y-117044761D01*
X150221428Y-117092380D01*
X149935714Y-117092380D01*
X149840476Y-117044761D01*
X149792857Y-116997142D01*
X145327142Y-122012380D02*
X144993809Y-121536190D01*
X144755714Y-122012380D02*
X144755714Y-121012380D01*
X145136666Y-121012380D01*
X145231904Y-121060000D01*
X145279523Y-121107619D01*
X145327142Y-121202857D01*
X145327142Y-121345714D01*
X145279523Y-121440952D01*
X145231904Y-121488571D01*
X145136666Y-121536190D01*
X144755714Y-121536190D01*
X146279523Y-122012380D02*
X145708095Y-122012380D01*
X145993809Y-122012380D02*
X145993809Y-121012380D01*
X145898571Y-121155238D01*
X145803333Y-121250476D01*
X145708095Y-121298095D01*
X147136666Y-121345714D02*
X147136666Y-122012380D01*
X146898571Y-120964761D02*
X146660476Y-121679047D01*
X147279523Y-121679047D01*
X169283333Y-123782380D02*
X168807142Y-123782380D01*
X168807142Y-122782380D01*
X170140476Y-123782380D02*
X169569047Y-123782380D01*
X169854761Y-123782380D02*
X169854761Y-122782380D01*
X169759523Y-122925238D01*
X169664285Y-123020476D01*
X169569047Y-123068095D01*
M02*
