G04 #@! TF.GenerationSoftware,KiCad,Pcbnew,5.1.8-1.fc33*
G04 #@! TF.CreationDate,2020-11-26T23:04:54+01:00*
G04 #@! TF.ProjectId,base24mm,62617365-3234-46d6-9d2e-6b696361645f,v0.5.2*
G04 #@! TF.SameCoordinates,Original*
G04 #@! TF.FileFunction,Legend,Top*
G04 #@! TF.FilePolarity,Positive*
%FSLAX46Y46*%
G04 Gerber Fmt 4.6, Leading zero omitted, Abs format (unit mm)*
G04 Created by KiCad (PCBNEW 5.1.8-1.fc33) date 2020-11-26 23:04:54*
%MOMM*%
%LPD*%
G01*
G04 APERTURE LIST*
%ADD10C,0.200000*%
%ADD11C,0.150000*%
%ADD12C,0.300000*%
G04 APERTURE END LIST*
D10*
X202400000Y-128010000D02*
G75*
G03*
X202400000Y-128010000I-1200000J0D01*
G01*
X235510000Y-104220000D02*
G75*
G03*
X235510000Y-104220000I-1200000J0D01*
G01*
X240750000Y-129910000D02*
G75*
G03*
X240750000Y-129910000I-1200000J0D01*
G01*
X208870000Y-104220000D02*
G75*
G03*
X208870000Y-104220000I-1200000J0D01*
G01*
D11*
X221162952Y-125103380D02*
X221162952Y-124103380D01*
X221401047Y-124103380D01*
X221543904Y-124151000D01*
X221639142Y-124246238D01*
X221686761Y-124341476D01*
X221734380Y-124531952D01*
X221734380Y-124674809D01*
X221686761Y-124865285D01*
X221639142Y-124960523D01*
X221543904Y-125055761D01*
X221401047Y-125103380D01*
X221162952Y-125103380D01*
X222543904Y-125055761D02*
X222448666Y-125103380D01*
X222258190Y-125103380D01*
X222162952Y-125055761D01*
X222115333Y-124960523D01*
X222115333Y-124579571D01*
X222162952Y-124484333D01*
X222258190Y-124436714D01*
X222448666Y-124436714D01*
X222543904Y-124484333D01*
X222591523Y-124579571D01*
X222591523Y-124674809D01*
X222115333Y-124770047D01*
X222972476Y-125055761D02*
X223067714Y-125103380D01*
X223258190Y-125103380D01*
X223353428Y-125055761D01*
X223401047Y-124960523D01*
X223401047Y-124912904D01*
X223353428Y-124817666D01*
X223258190Y-124770047D01*
X223115333Y-124770047D01*
X223020095Y-124722428D01*
X222972476Y-124627190D01*
X222972476Y-124579571D01*
X223020095Y-124484333D01*
X223115333Y-124436714D01*
X223258190Y-124436714D01*
X223353428Y-124484333D01*
X223829619Y-125103380D02*
X223829619Y-124436714D01*
X223829619Y-124103380D02*
X223782000Y-124151000D01*
X223829619Y-124198619D01*
X223877238Y-124151000D01*
X223829619Y-124103380D01*
X223829619Y-124198619D01*
X224734380Y-124436714D02*
X224734380Y-125246238D01*
X224686761Y-125341476D01*
X224639142Y-125389095D01*
X224543904Y-125436714D01*
X224401047Y-125436714D01*
X224305809Y-125389095D01*
X224734380Y-125055761D02*
X224639142Y-125103380D01*
X224448666Y-125103380D01*
X224353428Y-125055761D01*
X224305809Y-125008142D01*
X224258190Y-124912904D01*
X224258190Y-124627190D01*
X224305809Y-124531952D01*
X224353428Y-124484333D01*
X224448666Y-124436714D01*
X224639142Y-124436714D01*
X224734380Y-124484333D01*
X225210571Y-124436714D02*
X225210571Y-125103380D01*
X225210571Y-124531952D02*
X225258190Y-124484333D01*
X225353428Y-124436714D01*
X225496285Y-124436714D01*
X225591523Y-124484333D01*
X225639142Y-124579571D01*
X225639142Y-125103380D01*
X226496285Y-125055761D02*
X226401047Y-125103380D01*
X226210571Y-125103380D01*
X226115333Y-125055761D01*
X226067714Y-124960523D01*
X226067714Y-124579571D01*
X226115333Y-124484333D01*
X226210571Y-124436714D01*
X226401047Y-124436714D01*
X226496285Y-124484333D01*
X226543904Y-124579571D01*
X226543904Y-124674809D01*
X226067714Y-124770047D01*
X227401047Y-125103380D02*
X227401047Y-124103380D01*
X227401047Y-125055761D02*
X227305809Y-125103380D01*
X227115333Y-125103380D01*
X227020095Y-125055761D01*
X226972476Y-125008142D01*
X226924857Y-124912904D01*
X226924857Y-124627190D01*
X226972476Y-124531952D01*
X227020095Y-124484333D01*
X227115333Y-124436714D01*
X227305809Y-124436714D01*
X227401047Y-124484333D01*
X222520095Y-126753380D02*
X222520095Y-125753380D01*
X222520095Y-126134333D02*
X222615333Y-126086714D01*
X222805809Y-126086714D01*
X222901047Y-126134333D01*
X222948666Y-126181952D01*
X222996285Y-126277190D01*
X222996285Y-126562904D01*
X222948666Y-126658142D01*
X222901047Y-126705761D01*
X222805809Y-126753380D01*
X222615333Y-126753380D01*
X222520095Y-126705761D01*
X223329619Y-126086714D02*
X223567714Y-126753380D01*
X223805809Y-126086714D02*
X223567714Y-126753380D01*
X223472476Y-126991476D01*
X223424857Y-127039095D01*
X223329619Y-127086714D01*
X225282000Y-126229571D02*
X225424857Y-126277190D01*
X225472476Y-126324809D01*
X225520095Y-126420047D01*
X225520095Y-126562904D01*
X225472476Y-126658142D01*
X225424857Y-126705761D01*
X225329619Y-126753380D01*
X224948666Y-126753380D01*
X224948666Y-125753380D01*
X225282000Y-125753380D01*
X225377238Y-125801000D01*
X225424857Y-125848619D01*
X225472476Y-125943857D01*
X225472476Y-126039095D01*
X225424857Y-126134333D01*
X225377238Y-126181952D01*
X225282000Y-126229571D01*
X224948666Y-126229571D01*
X226377238Y-126753380D02*
X226377238Y-126229571D01*
X226329619Y-126134333D01*
X226234380Y-126086714D01*
X226043904Y-126086714D01*
X225948666Y-126134333D01*
X226377238Y-126705761D02*
X226282000Y-126753380D01*
X226043904Y-126753380D01*
X225948666Y-126705761D01*
X225901047Y-126610523D01*
X225901047Y-126515285D01*
X225948666Y-126420047D01*
X226043904Y-126372428D01*
X226282000Y-126372428D01*
X226377238Y-126324809D01*
X226853428Y-126753380D02*
X226853428Y-126086714D01*
X226853428Y-126277190D02*
X226901047Y-126181952D01*
X226948666Y-126134333D01*
X227043904Y-126086714D01*
X227139142Y-126086714D01*
X227329619Y-126086714D02*
X227710571Y-126086714D01*
X227472476Y-125753380D02*
X227472476Y-126610523D01*
X227520095Y-126705761D01*
X227615333Y-126753380D01*
X227710571Y-126753380D01*
D12*
X214736666Y-120474761D02*
X214546190Y-120379523D01*
X214450952Y-120189047D01*
X214450952Y-118474761D01*
X215498571Y-120474761D02*
X215498571Y-119141428D01*
X215498571Y-118474761D02*
X215403333Y-118570000D01*
X215498571Y-118665238D01*
X215593809Y-118570000D01*
X215498571Y-118474761D01*
X215498571Y-118665238D01*
X216450952Y-120474761D02*
X216450952Y-118474761D01*
X216450952Y-119236666D02*
X216641428Y-119141428D01*
X217022380Y-119141428D01*
X217212857Y-119236666D01*
X217308095Y-119331904D01*
X217403333Y-119522380D01*
X217403333Y-120093809D01*
X217308095Y-120284285D01*
X217212857Y-120379523D01*
X217022380Y-120474761D01*
X216641428Y-120474761D01*
X216450952Y-120379523D01*
X218260476Y-120474761D02*
X218260476Y-119141428D01*
X218260476Y-119522380D02*
X218355714Y-119331904D01*
X218450952Y-119236666D01*
X218641428Y-119141428D01*
X218831904Y-119141428D01*
X220355714Y-120474761D02*
X220355714Y-119427142D01*
X220260476Y-119236666D01*
X220070000Y-119141428D01*
X219689047Y-119141428D01*
X219498571Y-119236666D01*
X220355714Y-120379523D02*
X220165238Y-120474761D01*
X219689047Y-120474761D01*
X219498571Y-120379523D01*
X219403333Y-120189047D01*
X219403333Y-119998571D01*
X219498571Y-119808095D01*
X219689047Y-119712857D01*
X220165238Y-119712857D01*
X220355714Y-119617619D01*
X222831904Y-120474761D02*
X222831904Y-118474761D01*
X223498571Y-119903333D01*
X224165238Y-118474761D01*
X224165238Y-120474761D01*
X225117619Y-120474761D02*
X225117619Y-118474761D01*
X225308095Y-119712857D02*
X225879523Y-120474761D01*
X225879523Y-119141428D02*
X225117619Y-119903333D01*
X227689047Y-118474761D02*
X226736666Y-118474761D01*
X226641428Y-119427142D01*
X226736666Y-119331904D01*
X226927142Y-119236666D01*
X227403333Y-119236666D01*
X227593809Y-119331904D01*
X227689047Y-119427142D01*
X227784285Y-119617619D01*
X227784285Y-120093809D01*
X227689047Y-120284285D01*
X227593809Y-120379523D01*
X227403333Y-120474761D01*
X226927142Y-120474761D01*
X226736666Y-120379523D01*
X226641428Y-120284285D01*
M02*
