G04 #@! TF.GenerationSoftware,KiCad,Pcbnew,5.1.4-1.fc30*
G04 #@! TF.CreationDate,2020-03-31T08:03:49+02:00*
G04 #@! TF.ProjectId,base,62617365-2e6b-4696-9361-645f70636258,rev?*
G04 #@! TF.SameCoordinates,Original*
G04 #@! TF.FileFunction,Copper,L1,Top*
G04 #@! TF.FilePolarity,Positive*
%FSLAX46Y46*%
G04 Gerber Fmt 4.6, Leading zero omitted, Abs format (unit mm)*
G04 Created by KiCad (PCBNEW 5.1.4-1.fc30) date 2020-03-31 08:03:49*
%MOMM*%
%LPD*%
G04 APERTURE LIST*
%ADD10C,0.300000*%
%ADD11C,0.125000*%
%ADD12C,2.000000*%
G04 APERTURE END LIST*
D10*
X215916476Y-121586761D02*
X216583142Y-123586761D01*
X217249809Y-121586761D01*
X217916476Y-122539142D02*
X218583142Y-122539142D01*
X218868857Y-123586761D02*
X217916476Y-123586761D01*
X217916476Y-121586761D01*
X218868857Y-121586761D01*
X219726000Y-123586761D02*
X219726000Y-121586761D01*
X220868857Y-123586761D01*
X220868857Y-121586761D01*
X222202190Y-121586761D02*
X222583142Y-121586761D01*
X222773619Y-121682000D01*
X222964095Y-121872476D01*
X223059333Y-122253428D01*
X223059333Y-122920095D01*
X222964095Y-123301047D01*
X222773619Y-123491523D01*
X222583142Y-123586761D01*
X222202190Y-123586761D01*
X222011714Y-123491523D01*
X221821238Y-123301047D01*
X221726000Y-122920095D01*
X221726000Y-122253428D01*
X221821238Y-121872476D01*
X222011714Y-121682000D01*
X222202190Y-121586761D01*
X223916476Y-123586761D02*
X223916476Y-121586761D01*
X224583142Y-123015333D01*
X225249809Y-121586761D01*
X225249809Y-123586761D01*
D11*
X220406666Y-125075904D02*
X220406666Y-124275904D01*
X220573333Y-124275904D01*
X220673333Y-124314000D01*
X220740000Y-124390190D01*
X220773333Y-124466380D01*
X220806666Y-124618761D01*
X220806666Y-124733047D01*
X220773333Y-124885428D01*
X220740000Y-124961619D01*
X220673333Y-125037809D01*
X220573333Y-125075904D01*
X220406666Y-125075904D01*
X221373333Y-125037809D02*
X221306666Y-125075904D01*
X221173333Y-125075904D01*
X221106666Y-125037809D01*
X221073333Y-124961619D01*
X221073333Y-124656857D01*
X221106666Y-124580666D01*
X221173333Y-124542571D01*
X221306666Y-124542571D01*
X221373333Y-124580666D01*
X221406666Y-124656857D01*
X221406666Y-124733047D01*
X221073333Y-124809238D01*
X221673333Y-125037809D02*
X221740000Y-125075904D01*
X221873333Y-125075904D01*
X221940000Y-125037809D01*
X221973333Y-124961619D01*
X221973333Y-124923523D01*
X221940000Y-124847333D01*
X221873333Y-124809238D01*
X221773333Y-124809238D01*
X221706666Y-124771142D01*
X221673333Y-124694952D01*
X221673333Y-124656857D01*
X221706666Y-124580666D01*
X221773333Y-124542571D01*
X221873333Y-124542571D01*
X221940000Y-124580666D01*
X222273333Y-125075904D02*
X222273333Y-124542571D01*
X222273333Y-124275904D02*
X222240000Y-124314000D01*
X222273333Y-124352095D01*
X222306666Y-124314000D01*
X222273333Y-124275904D01*
X222273333Y-124352095D01*
X222906666Y-124542571D02*
X222906666Y-125190190D01*
X222873333Y-125266380D01*
X222840000Y-125304476D01*
X222773333Y-125342571D01*
X222673333Y-125342571D01*
X222606666Y-125304476D01*
X222906666Y-125037809D02*
X222840000Y-125075904D01*
X222706666Y-125075904D01*
X222640000Y-125037809D01*
X222606666Y-124999714D01*
X222573333Y-124923523D01*
X222573333Y-124694952D01*
X222606666Y-124618761D01*
X222640000Y-124580666D01*
X222706666Y-124542571D01*
X222840000Y-124542571D01*
X222906666Y-124580666D01*
X223240000Y-124542571D02*
X223240000Y-125075904D01*
X223240000Y-124618761D02*
X223273333Y-124580666D01*
X223340000Y-124542571D01*
X223440000Y-124542571D01*
X223506666Y-124580666D01*
X223540000Y-124656857D01*
X223540000Y-125075904D01*
X224140000Y-125037809D02*
X224073333Y-125075904D01*
X223940000Y-125075904D01*
X223873333Y-125037809D01*
X223840000Y-124961619D01*
X223840000Y-124656857D01*
X223873333Y-124580666D01*
X223940000Y-124542571D01*
X224073333Y-124542571D01*
X224140000Y-124580666D01*
X224173333Y-124656857D01*
X224173333Y-124733047D01*
X223840000Y-124809238D01*
X224773333Y-125075904D02*
X224773333Y-124275904D01*
X224773333Y-125037809D02*
X224706666Y-125075904D01*
X224573333Y-125075904D01*
X224506666Y-125037809D01*
X224473333Y-124999714D01*
X224440000Y-124923523D01*
X224440000Y-124694952D01*
X224473333Y-124618761D01*
X224506666Y-124580666D01*
X224573333Y-124542571D01*
X224706666Y-124542571D01*
X224773333Y-124580666D01*
X225640000Y-125075904D02*
X225640000Y-124275904D01*
X225640000Y-124580666D02*
X225706666Y-124542571D01*
X225840000Y-124542571D01*
X225906666Y-124580666D01*
X225940000Y-124618761D01*
X225973333Y-124694952D01*
X225973333Y-124923523D01*
X225940000Y-124999714D01*
X225906666Y-125037809D01*
X225840000Y-125075904D01*
X225706666Y-125075904D01*
X225640000Y-125037809D01*
X226206666Y-124542571D02*
X226373333Y-125075904D01*
X226540000Y-124542571D02*
X226373333Y-125075904D01*
X226306666Y-125266380D01*
X226273333Y-125304476D01*
X226206666Y-125342571D01*
X227573333Y-124656857D02*
X227673333Y-124694952D01*
X227706666Y-124733047D01*
X227740000Y-124809238D01*
X227740000Y-124923523D01*
X227706666Y-124999714D01*
X227673333Y-125037809D01*
X227606666Y-125075904D01*
X227340000Y-125075904D01*
X227340000Y-124275904D01*
X227573333Y-124275904D01*
X227640000Y-124314000D01*
X227673333Y-124352095D01*
X227706666Y-124428285D01*
X227706666Y-124504476D01*
X227673333Y-124580666D01*
X227640000Y-124618761D01*
X227573333Y-124656857D01*
X227340000Y-124656857D01*
X228340000Y-125075904D02*
X228340000Y-124656857D01*
X228306666Y-124580666D01*
X228240000Y-124542571D01*
X228106666Y-124542571D01*
X228040000Y-124580666D01*
X228340000Y-125037809D02*
X228273333Y-125075904D01*
X228106666Y-125075904D01*
X228040000Y-125037809D01*
X228006666Y-124961619D01*
X228006666Y-124885428D01*
X228040000Y-124809238D01*
X228106666Y-124771142D01*
X228273333Y-124771142D01*
X228340000Y-124733047D01*
X228673333Y-125075904D02*
X228673333Y-124542571D01*
X228673333Y-124694952D02*
X228706666Y-124618761D01*
X228740000Y-124580666D01*
X228806666Y-124542571D01*
X228873333Y-124542571D01*
X229006666Y-124542571D02*
X229273333Y-124542571D01*
X229106666Y-124275904D02*
X229106666Y-124961619D01*
X229140000Y-125037809D01*
X229206666Y-125075904D01*
X229273333Y-125075904D01*
D12*
X211328000Y-112014000D02*
X211328000Y-135128000D01*
X208534000Y-135128000D02*
X208534000Y-112014000D01*
M02*
