G04 #@! TF.GenerationSoftware,KiCad,Pcbnew,5.1.4-1.fc30*
G04 #@! TF.CreationDate,2020-04-06T19:08:27+02:00*
G04 #@! TF.ProjectId,ring,72696e67-2e6b-4696-9361-645f70636258,v0.5.2*
G04 #@! TF.SameCoordinates,Original*
G04 #@! TF.FileFunction,Copper,L1,Top*
G04 #@! TF.FilePolarity,Positive*
%FSLAX46Y46*%
G04 Gerber Fmt 4.6, Leading zero omitted, Abs format (unit mm)*
G04 Created by KiCad (PCBNEW 5.1.4-1.fc30) date 2020-04-06 19:08:27*
%MOMM*%
%LPD*%
G04 APERTURE LIST*
%ADD10C,0.150000*%
%ADD11C,0.500000*%
%ADD12C,0.125000*%
G04 APERTURE END LIST*
D10*
X149356398Y-42963635D02*
X150115938Y-42712441D01*
X183507177Y-47406543D02*
X182850258Y-46949973D01*
X183255325Y-27978759D02*
X183950921Y-27583606D01*
X181397281Y-25377907D02*
X182000132Y-24852007D01*
X156302312Y-22685573D02*
X155810884Y-22054306D01*
X155076356Y-23695110D02*
X154531779Y-23109076D01*
X154268100Y-24573098D02*
X153675457Y-24035722D01*
X149009781Y-41871225D02*
X149783948Y-41669569D01*
X149704447Y-43905571D02*
X150446194Y-43605886D01*
X148591028Y-39825985D02*
X149384544Y-39724333D01*
X152485985Y-48864300D02*
X153113806Y-48368477D01*
X150073895Y-44846943D02*
X150794757Y-44500016D01*
X149487449Y-34236614D02*
X148697298Y-34111466D01*
X152225566Y-27133918D02*
X151550103Y-26705256D01*
X149721905Y-33024484D02*
X148944009Y-32837728D01*
X165284687Y-18990238D02*
X165208010Y-18193921D01*
X163749054Y-19275255D02*
X163596407Y-18489953D01*
X161962786Y-19717001D02*
X161735574Y-18949945D01*
X160555571Y-20195552D02*
X160255886Y-19453805D01*
X159187109Y-20801013D02*
X158817710Y-20091404D01*
X151410721Y-28517669D02*
X150701758Y-28147032D01*
X150603626Y-30020243D02*
X149866136Y-29710231D01*
X149310789Y-35428394D02*
X148513255Y-35365627D01*
X148478809Y-38702724D02*
X149277230Y-38652491D01*
X148784744Y-40989054D02*
X149570046Y-40836407D01*
X150584393Y-45947109D02*
X151282049Y-45555603D01*
X153587483Y-50119118D02*
X154167783Y-49568435D01*
X154661617Y-51202302D02*
X155188568Y-50600370D01*
X158935698Y-54122459D02*
X159298891Y-53409654D01*
X164603385Y-55957449D02*
X164728533Y-55167298D01*
X171454484Y-55731905D02*
X171267728Y-54954009D01*
X178967294Y-52259409D02*
X178486958Y-51619661D01*
X184504162Y-45590915D02*
X183787592Y-45235207D01*
X185451617Y-40259632D02*
X186243831Y-40370971D01*
X185571617Y-34460367D02*
X186363831Y-34349028D01*
X184028871Y-29346044D02*
X184760839Y-29023208D01*
X182474635Y-26719129D02*
X183127545Y-26256843D01*
X167241428Y-17831904D02*
X167089047Y-17831904D01*
X167012857Y-17870000D01*
X166974761Y-17908095D01*
X166898571Y-18022380D01*
X166860476Y-18174761D01*
X166860476Y-18479523D01*
X166898571Y-18555714D01*
X166936666Y-18593809D01*
X167012857Y-18631904D01*
X167165238Y-18631904D01*
X167241428Y-18593809D01*
X167279523Y-18555714D01*
X167317619Y-18479523D01*
X167317619Y-18289047D01*
X167279523Y-18212857D01*
X167241428Y-18174761D01*
X167165238Y-18136666D01*
X167012857Y-18136666D01*
X166936666Y-18174761D01*
X166898571Y-18212857D01*
X166860476Y-18289047D01*
X167812857Y-17831904D02*
X167889047Y-17831904D01*
X167965238Y-17870000D01*
X168003333Y-17908095D01*
X168041428Y-17984285D01*
X168079523Y-18136666D01*
X168079523Y-18327142D01*
X168041428Y-18479523D01*
X168003333Y-18555714D01*
X167965238Y-18593809D01*
X167889047Y-18631904D01*
X167812857Y-18631904D01*
X167736666Y-18593809D01*
X167698571Y-18555714D01*
X167660476Y-18479523D01*
X167622380Y-18327142D01*
X167622380Y-18136666D01*
X167660476Y-17984285D01*
X167698571Y-17908095D01*
X167736666Y-17870000D01*
X167812857Y-17831904D01*
X156809700Y-21087071D02*
X156681902Y-21170063D01*
X156638752Y-21243509D01*
X156627550Y-21296207D01*
X156625896Y-21433551D01*
X156676939Y-21582097D01*
X156842925Y-21837691D01*
X156916370Y-21880842D01*
X156969068Y-21892043D01*
X157053715Y-21882496D01*
X157181512Y-21799504D01*
X157224663Y-21726058D01*
X157235864Y-21673360D01*
X157226317Y-21588714D01*
X157122576Y-21428967D01*
X157049130Y-21385816D01*
X156996433Y-21374615D01*
X156911786Y-21384162D01*
X156783989Y-21467155D01*
X156740838Y-21540600D01*
X156729637Y-21593298D01*
X156739184Y-21677945D01*
X157480636Y-20651360D02*
X157161143Y-20858841D01*
X157336675Y-21199083D01*
X157347876Y-21146385D01*
X157391026Y-21072940D01*
X157550773Y-20969199D01*
X157635420Y-20959652D01*
X157688118Y-20970853D01*
X157761563Y-21014004D01*
X157865304Y-21173750D01*
X157874851Y-21258397D01*
X157863650Y-21311095D01*
X157820499Y-21384541D01*
X157660752Y-21488281D01*
X157576106Y-21497828D01*
X157523408Y-21486627D01*
X169889531Y-18503914D02*
X170220012Y-18547422D01*
X169797329Y-18693501D02*
X170120035Y-18029946D01*
X170260003Y-18754413D01*
D11*
X160332380Y-24623546D02*
X159332380Y-22891495D01*
X167880952Y-51604761D02*
X167500000Y-51604761D01*
X167309523Y-51700000D01*
X167214285Y-51795238D01*
X167023809Y-52080952D01*
X166928571Y-52461904D01*
X166928571Y-53223809D01*
X167023809Y-53414285D01*
X167119047Y-53509523D01*
X167309523Y-53604761D01*
X167690476Y-53604761D01*
X167880952Y-53509523D01*
X167976190Y-53414285D01*
X168071428Y-53223809D01*
X168071428Y-52747619D01*
X167976190Y-52557142D01*
X167880952Y-52461904D01*
X167690476Y-52366666D01*
X167309523Y-52366666D01*
X167119047Y-52461904D01*
X167023809Y-52557142D01*
X166928571Y-52747619D01*
X153679523Y-44501904D02*
X153489047Y-44406666D01*
X153393809Y-44311428D01*
X153298571Y-44120952D01*
X153298571Y-44025714D01*
X153393809Y-43835238D01*
X153489047Y-43740000D01*
X153679523Y-43644761D01*
X154060476Y-43644761D01*
X154250952Y-43740000D01*
X154346190Y-43835238D01*
X154441428Y-44025714D01*
X154441428Y-44120952D01*
X154346190Y-44311428D01*
X154250952Y-44406666D01*
X154060476Y-44501904D01*
X153679523Y-44501904D01*
X153489047Y-44597142D01*
X153393809Y-44692380D01*
X153298571Y-44882857D01*
X153298571Y-45263809D01*
X153393809Y-45454285D01*
X153489047Y-45549523D01*
X153679523Y-45644761D01*
X154060476Y-45644761D01*
X154250952Y-45549523D01*
X154346190Y-45454285D01*
X154441428Y-45263809D01*
X154441428Y-44882857D01*
X154346190Y-44692380D01*
X154250952Y-44597142D01*
X154060476Y-44501904D01*
X152999047Y-30334761D02*
X151856190Y-30334761D01*
X152427619Y-30334761D02*
X152427619Y-28334761D01*
X152237142Y-28620476D01*
X152046666Y-28810952D01*
X151856190Y-28906190D01*
X154237142Y-28334761D02*
X154427619Y-28334761D01*
X154618095Y-28430000D01*
X154713333Y-28525238D01*
X154808571Y-28715714D01*
X154903809Y-29096666D01*
X154903809Y-29572857D01*
X154808571Y-29953809D01*
X154713333Y-30144285D01*
X154618095Y-30239523D01*
X154427619Y-30334761D01*
X154237142Y-30334761D01*
X154046666Y-30239523D01*
X153951428Y-30144285D01*
X153856190Y-29953809D01*
X153760952Y-29572857D01*
X153760952Y-29096666D01*
X153856190Y-28715714D01*
X153951428Y-28525238D01*
X154046666Y-28430000D01*
X154237142Y-28334761D01*
X181590952Y-44091428D02*
X181590952Y-45424761D01*
X181114761Y-43329523D02*
X180638571Y-44758095D01*
X181876666Y-44758095D01*
X180638571Y-28765238D02*
X180733809Y-28670000D01*
X180924285Y-28574761D01*
X181400476Y-28574761D01*
X181590952Y-28670000D01*
X181686190Y-28765238D01*
X181781428Y-28955714D01*
X181781428Y-29146190D01*
X181686190Y-29431904D01*
X180543333Y-30574761D01*
X181781428Y-30574761D01*
X153064761Y-37130000D02*
X151064761Y-37130000D01*
X181855238Y-37130000D02*
X183855238Y-37130000D01*
X174587619Y-49636453D02*
X175587619Y-51368504D01*
X160372380Y-49676453D02*
X159372380Y-51408504D01*
X174547619Y-24583546D02*
X175547619Y-22851495D01*
X167119047Y-22654761D02*
X165976190Y-22654761D01*
X166547619Y-22654761D02*
X166547619Y-20654761D01*
X166357142Y-20940476D01*
X166166666Y-21130952D01*
X165976190Y-21226190D01*
X167880952Y-20845238D02*
X167976190Y-20750000D01*
X168166666Y-20654761D01*
X168642857Y-20654761D01*
X168833333Y-20750000D01*
X168928571Y-20845238D01*
X169023809Y-21035714D01*
X169023809Y-21226190D01*
X168928571Y-21511904D01*
X167785714Y-22654761D01*
X169023809Y-22654761D01*
D12*
X180400000Y-58257904D02*
X180400000Y-57457904D01*
X180633333Y-58029333D01*
X180866666Y-57457904D01*
X180866666Y-58257904D01*
X181200000Y-58257904D02*
X181200000Y-57457904D01*
X181266666Y-57953142D02*
X181466666Y-58257904D01*
X181466666Y-57724571D02*
X181200000Y-58029333D01*
X181700000Y-57457904D02*
X182133333Y-57457904D01*
X181900000Y-57762666D01*
X182000000Y-57762666D01*
X182066666Y-57800761D01*
X182100000Y-57838857D01*
X182133333Y-57915047D01*
X182133333Y-58105523D01*
X182100000Y-58181714D01*
X182066666Y-58219809D01*
X182000000Y-58257904D01*
X181800000Y-58257904D01*
X181733333Y-58219809D01*
X181700000Y-58181714D01*
D10*
X151959494Y-25670975D02*
X152281946Y-25246159D01*
X152711879Y-26002935D01*
X152558335Y-24882032D02*
X152604399Y-24821344D01*
X152680808Y-24783688D01*
X152734184Y-24776376D01*
X152817905Y-24792097D01*
X152962313Y-24853882D01*
X153114033Y-24969044D01*
X153212377Y-25091517D01*
X153250032Y-25167926D01*
X153257344Y-25221302D01*
X153241623Y-25305023D01*
X153195559Y-25365711D01*
X153119150Y-25403366D01*
X153065774Y-25410678D01*
X152982053Y-25394957D01*
X152837645Y-25333172D01*
X152685925Y-25218010D01*
X152587581Y-25095537D01*
X152549926Y-25019128D01*
X152542614Y-24965752D01*
X152558335Y-24882032D01*
X148933221Y-31780543D02*
X149098030Y-31273313D01*
X149752926Y-31846603D01*
X149309927Y-30621160D02*
X149192207Y-30983467D01*
X149542742Y-31137418D01*
X149518283Y-31089416D01*
X149505596Y-31005182D01*
X149564457Y-30824029D01*
X149624232Y-30763339D01*
X149672235Y-30738881D01*
X149756468Y-30726194D01*
X149937622Y-30785054D01*
X149998311Y-30844829D01*
X150022770Y-30892832D01*
X150035456Y-30977066D01*
X149976596Y-31158219D01*
X149916821Y-31218909D01*
X149868818Y-31243367D01*
X148524761Y-37647142D02*
X148486666Y-37723333D01*
X148448571Y-37761428D01*
X148372380Y-37799523D01*
X148334285Y-37799523D01*
X148258095Y-37761428D01*
X148220000Y-37723333D01*
X148181904Y-37647142D01*
X148181904Y-37494761D01*
X148220000Y-37418571D01*
X148258095Y-37380476D01*
X148334285Y-37342380D01*
X148372380Y-37342380D01*
X148448571Y-37380476D01*
X148486666Y-37418571D01*
X148524761Y-37494761D01*
X148524761Y-37647142D01*
X148562857Y-37723333D01*
X148600952Y-37761428D01*
X148677142Y-37799523D01*
X148829523Y-37799523D01*
X148905714Y-37761428D01*
X148943809Y-37723333D01*
X148981904Y-37647142D01*
X148981904Y-37494761D01*
X148943809Y-37418571D01*
X148905714Y-37380476D01*
X148829523Y-37342380D01*
X148677142Y-37342380D01*
X148600952Y-37380476D01*
X148562857Y-37418571D01*
X148524761Y-37494761D01*
X148181904Y-36847142D02*
X148181904Y-36770952D01*
X148220000Y-36694761D01*
X148258095Y-36656666D01*
X148334285Y-36618571D01*
X148486666Y-36580476D01*
X148677142Y-36580476D01*
X148829523Y-36618571D01*
X148905714Y-36656666D01*
X148943809Y-36694761D01*
X148981904Y-36770952D01*
X148981904Y-36847142D01*
X148943809Y-36923333D01*
X148905714Y-36961428D01*
X148829523Y-36999523D01*
X148677142Y-37037619D01*
X148486666Y-37037619D01*
X148334285Y-36999523D01*
X148258095Y-36961428D01*
X148220000Y-36923333D01*
X148181904Y-36847142D01*
X150996006Y-47139816D02*
X151078999Y-47267613D01*
X151152445Y-47310764D01*
X151205142Y-47321965D01*
X151342487Y-47323619D01*
X151491032Y-47272576D01*
X151746627Y-47106591D01*
X151789778Y-47033145D01*
X151800979Y-46980448D01*
X151791432Y-46895801D01*
X151708439Y-46768003D01*
X151634994Y-46724853D01*
X151582296Y-46713652D01*
X151497649Y-46723199D01*
X151337902Y-46826939D01*
X151294752Y-46900385D01*
X151283551Y-46953083D01*
X151293098Y-47037729D01*
X151376090Y-47165527D01*
X151449536Y-47208677D01*
X151502233Y-47219879D01*
X151586880Y-47210332D01*
X152144150Y-47438940D02*
X152185647Y-47502839D01*
X152195194Y-47587486D01*
X152183993Y-47640183D01*
X152140842Y-47713629D01*
X152033793Y-47828571D01*
X151874046Y-47932311D01*
X151725500Y-47983355D01*
X151640853Y-47992902D01*
X151588156Y-47981700D01*
X151514710Y-47938550D01*
X151473214Y-47874651D01*
X151463667Y-47790004D01*
X151474868Y-47737307D01*
X151518019Y-47663861D01*
X151625068Y-47548919D01*
X151784815Y-47445178D01*
X151933360Y-47394135D01*
X152018007Y-47384588D01*
X152070705Y-47395789D01*
X152144150Y-47438940D01*
X155835801Y-52509301D02*
X155465965Y-52240599D01*
X155650883Y-52374950D02*
X156121112Y-51727737D01*
X155992297Y-51775412D01*
X155885874Y-51792268D01*
X155801842Y-51778304D01*
X156706686Y-52153181D02*
X156768325Y-52197965D01*
X156807573Y-52273568D01*
X156816001Y-52326780D01*
X156802037Y-52410811D01*
X156743289Y-52556481D01*
X156631330Y-52710580D01*
X156510943Y-52811467D01*
X156435340Y-52850714D01*
X156382128Y-52859142D01*
X156298097Y-52845178D01*
X156236458Y-52800395D01*
X156197210Y-52724791D01*
X156188782Y-52671580D01*
X156202746Y-52587549D01*
X156261494Y-52441878D01*
X156373453Y-52287780D01*
X156493840Y-52186893D01*
X156569443Y-52147645D01*
X156622655Y-52139217D01*
X156706686Y-52153181D01*
X157323080Y-52601018D02*
X157384719Y-52645801D01*
X157423967Y-52721405D01*
X157432394Y-52774616D01*
X157418431Y-52858647D01*
X157359683Y-53004318D01*
X157247724Y-53158416D01*
X157127337Y-53259303D01*
X157051734Y-53298551D01*
X156998522Y-53306979D01*
X156914491Y-53293015D01*
X156852851Y-53248231D01*
X156813604Y-53172628D01*
X156805176Y-53119416D01*
X156819140Y-53035385D01*
X156877888Y-52889715D01*
X156989847Y-52735616D01*
X157110234Y-52634729D01*
X157185837Y-52595482D01*
X157239048Y-52587054D01*
X157323080Y-52601018D01*
X161000935Y-55289382D02*
X160566166Y-55148117D01*
X160783550Y-55218750D02*
X161030764Y-54457905D01*
X160922986Y-54543053D01*
X160826981Y-54591970D01*
X160742747Y-54604657D01*
X161725549Y-55524824D02*
X161290780Y-55383559D01*
X161508165Y-55454191D02*
X161755378Y-54693346D01*
X161647601Y-54778494D01*
X161551595Y-54827411D01*
X161467362Y-54840098D01*
X162443762Y-54917016D02*
X162516224Y-54940560D01*
X162576913Y-55000335D01*
X162601372Y-55048337D01*
X162614058Y-55132571D01*
X162603201Y-55289266D01*
X162544340Y-55470420D01*
X162461021Y-55603570D01*
X162401246Y-55664260D01*
X162353244Y-55688718D01*
X162269010Y-55701405D01*
X162196549Y-55677861D01*
X162135859Y-55618086D01*
X162111401Y-55570083D01*
X162098714Y-55485850D01*
X162109572Y-55329155D01*
X162168432Y-55148001D01*
X162251751Y-55014850D01*
X162311526Y-54954161D01*
X162359529Y-54929702D01*
X162443762Y-54917016D01*
X166896666Y-56381904D02*
X166439523Y-56381904D01*
X166668095Y-56381904D02*
X166668095Y-55581904D01*
X166591904Y-55696190D01*
X166515714Y-55772380D01*
X166439523Y-55810476D01*
X167201428Y-55658095D02*
X167239523Y-55620000D01*
X167315714Y-55581904D01*
X167506190Y-55581904D01*
X167582380Y-55620000D01*
X167620476Y-55658095D01*
X167658571Y-55734285D01*
X167658571Y-55810476D01*
X167620476Y-55924761D01*
X167163333Y-56381904D01*
X167658571Y-56381904D01*
X168153809Y-55581904D02*
X168230000Y-55581904D01*
X168306190Y-55620000D01*
X168344285Y-55658095D01*
X168382380Y-55734285D01*
X168420476Y-55886666D01*
X168420476Y-56077142D01*
X168382380Y-56229523D01*
X168344285Y-56305714D01*
X168306190Y-56343809D01*
X168230000Y-56381904D01*
X168153809Y-56381904D01*
X168077619Y-56343809D01*
X168039523Y-56305714D01*
X168001428Y-56229523D01*
X167963333Y-56077142D01*
X167963333Y-55886666D01*
X168001428Y-55734285D01*
X168039523Y-55658095D01*
X168077619Y-55620000D01*
X168153809Y-55581904D01*
X175739097Y-54514587D02*
X175331780Y-54722126D01*
X175535439Y-54618357D02*
X175172246Y-53905551D01*
X175156245Y-54041970D01*
X175122948Y-54144446D01*
X175072357Y-54212979D01*
X176107945Y-53728076D02*
X176350073Y-54203279D01*
X175799870Y-53543006D02*
X175889578Y-54138627D01*
X176330838Y-53913793D01*
X176496027Y-53231051D02*
X176563914Y-53196461D01*
X176649095Y-53195815D01*
X176700333Y-53212463D01*
X176768866Y-53263054D01*
X176871988Y-53381532D01*
X176958463Y-53551247D01*
X176993699Y-53704315D01*
X176994346Y-53789496D01*
X176977697Y-53840734D01*
X176927106Y-53909267D01*
X176859220Y-53943856D01*
X176774039Y-53944503D01*
X176722801Y-53927855D01*
X176654268Y-53877263D01*
X176551145Y-53758786D01*
X176464671Y-53589070D01*
X176429435Y-53436003D01*
X176428788Y-53350822D01*
X176445436Y-53299584D01*
X176496027Y-53231051D01*
X181418725Y-50436524D02*
X181105789Y-50769766D01*
X181262257Y-50603145D02*
X180679082Y-50055507D01*
X180710237Y-50189282D01*
X180713621Y-50296978D01*
X180689236Y-50378597D01*
X181304954Y-49389022D02*
X181200642Y-49500103D01*
X181176256Y-49581721D01*
X181177948Y-49635569D01*
X181209103Y-49769344D01*
X181294106Y-49901426D01*
X181516268Y-50110050D01*
X181597886Y-50134436D01*
X181651735Y-50132743D01*
X181731661Y-50103281D01*
X181835973Y-49992200D01*
X181860358Y-49910581D01*
X181858666Y-49856733D01*
X181829204Y-49776807D01*
X181690353Y-49646417D01*
X181608734Y-49622031D01*
X181554886Y-49623724D01*
X181474960Y-49653186D01*
X181370648Y-49764267D01*
X181346262Y-49845885D01*
X181347954Y-49899734D01*
X181377417Y-49979660D01*
X181696124Y-48972468D02*
X181748280Y-48916928D01*
X181828206Y-48887465D01*
X181882054Y-48885773D01*
X181963672Y-48910159D01*
X182100831Y-48986700D01*
X182239682Y-49117090D01*
X182324685Y-49249173D01*
X182354148Y-49329099D01*
X182355840Y-49382947D01*
X182331454Y-49464565D01*
X182279298Y-49520106D01*
X182199372Y-49549568D01*
X182145524Y-49551261D01*
X182063906Y-49526875D01*
X181926747Y-49450333D01*
X181787895Y-49319943D01*
X181702893Y-49187861D01*
X181673430Y-49107935D01*
X181671738Y-49054087D01*
X181696124Y-48972468D01*
X184849734Y-43650164D02*
X184825275Y-43602161D01*
X184812588Y-43517927D01*
X184871449Y-43336774D01*
X184931224Y-43276084D01*
X184979226Y-43251626D01*
X185063460Y-43238939D01*
X185135921Y-43262483D01*
X185232842Y-43334030D01*
X185526345Y-43910064D01*
X185679382Y-43439064D01*
X185071574Y-42720851D02*
X185095118Y-42648390D01*
X185154893Y-42587701D01*
X185202896Y-42563242D01*
X185287129Y-42550555D01*
X185443824Y-42561413D01*
X185624978Y-42620273D01*
X185758129Y-42703592D01*
X185818818Y-42763367D01*
X185843277Y-42811370D01*
X185855963Y-42895603D01*
X185832419Y-42968065D01*
X185772644Y-43028754D01*
X185724642Y-43053213D01*
X185640408Y-43065900D01*
X185483713Y-43055042D01*
X185302560Y-42996182D01*
X185169409Y-42912863D01*
X185108719Y-42853088D01*
X185084261Y-42805085D01*
X185071574Y-42720851D01*
X185307016Y-41996237D02*
X185330560Y-41923775D01*
X185390335Y-41863086D01*
X185438337Y-41838627D01*
X185522571Y-41825941D01*
X185679266Y-41836798D01*
X185860420Y-41895659D01*
X185993570Y-41978978D01*
X186054260Y-42038753D01*
X186078718Y-42086755D01*
X186091405Y-42170989D01*
X186067861Y-42243450D01*
X186008086Y-42304140D01*
X185960083Y-42328598D01*
X185875850Y-42341285D01*
X185719155Y-42330427D01*
X185538001Y-42271567D01*
X185404850Y-42188248D01*
X185344161Y-42128473D01*
X185319702Y-42080470D01*
X185307016Y-41996237D01*
X185488807Y-30406391D02*
X185641844Y-30877390D01*
X185269593Y-30717952D01*
X185304910Y-30826644D01*
X185292223Y-30910878D01*
X185267764Y-30958881D01*
X185207075Y-31018655D01*
X185025921Y-31077516D01*
X184941688Y-31064829D01*
X184893685Y-31040371D01*
X184833910Y-30979681D01*
X184763278Y-30762297D01*
X184775964Y-30678063D01*
X184800423Y-30630061D01*
X185794881Y-31348390D02*
X185818425Y-31420851D01*
X185805738Y-31505085D01*
X185781280Y-31553088D01*
X185720590Y-31612863D01*
X185587439Y-31696182D01*
X185406286Y-31755042D01*
X185249591Y-31765900D01*
X185165357Y-31753213D01*
X185117355Y-31728754D01*
X185057580Y-31668065D01*
X185034036Y-31595603D01*
X185046722Y-31511370D01*
X185071181Y-31463367D01*
X185131870Y-31403592D01*
X185265021Y-31320273D01*
X185446175Y-31261413D01*
X185602870Y-31250555D01*
X185687103Y-31263242D01*
X185735106Y-31287701D01*
X185794881Y-31348390D01*
X186030322Y-32073004D02*
X186053866Y-32145466D01*
X186041180Y-32229699D01*
X186016721Y-32277702D01*
X185956032Y-32337477D01*
X185822881Y-32420796D01*
X185641727Y-32479656D01*
X185485032Y-32490514D01*
X185400799Y-32477827D01*
X185352796Y-32453369D01*
X185293021Y-32392679D01*
X185269477Y-32320218D01*
X185282164Y-32235984D01*
X185306622Y-32187982D01*
X185367312Y-32128207D01*
X185500462Y-32044888D01*
X185681616Y-31986027D01*
X185838311Y-31975170D01*
X185922545Y-31987856D01*
X185970547Y-32012315D01*
X186030322Y-32073004D01*
X180313343Y-22749472D02*
X180035640Y-22488692D01*
X179747090Y-22740317D01*
X179800939Y-22738624D01*
X179882557Y-22763010D01*
X180021408Y-22893400D01*
X180050871Y-22973326D01*
X180052563Y-23027174D01*
X180028177Y-23108793D01*
X179897787Y-23247644D01*
X179817861Y-23277106D01*
X179764013Y-23278799D01*
X179682394Y-23254413D01*
X179543543Y-23124023D01*
X179514081Y-23044097D01*
X179512389Y-22990249D01*
X180702126Y-23114564D02*
X180757667Y-23166720D01*
X180787129Y-23246646D01*
X180788821Y-23300494D01*
X180764436Y-23382113D01*
X180687894Y-23519272D01*
X180557504Y-23658123D01*
X180425422Y-23743126D01*
X180345496Y-23772588D01*
X180291647Y-23774280D01*
X180210029Y-23749895D01*
X180154488Y-23697739D01*
X180125026Y-23617813D01*
X180123334Y-23563964D01*
X180147719Y-23482346D01*
X180224261Y-23345187D01*
X180354651Y-23206336D01*
X180486733Y-23121333D01*
X180566659Y-23091870D01*
X180620508Y-23090178D01*
X180702126Y-23114564D01*
X181257531Y-23636124D02*
X181313071Y-23688280D01*
X181342534Y-23768206D01*
X181344226Y-23822054D01*
X181319840Y-23903672D01*
X181243299Y-24040831D01*
X181112909Y-24179682D01*
X180980826Y-24264685D01*
X180900900Y-24294148D01*
X180847052Y-24295840D01*
X180765434Y-24271454D01*
X180709893Y-24219298D01*
X180680431Y-24139372D01*
X180678738Y-24085524D01*
X180703124Y-24003906D01*
X180779666Y-23866747D01*
X180910056Y-23727895D01*
X181042138Y-23642893D01*
X181122064Y-23613430D01*
X181175912Y-23611738D01*
X181257531Y-23636124D01*
X186631904Y-36169523D02*
X186670000Y-36207619D01*
X186708095Y-36283809D01*
X186708095Y-36474285D01*
X186670000Y-36550476D01*
X186631904Y-36588571D01*
X186555714Y-36626666D01*
X186479523Y-36626666D01*
X186365238Y-36588571D01*
X185908095Y-36131428D01*
X185908095Y-36626666D01*
X186441428Y-37312380D02*
X185908095Y-37312380D01*
X186746190Y-37121904D02*
X186174761Y-36931428D01*
X186174761Y-37426666D01*
X186708095Y-37883809D02*
X186708095Y-37960000D01*
X186670000Y-38036190D01*
X186631904Y-38074285D01*
X186555714Y-38112380D01*
X186403333Y-38150476D01*
X186212857Y-38150476D01*
X186060476Y-38112380D01*
X185984285Y-38074285D01*
X185946190Y-38036190D01*
X185908095Y-37960000D01*
X185908095Y-37883809D01*
X185946190Y-37807619D01*
X185984285Y-37769523D01*
X186060476Y-37731428D01*
X186212857Y-37693333D01*
X186403333Y-37693333D01*
X186555714Y-37731428D01*
X186631904Y-37769523D01*
X186670000Y-37807619D01*
X186708095Y-37883809D01*
X171049962Y-18803825D02*
X171011347Y-18830864D01*
X170907078Y-18846326D01*
X170841424Y-18834749D01*
X170748732Y-18784558D01*
X170694655Y-18707327D01*
X170673404Y-18635885D01*
X170663730Y-18498789D01*
X170681095Y-18400308D01*
X170737075Y-18274789D01*
X170781479Y-18214923D01*
X170858709Y-18160846D01*
X170962978Y-18145384D01*
X171028632Y-18156961D01*
X171121324Y-18207152D01*
X171148363Y-18245767D01*
X172344313Y-18853901D02*
X172258040Y-19175876D01*
X172213831Y-18439337D02*
X172344313Y-18853901D01*
X172664596Y-18560119D01*
X171386201Y-18965872D02*
X171537709Y-18282465D01*
X171465562Y-18607897D02*
X171856081Y-18694473D01*
X171776719Y-19052448D02*
X171928227Y-18369041D01*
X169114170Y-17920694D02*
X169512648Y-17955556D01*
X169252400Y-18635461D02*
X169313409Y-17938125D01*
X175305184Y-19881291D02*
X175516656Y-19979902D01*
X175452327Y-20354477D02*
X175150224Y-20213604D01*
X175446057Y-19579189D01*
X175748160Y-19720062D01*
X173836147Y-19281712D02*
X174055408Y-19361517D01*
X174023970Y-19740273D02*
X173710739Y-19626266D01*
X173950153Y-18968481D01*
X174263384Y-19082488D01*
X172822242Y-19331845D02*
X173032736Y-18664243D01*
X173104917Y-19211266D01*
X173477804Y-18804573D01*
X173267310Y-19472175D01*
X174581919Y-19209309D02*
X174951471Y-19362382D01*
X174498816Y-19932561D02*
X174766695Y-19285846D01*
X176265965Y-20770932D02*
X176212912Y-20367520D01*
X175911160Y-20586232D02*
X176234384Y-19965325D01*
X176470921Y-20088458D01*
X176514663Y-20148808D01*
X176528839Y-20193767D01*
X176527622Y-20268292D01*
X176481447Y-20356993D01*
X176421097Y-20400736D01*
X176376139Y-20414911D01*
X176301613Y-20413695D01*
X176065077Y-20290562D01*
M02*
