G04 #@! TF.GenerationSoftware,KiCad,Pcbnew,5.1.8-1.fc33*
G04 #@! TF.CreationDate,2021-08-02T18:47:43+02:00*
G04 #@! TF.ProjectId,base24mm,62617365-3234-46d6-9d2e-6b696361645f,v2*
G04 #@! TF.SameCoordinates,Original*
G04 #@! TF.FileFunction,Profile,NP*
%FSLAX46Y46*%
G04 Gerber Fmt 4.6, Leading zero omitted, Abs format (unit mm)*
G04 Created by KiCad (PCBNEW 5.1.8-1.fc33) date 2021-08-02 18:47:43*
%MOMM*%
%LPD*%
G01*
G04 APERTURE LIST*
G04 #@! TA.AperFunction,Profile*
%ADD10C,0.200000*%
G04 #@! TD*
G04 APERTURE END LIST*
D10*
X208900000Y-146214372D02*
X233100000Y-146214372D01*
X233100000Y-144214372D02*
X233100000Y-146214372D01*
X208900000Y-144214372D02*
X208900000Y-146214372D01*
X233100000Y-144214372D02*
X208900000Y-144214372D01*
X236990000Y-145240000D02*
X235574840Y-148214080D01*
X237493266Y-108093707D02*
X235183680Y-97066100D01*
X206794100Y-97066100D02*
X235183680Y-97066100D01*
X208880000Y-101065628D02*
X208880000Y-99065628D01*
X233080000Y-99065628D02*
X208880000Y-99065628D01*
X208880000Y-101065628D02*
X233080000Y-101065628D01*
X233080000Y-101065628D02*
X233080000Y-99065628D01*
X208870000Y-104220000D02*
G75*
G03*
X208870000Y-104220000I-1200000J0D01*
G01*
X240750000Y-129910000D02*
G75*
G03*
X240750000Y-129910000I-1200000J0D01*
G01*
X235510000Y-104220000D02*
G75*
G03*
X235510000Y-104220000I-1200000J0D01*
G01*
X236990000Y-139580000D02*
X236990000Y-145240000D01*
X204990000Y-145240000D02*
X206405480Y-148214080D01*
X206405480Y-148214080D02*
X235574840Y-148214080D01*
X202400000Y-128010000D02*
G75*
G03*
X202400000Y-128010000I-1200000J0D01*
G01*
X204490001Y-108090001D02*
X206794100Y-97066100D01*
X204486734Y-137186293D02*
G75*
G02*
X204490001Y-108090001I16503266J14546293D01*
G01*
X237493266Y-108093707D02*
G75*
G02*
X237489999Y-137189999I-16503266J-14546293D01*
G01*
X204990000Y-139580000D02*
X204990000Y-145240000D01*
X204485040Y-137184371D02*
X204990000Y-139580000D01*
X237489999Y-137189999D02*
X236990000Y-139580000D01*
M02*
