G04 #@! TF.GenerationSoftware,KiCad,Pcbnew,5.1.8-1.fc33*
G04 #@! TF.CreationDate,2021-08-02T18:47:43+02:00*
G04 #@! TF.ProjectId,base24mm,62617365-3234-46d6-9d2e-6b696361645f,v2*
G04 #@! TF.SameCoordinates,Original*
G04 #@! TF.FileFunction,Legend,Top*
G04 #@! TF.FilePolarity,Positive*
%FSLAX46Y46*%
G04 Gerber Fmt 4.6, Leading zero omitted, Abs format (unit mm)*
G04 Created by KiCad (PCBNEW 5.1.8-1.fc33) date 2021-08-02 18:47:43*
%MOMM*%
%LPD*%
G01*
G04 APERTURE LIST*
%ADD10C,0.120000*%
%ADD11C,0.150000*%
%ADD12C,0.300000*%
%ADD13C,0.100000*%
%ADD14C,0.200000*%
G04 APERTURE END LIST*
D10*
X226573344Y-118226301D02*
G75*
G02*
X227975000Y-121325000I-5598344J-4398699D01*
G01*
X225373699Y-128223344D02*
G75*
G02*
X222275000Y-129625000I-4398699J5598344D01*
G01*
X215376656Y-127023699D02*
G75*
G02*
X213975000Y-123925000I5598344J4398699D01*
G01*
X216576301Y-117026656D02*
G75*
G02*
X219675000Y-115625000I4398699J-5598344D01*
G01*
X222398743Y-115631176D02*
G75*
G02*
X225400000Y-117025000I-1423743J-6993824D01*
G01*
X227968824Y-124048743D02*
G75*
G02*
X226575000Y-127050000I-6993824J1423743D01*
G01*
X219551257Y-129618824D02*
G75*
G02*
X216550000Y-128225000I1423743J6993824D01*
G01*
X213981176Y-121201257D02*
G75*
G02*
X215375000Y-118200000I6993824J-1423743D01*
G01*
X227320073Y-117229226D02*
G75*
G02*
X229250000Y-121525000I-6320073J-5420774D01*
G01*
X226420774Y-128970073D02*
G75*
G02*
X222125000Y-130900000I-5420774J6320073D01*
G01*
X214679927Y-128070774D02*
G75*
G02*
X212750000Y-123775000I6320073J5420774D01*
G01*
X215579226Y-116329927D02*
G75*
G02*
X219875000Y-114400000I5420774J-6320073D01*
G01*
X222169648Y-114410262D02*
G75*
G02*
X226400000Y-116325000I-1169648J-8214738D01*
G01*
X229214738Y-123794648D02*
G75*
G02*
X227300000Y-128025000I-8214738J1169648D01*
G01*
X219830352Y-130839738D02*
G75*
G02*
X215600000Y-128925000I1169648J8214738D01*
G01*
X212785262Y-121455352D02*
G75*
G02*
X214700000Y-117225000I8214738J-1169648D01*
G01*
D11*
X227995431Y-114265862D02*
X227288324Y-114972969D01*
X227894416Y-114366877D02*
X227995431Y-114366877D01*
X228146954Y-114417385D01*
X228298477Y-114568908D01*
X228348984Y-114720431D01*
X228298477Y-114871954D01*
X227742893Y-115427538D01*
X228702538Y-116286167D02*
X228551015Y-116235660D01*
X228348984Y-116033629D01*
X228298477Y-115882106D01*
X228348984Y-115730583D01*
X228753045Y-115326522D01*
X228904568Y-115276015D01*
X229056091Y-115326522D01*
X229258122Y-115528553D01*
X229308629Y-115680076D01*
X229258122Y-115831599D01*
X229157106Y-115932614D01*
X228551015Y-115528553D01*
X228222461Y-131211167D02*
X228373984Y-131160660D01*
X228576015Y-130958629D01*
X228626522Y-130807106D01*
X228576015Y-130655583D01*
X228525507Y-130605076D01*
X228373984Y-130554568D01*
X228222461Y-130605076D01*
X228070938Y-130756599D01*
X227919416Y-130807106D01*
X227767893Y-130756599D01*
X227717385Y-130706091D01*
X227666877Y-130554568D01*
X227717385Y-130403045D01*
X227868908Y-130251522D01*
X228020431Y-130201015D01*
X229535660Y-129897969D02*
X229485152Y-130049492D01*
X229283122Y-130251522D01*
X229131599Y-130302030D01*
X228980076Y-130251522D01*
X228576015Y-129847461D01*
X228525507Y-129695938D01*
X228576015Y-129544416D01*
X228778045Y-129342385D01*
X228929568Y-129291877D01*
X229081091Y-129342385D01*
X229182106Y-129443400D01*
X228778045Y-130049492D01*
X212337816Y-129771446D02*
X212388324Y-129922969D01*
X212590355Y-130125000D01*
X212741877Y-130175507D01*
X212893400Y-130125000D01*
X212943908Y-130074492D01*
X212994416Y-129922969D01*
X212943908Y-129771446D01*
X212792385Y-129619923D01*
X212741877Y-129468400D01*
X212792385Y-129316877D01*
X212842893Y-129266370D01*
X212994416Y-129215862D01*
X213145938Y-129266370D01*
X213297461Y-129417893D01*
X213347969Y-129569416D01*
X213802538Y-129922969D02*
X213297461Y-130832106D01*
X214004568Y-130529061D01*
X213701522Y-131236167D01*
X214610660Y-130731091D01*
X212514847Y-115755583D02*
X213221954Y-116462690D01*
X212615862Y-115856599D02*
X212615862Y-115755583D01*
X212666370Y-115604061D01*
X212817893Y-115452538D01*
X212969416Y-115402030D01*
X213120938Y-115452538D01*
X213676522Y-116008122D01*
X213373477Y-114896954D02*
X214282614Y-115402030D01*
X213979568Y-114694923D01*
X214686675Y-114997969D01*
X214181599Y-114088832D01*
D12*
X233454285Y-122481428D02*
X234287619Y-122481428D01*
X234644761Y-123790952D02*
X233454285Y-123790952D01*
X233454285Y-121290952D01*
X234644761Y-121290952D01*
X220275714Y-136651904D02*
X220632857Y-136770952D01*
X221228095Y-136770952D01*
X221466190Y-136651904D01*
X221585238Y-136532857D01*
X221704285Y-136294761D01*
X221704285Y-136056666D01*
X221585238Y-135818571D01*
X221466190Y-135699523D01*
X221228095Y-135580476D01*
X220751904Y-135461428D01*
X220513809Y-135342380D01*
X220394761Y-135223333D01*
X220275714Y-134985238D01*
X220275714Y-134747142D01*
X220394761Y-134509047D01*
X220513809Y-134390000D01*
X220751904Y-134270952D01*
X221347142Y-134270952D01*
X221704285Y-134390000D01*
X206938571Y-121270952D02*
X207533809Y-123770952D01*
X208010000Y-121985238D01*
X208486190Y-123770952D01*
X209081428Y-121270952D01*
X220285714Y-110780952D02*
X220285714Y-108280952D01*
X221714285Y-110780952D01*
X221714285Y-108280952D01*
D10*
X223300000Y-120350000D02*
X223200000Y-119550000D01*
X223300000Y-120350000D02*
X224050000Y-120450000D01*
D13*
G36*
X224050000Y-120450000D02*
G01*
X223300000Y-120350000D01*
X223200000Y-119550000D01*
X227550000Y-116100000D01*
X224050000Y-120450000D01*
G37*
X224050000Y-120450000D02*
X223300000Y-120350000D01*
X223200000Y-119550000D01*
X227550000Y-116100000D01*
X224050000Y-120450000D01*
D10*
X227550000Y-116100000D02*
X224050000Y-120450000D01*
X223200000Y-119550000D02*
X227550000Y-116100000D01*
X223300000Y-124950000D02*
X224100000Y-124850000D01*
X223300000Y-124950000D02*
X223200000Y-125700000D01*
D13*
G36*
X227550000Y-129200000D02*
G01*
X223200000Y-125700000D01*
X223300000Y-124950000D01*
X224100000Y-124850000D01*
X227550000Y-129200000D01*
G37*
X227550000Y-129200000D02*
X223200000Y-125700000D01*
X223300000Y-124950000D01*
X224100000Y-124850000D01*
X227550000Y-129200000D01*
D10*
X227550000Y-129200000D02*
X223200000Y-125700000D01*
X224100000Y-124850000D02*
X227550000Y-129200000D01*
X218700000Y-124950000D02*
X218800000Y-125750000D01*
X218700000Y-124950000D02*
X217950000Y-124850000D01*
D13*
G36*
X218700000Y-124950000D02*
G01*
X218800000Y-125750000D01*
X214450000Y-129200000D01*
X217950000Y-124850000D01*
X218700000Y-124950000D01*
G37*
X218700000Y-124950000D02*
X218800000Y-125750000D01*
X214450000Y-129200000D01*
X217950000Y-124850000D01*
X218700000Y-124950000D01*
D10*
X214450000Y-129200000D02*
X217950000Y-124850000D01*
X218800000Y-125750000D02*
X214450000Y-129200000D01*
D13*
G36*
X218800000Y-119600000D02*
G01*
X218700000Y-120350000D01*
X217900000Y-120450000D01*
X214450000Y-116100000D01*
X218800000Y-119600000D01*
G37*
X218800000Y-119600000D02*
X218700000Y-120350000D01*
X217900000Y-120450000D01*
X214450000Y-116100000D01*
X218800000Y-119600000D01*
D10*
X214450000Y-116100000D02*
X218800000Y-119600000D01*
X217900000Y-120450000D02*
X214450000Y-116100000D01*
X218700000Y-120350000D02*
X218800000Y-119600000D01*
X218700000Y-120350000D02*
X217900000Y-120450000D01*
X221000000Y-122650000D02*
X222900000Y-124550000D01*
X222900000Y-120750000D02*
X232000000Y-122650000D01*
X232000000Y-122650000D02*
X222900000Y-124550000D01*
D13*
G36*
X222900000Y-124550000D02*
G01*
X221000000Y-122650000D01*
X232000000Y-122650000D01*
X222900000Y-124550000D01*
G37*
X222900000Y-124550000D02*
X221000000Y-122650000D01*
X232000000Y-122650000D01*
X222900000Y-124550000D01*
D10*
X221000000Y-122650000D02*
X222900000Y-120750000D01*
X221000000Y-122650000D02*
X219100000Y-124550000D01*
X222900000Y-124550000D02*
X221000000Y-133650000D01*
X221000000Y-133650000D02*
X219100000Y-124550000D01*
D13*
G36*
X221000000Y-133650000D02*
G01*
X219100000Y-124550000D01*
X221000000Y-122650000D01*
X221000000Y-133650000D01*
G37*
X221000000Y-133650000D02*
X219100000Y-124550000D01*
X221000000Y-122650000D01*
X221000000Y-133650000D01*
D10*
X221000000Y-122650000D02*
X222900000Y-124550000D01*
X221000000Y-122650000D02*
X219100000Y-120750000D01*
X219100000Y-124550000D02*
X210000000Y-122650000D01*
X210000000Y-122650000D02*
X219100000Y-120750000D01*
D13*
G36*
X221000000Y-122650000D02*
G01*
X210000000Y-122650000D01*
X219100000Y-120750000D01*
X221000000Y-122650000D01*
G37*
X221000000Y-122650000D02*
X210000000Y-122650000D01*
X219100000Y-120750000D01*
X221000000Y-122650000D01*
D10*
X221000000Y-122650000D02*
X219100000Y-124550000D01*
D13*
G36*
X222900000Y-120750000D02*
G01*
X221000000Y-122650000D01*
X221000000Y-111650000D01*
X222900000Y-120750000D01*
G37*
X222900000Y-120750000D02*
X221000000Y-122650000D01*
X221000000Y-111650000D01*
X222900000Y-120750000D01*
D10*
X221000000Y-111650000D02*
X222900000Y-120750000D01*
X219100000Y-120750000D02*
X221000000Y-111650000D01*
X221000000Y-122650000D02*
X222900000Y-120750000D01*
X221000000Y-122650000D02*
X219100000Y-120750000D01*
D11*
X217074573Y-155947454D02*
X217074573Y-156614120D01*
X216836478Y-155566501D02*
X216598382Y-156280787D01*
X217217430Y-156280787D01*
X218026954Y-155614120D02*
X217836478Y-155614120D01*
X217741240Y-155661740D01*
X217693620Y-155709359D01*
X217598382Y-155852216D01*
X217550763Y-156042692D01*
X217550763Y-156423644D01*
X217598382Y-156518882D01*
X217646001Y-156566501D01*
X217741240Y-156614120D01*
X217931716Y-156614120D01*
X218026954Y-156566501D01*
X218074573Y-156518882D01*
X218122192Y-156423644D01*
X218122192Y-156185549D01*
X218074573Y-156090311D01*
X218026954Y-156042692D01*
X217931716Y-155995073D01*
X217741240Y-155995073D01*
X217646001Y-156042692D01*
X217598382Y-156090311D01*
X217550763Y-156185549D01*
X218598382Y-156566501D02*
X218598382Y-156614120D01*
X218550763Y-156709359D01*
X218503144Y-156756978D01*
X218979335Y-155709359D02*
X219026954Y-155661740D01*
X219122192Y-155614120D01*
X219360287Y-155614120D01*
X219455525Y-155661740D01*
X219503144Y-155709359D01*
X219550763Y-155804597D01*
X219550763Y-155899835D01*
X219503144Y-156042692D01*
X218931716Y-156614120D01*
X219550763Y-156614120D01*
X220122192Y-156042692D02*
X220026954Y-155995073D01*
X219979335Y-155947454D01*
X219931716Y-155852216D01*
X219931716Y-155804597D01*
X219979335Y-155709359D01*
X220026954Y-155661740D01*
X220122192Y-155614120D01*
X220312668Y-155614120D01*
X220407906Y-155661740D01*
X220455525Y-155709359D01*
X220503144Y-155804597D01*
X220503144Y-155852216D01*
X220455525Y-155947454D01*
X220407906Y-155995073D01*
X220312668Y-156042692D01*
X220122192Y-156042692D01*
X220026954Y-156090311D01*
X219979335Y-156137930D01*
X219931716Y-156233168D01*
X219931716Y-156423644D01*
X219979335Y-156518882D01*
X220026954Y-156566501D01*
X220122192Y-156614120D01*
X220312668Y-156614120D01*
X220407906Y-156566501D01*
X220455525Y-156518882D01*
X220503144Y-156423644D01*
X220503144Y-156233168D01*
X220455525Y-156137930D01*
X220407906Y-156090311D01*
X220312668Y-156042692D01*
X220979335Y-156614120D02*
X221169811Y-156614120D01*
X221265049Y-156566501D01*
X221312668Y-156518882D01*
X221407906Y-156376025D01*
X221455525Y-156185549D01*
X221455525Y-155804597D01*
X221407906Y-155709359D01*
X221360287Y-155661740D01*
X221265049Y-155614120D01*
X221074573Y-155614120D01*
X220979335Y-155661740D01*
X220931716Y-155709359D01*
X220884097Y-155804597D01*
X220884097Y-156042692D01*
X220931716Y-156137930D01*
X220979335Y-156185549D01*
X221074573Y-156233168D01*
X221265049Y-156233168D01*
X221360287Y-156185549D01*
X221407906Y-156137930D01*
X221455525Y-156042692D01*
X222646001Y-156614120D02*
X222646001Y-155947454D01*
X222646001Y-156042692D02*
X222693620Y-155995073D01*
X222788859Y-155947454D01*
X222931716Y-155947454D01*
X223026954Y-155995073D01*
X223074573Y-156090311D01*
X223074573Y-156614120D01*
X223074573Y-156090311D02*
X223122192Y-155995073D01*
X223217430Y-155947454D01*
X223360287Y-155947454D01*
X223455525Y-155995073D01*
X223503144Y-156090311D01*
X223503144Y-156614120D01*
X223979335Y-156614120D02*
X223979335Y-155947454D01*
X223979335Y-156042692D02*
X224026954Y-155995073D01*
X224122192Y-155947454D01*
X224265049Y-155947454D01*
X224360287Y-155995073D01*
X224407906Y-156090311D01*
X224407906Y-156614120D01*
X224407906Y-156090311D02*
X224455525Y-155995073D01*
X224550763Y-155947454D01*
X224693620Y-155947454D01*
X224788859Y-155995073D01*
X224836478Y-156090311D01*
X224836478Y-156614120D01*
D10*
X197596760Y-154891740D02*
X243885720Y-154891740D01*
X197596760Y-149263100D02*
X197596760Y-155478161D01*
X243885720Y-149263100D02*
X243885720Y-155478161D01*
X243885720Y-154891740D02*
X242759216Y-155478161D01*
X243885720Y-154891740D02*
X242759216Y-154305319D01*
X197596760Y-154891740D02*
X198723264Y-155478161D01*
X197596760Y-154891740D02*
X198723264Y-154305319D01*
D11*
X188535560Y-118941032D02*
X188535560Y-118464841D01*
X188059369Y-118417222D01*
X188106988Y-118464841D01*
X188154607Y-118560080D01*
X188154607Y-118798175D01*
X188106988Y-118893413D01*
X188059369Y-118941032D01*
X187964131Y-118988651D01*
X187726036Y-118988651D01*
X187630798Y-118941032D01*
X187583179Y-118893413D01*
X187535560Y-118798175D01*
X187535560Y-118560080D01*
X187583179Y-118464841D01*
X187630798Y-118417222D01*
X188202226Y-119845794D02*
X187535560Y-119845794D01*
X188583179Y-119607699D02*
X187868893Y-119369603D01*
X187868893Y-119988651D01*
X187583179Y-120417222D02*
X187535560Y-120417222D01*
X187440321Y-120369603D01*
X187392702Y-120321984D01*
X188440321Y-120798175D02*
X188487941Y-120845794D01*
X188535560Y-120941032D01*
X188535560Y-121179127D01*
X188487941Y-121274365D01*
X188440321Y-121321984D01*
X188345083Y-121369603D01*
X188249845Y-121369603D01*
X188106988Y-121321984D01*
X187535560Y-120750556D01*
X187535560Y-121369603D01*
X188535560Y-122274365D02*
X188535560Y-121798175D01*
X188059369Y-121750556D01*
X188106988Y-121798175D01*
X188154607Y-121893413D01*
X188154607Y-122131508D01*
X188106988Y-122226746D01*
X188059369Y-122274365D01*
X187964131Y-122321984D01*
X187726036Y-122321984D01*
X187630798Y-122274365D01*
X187583179Y-122226746D01*
X187535560Y-122131508D01*
X187535560Y-121893413D01*
X187583179Y-121798175D01*
X187630798Y-121750556D01*
X187535560Y-122798175D02*
X187535560Y-122988651D01*
X187583179Y-123083889D01*
X187630798Y-123131508D01*
X187773655Y-123226746D01*
X187964131Y-123274365D01*
X188345083Y-123274365D01*
X188440321Y-123226746D01*
X188487941Y-123179127D01*
X188535560Y-123083889D01*
X188535560Y-122893413D01*
X188487941Y-122798175D01*
X188440321Y-122750556D01*
X188345083Y-122702937D01*
X188106988Y-122702937D01*
X188011750Y-122750556D01*
X187964131Y-122798175D01*
X187916512Y-122893413D01*
X187916512Y-123083889D01*
X187964131Y-123179127D01*
X188011750Y-123226746D01*
X188106988Y-123274365D01*
X187535560Y-124464841D02*
X188202226Y-124464841D01*
X188106988Y-124464841D02*
X188154607Y-124512460D01*
X188202226Y-124607699D01*
X188202226Y-124750556D01*
X188154607Y-124845794D01*
X188059369Y-124893413D01*
X187535560Y-124893413D01*
X188059369Y-124893413D02*
X188154607Y-124941032D01*
X188202226Y-125036270D01*
X188202226Y-125179127D01*
X188154607Y-125274365D01*
X188059369Y-125321984D01*
X187535560Y-125321984D01*
X187535560Y-125798175D02*
X188202226Y-125798175D01*
X188106988Y-125798175D02*
X188154607Y-125845794D01*
X188202226Y-125941032D01*
X188202226Y-126083889D01*
X188154607Y-126179127D01*
X188059369Y-126226746D01*
X187535560Y-126226746D01*
X188059369Y-126226746D02*
X188154607Y-126274365D01*
X188202226Y-126369603D01*
X188202226Y-126512460D01*
X188154607Y-126607699D01*
X188059369Y-126655318D01*
X187535560Y-126655318D01*
D10*
X189257941Y-95430340D02*
X189257941Y-149689820D01*
X192356740Y-95430340D02*
X188671520Y-95430340D01*
X192356740Y-149689820D02*
X188671520Y-149689820D01*
X189257941Y-149689820D02*
X188671520Y-148563316D01*
X189257941Y-149689820D02*
X189844362Y-148563316D01*
X189257941Y-95430340D02*
X188671520Y-96556844D01*
X189257941Y-95430340D02*
X189844362Y-96556844D01*
D14*
X202400000Y-128010000D02*
G75*
G03*
X202400000Y-128010000I-1200000J0D01*
G01*
X235510000Y-104220000D02*
G75*
G03*
X235510000Y-104220000I-1200000J0D01*
G01*
X240750000Y-129910000D02*
G75*
G03*
X240750000Y-129910000I-1200000J0D01*
G01*
X208870000Y-104220000D02*
G75*
G03*
X208870000Y-104220000I-1200000J0D01*
G01*
D11*
X204455952Y-136102380D02*
X204455952Y-135102380D01*
X204694047Y-135102380D01*
X204836904Y-135150000D01*
X204932142Y-135245238D01*
X204979761Y-135340476D01*
X205027380Y-135530952D01*
X205027380Y-135673809D01*
X204979761Y-135864285D01*
X204932142Y-135959523D01*
X204836904Y-136054761D01*
X204694047Y-136102380D01*
X204455952Y-136102380D01*
X205836904Y-136054761D02*
X205741666Y-136102380D01*
X205551190Y-136102380D01*
X205455952Y-136054761D01*
X205408333Y-135959523D01*
X205408333Y-135578571D01*
X205455952Y-135483333D01*
X205551190Y-135435714D01*
X205741666Y-135435714D01*
X205836904Y-135483333D01*
X205884523Y-135578571D01*
X205884523Y-135673809D01*
X205408333Y-135769047D01*
X206265476Y-136054761D02*
X206360714Y-136102380D01*
X206551190Y-136102380D01*
X206646428Y-136054761D01*
X206694047Y-135959523D01*
X206694047Y-135911904D01*
X206646428Y-135816666D01*
X206551190Y-135769047D01*
X206408333Y-135769047D01*
X206313095Y-135721428D01*
X206265476Y-135626190D01*
X206265476Y-135578571D01*
X206313095Y-135483333D01*
X206408333Y-135435714D01*
X206551190Y-135435714D01*
X206646428Y-135483333D01*
X207122619Y-136102380D02*
X207122619Y-135435714D01*
X207122619Y-135102380D02*
X207075000Y-135150000D01*
X207122619Y-135197619D01*
X207170238Y-135150000D01*
X207122619Y-135102380D01*
X207122619Y-135197619D01*
X208027380Y-135435714D02*
X208027380Y-136245238D01*
X207979761Y-136340476D01*
X207932142Y-136388095D01*
X207836904Y-136435714D01*
X207694047Y-136435714D01*
X207598809Y-136388095D01*
X208027380Y-136054761D02*
X207932142Y-136102380D01*
X207741666Y-136102380D01*
X207646428Y-136054761D01*
X207598809Y-136007142D01*
X207551190Y-135911904D01*
X207551190Y-135626190D01*
X207598809Y-135530952D01*
X207646428Y-135483333D01*
X207741666Y-135435714D01*
X207932142Y-135435714D01*
X208027380Y-135483333D01*
X208503571Y-135435714D02*
X208503571Y-136102380D01*
X208503571Y-135530952D02*
X208551190Y-135483333D01*
X208646428Y-135435714D01*
X208789285Y-135435714D01*
X208884523Y-135483333D01*
X208932142Y-135578571D01*
X208932142Y-136102380D01*
X209789285Y-136054761D02*
X209694047Y-136102380D01*
X209503571Y-136102380D01*
X209408333Y-136054761D01*
X209360714Y-135959523D01*
X209360714Y-135578571D01*
X209408333Y-135483333D01*
X209503571Y-135435714D01*
X209694047Y-135435714D01*
X209789285Y-135483333D01*
X209836904Y-135578571D01*
X209836904Y-135673809D01*
X209360714Y-135769047D01*
X210694047Y-136102380D02*
X210694047Y-135102380D01*
X210694047Y-136054761D02*
X210598809Y-136102380D01*
X210408333Y-136102380D01*
X210313095Y-136054761D01*
X210265476Y-136007142D01*
X210217857Y-135911904D01*
X210217857Y-135626190D01*
X210265476Y-135530952D01*
X210313095Y-135483333D01*
X210408333Y-135435714D01*
X210598809Y-135435714D01*
X210694047Y-135483333D01*
X205813095Y-137752380D02*
X205813095Y-136752380D01*
X205813095Y-137133333D02*
X205908333Y-137085714D01*
X206098809Y-137085714D01*
X206194047Y-137133333D01*
X206241666Y-137180952D01*
X206289285Y-137276190D01*
X206289285Y-137561904D01*
X206241666Y-137657142D01*
X206194047Y-137704761D01*
X206098809Y-137752380D01*
X205908333Y-137752380D01*
X205813095Y-137704761D01*
X206622619Y-137085714D02*
X206860714Y-137752380D01*
X207098809Y-137085714D02*
X206860714Y-137752380D01*
X206765476Y-137990476D01*
X206717857Y-138038095D01*
X206622619Y-138085714D01*
X208575000Y-137228571D02*
X208717857Y-137276190D01*
X208765476Y-137323809D01*
X208813095Y-137419047D01*
X208813095Y-137561904D01*
X208765476Y-137657142D01*
X208717857Y-137704761D01*
X208622619Y-137752380D01*
X208241666Y-137752380D01*
X208241666Y-136752380D01*
X208575000Y-136752380D01*
X208670238Y-136800000D01*
X208717857Y-136847619D01*
X208765476Y-136942857D01*
X208765476Y-137038095D01*
X208717857Y-137133333D01*
X208670238Y-137180952D01*
X208575000Y-137228571D01*
X208241666Y-137228571D01*
X209670238Y-137752380D02*
X209670238Y-137228571D01*
X209622619Y-137133333D01*
X209527380Y-137085714D01*
X209336904Y-137085714D01*
X209241666Y-137133333D01*
X209670238Y-137704761D02*
X209575000Y-137752380D01*
X209336904Y-137752380D01*
X209241666Y-137704761D01*
X209194047Y-137609523D01*
X209194047Y-137514285D01*
X209241666Y-137419047D01*
X209336904Y-137371428D01*
X209575000Y-137371428D01*
X209670238Y-137323809D01*
X210146428Y-137752380D02*
X210146428Y-137085714D01*
X210146428Y-137276190D02*
X210194047Y-137180952D01*
X210241666Y-137133333D01*
X210336904Y-137085714D01*
X210432142Y-137085714D01*
X210622619Y-137085714D02*
X211003571Y-137085714D01*
X210765476Y-136752380D02*
X210765476Y-137609523D01*
X210813095Y-137704761D01*
X210908333Y-137752380D01*
X211003571Y-137752380D01*
D14*
X204100000Y-134203571D02*
X203957142Y-134132142D01*
X203885714Y-133989285D01*
X203885714Y-132703571D01*
X204671428Y-134203571D02*
X204671428Y-133203571D01*
X204671428Y-132703571D02*
X204600000Y-132775000D01*
X204671428Y-132846428D01*
X204742857Y-132775000D01*
X204671428Y-132703571D01*
X204671428Y-132846428D01*
X205385714Y-134203571D02*
X205385714Y-132703571D01*
X205385714Y-133275000D02*
X205528571Y-133203571D01*
X205814285Y-133203571D01*
X205957142Y-133275000D01*
X206028571Y-133346428D01*
X206100000Y-133489285D01*
X206100000Y-133917857D01*
X206028571Y-134060714D01*
X205957142Y-134132142D01*
X205814285Y-134203571D01*
X205528571Y-134203571D01*
X205385714Y-134132142D01*
X206742857Y-134203571D02*
X206742857Y-133203571D01*
X206742857Y-133489285D02*
X206814285Y-133346428D01*
X206885714Y-133275000D01*
X207028571Y-133203571D01*
X207171428Y-133203571D01*
X208314285Y-134203571D02*
X208314285Y-133417857D01*
X208242857Y-133275000D01*
X208100000Y-133203571D01*
X207814285Y-133203571D01*
X207671428Y-133275000D01*
X208314285Y-134132142D02*
X208171428Y-134203571D01*
X207814285Y-134203571D01*
X207671428Y-134132142D01*
X207600000Y-133989285D01*
X207600000Y-133846428D01*
X207671428Y-133703571D01*
X207814285Y-133632142D01*
X208171428Y-133632142D01*
X208314285Y-133560714D01*
X210171428Y-134203571D02*
X210171428Y-132703571D01*
X210671428Y-133775000D01*
X211171428Y-132703571D01*
X211171428Y-134203571D01*
X211885714Y-134203571D02*
X211885714Y-132703571D01*
X212028571Y-133632142D02*
X212457142Y-134203571D01*
X212457142Y-133203571D02*
X211885714Y-133775000D01*
X212957142Y-132703571D02*
X213957142Y-132703571D01*
X213314285Y-134203571D01*
M02*
