G04 #@! TF.GenerationSoftware,KiCad,Pcbnew,5.1.4-1.fc30*
G04 #@! TF.CreationDate,2020-10-18T16:33:26+02:00*
G04 #@! TF.ProjectId,venom,76656e6f-6d2e-46b6-9963-61645f706362,rev?*
G04 #@! TF.SameCoordinates,Original*
G04 #@! TF.FileFunction,Soldermask,Top*
G04 #@! TF.FilePolarity,Negative*
%FSLAX46Y46*%
G04 Gerber Fmt 4.6, Leading zero omitted, Abs format (unit mm)*
G04 Created by KiCad (PCBNEW 5.1.4-1.fc30) date 2020-10-18 16:33:26*
%MOMM*%
%LPD*%
G04 APERTURE LIST*
%ADD10C,0.125000*%
%ADD11C,0.100000*%
G04 APERTURE END LIST*
D10*
X167580476Y-138716785D02*
X167651904Y-138740595D01*
X167675714Y-138764404D01*
X167699523Y-138812023D01*
X167699523Y-138883452D01*
X167675714Y-138931071D01*
X167651904Y-138954880D01*
X167604285Y-138978690D01*
X167413809Y-138978690D01*
X167413809Y-138478690D01*
X167580476Y-138478690D01*
X167628095Y-138502500D01*
X167651904Y-138526309D01*
X167675714Y-138573928D01*
X167675714Y-138621547D01*
X167651904Y-138669166D01*
X167628095Y-138692976D01*
X167580476Y-138716785D01*
X167413809Y-138716785D01*
X168128095Y-138978690D02*
X168128095Y-138716785D01*
X168104285Y-138669166D01*
X168056666Y-138645357D01*
X167961428Y-138645357D01*
X167913809Y-138669166D01*
X168128095Y-138954880D02*
X168080476Y-138978690D01*
X167961428Y-138978690D01*
X167913809Y-138954880D01*
X167890000Y-138907261D01*
X167890000Y-138859642D01*
X167913809Y-138812023D01*
X167961428Y-138788214D01*
X168080476Y-138788214D01*
X168128095Y-138764404D01*
X168366190Y-138978690D02*
X168366190Y-138645357D01*
X168366190Y-138740595D02*
X168390000Y-138692976D01*
X168413809Y-138669166D01*
X168461428Y-138645357D01*
X168509047Y-138645357D01*
X168604285Y-138645357D02*
X168794761Y-138645357D01*
X168675714Y-138478690D02*
X168675714Y-138907261D01*
X168699523Y-138954880D01*
X168747142Y-138978690D01*
X168794761Y-138978690D01*
X168985238Y-138478690D02*
X168937619Y-138573928D01*
X169175714Y-138954880D02*
X169223333Y-138978690D01*
X169318571Y-138978690D01*
X169366190Y-138954880D01*
X169390000Y-138907261D01*
X169390000Y-138883452D01*
X169366190Y-138835833D01*
X169318571Y-138812023D01*
X169247142Y-138812023D01*
X169199523Y-138788214D01*
X169175714Y-138740595D01*
X169175714Y-138716785D01*
X169199523Y-138669166D01*
X169247142Y-138645357D01*
X169318571Y-138645357D01*
X169366190Y-138669166D01*
X167378095Y-139353690D02*
X167544761Y-139853690D01*
X167711428Y-139353690D01*
X167878095Y-139591785D02*
X168044761Y-139591785D01*
X168116190Y-139853690D02*
X167878095Y-139853690D01*
X167878095Y-139353690D01*
X168116190Y-139353690D01*
X168330476Y-139853690D02*
X168330476Y-139353690D01*
X168616190Y-139853690D01*
X168616190Y-139353690D01*
X168949523Y-139353690D02*
X169044761Y-139353690D01*
X169092380Y-139377500D01*
X169140000Y-139425119D01*
X169163809Y-139520357D01*
X169163809Y-139687023D01*
X169140000Y-139782261D01*
X169092380Y-139829880D01*
X169044761Y-139853690D01*
X168949523Y-139853690D01*
X168901904Y-139829880D01*
X168854285Y-139782261D01*
X168830476Y-139687023D01*
X168830476Y-139520357D01*
X168854285Y-139425119D01*
X168901904Y-139377500D01*
X168949523Y-139353690D01*
X169378095Y-139853690D02*
X169378095Y-139353690D01*
X169544761Y-139710833D01*
X169711428Y-139353690D01*
X169711428Y-139853690D01*
X170282857Y-139520357D02*
X170401904Y-139853690D01*
X170520952Y-139520357D01*
X170806666Y-139353690D02*
X170854285Y-139353690D01*
X170901904Y-139377500D01*
X170925714Y-139401309D01*
X170949523Y-139448928D01*
X170973333Y-139544166D01*
X170973333Y-139663214D01*
X170949523Y-139758452D01*
X170925714Y-139806071D01*
X170901904Y-139829880D01*
X170854285Y-139853690D01*
X170806666Y-139853690D01*
X170759047Y-139829880D01*
X170735238Y-139806071D01*
X170711428Y-139758452D01*
X170687619Y-139663214D01*
X170687619Y-139544166D01*
X170711428Y-139448928D01*
X170735238Y-139401309D01*
X170759047Y-139377500D01*
X170806666Y-139353690D01*
X171187619Y-139806071D02*
X171211428Y-139829880D01*
X171187619Y-139853690D01*
X171163809Y-139829880D01*
X171187619Y-139806071D01*
X171187619Y-139853690D01*
X171663809Y-139353690D02*
X171425714Y-139353690D01*
X171401904Y-139591785D01*
X171425714Y-139567976D01*
X171473333Y-139544166D01*
X171592380Y-139544166D01*
X171640000Y-139567976D01*
X171663809Y-139591785D01*
X171687619Y-139639404D01*
X171687619Y-139758452D01*
X171663809Y-139806071D01*
X171640000Y-139829880D01*
X171592380Y-139853690D01*
X171473333Y-139853690D01*
X171425714Y-139829880D01*
X171401904Y-139806071D01*
X171901904Y-139806071D02*
X171925714Y-139829880D01*
X171901904Y-139853690D01*
X171878095Y-139829880D01*
X171901904Y-139806071D01*
X171901904Y-139853690D01*
X172378095Y-139353690D02*
X172140000Y-139353690D01*
X172116190Y-139591785D01*
X172140000Y-139567976D01*
X172187619Y-139544166D01*
X172306666Y-139544166D01*
X172354285Y-139567976D01*
X172378095Y-139591785D01*
X172401904Y-139639404D01*
X172401904Y-139758452D01*
X172378095Y-139806071D01*
X172354285Y-139829880D01*
X172306666Y-139853690D01*
X172187619Y-139853690D01*
X172140000Y-139829880D01*
X172116190Y-139806071D01*
D11*
G36*
X168111000Y-134561000D02*
G01*
X166209000Y-134561000D01*
X166209000Y-130459000D01*
X168111000Y-130459000D01*
X168111000Y-134561000D01*
X168111000Y-134561000D01*
G37*
G36*
X152811000Y-134561000D02*
G01*
X150909000Y-134561000D01*
X150909000Y-130459000D01*
X152811000Y-130459000D01*
X152811000Y-134561000D01*
X152811000Y-134561000D01*
G37*
G36*
X172034591Y-131978085D02*
G01*
X172068569Y-131988393D01*
X172099890Y-132005134D01*
X172127339Y-132027661D01*
X172149866Y-132055110D01*
X172166607Y-132086431D01*
X172176915Y-132120409D01*
X172181000Y-132161890D01*
X172181000Y-132838110D01*
X172176915Y-132879591D01*
X172166607Y-132913569D01*
X172149866Y-132944890D01*
X172127339Y-132972339D01*
X172099890Y-132994866D01*
X172068569Y-133011607D01*
X172034591Y-133021915D01*
X171993110Y-133026000D01*
X171391890Y-133026000D01*
X171350409Y-133021915D01*
X171316431Y-133011607D01*
X171285110Y-132994866D01*
X171257661Y-132972339D01*
X171235134Y-132944890D01*
X171218393Y-132913569D01*
X171208085Y-132879591D01*
X171204000Y-132838110D01*
X171204000Y-132161890D01*
X171208085Y-132120409D01*
X171218393Y-132086431D01*
X171235134Y-132055110D01*
X171257661Y-132027661D01*
X171285110Y-132005134D01*
X171316431Y-131988393D01*
X171350409Y-131978085D01*
X171391890Y-131974000D01*
X171993110Y-131974000D01*
X172034591Y-131978085D01*
X172034591Y-131978085D01*
G37*
G36*
X173609591Y-131978085D02*
G01*
X173643569Y-131988393D01*
X173674890Y-132005134D01*
X173702339Y-132027661D01*
X173724866Y-132055110D01*
X173741607Y-132086431D01*
X173751915Y-132120409D01*
X173756000Y-132161890D01*
X173756000Y-132838110D01*
X173751915Y-132879591D01*
X173741607Y-132913569D01*
X173724866Y-132944890D01*
X173702339Y-132972339D01*
X173674890Y-132994866D01*
X173643569Y-133011607D01*
X173609591Y-133021915D01*
X173568110Y-133026000D01*
X172966890Y-133026000D01*
X172925409Y-133021915D01*
X172891431Y-133011607D01*
X172860110Y-132994866D01*
X172832661Y-132972339D01*
X172810134Y-132944890D01*
X172793393Y-132913569D01*
X172783085Y-132879591D01*
X172779000Y-132838110D01*
X172779000Y-132161890D01*
X172783085Y-132120409D01*
X172793393Y-132086431D01*
X172810134Y-132055110D01*
X172832661Y-132027661D01*
X172860110Y-132005134D01*
X172891431Y-131988393D01*
X172925409Y-131978085D01*
X172966890Y-131974000D01*
X173568110Y-131974000D01*
X173609591Y-131978085D01*
X173609591Y-131978085D01*
G37*
G36*
X170229591Y-132003085D02*
G01*
X170263569Y-132013393D01*
X170294890Y-132030134D01*
X170322339Y-132052661D01*
X170344866Y-132080110D01*
X170361607Y-132111431D01*
X170371915Y-132145409D01*
X170376000Y-132186890D01*
X170376000Y-132788110D01*
X170371915Y-132829591D01*
X170361607Y-132863569D01*
X170344866Y-132894890D01*
X170322339Y-132922339D01*
X170294890Y-132944866D01*
X170263569Y-132961607D01*
X170229591Y-132971915D01*
X170188110Y-132976000D01*
X169511890Y-132976000D01*
X169470409Y-132971915D01*
X169436431Y-132961607D01*
X169405110Y-132944866D01*
X169377661Y-132922339D01*
X169355134Y-132894890D01*
X169338393Y-132863569D01*
X169328085Y-132829591D01*
X169324000Y-132788110D01*
X169324000Y-132186890D01*
X169328085Y-132145409D01*
X169338393Y-132111431D01*
X169355134Y-132080110D01*
X169377661Y-132052661D01*
X169405110Y-132030134D01*
X169436431Y-132013393D01*
X169470409Y-132003085D01*
X169511890Y-131999000D01*
X170188110Y-131999000D01*
X170229591Y-132003085D01*
X170229591Y-132003085D01*
G37*
G36*
X143726559Y-131898154D02*
G01*
X142772198Y-132449155D01*
X141946197Y-131018480D01*
X142900558Y-130467479D01*
X143726559Y-131898154D01*
X143726559Y-131898154D01*
G37*
G36*
X165461000Y-132261000D02*
G01*
X153559000Y-132261000D01*
X153559000Y-129159000D01*
X165461000Y-129159000D01*
X165461000Y-132261000D01*
X165461000Y-132261000D01*
G37*
G36*
X145198803Y-131048154D02*
G01*
X144244442Y-131599155D01*
X143418441Y-130168480D01*
X144372802Y-129617479D01*
X145198803Y-131048154D01*
X145198803Y-131048154D01*
G37*
G36*
X170229591Y-130428085D02*
G01*
X170263569Y-130438393D01*
X170294890Y-130455134D01*
X170322339Y-130477661D01*
X170344866Y-130505110D01*
X170361607Y-130536431D01*
X170371915Y-130570409D01*
X170376000Y-130611890D01*
X170376000Y-131213110D01*
X170371915Y-131254591D01*
X170361607Y-131288569D01*
X170344866Y-131319890D01*
X170322339Y-131347339D01*
X170294890Y-131369866D01*
X170263569Y-131386607D01*
X170229591Y-131396915D01*
X170188110Y-131401000D01*
X169511890Y-131401000D01*
X169470409Y-131396915D01*
X169436431Y-131386607D01*
X169405110Y-131369866D01*
X169377661Y-131347339D01*
X169355134Y-131319890D01*
X169338393Y-131288569D01*
X169328085Y-131254591D01*
X169324000Y-131213110D01*
X169324000Y-130611890D01*
X169328085Y-130570409D01*
X169338393Y-130536431D01*
X169355134Y-130505110D01*
X169377661Y-130477661D01*
X169405110Y-130455134D01*
X169436431Y-130438393D01*
X169470409Y-130428085D01*
X169511890Y-130424000D01*
X170188110Y-130424000D01*
X170229591Y-130428085D01*
X170229591Y-130428085D01*
G37*
G36*
X172201000Y-130941000D02*
G01*
X171199000Y-130941000D01*
X171199000Y-130039000D01*
X172201000Y-130039000D01*
X172201000Y-130941000D01*
X172201000Y-130941000D01*
G37*
G36*
X174201000Y-129991000D02*
G01*
X173199000Y-129991000D01*
X173199000Y-129089000D01*
X174201000Y-129089000D01*
X174201000Y-129991000D01*
X174201000Y-129991000D01*
G37*
G36*
X172201000Y-129041000D02*
G01*
X171199000Y-129041000D01*
X171199000Y-128139000D01*
X172201000Y-128139000D01*
X172201000Y-129041000D01*
X172201000Y-129041000D01*
G37*
G36*
X141101559Y-127351520D02*
G01*
X140147198Y-127902521D01*
X139321197Y-126471846D01*
X140275558Y-125920845D01*
X141101559Y-127351520D01*
X141101559Y-127351520D01*
G37*
G36*
X165519591Y-126903085D02*
G01*
X165553569Y-126913393D01*
X165584890Y-126930134D01*
X165612339Y-126952661D01*
X165634866Y-126980110D01*
X165651607Y-127011431D01*
X165661915Y-127045409D01*
X165666000Y-127086890D01*
X165666000Y-127688110D01*
X165661915Y-127729591D01*
X165651607Y-127763569D01*
X165634866Y-127794890D01*
X165612339Y-127822339D01*
X165584890Y-127844866D01*
X165553569Y-127861607D01*
X165519591Y-127871915D01*
X165478110Y-127876000D01*
X164801890Y-127876000D01*
X164760409Y-127871915D01*
X164726431Y-127861607D01*
X164695110Y-127844866D01*
X164667661Y-127822339D01*
X164645134Y-127794890D01*
X164628393Y-127763569D01*
X164618085Y-127729591D01*
X164614000Y-127688110D01*
X164614000Y-127086890D01*
X164618085Y-127045409D01*
X164628393Y-127011431D01*
X164645134Y-126980110D01*
X164667661Y-126952661D01*
X164695110Y-126930134D01*
X164726431Y-126913393D01*
X164760409Y-126903085D01*
X164801890Y-126899000D01*
X165478110Y-126899000D01*
X165519591Y-126903085D01*
X165519591Y-126903085D01*
G37*
G36*
X163609591Y-126883085D02*
G01*
X163643569Y-126893393D01*
X163674890Y-126910134D01*
X163702339Y-126932661D01*
X163724866Y-126960110D01*
X163741607Y-126991431D01*
X163751915Y-127025409D01*
X163756000Y-127066890D01*
X163756000Y-127668110D01*
X163751915Y-127709591D01*
X163741607Y-127743569D01*
X163724866Y-127774890D01*
X163702339Y-127802339D01*
X163674890Y-127824866D01*
X163643569Y-127841607D01*
X163609591Y-127851915D01*
X163568110Y-127856000D01*
X162891890Y-127856000D01*
X162850409Y-127851915D01*
X162816431Y-127841607D01*
X162785110Y-127824866D01*
X162757661Y-127802339D01*
X162735134Y-127774890D01*
X162718393Y-127743569D01*
X162708085Y-127709591D01*
X162704000Y-127668110D01*
X162704000Y-127066890D01*
X162708085Y-127025409D01*
X162718393Y-126991431D01*
X162735134Y-126960110D01*
X162757661Y-126932661D01*
X162785110Y-126910134D01*
X162816431Y-126893393D01*
X162850409Y-126883085D01*
X162891890Y-126879000D01*
X163568110Y-126879000D01*
X163609591Y-126883085D01*
X163609591Y-126883085D01*
G37*
G36*
X142573803Y-126501520D02*
G01*
X141619442Y-127052521D01*
X140793441Y-125621846D01*
X141747802Y-125070845D01*
X142573803Y-126501520D01*
X142573803Y-126501520D01*
G37*
G36*
X165519591Y-125328085D02*
G01*
X165553569Y-125338393D01*
X165584890Y-125355134D01*
X165612339Y-125377661D01*
X165634866Y-125405110D01*
X165651607Y-125436431D01*
X165661915Y-125470409D01*
X165666000Y-125511890D01*
X165666000Y-126113110D01*
X165661915Y-126154591D01*
X165651607Y-126188569D01*
X165634866Y-126219890D01*
X165612339Y-126247339D01*
X165584890Y-126269866D01*
X165553569Y-126286607D01*
X165519591Y-126296915D01*
X165478110Y-126301000D01*
X164801890Y-126301000D01*
X164760409Y-126296915D01*
X164726431Y-126286607D01*
X164695110Y-126269866D01*
X164667661Y-126247339D01*
X164645134Y-126219890D01*
X164628393Y-126188569D01*
X164618085Y-126154591D01*
X164614000Y-126113110D01*
X164614000Y-125511890D01*
X164618085Y-125470409D01*
X164628393Y-125436431D01*
X164645134Y-125405110D01*
X164667661Y-125377661D01*
X164695110Y-125355134D01*
X164726431Y-125338393D01*
X164760409Y-125328085D01*
X164801890Y-125324000D01*
X165478110Y-125324000D01*
X165519591Y-125328085D01*
X165519591Y-125328085D01*
G37*
G36*
X163609591Y-125308085D02*
G01*
X163643569Y-125318393D01*
X163674890Y-125335134D01*
X163702339Y-125357661D01*
X163724866Y-125385110D01*
X163741607Y-125416431D01*
X163751915Y-125450409D01*
X163756000Y-125491890D01*
X163756000Y-126093110D01*
X163751915Y-126134591D01*
X163741607Y-126168569D01*
X163724866Y-126199890D01*
X163702339Y-126227339D01*
X163674890Y-126249866D01*
X163643569Y-126266607D01*
X163609591Y-126276915D01*
X163568110Y-126281000D01*
X162891890Y-126281000D01*
X162850409Y-126276915D01*
X162816431Y-126266607D01*
X162785110Y-126249866D01*
X162757661Y-126227339D01*
X162735134Y-126199890D01*
X162718393Y-126168569D01*
X162708085Y-126134591D01*
X162704000Y-126093110D01*
X162704000Y-125491890D01*
X162708085Y-125450409D01*
X162718393Y-125416431D01*
X162735134Y-125385110D01*
X162757661Y-125357661D01*
X162785110Y-125335134D01*
X162816431Y-125318393D01*
X162850409Y-125308085D01*
X162891890Y-125304000D01*
X163568110Y-125304000D01*
X163609591Y-125308085D01*
X163609591Y-125308085D01*
G37*
G36*
X171368604Y-124228347D02*
G01*
X171405144Y-124239432D01*
X171438821Y-124257433D01*
X171468341Y-124281659D01*
X171492567Y-124311179D01*
X171510568Y-124344856D01*
X171521653Y-124381396D01*
X171526000Y-124425538D01*
X171526000Y-125874462D01*
X171521653Y-125918604D01*
X171510568Y-125955144D01*
X171492567Y-125988821D01*
X171468341Y-126018341D01*
X171438821Y-126042567D01*
X171405144Y-126060568D01*
X171368604Y-126071653D01*
X171324462Y-126076000D01*
X170375538Y-126076000D01*
X170331396Y-126071653D01*
X170294856Y-126060568D01*
X170261179Y-126042567D01*
X170231659Y-126018341D01*
X170207433Y-125988821D01*
X170189432Y-125955144D01*
X170178347Y-125918604D01*
X170174000Y-125874462D01*
X170174000Y-124425538D01*
X170178347Y-124381396D01*
X170189432Y-124344856D01*
X170207433Y-124311179D01*
X170231659Y-124281659D01*
X170261179Y-124257433D01*
X170294856Y-124239432D01*
X170331396Y-124228347D01*
X170375538Y-124224000D01*
X171324462Y-124224000D01*
X171368604Y-124228347D01*
X171368604Y-124228347D01*
G37*
G36*
X168568604Y-124228347D02*
G01*
X168605144Y-124239432D01*
X168638821Y-124257433D01*
X168668341Y-124281659D01*
X168692567Y-124311179D01*
X168710568Y-124344856D01*
X168721653Y-124381396D01*
X168726000Y-124425538D01*
X168726000Y-125874462D01*
X168721653Y-125918604D01*
X168710568Y-125955144D01*
X168692567Y-125988821D01*
X168668341Y-126018341D01*
X168638821Y-126042567D01*
X168605144Y-126060568D01*
X168568604Y-126071653D01*
X168524462Y-126076000D01*
X167575538Y-126076000D01*
X167531396Y-126071653D01*
X167494856Y-126060568D01*
X167461179Y-126042567D01*
X167431659Y-126018341D01*
X167407433Y-125988821D01*
X167389432Y-125955144D01*
X167378347Y-125918604D01*
X167374000Y-125874462D01*
X167374000Y-124425538D01*
X167378347Y-124381396D01*
X167389432Y-124344856D01*
X167407433Y-124311179D01*
X167431659Y-124281659D01*
X167461179Y-124257433D01*
X167494856Y-124239432D01*
X167531396Y-124228347D01*
X167575538Y-124224000D01*
X168524462Y-124224000D01*
X168568604Y-124228347D01*
X168568604Y-124228347D01*
G37*
G36*
X144469591Y-124573085D02*
G01*
X144503569Y-124583393D01*
X144534890Y-124600134D01*
X144562339Y-124622661D01*
X144584866Y-124650110D01*
X144601607Y-124681431D01*
X144611915Y-124715409D01*
X144616000Y-124756890D01*
X144616000Y-125358110D01*
X144611915Y-125399591D01*
X144601607Y-125433569D01*
X144584866Y-125464890D01*
X144562339Y-125492339D01*
X144534890Y-125514866D01*
X144503569Y-125531607D01*
X144469591Y-125541915D01*
X144428110Y-125546000D01*
X143751890Y-125546000D01*
X143710409Y-125541915D01*
X143676431Y-125531607D01*
X143645110Y-125514866D01*
X143617661Y-125492339D01*
X143595134Y-125464890D01*
X143578393Y-125433569D01*
X143568085Y-125399591D01*
X143564000Y-125358110D01*
X143564000Y-124756890D01*
X143568085Y-124715409D01*
X143578393Y-124681431D01*
X143595134Y-124650110D01*
X143617661Y-124622661D01*
X143645110Y-124600134D01*
X143676431Y-124583393D01*
X143710409Y-124573085D01*
X143751890Y-124569000D01*
X144428110Y-124569000D01*
X144469591Y-124573085D01*
X144469591Y-124573085D01*
G37*
G36*
X158699591Y-124083085D02*
G01*
X158733569Y-124093393D01*
X158764890Y-124110134D01*
X158792339Y-124132661D01*
X158814866Y-124160110D01*
X158831607Y-124191431D01*
X158841915Y-124225409D01*
X158846000Y-124266890D01*
X158846000Y-124868110D01*
X158841915Y-124909591D01*
X158831607Y-124943569D01*
X158814866Y-124974890D01*
X158792339Y-125002339D01*
X158764890Y-125024866D01*
X158733569Y-125041607D01*
X158699591Y-125051915D01*
X158658110Y-125056000D01*
X157981890Y-125056000D01*
X157940409Y-125051915D01*
X157906431Y-125041607D01*
X157875110Y-125024866D01*
X157847661Y-125002339D01*
X157825134Y-124974890D01*
X157808393Y-124943569D01*
X157798085Y-124909591D01*
X157794000Y-124868110D01*
X157794000Y-124266890D01*
X157798085Y-124225409D01*
X157808393Y-124191431D01*
X157825134Y-124160110D01*
X157847661Y-124132661D01*
X157875110Y-124110134D01*
X157906431Y-124093393D01*
X157940409Y-124083085D01*
X157981890Y-124079000D01*
X158658110Y-124079000D01*
X158699591Y-124083085D01*
X158699591Y-124083085D01*
G37*
G36*
X157189591Y-124083085D02*
G01*
X157223569Y-124093393D01*
X157254890Y-124110134D01*
X157282339Y-124132661D01*
X157304866Y-124160110D01*
X157321607Y-124191431D01*
X157331915Y-124225409D01*
X157336000Y-124266890D01*
X157336000Y-124868110D01*
X157331915Y-124909591D01*
X157321607Y-124943569D01*
X157304866Y-124974890D01*
X157282339Y-125002339D01*
X157254890Y-125024866D01*
X157223569Y-125041607D01*
X157189591Y-125051915D01*
X157148110Y-125056000D01*
X156471890Y-125056000D01*
X156430409Y-125051915D01*
X156396431Y-125041607D01*
X156365110Y-125024866D01*
X156337661Y-125002339D01*
X156315134Y-124974890D01*
X156298393Y-124943569D01*
X156288085Y-124909591D01*
X156284000Y-124868110D01*
X156284000Y-124266890D01*
X156288085Y-124225409D01*
X156298393Y-124191431D01*
X156315134Y-124160110D01*
X156337661Y-124132661D01*
X156365110Y-124110134D01*
X156396431Y-124093393D01*
X156430409Y-124083085D01*
X156471890Y-124079000D01*
X157148110Y-124079000D01*
X157189591Y-124083085D01*
X157189591Y-124083085D01*
G37*
G36*
X155679591Y-124083085D02*
G01*
X155713569Y-124093393D01*
X155744890Y-124110134D01*
X155772339Y-124132661D01*
X155794866Y-124160110D01*
X155811607Y-124191431D01*
X155821915Y-124225409D01*
X155826000Y-124266890D01*
X155826000Y-124868110D01*
X155821915Y-124909591D01*
X155811607Y-124943569D01*
X155794866Y-124974890D01*
X155772339Y-125002339D01*
X155744890Y-125024866D01*
X155713569Y-125041607D01*
X155679591Y-125051915D01*
X155638110Y-125056000D01*
X154961890Y-125056000D01*
X154920409Y-125051915D01*
X154886431Y-125041607D01*
X154855110Y-125024866D01*
X154827661Y-125002339D01*
X154805134Y-124974890D01*
X154788393Y-124943569D01*
X154778085Y-124909591D01*
X154774000Y-124868110D01*
X154774000Y-124266890D01*
X154778085Y-124225409D01*
X154788393Y-124191431D01*
X154805134Y-124160110D01*
X154827661Y-124132661D01*
X154855110Y-124110134D01*
X154886431Y-124093393D01*
X154920409Y-124083085D01*
X154961890Y-124079000D01*
X155638110Y-124079000D01*
X155679591Y-124083085D01*
X155679591Y-124083085D01*
G37*
G36*
X154169591Y-124073085D02*
G01*
X154203569Y-124083393D01*
X154234890Y-124100134D01*
X154262339Y-124122661D01*
X154284866Y-124150110D01*
X154301607Y-124181431D01*
X154311915Y-124215409D01*
X154316000Y-124256890D01*
X154316000Y-124858110D01*
X154311915Y-124899591D01*
X154301607Y-124933569D01*
X154284866Y-124964890D01*
X154262339Y-124992339D01*
X154234890Y-125014866D01*
X154203569Y-125031607D01*
X154169591Y-125041915D01*
X154128110Y-125046000D01*
X153451890Y-125046000D01*
X153410409Y-125041915D01*
X153376431Y-125031607D01*
X153345110Y-125014866D01*
X153317661Y-124992339D01*
X153295134Y-124964890D01*
X153278393Y-124933569D01*
X153268085Y-124899591D01*
X153264000Y-124858110D01*
X153264000Y-124256890D01*
X153268085Y-124215409D01*
X153278393Y-124181431D01*
X153295134Y-124150110D01*
X153317661Y-124122661D01*
X153345110Y-124100134D01*
X153376431Y-124083393D01*
X153410409Y-124073085D01*
X153451890Y-124069000D01*
X154128110Y-124069000D01*
X154169591Y-124073085D01*
X154169591Y-124073085D01*
G37*
G36*
X148129591Y-124073085D02*
G01*
X148163569Y-124083393D01*
X148194890Y-124100134D01*
X148222339Y-124122661D01*
X148244866Y-124150110D01*
X148261607Y-124181431D01*
X148271915Y-124215409D01*
X148276000Y-124256890D01*
X148276000Y-124858110D01*
X148271915Y-124899591D01*
X148261607Y-124933569D01*
X148244866Y-124964890D01*
X148222339Y-124992339D01*
X148194890Y-125014866D01*
X148163569Y-125031607D01*
X148129591Y-125041915D01*
X148088110Y-125046000D01*
X147411890Y-125046000D01*
X147370409Y-125041915D01*
X147336431Y-125031607D01*
X147305110Y-125014866D01*
X147277661Y-124992339D01*
X147255134Y-124964890D01*
X147238393Y-124933569D01*
X147228085Y-124899591D01*
X147224000Y-124858110D01*
X147224000Y-124256890D01*
X147228085Y-124215409D01*
X147238393Y-124181431D01*
X147255134Y-124150110D01*
X147277661Y-124122661D01*
X147305110Y-124100134D01*
X147336431Y-124083393D01*
X147370409Y-124073085D01*
X147411890Y-124069000D01*
X148088110Y-124069000D01*
X148129591Y-124073085D01*
X148129591Y-124073085D01*
G37*
G36*
X149639591Y-124073085D02*
G01*
X149673569Y-124083393D01*
X149704890Y-124100134D01*
X149732339Y-124122661D01*
X149754866Y-124150110D01*
X149771607Y-124181431D01*
X149781915Y-124215409D01*
X149786000Y-124256890D01*
X149786000Y-124858110D01*
X149781915Y-124899591D01*
X149771607Y-124933569D01*
X149754866Y-124964890D01*
X149732339Y-124992339D01*
X149704890Y-125014866D01*
X149673569Y-125031607D01*
X149639591Y-125041915D01*
X149598110Y-125046000D01*
X148921890Y-125046000D01*
X148880409Y-125041915D01*
X148846431Y-125031607D01*
X148815110Y-125014866D01*
X148787661Y-124992339D01*
X148765134Y-124964890D01*
X148748393Y-124933569D01*
X148738085Y-124899591D01*
X148734000Y-124858110D01*
X148734000Y-124256890D01*
X148738085Y-124215409D01*
X148748393Y-124181431D01*
X148765134Y-124150110D01*
X148787661Y-124122661D01*
X148815110Y-124100134D01*
X148846431Y-124083393D01*
X148880409Y-124073085D01*
X148921890Y-124069000D01*
X149598110Y-124069000D01*
X149639591Y-124073085D01*
X149639591Y-124073085D01*
G37*
G36*
X152659591Y-124073085D02*
G01*
X152693569Y-124083393D01*
X152724890Y-124100134D01*
X152752339Y-124122661D01*
X152774866Y-124150110D01*
X152791607Y-124181431D01*
X152801915Y-124215409D01*
X152806000Y-124256890D01*
X152806000Y-124858110D01*
X152801915Y-124899591D01*
X152791607Y-124933569D01*
X152774866Y-124964890D01*
X152752339Y-124992339D01*
X152724890Y-125014866D01*
X152693569Y-125031607D01*
X152659591Y-125041915D01*
X152618110Y-125046000D01*
X151941890Y-125046000D01*
X151900409Y-125041915D01*
X151866431Y-125031607D01*
X151835110Y-125014866D01*
X151807661Y-124992339D01*
X151785134Y-124964890D01*
X151768393Y-124933569D01*
X151758085Y-124899591D01*
X151754000Y-124858110D01*
X151754000Y-124256890D01*
X151758085Y-124215409D01*
X151768393Y-124181431D01*
X151785134Y-124150110D01*
X151807661Y-124122661D01*
X151835110Y-124100134D01*
X151866431Y-124083393D01*
X151900409Y-124073085D01*
X151941890Y-124069000D01*
X152618110Y-124069000D01*
X152659591Y-124073085D01*
X152659591Y-124073085D01*
G37*
G36*
X151149591Y-124073085D02*
G01*
X151183569Y-124083393D01*
X151214890Y-124100134D01*
X151242339Y-124122661D01*
X151264866Y-124150110D01*
X151281607Y-124181431D01*
X151291915Y-124215409D01*
X151296000Y-124256890D01*
X151296000Y-124858110D01*
X151291915Y-124899591D01*
X151281607Y-124933569D01*
X151264866Y-124964890D01*
X151242339Y-124992339D01*
X151214890Y-125014866D01*
X151183569Y-125031607D01*
X151149591Y-125041915D01*
X151108110Y-125046000D01*
X150431890Y-125046000D01*
X150390409Y-125041915D01*
X150356431Y-125031607D01*
X150325110Y-125014866D01*
X150297661Y-124992339D01*
X150275134Y-124964890D01*
X150258393Y-124933569D01*
X150248085Y-124899591D01*
X150244000Y-124858110D01*
X150244000Y-124256890D01*
X150248085Y-124215409D01*
X150258393Y-124181431D01*
X150275134Y-124150110D01*
X150297661Y-124122661D01*
X150325110Y-124100134D01*
X150356431Y-124083393D01*
X150390409Y-124073085D01*
X150431890Y-124069000D01*
X151108110Y-124069000D01*
X151149591Y-124073085D01*
X151149591Y-124073085D01*
G37*
G36*
X144469591Y-122998085D02*
G01*
X144503569Y-123008393D01*
X144534890Y-123025134D01*
X144562339Y-123047661D01*
X144584866Y-123075110D01*
X144601607Y-123106431D01*
X144611915Y-123140409D01*
X144616000Y-123181890D01*
X144616000Y-123783110D01*
X144611915Y-123824591D01*
X144601607Y-123858569D01*
X144584866Y-123889890D01*
X144562339Y-123917339D01*
X144534890Y-123939866D01*
X144503569Y-123956607D01*
X144469591Y-123966915D01*
X144428110Y-123971000D01*
X143751890Y-123971000D01*
X143710409Y-123966915D01*
X143676431Y-123956607D01*
X143645110Y-123939866D01*
X143617661Y-123917339D01*
X143595134Y-123889890D01*
X143578393Y-123858569D01*
X143568085Y-123824591D01*
X143564000Y-123783110D01*
X143564000Y-123181890D01*
X143568085Y-123140409D01*
X143578393Y-123106431D01*
X143595134Y-123075110D01*
X143617661Y-123047661D01*
X143645110Y-123025134D01*
X143676431Y-123008393D01*
X143710409Y-122998085D01*
X143751890Y-122994000D01*
X144428110Y-122994000D01*
X144469591Y-122998085D01*
X144469591Y-122998085D01*
G37*
G36*
X158699591Y-122508085D02*
G01*
X158733569Y-122518393D01*
X158764890Y-122535134D01*
X158792339Y-122557661D01*
X158814866Y-122585110D01*
X158831607Y-122616431D01*
X158841915Y-122650409D01*
X158846000Y-122691890D01*
X158846000Y-123293110D01*
X158841915Y-123334591D01*
X158831607Y-123368569D01*
X158814866Y-123399890D01*
X158792339Y-123427339D01*
X158764890Y-123449866D01*
X158733569Y-123466607D01*
X158699591Y-123476915D01*
X158658110Y-123481000D01*
X157981890Y-123481000D01*
X157940409Y-123476915D01*
X157906431Y-123466607D01*
X157875110Y-123449866D01*
X157847661Y-123427339D01*
X157825134Y-123399890D01*
X157808393Y-123368569D01*
X157798085Y-123334591D01*
X157794000Y-123293110D01*
X157794000Y-122691890D01*
X157798085Y-122650409D01*
X157808393Y-122616431D01*
X157825134Y-122585110D01*
X157847661Y-122557661D01*
X157875110Y-122535134D01*
X157906431Y-122518393D01*
X157940409Y-122508085D01*
X157981890Y-122504000D01*
X158658110Y-122504000D01*
X158699591Y-122508085D01*
X158699591Y-122508085D01*
G37*
G36*
X155679591Y-122508085D02*
G01*
X155713569Y-122518393D01*
X155744890Y-122535134D01*
X155772339Y-122557661D01*
X155794866Y-122585110D01*
X155811607Y-122616431D01*
X155821915Y-122650409D01*
X155826000Y-122691890D01*
X155826000Y-123293110D01*
X155821915Y-123334591D01*
X155811607Y-123368569D01*
X155794866Y-123399890D01*
X155772339Y-123427339D01*
X155744890Y-123449866D01*
X155713569Y-123466607D01*
X155679591Y-123476915D01*
X155638110Y-123481000D01*
X154961890Y-123481000D01*
X154920409Y-123476915D01*
X154886431Y-123466607D01*
X154855110Y-123449866D01*
X154827661Y-123427339D01*
X154805134Y-123399890D01*
X154788393Y-123368569D01*
X154778085Y-123334591D01*
X154774000Y-123293110D01*
X154774000Y-122691890D01*
X154778085Y-122650409D01*
X154788393Y-122616431D01*
X154805134Y-122585110D01*
X154827661Y-122557661D01*
X154855110Y-122535134D01*
X154886431Y-122518393D01*
X154920409Y-122508085D01*
X154961890Y-122504000D01*
X155638110Y-122504000D01*
X155679591Y-122508085D01*
X155679591Y-122508085D01*
G37*
G36*
X157189591Y-122508085D02*
G01*
X157223569Y-122518393D01*
X157254890Y-122535134D01*
X157282339Y-122557661D01*
X157304866Y-122585110D01*
X157321607Y-122616431D01*
X157331915Y-122650409D01*
X157336000Y-122691890D01*
X157336000Y-123293110D01*
X157331915Y-123334591D01*
X157321607Y-123368569D01*
X157304866Y-123399890D01*
X157282339Y-123427339D01*
X157254890Y-123449866D01*
X157223569Y-123466607D01*
X157189591Y-123476915D01*
X157148110Y-123481000D01*
X156471890Y-123481000D01*
X156430409Y-123476915D01*
X156396431Y-123466607D01*
X156365110Y-123449866D01*
X156337661Y-123427339D01*
X156315134Y-123399890D01*
X156298393Y-123368569D01*
X156288085Y-123334591D01*
X156284000Y-123293110D01*
X156284000Y-122691890D01*
X156288085Y-122650409D01*
X156298393Y-122616431D01*
X156315134Y-122585110D01*
X156337661Y-122557661D01*
X156365110Y-122535134D01*
X156396431Y-122518393D01*
X156430409Y-122508085D01*
X156471890Y-122504000D01*
X157148110Y-122504000D01*
X157189591Y-122508085D01*
X157189591Y-122508085D01*
G37*
G36*
X152659591Y-122498085D02*
G01*
X152693569Y-122508393D01*
X152724890Y-122525134D01*
X152752339Y-122547661D01*
X152774866Y-122575110D01*
X152791607Y-122606431D01*
X152801915Y-122640409D01*
X152806000Y-122681890D01*
X152806000Y-123283110D01*
X152801915Y-123324591D01*
X152791607Y-123358569D01*
X152774866Y-123389890D01*
X152752339Y-123417339D01*
X152724890Y-123439866D01*
X152693569Y-123456607D01*
X152659591Y-123466915D01*
X152618110Y-123471000D01*
X151941890Y-123471000D01*
X151900409Y-123466915D01*
X151866431Y-123456607D01*
X151835110Y-123439866D01*
X151807661Y-123417339D01*
X151785134Y-123389890D01*
X151768393Y-123358569D01*
X151758085Y-123324591D01*
X151754000Y-123283110D01*
X151754000Y-122681890D01*
X151758085Y-122640409D01*
X151768393Y-122606431D01*
X151785134Y-122575110D01*
X151807661Y-122547661D01*
X151835110Y-122525134D01*
X151866431Y-122508393D01*
X151900409Y-122498085D01*
X151941890Y-122494000D01*
X152618110Y-122494000D01*
X152659591Y-122498085D01*
X152659591Y-122498085D01*
G37*
G36*
X149639591Y-122498085D02*
G01*
X149673569Y-122508393D01*
X149704890Y-122525134D01*
X149732339Y-122547661D01*
X149754866Y-122575110D01*
X149771607Y-122606431D01*
X149781915Y-122640409D01*
X149786000Y-122681890D01*
X149786000Y-123283110D01*
X149781915Y-123324591D01*
X149771607Y-123358569D01*
X149754866Y-123389890D01*
X149732339Y-123417339D01*
X149704890Y-123439866D01*
X149673569Y-123456607D01*
X149639591Y-123466915D01*
X149598110Y-123471000D01*
X148921890Y-123471000D01*
X148880409Y-123466915D01*
X148846431Y-123456607D01*
X148815110Y-123439866D01*
X148787661Y-123417339D01*
X148765134Y-123389890D01*
X148748393Y-123358569D01*
X148738085Y-123324591D01*
X148734000Y-123283110D01*
X148734000Y-122681890D01*
X148738085Y-122640409D01*
X148748393Y-122606431D01*
X148765134Y-122575110D01*
X148787661Y-122547661D01*
X148815110Y-122525134D01*
X148846431Y-122508393D01*
X148880409Y-122498085D01*
X148921890Y-122494000D01*
X149598110Y-122494000D01*
X149639591Y-122498085D01*
X149639591Y-122498085D01*
G37*
G36*
X151149591Y-122498085D02*
G01*
X151183569Y-122508393D01*
X151214890Y-122525134D01*
X151242339Y-122547661D01*
X151264866Y-122575110D01*
X151281607Y-122606431D01*
X151291915Y-122640409D01*
X151296000Y-122681890D01*
X151296000Y-123283110D01*
X151291915Y-123324591D01*
X151281607Y-123358569D01*
X151264866Y-123389890D01*
X151242339Y-123417339D01*
X151214890Y-123439866D01*
X151183569Y-123456607D01*
X151149591Y-123466915D01*
X151108110Y-123471000D01*
X150431890Y-123471000D01*
X150390409Y-123466915D01*
X150356431Y-123456607D01*
X150325110Y-123439866D01*
X150297661Y-123417339D01*
X150275134Y-123389890D01*
X150258393Y-123358569D01*
X150248085Y-123324591D01*
X150244000Y-123283110D01*
X150244000Y-122681890D01*
X150248085Y-122640409D01*
X150258393Y-122606431D01*
X150275134Y-122575110D01*
X150297661Y-122547661D01*
X150325110Y-122525134D01*
X150356431Y-122508393D01*
X150390409Y-122498085D01*
X150431890Y-122494000D01*
X151108110Y-122494000D01*
X151149591Y-122498085D01*
X151149591Y-122498085D01*
G37*
G36*
X154169591Y-122498085D02*
G01*
X154203569Y-122508393D01*
X154234890Y-122525134D01*
X154262339Y-122547661D01*
X154284866Y-122575110D01*
X154301607Y-122606431D01*
X154311915Y-122640409D01*
X154316000Y-122681890D01*
X154316000Y-123283110D01*
X154311915Y-123324591D01*
X154301607Y-123358569D01*
X154284866Y-123389890D01*
X154262339Y-123417339D01*
X154234890Y-123439866D01*
X154203569Y-123456607D01*
X154169591Y-123466915D01*
X154128110Y-123471000D01*
X153451890Y-123471000D01*
X153410409Y-123466915D01*
X153376431Y-123456607D01*
X153345110Y-123439866D01*
X153317661Y-123417339D01*
X153295134Y-123389890D01*
X153278393Y-123358569D01*
X153268085Y-123324591D01*
X153264000Y-123283110D01*
X153264000Y-122681890D01*
X153268085Y-122640409D01*
X153278393Y-122606431D01*
X153295134Y-122575110D01*
X153317661Y-122547661D01*
X153345110Y-122525134D01*
X153376431Y-122508393D01*
X153410409Y-122498085D01*
X153451890Y-122494000D01*
X154128110Y-122494000D01*
X154169591Y-122498085D01*
X154169591Y-122498085D01*
G37*
G36*
X148129591Y-122498085D02*
G01*
X148163569Y-122508393D01*
X148194890Y-122525134D01*
X148222339Y-122547661D01*
X148244866Y-122575110D01*
X148261607Y-122606431D01*
X148271915Y-122640409D01*
X148276000Y-122681890D01*
X148276000Y-123283110D01*
X148271915Y-123324591D01*
X148261607Y-123358569D01*
X148244866Y-123389890D01*
X148222339Y-123417339D01*
X148194890Y-123439866D01*
X148163569Y-123456607D01*
X148129591Y-123466915D01*
X148088110Y-123471000D01*
X147411890Y-123471000D01*
X147370409Y-123466915D01*
X147336431Y-123456607D01*
X147305110Y-123439866D01*
X147277661Y-123417339D01*
X147255134Y-123389890D01*
X147238393Y-123358569D01*
X147228085Y-123324591D01*
X147224000Y-123283110D01*
X147224000Y-122681890D01*
X147228085Y-122640409D01*
X147238393Y-122606431D01*
X147255134Y-122575110D01*
X147277661Y-122547661D01*
X147305110Y-122525134D01*
X147336431Y-122508393D01*
X147370409Y-122498085D01*
X147411890Y-122494000D01*
X148088110Y-122494000D01*
X148129591Y-122498085D01*
X148129591Y-122498085D01*
G37*
G36*
X180871000Y-118578500D02*
G01*
X178869000Y-118578500D01*
X178869000Y-117230999D01*
X178866598Y-117206613D01*
X178859485Y-117183164D01*
X178847934Y-117161553D01*
X178832389Y-117142611D01*
X178813447Y-117127066D01*
X178791836Y-117115515D01*
X178768387Y-117108402D01*
X178744001Y-117106000D01*
X178075999Y-117106000D01*
X178051613Y-117108402D01*
X178028164Y-117115515D01*
X178006553Y-117127066D01*
X177987611Y-117142611D01*
X177972066Y-117161553D01*
X177960515Y-117183164D01*
X177953402Y-117206613D01*
X177951000Y-117230999D01*
X177951000Y-120329001D01*
X177953402Y-120353387D01*
X177960515Y-120376836D01*
X177972066Y-120398447D01*
X177987611Y-120417389D01*
X178006553Y-120432934D01*
X178028164Y-120444485D01*
X178051613Y-120451598D01*
X178075999Y-120454000D01*
X178744001Y-120454000D01*
X178768387Y-120451598D01*
X178791836Y-120444485D01*
X178813447Y-120432934D01*
X178832389Y-120417389D01*
X178847934Y-120398447D01*
X178859485Y-120376836D01*
X178866598Y-120353387D01*
X178869000Y-120329001D01*
X178869000Y-118981500D01*
X180871000Y-118981500D01*
X180871000Y-122928500D01*
X178869000Y-122928500D01*
X178869000Y-122155999D01*
X178866598Y-122131613D01*
X178859485Y-122108164D01*
X178847934Y-122086553D01*
X178832389Y-122067611D01*
X178813447Y-122052066D01*
X178791836Y-122040515D01*
X178768387Y-122033402D01*
X178744001Y-122031000D01*
X176469000Y-122031000D01*
X176469000Y-115529000D01*
X178744001Y-115529000D01*
X178768387Y-115526598D01*
X178791836Y-115519485D01*
X178813447Y-115507934D01*
X178832389Y-115492389D01*
X178847934Y-115473447D01*
X178859485Y-115451836D01*
X178866598Y-115428387D01*
X178869000Y-115404001D01*
X178869000Y-114631500D01*
X180871000Y-114631500D01*
X180871000Y-118578500D01*
X180871000Y-118578500D01*
G37*
G36*
X139311000Y-122231000D02*
G01*
X138209000Y-122231000D01*
X138209000Y-120579000D01*
X139311000Y-120579000D01*
X139311000Y-122231000D01*
X139311000Y-122231000D01*
G37*
G36*
X141011000Y-122231000D02*
G01*
X139909000Y-122231000D01*
X139909000Y-120579000D01*
X141011000Y-120579000D01*
X141011000Y-122231000D01*
X141011000Y-122231000D01*
G37*
G36*
X173004591Y-120928085D02*
G01*
X173038569Y-120938393D01*
X173069890Y-120955134D01*
X173097339Y-120977661D01*
X173119866Y-121005110D01*
X173136607Y-121036431D01*
X173146915Y-121070409D01*
X173151000Y-121111890D01*
X173151000Y-121788110D01*
X173146915Y-121829591D01*
X173136607Y-121863569D01*
X173119866Y-121894890D01*
X173097339Y-121922339D01*
X173069890Y-121944866D01*
X173038569Y-121961607D01*
X173004591Y-121971915D01*
X172963110Y-121976000D01*
X172361890Y-121976000D01*
X172320409Y-121971915D01*
X172286431Y-121961607D01*
X172255110Y-121944866D01*
X172227661Y-121922339D01*
X172205134Y-121894890D01*
X172188393Y-121863569D01*
X172178085Y-121829591D01*
X172174000Y-121788110D01*
X172174000Y-121111890D01*
X172178085Y-121070409D01*
X172188393Y-121036431D01*
X172205134Y-121005110D01*
X172227661Y-120977661D01*
X172255110Y-120955134D01*
X172286431Y-120938393D01*
X172320409Y-120928085D01*
X172361890Y-120924000D01*
X172963110Y-120924000D01*
X173004591Y-120928085D01*
X173004591Y-120928085D01*
G37*
G36*
X174579591Y-120928085D02*
G01*
X174613569Y-120938393D01*
X174644890Y-120955134D01*
X174672339Y-120977661D01*
X174694866Y-121005110D01*
X174711607Y-121036431D01*
X174721915Y-121070409D01*
X174726000Y-121111890D01*
X174726000Y-121788110D01*
X174721915Y-121829591D01*
X174711607Y-121863569D01*
X174694866Y-121894890D01*
X174672339Y-121922339D01*
X174644890Y-121944866D01*
X174613569Y-121961607D01*
X174579591Y-121971915D01*
X174538110Y-121976000D01*
X173936890Y-121976000D01*
X173895409Y-121971915D01*
X173861431Y-121961607D01*
X173830110Y-121944866D01*
X173802661Y-121922339D01*
X173780134Y-121894890D01*
X173763393Y-121863569D01*
X173753085Y-121829591D01*
X173749000Y-121788110D01*
X173749000Y-121111890D01*
X173753085Y-121070409D01*
X173763393Y-121036431D01*
X173780134Y-121005110D01*
X173802661Y-120977661D01*
X173830110Y-120955134D01*
X173861431Y-120938393D01*
X173895409Y-120928085D01*
X173936890Y-120924000D01*
X174538110Y-120924000D01*
X174579591Y-120928085D01*
X174579591Y-120928085D01*
G37*
G36*
X145644591Y-119508085D02*
G01*
X145678569Y-119518393D01*
X145709890Y-119535134D01*
X145737339Y-119557661D01*
X145759866Y-119585110D01*
X145776607Y-119616431D01*
X145786915Y-119650409D01*
X145791000Y-119691890D01*
X145791000Y-120368110D01*
X145786915Y-120409591D01*
X145776607Y-120443569D01*
X145759866Y-120474890D01*
X145737339Y-120502339D01*
X145709890Y-120524866D01*
X145678569Y-120541607D01*
X145644591Y-120551915D01*
X145603110Y-120556000D01*
X145001890Y-120556000D01*
X144960409Y-120551915D01*
X144926431Y-120541607D01*
X144895110Y-120524866D01*
X144867661Y-120502339D01*
X144845134Y-120474890D01*
X144828393Y-120443569D01*
X144818085Y-120409591D01*
X144814000Y-120368110D01*
X144814000Y-119691890D01*
X144818085Y-119650409D01*
X144828393Y-119616431D01*
X144845134Y-119585110D01*
X144867661Y-119557661D01*
X144895110Y-119535134D01*
X144926431Y-119518393D01*
X144960409Y-119508085D01*
X145001890Y-119504000D01*
X145603110Y-119504000D01*
X145644591Y-119508085D01*
X145644591Y-119508085D01*
G37*
G36*
X147219591Y-119508085D02*
G01*
X147253569Y-119518393D01*
X147284890Y-119535134D01*
X147312339Y-119557661D01*
X147334866Y-119585110D01*
X147351607Y-119616431D01*
X147361915Y-119650409D01*
X147366000Y-119691890D01*
X147366000Y-120368110D01*
X147361915Y-120409591D01*
X147351607Y-120443569D01*
X147334866Y-120474890D01*
X147312339Y-120502339D01*
X147284890Y-120524866D01*
X147253569Y-120541607D01*
X147219591Y-120551915D01*
X147178110Y-120556000D01*
X146576890Y-120556000D01*
X146535409Y-120551915D01*
X146501431Y-120541607D01*
X146470110Y-120524866D01*
X146442661Y-120502339D01*
X146420134Y-120474890D01*
X146403393Y-120443569D01*
X146393085Y-120409591D01*
X146389000Y-120368110D01*
X146389000Y-119691890D01*
X146393085Y-119650409D01*
X146403393Y-119616431D01*
X146420134Y-119585110D01*
X146442661Y-119557661D01*
X146470110Y-119535134D01*
X146501431Y-119518393D01*
X146535409Y-119508085D01*
X146576890Y-119504000D01*
X147178110Y-119504000D01*
X147219591Y-119508085D01*
X147219591Y-119508085D01*
G37*
G36*
X149799591Y-119303085D02*
G01*
X149833569Y-119313393D01*
X149864890Y-119330134D01*
X149892339Y-119352661D01*
X149914866Y-119380110D01*
X149931607Y-119411431D01*
X149941915Y-119445409D01*
X149946000Y-119486890D01*
X149946000Y-120088110D01*
X149941915Y-120129591D01*
X149931607Y-120163569D01*
X149914866Y-120194890D01*
X149892339Y-120222339D01*
X149864890Y-120244866D01*
X149833569Y-120261607D01*
X149799591Y-120271915D01*
X149758110Y-120276000D01*
X149081890Y-120276000D01*
X149040409Y-120271915D01*
X149006431Y-120261607D01*
X148975110Y-120244866D01*
X148947661Y-120222339D01*
X148925134Y-120194890D01*
X148908393Y-120163569D01*
X148898085Y-120129591D01*
X148894000Y-120088110D01*
X148894000Y-119486890D01*
X148898085Y-119445409D01*
X148908393Y-119411431D01*
X148925134Y-119380110D01*
X148947661Y-119352661D01*
X148975110Y-119330134D01*
X149006431Y-119313393D01*
X149040409Y-119303085D01*
X149081890Y-119299000D01*
X149758110Y-119299000D01*
X149799591Y-119303085D01*
X149799591Y-119303085D01*
G37*
G36*
X158140051Y-118316284D02*
G01*
X158156443Y-118321257D01*
X158171555Y-118329334D01*
X158184798Y-118340202D01*
X158195667Y-118353447D01*
X158199761Y-118361106D01*
X158213374Y-118381480D01*
X158230701Y-118398807D01*
X158251076Y-118412421D01*
X158273714Y-118421798D01*
X158297748Y-118426579D01*
X158322252Y-118426579D01*
X158346285Y-118421799D01*
X158368924Y-118412421D01*
X158389298Y-118398808D01*
X158406625Y-118381481D01*
X158420239Y-118361106D01*
X158424333Y-118353447D01*
X158435202Y-118340202D01*
X158448445Y-118329334D01*
X158463557Y-118321257D01*
X158479949Y-118316284D01*
X158503141Y-118314000D01*
X158916859Y-118314000D01*
X158940051Y-118316284D01*
X158956443Y-118321257D01*
X158971555Y-118329334D01*
X158984798Y-118340202D01*
X158995667Y-118353447D01*
X158999761Y-118361106D01*
X159013374Y-118381480D01*
X159030701Y-118398807D01*
X159051076Y-118412421D01*
X159073714Y-118421798D01*
X159097748Y-118426579D01*
X159122252Y-118426579D01*
X159146285Y-118421799D01*
X159168924Y-118412421D01*
X159189298Y-118398808D01*
X159206625Y-118381481D01*
X159220239Y-118361106D01*
X159224333Y-118353447D01*
X159235202Y-118340202D01*
X159248445Y-118329334D01*
X159263557Y-118321257D01*
X159279949Y-118316284D01*
X159303141Y-118314000D01*
X159716859Y-118314000D01*
X159740051Y-118316284D01*
X159756443Y-118321257D01*
X159771555Y-118329334D01*
X159784798Y-118340202D01*
X159795667Y-118353447D01*
X159799761Y-118361106D01*
X159813374Y-118381480D01*
X159830701Y-118398807D01*
X159851076Y-118412421D01*
X159873714Y-118421798D01*
X159897748Y-118426579D01*
X159922252Y-118426579D01*
X159946285Y-118421799D01*
X159968924Y-118412421D01*
X159989298Y-118398808D01*
X160006625Y-118381481D01*
X160020239Y-118361106D01*
X160024333Y-118353447D01*
X160035202Y-118340202D01*
X160048445Y-118329334D01*
X160063557Y-118321257D01*
X160079949Y-118316284D01*
X160103141Y-118314000D01*
X160516859Y-118314000D01*
X160540051Y-118316284D01*
X160556443Y-118321257D01*
X160571555Y-118329334D01*
X160584798Y-118340202D01*
X160595667Y-118353447D01*
X160599761Y-118361106D01*
X160613374Y-118381480D01*
X160630701Y-118398807D01*
X160651076Y-118412421D01*
X160673714Y-118421798D01*
X160697748Y-118426579D01*
X160722252Y-118426579D01*
X160746285Y-118421799D01*
X160768924Y-118412421D01*
X160789298Y-118398808D01*
X160806625Y-118381481D01*
X160820239Y-118361106D01*
X160824333Y-118353447D01*
X160835202Y-118340202D01*
X160848445Y-118329334D01*
X160863557Y-118321257D01*
X160879949Y-118316284D01*
X160903141Y-118314000D01*
X161316859Y-118314000D01*
X161340051Y-118316284D01*
X161356443Y-118321257D01*
X161371555Y-118329334D01*
X161384798Y-118340202D01*
X161395667Y-118353447D01*
X161399761Y-118361106D01*
X161413374Y-118381480D01*
X161430701Y-118398807D01*
X161451076Y-118412421D01*
X161473714Y-118421798D01*
X161497748Y-118426579D01*
X161522252Y-118426579D01*
X161546285Y-118421799D01*
X161568924Y-118412421D01*
X161589298Y-118398808D01*
X161606625Y-118381481D01*
X161620239Y-118361106D01*
X161624333Y-118353447D01*
X161635202Y-118340202D01*
X161648445Y-118329334D01*
X161663557Y-118321257D01*
X161679949Y-118316284D01*
X161703141Y-118314000D01*
X162116859Y-118314000D01*
X162140051Y-118316284D01*
X162156443Y-118321257D01*
X162171555Y-118329334D01*
X162184798Y-118340202D01*
X162195667Y-118353447D01*
X162199761Y-118361106D01*
X162213374Y-118381480D01*
X162230701Y-118398807D01*
X162251076Y-118412421D01*
X162273714Y-118421798D01*
X162297748Y-118426579D01*
X162322252Y-118426579D01*
X162346285Y-118421799D01*
X162368924Y-118412421D01*
X162389298Y-118398808D01*
X162406625Y-118381481D01*
X162420239Y-118361106D01*
X162424333Y-118353447D01*
X162435202Y-118340202D01*
X162448445Y-118329334D01*
X162463557Y-118321257D01*
X162479949Y-118316284D01*
X162503141Y-118314000D01*
X162916859Y-118314000D01*
X162940051Y-118316284D01*
X162956443Y-118321257D01*
X162971555Y-118329334D01*
X162984798Y-118340202D01*
X162995667Y-118353447D01*
X162999761Y-118361106D01*
X163013374Y-118381480D01*
X163030701Y-118398807D01*
X163051076Y-118412421D01*
X163073714Y-118421798D01*
X163097748Y-118426579D01*
X163122252Y-118426579D01*
X163146285Y-118421799D01*
X163168924Y-118412421D01*
X163189298Y-118398808D01*
X163206625Y-118381481D01*
X163220239Y-118361106D01*
X163224333Y-118353447D01*
X163235202Y-118340202D01*
X163248445Y-118329334D01*
X163263557Y-118321257D01*
X163279949Y-118316284D01*
X163303141Y-118314000D01*
X163716859Y-118314000D01*
X163740051Y-118316284D01*
X163756443Y-118321257D01*
X163771555Y-118329334D01*
X163784798Y-118340202D01*
X163795666Y-118353445D01*
X163803743Y-118368557D01*
X163808716Y-118384949D01*
X163811000Y-118408141D01*
X163811000Y-119821859D01*
X163808716Y-119845051D01*
X163803743Y-119861443D01*
X163795666Y-119876555D01*
X163784798Y-119889798D01*
X163771555Y-119900666D01*
X163756443Y-119908743D01*
X163740051Y-119913716D01*
X163716859Y-119916000D01*
X163303141Y-119916000D01*
X163279949Y-119913716D01*
X163263557Y-119908743D01*
X163248445Y-119900666D01*
X163235202Y-119889798D01*
X163224333Y-119876553D01*
X163220239Y-119868894D01*
X163206626Y-119848520D01*
X163189299Y-119831193D01*
X163168924Y-119817579D01*
X163146286Y-119808202D01*
X163122252Y-119803421D01*
X163097748Y-119803421D01*
X163073715Y-119808201D01*
X163051076Y-119817579D01*
X163030702Y-119831192D01*
X163013375Y-119848519D01*
X162999761Y-119868894D01*
X162995667Y-119876553D01*
X162984798Y-119889798D01*
X162971555Y-119900666D01*
X162956443Y-119908743D01*
X162940051Y-119913716D01*
X162916859Y-119916000D01*
X162503141Y-119916000D01*
X162479949Y-119913716D01*
X162463557Y-119908743D01*
X162448445Y-119900666D01*
X162435202Y-119889798D01*
X162424333Y-119876553D01*
X162420239Y-119868894D01*
X162406626Y-119848520D01*
X162389299Y-119831193D01*
X162368924Y-119817579D01*
X162346286Y-119808202D01*
X162322252Y-119803421D01*
X162297748Y-119803421D01*
X162273715Y-119808201D01*
X162251076Y-119817579D01*
X162230702Y-119831192D01*
X162213375Y-119848519D01*
X162199761Y-119868894D01*
X162195667Y-119876553D01*
X162184798Y-119889798D01*
X162171555Y-119900666D01*
X162156443Y-119908743D01*
X162140051Y-119913716D01*
X162116859Y-119916000D01*
X161703141Y-119916000D01*
X161679949Y-119913716D01*
X161663557Y-119908743D01*
X161648445Y-119900666D01*
X161635202Y-119889798D01*
X161624333Y-119876553D01*
X161620239Y-119868894D01*
X161606626Y-119848520D01*
X161589299Y-119831193D01*
X161568924Y-119817579D01*
X161546286Y-119808202D01*
X161522252Y-119803421D01*
X161497748Y-119803421D01*
X161473715Y-119808201D01*
X161451076Y-119817579D01*
X161430702Y-119831192D01*
X161413375Y-119848519D01*
X161399761Y-119868894D01*
X161395667Y-119876553D01*
X161384798Y-119889798D01*
X161371555Y-119900666D01*
X161356443Y-119908743D01*
X161340051Y-119913716D01*
X161316859Y-119916000D01*
X160903141Y-119916000D01*
X160879949Y-119913716D01*
X160863557Y-119908743D01*
X160848445Y-119900666D01*
X160835202Y-119889798D01*
X160824333Y-119876553D01*
X160820239Y-119868894D01*
X160806626Y-119848520D01*
X160789299Y-119831193D01*
X160768924Y-119817579D01*
X160746286Y-119808202D01*
X160722252Y-119803421D01*
X160697748Y-119803421D01*
X160673715Y-119808201D01*
X160651076Y-119817579D01*
X160630702Y-119831192D01*
X160613375Y-119848519D01*
X160599761Y-119868894D01*
X160595667Y-119876553D01*
X160584798Y-119889798D01*
X160571555Y-119900666D01*
X160556443Y-119908743D01*
X160540051Y-119913716D01*
X160516859Y-119916000D01*
X160103141Y-119916000D01*
X160079949Y-119913716D01*
X160063557Y-119908743D01*
X160048445Y-119900666D01*
X160035202Y-119889798D01*
X160024333Y-119876553D01*
X160020239Y-119868894D01*
X160006626Y-119848520D01*
X159989299Y-119831193D01*
X159968924Y-119817579D01*
X159946286Y-119808202D01*
X159922252Y-119803421D01*
X159897748Y-119803421D01*
X159873715Y-119808201D01*
X159851076Y-119817579D01*
X159830702Y-119831192D01*
X159813375Y-119848519D01*
X159799761Y-119868894D01*
X159795667Y-119876553D01*
X159784798Y-119889798D01*
X159771555Y-119900666D01*
X159756443Y-119908743D01*
X159740051Y-119913716D01*
X159716859Y-119916000D01*
X159303141Y-119916000D01*
X159279949Y-119913716D01*
X159263557Y-119908743D01*
X159248445Y-119900666D01*
X159235202Y-119889798D01*
X159224333Y-119876553D01*
X159220239Y-119868894D01*
X159206626Y-119848520D01*
X159189299Y-119831193D01*
X159168924Y-119817579D01*
X159146286Y-119808202D01*
X159122252Y-119803421D01*
X159097748Y-119803421D01*
X159073715Y-119808201D01*
X159051076Y-119817579D01*
X159030702Y-119831192D01*
X159013375Y-119848519D01*
X158999761Y-119868894D01*
X158995667Y-119876553D01*
X158984798Y-119889798D01*
X158971555Y-119900666D01*
X158956443Y-119908743D01*
X158940051Y-119913716D01*
X158916859Y-119916000D01*
X158503141Y-119916000D01*
X158479949Y-119913716D01*
X158463557Y-119908743D01*
X158448445Y-119900666D01*
X158435202Y-119889798D01*
X158424333Y-119876553D01*
X158420239Y-119868894D01*
X158406626Y-119848520D01*
X158389299Y-119831193D01*
X158368924Y-119817579D01*
X158346286Y-119808202D01*
X158322252Y-119803421D01*
X158297748Y-119803421D01*
X158273715Y-119808201D01*
X158251076Y-119817579D01*
X158230702Y-119831192D01*
X158213375Y-119848519D01*
X158199761Y-119868894D01*
X158195667Y-119876553D01*
X158184798Y-119889798D01*
X158171555Y-119900666D01*
X158156443Y-119908743D01*
X158140051Y-119913716D01*
X158116859Y-119916000D01*
X157703141Y-119916000D01*
X157679949Y-119913716D01*
X157663557Y-119908743D01*
X157648445Y-119900666D01*
X157635202Y-119889798D01*
X157624334Y-119876555D01*
X157616257Y-119861443D01*
X157611284Y-119845051D01*
X157609000Y-119821859D01*
X157609000Y-118408141D01*
X157611284Y-118384949D01*
X157616257Y-118368557D01*
X157624334Y-118353445D01*
X157635202Y-118340202D01*
X157648445Y-118329334D01*
X157663557Y-118321257D01*
X157679949Y-118316284D01*
X157703141Y-118314000D01*
X158116859Y-118314000D01*
X158140051Y-118316284D01*
X158140051Y-118316284D01*
G37*
G36*
X174259591Y-117758085D02*
G01*
X174293569Y-117768393D01*
X174324890Y-117785134D01*
X174352339Y-117807661D01*
X174374866Y-117835110D01*
X174391607Y-117866431D01*
X174401915Y-117900409D01*
X174406000Y-117941890D01*
X174406000Y-118618110D01*
X174401915Y-118659591D01*
X174391607Y-118693569D01*
X174374866Y-118724890D01*
X174352339Y-118752339D01*
X174324890Y-118774866D01*
X174293569Y-118791607D01*
X174259591Y-118801915D01*
X174218110Y-118806000D01*
X173616890Y-118806000D01*
X173575409Y-118801915D01*
X173541431Y-118791607D01*
X173510110Y-118774866D01*
X173482661Y-118752339D01*
X173460134Y-118724890D01*
X173443393Y-118693569D01*
X173433085Y-118659591D01*
X173429000Y-118618110D01*
X173429000Y-117941890D01*
X173433085Y-117900409D01*
X173443393Y-117866431D01*
X173460134Y-117835110D01*
X173482661Y-117807661D01*
X173510110Y-117785134D01*
X173541431Y-117768393D01*
X173575409Y-117758085D01*
X173616890Y-117754000D01*
X174218110Y-117754000D01*
X174259591Y-117758085D01*
X174259591Y-117758085D01*
G37*
G36*
X172684591Y-117758085D02*
G01*
X172718569Y-117768393D01*
X172749890Y-117785134D01*
X172777339Y-117807661D01*
X172799866Y-117835110D01*
X172816607Y-117866431D01*
X172826915Y-117900409D01*
X172831000Y-117941890D01*
X172831000Y-118618110D01*
X172826915Y-118659591D01*
X172816607Y-118693569D01*
X172799866Y-118724890D01*
X172777339Y-118752339D01*
X172749890Y-118774866D01*
X172718569Y-118791607D01*
X172684591Y-118801915D01*
X172643110Y-118806000D01*
X172041890Y-118806000D01*
X172000409Y-118801915D01*
X171966431Y-118791607D01*
X171935110Y-118774866D01*
X171907661Y-118752339D01*
X171885134Y-118724890D01*
X171868393Y-118693569D01*
X171858085Y-118659591D01*
X171854000Y-118618110D01*
X171854000Y-117941890D01*
X171858085Y-117900409D01*
X171868393Y-117866431D01*
X171885134Y-117835110D01*
X171907661Y-117807661D01*
X171935110Y-117785134D01*
X171966431Y-117768393D01*
X172000409Y-117758085D01*
X172041890Y-117754000D01*
X172643110Y-117754000D01*
X172684591Y-117758085D01*
X172684591Y-117758085D01*
G37*
G36*
X145644591Y-117698085D02*
G01*
X145678569Y-117708393D01*
X145709890Y-117725134D01*
X145737339Y-117747661D01*
X145759866Y-117775110D01*
X145776607Y-117806431D01*
X145786915Y-117840409D01*
X145791000Y-117881890D01*
X145791000Y-118558110D01*
X145786915Y-118599591D01*
X145776607Y-118633569D01*
X145759866Y-118664890D01*
X145737339Y-118692339D01*
X145709890Y-118714866D01*
X145678569Y-118731607D01*
X145644591Y-118741915D01*
X145603110Y-118746000D01*
X145001890Y-118746000D01*
X144960409Y-118741915D01*
X144926431Y-118731607D01*
X144895110Y-118714866D01*
X144867661Y-118692339D01*
X144845134Y-118664890D01*
X144828393Y-118633569D01*
X144818085Y-118599591D01*
X144814000Y-118558110D01*
X144814000Y-117881890D01*
X144818085Y-117840409D01*
X144828393Y-117806431D01*
X144845134Y-117775110D01*
X144867661Y-117747661D01*
X144895110Y-117725134D01*
X144926431Y-117708393D01*
X144960409Y-117698085D01*
X145001890Y-117694000D01*
X145603110Y-117694000D01*
X145644591Y-117698085D01*
X145644591Y-117698085D01*
G37*
G36*
X147219591Y-117698085D02*
G01*
X147253569Y-117708393D01*
X147284890Y-117725134D01*
X147312339Y-117747661D01*
X147334866Y-117775110D01*
X147351607Y-117806431D01*
X147361915Y-117840409D01*
X147366000Y-117881890D01*
X147366000Y-118558110D01*
X147361915Y-118599591D01*
X147351607Y-118633569D01*
X147334866Y-118664890D01*
X147312339Y-118692339D01*
X147284890Y-118714866D01*
X147253569Y-118731607D01*
X147219591Y-118741915D01*
X147178110Y-118746000D01*
X146576890Y-118746000D01*
X146535409Y-118741915D01*
X146501431Y-118731607D01*
X146470110Y-118714866D01*
X146442661Y-118692339D01*
X146420134Y-118664890D01*
X146403393Y-118633569D01*
X146393085Y-118599591D01*
X146389000Y-118558110D01*
X146389000Y-117881890D01*
X146393085Y-117840409D01*
X146403393Y-117806431D01*
X146420134Y-117775110D01*
X146442661Y-117747661D01*
X146470110Y-117725134D01*
X146501431Y-117708393D01*
X146535409Y-117698085D01*
X146576890Y-117694000D01*
X147178110Y-117694000D01*
X147219591Y-117698085D01*
X147219591Y-117698085D01*
G37*
G36*
X149799591Y-117728085D02*
G01*
X149833569Y-117738393D01*
X149864890Y-117755134D01*
X149892339Y-117777661D01*
X149914866Y-117805110D01*
X149931607Y-117836431D01*
X149941915Y-117870409D01*
X149946000Y-117911890D01*
X149946000Y-118513110D01*
X149941915Y-118554591D01*
X149931607Y-118588569D01*
X149914866Y-118619890D01*
X149892339Y-118647339D01*
X149864890Y-118669866D01*
X149833569Y-118686607D01*
X149799591Y-118696915D01*
X149758110Y-118701000D01*
X149081890Y-118701000D01*
X149040409Y-118696915D01*
X149006431Y-118686607D01*
X148975110Y-118669866D01*
X148947661Y-118647339D01*
X148925134Y-118619890D01*
X148908393Y-118588569D01*
X148898085Y-118554591D01*
X148894000Y-118513110D01*
X148894000Y-117911890D01*
X148898085Y-117870409D01*
X148908393Y-117836431D01*
X148925134Y-117805110D01*
X148947661Y-117777661D01*
X148975110Y-117755134D01*
X149006431Y-117738393D01*
X149040409Y-117728085D01*
X149081890Y-117724000D01*
X149758110Y-117724000D01*
X149799591Y-117728085D01*
X149799591Y-117728085D01*
G37*
G36*
X165615051Y-111841284D02*
G01*
X165631443Y-111846257D01*
X165646555Y-111854334D01*
X165659798Y-111865202D01*
X165670666Y-111878445D01*
X165678743Y-111893557D01*
X165683716Y-111909949D01*
X165686000Y-111933141D01*
X165686000Y-112346859D01*
X165683716Y-112370051D01*
X165678743Y-112386443D01*
X165670666Y-112401555D01*
X165659798Y-112414798D01*
X165646553Y-112425667D01*
X165638894Y-112429761D01*
X165618520Y-112443374D01*
X165601193Y-112460701D01*
X165587579Y-112481076D01*
X165578202Y-112503714D01*
X165573421Y-112527748D01*
X165573421Y-112552252D01*
X165578201Y-112576285D01*
X165587579Y-112598924D01*
X165601192Y-112619298D01*
X165618519Y-112636625D01*
X165638894Y-112650239D01*
X165646553Y-112654333D01*
X165659798Y-112665202D01*
X165670666Y-112678445D01*
X165678743Y-112693557D01*
X165683716Y-112709949D01*
X165686000Y-112733141D01*
X165686000Y-113146859D01*
X165683716Y-113170051D01*
X165678743Y-113186443D01*
X165670666Y-113201555D01*
X165659798Y-113214798D01*
X165646553Y-113225667D01*
X165638894Y-113229761D01*
X165618520Y-113243374D01*
X165601193Y-113260701D01*
X165587579Y-113281076D01*
X165578202Y-113303714D01*
X165573421Y-113327748D01*
X165573421Y-113352252D01*
X165578201Y-113376285D01*
X165587579Y-113398924D01*
X165601192Y-113419298D01*
X165618519Y-113436625D01*
X165638894Y-113450239D01*
X165646553Y-113454333D01*
X165659798Y-113465202D01*
X165670666Y-113478445D01*
X165678743Y-113493557D01*
X165683716Y-113509949D01*
X165686000Y-113533141D01*
X165686000Y-113946859D01*
X165683716Y-113970051D01*
X165678743Y-113986443D01*
X165670666Y-114001555D01*
X165659798Y-114014798D01*
X165646553Y-114025667D01*
X165638894Y-114029761D01*
X165618520Y-114043374D01*
X165601193Y-114060701D01*
X165587579Y-114081076D01*
X165578202Y-114103714D01*
X165573421Y-114127748D01*
X165573421Y-114152252D01*
X165578201Y-114176285D01*
X165587579Y-114198924D01*
X165601192Y-114219298D01*
X165618519Y-114236625D01*
X165638894Y-114250239D01*
X165646553Y-114254333D01*
X165659798Y-114265202D01*
X165670666Y-114278445D01*
X165678743Y-114293557D01*
X165683716Y-114309949D01*
X165686000Y-114333141D01*
X165686000Y-114746859D01*
X165683716Y-114770051D01*
X165678743Y-114786443D01*
X165670666Y-114801555D01*
X165659798Y-114814798D01*
X165646553Y-114825667D01*
X165638894Y-114829761D01*
X165618520Y-114843374D01*
X165601193Y-114860701D01*
X165587579Y-114881076D01*
X165578202Y-114903714D01*
X165573421Y-114927748D01*
X165573421Y-114952252D01*
X165578201Y-114976285D01*
X165587579Y-114998924D01*
X165601192Y-115019298D01*
X165618519Y-115036625D01*
X165638894Y-115050239D01*
X165646553Y-115054333D01*
X165659798Y-115065202D01*
X165670666Y-115078445D01*
X165678743Y-115093557D01*
X165683716Y-115109949D01*
X165686000Y-115133141D01*
X165686000Y-115546859D01*
X165683716Y-115570051D01*
X165678743Y-115586443D01*
X165670666Y-115601555D01*
X165659798Y-115614798D01*
X165646553Y-115625667D01*
X165638894Y-115629761D01*
X165618520Y-115643374D01*
X165601193Y-115660701D01*
X165587579Y-115681076D01*
X165578202Y-115703714D01*
X165573421Y-115727748D01*
X165573421Y-115752252D01*
X165578201Y-115776285D01*
X165587579Y-115798924D01*
X165601192Y-115819298D01*
X165618519Y-115836625D01*
X165638894Y-115850239D01*
X165646553Y-115854333D01*
X165659798Y-115865202D01*
X165670666Y-115878445D01*
X165678743Y-115893557D01*
X165683716Y-115909949D01*
X165686000Y-115933141D01*
X165686000Y-116346859D01*
X165683716Y-116370051D01*
X165678743Y-116386443D01*
X165670666Y-116401555D01*
X165659798Y-116414798D01*
X165646553Y-116425667D01*
X165638894Y-116429761D01*
X165618520Y-116443374D01*
X165601193Y-116460701D01*
X165587579Y-116481076D01*
X165578202Y-116503714D01*
X165573421Y-116527748D01*
X165573421Y-116552252D01*
X165578201Y-116576285D01*
X165587579Y-116598924D01*
X165601192Y-116619298D01*
X165618519Y-116636625D01*
X165638894Y-116650239D01*
X165646553Y-116654333D01*
X165659798Y-116665202D01*
X165670666Y-116678445D01*
X165678743Y-116693557D01*
X165683716Y-116709949D01*
X165686000Y-116733141D01*
X165686000Y-117146859D01*
X165683716Y-117170051D01*
X165678743Y-117186443D01*
X165670666Y-117201555D01*
X165659798Y-117214798D01*
X165646553Y-117225667D01*
X165638894Y-117229761D01*
X165618520Y-117243374D01*
X165601193Y-117260701D01*
X165587579Y-117281076D01*
X165578202Y-117303714D01*
X165573421Y-117327748D01*
X165573421Y-117352252D01*
X165578201Y-117376285D01*
X165587579Y-117398924D01*
X165601192Y-117419298D01*
X165618519Y-117436625D01*
X165638894Y-117450239D01*
X165646553Y-117454333D01*
X165659798Y-117465202D01*
X165670666Y-117478445D01*
X165678743Y-117493557D01*
X165683716Y-117509949D01*
X165686000Y-117533141D01*
X165686000Y-117946859D01*
X165683716Y-117970051D01*
X165678743Y-117986443D01*
X165670666Y-118001555D01*
X165659798Y-118014798D01*
X165646555Y-118025666D01*
X165631443Y-118033743D01*
X165615051Y-118038716D01*
X165591859Y-118041000D01*
X164178141Y-118041000D01*
X164154949Y-118038716D01*
X164138557Y-118033743D01*
X164123445Y-118025666D01*
X164110202Y-118014798D01*
X164099334Y-118001555D01*
X164091257Y-117986443D01*
X164086284Y-117970051D01*
X164084000Y-117946859D01*
X164084000Y-117533141D01*
X164086284Y-117509949D01*
X164091257Y-117493557D01*
X164099334Y-117478445D01*
X164110202Y-117465202D01*
X164123447Y-117454333D01*
X164131106Y-117450239D01*
X164151480Y-117436626D01*
X164168807Y-117419299D01*
X164182421Y-117398924D01*
X164191798Y-117376286D01*
X164196579Y-117352252D01*
X164196579Y-117327748D01*
X164191799Y-117303715D01*
X164182421Y-117281076D01*
X164168808Y-117260702D01*
X164151481Y-117243375D01*
X164131106Y-117229761D01*
X164123447Y-117225667D01*
X164110202Y-117214798D01*
X164099334Y-117201555D01*
X164091257Y-117186443D01*
X164086284Y-117170051D01*
X164084000Y-117146859D01*
X164084000Y-116733141D01*
X164086284Y-116709949D01*
X164091257Y-116693557D01*
X164099334Y-116678445D01*
X164110202Y-116665202D01*
X164123447Y-116654333D01*
X164131106Y-116650239D01*
X164151480Y-116636626D01*
X164168807Y-116619299D01*
X164182421Y-116598924D01*
X164191798Y-116576286D01*
X164196579Y-116552252D01*
X164196579Y-116527748D01*
X164191799Y-116503715D01*
X164182421Y-116481076D01*
X164168808Y-116460702D01*
X164151481Y-116443375D01*
X164131106Y-116429761D01*
X164123447Y-116425667D01*
X164110202Y-116414798D01*
X164099334Y-116401555D01*
X164091257Y-116386443D01*
X164086284Y-116370051D01*
X164084000Y-116346859D01*
X164084000Y-115933141D01*
X164086284Y-115909949D01*
X164091257Y-115893557D01*
X164099334Y-115878445D01*
X164110202Y-115865202D01*
X164123447Y-115854333D01*
X164131106Y-115850239D01*
X164151480Y-115836626D01*
X164168807Y-115819299D01*
X164182421Y-115798924D01*
X164191798Y-115776286D01*
X164196579Y-115752252D01*
X164196579Y-115727748D01*
X164191799Y-115703715D01*
X164182421Y-115681076D01*
X164168808Y-115660702D01*
X164151481Y-115643375D01*
X164131106Y-115629761D01*
X164123447Y-115625667D01*
X164110202Y-115614798D01*
X164099334Y-115601555D01*
X164091257Y-115586443D01*
X164086284Y-115570051D01*
X164084000Y-115546859D01*
X164084000Y-115133141D01*
X164086284Y-115109949D01*
X164091257Y-115093557D01*
X164099334Y-115078445D01*
X164110202Y-115065202D01*
X164123447Y-115054333D01*
X164131106Y-115050239D01*
X164151480Y-115036626D01*
X164168807Y-115019299D01*
X164182421Y-114998924D01*
X164191798Y-114976286D01*
X164196579Y-114952252D01*
X164196579Y-114927748D01*
X164191799Y-114903715D01*
X164182421Y-114881076D01*
X164168808Y-114860702D01*
X164151481Y-114843375D01*
X164131106Y-114829761D01*
X164123447Y-114825667D01*
X164110202Y-114814798D01*
X164099334Y-114801555D01*
X164091257Y-114786443D01*
X164086284Y-114770051D01*
X164084000Y-114746859D01*
X164084000Y-114333141D01*
X164086284Y-114309949D01*
X164091257Y-114293557D01*
X164099334Y-114278445D01*
X164110202Y-114265202D01*
X164123447Y-114254333D01*
X164131106Y-114250239D01*
X164151480Y-114236626D01*
X164168807Y-114219299D01*
X164182421Y-114198924D01*
X164191798Y-114176286D01*
X164196579Y-114152252D01*
X164196579Y-114127748D01*
X164191799Y-114103715D01*
X164182421Y-114081076D01*
X164168808Y-114060702D01*
X164151481Y-114043375D01*
X164131106Y-114029761D01*
X164123447Y-114025667D01*
X164110202Y-114014798D01*
X164099334Y-114001555D01*
X164091257Y-113986443D01*
X164086284Y-113970051D01*
X164084000Y-113946859D01*
X164084000Y-113533141D01*
X164086284Y-113509949D01*
X164091257Y-113493557D01*
X164099334Y-113478445D01*
X164110202Y-113465202D01*
X164123447Y-113454333D01*
X164131106Y-113450239D01*
X164151480Y-113436626D01*
X164168807Y-113419299D01*
X164182421Y-113398924D01*
X164191798Y-113376286D01*
X164196579Y-113352252D01*
X164196579Y-113327748D01*
X164191799Y-113303715D01*
X164182421Y-113281076D01*
X164168808Y-113260702D01*
X164151481Y-113243375D01*
X164131106Y-113229761D01*
X164123447Y-113225667D01*
X164110202Y-113214798D01*
X164099334Y-113201555D01*
X164091257Y-113186443D01*
X164086284Y-113170051D01*
X164084000Y-113146859D01*
X164084000Y-112733141D01*
X164086284Y-112709949D01*
X164091257Y-112693557D01*
X164099334Y-112678445D01*
X164110202Y-112665202D01*
X164123447Y-112654333D01*
X164131106Y-112650239D01*
X164151480Y-112636626D01*
X164168807Y-112619299D01*
X164182421Y-112598924D01*
X164191798Y-112576286D01*
X164196579Y-112552252D01*
X164196579Y-112527748D01*
X164191799Y-112503715D01*
X164182421Y-112481076D01*
X164168808Y-112460702D01*
X164151481Y-112443375D01*
X164131106Y-112429761D01*
X164123447Y-112425667D01*
X164110202Y-112414798D01*
X164099334Y-112401555D01*
X164091257Y-112386443D01*
X164086284Y-112370051D01*
X164084000Y-112346859D01*
X164084000Y-111933141D01*
X164086284Y-111909949D01*
X164091257Y-111893557D01*
X164099334Y-111878445D01*
X164110202Y-111865202D01*
X164123445Y-111854334D01*
X164138557Y-111846257D01*
X164154949Y-111841284D01*
X164178141Y-111839000D01*
X165591859Y-111839000D01*
X165615051Y-111841284D01*
X165615051Y-111841284D01*
G37*
G36*
X157265051Y-111841284D02*
G01*
X157281443Y-111846257D01*
X157296555Y-111854334D01*
X157309798Y-111865202D01*
X157320666Y-111878445D01*
X157328743Y-111893557D01*
X157333716Y-111909949D01*
X157336000Y-111933141D01*
X157336000Y-112346859D01*
X157333716Y-112370051D01*
X157328743Y-112386443D01*
X157320666Y-112401555D01*
X157309798Y-112414798D01*
X157296553Y-112425667D01*
X157288894Y-112429761D01*
X157268520Y-112443374D01*
X157251193Y-112460701D01*
X157237579Y-112481076D01*
X157228202Y-112503714D01*
X157223421Y-112527748D01*
X157223421Y-112552252D01*
X157228201Y-112576285D01*
X157237579Y-112598924D01*
X157251192Y-112619298D01*
X157268519Y-112636625D01*
X157288894Y-112650239D01*
X157296553Y-112654333D01*
X157309798Y-112665202D01*
X157320666Y-112678445D01*
X157328743Y-112693557D01*
X157333716Y-112709949D01*
X157336000Y-112733141D01*
X157336000Y-113146859D01*
X157333716Y-113170051D01*
X157328743Y-113186443D01*
X157320666Y-113201555D01*
X157309798Y-113214798D01*
X157296553Y-113225667D01*
X157288894Y-113229761D01*
X157268520Y-113243374D01*
X157251193Y-113260701D01*
X157237579Y-113281076D01*
X157228202Y-113303714D01*
X157223421Y-113327748D01*
X157223421Y-113352252D01*
X157228201Y-113376285D01*
X157237579Y-113398924D01*
X157251192Y-113419298D01*
X157268519Y-113436625D01*
X157288894Y-113450239D01*
X157296553Y-113454333D01*
X157309798Y-113465202D01*
X157320666Y-113478445D01*
X157328743Y-113493557D01*
X157333716Y-113509949D01*
X157336000Y-113533141D01*
X157336000Y-113946859D01*
X157333716Y-113970051D01*
X157328743Y-113986443D01*
X157320666Y-114001555D01*
X157309798Y-114014798D01*
X157296553Y-114025667D01*
X157288894Y-114029761D01*
X157268520Y-114043374D01*
X157251193Y-114060701D01*
X157237579Y-114081076D01*
X157228202Y-114103714D01*
X157223421Y-114127748D01*
X157223421Y-114152252D01*
X157228201Y-114176285D01*
X157237579Y-114198924D01*
X157251192Y-114219298D01*
X157268519Y-114236625D01*
X157288894Y-114250239D01*
X157296553Y-114254333D01*
X157309798Y-114265202D01*
X157320666Y-114278445D01*
X157328743Y-114293557D01*
X157333716Y-114309949D01*
X157336000Y-114333141D01*
X157336000Y-114746859D01*
X157333716Y-114770051D01*
X157328743Y-114786443D01*
X157320666Y-114801555D01*
X157309798Y-114814798D01*
X157296553Y-114825667D01*
X157288894Y-114829761D01*
X157268520Y-114843374D01*
X157251193Y-114860701D01*
X157237579Y-114881076D01*
X157228202Y-114903714D01*
X157223421Y-114927748D01*
X157223421Y-114952252D01*
X157228201Y-114976285D01*
X157237579Y-114998924D01*
X157251192Y-115019298D01*
X157268519Y-115036625D01*
X157288894Y-115050239D01*
X157296553Y-115054333D01*
X157309798Y-115065202D01*
X157320666Y-115078445D01*
X157328743Y-115093557D01*
X157333716Y-115109949D01*
X157336000Y-115133141D01*
X157336000Y-115546859D01*
X157333716Y-115570051D01*
X157328743Y-115586443D01*
X157320666Y-115601555D01*
X157309798Y-115614798D01*
X157296553Y-115625667D01*
X157288894Y-115629761D01*
X157268520Y-115643374D01*
X157251193Y-115660701D01*
X157237579Y-115681076D01*
X157228202Y-115703714D01*
X157223421Y-115727748D01*
X157223421Y-115752252D01*
X157228201Y-115776285D01*
X157237579Y-115798924D01*
X157251192Y-115819298D01*
X157268519Y-115836625D01*
X157288894Y-115850239D01*
X157296553Y-115854333D01*
X157309798Y-115865202D01*
X157320666Y-115878445D01*
X157328743Y-115893557D01*
X157333716Y-115909949D01*
X157336000Y-115933141D01*
X157336000Y-116346859D01*
X157333716Y-116370051D01*
X157328743Y-116386443D01*
X157320666Y-116401555D01*
X157309798Y-116414798D01*
X157296553Y-116425667D01*
X157288894Y-116429761D01*
X157268520Y-116443374D01*
X157251193Y-116460701D01*
X157237579Y-116481076D01*
X157228202Y-116503714D01*
X157223421Y-116527748D01*
X157223421Y-116552252D01*
X157228201Y-116576285D01*
X157237579Y-116598924D01*
X157251192Y-116619298D01*
X157268519Y-116636625D01*
X157288894Y-116650239D01*
X157296553Y-116654333D01*
X157309798Y-116665202D01*
X157320666Y-116678445D01*
X157328743Y-116693557D01*
X157333716Y-116709949D01*
X157336000Y-116733141D01*
X157336000Y-117146859D01*
X157333716Y-117170051D01*
X157328743Y-117186443D01*
X157320666Y-117201555D01*
X157309798Y-117214798D01*
X157296553Y-117225667D01*
X157288894Y-117229761D01*
X157268520Y-117243374D01*
X157251193Y-117260701D01*
X157237579Y-117281076D01*
X157228202Y-117303714D01*
X157223421Y-117327748D01*
X157223421Y-117352252D01*
X157228201Y-117376285D01*
X157237579Y-117398924D01*
X157251192Y-117419298D01*
X157268519Y-117436625D01*
X157288894Y-117450239D01*
X157296553Y-117454333D01*
X157309798Y-117465202D01*
X157320666Y-117478445D01*
X157328743Y-117493557D01*
X157333716Y-117509949D01*
X157336000Y-117533141D01*
X157336000Y-117946859D01*
X157333716Y-117970051D01*
X157328743Y-117986443D01*
X157320666Y-118001555D01*
X157309798Y-118014798D01*
X157296555Y-118025666D01*
X157281443Y-118033743D01*
X157265051Y-118038716D01*
X157241859Y-118041000D01*
X155828141Y-118041000D01*
X155804949Y-118038716D01*
X155788557Y-118033743D01*
X155773445Y-118025666D01*
X155760202Y-118014798D01*
X155749334Y-118001555D01*
X155741257Y-117986443D01*
X155736284Y-117970051D01*
X155734000Y-117946859D01*
X155734000Y-117533141D01*
X155736284Y-117509949D01*
X155741257Y-117493557D01*
X155749334Y-117478445D01*
X155760202Y-117465202D01*
X155773447Y-117454333D01*
X155781106Y-117450239D01*
X155801480Y-117436626D01*
X155818807Y-117419299D01*
X155832421Y-117398924D01*
X155841798Y-117376286D01*
X155846579Y-117352252D01*
X155846579Y-117327748D01*
X155841799Y-117303715D01*
X155832421Y-117281076D01*
X155818808Y-117260702D01*
X155801481Y-117243375D01*
X155781106Y-117229761D01*
X155773447Y-117225667D01*
X155760202Y-117214798D01*
X155749334Y-117201555D01*
X155741257Y-117186443D01*
X155736284Y-117170051D01*
X155734000Y-117146859D01*
X155734000Y-116733141D01*
X155736284Y-116709949D01*
X155741257Y-116693557D01*
X155749334Y-116678445D01*
X155760202Y-116665202D01*
X155773447Y-116654333D01*
X155781106Y-116650239D01*
X155801480Y-116636626D01*
X155818807Y-116619299D01*
X155832421Y-116598924D01*
X155841798Y-116576286D01*
X155846579Y-116552252D01*
X155846579Y-116527748D01*
X155841799Y-116503715D01*
X155832421Y-116481076D01*
X155818808Y-116460702D01*
X155801481Y-116443375D01*
X155781106Y-116429761D01*
X155773447Y-116425667D01*
X155760202Y-116414798D01*
X155749334Y-116401555D01*
X155741257Y-116386443D01*
X155736284Y-116370051D01*
X155734000Y-116346859D01*
X155734000Y-115933141D01*
X155736284Y-115909949D01*
X155741257Y-115893557D01*
X155749334Y-115878445D01*
X155760202Y-115865202D01*
X155773447Y-115854333D01*
X155781106Y-115850239D01*
X155801480Y-115836626D01*
X155818807Y-115819299D01*
X155832421Y-115798924D01*
X155841798Y-115776286D01*
X155846579Y-115752252D01*
X155846579Y-115727748D01*
X155841799Y-115703715D01*
X155832421Y-115681076D01*
X155818808Y-115660702D01*
X155801481Y-115643375D01*
X155781106Y-115629761D01*
X155773447Y-115625667D01*
X155760202Y-115614798D01*
X155749334Y-115601555D01*
X155741257Y-115586443D01*
X155736284Y-115570051D01*
X155734000Y-115546859D01*
X155734000Y-115133141D01*
X155736284Y-115109949D01*
X155741257Y-115093557D01*
X155749334Y-115078445D01*
X155760202Y-115065202D01*
X155773447Y-115054333D01*
X155781106Y-115050239D01*
X155801480Y-115036626D01*
X155818807Y-115019299D01*
X155832421Y-114998924D01*
X155841798Y-114976286D01*
X155846579Y-114952252D01*
X155846579Y-114927748D01*
X155841799Y-114903715D01*
X155832421Y-114881076D01*
X155818808Y-114860702D01*
X155801481Y-114843375D01*
X155781106Y-114829761D01*
X155773447Y-114825667D01*
X155760202Y-114814798D01*
X155749334Y-114801555D01*
X155741257Y-114786443D01*
X155736284Y-114770051D01*
X155734000Y-114746859D01*
X155734000Y-114333141D01*
X155736284Y-114309949D01*
X155741257Y-114293557D01*
X155749334Y-114278445D01*
X155760202Y-114265202D01*
X155773447Y-114254333D01*
X155781106Y-114250239D01*
X155801480Y-114236626D01*
X155818807Y-114219299D01*
X155832421Y-114198924D01*
X155841798Y-114176286D01*
X155846579Y-114152252D01*
X155846579Y-114127748D01*
X155841799Y-114103715D01*
X155832421Y-114081076D01*
X155818808Y-114060702D01*
X155801481Y-114043375D01*
X155781106Y-114029761D01*
X155773447Y-114025667D01*
X155760202Y-114014798D01*
X155749334Y-114001555D01*
X155741257Y-113986443D01*
X155736284Y-113970051D01*
X155734000Y-113946859D01*
X155734000Y-113533141D01*
X155736284Y-113509949D01*
X155741257Y-113493557D01*
X155749334Y-113478445D01*
X155760202Y-113465202D01*
X155773447Y-113454333D01*
X155781106Y-113450239D01*
X155801480Y-113436626D01*
X155818807Y-113419299D01*
X155832421Y-113398924D01*
X155841798Y-113376286D01*
X155846579Y-113352252D01*
X155846579Y-113327748D01*
X155841799Y-113303715D01*
X155832421Y-113281076D01*
X155818808Y-113260702D01*
X155801481Y-113243375D01*
X155781106Y-113229761D01*
X155773447Y-113225667D01*
X155760202Y-113214798D01*
X155749334Y-113201555D01*
X155741257Y-113186443D01*
X155736284Y-113170051D01*
X155734000Y-113146859D01*
X155734000Y-112733141D01*
X155736284Y-112709949D01*
X155741257Y-112693557D01*
X155749334Y-112678445D01*
X155760202Y-112665202D01*
X155773447Y-112654333D01*
X155781106Y-112650239D01*
X155801480Y-112636626D01*
X155818807Y-112619299D01*
X155832421Y-112598924D01*
X155841798Y-112576286D01*
X155846579Y-112552252D01*
X155846579Y-112527748D01*
X155841799Y-112503715D01*
X155832421Y-112481076D01*
X155818808Y-112460702D01*
X155801481Y-112443375D01*
X155781106Y-112429761D01*
X155773447Y-112425667D01*
X155760202Y-112414798D01*
X155749334Y-112401555D01*
X155741257Y-112386443D01*
X155736284Y-112370051D01*
X155734000Y-112346859D01*
X155734000Y-111933141D01*
X155736284Y-111909949D01*
X155741257Y-111893557D01*
X155749334Y-111878445D01*
X155760202Y-111865202D01*
X155773445Y-111854334D01*
X155788557Y-111846257D01*
X155804949Y-111841284D01*
X155828141Y-111839000D01*
X157241859Y-111839000D01*
X157265051Y-111841284D01*
X157265051Y-111841284D01*
G37*
G36*
X153479591Y-116128085D02*
G01*
X153513569Y-116138393D01*
X153544890Y-116155134D01*
X153572339Y-116177661D01*
X153594866Y-116205110D01*
X153611607Y-116236431D01*
X153621915Y-116270409D01*
X153626000Y-116311890D01*
X153626000Y-116988110D01*
X153621915Y-117029591D01*
X153611607Y-117063569D01*
X153594866Y-117094890D01*
X153572339Y-117122339D01*
X153544890Y-117144866D01*
X153513569Y-117161607D01*
X153479591Y-117171915D01*
X153438110Y-117176000D01*
X152836890Y-117176000D01*
X152795409Y-117171915D01*
X152761431Y-117161607D01*
X152730110Y-117144866D01*
X152702661Y-117122339D01*
X152680134Y-117094890D01*
X152663393Y-117063569D01*
X152653085Y-117029591D01*
X152649000Y-116988110D01*
X152649000Y-116311890D01*
X152653085Y-116270409D01*
X152663393Y-116236431D01*
X152680134Y-116205110D01*
X152702661Y-116177661D01*
X152730110Y-116155134D01*
X152761431Y-116138393D01*
X152795409Y-116128085D01*
X152836890Y-116124000D01*
X153438110Y-116124000D01*
X153479591Y-116128085D01*
X153479591Y-116128085D01*
G37*
G36*
X151904591Y-116128085D02*
G01*
X151938569Y-116138393D01*
X151969890Y-116155134D01*
X151997339Y-116177661D01*
X152019866Y-116205110D01*
X152036607Y-116236431D01*
X152046915Y-116270409D01*
X152051000Y-116311890D01*
X152051000Y-116988110D01*
X152046915Y-117029591D01*
X152036607Y-117063569D01*
X152019866Y-117094890D01*
X151997339Y-117122339D01*
X151969890Y-117144866D01*
X151938569Y-117161607D01*
X151904591Y-117171915D01*
X151863110Y-117176000D01*
X151261890Y-117176000D01*
X151220409Y-117171915D01*
X151186431Y-117161607D01*
X151155110Y-117144866D01*
X151127661Y-117122339D01*
X151105134Y-117094890D01*
X151088393Y-117063569D01*
X151078085Y-117029591D01*
X151074000Y-116988110D01*
X151074000Y-116311890D01*
X151078085Y-116270409D01*
X151088393Y-116236431D01*
X151105134Y-116205110D01*
X151127661Y-116177661D01*
X151155110Y-116155134D01*
X151186431Y-116138393D01*
X151220409Y-116128085D01*
X151261890Y-116124000D01*
X151863110Y-116124000D01*
X151904591Y-116128085D01*
X151904591Y-116128085D01*
G37*
G36*
X139311000Y-116981000D02*
G01*
X138209000Y-116981000D01*
X138209000Y-115329000D01*
X139311000Y-115329000D01*
X139311000Y-116981000D01*
X139311000Y-116981000D01*
G37*
G36*
X141011000Y-116981000D02*
G01*
X139909000Y-116981000D01*
X139909000Y-115329000D01*
X141011000Y-115329000D01*
X141011000Y-116981000D01*
X141011000Y-116981000D01*
G37*
G36*
X177829591Y-112928085D02*
G01*
X177863569Y-112938393D01*
X177894890Y-112955134D01*
X177922339Y-112977661D01*
X177944866Y-113005110D01*
X177961607Y-113036431D01*
X177971915Y-113070409D01*
X177976000Y-113111890D01*
X177976000Y-113788110D01*
X177971915Y-113829591D01*
X177961607Y-113863569D01*
X177944866Y-113894890D01*
X177922339Y-113922339D01*
X177894890Y-113944866D01*
X177863569Y-113961607D01*
X177829591Y-113971915D01*
X177788110Y-113976000D01*
X177186890Y-113976000D01*
X177145409Y-113971915D01*
X177111431Y-113961607D01*
X177080110Y-113944866D01*
X177052661Y-113922339D01*
X177030134Y-113894890D01*
X177013393Y-113863569D01*
X177003085Y-113829591D01*
X176999000Y-113788110D01*
X176999000Y-113111890D01*
X177003085Y-113070409D01*
X177013393Y-113036431D01*
X177030134Y-113005110D01*
X177052661Y-112977661D01*
X177080110Y-112955134D01*
X177111431Y-112938393D01*
X177145409Y-112928085D01*
X177186890Y-112924000D01*
X177788110Y-112924000D01*
X177829591Y-112928085D01*
X177829591Y-112928085D01*
G37*
G36*
X176254591Y-112928085D02*
G01*
X176288569Y-112938393D01*
X176319890Y-112955134D01*
X176347339Y-112977661D01*
X176369866Y-113005110D01*
X176386607Y-113036431D01*
X176396915Y-113070409D01*
X176401000Y-113111890D01*
X176401000Y-113788110D01*
X176396915Y-113829591D01*
X176386607Y-113863569D01*
X176369866Y-113894890D01*
X176347339Y-113922339D01*
X176319890Y-113944866D01*
X176288569Y-113961607D01*
X176254591Y-113971915D01*
X176213110Y-113976000D01*
X175611890Y-113976000D01*
X175570409Y-113971915D01*
X175536431Y-113961607D01*
X175505110Y-113944866D01*
X175477661Y-113922339D01*
X175455134Y-113894890D01*
X175438393Y-113863569D01*
X175428085Y-113829591D01*
X175424000Y-113788110D01*
X175424000Y-113111890D01*
X175428085Y-113070409D01*
X175438393Y-113036431D01*
X175455134Y-113005110D01*
X175477661Y-112977661D01*
X175505110Y-112955134D01*
X175536431Y-112938393D01*
X175570409Y-112928085D01*
X175611890Y-112924000D01*
X176213110Y-112924000D01*
X176254591Y-112928085D01*
X176254591Y-112928085D01*
G37*
G36*
X142613803Y-110958480D02*
G01*
X141787802Y-112389155D01*
X140833441Y-111838154D01*
X141659442Y-110407479D01*
X142613803Y-110958480D01*
X142613803Y-110958480D01*
G37*
G36*
X158140051Y-109966284D02*
G01*
X158156443Y-109971257D01*
X158171555Y-109979334D01*
X158184798Y-109990202D01*
X158195667Y-110003447D01*
X158199761Y-110011106D01*
X158213374Y-110031480D01*
X158230701Y-110048807D01*
X158251076Y-110062421D01*
X158273714Y-110071798D01*
X158297748Y-110076579D01*
X158322252Y-110076579D01*
X158346285Y-110071799D01*
X158368924Y-110062421D01*
X158389298Y-110048808D01*
X158406625Y-110031481D01*
X158420239Y-110011106D01*
X158424333Y-110003447D01*
X158435202Y-109990202D01*
X158448445Y-109979334D01*
X158463557Y-109971257D01*
X158479949Y-109966284D01*
X158503141Y-109964000D01*
X158916859Y-109964000D01*
X158940051Y-109966284D01*
X158956443Y-109971257D01*
X158971555Y-109979334D01*
X158984798Y-109990202D01*
X158995667Y-110003447D01*
X158999761Y-110011106D01*
X159013374Y-110031480D01*
X159030701Y-110048807D01*
X159051076Y-110062421D01*
X159073714Y-110071798D01*
X159097748Y-110076579D01*
X159122252Y-110076579D01*
X159146285Y-110071799D01*
X159168924Y-110062421D01*
X159189298Y-110048808D01*
X159206625Y-110031481D01*
X159220239Y-110011106D01*
X159224333Y-110003447D01*
X159235202Y-109990202D01*
X159248445Y-109979334D01*
X159263557Y-109971257D01*
X159279949Y-109966284D01*
X159303141Y-109964000D01*
X159716859Y-109964000D01*
X159740051Y-109966284D01*
X159756443Y-109971257D01*
X159771555Y-109979334D01*
X159784798Y-109990202D01*
X159795667Y-110003447D01*
X159799761Y-110011106D01*
X159813374Y-110031480D01*
X159830701Y-110048807D01*
X159851076Y-110062421D01*
X159873714Y-110071798D01*
X159897748Y-110076579D01*
X159922252Y-110076579D01*
X159946285Y-110071799D01*
X159968924Y-110062421D01*
X159989298Y-110048808D01*
X160006625Y-110031481D01*
X160020239Y-110011106D01*
X160024333Y-110003447D01*
X160035202Y-109990202D01*
X160048445Y-109979334D01*
X160063557Y-109971257D01*
X160079949Y-109966284D01*
X160103141Y-109964000D01*
X160516859Y-109964000D01*
X160540051Y-109966284D01*
X160556443Y-109971257D01*
X160571555Y-109979334D01*
X160584798Y-109990202D01*
X160595667Y-110003447D01*
X160599761Y-110011106D01*
X160613374Y-110031480D01*
X160630701Y-110048807D01*
X160651076Y-110062421D01*
X160673714Y-110071798D01*
X160697748Y-110076579D01*
X160722252Y-110076579D01*
X160746285Y-110071799D01*
X160768924Y-110062421D01*
X160789298Y-110048808D01*
X160806625Y-110031481D01*
X160820239Y-110011106D01*
X160824333Y-110003447D01*
X160835202Y-109990202D01*
X160848445Y-109979334D01*
X160863557Y-109971257D01*
X160879949Y-109966284D01*
X160903141Y-109964000D01*
X161316859Y-109964000D01*
X161340051Y-109966284D01*
X161356443Y-109971257D01*
X161371555Y-109979334D01*
X161384798Y-109990202D01*
X161395667Y-110003447D01*
X161399761Y-110011106D01*
X161413374Y-110031480D01*
X161430701Y-110048807D01*
X161451076Y-110062421D01*
X161473714Y-110071798D01*
X161497748Y-110076579D01*
X161522252Y-110076579D01*
X161546285Y-110071799D01*
X161568924Y-110062421D01*
X161589298Y-110048808D01*
X161606625Y-110031481D01*
X161620239Y-110011106D01*
X161624333Y-110003447D01*
X161635202Y-109990202D01*
X161648445Y-109979334D01*
X161663557Y-109971257D01*
X161679949Y-109966284D01*
X161703141Y-109964000D01*
X162116859Y-109964000D01*
X162140051Y-109966284D01*
X162156443Y-109971257D01*
X162171555Y-109979334D01*
X162184798Y-109990202D01*
X162195667Y-110003447D01*
X162199761Y-110011106D01*
X162213374Y-110031480D01*
X162230701Y-110048807D01*
X162251076Y-110062421D01*
X162273714Y-110071798D01*
X162297748Y-110076579D01*
X162322252Y-110076579D01*
X162346285Y-110071799D01*
X162368924Y-110062421D01*
X162389298Y-110048808D01*
X162406625Y-110031481D01*
X162420239Y-110011106D01*
X162424333Y-110003447D01*
X162435202Y-109990202D01*
X162448445Y-109979334D01*
X162463557Y-109971257D01*
X162479949Y-109966284D01*
X162503141Y-109964000D01*
X162916859Y-109964000D01*
X162940051Y-109966284D01*
X162956443Y-109971257D01*
X162971555Y-109979334D01*
X162984798Y-109990202D01*
X162995667Y-110003447D01*
X162999761Y-110011106D01*
X163013374Y-110031480D01*
X163030701Y-110048807D01*
X163051076Y-110062421D01*
X163073714Y-110071798D01*
X163097748Y-110076579D01*
X163122252Y-110076579D01*
X163146285Y-110071799D01*
X163168924Y-110062421D01*
X163189298Y-110048808D01*
X163206625Y-110031481D01*
X163220239Y-110011106D01*
X163224333Y-110003447D01*
X163235202Y-109990202D01*
X163248445Y-109979334D01*
X163263557Y-109971257D01*
X163279949Y-109966284D01*
X163303141Y-109964000D01*
X163716859Y-109964000D01*
X163740051Y-109966284D01*
X163756443Y-109971257D01*
X163771555Y-109979334D01*
X163784798Y-109990202D01*
X163795666Y-110003445D01*
X163803743Y-110018557D01*
X163808716Y-110034949D01*
X163811000Y-110058141D01*
X163811000Y-111471859D01*
X163808716Y-111495051D01*
X163803743Y-111511443D01*
X163795666Y-111526555D01*
X163784798Y-111539798D01*
X163771555Y-111550666D01*
X163756443Y-111558743D01*
X163740051Y-111563716D01*
X163716859Y-111566000D01*
X163303141Y-111566000D01*
X163279949Y-111563716D01*
X163263557Y-111558743D01*
X163248445Y-111550666D01*
X163235202Y-111539798D01*
X163224333Y-111526553D01*
X163220239Y-111518894D01*
X163206626Y-111498520D01*
X163189299Y-111481193D01*
X163168924Y-111467579D01*
X163146286Y-111458202D01*
X163122252Y-111453421D01*
X163097748Y-111453421D01*
X163073715Y-111458201D01*
X163051076Y-111467579D01*
X163030702Y-111481192D01*
X163013375Y-111498519D01*
X162999761Y-111518894D01*
X162995667Y-111526553D01*
X162984798Y-111539798D01*
X162971555Y-111550666D01*
X162956443Y-111558743D01*
X162940051Y-111563716D01*
X162916859Y-111566000D01*
X162503141Y-111566000D01*
X162479949Y-111563716D01*
X162463557Y-111558743D01*
X162448445Y-111550666D01*
X162435202Y-111539798D01*
X162424333Y-111526553D01*
X162420239Y-111518894D01*
X162406626Y-111498520D01*
X162389299Y-111481193D01*
X162368924Y-111467579D01*
X162346286Y-111458202D01*
X162322252Y-111453421D01*
X162297748Y-111453421D01*
X162273715Y-111458201D01*
X162251076Y-111467579D01*
X162230702Y-111481192D01*
X162213375Y-111498519D01*
X162199761Y-111518894D01*
X162195667Y-111526553D01*
X162184798Y-111539798D01*
X162171555Y-111550666D01*
X162156443Y-111558743D01*
X162140051Y-111563716D01*
X162116859Y-111566000D01*
X161703141Y-111566000D01*
X161679949Y-111563716D01*
X161663557Y-111558743D01*
X161648445Y-111550666D01*
X161635202Y-111539798D01*
X161624333Y-111526553D01*
X161620239Y-111518894D01*
X161606626Y-111498520D01*
X161589299Y-111481193D01*
X161568924Y-111467579D01*
X161546286Y-111458202D01*
X161522252Y-111453421D01*
X161497748Y-111453421D01*
X161473715Y-111458201D01*
X161451076Y-111467579D01*
X161430702Y-111481192D01*
X161413375Y-111498519D01*
X161399761Y-111518894D01*
X161395667Y-111526553D01*
X161384798Y-111539798D01*
X161371555Y-111550666D01*
X161356443Y-111558743D01*
X161340051Y-111563716D01*
X161316859Y-111566000D01*
X160903141Y-111566000D01*
X160879949Y-111563716D01*
X160863557Y-111558743D01*
X160848445Y-111550666D01*
X160835202Y-111539798D01*
X160824333Y-111526553D01*
X160820239Y-111518894D01*
X160806626Y-111498520D01*
X160789299Y-111481193D01*
X160768924Y-111467579D01*
X160746286Y-111458202D01*
X160722252Y-111453421D01*
X160697748Y-111453421D01*
X160673715Y-111458201D01*
X160651076Y-111467579D01*
X160630702Y-111481192D01*
X160613375Y-111498519D01*
X160599761Y-111518894D01*
X160595667Y-111526553D01*
X160584798Y-111539798D01*
X160571555Y-111550666D01*
X160556443Y-111558743D01*
X160540051Y-111563716D01*
X160516859Y-111566000D01*
X160103141Y-111566000D01*
X160079949Y-111563716D01*
X160063557Y-111558743D01*
X160048445Y-111550666D01*
X160035202Y-111539798D01*
X160024333Y-111526553D01*
X160020239Y-111518894D01*
X160006626Y-111498520D01*
X159989299Y-111481193D01*
X159968924Y-111467579D01*
X159946286Y-111458202D01*
X159922252Y-111453421D01*
X159897748Y-111453421D01*
X159873715Y-111458201D01*
X159851076Y-111467579D01*
X159830702Y-111481192D01*
X159813375Y-111498519D01*
X159799761Y-111518894D01*
X159795667Y-111526553D01*
X159784798Y-111539798D01*
X159771555Y-111550666D01*
X159756443Y-111558743D01*
X159740051Y-111563716D01*
X159716859Y-111566000D01*
X159303141Y-111566000D01*
X159279949Y-111563716D01*
X159263557Y-111558743D01*
X159248445Y-111550666D01*
X159235202Y-111539798D01*
X159224333Y-111526553D01*
X159220239Y-111518894D01*
X159206626Y-111498520D01*
X159189299Y-111481193D01*
X159168924Y-111467579D01*
X159146286Y-111458202D01*
X159122252Y-111453421D01*
X159097748Y-111453421D01*
X159073715Y-111458201D01*
X159051076Y-111467579D01*
X159030702Y-111481192D01*
X159013375Y-111498519D01*
X158999761Y-111518894D01*
X158995667Y-111526553D01*
X158984798Y-111539798D01*
X158971555Y-111550666D01*
X158956443Y-111558743D01*
X158940051Y-111563716D01*
X158916859Y-111566000D01*
X158503141Y-111566000D01*
X158479949Y-111563716D01*
X158463557Y-111558743D01*
X158448445Y-111550666D01*
X158435202Y-111539798D01*
X158424333Y-111526553D01*
X158420239Y-111518894D01*
X158406626Y-111498520D01*
X158389299Y-111481193D01*
X158368924Y-111467579D01*
X158346286Y-111458202D01*
X158322252Y-111453421D01*
X158297748Y-111453421D01*
X158273715Y-111458201D01*
X158251076Y-111467579D01*
X158230702Y-111481192D01*
X158213375Y-111498519D01*
X158199761Y-111518894D01*
X158195667Y-111526553D01*
X158184798Y-111539798D01*
X158171555Y-111550666D01*
X158156443Y-111558743D01*
X158140051Y-111563716D01*
X158116859Y-111566000D01*
X157703141Y-111566000D01*
X157679949Y-111563716D01*
X157663557Y-111558743D01*
X157648445Y-111550666D01*
X157635202Y-111539798D01*
X157624334Y-111526555D01*
X157616257Y-111511443D01*
X157611284Y-111495051D01*
X157609000Y-111471859D01*
X157609000Y-110058141D01*
X157611284Y-110034949D01*
X157616257Y-110018557D01*
X157624334Y-110003445D01*
X157635202Y-109990202D01*
X157648445Y-109979334D01*
X157663557Y-109971257D01*
X157679949Y-109966284D01*
X157703141Y-109964000D01*
X158116859Y-109964000D01*
X158140051Y-109966284D01*
X158140051Y-109966284D01*
G37*
G36*
X141141559Y-110108480D02*
G01*
X140315558Y-111539155D01*
X139361197Y-110988154D01*
X140187198Y-109557479D01*
X141141559Y-110108480D01*
X141141559Y-110108480D01*
G37*
G36*
X172549591Y-109918085D02*
G01*
X172583569Y-109928393D01*
X172614890Y-109945134D01*
X172642339Y-109967661D01*
X172664866Y-109995110D01*
X172681607Y-110026431D01*
X172691915Y-110060409D01*
X172696000Y-110101890D01*
X172696000Y-110778110D01*
X172691915Y-110819591D01*
X172681607Y-110853569D01*
X172664866Y-110884890D01*
X172642339Y-110912339D01*
X172614890Y-110934866D01*
X172583569Y-110951607D01*
X172549591Y-110961915D01*
X172508110Y-110966000D01*
X171906890Y-110966000D01*
X171865409Y-110961915D01*
X171831431Y-110951607D01*
X171800110Y-110934866D01*
X171772661Y-110912339D01*
X171750134Y-110884890D01*
X171733393Y-110853569D01*
X171723085Y-110819591D01*
X171719000Y-110778110D01*
X171719000Y-110101890D01*
X171723085Y-110060409D01*
X171733393Y-110026431D01*
X171750134Y-109995110D01*
X171772661Y-109967661D01*
X171800110Y-109945134D01*
X171831431Y-109928393D01*
X171865409Y-109918085D01*
X171906890Y-109914000D01*
X172508110Y-109914000D01*
X172549591Y-109918085D01*
X172549591Y-109918085D01*
G37*
G36*
X170974591Y-109918085D02*
G01*
X171008569Y-109928393D01*
X171039890Y-109945134D01*
X171067339Y-109967661D01*
X171089866Y-109995110D01*
X171106607Y-110026431D01*
X171116915Y-110060409D01*
X171121000Y-110101890D01*
X171121000Y-110778110D01*
X171116915Y-110819591D01*
X171106607Y-110853569D01*
X171089866Y-110884890D01*
X171067339Y-110912339D01*
X171039890Y-110934866D01*
X171008569Y-110951607D01*
X170974591Y-110961915D01*
X170933110Y-110966000D01*
X170331890Y-110966000D01*
X170290409Y-110961915D01*
X170256431Y-110951607D01*
X170225110Y-110934866D01*
X170197661Y-110912339D01*
X170175134Y-110884890D01*
X170158393Y-110853569D01*
X170148085Y-110819591D01*
X170144000Y-110778110D01*
X170144000Y-110101890D01*
X170148085Y-110060409D01*
X170158393Y-110026431D01*
X170175134Y-109995110D01*
X170197661Y-109967661D01*
X170225110Y-109945134D01*
X170256431Y-109928393D01*
X170290409Y-109918085D01*
X170331890Y-109914000D01*
X170933110Y-109914000D01*
X170974591Y-109918085D01*
X170974591Y-109918085D01*
G37*
G36*
X168054721Y-109198174D02*
G01*
X168154995Y-109239709D01*
X168154996Y-109239710D01*
X168245242Y-109300010D01*
X168321990Y-109376758D01*
X168321991Y-109376760D01*
X168382291Y-109467005D01*
X168423826Y-109567279D01*
X168445000Y-109673730D01*
X168445000Y-109782270D01*
X168423826Y-109888721D01*
X168382291Y-109988995D01*
X168378205Y-109995110D01*
X168321990Y-110079242D01*
X168245242Y-110155990D01*
X168199812Y-110186345D01*
X168154995Y-110216291D01*
X168054721Y-110257826D01*
X167948270Y-110279000D01*
X167839730Y-110279000D01*
X167733279Y-110257826D01*
X167633005Y-110216291D01*
X167588188Y-110186345D01*
X167542758Y-110155990D01*
X167466010Y-110079242D01*
X167409795Y-109995110D01*
X167405709Y-109988995D01*
X167364174Y-109888721D01*
X167343000Y-109782270D01*
X167343000Y-109673730D01*
X167364174Y-109567279D01*
X167405709Y-109467005D01*
X167466009Y-109376760D01*
X167466010Y-109376758D01*
X167542758Y-109300010D01*
X167633004Y-109239710D01*
X167633005Y-109239709D01*
X167733279Y-109198174D01*
X167839730Y-109177000D01*
X167948270Y-109177000D01*
X168054721Y-109198174D01*
X168054721Y-109198174D01*
G37*
G36*
X152271591Y-108905585D02*
G01*
X152305569Y-108915893D01*
X152336890Y-108932634D01*
X152364339Y-108955161D01*
X152386866Y-108982610D01*
X152403607Y-109013931D01*
X152413915Y-109047909D01*
X152418000Y-109089390D01*
X152418000Y-109690610D01*
X152413915Y-109732091D01*
X152403607Y-109766069D01*
X152386866Y-109797390D01*
X152364339Y-109824839D01*
X152336890Y-109847366D01*
X152305569Y-109864107D01*
X152271591Y-109874415D01*
X152230110Y-109878500D01*
X151553890Y-109878500D01*
X151512409Y-109874415D01*
X151478431Y-109864107D01*
X151447110Y-109847366D01*
X151419661Y-109824839D01*
X151397134Y-109797390D01*
X151380393Y-109766069D01*
X151370085Y-109732091D01*
X151366000Y-109690610D01*
X151366000Y-109089390D01*
X151370085Y-109047909D01*
X151380393Y-109013931D01*
X151397134Y-108982610D01*
X151419661Y-108955161D01*
X151447110Y-108932634D01*
X151478431Y-108915893D01*
X151512409Y-108905585D01*
X151553890Y-108901500D01*
X152230110Y-108901500D01*
X152271591Y-108905585D01*
X152271591Y-108905585D01*
G37*
G36*
X170994591Y-108028085D02*
G01*
X171028569Y-108038393D01*
X171059890Y-108055134D01*
X171087339Y-108077661D01*
X171109866Y-108105110D01*
X171126607Y-108136431D01*
X171136915Y-108170409D01*
X171141000Y-108211890D01*
X171141000Y-108888110D01*
X171136915Y-108929591D01*
X171126607Y-108963569D01*
X171109866Y-108994890D01*
X171087339Y-109022339D01*
X171059890Y-109044866D01*
X171028569Y-109061607D01*
X170994591Y-109071915D01*
X170953110Y-109076000D01*
X170351890Y-109076000D01*
X170310409Y-109071915D01*
X170276431Y-109061607D01*
X170245110Y-109044866D01*
X170217661Y-109022339D01*
X170195134Y-108994890D01*
X170178393Y-108963569D01*
X170168085Y-108929591D01*
X170164000Y-108888110D01*
X170164000Y-108211890D01*
X170168085Y-108170409D01*
X170178393Y-108136431D01*
X170195134Y-108105110D01*
X170217661Y-108077661D01*
X170245110Y-108055134D01*
X170276431Y-108038393D01*
X170310409Y-108028085D01*
X170351890Y-108024000D01*
X170953110Y-108024000D01*
X170994591Y-108028085D01*
X170994591Y-108028085D01*
G37*
G36*
X172569591Y-108028085D02*
G01*
X172603569Y-108038393D01*
X172634890Y-108055134D01*
X172662339Y-108077661D01*
X172684866Y-108105110D01*
X172701607Y-108136431D01*
X172711915Y-108170409D01*
X172716000Y-108211890D01*
X172716000Y-108888110D01*
X172711915Y-108929591D01*
X172701607Y-108963569D01*
X172684866Y-108994890D01*
X172662339Y-109022339D01*
X172634890Y-109044866D01*
X172603569Y-109061607D01*
X172569591Y-109071915D01*
X172528110Y-109076000D01*
X171926890Y-109076000D01*
X171885409Y-109071915D01*
X171851431Y-109061607D01*
X171820110Y-109044866D01*
X171792661Y-109022339D01*
X171770134Y-108994890D01*
X171753393Y-108963569D01*
X171743085Y-108929591D01*
X171739000Y-108888110D01*
X171739000Y-108211890D01*
X171743085Y-108170409D01*
X171753393Y-108136431D01*
X171770134Y-108105110D01*
X171792661Y-108077661D01*
X171820110Y-108055134D01*
X171851431Y-108038393D01*
X171885409Y-108028085D01*
X171926890Y-108024000D01*
X172528110Y-108024000D01*
X172569591Y-108028085D01*
X172569591Y-108028085D01*
G37*
G36*
X168054721Y-107298174D02*
G01*
X168154995Y-107339709D01*
X168182534Y-107358110D01*
X168245242Y-107400010D01*
X168321990Y-107476758D01*
X168332401Y-107492339D01*
X168382291Y-107567005D01*
X168423826Y-107667279D01*
X168445000Y-107773730D01*
X168445000Y-107882270D01*
X168423826Y-107988721D01*
X168382291Y-108088995D01*
X168364507Y-108115610D01*
X168321990Y-108179242D01*
X168245242Y-108255990D01*
X168235744Y-108262336D01*
X168154995Y-108316291D01*
X168054721Y-108357826D01*
X167948270Y-108379000D01*
X167839730Y-108379000D01*
X167733279Y-108357826D01*
X167633005Y-108316291D01*
X167552256Y-108262336D01*
X167542758Y-108255990D01*
X167466010Y-108179242D01*
X167423493Y-108115610D01*
X167405709Y-108088995D01*
X167364174Y-107988721D01*
X167343000Y-107882270D01*
X167343000Y-107773730D01*
X167364174Y-107667279D01*
X167405709Y-107567005D01*
X167455599Y-107492339D01*
X167466010Y-107476758D01*
X167542758Y-107400010D01*
X167605466Y-107358110D01*
X167633005Y-107339709D01*
X167733279Y-107298174D01*
X167839730Y-107277000D01*
X167948270Y-107277000D01*
X168054721Y-107298174D01*
X168054721Y-107298174D01*
G37*
G36*
X152271591Y-107330585D02*
G01*
X152305569Y-107340893D01*
X152336890Y-107357634D01*
X152364339Y-107380161D01*
X152386866Y-107407610D01*
X152403607Y-107438931D01*
X152413915Y-107472909D01*
X152418000Y-107514390D01*
X152418000Y-108115610D01*
X152413915Y-108157091D01*
X152403607Y-108191069D01*
X152386866Y-108222390D01*
X152364339Y-108249839D01*
X152336890Y-108272366D01*
X152305569Y-108289107D01*
X152271591Y-108299415D01*
X152230110Y-108303500D01*
X151553890Y-108303500D01*
X151512409Y-108299415D01*
X151478431Y-108289107D01*
X151447110Y-108272366D01*
X151419661Y-108249839D01*
X151397134Y-108222390D01*
X151380393Y-108191069D01*
X151370085Y-108157091D01*
X151366000Y-108115610D01*
X151366000Y-107514390D01*
X151370085Y-107472909D01*
X151380393Y-107438931D01*
X151397134Y-107407610D01*
X151419661Y-107380161D01*
X151447110Y-107357634D01*
X151478431Y-107340893D01*
X151512409Y-107330585D01*
X151553890Y-107326500D01*
X152230110Y-107326500D01*
X152271591Y-107330585D01*
X152271591Y-107330585D01*
G37*
G36*
X155827591Y-107237085D02*
G01*
X155861569Y-107247393D01*
X155892890Y-107264134D01*
X155920339Y-107286661D01*
X155942866Y-107314110D01*
X155959607Y-107345431D01*
X155969915Y-107379409D01*
X155974000Y-107420890D01*
X155974000Y-108022110D01*
X155969915Y-108063591D01*
X155959607Y-108097569D01*
X155942866Y-108128890D01*
X155920339Y-108156339D01*
X155892890Y-108178866D01*
X155861569Y-108195607D01*
X155827591Y-108205915D01*
X155786110Y-108210000D01*
X155109890Y-108210000D01*
X155068409Y-108205915D01*
X155034431Y-108195607D01*
X155003110Y-108178866D01*
X154975661Y-108156339D01*
X154953134Y-108128890D01*
X154936393Y-108097569D01*
X154926085Y-108063591D01*
X154922000Y-108022110D01*
X154922000Y-107420890D01*
X154926085Y-107379409D01*
X154936393Y-107345431D01*
X154953134Y-107314110D01*
X154975661Y-107286661D01*
X155003110Y-107264134D01*
X155034431Y-107247393D01*
X155068409Y-107237085D01*
X155109890Y-107233000D01*
X155786110Y-107233000D01*
X155827591Y-107237085D01*
X155827591Y-107237085D01*
G37*
G36*
X158891000Y-108106000D02*
G01*
X157729000Y-108106000D01*
X157729000Y-105454000D01*
X158891000Y-105454000D01*
X158891000Y-108106000D01*
X158891000Y-108106000D01*
G37*
G36*
X161091000Y-108106000D02*
G01*
X159929000Y-108106000D01*
X159929000Y-107354000D01*
X161091000Y-107354000D01*
X161091000Y-108106000D01*
X161091000Y-108106000D01*
G37*
G36*
X145238803Y-106411846D02*
G01*
X144412802Y-107842521D01*
X143458441Y-107291520D01*
X144284442Y-105860845D01*
X145238803Y-106411846D01*
X145238803Y-106411846D01*
G37*
G36*
X162769591Y-106753085D02*
G01*
X162803569Y-106763393D01*
X162834890Y-106780134D01*
X162862339Y-106802661D01*
X162884866Y-106830110D01*
X162901607Y-106861431D01*
X162911915Y-106895409D01*
X162916000Y-106936890D01*
X162916000Y-107538110D01*
X162911915Y-107579591D01*
X162901607Y-107613569D01*
X162884866Y-107644890D01*
X162862339Y-107672339D01*
X162834890Y-107694866D01*
X162803569Y-107711607D01*
X162769591Y-107721915D01*
X162728110Y-107726000D01*
X162051890Y-107726000D01*
X162010409Y-107721915D01*
X161976431Y-107711607D01*
X161945110Y-107694866D01*
X161917661Y-107672339D01*
X161895134Y-107644890D01*
X161878393Y-107613569D01*
X161868085Y-107579591D01*
X161864000Y-107538110D01*
X161864000Y-106936890D01*
X161868085Y-106895409D01*
X161878393Y-106861431D01*
X161895134Y-106830110D01*
X161917661Y-106802661D01*
X161945110Y-106780134D01*
X161976431Y-106763393D01*
X162010409Y-106753085D01*
X162051890Y-106749000D01*
X162728110Y-106749000D01*
X162769591Y-106753085D01*
X162769591Y-106753085D01*
G37*
G36*
X147389591Y-106573085D02*
G01*
X147423569Y-106583393D01*
X147454890Y-106600134D01*
X147482339Y-106622661D01*
X147504866Y-106650110D01*
X147521607Y-106681431D01*
X147531915Y-106715409D01*
X147536000Y-106756890D01*
X147536000Y-107358110D01*
X147531915Y-107399591D01*
X147521607Y-107433569D01*
X147504866Y-107464890D01*
X147482339Y-107492339D01*
X147454890Y-107514866D01*
X147423569Y-107531607D01*
X147389591Y-107541915D01*
X147348110Y-107546000D01*
X146671890Y-107546000D01*
X146630409Y-107541915D01*
X146596431Y-107531607D01*
X146565110Y-107514866D01*
X146537661Y-107492339D01*
X146515134Y-107464890D01*
X146498393Y-107433569D01*
X146488085Y-107399591D01*
X146484000Y-107358110D01*
X146484000Y-106756890D01*
X146488085Y-106715409D01*
X146498393Y-106681431D01*
X146515134Y-106650110D01*
X146537661Y-106622661D01*
X146565110Y-106600134D01*
X146596431Y-106583393D01*
X146630409Y-106573085D01*
X146671890Y-106569000D01*
X147348110Y-106569000D01*
X147389591Y-106573085D01*
X147389591Y-106573085D01*
G37*
G36*
X148834591Y-106498085D02*
G01*
X148868569Y-106508393D01*
X148899890Y-106525134D01*
X148927339Y-106547661D01*
X148949866Y-106575110D01*
X148966607Y-106606431D01*
X148976915Y-106640409D01*
X148981000Y-106681890D01*
X148981000Y-107358110D01*
X148976915Y-107399591D01*
X148966607Y-107433569D01*
X148949866Y-107464890D01*
X148927339Y-107492339D01*
X148899890Y-107514866D01*
X148868569Y-107531607D01*
X148834591Y-107541915D01*
X148793110Y-107546000D01*
X148191890Y-107546000D01*
X148150409Y-107541915D01*
X148116431Y-107531607D01*
X148085110Y-107514866D01*
X148057661Y-107492339D01*
X148035134Y-107464890D01*
X148018393Y-107433569D01*
X148008085Y-107399591D01*
X148004000Y-107358110D01*
X148004000Y-106681890D01*
X148008085Y-106640409D01*
X148018393Y-106606431D01*
X148035134Y-106575110D01*
X148057661Y-106547661D01*
X148085110Y-106525134D01*
X148116431Y-106508393D01*
X148150409Y-106498085D01*
X148191890Y-106494000D01*
X148793110Y-106494000D01*
X148834591Y-106498085D01*
X148834591Y-106498085D01*
G37*
G36*
X150409591Y-106498085D02*
G01*
X150443569Y-106508393D01*
X150474890Y-106525134D01*
X150502339Y-106547661D01*
X150524866Y-106575110D01*
X150541607Y-106606431D01*
X150551915Y-106640409D01*
X150556000Y-106681890D01*
X150556000Y-107358110D01*
X150551915Y-107399591D01*
X150541607Y-107433569D01*
X150524866Y-107464890D01*
X150502339Y-107492339D01*
X150474890Y-107514866D01*
X150443569Y-107531607D01*
X150409591Y-107541915D01*
X150368110Y-107546000D01*
X149766890Y-107546000D01*
X149725409Y-107541915D01*
X149691431Y-107531607D01*
X149660110Y-107514866D01*
X149632661Y-107492339D01*
X149610134Y-107464890D01*
X149593393Y-107433569D01*
X149583085Y-107399591D01*
X149579000Y-107358110D01*
X149579000Y-106681890D01*
X149583085Y-106640409D01*
X149593393Y-106606431D01*
X149610134Y-106575110D01*
X149632661Y-106547661D01*
X149660110Y-106525134D01*
X149691431Y-106508393D01*
X149725409Y-106498085D01*
X149766890Y-106494000D01*
X150368110Y-106494000D01*
X150409591Y-106498085D01*
X150409591Y-106498085D01*
G37*
G36*
X143766559Y-105561846D02*
G01*
X142940558Y-106992521D01*
X141986197Y-106441520D01*
X142812198Y-105010845D01*
X143766559Y-105561846D01*
X143766559Y-105561846D01*
G37*
G36*
X168384591Y-105848085D02*
G01*
X168418569Y-105858393D01*
X168449890Y-105875134D01*
X168477339Y-105897661D01*
X168499866Y-105925110D01*
X168516607Y-105956431D01*
X168526915Y-105990409D01*
X168531000Y-106031890D01*
X168531000Y-106708110D01*
X168526915Y-106749591D01*
X168516607Y-106783569D01*
X168499866Y-106814890D01*
X168477339Y-106842339D01*
X168449890Y-106864866D01*
X168418569Y-106881607D01*
X168384591Y-106891915D01*
X168343110Y-106896000D01*
X167741890Y-106896000D01*
X167700409Y-106891915D01*
X167666431Y-106881607D01*
X167635110Y-106864866D01*
X167607661Y-106842339D01*
X167585134Y-106814890D01*
X167568393Y-106783569D01*
X167558085Y-106749591D01*
X167554000Y-106708110D01*
X167554000Y-106031890D01*
X167558085Y-105990409D01*
X167568393Y-105956431D01*
X167585134Y-105925110D01*
X167607661Y-105897661D01*
X167635110Y-105875134D01*
X167666431Y-105858393D01*
X167700409Y-105848085D01*
X167741890Y-105844000D01*
X168343110Y-105844000D01*
X168384591Y-105848085D01*
X168384591Y-105848085D01*
G37*
G36*
X169959591Y-105848085D02*
G01*
X169993569Y-105858393D01*
X170024890Y-105875134D01*
X170052339Y-105897661D01*
X170074866Y-105925110D01*
X170091607Y-105956431D01*
X170101915Y-105990409D01*
X170106000Y-106031890D01*
X170106000Y-106708110D01*
X170101915Y-106749591D01*
X170091607Y-106783569D01*
X170074866Y-106814890D01*
X170052339Y-106842339D01*
X170024890Y-106864866D01*
X169993569Y-106881607D01*
X169959591Y-106891915D01*
X169918110Y-106896000D01*
X169316890Y-106896000D01*
X169275409Y-106891915D01*
X169241431Y-106881607D01*
X169210110Y-106864866D01*
X169182661Y-106842339D01*
X169160134Y-106814890D01*
X169143393Y-106783569D01*
X169133085Y-106749591D01*
X169129000Y-106708110D01*
X169129000Y-106031890D01*
X169133085Y-105990409D01*
X169143393Y-105956431D01*
X169160134Y-105925110D01*
X169182661Y-105897661D01*
X169210110Y-105875134D01*
X169241431Y-105858393D01*
X169275409Y-105848085D01*
X169316890Y-105844000D01*
X169918110Y-105844000D01*
X169959591Y-105848085D01*
X169959591Y-105848085D01*
G37*
G36*
X155827591Y-105662085D02*
G01*
X155861569Y-105672393D01*
X155892890Y-105689134D01*
X155920339Y-105711661D01*
X155942866Y-105739110D01*
X155959607Y-105770431D01*
X155969915Y-105804409D01*
X155974000Y-105845890D01*
X155974000Y-106447110D01*
X155969915Y-106488591D01*
X155959607Y-106522569D01*
X155942866Y-106553890D01*
X155920339Y-106581339D01*
X155892890Y-106603866D01*
X155861569Y-106620607D01*
X155827591Y-106630915D01*
X155786110Y-106635000D01*
X155109890Y-106635000D01*
X155068409Y-106630915D01*
X155034431Y-106620607D01*
X155003110Y-106603866D01*
X154975661Y-106581339D01*
X154953134Y-106553890D01*
X154936393Y-106522569D01*
X154926085Y-106488591D01*
X154922000Y-106447110D01*
X154922000Y-105845890D01*
X154926085Y-105804409D01*
X154936393Y-105770431D01*
X154953134Y-105739110D01*
X154975661Y-105711661D01*
X155003110Y-105689134D01*
X155034431Y-105672393D01*
X155068409Y-105662085D01*
X155109890Y-105658000D01*
X155786110Y-105658000D01*
X155827591Y-105662085D01*
X155827591Y-105662085D01*
G37*
G36*
X166169591Y-105243085D02*
G01*
X166203569Y-105253393D01*
X166234890Y-105270134D01*
X166262339Y-105292661D01*
X166284866Y-105320110D01*
X166301607Y-105351431D01*
X166311915Y-105385409D01*
X166316000Y-105426890D01*
X166316000Y-106028110D01*
X166311915Y-106069591D01*
X166301607Y-106103569D01*
X166284866Y-106134890D01*
X166262339Y-106162339D01*
X166234890Y-106184866D01*
X166203569Y-106201607D01*
X166169591Y-106211915D01*
X166128110Y-106216000D01*
X165451890Y-106216000D01*
X165410409Y-106211915D01*
X165376431Y-106201607D01*
X165345110Y-106184866D01*
X165317661Y-106162339D01*
X165295134Y-106134890D01*
X165278393Y-106103569D01*
X165268085Y-106069591D01*
X165264000Y-106028110D01*
X165264000Y-105426890D01*
X165268085Y-105385409D01*
X165278393Y-105351431D01*
X165295134Y-105320110D01*
X165317661Y-105292661D01*
X165345110Y-105270134D01*
X165376431Y-105253393D01*
X165410409Y-105243085D01*
X165451890Y-105239000D01*
X166128110Y-105239000D01*
X166169591Y-105243085D01*
X166169591Y-105243085D01*
G37*
G36*
X161091000Y-106206000D02*
G01*
X159929000Y-106206000D01*
X159929000Y-105454000D01*
X161091000Y-105454000D01*
X161091000Y-106206000D01*
X161091000Y-106206000D01*
G37*
G36*
X162769591Y-105178085D02*
G01*
X162803569Y-105188393D01*
X162834890Y-105205134D01*
X162862339Y-105227661D01*
X162884866Y-105255110D01*
X162901607Y-105286431D01*
X162911915Y-105320409D01*
X162916000Y-105361890D01*
X162916000Y-105963110D01*
X162911915Y-106004591D01*
X162901607Y-106038569D01*
X162884866Y-106069890D01*
X162862339Y-106097339D01*
X162834890Y-106119866D01*
X162803569Y-106136607D01*
X162769591Y-106146915D01*
X162728110Y-106151000D01*
X162051890Y-106151000D01*
X162010409Y-106146915D01*
X161976431Y-106136607D01*
X161945110Y-106119866D01*
X161917661Y-106097339D01*
X161895134Y-106069890D01*
X161878393Y-106038569D01*
X161868085Y-106004591D01*
X161864000Y-105963110D01*
X161864000Y-105361890D01*
X161868085Y-105320409D01*
X161878393Y-105286431D01*
X161895134Y-105255110D01*
X161917661Y-105227661D01*
X161945110Y-105205134D01*
X161976431Y-105188393D01*
X162010409Y-105178085D01*
X162051890Y-105174000D01*
X162728110Y-105174000D01*
X162769591Y-105178085D01*
X162769591Y-105178085D01*
G37*
G36*
X147389591Y-104998085D02*
G01*
X147423569Y-105008393D01*
X147454890Y-105025134D01*
X147482339Y-105047661D01*
X147504866Y-105075110D01*
X147521607Y-105106431D01*
X147531915Y-105140409D01*
X147536000Y-105181890D01*
X147536000Y-105783110D01*
X147531915Y-105824591D01*
X147521607Y-105858569D01*
X147504866Y-105889890D01*
X147482339Y-105917339D01*
X147454890Y-105939866D01*
X147423569Y-105956607D01*
X147389591Y-105966915D01*
X147348110Y-105971000D01*
X146671890Y-105971000D01*
X146630409Y-105966915D01*
X146596431Y-105956607D01*
X146565110Y-105939866D01*
X146537661Y-105917339D01*
X146515134Y-105889890D01*
X146498393Y-105858569D01*
X146488085Y-105824591D01*
X146484000Y-105783110D01*
X146484000Y-105181890D01*
X146488085Y-105140409D01*
X146498393Y-105106431D01*
X146515134Y-105075110D01*
X146537661Y-105047661D01*
X146565110Y-105025134D01*
X146596431Y-105008393D01*
X146630409Y-104998085D01*
X146671890Y-104994000D01*
X147348110Y-104994000D01*
X147389591Y-104998085D01*
X147389591Y-104998085D01*
G37*
G36*
X170221000Y-104806000D02*
G01*
X167819000Y-104806000D01*
X167819000Y-104204000D01*
X170221000Y-104204000D01*
X170221000Y-104806000D01*
X170221000Y-104806000D01*
G37*
G36*
X166169591Y-103668085D02*
G01*
X166203569Y-103678393D01*
X166234890Y-103695134D01*
X166262339Y-103717661D01*
X166284866Y-103745110D01*
X166301607Y-103776431D01*
X166311915Y-103810409D01*
X166316000Y-103851890D01*
X166316000Y-104453110D01*
X166311915Y-104494591D01*
X166301607Y-104528569D01*
X166284866Y-104559890D01*
X166262339Y-104587339D01*
X166234890Y-104609866D01*
X166203569Y-104626607D01*
X166169591Y-104636915D01*
X166128110Y-104641000D01*
X165451890Y-104641000D01*
X165410409Y-104636915D01*
X165376431Y-104626607D01*
X165345110Y-104609866D01*
X165317661Y-104587339D01*
X165295134Y-104559890D01*
X165278393Y-104528569D01*
X165268085Y-104494591D01*
X165264000Y-104453110D01*
X165264000Y-103851890D01*
X165268085Y-103810409D01*
X165278393Y-103776431D01*
X165295134Y-103745110D01*
X165317661Y-103717661D01*
X165345110Y-103695134D01*
X165376431Y-103678393D01*
X165410409Y-103668085D01*
X165451890Y-103664000D01*
X166128110Y-103664000D01*
X166169591Y-103668085D01*
X166169591Y-103668085D01*
G37*
G36*
X150612798Y-100668247D02*
G01*
X150648367Y-100679037D01*
X150681139Y-100696554D01*
X150709869Y-100720131D01*
X150733446Y-100748861D01*
X150750963Y-100781633D01*
X150761753Y-100817202D01*
X150766000Y-100860325D01*
X150766000Y-103219675D01*
X150761753Y-103262798D01*
X150750963Y-103298367D01*
X150733446Y-103331139D01*
X150709869Y-103359869D01*
X150681139Y-103383446D01*
X150648367Y-103400963D01*
X150612798Y-103411753D01*
X150569675Y-103416000D01*
X149510325Y-103416000D01*
X149467202Y-103411753D01*
X149431633Y-103400963D01*
X149398861Y-103383446D01*
X149370131Y-103359869D01*
X149346554Y-103331139D01*
X149329037Y-103298367D01*
X149318247Y-103262798D01*
X149314000Y-103219675D01*
X149314000Y-100860325D01*
X149318247Y-100817202D01*
X149329037Y-100781633D01*
X149346554Y-100748861D01*
X149370131Y-100720131D01*
X149398861Y-100696554D01*
X149431633Y-100679037D01*
X149467202Y-100668247D01*
X149510325Y-100664000D01*
X150569675Y-100664000D01*
X150612798Y-100668247D01*
X150612798Y-100668247D01*
G37*
G36*
X155112798Y-100668247D02*
G01*
X155148367Y-100679037D01*
X155181139Y-100696554D01*
X155209869Y-100720131D01*
X155233446Y-100748861D01*
X155250963Y-100781633D01*
X155261753Y-100817202D01*
X155266000Y-100860325D01*
X155266000Y-103219675D01*
X155261753Y-103262798D01*
X155250963Y-103298367D01*
X155233446Y-103331139D01*
X155209869Y-103359869D01*
X155181139Y-103383446D01*
X155148367Y-103400963D01*
X155112798Y-103411753D01*
X155069675Y-103416000D01*
X154010325Y-103416000D01*
X153967202Y-103411753D01*
X153931633Y-103400963D01*
X153898861Y-103383446D01*
X153870131Y-103359869D01*
X153846554Y-103331139D01*
X153829037Y-103298367D01*
X153818247Y-103262798D01*
X153814000Y-103219675D01*
X153814000Y-100860325D01*
X153818247Y-100817202D01*
X153829037Y-100781633D01*
X153846554Y-100748861D01*
X153870131Y-100720131D01*
X153898861Y-100696554D01*
X153931633Y-100679037D01*
X153967202Y-100668247D01*
X154010325Y-100664000D01*
X155069675Y-100664000D01*
X155112798Y-100668247D01*
X155112798Y-100668247D01*
G37*
G36*
X163044591Y-102228085D02*
G01*
X163078569Y-102238393D01*
X163109890Y-102255134D01*
X163137339Y-102277661D01*
X163159866Y-102305110D01*
X163176607Y-102336431D01*
X163186915Y-102370409D01*
X163191000Y-102411890D01*
X163191000Y-103088110D01*
X163186915Y-103129591D01*
X163176607Y-103163569D01*
X163159866Y-103194890D01*
X163137339Y-103222339D01*
X163109890Y-103244866D01*
X163078569Y-103261607D01*
X163044591Y-103271915D01*
X163003110Y-103276000D01*
X162401890Y-103276000D01*
X162360409Y-103271915D01*
X162326431Y-103261607D01*
X162295110Y-103244866D01*
X162267661Y-103222339D01*
X162245134Y-103194890D01*
X162228393Y-103163569D01*
X162218085Y-103129591D01*
X162214000Y-103088110D01*
X162214000Y-102411890D01*
X162218085Y-102370409D01*
X162228393Y-102336431D01*
X162245134Y-102305110D01*
X162267661Y-102277661D01*
X162295110Y-102255134D01*
X162326431Y-102238393D01*
X162360409Y-102228085D01*
X162401890Y-102224000D01*
X163003110Y-102224000D01*
X163044591Y-102228085D01*
X163044591Y-102228085D01*
G37*
G36*
X164619591Y-102228085D02*
G01*
X164653569Y-102238393D01*
X164684890Y-102255134D01*
X164712339Y-102277661D01*
X164734866Y-102305110D01*
X164751607Y-102336431D01*
X164761915Y-102370409D01*
X164766000Y-102411890D01*
X164766000Y-103088110D01*
X164761915Y-103129591D01*
X164751607Y-103163569D01*
X164734866Y-103194890D01*
X164712339Y-103222339D01*
X164684890Y-103244866D01*
X164653569Y-103261607D01*
X164619591Y-103271915D01*
X164578110Y-103276000D01*
X163976890Y-103276000D01*
X163935409Y-103271915D01*
X163901431Y-103261607D01*
X163870110Y-103244866D01*
X163842661Y-103222339D01*
X163820134Y-103194890D01*
X163803393Y-103163569D01*
X163793085Y-103129591D01*
X163789000Y-103088110D01*
X163789000Y-102411890D01*
X163793085Y-102370409D01*
X163803393Y-102336431D01*
X163820134Y-102305110D01*
X163842661Y-102277661D01*
X163870110Y-102255134D01*
X163901431Y-102238393D01*
X163935409Y-102228085D01*
X163976890Y-102224000D01*
X164578110Y-102224000D01*
X164619591Y-102228085D01*
X164619591Y-102228085D01*
G37*
G36*
X156843591Y-102157085D02*
G01*
X156877569Y-102167393D01*
X156908890Y-102184134D01*
X156936339Y-102206661D01*
X156958866Y-102234110D01*
X156975607Y-102265431D01*
X156985915Y-102299409D01*
X156990000Y-102340890D01*
X156990000Y-102942110D01*
X156985915Y-102983591D01*
X156975607Y-103017569D01*
X156958866Y-103048890D01*
X156936339Y-103076339D01*
X156908890Y-103098866D01*
X156877569Y-103115607D01*
X156843591Y-103125915D01*
X156802110Y-103130000D01*
X156125890Y-103130000D01*
X156084409Y-103125915D01*
X156050431Y-103115607D01*
X156019110Y-103098866D01*
X155991661Y-103076339D01*
X155969134Y-103048890D01*
X155952393Y-103017569D01*
X155942085Y-102983591D01*
X155938000Y-102942110D01*
X155938000Y-102340890D01*
X155942085Y-102299409D01*
X155952393Y-102265431D01*
X155969134Y-102234110D01*
X155991661Y-102206661D01*
X156019110Y-102184134D01*
X156050431Y-102167393D01*
X156084409Y-102157085D01*
X156125890Y-102153000D01*
X156802110Y-102153000D01*
X156843591Y-102157085D01*
X156843591Y-102157085D01*
G37*
G36*
X160061000Y-100174001D02*
G01*
X160063402Y-100198387D01*
X160070515Y-100221836D01*
X160082066Y-100243447D01*
X160097611Y-100262389D01*
X160116553Y-100277934D01*
X160138164Y-100289485D01*
X160161613Y-100296598D01*
X160185999Y-100299000D01*
X160661000Y-100299000D01*
X160661000Y-102201000D01*
X160185999Y-102201000D01*
X160161613Y-102203402D01*
X160138164Y-102210515D01*
X160116553Y-102222066D01*
X160097611Y-102237611D01*
X160082066Y-102256553D01*
X160070515Y-102278164D01*
X160063402Y-102301613D01*
X160061000Y-102325999D01*
X160061000Y-102801000D01*
X158159000Y-102801000D01*
X158159000Y-102325999D01*
X158156598Y-102301613D01*
X158149485Y-102278164D01*
X158137934Y-102256553D01*
X158122389Y-102237611D01*
X158103447Y-102222066D01*
X158081836Y-102210515D01*
X158058387Y-102203402D01*
X158034001Y-102201000D01*
X157559000Y-102201000D01*
X157559000Y-100375999D01*
X158111000Y-100375999D01*
X158111000Y-102124001D01*
X158113402Y-102148387D01*
X158120515Y-102171836D01*
X158132066Y-102193447D01*
X158147611Y-102212389D01*
X158166553Y-102227934D01*
X158188164Y-102239485D01*
X158211613Y-102246598D01*
X158235999Y-102249000D01*
X159984001Y-102249000D01*
X160008387Y-102246598D01*
X160031836Y-102239485D01*
X160053447Y-102227934D01*
X160072389Y-102212389D01*
X160087934Y-102193447D01*
X160099485Y-102171836D01*
X160106598Y-102148387D01*
X160109000Y-102124001D01*
X160109000Y-100375999D01*
X160106598Y-100351613D01*
X160099485Y-100328164D01*
X160087934Y-100306553D01*
X160072389Y-100287611D01*
X160053447Y-100272066D01*
X160031836Y-100260515D01*
X160008387Y-100253402D01*
X159984001Y-100251000D01*
X158235999Y-100251000D01*
X158211613Y-100253402D01*
X158188164Y-100260515D01*
X158166553Y-100272066D01*
X158147611Y-100287611D01*
X158132066Y-100306553D01*
X158120515Y-100328164D01*
X158113402Y-100351613D01*
X158111000Y-100375999D01*
X157559000Y-100375999D01*
X157559000Y-100299000D01*
X158034001Y-100299000D01*
X158058387Y-100296598D01*
X158081836Y-100289485D01*
X158103447Y-100277934D01*
X158122389Y-100262389D01*
X158137934Y-100243447D01*
X158149485Y-100221836D01*
X158156598Y-100198387D01*
X158159000Y-100174001D01*
X158159000Y-99699000D01*
X160061000Y-99699000D01*
X160061000Y-100174001D01*
X160061000Y-100174001D01*
G37*
G36*
X170221000Y-102756000D02*
G01*
X167819000Y-102756000D01*
X167819000Y-102154000D01*
X170221000Y-102154000D01*
X170221000Y-102756000D01*
X170221000Y-102756000D01*
G37*
G36*
X156843591Y-100582085D02*
G01*
X156877569Y-100592393D01*
X156908890Y-100609134D01*
X156936339Y-100631661D01*
X156958866Y-100659110D01*
X156975607Y-100690431D01*
X156985915Y-100724409D01*
X156990000Y-100765890D01*
X156990000Y-101367110D01*
X156985915Y-101408591D01*
X156975607Y-101442569D01*
X156958866Y-101473890D01*
X156936339Y-101501339D01*
X156908890Y-101523866D01*
X156877569Y-101540607D01*
X156843591Y-101550915D01*
X156802110Y-101555000D01*
X156125890Y-101555000D01*
X156084409Y-101550915D01*
X156050431Y-101540607D01*
X156019110Y-101523866D01*
X155991661Y-101501339D01*
X155969134Y-101473890D01*
X155952393Y-101442569D01*
X155942085Y-101408591D01*
X155938000Y-101367110D01*
X155938000Y-100765890D01*
X155942085Y-100724409D01*
X155952393Y-100690431D01*
X155969134Y-100659110D01*
X155991661Y-100631661D01*
X156019110Y-100609134D01*
X156050431Y-100592393D01*
X156084409Y-100582085D01*
X156125890Y-100578000D01*
X156802110Y-100578000D01*
X156843591Y-100582085D01*
X156843591Y-100582085D01*
G37*
G36*
X166289591Y-100563085D02*
G01*
X166323569Y-100573393D01*
X166354890Y-100590134D01*
X166382339Y-100612661D01*
X166404866Y-100640110D01*
X166421607Y-100671431D01*
X166431915Y-100705409D01*
X166436000Y-100746890D01*
X166436000Y-101348110D01*
X166431915Y-101389591D01*
X166421607Y-101423569D01*
X166404866Y-101454890D01*
X166382339Y-101482339D01*
X166354890Y-101504866D01*
X166323569Y-101521607D01*
X166289591Y-101531915D01*
X166248110Y-101536000D01*
X165571890Y-101536000D01*
X165530409Y-101531915D01*
X165496431Y-101521607D01*
X165465110Y-101504866D01*
X165437661Y-101482339D01*
X165415134Y-101454890D01*
X165398393Y-101423569D01*
X165388085Y-101389591D01*
X165384000Y-101348110D01*
X165384000Y-100746890D01*
X165388085Y-100705409D01*
X165398393Y-100671431D01*
X165415134Y-100640110D01*
X165437661Y-100612661D01*
X165465110Y-100590134D01*
X165496431Y-100573393D01*
X165530409Y-100563085D01*
X165571890Y-100559000D01*
X166248110Y-100559000D01*
X166289591Y-100563085D01*
X166289591Y-100563085D01*
G37*
G36*
X164609591Y-100478085D02*
G01*
X164643569Y-100488393D01*
X164674890Y-100505134D01*
X164702339Y-100527661D01*
X164724866Y-100555110D01*
X164741607Y-100586431D01*
X164751915Y-100620409D01*
X164756000Y-100661890D01*
X164756000Y-101338110D01*
X164751915Y-101379591D01*
X164741607Y-101413569D01*
X164724866Y-101444890D01*
X164702339Y-101472339D01*
X164674890Y-101494866D01*
X164643569Y-101511607D01*
X164609591Y-101521915D01*
X164568110Y-101526000D01*
X163966890Y-101526000D01*
X163925409Y-101521915D01*
X163891431Y-101511607D01*
X163860110Y-101494866D01*
X163832661Y-101472339D01*
X163810134Y-101444890D01*
X163793393Y-101413569D01*
X163783085Y-101379591D01*
X163779000Y-101338110D01*
X163779000Y-100661890D01*
X163783085Y-100620409D01*
X163793393Y-100586431D01*
X163810134Y-100555110D01*
X163832661Y-100527661D01*
X163860110Y-100505134D01*
X163891431Y-100488393D01*
X163925409Y-100478085D01*
X163966890Y-100474000D01*
X164568110Y-100474000D01*
X164609591Y-100478085D01*
X164609591Y-100478085D01*
G37*
G36*
X163034591Y-100478085D02*
G01*
X163068569Y-100488393D01*
X163099890Y-100505134D01*
X163127339Y-100527661D01*
X163149866Y-100555110D01*
X163166607Y-100586431D01*
X163176915Y-100620409D01*
X163181000Y-100661890D01*
X163181000Y-101338110D01*
X163176915Y-101379591D01*
X163166607Y-101413569D01*
X163149866Y-101444890D01*
X163127339Y-101472339D01*
X163099890Y-101494866D01*
X163068569Y-101511607D01*
X163034591Y-101521915D01*
X162993110Y-101526000D01*
X162391890Y-101526000D01*
X162350409Y-101521915D01*
X162316431Y-101511607D01*
X162285110Y-101494866D01*
X162257661Y-101472339D01*
X162235134Y-101444890D01*
X162218393Y-101413569D01*
X162208085Y-101379591D01*
X162204000Y-101338110D01*
X162204000Y-100661890D01*
X162208085Y-100620409D01*
X162218393Y-100586431D01*
X162235134Y-100555110D01*
X162257661Y-100527661D01*
X162285110Y-100505134D01*
X162316431Y-100488393D01*
X162350409Y-100478085D01*
X162391890Y-100474000D01*
X162993110Y-100474000D01*
X163034591Y-100478085D01*
X163034591Y-100478085D01*
G37*
G36*
X169785591Y-100138085D02*
G01*
X169819569Y-100148393D01*
X169850890Y-100165134D01*
X169878339Y-100187661D01*
X169900866Y-100215110D01*
X169917607Y-100246431D01*
X169927915Y-100280409D01*
X169932000Y-100321890D01*
X169932000Y-100998110D01*
X169927915Y-101039591D01*
X169917607Y-101073569D01*
X169900866Y-101104890D01*
X169878339Y-101132339D01*
X169850890Y-101154866D01*
X169819569Y-101171607D01*
X169785591Y-101181915D01*
X169744110Y-101186000D01*
X169142890Y-101186000D01*
X169101409Y-101181915D01*
X169067431Y-101171607D01*
X169036110Y-101154866D01*
X169008661Y-101132339D01*
X168986134Y-101104890D01*
X168969393Y-101073569D01*
X168959085Y-101039591D01*
X168955000Y-100998110D01*
X168955000Y-100321890D01*
X168959085Y-100280409D01*
X168969393Y-100246431D01*
X168986134Y-100215110D01*
X169008661Y-100187661D01*
X169036110Y-100165134D01*
X169067431Y-100148393D01*
X169101409Y-100138085D01*
X169142890Y-100134000D01*
X169744110Y-100134000D01*
X169785591Y-100138085D01*
X169785591Y-100138085D01*
G37*
G36*
X168210591Y-100138085D02*
G01*
X168244569Y-100148393D01*
X168275890Y-100165134D01*
X168303339Y-100187661D01*
X168325866Y-100215110D01*
X168342607Y-100246431D01*
X168352915Y-100280409D01*
X168357000Y-100321890D01*
X168357000Y-100998110D01*
X168352915Y-101039591D01*
X168342607Y-101073569D01*
X168325866Y-101104890D01*
X168303339Y-101132339D01*
X168275890Y-101154866D01*
X168244569Y-101171607D01*
X168210591Y-101181915D01*
X168169110Y-101186000D01*
X167567890Y-101186000D01*
X167526409Y-101181915D01*
X167492431Y-101171607D01*
X167461110Y-101154866D01*
X167433661Y-101132339D01*
X167411134Y-101104890D01*
X167394393Y-101073569D01*
X167384085Y-101039591D01*
X167380000Y-100998110D01*
X167380000Y-100321890D01*
X167384085Y-100280409D01*
X167394393Y-100246431D01*
X167411134Y-100215110D01*
X167433661Y-100187661D01*
X167461110Y-100165134D01*
X167492431Y-100148393D01*
X167526409Y-100138085D01*
X167567890Y-100134000D01*
X168169110Y-100134000D01*
X168210591Y-100138085D01*
X168210591Y-100138085D01*
G37*
G36*
X166289591Y-98988085D02*
G01*
X166323569Y-98998393D01*
X166354890Y-99015134D01*
X166382339Y-99037661D01*
X166404866Y-99065110D01*
X166421607Y-99096431D01*
X166431915Y-99130409D01*
X166436000Y-99171890D01*
X166436000Y-99773110D01*
X166431915Y-99814591D01*
X166421607Y-99848569D01*
X166404866Y-99879890D01*
X166382339Y-99907339D01*
X166354890Y-99929866D01*
X166323569Y-99946607D01*
X166289591Y-99956915D01*
X166248110Y-99961000D01*
X165571890Y-99961000D01*
X165530409Y-99956915D01*
X165496431Y-99946607D01*
X165465110Y-99929866D01*
X165437661Y-99907339D01*
X165415134Y-99879890D01*
X165398393Y-99848569D01*
X165388085Y-99814591D01*
X165384000Y-99773110D01*
X165384000Y-99171890D01*
X165388085Y-99130409D01*
X165398393Y-99096431D01*
X165415134Y-99065110D01*
X165437661Y-99037661D01*
X165465110Y-99015134D01*
X165496431Y-98998393D01*
X165530409Y-98988085D01*
X165571890Y-98984000D01*
X166248110Y-98984000D01*
X166289591Y-98988085D01*
X166289591Y-98988085D01*
G37*
M02*
