G04 #@! TF.GenerationSoftware,KiCad,Pcbnew,5.1.4-1.fc30*
G04 #@! TF.CreationDate,2020-03-29T15:47:08+02:00*
G04 #@! TF.ProjectId,venom,76656e6f-6d2e-46b6-9963-61645f706362,rev?*
G04 #@! TF.SameCoordinates,Original*
G04 #@! TF.FileFunction,Paste,Top*
G04 #@! TF.FilePolarity,Positive*
%FSLAX46Y46*%
G04 Gerber Fmt 4.6, Leading zero omitted, Abs format (unit mm)*
G04 Created by KiCad (PCBNEW 5.1.4-1.fc30) date 2020-03-29 15:47:08*
%MOMM*%
%LPD*%
G04 APERTURE LIST*
%ADD10C,0.125000*%
%ADD11C,1.000000*%
%ADD12C,0.100000*%
%ADD13R,1.800000X3.200000*%
%ADD14R,0.300000X1.300000*%
%ADD15C,1.350000*%
%ADD16C,0.875000*%
%ADD17R,0.900000X0.800000*%
%ADD18R,1.000000X1.550000*%
%ADD19R,0.350000X0.500000*%
%ADD20R,1.060000X0.650000*%
%ADD21C,0.975000*%
%ADD22R,1.380000X0.450000*%
%ADD23R,2.100000X1.475000*%
%ADD24R,1.900000X2.375000*%
%ADD25R,1.900000X1.175000*%
%ADD26C,0.500000*%
%ADD27C,1.250000*%
G04 APERTURE END LIST*
D10*
X167323809Y-138804285D02*
X167395238Y-138828095D01*
X167419047Y-138851904D01*
X167442857Y-138899523D01*
X167442857Y-138970952D01*
X167419047Y-139018571D01*
X167395238Y-139042380D01*
X167347619Y-139066190D01*
X167157142Y-139066190D01*
X167157142Y-138566190D01*
X167323809Y-138566190D01*
X167371428Y-138590000D01*
X167395238Y-138613809D01*
X167419047Y-138661428D01*
X167419047Y-138709047D01*
X167395238Y-138756666D01*
X167371428Y-138780476D01*
X167323809Y-138804285D01*
X167157142Y-138804285D01*
X167871428Y-139066190D02*
X167871428Y-138804285D01*
X167847619Y-138756666D01*
X167800000Y-138732857D01*
X167704761Y-138732857D01*
X167657142Y-138756666D01*
X167871428Y-139042380D02*
X167823809Y-139066190D01*
X167704761Y-139066190D01*
X167657142Y-139042380D01*
X167633333Y-138994761D01*
X167633333Y-138947142D01*
X167657142Y-138899523D01*
X167704761Y-138875714D01*
X167823809Y-138875714D01*
X167871428Y-138851904D01*
X168109523Y-139066190D02*
X168109523Y-138732857D01*
X168109523Y-138828095D02*
X168133333Y-138780476D01*
X168157142Y-138756666D01*
X168204761Y-138732857D01*
X168252380Y-138732857D01*
X168347619Y-138732857D02*
X168538095Y-138732857D01*
X168419047Y-138566190D02*
X168419047Y-138994761D01*
X168442857Y-139042380D01*
X168490476Y-139066190D01*
X168538095Y-139066190D01*
X168728571Y-138566190D02*
X168680952Y-138661428D01*
X168919047Y-139042380D02*
X168966666Y-139066190D01*
X169061904Y-139066190D01*
X169109523Y-139042380D01*
X169133333Y-138994761D01*
X169133333Y-138970952D01*
X169109523Y-138923333D01*
X169061904Y-138899523D01*
X168990476Y-138899523D01*
X168942857Y-138875714D01*
X168919047Y-138828095D01*
X168919047Y-138804285D01*
X168942857Y-138756666D01*
X168990476Y-138732857D01*
X169061904Y-138732857D01*
X169109523Y-138756666D01*
X169657142Y-138566190D02*
X169823809Y-139066190D01*
X169990476Y-138566190D01*
X170157142Y-138804285D02*
X170323809Y-138804285D01*
X170395238Y-139066190D02*
X170157142Y-139066190D01*
X170157142Y-138566190D01*
X170395238Y-138566190D01*
X170609523Y-139066190D02*
X170609523Y-138566190D01*
X170895238Y-139066190D01*
X170895238Y-138566190D01*
X171228571Y-138566190D02*
X171323809Y-138566190D01*
X171371428Y-138590000D01*
X171419047Y-138637619D01*
X171442857Y-138732857D01*
X171442857Y-138899523D01*
X171419047Y-138994761D01*
X171371428Y-139042380D01*
X171323809Y-139066190D01*
X171228571Y-139066190D01*
X171180952Y-139042380D01*
X171133333Y-138994761D01*
X171109523Y-138899523D01*
X171109523Y-138732857D01*
X171133333Y-138637619D01*
X171180952Y-138590000D01*
X171228571Y-138566190D01*
X171657142Y-139066190D02*
X171657142Y-138566190D01*
X171823809Y-138923333D01*
X171990476Y-138566190D01*
X171990476Y-139066190D01*
X172561904Y-138732857D02*
X172680952Y-139066190D01*
X172800000Y-138732857D01*
X173085714Y-138566190D02*
X173133333Y-138566190D01*
X173180952Y-138590000D01*
X173204761Y-138613809D01*
X173228571Y-138661428D01*
X173252380Y-138756666D01*
X173252380Y-138875714D01*
X173228571Y-138970952D01*
X173204761Y-139018571D01*
X173180952Y-139042380D01*
X173133333Y-139066190D01*
X173085714Y-139066190D01*
X173038095Y-139042380D01*
X173014285Y-139018571D01*
X172990476Y-138970952D01*
X172966666Y-138875714D01*
X172966666Y-138756666D01*
X172990476Y-138661428D01*
X173014285Y-138613809D01*
X173038095Y-138590000D01*
X173085714Y-138566190D01*
X173466666Y-139018571D02*
X173490476Y-139042380D01*
X173466666Y-139066190D01*
X173442857Y-139042380D01*
X173466666Y-139018571D01*
X173466666Y-139066190D01*
X173942857Y-138566190D02*
X173704761Y-138566190D01*
X173680952Y-138804285D01*
X173704761Y-138780476D01*
X173752380Y-138756666D01*
X173871428Y-138756666D01*
X173919047Y-138780476D01*
X173942857Y-138804285D01*
X173966666Y-138851904D01*
X173966666Y-138970952D01*
X173942857Y-139018571D01*
X173919047Y-139042380D01*
X173871428Y-139066190D01*
X173752380Y-139066190D01*
X173704761Y-139042380D01*
X173680952Y-139018571D01*
D11*
X141683622Y-126061683D03*
D12*
G36*
X140863109Y-125640513D02*
G01*
X141729135Y-125140513D01*
X142504135Y-126482853D01*
X141638109Y-126982853D01*
X140863109Y-125640513D01*
X140863109Y-125640513D01*
G37*
D11*
X144308622Y-130608317D03*
D12*
G36*
X143488109Y-130187147D02*
G01*
X144354135Y-129687147D01*
X145129135Y-131029487D01*
X144263109Y-131529487D01*
X143488109Y-130187147D01*
X143488109Y-130187147D01*
G37*
D11*
X142836378Y-131458317D03*
D12*
G36*
X142015865Y-131037147D02*
G01*
X142881891Y-130537147D01*
X143656891Y-131879487D01*
X142790865Y-132379487D01*
X142015865Y-131037147D01*
X142015865Y-131037147D01*
G37*
D11*
X140211378Y-126911683D03*
D12*
G36*
X139390865Y-126490513D02*
G01*
X140256891Y-125990513D01*
X141031891Y-127332853D01*
X140165865Y-127832853D01*
X139390865Y-126490513D01*
X139390865Y-126490513D01*
G37*
D13*
X167160000Y-132091000D03*
X151860000Y-132091000D03*
D14*
X153760000Y-129860000D03*
X154260000Y-129860000D03*
X154760000Y-129860000D03*
X155260000Y-129860000D03*
X155760000Y-129860000D03*
X156260000Y-129860000D03*
X156760000Y-129860000D03*
X157260000Y-129860000D03*
X157760000Y-129860000D03*
X158260000Y-129860000D03*
X158760000Y-129860000D03*
X159260000Y-129860000D03*
X159760000Y-129860000D03*
X160260000Y-129860000D03*
X160760000Y-129860000D03*
X161260000Y-129860000D03*
X161760000Y-129860000D03*
X162260000Y-129860000D03*
X162760000Y-129860000D03*
X163260000Y-129860000D03*
X163760000Y-129860000D03*
X164260000Y-129860000D03*
X164760000Y-129860000D03*
X165260000Y-129860000D03*
D12*
G36*
X154989505Y-100716204D02*
G01*
X155013773Y-100719804D01*
X155037572Y-100725765D01*
X155060671Y-100734030D01*
X155082850Y-100744520D01*
X155103893Y-100757132D01*
X155123599Y-100771747D01*
X155141777Y-100788223D01*
X155158253Y-100806401D01*
X155172868Y-100826107D01*
X155185480Y-100847150D01*
X155195970Y-100869329D01*
X155204235Y-100892428D01*
X155210196Y-100916227D01*
X155213796Y-100940495D01*
X155215000Y-100964999D01*
X155215000Y-103115001D01*
X155213796Y-103139505D01*
X155210196Y-103163773D01*
X155204235Y-103187572D01*
X155195970Y-103210671D01*
X155185480Y-103232850D01*
X155172868Y-103253893D01*
X155158253Y-103273599D01*
X155141777Y-103291777D01*
X155123599Y-103308253D01*
X155103893Y-103322868D01*
X155082850Y-103335480D01*
X155060671Y-103345970D01*
X155037572Y-103354235D01*
X155013773Y-103360196D01*
X154989505Y-103363796D01*
X154965001Y-103365000D01*
X154114999Y-103365000D01*
X154090495Y-103363796D01*
X154066227Y-103360196D01*
X154042428Y-103354235D01*
X154019329Y-103345970D01*
X153997150Y-103335480D01*
X153976107Y-103322868D01*
X153956401Y-103308253D01*
X153938223Y-103291777D01*
X153921747Y-103273599D01*
X153907132Y-103253893D01*
X153894520Y-103232850D01*
X153884030Y-103210671D01*
X153875765Y-103187572D01*
X153869804Y-103163773D01*
X153866204Y-103139505D01*
X153865000Y-103115001D01*
X153865000Y-100964999D01*
X153866204Y-100940495D01*
X153869804Y-100916227D01*
X153875765Y-100892428D01*
X153884030Y-100869329D01*
X153894520Y-100847150D01*
X153907132Y-100826107D01*
X153921747Y-100806401D01*
X153938223Y-100788223D01*
X153956401Y-100771747D01*
X153976107Y-100757132D01*
X153997150Y-100744520D01*
X154019329Y-100734030D01*
X154042428Y-100725765D01*
X154066227Y-100719804D01*
X154090495Y-100716204D01*
X154114999Y-100715000D01*
X154965001Y-100715000D01*
X154989505Y-100716204D01*
X154989505Y-100716204D01*
G37*
D15*
X154540000Y-102040000D03*
D12*
G36*
X150489505Y-100716204D02*
G01*
X150513773Y-100719804D01*
X150537572Y-100725765D01*
X150560671Y-100734030D01*
X150582850Y-100744520D01*
X150603893Y-100757132D01*
X150623599Y-100771747D01*
X150641777Y-100788223D01*
X150658253Y-100806401D01*
X150672868Y-100826107D01*
X150685480Y-100847150D01*
X150695970Y-100869329D01*
X150704235Y-100892428D01*
X150710196Y-100916227D01*
X150713796Y-100940495D01*
X150715000Y-100964999D01*
X150715000Y-103115001D01*
X150713796Y-103139505D01*
X150710196Y-103163773D01*
X150704235Y-103187572D01*
X150695970Y-103210671D01*
X150685480Y-103232850D01*
X150672868Y-103253893D01*
X150658253Y-103273599D01*
X150641777Y-103291777D01*
X150623599Y-103308253D01*
X150603893Y-103322868D01*
X150582850Y-103335480D01*
X150560671Y-103345970D01*
X150537572Y-103354235D01*
X150513773Y-103360196D01*
X150489505Y-103363796D01*
X150465001Y-103365000D01*
X149614999Y-103365000D01*
X149590495Y-103363796D01*
X149566227Y-103360196D01*
X149542428Y-103354235D01*
X149519329Y-103345970D01*
X149497150Y-103335480D01*
X149476107Y-103322868D01*
X149456401Y-103308253D01*
X149438223Y-103291777D01*
X149421747Y-103273599D01*
X149407132Y-103253893D01*
X149394520Y-103232850D01*
X149384030Y-103210671D01*
X149375765Y-103187572D01*
X149369804Y-103163773D01*
X149366204Y-103139505D01*
X149365000Y-103115001D01*
X149365000Y-100964999D01*
X149366204Y-100940495D01*
X149369804Y-100916227D01*
X149375765Y-100892428D01*
X149384030Y-100869329D01*
X149394520Y-100847150D01*
X149407132Y-100826107D01*
X149421747Y-100806401D01*
X149438223Y-100788223D01*
X149456401Y-100771747D01*
X149476107Y-100757132D01*
X149497150Y-100744520D01*
X149519329Y-100734030D01*
X149542428Y-100725765D01*
X149566227Y-100719804D01*
X149590495Y-100716204D01*
X149614999Y-100715000D01*
X150465001Y-100715000D01*
X150489505Y-100716204D01*
X150489505Y-100716204D01*
G37*
D15*
X150040000Y-102040000D03*
D12*
G36*
X168002691Y-99376053D02*
G01*
X168023926Y-99379203D01*
X168044750Y-99384419D01*
X168064962Y-99391651D01*
X168084368Y-99400830D01*
X168102781Y-99411866D01*
X168120024Y-99424654D01*
X168135930Y-99439070D01*
X168150346Y-99454976D01*
X168163134Y-99472219D01*
X168174170Y-99490632D01*
X168183349Y-99510038D01*
X168190581Y-99530250D01*
X168195797Y-99551074D01*
X168198947Y-99572309D01*
X168200000Y-99593750D01*
X168200000Y-100106250D01*
X168198947Y-100127691D01*
X168195797Y-100148926D01*
X168190581Y-100169750D01*
X168183349Y-100189962D01*
X168174170Y-100209368D01*
X168163134Y-100227781D01*
X168150346Y-100245024D01*
X168135930Y-100260930D01*
X168120024Y-100275346D01*
X168102781Y-100288134D01*
X168084368Y-100299170D01*
X168064962Y-100308349D01*
X168044750Y-100315581D01*
X168023926Y-100320797D01*
X168002691Y-100323947D01*
X167981250Y-100325000D01*
X167543750Y-100325000D01*
X167522309Y-100323947D01*
X167501074Y-100320797D01*
X167480250Y-100315581D01*
X167460038Y-100308349D01*
X167440632Y-100299170D01*
X167422219Y-100288134D01*
X167404976Y-100275346D01*
X167389070Y-100260930D01*
X167374654Y-100245024D01*
X167361866Y-100227781D01*
X167350830Y-100209368D01*
X167341651Y-100189962D01*
X167334419Y-100169750D01*
X167329203Y-100148926D01*
X167326053Y-100127691D01*
X167325000Y-100106250D01*
X167325000Y-99593750D01*
X167326053Y-99572309D01*
X167329203Y-99551074D01*
X167334419Y-99530250D01*
X167341651Y-99510038D01*
X167350830Y-99490632D01*
X167361866Y-99472219D01*
X167374654Y-99454976D01*
X167389070Y-99439070D01*
X167404976Y-99424654D01*
X167422219Y-99411866D01*
X167440632Y-99400830D01*
X167460038Y-99391651D01*
X167480250Y-99384419D01*
X167501074Y-99379203D01*
X167522309Y-99376053D01*
X167543750Y-99375000D01*
X167981250Y-99375000D01*
X168002691Y-99376053D01*
X168002691Y-99376053D01*
G37*
D16*
X167762500Y-99850000D03*
D12*
G36*
X169577691Y-99376053D02*
G01*
X169598926Y-99379203D01*
X169619750Y-99384419D01*
X169639962Y-99391651D01*
X169659368Y-99400830D01*
X169677781Y-99411866D01*
X169695024Y-99424654D01*
X169710930Y-99439070D01*
X169725346Y-99454976D01*
X169738134Y-99472219D01*
X169749170Y-99490632D01*
X169758349Y-99510038D01*
X169765581Y-99530250D01*
X169770797Y-99551074D01*
X169773947Y-99572309D01*
X169775000Y-99593750D01*
X169775000Y-100106250D01*
X169773947Y-100127691D01*
X169770797Y-100148926D01*
X169765581Y-100169750D01*
X169758349Y-100189962D01*
X169749170Y-100209368D01*
X169738134Y-100227781D01*
X169725346Y-100245024D01*
X169710930Y-100260930D01*
X169695024Y-100275346D01*
X169677781Y-100288134D01*
X169659368Y-100299170D01*
X169639962Y-100308349D01*
X169619750Y-100315581D01*
X169598926Y-100320797D01*
X169577691Y-100323947D01*
X169556250Y-100325000D01*
X169118750Y-100325000D01*
X169097309Y-100323947D01*
X169076074Y-100320797D01*
X169055250Y-100315581D01*
X169035038Y-100308349D01*
X169015632Y-100299170D01*
X168997219Y-100288134D01*
X168979976Y-100275346D01*
X168964070Y-100260930D01*
X168949654Y-100245024D01*
X168936866Y-100227781D01*
X168925830Y-100209368D01*
X168916651Y-100189962D01*
X168909419Y-100169750D01*
X168904203Y-100148926D01*
X168901053Y-100127691D01*
X168900000Y-100106250D01*
X168900000Y-99593750D01*
X168901053Y-99572309D01*
X168904203Y-99551074D01*
X168909419Y-99530250D01*
X168916651Y-99510038D01*
X168925830Y-99490632D01*
X168936866Y-99472219D01*
X168949654Y-99454976D01*
X168964070Y-99439070D01*
X168979976Y-99424654D01*
X168997219Y-99411866D01*
X169015632Y-99400830D01*
X169035038Y-99391651D01*
X169055250Y-99384419D01*
X169076074Y-99379203D01*
X169097309Y-99376053D01*
X169118750Y-99375000D01*
X169556250Y-99375000D01*
X169577691Y-99376053D01*
X169577691Y-99376053D01*
G37*
D16*
X169337500Y-99850000D03*
D12*
G36*
X165237691Y-101601053D02*
G01*
X165258926Y-101604203D01*
X165279750Y-101609419D01*
X165299962Y-101616651D01*
X165319368Y-101625830D01*
X165337781Y-101636866D01*
X165355024Y-101649654D01*
X165370930Y-101664070D01*
X165385346Y-101679976D01*
X165398134Y-101697219D01*
X165409170Y-101715632D01*
X165418349Y-101735038D01*
X165425581Y-101755250D01*
X165430797Y-101776074D01*
X165433947Y-101797309D01*
X165435000Y-101818750D01*
X165435000Y-102256250D01*
X165433947Y-102277691D01*
X165430797Y-102298926D01*
X165425581Y-102319750D01*
X165418349Y-102339962D01*
X165409170Y-102359368D01*
X165398134Y-102377781D01*
X165385346Y-102395024D01*
X165370930Y-102410930D01*
X165355024Y-102425346D01*
X165337781Y-102438134D01*
X165319368Y-102449170D01*
X165299962Y-102458349D01*
X165279750Y-102465581D01*
X165258926Y-102470797D01*
X165237691Y-102473947D01*
X165216250Y-102475000D01*
X164703750Y-102475000D01*
X164682309Y-102473947D01*
X164661074Y-102470797D01*
X164640250Y-102465581D01*
X164620038Y-102458349D01*
X164600632Y-102449170D01*
X164582219Y-102438134D01*
X164564976Y-102425346D01*
X164549070Y-102410930D01*
X164534654Y-102395024D01*
X164521866Y-102377781D01*
X164510830Y-102359368D01*
X164501651Y-102339962D01*
X164494419Y-102319750D01*
X164489203Y-102298926D01*
X164486053Y-102277691D01*
X164485000Y-102256250D01*
X164485000Y-101818750D01*
X164486053Y-101797309D01*
X164489203Y-101776074D01*
X164494419Y-101755250D01*
X164501651Y-101735038D01*
X164510830Y-101715632D01*
X164521866Y-101697219D01*
X164534654Y-101679976D01*
X164549070Y-101664070D01*
X164564976Y-101649654D01*
X164582219Y-101636866D01*
X164600632Y-101625830D01*
X164620038Y-101616651D01*
X164640250Y-101609419D01*
X164661074Y-101604203D01*
X164682309Y-101601053D01*
X164703750Y-101600000D01*
X165216250Y-101600000D01*
X165237691Y-101601053D01*
X165237691Y-101601053D01*
G37*
D16*
X164960000Y-102037500D03*
D12*
G36*
X165237691Y-100026053D02*
G01*
X165258926Y-100029203D01*
X165279750Y-100034419D01*
X165299962Y-100041651D01*
X165319368Y-100050830D01*
X165337781Y-100061866D01*
X165355024Y-100074654D01*
X165370930Y-100089070D01*
X165385346Y-100104976D01*
X165398134Y-100122219D01*
X165409170Y-100140632D01*
X165418349Y-100160038D01*
X165425581Y-100180250D01*
X165430797Y-100201074D01*
X165433947Y-100222309D01*
X165435000Y-100243750D01*
X165435000Y-100681250D01*
X165433947Y-100702691D01*
X165430797Y-100723926D01*
X165425581Y-100744750D01*
X165418349Y-100764962D01*
X165409170Y-100784368D01*
X165398134Y-100802781D01*
X165385346Y-100820024D01*
X165370930Y-100835930D01*
X165355024Y-100850346D01*
X165337781Y-100863134D01*
X165319368Y-100874170D01*
X165299962Y-100883349D01*
X165279750Y-100890581D01*
X165258926Y-100895797D01*
X165237691Y-100898947D01*
X165216250Y-100900000D01*
X164703750Y-100900000D01*
X164682309Y-100898947D01*
X164661074Y-100895797D01*
X164640250Y-100890581D01*
X164620038Y-100883349D01*
X164600632Y-100874170D01*
X164582219Y-100863134D01*
X164564976Y-100850346D01*
X164549070Y-100835930D01*
X164534654Y-100820024D01*
X164521866Y-100802781D01*
X164510830Y-100784368D01*
X164501651Y-100764962D01*
X164494419Y-100744750D01*
X164489203Y-100723926D01*
X164486053Y-100702691D01*
X164485000Y-100681250D01*
X164485000Y-100243750D01*
X164486053Y-100222309D01*
X164489203Y-100201074D01*
X164494419Y-100180250D01*
X164501651Y-100160038D01*
X164510830Y-100140632D01*
X164521866Y-100122219D01*
X164534654Y-100104976D01*
X164549070Y-100089070D01*
X164564976Y-100074654D01*
X164582219Y-100061866D01*
X164600632Y-100050830D01*
X164620038Y-100041651D01*
X164640250Y-100034419D01*
X164661074Y-100029203D01*
X164682309Y-100026053D01*
X164703750Y-100025000D01*
X165216250Y-100025000D01*
X165237691Y-100026053D01*
X165237691Y-100026053D01*
G37*
D16*
X164960000Y-100462500D03*
D12*
G36*
X170872691Y-109966053D02*
G01*
X170893926Y-109969203D01*
X170914750Y-109974419D01*
X170934962Y-109981651D01*
X170954368Y-109990830D01*
X170972781Y-110001866D01*
X170990024Y-110014654D01*
X171005930Y-110029070D01*
X171020346Y-110044976D01*
X171033134Y-110062219D01*
X171044170Y-110080632D01*
X171053349Y-110100038D01*
X171060581Y-110120250D01*
X171065797Y-110141074D01*
X171068947Y-110162309D01*
X171070000Y-110183750D01*
X171070000Y-110696250D01*
X171068947Y-110717691D01*
X171065797Y-110738926D01*
X171060581Y-110759750D01*
X171053349Y-110779962D01*
X171044170Y-110799368D01*
X171033134Y-110817781D01*
X171020346Y-110835024D01*
X171005930Y-110850930D01*
X170990024Y-110865346D01*
X170972781Y-110878134D01*
X170954368Y-110889170D01*
X170934962Y-110898349D01*
X170914750Y-110905581D01*
X170893926Y-110910797D01*
X170872691Y-110913947D01*
X170851250Y-110915000D01*
X170413750Y-110915000D01*
X170392309Y-110913947D01*
X170371074Y-110910797D01*
X170350250Y-110905581D01*
X170330038Y-110898349D01*
X170310632Y-110889170D01*
X170292219Y-110878134D01*
X170274976Y-110865346D01*
X170259070Y-110850930D01*
X170244654Y-110835024D01*
X170231866Y-110817781D01*
X170220830Y-110799368D01*
X170211651Y-110779962D01*
X170204419Y-110759750D01*
X170199203Y-110738926D01*
X170196053Y-110717691D01*
X170195000Y-110696250D01*
X170195000Y-110183750D01*
X170196053Y-110162309D01*
X170199203Y-110141074D01*
X170204419Y-110120250D01*
X170211651Y-110100038D01*
X170220830Y-110080632D01*
X170231866Y-110062219D01*
X170244654Y-110044976D01*
X170259070Y-110029070D01*
X170274976Y-110014654D01*
X170292219Y-110001866D01*
X170310632Y-109990830D01*
X170330038Y-109981651D01*
X170350250Y-109974419D01*
X170371074Y-109969203D01*
X170392309Y-109966053D01*
X170413750Y-109965000D01*
X170851250Y-109965000D01*
X170872691Y-109966053D01*
X170872691Y-109966053D01*
G37*
D16*
X170632500Y-110440000D03*
D12*
G36*
X172447691Y-109966053D02*
G01*
X172468926Y-109969203D01*
X172489750Y-109974419D01*
X172509962Y-109981651D01*
X172529368Y-109990830D01*
X172547781Y-110001866D01*
X172565024Y-110014654D01*
X172580930Y-110029070D01*
X172595346Y-110044976D01*
X172608134Y-110062219D01*
X172619170Y-110080632D01*
X172628349Y-110100038D01*
X172635581Y-110120250D01*
X172640797Y-110141074D01*
X172643947Y-110162309D01*
X172645000Y-110183750D01*
X172645000Y-110696250D01*
X172643947Y-110717691D01*
X172640797Y-110738926D01*
X172635581Y-110759750D01*
X172628349Y-110779962D01*
X172619170Y-110799368D01*
X172608134Y-110817781D01*
X172595346Y-110835024D01*
X172580930Y-110850930D01*
X172565024Y-110865346D01*
X172547781Y-110878134D01*
X172529368Y-110889170D01*
X172509962Y-110898349D01*
X172489750Y-110905581D01*
X172468926Y-110910797D01*
X172447691Y-110913947D01*
X172426250Y-110915000D01*
X171988750Y-110915000D01*
X171967309Y-110913947D01*
X171946074Y-110910797D01*
X171925250Y-110905581D01*
X171905038Y-110898349D01*
X171885632Y-110889170D01*
X171867219Y-110878134D01*
X171849976Y-110865346D01*
X171834070Y-110850930D01*
X171819654Y-110835024D01*
X171806866Y-110817781D01*
X171795830Y-110799368D01*
X171786651Y-110779962D01*
X171779419Y-110759750D01*
X171774203Y-110738926D01*
X171771053Y-110717691D01*
X171770000Y-110696250D01*
X171770000Y-110183750D01*
X171771053Y-110162309D01*
X171774203Y-110141074D01*
X171779419Y-110120250D01*
X171786651Y-110100038D01*
X171795830Y-110080632D01*
X171806866Y-110062219D01*
X171819654Y-110044976D01*
X171834070Y-110029070D01*
X171849976Y-110014654D01*
X171867219Y-110001866D01*
X171885632Y-109990830D01*
X171905038Y-109981651D01*
X171925250Y-109974419D01*
X171946074Y-109969203D01*
X171967309Y-109966053D01*
X171988750Y-109965000D01*
X172426250Y-109965000D01*
X172447691Y-109966053D01*
X172447691Y-109966053D01*
G37*
D16*
X172207500Y-110440000D03*
D12*
G36*
X172467691Y-108076053D02*
G01*
X172488926Y-108079203D01*
X172509750Y-108084419D01*
X172529962Y-108091651D01*
X172549368Y-108100830D01*
X172567781Y-108111866D01*
X172585024Y-108124654D01*
X172600930Y-108139070D01*
X172615346Y-108154976D01*
X172628134Y-108172219D01*
X172639170Y-108190632D01*
X172648349Y-108210038D01*
X172655581Y-108230250D01*
X172660797Y-108251074D01*
X172663947Y-108272309D01*
X172665000Y-108293750D01*
X172665000Y-108806250D01*
X172663947Y-108827691D01*
X172660797Y-108848926D01*
X172655581Y-108869750D01*
X172648349Y-108889962D01*
X172639170Y-108909368D01*
X172628134Y-108927781D01*
X172615346Y-108945024D01*
X172600930Y-108960930D01*
X172585024Y-108975346D01*
X172567781Y-108988134D01*
X172549368Y-108999170D01*
X172529962Y-109008349D01*
X172509750Y-109015581D01*
X172488926Y-109020797D01*
X172467691Y-109023947D01*
X172446250Y-109025000D01*
X172008750Y-109025000D01*
X171987309Y-109023947D01*
X171966074Y-109020797D01*
X171945250Y-109015581D01*
X171925038Y-109008349D01*
X171905632Y-108999170D01*
X171887219Y-108988134D01*
X171869976Y-108975346D01*
X171854070Y-108960930D01*
X171839654Y-108945024D01*
X171826866Y-108927781D01*
X171815830Y-108909368D01*
X171806651Y-108889962D01*
X171799419Y-108869750D01*
X171794203Y-108848926D01*
X171791053Y-108827691D01*
X171790000Y-108806250D01*
X171790000Y-108293750D01*
X171791053Y-108272309D01*
X171794203Y-108251074D01*
X171799419Y-108230250D01*
X171806651Y-108210038D01*
X171815830Y-108190632D01*
X171826866Y-108172219D01*
X171839654Y-108154976D01*
X171854070Y-108139070D01*
X171869976Y-108124654D01*
X171887219Y-108111866D01*
X171905632Y-108100830D01*
X171925038Y-108091651D01*
X171945250Y-108084419D01*
X171966074Y-108079203D01*
X171987309Y-108076053D01*
X172008750Y-108075000D01*
X172446250Y-108075000D01*
X172467691Y-108076053D01*
X172467691Y-108076053D01*
G37*
D16*
X172227500Y-108550000D03*
D12*
G36*
X170892691Y-108076053D02*
G01*
X170913926Y-108079203D01*
X170934750Y-108084419D01*
X170954962Y-108091651D01*
X170974368Y-108100830D01*
X170992781Y-108111866D01*
X171010024Y-108124654D01*
X171025930Y-108139070D01*
X171040346Y-108154976D01*
X171053134Y-108172219D01*
X171064170Y-108190632D01*
X171073349Y-108210038D01*
X171080581Y-108230250D01*
X171085797Y-108251074D01*
X171088947Y-108272309D01*
X171090000Y-108293750D01*
X171090000Y-108806250D01*
X171088947Y-108827691D01*
X171085797Y-108848926D01*
X171080581Y-108869750D01*
X171073349Y-108889962D01*
X171064170Y-108909368D01*
X171053134Y-108927781D01*
X171040346Y-108945024D01*
X171025930Y-108960930D01*
X171010024Y-108975346D01*
X170992781Y-108988134D01*
X170974368Y-108999170D01*
X170954962Y-109008349D01*
X170934750Y-109015581D01*
X170913926Y-109020797D01*
X170892691Y-109023947D01*
X170871250Y-109025000D01*
X170433750Y-109025000D01*
X170412309Y-109023947D01*
X170391074Y-109020797D01*
X170370250Y-109015581D01*
X170350038Y-109008349D01*
X170330632Y-108999170D01*
X170312219Y-108988134D01*
X170294976Y-108975346D01*
X170279070Y-108960930D01*
X170264654Y-108945024D01*
X170251866Y-108927781D01*
X170240830Y-108909368D01*
X170231651Y-108889962D01*
X170224419Y-108869750D01*
X170219203Y-108848926D01*
X170216053Y-108827691D01*
X170215000Y-108806250D01*
X170215000Y-108293750D01*
X170216053Y-108272309D01*
X170219203Y-108251074D01*
X170224419Y-108230250D01*
X170231651Y-108210038D01*
X170240830Y-108190632D01*
X170251866Y-108172219D01*
X170264654Y-108154976D01*
X170279070Y-108139070D01*
X170294976Y-108124654D01*
X170312219Y-108111866D01*
X170330632Y-108100830D01*
X170350038Y-108091651D01*
X170370250Y-108084419D01*
X170391074Y-108079203D01*
X170412309Y-108076053D01*
X170433750Y-108075000D01*
X170871250Y-108075000D01*
X170892691Y-108076053D01*
X170892691Y-108076053D01*
G37*
D16*
X170652500Y-108550000D03*
D12*
G36*
X174157691Y-117806053D02*
G01*
X174178926Y-117809203D01*
X174199750Y-117814419D01*
X174219962Y-117821651D01*
X174239368Y-117830830D01*
X174257781Y-117841866D01*
X174275024Y-117854654D01*
X174290930Y-117869070D01*
X174305346Y-117884976D01*
X174318134Y-117902219D01*
X174329170Y-117920632D01*
X174338349Y-117940038D01*
X174345581Y-117960250D01*
X174350797Y-117981074D01*
X174353947Y-118002309D01*
X174355000Y-118023750D01*
X174355000Y-118536250D01*
X174353947Y-118557691D01*
X174350797Y-118578926D01*
X174345581Y-118599750D01*
X174338349Y-118619962D01*
X174329170Y-118639368D01*
X174318134Y-118657781D01*
X174305346Y-118675024D01*
X174290930Y-118690930D01*
X174275024Y-118705346D01*
X174257781Y-118718134D01*
X174239368Y-118729170D01*
X174219962Y-118738349D01*
X174199750Y-118745581D01*
X174178926Y-118750797D01*
X174157691Y-118753947D01*
X174136250Y-118755000D01*
X173698750Y-118755000D01*
X173677309Y-118753947D01*
X173656074Y-118750797D01*
X173635250Y-118745581D01*
X173615038Y-118738349D01*
X173595632Y-118729170D01*
X173577219Y-118718134D01*
X173559976Y-118705346D01*
X173544070Y-118690930D01*
X173529654Y-118675024D01*
X173516866Y-118657781D01*
X173505830Y-118639368D01*
X173496651Y-118619962D01*
X173489419Y-118599750D01*
X173484203Y-118578926D01*
X173481053Y-118557691D01*
X173480000Y-118536250D01*
X173480000Y-118023750D01*
X173481053Y-118002309D01*
X173484203Y-117981074D01*
X173489419Y-117960250D01*
X173496651Y-117940038D01*
X173505830Y-117920632D01*
X173516866Y-117902219D01*
X173529654Y-117884976D01*
X173544070Y-117869070D01*
X173559976Y-117854654D01*
X173577219Y-117841866D01*
X173595632Y-117830830D01*
X173615038Y-117821651D01*
X173635250Y-117814419D01*
X173656074Y-117809203D01*
X173677309Y-117806053D01*
X173698750Y-117805000D01*
X174136250Y-117805000D01*
X174157691Y-117806053D01*
X174157691Y-117806053D01*
G37*
D16*
X173917500Y-118280000D03*
D12*
G36*
X172582691Y-117806053D02*
G01*
X172603926Y-117809203D01*
X172624750Y-117814419D01*
X172644962Y-117821651D01*
X172664368Y-117830830D01*
X172682781Y-117841866D01*
X172700024Y-117854654D01*
X172715930Y-117869070D01*
X172730346Y-117884976D01*
X172743134Y-117902219D01*
X172754170Y-117920632D01*
X172763349Y-117940038D01*
X172770581Y-117960250D01*
X172775797Y-117981074D01*
X172778947Y-118002309D01*
X172780000Y-118023750D01*
X172780000Y-118536250D01*
X172778947Y-118557691D01*
X172775797Y-118578926D01*
X172770581Y-118599750D01*
X172763349Y-118619962D01*
X172754170Y-118639368D01*
X172743134Y-118657781D01*
X172730346Y-118675024D01*
X172715930Y-118690930D01*
X172700024Y-118705346D01*
X172682781Y-118718134D01*
X172664368Y-118729170D01*
X172644962Y-118738349D01*
X172624750Y-118745581D01*
X172603926Y-118750797D01*
X172582691Y-118753947D01*
X172561250Y-118755000D01*
X172123750Y-118755000D01*
X172102309Y-118753947D01*
X172081074Y-118750797D01*
X172060250Y-118745581D01*
X172040038Y-118738349D01*
X172020632Y-118729170D01*
X172002219Y-118718134D01*
X171984976Y-118705346D01*
X171969070Y-118690930D01*
X171954654Y-118675024D01*
X171941866Y-118657781D01*
X171930830Y-118639368D01*
X171921651Y-118619962D01*
X171914419Y-118599750D01*
X171909203Y-118578926D01*
X171906053Y-118557691D01*
X171905000Y-118536250D01*
X171905000Y-118023750D01*
X171906053Y-118002309D01*
X171909203Y-117981074D01*
X171914419Y-117960250D01*
X171921651Y-117940038D01*
X171930830Y-117920632D01*
X171941866Y-117902219D01*
X171954654Y-117884976D01*
X171969070Y-117869070D01*
X171984976Y-117854654D01*
X172002219Y-117841866D01*
X172020632Y-117830830D01*
X172040038Y-117821651D01*
X172060250Y-117814419D01*
X172081074Y-117809203D01*
X172102309Y-117806053D01*
X172123750Y-117805000D01*
X172561250Y-117805000D01*
X172582691Y-117806053D01*
X172582691Y-117806053D01*
G37*
D16*
X172342500Y-118280000D03*
D12*
G36*
X165417691Y-126951053D02*
G01*
X165438926Y-126954203D01*
X165459750Y-126959419D01*
X165479962Y-126966651D01*
X165499368Y-126975830D01*
X165517781Y-126986866D01*
X165535024Y-126999654D01*
X165550930Y-127014070D01*
X165565346Y-127029976D01*
X165578134Y-127047219D01*
X165589170Y-127065632D01*
X165598349Y-127085038D01*
X165605581Y-127105250D01*
X165610797Y-127126074D01*
X165613947Y-127147309D01*
X165615000Y-127168750D01*
X165615000Y-127606250D01*
X165613947Y-127627691D01*
X165610797Y-127648926D01*
X165605581Y-127669750D01*
X165598349Y-127689962D01*
X165589170Y-127709368D01*
X165578134Y-127727781D01*
X165565346Y-127745024D01*
X165550930Y-127760930D01*
X165535024Y-127775346D01*
X165517781Y-127788134D01*
X165499368Y-127799170D01*
X165479962Y-127808349D01*
X165459750Y-127815581D01*
X165438926Y-127820797D01*
X165417691Y-127823947D01*
X165396250Y-127825000D01*
X164883750Y-127825000D01*
X164862309Y-127823947D01*
X164841074Y-127820797D01*
X164820250Y-127815581D01*
X164800038Y-127808349D01*
X164780632Y-127799170D01*
X164762219Y-127788134D01*
X164744976Y-127775346D01*
X164729070Y-127760930D01*
X164714654Y-127745024D01*
X164701866Y-127727781D01*
X164690830Y-127709368D01*
X164681651Y-127689962D01*
X164674419Y-127669750D01*
X164669203Y-127648926D01*
X164666053Y-127627691D01*
X164665000Y-127606250D01*
X164665000Y-127168750D01*
X164666053Y-127147309D01*
X164669203Y-127126074D01*
X164674419Y-127105250D01*
X164681651Y-127085038D01*
X164690830Y-127065632D01*
X164701866Y-127047219D01*
X164714654Y-127029976D01*
X164729070Y-127014070D01*
X164744976Y-126999654D01*
X164762219Y-126986866D01*
X164780632Y-126975830D01*
X164800038Y-126966651D01*
X164820250Y-126959419D01*
X164841074Y-126954203D01*
X164862309Y-126951053D01*
X164883750Y-126950000D01*
X165396250Y-126950000D01*
X165417691Y-126951053D01*
X165417691Y-126951053D01*
G37*
D16*
X165140000Y-127387500D03*
D12*
G36*
X165417691Y-125376053D02*
G01*
X165438926Y-125379203D01*
X165459750Y-125384419D01*
X165479962Y-125391651D01*
X165499368Y-125400830D01*
X165517781Y-125411866D01*
X165535024Y-125424654D01*
X165550930Y-125439070D01*
X165565346Y-125454976D01*
X165578134Y-125472219D01*
X165589170Y-125490632D01*
X165598349Y-125510038D01*
X165605581Y-125530250D01*
X165610797Y-125551074D01*
X165613947Y-125572309D01*
X165615000Y-125593750D01*
X165615000Y-126031250D01*
X165613947Y-126052691D01*
X165610797Y-126073926D01*
X165605581Y-126094750D01*
X165598349Y-126114962D01*
X165589170Y-126134368D01*
X165578134Y-126152781D01*
X165565346Y-126170024D01*
X165550930Y-126185930D01*
X165535024Y-126200346D01*
X165517781Y-126213134D01*
X165499368Y-126224170D01*
X165479962Y-126233349D01*
X165459750Y-126240581D01*
X165438926Y-126245797D01*
X165417691Y-126248947D01*
X165396250Y-126250000D01*
X164883750Y-126250000D01*
X164862309Y-126248947D01*
X164841074Y-126245797D01*
X164820250Y-126240581D01*
X164800038Y-126233349D01*
X164780632Y-126224170D01*
X164762219Y-126213134D01*
X164744976Y-126200346D01*
X164729070Y-126185930D01*
X164714654Y-126170024D01*
X164701866Y-126152781D01*
X164690830Y-126134368D01*
X164681651Y-126114962D01*
X164674419Y-126094750D01*
X164669203Y-126073926D01*
X164666053Y-126052691D01*
X164665000Y-126031250D01*
X164665000Y-125593750D01*
X164666053Y-125572309D01*
X164669203Y-125551074D01*
X164674419Y-125530250D01*
X164681651Y-125510038D01*
X164690830Y-125490632D01*
X164701866Y-125472219D01*
X164714654Y-125454976D01*
X164729070Y-125439070D01*
X164744976Y-125424654D01*
X164762219Y-125411866D01*
X164780632Y-125400830D01*
X164800038Y-125391651D01*
X164820250Y-125384419D01*
X164841074Y-125379203D01*
X164862309Y-125376053D01*
X164883750Y-125375000D01*
X165396250Y-125375000D01*
X165417691Y-125376053D01*
X165417691Y-125376053D01*
G37*
D16*
X165140000Y-125812500D03*
D12*
G36*
X163507691Y-126931053D02*
G01*
X163528926Y-126934203D01*
X163549750Y-126939419D01*
X163569962Y-126946651D01*
X163589368Y-126955830D01*
X163607781Y-126966866D01*
X163625024Y-126979654D01*
X163640930Y-126994070D01*
X163655346Y-127009976D01*
X163668134Y-127027219D01*
X163679170Y-127045632D01*
X163688349Y-127065038D01*
X163695581Y-127085250D01*
X163700797Y-127106074D01*
X163703947Y-127127309D01*
X163705000Y-127148750D01*
X163705000Y-127586250D01*
X163703947Y-127607691D01*
X163700797Y-127628926D01*
X163695581Y-127649750D01*
X163688349Y-127669962D01*
X163679170Y-127689368D01*
X163668134Y-127707781D01*
X163655346Y-127725024D01*
X163640930Y-127740930D01*
X163625024Y-127755346D01*
X163607781Y-127768134D01*
X163589368Y-127779170D01*
X163569962Y-127788349D01*
X163549750Y-127795581D01*
X163528926Y-127800797D01*
X163507691Y-127803947D01*
X163486250Y-127805000D01*
X162973750Y-127805000D01*
X162952309Y-127803947D01*
X162931074Y-127800797D01*
X162910250Y-127795581D01*
X162890038Y-127788349D01*
X162870632Y-127779170D01*
X162852219Y-127768134D01*
X162834976Y-127755346D01*
X162819070Y-127740930D01*
X162804654Y-127725024D01*
X162791866Y-127707781D01*
X162780830Y-127689368D01*
X162771651Y-127669962D01*
X162764419Y-127649750D01*
X162759203Y-127628926D01*
X162756053Y-127607691D01*
X162755000Y-127586250D01*
X162755000Y-127148750D01*
X162756053Y-127127309D01*
X162759203Y-127106074D01*
X162764419Y-127085250D01*
X162771651Y-127065038D01*
X162780830Y-127045632D01*
X162791866Y-127027219D01*
X162804654Y-127009976D01*
X162819070Y-126994070D01*
X162834976Y-126979654D01*
X162852219Y-126966866D01*
X162870632Y-126955830D01*
X162890038Y-126946651D01*
X162910250Y-126939419D01*
X162931074Y-126934203D01*
X162952309Y-126931053D01*
X162973750Y-126930000D01*
X163486250Y-126930000D01*
X163507691Y-126931053D01*
X163507691Y-126931053D01*
G37*
D16*
X163230000Y-127367500D03*
D12*
G36*
X163507691Y-125356053D02*
G01*
X163528926Y-125359203D01*
X163549750Y-125364419D01*
X163569962Y-125371651D01*
X163589368Y-125380830D01*
X163607781Y-125391866D01*
X163625024Y-125404654D01*
X163640930Y-125419070D01*
X163655346Y-125434976D01*
X163668134Y-125452219D01*
X163679170Y-125470632D01*
X163688349Y-125490038D01*
X163695581Y-125510250D01*
X163700797Y-125531074D01*
X163703947Y-125552309D01*
X163705000Y-125573750D01*
X163705000Y-126011250D01*
X163703947Y-126032691D01*
X163700797Y-126053926D01*
X163695581Y-126074750D01*
X163688349Y-126094962D01*
X163679170Y-126114368D01*
X163668134Y-126132781D01*
X163655346Y-126150024D01*
X163640930Y-126165930D01*
X163625024Y-126180346D01*
X163607781Y-126193134D01*
X163589368Y-126204170D01*
X163569962Y-126213349D01*
X163549750Y-126220581D01*
X163528926Y-126225797D01*
X163507691Y-126228947D01*
X163486250Y-126230000D01*
X162973750Y-126230000D01*
X162952309Y-126228947D01*
X162931074Y-126225797D01*
X162910250Y-126220581D01*
X162890038Y-126213349D01*
X162870632Y-126204170D01*
X162852219Y-126193134D01*
X162834976Y-126180346D01*
X162819070Y-126165930D01*
X162804654Y-126150024D01*
X162791866Y-126132781D01*
X162780830Y-126114368D01*
X162771651Y-126094962D01*
X162764419Y-126074750D01*
X162759203Y-126053926D01*
X162756053Y-126032691D01*
X162755000Y-126011250D01*
X162755000Y-125573750D01*
X162756053Y-125552309D01*
X162759203Y-125531074D01*
X162764419Y-125510250D01*
X162771651Y-125490038D01*
X162780830Y-125470632D01*
X162791866Y-125452219D01*
X162804654Y-125434976D01*
X162819070Y-125419070D01*
X162834976Y-125404654D01*
X162852219Y-125391866D01*
X162870632Y-125380830D01*
X162890038Y-125371651D01*
X162910250Y-125364419D01*
X162931074Y-125359203D01*
X162952309Y-125356053D01*
X162973750Y-125355000D01*
X163486250Y-125355000D01*
X163507691Y-125356053D01*
X163507691Y-125356053D01*
G37*
D16*
X163230000Y-125792500D03*
D12*
G36*
X158597691Y-122556053D02*
G01*
X158618926Y-122559203D01*
X158639750Y-122564419D01*
X158659962Y-122571651D01*
X158679368Y-122580830D01*
X158697781Y-122591866D01*
X158715024Y-122604654D01*
X158730930Y-122619070D01*
X158745346Y-122634976D01*
X158758134Y-122652219D01*
X158769170Y-122670632D01*
X158778349Y-122690038D01*
X158785581Y-122710250D01*
X158790797Y-122731074D01*
X158793947Y-122752309D01*
X158795000Y-122773750D01*
X158795000Y-123211250D01*
X158793947Y-123232691D01*
X158790797Y-123253926D01*
X158785581Y-123274750D01*
X158778349Y-123294962D01*
X158769170Y-123314368D01*
X158758134Y-123332781D01*
X158745346Y-123350024D01*
X158730930Y-123365930D01*
X158715024Y-123380346D01*
X158697781Y-123393134D01*
X158679368Y-123404170D01*
X158659962Y-123413349D01*
X158639750Y-123420581D01*
X158618926Y-123425797D01*
X158597691Y-123428947D01*
X158576250Y-123430000D01*
X158063750Y-123430000D01*
X158042309Y-123428947D01*
X158021074Y-123425797D01*
X158000250Y-123420581D01*
X157980038Y-123413349D01*
X157960632Y-123404170D01*
X157942219Y-123393134D01*
X157924976Y-123380346D01*
X157909070Y-123365930D01*
X157894654Y-123350024D01*
X157881866Y-123332781D01*
X157870830Y-123314368D01*
X157861651Y-123294962D01*
X157854419Y-123274750D01*
X157849203Y-123253926D01*
X157846053Y-123232691D01*
X157845000Y-123211250D01*
X157845000Y-122773750D01*
X157846053Y-122752309D01*
X157849203Y-122731074D01*
X157854419Y-122710250D01*
X157861651Y-122690038D01*
X157870830Y-122670632D01*
X157881866Y-122652219D01*
X157894654Y-122634976D01*
X157909070Y-122619070D01*
X157924976Y-122604654D01*
X157942219Y-122591866D01*
X157960632Y-122580830D01*
X157980038Y-122571651D01*
X158000250Y-122564419D01*
X158021074Y-122559203D01*
X158042309Y-122556053D01*
X158063750Y-122555000D01*
X158576250Y-122555000D01*
X158597691Y-122556053D01*
X158597691Y-122556053D01*
G37*
D16*
X158320000Y-122992500D03*
D12*
G36*
X158597691Y-124131053D02*
G01*
X158618926Y-124134203D01*
X158639750Y-124139419D01*
X158659962Y-124146651D01*
X158679368Y-124155830D01*
X158697781Y-124166866D01*
X158715024Y-124179654D01*
X158730930Y-124194070D01*
X158745346Y-124209976D01*
X158758134Y-124227219D01*
X158769170Y-124245632D01*
X158778349Y-124265038D01*
X158785581Y-124285250D01*
X158790797Y-124306074D01*
X158793947Y-124327309D01*
X158795000Y-124348750D01*
X158795000Y-124786250D01*
X158793947Y-124807691D01*
X158790797Y-124828926D01*
X158785581Y-124849750D01*
X158778349Y-124869962D01*
X158769170Y-124889368D01*
X158758134Y-124907781D01*
X158745346Y-124925024D01*
X158730930Y-124940930D01*
X158715024Y-124955346D01*
X158697781Y-124968134D01*
X158679368Y-124979170D01*
X158659962Y-124988349D01*
X158639750Y-124995581D01*
X158618926Y-125000797D01*
X158597691Y-125003947D01*
X158576250Y-125005000D01*
X158063750Y-125005000D01*
X158042309Y-125003947D01*
X158021074Y-125000797D01*
X158000250Y-124995581D01*
X157980038Y-124988349D01*
X157960632Y-124979170D01*
X157942219Y-124968134D01*
X157924976Y-124955346D01*
X157909070Y-124940930D01*
X157894654Y-124925024D01*
X157881866Y-124907781D01*
X157870830Y-124889368D01*
X157861651Y-124869962D01*
X157854419Y-124849750D01*
X157849203Y-124828926D01*
X157846053Y-124807691D01*
X157845000Y-124786250D01*
X157845000Y-124348750D01*
X157846053Y-124327309D01*
X157849203Y-124306074D01*
X157854419Y-124285250D01*
X157861651Y-124265038D01*
X157870830Y-124245632D01*
X157881866Y-124227219D01*
X157894654Y-124209976D01*
X157909070Y-124194070D01*
X157924976Y-124179654D01*
X157942219Y-124166866D01*
X157960632Y-124155830D01*
X157980038Y-124146651D01*
X158000250Y-124139419D01*
X158021074Y-124134203D01*
X158042309Y-124131053D01*
X158063750Y-124130000D01*
X158576250Y-124130000D01*
X158597691Y-124131053D01*
X158597691Y-124131053D01*
G37*
D16*
X158320000Y-124567500D03*
D12*
G36*
X157087691Y-122556053D02*
G01*
X157108926Y-122559203D01*
X157129750Y-122564419D01*
X157149962Y-122571651D01*
X157169368Y-122580830D01*
X157187781Y-122591866D01*
X157205024Y-122604654D01*
X157220930Y-122619070D01*
X157235346Y-122634976D01*
X157248134Y-122652219D01*
X157259170Y-122670632D01*
X157268349Y-122690038D01*
X157275581Y-122710250D01*
X157280797Y-122731074D01*
X157283947Y-122752309D01*
X157285000Y-122773750D01*
X157285000Y-123211250D01*
X157283947Y-123232691D01*
X157280797Y-123253926D01*
X157275581Y-123274750D01*
X157268349Y-123294962D01*
X157259170Y-123314368D01*
X157248134Y-123332781D01*
X157235346Y-123350024D01*
X157220930Y-123365930D01*
X157205024Y-123380346D01*
X157187781Y-123393134D01*
X157169368Y-123404170D01*
X157149962Y-123413349D01*
X157129750Y-123420581D01*
X157108926Y-123425797D01*
X157087691Y-123428947D01*
X157066250Y-123430000D01*
X156553750Y-123430000D01*
X156532309Y-123428947D01*
X156511074Y-123425797D01*
X156490250Y-123420581D01*
X156470038Y-123413349D01*
X156450632Y-123404170D01*
X156432219Y-123393134D01*
X156414976Y-123380346D01*
X156399070Y-123365930D01*
X156384654Y-123350024D01*
X156371866Y-123332781D01*
X156360830Y-123314368D01*
X156351651Y-123294962D01*
X156344419Y-123274750D01*
X156339203Y-123253926D01*
X156336053Y-123232691D01*
X156335000Y-123211250D01*
X156335000Y-122773750D01*
X156336053Y-122752309D01*
X156339203Y-122731074D01*
X156344419Y-122710250D01*
X156351651Y-122690038D01*
X156360830Y-122670632D01*
X156371866Y-122652219D01*
X156384654Y-122634976D01*
X156399070Y-122619070D01*
X156414976Y-122604654D01*
X156432219Y-122591866D01*
X156450632Y-122580830D01*
X156470038Y-122571651D01*
X156490250Y-122564419D01*
X156511074Y-122559203D01*
X156532309Y-122556053D01*
X156553750Y-122555000D01*
X157066250Y-122555000D01*
X157087691Y-122556053D01*
X157087691Y-122556053D01*
G37*
D16*
X156810000Y-122992500D03*
D12*
G36*
X157087691Y-124131053D02*
G01*
X157108926Y-124134203D01*
X157129750Y-124139419D01*
X157149962Y-124146651D01*
X157169368Y-124155830D01*
X157187781Y-124166866D01*
X157205024Y-124179654D01*
X157220930Y-124194070D01*
X157235346Y-124209976D01*
X157248134Y-124227219D01*
X157259170Y-124245632D01*
X157268349Y-124265038D01*
X157275581Y-124285250D01*
X157280797Y-124306074D01*
X157283947Y-124327309D01*
X157285000Y-124348750D01*
X157285000Y-124786250D01*
X157283947Y-124807691D01*
X157280797Y-124828926D01*
X157275581Y-124849750D01*
X157268349Y-124869962D01*
X157259170Y-124889368D01*
X157248134Y-124907781D01*
X157235346Y-124925024D01*
X157220930Y-124940930D01*
X157205024Y-124955346D01*
X157187781Y-124968134D01*
X157169368Y-124979170D01*
X157149962Y-124988349D01*
X157129750Y-124995581D01*
X157108926Y-125000797D01*
X157087691Y-125003947D01*
X157066250Y-125005000D01*
X156553750Y-125005000D01*
X156532309Y-125003947D01*
X156511074Y-125000797D01*
X156490250Y-124995581D01*
X156470038Y-124988349D01*
X156450632Y-124979170D01*
X156432219Y-124968134D01*
X156414976Y-124955346D01*
X156399070Y-124940930D01*
X156384654Y-124925024D01*
X156371866Y-124907781D01*
X156360830Y-124889368D01*
X156351651Y-124869962D01*
X156344419Y-124849750D01*
X156339203Y-124828926D01*
X156336053Y-124807691D01*
X156335000Y-124786250D01*
X156335000Y-124348750D01*
X156336053Y-124327309D01*
X156339203Y-124306074D01*
X156344419Y-124285250D01*
X156351651Y-124265038D01*
X156360830Y-124245632D01*
X156371866Y-124227219D01*
X156384654Y-124209976D01*
X156399070Y-124194070D01*
X156414976Y-124179654D01*
X156432219Y-124166866D01*
X156450632Y-124155830D01*
X156470038Y-124146651D01*
X156490250Y-124139419D01*
X156511074Y-124134203D01*
X156532309Y-124131053D01*
X156553750Y-124130000D01*
X157066250Y-124130000D01*
X157087691Y-124131053D01*
X157087691Y-124131053D01*
G37*
D16*
X156810000Y-124567500D03*
D12*
G36*
X155577691Y-124131053D02*
G01*
X155598926Y-124134203D01*
X155619750Y-124139419D01*
X155639962Y-124146651D01*
X155659368Y-124155830D01*
X155677781Y-124166866D01*
X155695024Y-124179654D01*
X155710930Y-124194070D01*
X155725346Y-124209976D01*
X155738134Y-124227219D01*
X155749170Y-124245632D01*
X155758349Y-124265038D01*
X155765581Y-124285250D01*
X155770797Y-124306074D01*
X155773947Y-124327309D01*
X155775000Y-124348750D01*
X155775000Y-124786250D01*
X155773947Y-124807691D01*
X155770797Y-124828926D01*
X155765581Y-124849750D01*
X155758349Y-124869962D01*
X155749170Y-124889368D01*
X155738134Y-124907781D01*
X155725346Y-124925024D01*
X155710930Y-124940930D01*
X155695024Y-124955346D01*
X155677781Y-124968134D01*
X155659368Y-124979170D01*
X155639962Y-124988349D01*
X155619750Y-124995581D01*
X155598926Y-125000797D01*
X155577691Y-125003947D01*
X155556250Y-125005000D01*
X155043750Y-125005000D01*
X155022309Y-125003947D01*
X155001074Y-125000797D01*
X154980250Y-124995581D01*
X154960038Y-124988349D01*
X154940632Y-124979170D01*
X154922219Y-124968134D01*
X154904976Y-124955346D01*
X154889070Y-124940930D01*
X154874654Y-124925024D01*
X154861866Y-124907781D01*
X154850830Y-124889368D01*
X154841651Y-124869962D01*
X154834419Y-124849750D01*
X154829203Y-124828926D01*
X154826053Y-124807691D01*
X154825000Y-124786250D01*
X154825000Y-124348750D01*
X154826053Y-124327309D01*
X154829203Y-124306074D01*
X154834419Y-124285250D01*
X154841651Y-124265038D01*
X154850830Y-124245632D01*
X154861866Y-124227219D01*
X154874654Y-124209976D01*
X154889070Y-124194070D01*
X154904976Y-124179654D01*
X154922219Y-124166866D01*
X154940632Y-124155830D01*
X154960038Y-124146651D01*
X154980250Y-124139419D01*
X155001074Y-124134203D01*
X155022309Y-124131053D01*
X155043750Y-124130000D01*
X155556250Y-124130000D01*
X155577691Y-124131053D01*
X155577691Y-124131053D01*
G37*
D16*
X155300000Y-124567500D03*
D12*
G36*
X155577691Y-122556053D02*
G01*
X155598926Y-122559203D01*
X155619750Y-122564419D01*
X155639962Y-122571651D01*
X155659368Y-122580830D01*
X155677781Y-122591866D01*
X155695024Y-122604654D01*
X155710930Y-122619070D01*
X155725346Y-122634976D01*
X155738134Y-122652219D01*
X155749170Y-122670632D01*
X155758349Y-122690038D01*
X155765581Y-122710250D01*
X155770797Y-122731074D01*
X155773947Y-122752309D01*
X155775000Y-122773750D01*
X155775000Y-123211250D01*
X155773947Y-123232691D01*
X155770797Y-123253926D01*
X155765581Y-123274750D01*
X155758349Y-123294962D01*
X155749170Y-123314368D01*
X155738134Y-123332781D01*
X155725346Y-123350024D01*
X155710930Y-123365930D01*
X155695024Y-123380346D01*
X155677781Y-123393134D01*
X155659368Y-123404170D01*
X155639962Y-123413349D01*
X155619750Y-123420581D01*
X155598926Y-123425797D01*
X155577691Y-123428947D01*
X155556250Y-123430000D01*
X155043750Y-123430000D01*
X155022309Y-123428947D01*
X155001074Y-123425797D01*
X154980250Y-123420581D01*
X154960038Y-123413349D01*
X154940632Y-123404170D01*
X154922219Y-123393134D01*
X154904976Y-123380346D01*
X154889070Y-123365930D01*
X154874654Y-123350024D01*
X154861866Y-123332781D01*
X154850830Y-123314368D01*
X154841651Y-123294962D01*
X154834419Y-123274750D01*
X154829203Y-123253926D01*
X154826053Y-123232691D01*
X154825000Y-123211250D01*
X154825000Y-122773750D01*
X154826053Y-122752309D01*
X154829203Y-122731074D01*
X154834419Y-122710250D01*
X154841651Y-122690038D01*
X154850830Y-122670632D01*
X154861866Y-122652219D01*
X154874654Y-122634976D01*
X154889070Y-122619070D01*
X154904976Y-122604654D01*
X154922219Y-122591866D01*
X154940632Y-122580830D01*
X154960038Y-122571651D01*
X154980250Y-122564419D01*
X155001074Y-122559203D01*
X155022309Y-122556053D01*
X155043750Y-122555000D01*
X155556250Y-122555000D01*
X155577691Y-122556053D01*
X155577691Y-122556053D01*
G37*
D16*
X155300000Y-122992500D03*
D12*
G36*
X154067691Y-124121053D02*
G01*
X154088926Y-124124203D01*
X154109750Y-124129419D01*
X154129962Y-124136651D01*
X154149368Y-124145830D01*
X154167781Y-124156866D01*
X154185024Y-124169654D01*
X154200930Y-124184070D01*
X154215346Y-124199976D01*
X154228134Y-124217219D01*
X154239170Y-124235632D01*
X154248349Y-124255038D01*
X154255581Y-124275250D01*
X154260797Y-124296074D01*
X154263947Y-124317309D01*
X154265000Y-124338750D01*
X154265000Y-124776250D01*
X154263947Y-124797691D01*
X154260797Y-124818926D01*
X154255581Y-124839750D01*
X154248349Y-124859962D01*
X154239170Y-124879368D01*
X154228134Y-124897781D01*
X154215346Y-124915024D01*
X154200930Y-124930930D01*
X154185024Y-124945346D01*
X154167781Y-124958134D01*
X154149368Y-124969170D01*
X154129962Y-124978349D01*
X154109750Y-124985581D01*
X154088926Y-124990797D01*
X154067691Y-124993947D01*
X154046250Y-124995000D01*
X153533750Y-124995000D01*
X153512309Y-124993947D01*
X153491074Y-124990797D01*
X153470250Y-124985581D01*
X153450038Y-124978349D01*
X153430632Y-124969170D01*
X153412219Y-124958134D01*
X153394976Y-124945346D01*
X153379070Y-124930930D01*
X153364654Y-124915024D01*
X153351866Y-124897781D01*
X153340830Y-124879368D01*
X153331651Y-124859962D01*
X153324419Y-124839750D01*
X153319203Y-124818926D01*
X153316053Y-124797691D01*
X153315000Y-124776250D01*
X153315000Y-124338750D01*
X153316053Y-124317309D01*
X153319203Y-124296074D01*
X153324419Y-124275250D01*
X153331651Y-124255038D01*
X153340830Y-124235632D01*
X153351866Y-124217219D01*
X153364654Y-124199976D01*
X153379070Y-124184070D01*
X153394976Y-124169654D01*
X153412219Y-124156866D01*
X153430632Y-124145830D01*
X153450038Y-124136651D01*
X153470250Y-124129419D01*
X153491074Y-124124203D01*
X153512309Y-124121053D01*
X153533750Y-124120000D01*
X154046250Y-124120000D01*
X154067691Y-124121053D01*
X154067691Y-124121053D01*
G37*
D16*
X153790000Y-124557500D03*
D12*
G36*
X154067691Y-122546053D02*
G01*
X154088926Y-122549203D01*
X154109750Y-122554419D01*
X154129962Y-122561651D01*
X154149368Y-122570830D01*
X154167781Y-122581866D01*
X154185024Y-122594654D01*
X154200930Y-122609070D01*
X154215346Y-122624976D01*
X154228134Y-122642219D01*
X154239170Y-122660632D01*
X154248349Y-122680038D01*
X154255581Y-122700250D01*
X154260797Y-122721074D01*
X154263947Y-122742309D01*
X154265000Y-122763750D01*
X154265000Y-123201250D01*
X154263947Y-123222691D01*
X154260797Y-123243926D01*
X154255581Y-123264750D01*
X154248349Y-123284962D01*
X154239170Y-123304368D01*
X154228134Y-123322781D01*
X154215346Y-123340024D01*
X154200930Y-123355930D01*
X154185024Y-123370346D01*
X154167781Y-123383134D01*
X154149368Y-123394170D01*
X154129962Y-123403349D01*
X154109750Y-123410581D01*
X154088926Y-123415797D01*
X154067691Y-123418947D01*
X154046250Y-123420000D01*
X153533750Y-123420000D01*
X153512309Y-123418947D01*
X153491074Y-123415797D01*
X153470250Y-123410581D01*
X153450038Y-123403349D01*
X153430632Y-123394170D01*
X153412219Y-123383134D01*
X153394976Y-123370346D01*
X153379070Y-123355930D01*
X153364654Y-123340024D01*
X153351866Y-123322781D01*
X153340830Y-123304368D01*
X153331651Y-123284962D01*
X153324419Y-123264750D01*
X153319203Y-123243926D01*
X153316053Y-123222691D01*
X153315000Y-123201250D01*
X153315000Y-122763750D01*
X153316053Y-122742309D01*
X153319203Y-122721074D01*
X153324419Y-122700250D01*
X153331651Y-122680038D01*
X153340830Y-122660632D01*
X153351866Y-122642219D01*
X153364654Y-122624976D01*
X153379070Y-122609070D01*
X153394976Y-122594654D01*
X153412219Y-122581866D01*
X153430632Y-122570830D01*
X153450038Y-122561651D01*
X153470250Y-122554419D01*
X153491074Y-122549203D01*
X153512309Y-122546053D01*
X153533750Y-122545000D01*
X154046250Y-122545000D01*
X154067691Y-122546053D01*
X154067691Y-122546053D01*
G37*
D16*
X153790000Y-122982500D03*
D12*
G36*
X152557691Y-122546053D02*
G01*
X152578926Y-122549203D01*
X152599750Y-122554419D01*
X152619962Y-122561651D01*
X152639368Y-122570830D01*
X152657781Y-122581866D01*
X152675024Y-122594654D01*
X152690930Y-122609070D01*
X152705346Y-122624976D01*
X152718134Y-122642219D01*
X152729170Y-122660632D01*
X152738349Y-122680038D01*
X152745581Y-122700250D01*
X152750797Y-122721074D01*
X152753947Y-122742309D01*
X152755000Y-122763750D01*
X152755000Y-123201250D01*
X152753947Y-123222691D01*
X152750797Y-123243926D01*
X152745581Y-123264750D01*
X152738349Y-123284962D01*
X152729170Y-123304368D01*
X152718134Y-123322781D01*
X152705346Y-123340024D01*
X152690930Y-123355930D01*
X152675024Y-123370346D01*
X152657781Y-123383134D01*
X152639368Y-123394170D01*
X152619962Y-123403349D01*
X152599750Y-123410581D01*
X152578926Y-123415797D01*
X152557691Y-123418947D01*
X152536250Y-123420000D01*
X152023750Y-123420000D01*
X152002309Y-123418947D01*
X151981074Y-123415797D01*
X151960250Y-123410581D01*
X151940038Y-123403349D01*
X151920632Y-123394170D01*
X151902219Y-123383134D01*
X151884976Y-123370346D01*
X151869070Y-123355930D01*
X151854654Y-123340024D01*
X151841866Y-123322781D01*
X151830830Y-123304368D01*
X151821651Y-123284962D01*
X151814419Y-123264750D01*
X151809203Y-123243926D01*
X151806053Y-123222691D01*
X151805000Y-123201250D01*
X151805000Y-122763750D01*
X151806053Y-122742309D01*
X151809203Y-122721074D01*
X151814419Y-122700250D01*
X151821651Y-122680038D01*
X151830830Y-122660632D01*
X151841866Y-122642219D01*
X151854654Y-122624976D01*
X151869070Y-122609070D01*
X151884976Y-122594654D01*
X151902219Y-122581866D01*
X151920632Y-122570830D01*
X151940038Y-122561651D01*
X151960250Y-122554419D01*
X151981074Y-122549203D01*
X152002309Y-122546053D01*
X152023750Y-122545000D01*
X152536250Y-122545000D01*
X152557691Y-122546053D01*
X152557691Y-122546053D01*
G37*
D16*
X152280000Y-122982500D03*
D12*
G36*
X152557691Y-124121053D02*
G01*
X152578926Y-124124203D01*
X152599750Y-124129419D01*
X152619962Y-124136651D01*
X152639368Y-124145830D01*
X152657781Y-124156866D01*
X152675024Y-124169654D01*
X152690930Y-124184070D01*
X152705346Y-124199976D01*
X152718134Y-124217219D01*
X152729170Y-124235632D01*
X152738349Y-124255038D01*
X152745581Y-124275250D01*
X152750797Y-124296074D01*
X152753947Y-124317309D01*
X152755000Y-124338750D01*
X152755000Y-124776250D01*
X152753947Y-124797691D01*
X152750797Y-124818926D01*
X152745581Y-124839750D01*
X152738349Y-124859962D01*
X152729170Y-124879368D01*
X152718134Y-124897781D01*
X152705346Y-124915024D01*
X152690930Y-124930930D01*
X152675024Y-124945346D01*
X152657781Y-124958134D01*
X152639368Y-124969170D01*
X152619962Y-124978349D01*
X152599750Y-124985581D01*
X152578926Y-124990797D01*
X152557691Y-124993947D01*
X152536250Y-124995000D01*
X152023750Y-124995000D01*
X152002309Y-124993947D01*
X151981074Y-124990797D01*
X151960250Y-124985581D01*
X151940038Y-124978349D01*
X151920632Y-124969170D01*
X151902219Y-124958134D01*
X151884976Y-124945346D01*
X151869070Y-124930930D01*
X151854654Y-124915024D01*
X151841866Y-124897781D01*
X151830830Y-124879368D01*
X151821651Y-124859962D01*
X151814419Y-124839750D01*
X151809203Y-124818926D01*
X151806053Y-124797691D01*
X151805000Y-124776250D01*
X151805000Y-124338750D01*
X151806053Y-124317309D01*
X151809203Y-124296074D01*
X151814419Y-124275250D01*
X151821651Y-124255038D01*
X151830830Y-124235632D01*
X151841866Y-124217219D01*
X151854654Y-124199976D01*
X151869070Y-124184070D01*
X151884976Y-124169654D01*
X151902219Y-124156866D01*
X151920632Y-124145830D01*
X151940038Y-124136651D01*
X151960250Y-124129419D01*
X151981074Y-124124203D01*
X152002309Y-124121053D01*
X152023750Y-124120000D01*
X152536250Y-124120000D01*
X152557691Y-124121053D01*
X152557691Y-124121053D01*
G37*
D16*
X152280000Y-124557500D03*
D12*
G36*
X151047691Y-124121053D02*
G01*
X151068926Y-124124203D01*
X151089750Y-124129419D01*
X151109962Y-124136651D01*
X151129368Y-124145830D01*
X151147781Y-124156866D01*
X151165024Y-124169654D01*
X151180930Y-124184070D01*
X151195346Y-124199976D01*
X151208134Y-124217219D01*
X151219170Y-124235632D01*
X151228349Y-124255038D01*
X151235581Y-124275250D01*
X151240797Y-124296074D01*
X151243947Y-124317309D01*
X151245000Y-124338750D01*
X151245000Y-124776250D01*
X151243947Y-124797691D01*
X151240797Y-124818926D01*
X151235581Y-124839750D01*
X151228349Y-124859962D01*
X151219170Y-124879368D01*
X151208134Y-124897781D01*
X151195346Y-124915024D01*
X151180930Y-124930930D01*
X151165024Y-124945346D01*
X151147781Y-124958134D01*
X151129368Y-124969170D01*
X151109962Y-124978349D01*
X151089750Y-124985581D01*
X151068926Y-124990797D01*
X151047691Y-124993947D01*
X151026250Y-124995000D01*
X150513750Y-124995000D01*
X150492309Y-124993947D01*
X150471074Y-124990797D01*
X150450250Y-124985581D01*
X150430038Y-124978349D01*
X150410632Y-124969170D01*
X150392219Y-124958134D01*
X150374976Y-124945346D01*
X150359070Y-124930930D01*
X150344654Y-124915024D01*
X150331866Y-124897781D01*
X150320830Y-124879368D01*
X150311651Y-124859962D01*
X150304419Y-124839750D01*
X150299203Y-124818926D01*
X150296053Y-124797691D01*
X150295000Y-124776250D01*
X150295000Y-124338750D01*
X150296053Y-124317309D01*
X150299203Y-124296074D01*
X150304419Y-124275250D01*
X150311651Y-124255038D01*
X150320830Y-124235632D01*
X150331866Y-124217219D01*
X150344654Y-124199976D01*
X150359070Y-124184070D01*
X150374976Y-124169654D01*
X150392219Y-124156866D01*
X150410632Y-124145830D01*
X150430038Y-124136651D01*
X150450250Y-124129419D01*
X150471074Y-124124203D01*
X150492309Y-124121053D01*
X150513750Y-124120000D01*
X151026250Y-124120000D01*
X151047691Y-124121053D01*
X151047691Y-124121053D01*
G37*
D16*
X150770000Y-124557500D03*
D12*
G36*
X151047691Y-122546053D02*
G01*
X151068926Y-122549203D01*
X151089750Y-122554419D01*
X151109962Y-122561651D01*
X151129368Y-122570830D01*
X151147781Y-122581866D01*
X151165024Y-122594654D01*
X151180930Y-122609070D01*
X151195346Y-122624976D01*
X151208134Y-122642219D01*
X151219170Y-122660632D01*
X151228349Y-122680038D01*
X151235581Y-122700250D01*
X151240797Y-122721074D01*
X151243947Y-122742309D01*
X151245000Y-122763750D01*
X151245000Y-123201250D01*
X151243947Y-123222691D01*
X151240797Y-123243926D01*
X151235581Y-123264750D01*
X151228349Y-123284962D01*
X151219170Y-123304368D01*
X151208134Y-123322781D01*
X151195346Y-123340024D01*
X151180930Y-123355930D01*
X151165024Y-123370346D01*
X151147781Y-123383134D01*
X151129368Y-123394170D01*
X151109962Y-123403349D01*
X151089750Y-123410581D01*
X151068926Y-123415797D01*
X151047691Y-123418947D01*
X151026250Y-123420000D01*
X150513750Y-123420000D01*
X150492309Y-123418947D01*
X150471074Y-123415797D01*
X150450250Y-123410581D01*
X150430038Y-123403349D01*
X150410632Y-123394170D01*
X150392219Y-123383134D01*
X150374976Y-123370346D01*
X150359070Y-123355930D01*
X150344654Y-123340024D01*
X150331866Y-123322781D01*
X150320830Y-123304368D01*
X150311651Y-123284962D01*
X150304419Y-123264750D01*
X150299203Y-123243926D01*
X150296053Y-123222691D01*
X150295000Y-123201250D01*
X150295000Y-122763750D01*
X150296053Y-122742309D01*
X150299203Y-122721074D01*
X150304419Y-122700250D01*
X150311651Y-122680038D01*
X150320830Y-122660632D01*
X150331866Y-122642219D01*
X150344654Y-122624976D01*
X150359070Y-122609070D01*
X150374976Y-122594654D01*
X150392219Y-122581866D01*
X150410632Y-122570830D01*
X150430038Y-122561651D01*
X150450250Y-122554419D01*
X150471074Y-122549203D01*
X150492309Y-122546053D01*
X150513750Y-122545000D01*
X151026250Y-122545000D01*
X151047691Y-122546053D01*
X151047691Y-122546053D01*
G37*
D16*
X150770000Y-122982500D03*
D12*
G36*
X149537691Y-122546053D02*
G01*
X149558926Y-122549203D01*
X149579750Y-122554419D01*
X149599962Y-122561651D01*
X149619368Y-122570830D01*
X149637781Y-122581866D01*
X149655024Y-122594654D01*
X149670930Y-122609070D01*
X149685346Y-122624976D01*
X149698134Y-122642219D01*
X149709170Y-122660632D01*
X149718349Y-122680038D01*
X149725581Y-122700250D01*
X149730797Y-122721074D01*
X149733947Y-122742309D01*
X149735000Y-122763750D01*
X149735000Y-123201250D01*
X149733947Y-123222691D01*
X149730797Y-123243926D01*
X149725581Y-123264750D01*
X149718349Y-123284962D01*
X149709170Y-123304368D01*
X149698134Y-123322781D01*
X149685346Y-123340024D01*
X149670930Y-123355930D01*
X149655024Y-123370346D01*
X149637781Y-123383134D01*
X149619368Y-123394170D01*
X149599962Y-123403349D01*
X149579750Y-123410581D01*
X149558926Y-123415797D01*
X149537691Y-123418947D01*
X149516250Y-123420000D01*
X149003750Y-123420000D01*
X148982309Y-123418947D01*
X148961074Y-123415797D01*
X148940250Y-123410581D01*
X148920038Y-123403349D01*
X148900632Y-123394170D01*
X148882219Y-123383134D01*
X148864976Y-123370346D01*
X148849070Y-123355930D01*
X148834654Y-123340024D01*
X148821866Y-123322781D01*
X148810830Y-123304368D01*
X148801651Y-123284962D01*
X148794419Y-123264750D01*
X148789203Y-123243926D01*
X148786053Y-123222691D01*
X148785000Y-123201250D01*
X148785000Y-122763750D01*
X148786053Y-122742309D01*
X148789203Y-122721074D01*
X148794419Y-122700250D01*
X148801651Y-122680038D01*
X148810830Y-122660632D01*
X148821866Y-122642219D01*
X148834654Y-122624976D01*
X148849070Y-122609070D01*
X148864976Y-122594654D01*
X148882219Y-122581866D01*
X148900632Y-122570830D01*
X148920038Y-122561651D01*
X148940250Y-122554419D01*
X148961074Y-122549203D01*
X148982309Y-122546053D01*
X149003750Y-122545000D01*
X149516250Y-122545000D01*
X149537691Y-122546053D01*
X149537691Y-122546053D01*
G37*
D16*
X149260000Y-122982500D03*
D12*
G36*
X149537691Y-124121053D02*
G01*
X149558926Y-124124203D01*
X149579750Y-124129419D01*
X149599962Y-124136651D01*
X149619368Y-124145830D01*
X149637781Y-124156866D01*
X149655024Y-124169654D01*
X149670930Y-124184070D01*
X149685346Y-124199976D01*
X149698134Y-124217219D01*
X149709170Y-124235632D01*
X149718349Y-124255038D01*
X149725581Y-124275250D01*
X149730797Y-124296074D01*
X149733947Y-124317309D01*
X149735000Y-124338750D01*
X149735000Y-124776250D01*
X149733947Y-124797691D01*
X149730797Y-124818926D01*
X149725581Y-124839750D01*
X149718349Y-124859962D01*
X149709170Y-124879368D01*
X149698134Y-124897781D01*
X149685346Y-124915024D01*
X149670930Y-124930930D01*
X149655024Y-124945346D01*
X149637781Y-124958134D01*
X149619368Y-124969170D01*
X149599962Y-124978349D01*
X149579750Y-124985581D01*
X149558926Y-124990797D01*
X149537691Y-124993947D01*
X149516250Y-124995000D01*
X149003750Y-124995000D01*
X148982309Y-124993947D01*
X148961074Y-124990797D01*
X148940250Y-124985581D01*
X148920038Y-124978349D01*
X148900632Y-124969170D01*
X148882219Y-124958134D01*
X148864976Y-124945346D01*
X148849070Y-124930930D01*
X148834654Y-124915024D01*
X148821866Y-124897781D01*
X148810830Y-124879368D01*
X148801651Y-124859962D01*
X148794419Y-124839750D01*
X148789203Y-124818926D01*
X148786053Y-124797691D01*
X148785000Y-124776250D01*
X148785000Y-124338750D01*
X148786053Y-124317309D01*
X148789203Y-124296074D01*
X148794419Y-124275250D01*
X148801651Y-124255038D01*
X148810830Y-124235632D01*
X148821866Y-124217219D01*
X148834654Y-124199976D01*
X148849070Y-124184070D01*
X148864976Y-124169654D01*
X148882219Y-124156866D01*
X148900632Y-124145830D01*
X148920038Y-124136651D01*
X148940250Y-124129419D01*
X148961074Y-124124203D01*
X148982309Y-124121053D01*
X149003750Y-124120000D01*
X149516250Y-124120000D01*
X149537691Y-124121053D01*
X149537691Y-124121053D01*
G37*
D16*
X149260000Y-124557500D03*
D12*
G36*
X148027691Y-122546053D02*
G01*
X148048926Y-122549203D01*
X148069750Y-122554419D01*
X148089962Y-122561651D01*
X148109368Y-122570830D01*
X148127781Y-122581866D01*
X148145024Y-122594654D01*
X148160930Y-122609070D01*
X148175346Y-122624976D01*
X148188134Y-122642219D01*
X148199170Y-122660632D01*
X148208349Y-122680038D01*
X148215581Y-122700250D01*
X148220797Y-122721074D01*
X148223947Y-122742309D01*
X148225000Y-122763750D01*
X148225000Y-123201250D01*
X148223947Y-123222691D01*
X148220797Y-123243926D01*
X148215581Y-123264750D01*
X148208349Y-123284962D01*
X148199170Y-123304368D01*
X148188134Y-123322781D01*
X148175346Y-123340024D01*
X148160930Y-123355930D01*
X148145024Y-123370346D01*
X148127781Y-123383134D01*
X148109368Y-123394170D01*
X148089962Y-123403349D01*
X148069750Y-123410581D01*
X148048926Y-123415797D01*
X148027691Y-123418947D01*
X148006250Y-123420000D01*
X147493750Y-123420000D01*
X147472309Y-123418947D01*
X147451074Y-123415797D01*
X147430250Y-123410581D01*
X147410038Y-123403349D01*
X147390632Y-123394170D01*
X147372219Y-123383134D01*
X147354976Y-123370346D01*
X147339070Y-123355930D01*
X147324654Y-123340024D01*
X147311866Y-123322781D01*
X147300830Y-123304368D01*
X147291651Y-123284962D01*
X147284419Y-123264750D01*
X147279203Y-123243926D01*
X147276053Y-123222691D01*
X147275000Y-123201250D01*
X147275000Y-122763750D01*
X147276053Y-122742309D01*
X147279203Y-122721074D01*
X147284419Y-122700250D01*
X147291651Y-122680038D01*
X147300830Y-122660632D01*
X147311866Y-122642219D01*
X147324654Y-122624976D01*
X147339070Y-122609070D01*
X147354976Y-122594654D01*
X147372219Y-122581866D01*
X147390632Y-122570830D01*
X147410038Y-122561651D01*
X147430250Y-122554419D01*
X147451074Y-122549203D01*
X147472309Y-122546053D01*
X147493750Y-122545000D01*
X148006250Y-122545000D01*
X148027691Y-122546053D01*
X148027691Y-122546053D01*
G37*
D16*
X147750000Y-122982500D03*
D12*
G36*
X148027691Y-124121053D02*
G01*
X148048926Y-124124203D01*
X148069750Y-124129419D01*
X148089962Y-124136651D01*
X148109368Y-124145830D01*
X148127781Y-124156866D01*
X148145024Y-124169654D01*
X148160930Y-124184070D01*
X148175346Y-124199976D01*
X148188134Y-124217219D01*
X148199170Y-124235632D01*
X148208349Y-124255038D01*
X148215581Y-124275250D01*
X148220797Y-124296074D01*
X148223947Y-124317309D01*
X148225000Y-124338750D01*
X148225000Y-124776250D01*
X148223947Y-124797691D01*
X148220797Y-124818926D01*
X148215581Y-124839750D01*
X148208349Y-124859962D01*
X148199170Y-124879368D01*
X148188134Y-124897781D01*
X148175346Y-124915024D01*
X148160930Y-124930930D01*
X148145024Y-124945346D01*
X148127781Y-124958134D01*
X148109368Y-124969170D01*
X148089962Y-124978349D01*
X148069750Y-124985581D01*
X148048926Y-124990797D01*
X148027691Y-124993947D01*
X148006250Y-124995000D01*
X147493750Y-124995000D01*
X147472309Y-124993947D01*
X147451074Y-124990797D01*
X147430250Y-124985581D01*
X147410038Y-124978349D01*
X147390632Y-124969170D01*
X147372219Y-124958134D01*
X147354976Y-124945346D01*
X147339070Y-124930930D01*
X147324654Y-124915024D01*
X147311866Y-124897781D01*
X147300830Y-124879368D01*
X147291651Y-124859962D01*
X147284419Y-124839750D01*
X147279203Y-124818926D01*
X147276053Y-124797691D01*
X147275000Y-124776250D01*
X147275000Y-124338750D01*
X147276053Y-124317309D01*
X147279203Y-124296074D01*
X147284419Y-124275250D01*
X147291651Y-124255038D01*
X147300830Y-124235632D01*
X147311866Y-124217219D01*
X147324654Y-124199976D01*
X147339070Y-124184070D01*
X147354976Y-124169654D01*
X147372219Y-124156866D01*
X147390632Y-124145830D01*
X147410038Y-124136651D01*
X147430250Y-124129419D01*
X147451074Y-124124203D01*
X147472309Y-124121053D01*
X147493750Y-124120000D01*
X148006250Y-124120000D01*
X148027691Y-124121053D01*
X148027691Y-124121053D01*
G37*
D16*
X147750000Y-124557500D03*
D12*
G36*
X155847691Y-106481053D02*
G01*
X155868926Y-106484203D01*
X155889750Y-106489419D01*
X155909962Y-106496651D01*
X155929368Y-106505830D01*
X155947781Y-106516866D01*
X155965024Y-106529654D01*
X155980930Y-106544070D01*
X155995346Y-106559976D01*
X156008134Y-106577219D01*
X156019170Y-106595632D01*
X156028349Y-106615038D01*
X156035581Y-106635250D01*
X156040797Y-106656074D01*
X156043947Y-106677309D01*
X156045000Y-106698750D01*
X156045000Y-107136250D01*
X156043947Y-107157691D01*
X156040797Y-107178926D01*
X156035581Y-107199750D01*
X156028349Y-107219962D01*
X156019170Y-107239368D01*
X156008134Y-107257781D01*
X155995346Y-107275024D01*
X155980930Y-107290930D01*
X155965024Y-107305346D01*
X155947781Y-107318134D01*
X155929368Y-107329170D01*
X155909962Y-107338349D01*
X155889750Y-107345581D01*
X155868926Y-107350797D01*
X155847691Y-107353947D01*
X155826250Y-107355000D01*
X155313750Y-107355000D01*
X155292309Y-107353947D01*
X155271074Y-107350797D01*
X155250250Y-107345581D01*
X155230038Y-107338349D01*
X155210632Y-107329170D01*
X155192219Y-107318134D01*
X155174976Y-107305346D01*
X155159070Y-107290930D01*
X155144654Y-107275024D01*
X155131866Y-107257781D01*
X155120830Y-107239368D01*
X155111651Y-107219962D01*
X155104419Y-107199750D01*
X155099203Y-107178926D01*
X155096053Y-107157691D01*
X155095000Y-107136250D01*
X155095000Y-106698750D01*
X155096053Y-106677309D01*
X155099203Y-106656074D01*
X155104419Y-106635250D01*
X155111651Y-106615038D01*
X155120830Y-106595632D01*
X155131866Y-106577219D01*
X155144654Y-106559976D01*
X155159070Y-106544070D01*
X155174976Y-106529654D01*
X155192219Y-106516866D01*
X155210632Y-106505830D01*
X155230038Y-106496651D01*
X155250250Y-106489419D01*
X155271074Y-106484203D01*
X155292309Y-106481053D01*
X155313750Y-106480000D01*
X155826250Y-106480000D01*
X155847691Y-106481053D01*
X155847691Y-106481053D01*
G37*
D16*
X155570000Y-106917500D03*
D12*
G36*
X155847691Y-104906053D02*
G01*
X155868926Y-104909203D01*
X155889750Y-104914419D01*
X155909962Y-104921651D01*
X155929368Y-104930830D01*
X155947781Y-104941866D01*
X155965024Y-104954654D01*
X155980930Y-104969070D01*
X155995346Y-104984976D01*
X156008134Y-105002219D01*
X156019170Y-105020632D01*
X156028349Y-105040038D01*
X156035581Y-105060250D01*
X156040797Y-105081074D01*
X156043947Y-105102309D01*
X156045000Y-105123750D01*
X156045000Y-105561250D01*
X156043947Y-105582691D01*
X156040797Y-105603926D01*
X156035581Y-105624750D01*
X156028349Y-105644962D01*
X156019170Y-105664368D01*
X156008134Y-105682781D01*
X155995346Y-105700024D01*
X155980930Y-105715930D01*
X155965024Y-105730346D01*
X155947781Y-105743134D01*
X155929368Y-105754170D01*
X155909962Y-105763349D01*
X155889750Y-105770581D01*
X155868926Y-105775797D01*
X155847691Y-105778947D01*
X155826250Y-105780000D01*
X155313750Y-105780000D01*
X155292309Y-105778947D01*
X155271074Y-105775797D01*
X155250250Y-105770581D01*
X155230038Y-105763349D01*
X155210632Y-105754170D01*
X155192219Y-105743134D01*
X155174976Y-105730346D01*
X155159070Y-105715930D01*
X155144654Y-105700024D01*
X155131866Y-105682781D01*
X155120830Y-105664368D01*
X155111651Y-105644962D01*
X155104419Y-105624750D01*
X155099203Y-105603926D01*
X155096053Y-105582691D01*
X155095000Y-105561250D01*
X155095000Y-105123750D01*
X155096053Y-105102309D01*
X155099203Y-105081074D01*
X155104419Y-105060250D01*
X155111651Y-105040038D01*
X155120830Y-105020632D01*
X155131866Y-105002219D01*
X155144654Y-104984976D01*
X155159070Y-104969070D01*
X155174976Y-104954654D01*
X155192219Y-104941866D01*
X155210632Y-104930830D01*
X155230038Y-104921651D01*
X155250250Y-104914419D01*
X155271074Y-104909203D01*
X155292309Y-104906053D01*
X155313750Y-104905000D01*
X155826250Y-104905000D01*
X155847691Y-104906053D01*
X155847691Y-104906053D01*
G37*
D16*
X155570000Y-105342500D03*
D12*
G36*
X162667691Y-106801053D02*
G01*
X162688926Y-106804203D01*
X162709750Y-106809419D01*
X162729962Y-106816651D01*
X162749368Y-106825830D01*
X162767781Y-106836866D01*
X162785024Y-106849654D01*
X162800930Y-106864070D01*
X162815346Y-106879976D01*
X162828134Y-106897219D01*
X162839170Y-106915632D01*
X162848349Y-106935038D01*
X162855581Y-106955250D01*
X162860797Y-106976074D01*
X162863947Y-106997309D01*
X162865000Y-107018750D01*
X162865000Y-107456250D01*
X162863947Y-107477691D01*
X162860797Y-107498926D01*
X162855581Y-107519750D01*
X162848349Y-107539962D01*
X162839170Y-107559368D01*
X162828134Y-107577781D01*
X162815346Y-107595024D01*
X162800930Y-107610930D01*
X162785024Y-107625346D01*
X162767781Y-107638134D01*
X162749368Y-107649170D01*
X162729962Y-107658349D01*
X162709750Y-107665581D01*
X162688926Y-107670797D01*
X162667691Y-107673947D01*
X162646250Y-107675000D01*
X162133750Y-107675000D01*
X162112309Y-107673947D01*
X162091074Y-107670797D01*
X162070250Y-107665581D01*
X162050038Y-107658349D01*
X162030632Y-107649170D01*
X162012219Y-107638134D01*
X161994976Y-107625346D01*
X161979070Y-107610930D01*
X161964654Y-107595024D01*
X161951866Y-107577781D01*
X161940830Y-107559368D01*
X161931651Y-107539962D01*
X161924419Y-107519750D01*
X161919203Y-107498926D01*
X161916053Y-107477691D01*
X161915000Y-107456250D01*
X161915000Y-107018750D01*
X161916053Y-106997309D01*
X161919203Y-106976074D01*
X161924419Y-106955250D01*
X161931651Y-106935038D01*
X161940830Y-106915632D01*
X161951866Y-106897219D01*
X161964654Y-106879976D01*
X161979070Y-106864070D01*
X161994976Y-106849654D01*
X162012219Y-106836866D01*
X162030632Y-106825830D01*
X162050038Y-106816651D01*
X162070250Y-106809419D01*
X162091074Y-106804203D01*
X162112309Y-106801053D01*
X162133750Y-106800000D01*
X162646250Y-106800000D01*
X162667691Y-106801053D01*
X162667691Y-106801053D01*
G37*
D16*
X162390000Y-107237500D03*
D12*
G36*
X162667691Y-105226053D02*
G01*
X162688926Y-105229203D01*
X162709750Y-105234419D01*
X162729962Y-105241651D01*
X162749368Y-105250830D01*
X162767781Y-105261866D01*
X162785024Y-105274654D01*
X162800930Y-105289070D01*
X162815346Y-105304976D01*
X162828134Y-105322219D01*
X162839170Y-105340632D01*
X162848349Y-105360038D01*
X162855581Y-105380250D01*
X162860797Y-105401074D01*
X162863947Y-105422309D01*
X162865000Y-105443750D01*
X162865000Y-105881250D01*
X162863947Y-105902691D01*
X162860797Y-105923926D01*
X162855581Y-105944750D01*
X162848349Y-105964962D01*
X162839170Y-105984368D01*
X162828134Y-106002781D01*
X162815346Y-106020024D01*
X162800930Y-106035930D01*
X162785024Y-106050346D01*
X162767781Y-106063134D01*
X162749368Y-106074170D01*
X162729962Y-106083349D01*
X162709750Y-106090581D01*
X162688926Y-106095797D01*
X162667691Y-106098947D01*
X162646250Y-106100000D01*
X162133750Y-106100000D01*
X162112309Y-106098947D01*
X162091074Y-106095797D01*
X162070250Y-106090581D01*
X162050038Y-106083349D01*
X162030632Y-106074170D01*
X162012219Y-106063134D01*
X161994976Y-106050346D01*
X161979070Y-106035930D01*
X161964654Y-106020024D01*
X161951866Y-106002781D01*
X161940830Y-105984368D01*
X161931651Y-105964962D01*
X161924419Y-105944750D01*
X161919203Y-105923926D01*
X161916053Y-105902691D01*
X161915000Y-105881250D01*
X161915000Y-105443750D01*
X161916053Y-105422309D01*
X161919203Y-105401074D01*
X161924419Y-105380250D01*
X161931651Y-105360038D01*
X161940830Y-105340632D01*
X161951866Y-105322219D01*
X161964654Y-105304976D01*
X161979070Y-105289070D01*
X161994976Y-105274654D01*
X162012219Y-105261866D01*
X162030632Y-105250830D01*
X162050038Y-105241651D01*
X162070250Y-105234419D01*
X162091074Y-105229203D01*
X162112309Y-105226053D01*
X162133750Y-105225000D01*
X162646250Y-105225000D01*
X162667691Y-105226053D01*
X162667691Y-105226053D01*
G37*
D16*
X162390000Y-105662500D03*
D17*
X171700000Y-128590000D03*
X171700000Y-130490000D03*
X173700000Y-129540000D03*
D12*
G36*
X153357691Y-107378553D02*
G01*
X153378926Y-107381703D01*
X153399750Y-107386919D01*
X153419962Y-107394151D01*
X153439368Y-107403330D01*
X153457781Y-107414366D01*
X153475024Y-107427154D01*
X153490930Y-107441570D01*
X153505346Y-107457476D01*
X153518134Y-107474719D01*
X153529170Y-107493132D01*
X153538349Y-107512538D01*
X153545581Y-107532750D01*
X153550797Y-107553574D01*
X153553947Y-107574809D01*
X153555000Y-107596250D01*
X153555000Y-108033750D01*
X153553947Y-108055191D01*
X153550797Y-108076426D01*
X153545581Y-108097250D01*
X153538349Y-108117462D01*
X153529170Y-108136868D01*
X153518134Y-108155281D01*
X153505346Y-108172524D01*
X153490930Y-108188430D01*
X153475024Y-108202846D01*
X153457781Y-108215634D01*
X153439368Y-108226670D01*
X153419962Y-108235849D01*
X153399750Y-108243081D01*
X153378926Y-108248297D01*
X153357691Y-108251447D01*
X153336250Y-108252500D01*
X152823750Y-108252500D01*
X152802309Y-108251447D01*
X152781074Y-108248297D01*
X152760250Y-108243081D01*
X152740038Y-108235849D01*
X152720632Y-108226670D01*
X152702219Y-108215634D01*
X152684976Y-108202846D01*
X152669070Y-108188430D01*
X152654654Y-108172524D01*
X152641866Y-108155281D01*
X152630830Y-108136868D01*
X152621651Y-108117462D01*
X152614419Y-108097250D01*
X152609203Y-108076426D01*
X152606053Y-108055191D01*
X152605000Y-108033750D01*
X152605000Y-107596250D01*
X152606053Y-107574809D01*
X152609203Y-107553574D01*
X152614419Y-107532750D01*
X152621651Y-107512538D01*
X152630830Y-107493132D01*
X152641866Y-107474719D01*
X152654654Y-107457476D01*
X152669070Y-107441570D01*
X152684976Y-107427154D01*
X152702219Y-107414366D01*
X152720632Y-107403330D01*
X152740038Y-107394151D01*
X152760250Y-107386919D01*
X152781074Y-107381703D01*
X152802309Y-107378553D01*
X152823750Y-107377500D01*
X153336250Y-107377500D01*
X153357691Y-107378553D01*
X153357691Y-107378553D01*
G37*
D16*
X153080000Y-107815000D03*
D12*
G36*
X153357691Y-108953553D02*
G01*
X153378926Y-108956703D01*
X153399750Y-108961919D01*
X153419962Y-108969151D01*
X153439368Y-108978330D01*
X153457781Y-108989366D01*
X153475024Y-109002154D01*
X153490930Y-109016570D01*
X153505346Y-109032476D01*
X153518134Y-109049719D01*
X153529170Y-109068132D01*
X153538349Y-109087538D01*
X153545581Y-109107750D01*
X153550797Y-109128574D01*
X153553947Y-109149809D01*
X153555000Y-109171250D01*
X153555000Y-109608750D01*
X153553947Y-109630191D01*
X153550797Y-109651426D01*
X153545581Y-109672250D01*
X153538349Y-109692462D01*
X153529170Y-109711868D01*
X153518134Y-109730281D01*
X153505346Y-109747524D01*
X153490930Y-109763430D01*
X153475024Y-109777846D01*
X153457781Y-109790634D01*
X153439368Y-109801670D01*
X153419962Y-109810849D01*
X153399750Y-109818081D01*
X153378926Y-109823297D01*
X153357691Y-109826447D01*
X153336250Y-109827500D01*
X152823750Y-109827500D01*
X152802309Y-109826447D01*
X152781074Y-109823297D01*
X152760250Y-109818081D01*
X152740038Y-109810849D01*
X152720632Y-109801670D01*
X152702219Y-109790634D01*
X152684976Y-109777846D01*
X152669070Y-109763430D01*
X152654654Y-109747524D01*
X152641866Y-109730281D01*
X152630830Y-109711868D01*
X152621651Y-109692462D01*
X152614419Y-109672250D01*
X152609203Y-109651426D01*
X152606053Y-109630191D01*
X152605000Y-109608750D01*
X152605000Y-109171250D01*
X152606053Y-109149809D01*
X152609203Y-109128574D01*
X152614419Y-109107750D01*
X152621651Y-109087538D01*
X152630830Y-109068132D01*
X152641866Y-109049719D01*
X152654654Y-109032476D01*
X152669070Y-109016570D01*
X152684976Y-109002154D01*
X152702219Y-108989366D01*
X152720632Y-108978330D01*
X152740038Y-108969151D01*
X152760250Y-108961919D01*
X152781074Y-108956703D01*
X152802309Y-108953553D01*
X152823750Y-108952500D01*
X153336250Y-108952500D01*
X153357691Y-108953553D01*
X153357691Y-108953553D01*
G37*
D16*
X153080000Y-109390000D03*
D12*
G36*
X168282691Y-105896053D02*
G01*
X168303926Y-105899203D01*
X168324750Y-105904419D01*
X168344962Y-105911651D01*
X168364368Y-105920830D01*
X168382781Y-105931866D01*
X168400024Y-105944654D01*
X168415930Y-105959070D01*
X168430346Y-105974976D01*
X168443134Y-105992219D01*
X168454170Y-106010632D01*
X168463349Y-106030038D01*
X168470581Y-106050250D01*
X168475797Y-106071074D01*
X168478947Y-106092309D01*
X168480000Y-106113750D01*
X168480000Y-106626250D01*
X168478947Y-106647691D01*
X168475797Y-106668926D01*
X168470581Y-106689750D01*
X168463349Y-106709962D01*
X168454170Y-106729368D01*
X168443134Y-106747781D01*
X168430346Y-106765024D01*
X168415930Y-106780930D01*
X168400024Y-106795346D01*
X168382781Y-106808134D01*
X168364368Y-106819170D01*
X168344962Y-106828349D01*
X168324750Y-106835581D01*
X168303926Y-106840797D01*
X168282691Y-106843947D01*
X168261250Y-106845000D01*
X167823750Y-106845000D01*
X167802309Y-106843947D01*
X167781074Y-106840797D01*
X167760250Y-106835581D01*
X167740038Y-106828349D01*
X167720632Y-106819170D01*
X167702219Y-106808134D01*
X167684976Y-106795346D01*
X167669070Y-106780930D01*
X167654654Y-106765024D01*
X167641866Y-106747781D01*
X167630830Y-106729368D01*
X167621651Y-106709962D01*
X167614419Y-106689750D01*
X167609203Y-106668926D01*
X167606053Y-106647691D01*
X167605000Y-106626250D01*
X167605000Y-106113750D01*
X167606053Y-106092309D01*
X167609203Y-106071074D01*
X167614419Y-106050250D01*
X167621651Y-106030038D01*
X167630830Y-106010632D01*
X167641866Y-105992219D01*
X167654654Y-105974976D01*
X167669070Y-105959070D01*
X167684976Y-105944654D01*
X167702219Y-105931866D01*
X167720632Y-105920830D01*
X167740038Y-105911651D01*
X167760250Y-105904419D01*
X167781074Y-105899203D01*
X167802309Y-105896053D01*
X167823750Y-105895000D01*
X168261250Y-105895000D01*
X168282691Y-105896053D01*
X168282691Y-105896053D01*
G37*
D16*
X168042500Y-106370000D03*
D12*
G36*
X169857691Y-105896053D02*
G01*
X169878926Y-105899203D01*
X169899750Y-105904419D01*
X169919962Y-105911651D01*
X169939368Y-105920830D01*
X169957781Y-105931866D01*
X169975024Y-105944654D01*
X169990930Y-105959070D01*
X170005346Y-105974976D01*
X170018134Y-105992219D01*
X170029170Y-106010632D01*
X170038349Y-106030038D01*
X170045581Y-106050250D01*
X170050797Y-106071074D01*
X170053947Y-106092309D01*
X170055000Y-106113750D01*
X170055000Y-106626250D01*
X170053947Y-106647691D01*
X170050797Y-106668926D01*
X170045581Y-106689750D01*
X170038349Y-106709962D01*
X170029170Y-106729368D01*
X170018134Y-106747781D01*
X170005346Y-106765024D01*
X169990930Y-106780930D01*
X169975024Y-106795346D01*
X169957781Y-106808134D01*
X169939368Y-106819170D01*
X169919962Y-106828349D01*
X169899750Y-106835581D01*
X169878926Y-106840797D01*
X169857691Y-106843947D01*
X169836250Y-106845000D01*
X169398750Y-106845000D01*
X169377309Y-106843947D01*
X169356074Y-106840797D01*
X169335250Y-106835581D01*
X169315038Y-106828349D01*
X169295632Y-106819170D01*
X169277219Y-106808134D01*
X169259976Y-106795346D01*
X169244070Y-106780930D01*
X169229654Y-106765024D01*
X169216866Y-106747781D01*
X169205830Y-106729368D01*
X169196651Y-106709962D01*
X169189419Y-106689750D01*
X169184203Y-106668926D01*
X169181053Y-106647691D01*
X169180000Y-106626250D01*
X169180000Y-106113750D01*
X169181053Y-106092309D01*
X169184203Y-106071074D01*
X169189419Y-106050250D01*
X169196651Y-106030038D01*
X169205830Y-106010632D01*
X169216866Y-105992219D01*
X169229654Y-105974976D01*
X169244070Y-105959070D01*
X169259976Y-105944654D01*
X169277219Y-105931866D01*
X169295632Y-105920830D01*
X169315038Y-105911651D01*
X169335250Y-105904419D01*
X169356074Y-105899203D01*
X169377309Y-105896053D01*
X169398750Y-105895000D01*
X169836250Y-105895000D01*
X169857691Y-105896053D01*
X169857691Y-105896053D01*
G37*
D16*
X169617500Y-106370000D03*
D12*
G36*
X166067691Y-105291053D02*
G01*
X166088926Y-105294203D01*
X166109750Y-105299419D01*
X166129962Y-105306651D01*
X166149368Y-105315830D01*
X166167781Y-105326866D01*
X166185024Y-105339654D01*
X166200930Y-105354070D01*
X166215346Y-105369976D01*
X166228134Y-105387219D01*
X166239170Y-105405632D01*
X166248349Y-105425038D01*
X166255581Y-105445250D01*
X166260797Y-105466074D01*
X166263947Y-105487309D01*
X166265000Y-105508750D01*
X166265000Y-105946250D01*
X166263947Y-105967691D01*
X166260797Y-105988926D01*
X166255581Y-106009750D01*
X166248349Y-106029962D01*
X166239170Y-106049368D01*
X166228134Y-106067781D01*
X166215346Y-106085024D01*
X166200930Y-106100930D01*
X166185024Y-106115346D01*
X166167781Y-106128134D01*
X166149368Y-106139170D01*
X166129962Y-106148349D01*
X166109750Y-106155581D01*
X166088926Y-106160797D01*
X166067691Y-106163947D01*
X166046250Y-106165000D01*
X165533750Y-106165000D01*
X165512309Y-106163947D01*
X165491074Y-106160797D01*
X165470250Y-106155581D01*
X165450038Y-106148349D01*
X165430632Y-106139170D01*
X165412219Y-106128134D01*
X165394976Y-106115346D01*
X165379070Y-106100930D01*
X165364654Y-106085024D01*
X165351866Y-106067781D01*
X165340830Y-106049368D01*
X165331651Y-106029962D01*
X165324419Y-106009750D01*
X165319203Y-105988926D01*
X165316053Y-105967691D01*
X165315000Y-105946250D01*
X165315000Y-105508750D01*
X165316053Y-105487309D01*
X165319203Y-105466074D01*
X165324419Y-105445250D01*
X165331651Y-105425038D01*
X165340830Y-105405632D01*
X165351866Y-105387219D01*
X165364654Y-105369976D01*
X165379070Y-105354070D01*
X165394976Y-105339654D01*
X165412219Y-105326866D01*
X165430632Y-105315830D01*
X165450038Y-105306651D01*
X165470250Y-105299419D01*
X165491074Y-105294203D01*
X165512309Y-105291053D01*
X165533750Y-105290000D01*
X166046250Y-105290000D01*
X166067691Y-105291053D01*
X166067691Y-105291053D01*
G37*
D16*
X165790000Y-105727500D03*
D12*
G36*
X166067691Y-103716053D02*
G01*
X166088926Y-103719203D01*
X166109750Y-103724419D01*
X166129962Y-103731651D01*
X166149368Y-103740830D01*
X166167781Y-103751866D01*
X166185024Y-103764654D01*
X166200930Y-103779070D01*
X166215346Y-103794976D01*
X166228134Y-103812219D01*
X166239170Y-103830632D01*
X166248349Y-103850038D01*
X166255581Y-103870250D01*
X166260797Y-103891074D01*
X166263947Y-103912309D01*
X166265000Y-103933750D01*
X166265000Y-104371250D01*
X166263947Y-104392691D01*
X166260797Y-104413926D01*
X166255581Y-104434750D01*
X166248349Y-104454962D01*
X166239170Y-104474368D01*
X166228134Y-104492781D01*
X166215346Y-104510024D01*
X166200930Y-104525930D01*
X166185024Y-104540346D01*
X166167781Y-104553134D01*
X166149368Y-104564170D01*
X166129962Y-104573349D01*
X166109750Y-104580581D01*
X166088926Y-104585797D01*
X166067691Y-104588947D01*
X166046250Y-104590000D01*
X165533750Y-104590000D01*
X165512309Y-104588947D01*
X165491074Y-104585797D01*
X165470250Y-104580581D01*
X165450038Y-104573349D01*
X165430632Y-104564170D01*
X165412219Y-104553134D01*
X165394976Y-104540346D01*
X165379070Y-104525930D01*
X165364654Y-104510024D01*
X165351866Y-104492781D01*
X165340830Y-104474368D01*
X165331651Y-104454962D01*
X165324419Y-104434750D01*
X165319203Y-104413926D01*
X165316053Y-104392691D01*
X165315000Y-104371250D01*
X165315000Y-103933750D01*
X165316053Y-103912309D01*
X165319203Y-103891074D01*
X165324419Y-103870250D01*
X165331651Y-103850038D01*
X165340830Y-103830632D01*
X165351866Y-103812219D01*
X165364654Y-103794976D01*
X165379070Y-103779070D01*
X165394976Y-103764654D01*
X165412219Y-103751866D01*
X165430632Y-103740830D01*
X165450038Y-103731651D01*
X165470250Y-103724419D01*
X165491074Y-103719203D01*
X165512309Y-103716053D01*
X165533750Y-103715000D01*
X166046250Y-103715000D01*
X166067691Y-103716053D01*
X166067691Y-103716053D01*
G37*
D16*
X165790000Y-104152500D03*
D12*
G36*
X170127691Y-130476053D02*
G01*
X170148926Y-130479203D01*
X170169750Y-130484419D01*
X170189962Y-130491651D01*
X170209368Y-130500830D01*
X170227781Y-130511866D01*
X170245024Y-130524654D01*
X170260930Y-130539070D01*
X170275346Y-130554976D01*
X170288134Y-130572219D01*
X170299170Y-130590632D01*
X170308349Y-130610038D01*
X170315581Y-130630250D01*
X170320797Y-130651074D01*
X170323947Y-130672309D01*
X170325000Y-130693750D01*
X170325000Y-131131250D01*
X170323947Y-131152691D01*
X170320797Y-131173926D01*
X170315581Y-131194750D01*
X170308349Y-131214962D01*
X170299170Y-131234368D01*
X170288134Y-131252781D01*
X170275346Y-131270024D01*
X170260930Y-131285930D01*
X170245024Y-131300346D01*
X170227781Y-131313134D01*
X170209368Y-131324170D01*
X170189962Y-131333349D01*
X170169750Y-131340581D01*
X170148926Y-131345797D01*
X170127691Y-131348947D01*
X170106250Y-131350000D01*
X169593750Y-131350000D01*
X169572309Y-131348947D01*
X169551074Y-131345797D01*
X169530250Y-131340581D01*
X169510038Y-131333349D01*
X169490632Y-131324170D01*
X169472219Y-131313134D01*
X169454976Y-131300346D01*
X169439070Y-131285930D01*
X169424654Y-131270024D01*
X169411866Y-131252781D01*
X169400830Y-131234368D01*
X169391651Y-131214962D01*
X169384419Y-131194750D01*
X169379203Y-131173926D01*
X169376053Y-131152691D01*
X169375000Y-131131250D01*
X169375000Y-130693750D01*
X169376053Y-130672309D01*
X169379203Y-130651074D01*
X169384419Y-130630250D01*
X169391651Y-130610038D01*
X169400830Y-130590632D01*
X169411866Y-130572219D01*
X169424654Y-130554976D01*
X169439070Y-130539070D01*
X169454976Y-130524654D01*
X169472219Y-130511866D01*
X169490632Y-130500830D01*
X169510038Y-130491651D01*
X169530250Y-130484419D01*
X169551074Y-130479203D01*
X169572309Y-130476053D01*
X169593750Y-130475000D01*
X170106250Y-130475000D01*
X170127691Y-130476053D01*
X170127691Y-130476053D01*
G37*
D16*
X169850000Y-130912500D03*
D12*
G36*
X170127691Y-132051053D02*
G01*
X170148926Y-132054203D01*
X170169750Y-132059419D01*
X170189962Y-132066651D01*
X170209368Y-132075830D01*
X170227781Y-132086866D01*
X170245024Y-132099654D01*
X170260930Y-132114070D01*
X170275346Y-132129976D01*
X170288134Y-132147219D01*
X170299170Y-132165632D01*
X170308349Y-132185038D01*
X170315581Y-132205250D01*
X170320797Y-132226074D01*
X170323947Y-132247309D01*
X170325000Y-132268750D01*
X170325000Y-132706250D01*
X170323947Y-132727691D01*
X170320797Y-132748926D01*
X170315581Y-132769750D01*
X170308349Y-132789962D01*
X170299170Y-132809368D01*
X170288134Y-132827781D01*
X170275346Y-132845024D01*
X170260930Y-132860930D01*
X170245024Y-132875346D01*
X170227781Y-132888134D01*
X170209368Y-132899170D01*
X170189962Y-132908349D01*
X170169750Y-132915581D01*
X170148926Y-132920797D01*
X170127691Y-132923947D01*
X170106250Y-132925000D01*
X169593750Y-132925000D01*
X169572309Y-132923947D01*
X169551074Y-132920797D01*
X169530250Y-132915581D01*
X169510038Y-132908349D01*
X169490632Y-132899170D01*
X169472219Y-132888134D01*
X169454976Y-132875346D01*
X169439070Y-132860930D01*
X169424654Y-132845024D01*
X169411866Y-132827781D01*
X169400830Y-132809368D01*
X169391651Y-132789962D01*
X169384419Y-132769750D01*
X169379203Y-132748926D01*
X169376053Y-132727691D01*
X169375000Y-132706250D01*
X169375000Y-132268750D01*
X169376053Y-132247309D01*
X169379203Y-132226074D01*
X169384419Y-132205250D01*
X169391651Y-132185038D01*
X169400830Y-132165632D01*
X169411866Y-132147219D01*
X169424654Y-132129976D01*
X169439070Y-132114070D01*
X169454976Y-132099654D01*
X169472219Y-132086866D01*
X169490632Y-132075830D01*
X169510038Y-132066651D01*
X169530250Y-132059419D01*
X169551074Y-132054203D01*
X169572309Y-132051053D01*
X169593750Y-132050000D01*
X170106250Y-132050000D01*
X170127691Y-132051053D01*
X170127691Y-132051053D01*
G37*
D16*
X169850000Y-132487500D03*
D12*
G36*
X173507691Y-132026053D02*
G01*
X173528926Y-132029203D01*
X173549750Y-132034419D01*
X173569962Y-132041651D01*
X173589368Y-132050830D01*
X173607781Y-132061866D01*
X173625024Y-132074654D01*
X173640930Y-132089070D01*
X173655346Y-132104976D01*
X173668134Y-132122219D01*
X173679170Y-132140632D01*
X173688349Y-132160038D01*
X173695581Y-132180250D01*
X173700797Y-132201074D01*
X173703947Y-132222309D01*
X173705000Y-132243750D01*
X173705000Y-132756250D01*
X173703947Y-132777691D01*
X173700797Y-132798926D01*
X173695581Y-132819750D01*
X173688349Y-132839962D01*
X173679170Y-132859368D01*
X173668134Y-132877781D01*
X173655346Y-132895024D01*
X173640930Y-132910930D01*
X173625024Y-132925346D01*
X173607781Y-132938134D01*
X173589368Y-132949170D01*
X173569962Y-132958349D01*
X173549750Y-132965581D01*
X173528926Y-132970797D01*
X173507691Y-132973947D01*
X173486250Y-132975000D01*
X173048750Y-132975000D01*
X173027309Y-132973947D01*
X173006074Y-132970797D01*
X172985250Y-132965581D01*
X172965038Y-132958349D01*
X172945632Y-132949170D01*
X172927219Y-132938134D01*
X172909976Y-132925346D01*
X172894070Y-132910930D01*
X172879654Y-132895024D01*
X172866866Y-132877781D01*
X172855830Y-132859368D01*
X172846651Y-132839962D01*
X172839419Y-132819750D01*
X172834203Y-132798926D01*
X172831053Y-132777691D01*
X172830000Y-132756250D01*
X172830000Y-132243750D01*
X172831053Y-132222309D01*
X172834203Y-132201074D01*
X172839419Y-132180250D01*
X172846651Y-132160038D01*
X172855830Y-132140632D01*
X172866866Y-132122219D01*
X172879654Y-132104976D01*
X172894070Y-132089070D01*
X172909976Y-132074654D01*
X172927219Y-132061866D01*
X172945632Y-132050830D01*
X172965038Y-132041651D01*
X172985250Y-132034419D01*
X173006074Y-132029203D01*
X173027309Y-132026053D01*
X173048750Y-132025000D01*
X173486250Y-132025000D01*
X173507691Y-132026053D01*
X173507691Y-132026053D01*
G37*
D16*
X173267500Y-132500000D03*
D12*
G36*
X171932691Y-132026053D02*
G01*
X171953926Y-132029203D01*
X171974750Y-132034419D01*
X171994962Y-132041651D01*
X172014368Y-132050830D01*
X172032781Y-132061866D01*
X172050024Y-132074654D01*
X172065930Y-132089070D01*
X172080346Y-132104976D01*
X172093134Y-132122219D01*
X172104170Y-132140632D01*
X172113349Y-132160038D01*
X172120581Y-132180250D01*
X172125797Y-132201074D01*
X172128947Y-132222309D01*
X172130000Y-132243750D01*
X172130000Y-132756250D01*
X172128947Y-132777691D01*
X172125797Y-132798926D01*
X172120581Y-132819750D01*
X172113349Y-132839962D01*
X172104170Y-132859368D01*
X172093134Y-132877781D01*
X172080346Y-132895024D01*
X172065930Y-132910930D01*
X172050024Y-132925346D01*
X172032781Y-132938134D01*
X172014368Y-132949170D01*
X171994962Y-132958349D01*
X171974750Y-132965581D01*
X171953926Y-132970797D01*
X171932691Y-132973947D01*
X171911250Y-132975000D01*
X171473750Y-132975000D01*
X171452309Y-132973947D01*
X171431074Y-132970797D01*
X171410250Y-132965581D01*
X171390038Y-132958349D01*
X171370632Y-132949170D01*
X171352219Y-132938134D01*
X171334976Y-132925346D01*
X171319070Y-132910930D01*
X171304654Y-132895024D01*
X171291866Y-132877781D01*
X171280830Y-132859368D01*
X171271651Y-132839962D01*
X171264419Y-132819750D01*
X171259203Y-132798926D01*
X171256053Y-132777691D01*
X171255000Y-132756250D01*
X171255000Y-132243750D01*
X171256053Y-132222309D01*
X171259203Y-132201074D01*
X171264419Y-132180250D01*
X171271651Y-132160038D01*
X171280830Y-132140632D01*
X171291866Y-132122219D01*
X171304654Y-132104976D01*
X171319070Y-132089070D01*
X171334976Y-132074654D01*
X171352219Y-132061866D01*
X171370632Y-132050830D01*
X171390038Y-132041651D01*
X171410250Y-132034419D01*
X171431074Y-132029203D01*
X171452309Y-132026053D01*
X171473750Y-132025000D01*
X171911250Y-132025000D01*
X171932691Y-132026053D01*
X171932691Y-132026053D01*
G37*
D16*
X171692500Y-132500000D03*
D11*
X144348622Y-106851683D03*
D12*
G36*
X144303109Y-105930513D02*
G01*
X145169135Y-106430513D01*
X144394135Y-107772853D01*
X143528109Y-107272853D01*
X144303109Y-105930513D01*
X144303109Y-105930513D01*
G37*
D11*
X141723622Y-111398317D03*
D12*
G36*
X141678109Y-110477147D02*
G01*
X142544135Y-110977147D01*
X141769135Y-112319487D01*
X140903109Y-111819487D01*
X141678109Y-110477147D01*
X141678109Y-110477147D01*
G37*
D11*
X140251378Y-110548317D03*
D12*
G36*
X140205865Y-109627147D02*
G01*
X141071891Y-110127147D01*
X140296891Y-111469487D01*
X139430865Y-110969487D01*
X140205865Y-109627147D01*
X140205865Y-109627147D01*
G37*
D11*
X142876378Y-106001683D03*
D12*
G36*
X142830865Y-105080513D02*
G01*
X143696891Y-105580513D01*
X142921891Y-106922853D01*
X142055865Y-106422853D01*
X142830865Y-105080513D01*
X142830865Y-105080513D01*
G37*
D18*
X138760000Y-116155000D03*
X138760000Y-121405000D03*
X140460000Y-121405000D03*
X140460000Y-116155000D03*
D19*
X168045000Y-104505000D03*
X168695000Y-104505000D03*
X169345000Y-104505000D03*
X169995000Y-104505000D03*
X169995000Y-102455000D03*
X169345000Y-102455000D03*
X168695000Y-102455000D03*
X168045000Y-102455000D03*
D20*
X158310000Y-105830000D03*
X158310000Y-106780000D03*
X158310000Y-107730000D03*
X160510000Y-107730000D03*
X160510000Y-105830000D03*
D12*
G36*
X169460142Y-109951174D02*
G01*
X169483803Y-109954684D01*
X169507007Y-109960496D01*
X169529529Y-109968554D01*
X169551153Y-109978782D01*
X169571670Y-109991079D01*
X169590883Y-110005329D01*
X169608607Y-110021393D01*
X169624671Y-110039117D01*
X169638921Y-110058330D01*
X169651218Y-110078847D01*
X169661446Y-110100471D01*
X169669504Y-110122993D01*
X169675316Y-110146197D01*
X169678826Y-110169858D01*
X169680000Y-110193750D01*
X169680000Y-110681250D01*
X169678826Y-110705142D01*
X169675316Y-110728803D01*
X169669504Y-110752007D01*
X169661446Y-110774529D01*
X169651218Y-110796153D01*
X169638921Y-110816670D01*
X169624671Y-110835883D01*
X169608607Y-110853607D01*
X169590883Y-110869671D01*
X169571670Y-110883921D01*
X169551153Y-110896218D01*
X169529529Y-110906446D01*
X169507007Y-110914504D01*
X169483803Y-110920316D01*
X169460142Y-110923826D01*
X169436250Y-110925000D01*
X168523750Y-110925000D01*
X168499858Y-110923826D01*
X168476197Y-110920316D01*
X168452993Y-110914504D01*
X168430471Y-110906446D01*
X168408847Y-110896218D01*
X168388330Y-110883921D01*
X168369117Y-110869671D01*
X168351393Y-110853607D01*
X168335329Y-110835883D01*
X168321079Y-110816670D01*
X168308782Y-110796153D01*
X168298554Y-110774529D01*
X168290496Y-110752007D01*
X168284684Y-110728803D01*
X168281174Y-110705142D01*
X168280000Y-110681250D01*
X168280000Y-110193750D01*
X168281174Y-110169858D01*
X168284684Y-110146197D01*
X168290496Y-110122993D01*
X168298554Y-110100471D01*
X168308782Y-110078847D01*
X168321079Y-110058330D01*
X168335329Y-110039117D01*
X168351393Y-110021393D01*
X168369117Y-110005329D01*
X168388330Y-109991079D01*
X168408847Y-109978782D01*
X168430471Y-109968554D01*
X168452993Y-109960496D01*
X168476197Y-109954684D01*
X168499858Y-109951174D01*
X168523750Y-109950000D01*
X169436250Y-109950000D01*
X169460142Y-109951174D01*
X169460142Y-109951174D01*
G37*
D21*
X168980000Y-110437500D03*
D12*
G36*
X169460142Y-108076174D02*
G01*
X169483803Y-108079684D01*
X169507007Y-108085496D01*
X169529529Y-108093554D01*
X169551153Y-108103782D01*
X169571670Y-108116079D01*
X169590883Y-108130329D01*
X169608607Y-108146393D01*
X169624671Y-108164117D01*
X169638921Y-108183330D01*
X169651218Y-108203847D01*
X169661446Y-108225471D01*
X169669504Y-108247993D01*
X169675316Y-108271197D01*
X169678826Y-108294858D01*
X169680000Y-108318750D01*
X169680000Y-108806250D01*
X169678826Y-108830142D01*
X169675316Y-108853803D01*
X169669504Y-108877007D01*
X169661446Y-108899529D01*
X169651218Y-108921153D01*
X169638921Y-108941670D01*
X169624671Y-108960883D01*
X169608607Y-108978607D01*
X169590883Y-108994671D01*
X169571670Y-109008921D01*
X169551153Y-109021218D01*
X169529529Y-109031446D01*
X169507007Y-109039504D01*
X169483803Y-109045316D01*
X169460142Y-109048826D01*
X169436250Y-109050000D01*
X168523750Y-109050000D01*
X168499858Y-109048826D01*
X168476197Y-109045316D01*
X168452993Y-109039504D01*
X168430471Y-109031446D01*
X168408847Y-109021218D01*
X168388330Y-109008921D01*
X168369117Y-108994671D01*
X168351393Y-108978607D01*
X168335329Y-108960883D01*
X168321079Y-108941670D01*
X168308782Y-108921153D01*
X168298554Y-108899529D01*
X168290496Y-108877007D01*
X168284684Y-108853803D01*
X168281174Y-108830142D01*
X168280000Y-108806250D01*
X168280000Y-108318750D01*
X168281174Y-108294858D01*
X168284684Y-108271197D01*
X168290496Y-108247993D01*
X168298554Y-108225471D01*
X168308782Y-108203847D01*
X168321079Y-108183330D01*
X168335329Y-108164117D01*
X168351393Y-108146393D01*
X168369117Y-108130329D01*
X168388330Y-108116079D01*
X168408847Y-108103782D01*
X168430471Y-108093554D01*
X168452993Y-108085496D01*
X168476197Y-108079684D01*
X168499858Y-108076174D01*
X168523750Y-108075000D01*
X169436250Y-108075000D01*
X169460142Y-108076174D01*
X169460142Y-108076174D01*
G37*
D21*
X168980000Y-108562500D03*
D22*
X177210000Y-120080000D03*
X177210000Y-119430000D03*
X177210000Y-118780000D03*
X177210000Y-118130000D03*
X177210000Y-117480000D03*
D23*
X177570000Y-121242500D03*
X177570000Y-116317500D03*
D24*
X179870000Y-121690000D03*
X179870000Y-115870000D03*
D25*
X179870000Y-119620000D03*
X179870000Y-117940000D03*
D12*
G36*
X172902691Y-120976053D02*
G01*
X172923926Y-120979203D01*
X172944750Y-120984419D01*
X172964962Y-120991651D01*
X172984368Y-121000830D01*
X173002781Y-121011866D01*
X173020024Y-121024654D01*
X173035930Y-121039070D01*
X173050346Y-121054976D01*
X173063134Y-121072219D01*
X173074170Y-121090632D01*
X173083349Y-121110038D01*
X173090581Y-121130250D01*
X173095797Y-121151074D01*
X173098947Y-121172309D01*
X173100000Y-121193750D01*
X173100000Y-121706250D01*
X173098947Y-121727691D01*
X173095797Y-121748926D01*
X173090581Y-121769750D01*
X173083349Y-121789962D01*
X173074170Y-121809368D01*
X173063134Y-121827781D01*
X173050346Y-121845024D01*
X173035930Y-121860930D01*
X173020024Y-121875346D01*
X173002781Y-121888134D01*
X172984368Y-121899170D01*
X172964962Y-121908349D01*
X172944750Y-121915581D01*
X172923926Y-121920797D01*
X172902691Y-121923947D01*
X172881250Y-121925000D01*
X172443750Y-121925000D01*
X172422309Y-121923947D01*
X172401074Y-121920797D01*
X172380250Y-121915581D01*
X172360038Y-121908349D01*
X172340632Y-121899170D01*
X172322219Y-121888134D01*
X172304976Y-121875346D01*
X172289070Y-121860930D01*
X172274654Y-121845024D01*
X172261866Y-121827781D01*
X172250830Y-121809368D01*
X172241651Y-121789962D01*
X172234419Y-121769750D01*
X172229203Y-121748926D01*
X172226053Y-121727691D01*
X172225000Y-121706250D01*
X172225000Y-121193750D01*
X172226053Y-121172309D01*
X172229203Y-121151074D01*
X172234419Y-121130250D01*
X172241651Y-121110038D01*
X172250830Y-121090632D01*
X172261866Y-121072219D01*
X172274654Y-121054976D01*
X172289070Y-121039070D01*
X172304976Y-121024654D01*
X172322219Y-121011866D01*
X172340632Y-121000830D01*
X172360038Y-120991651D01*
X172380250Y-120984419D01*
X172401074Y-120979203D01*
X172422309Y-120976053D01*
X172443750Y-120975000D01*
X172881250Y-120975000D01*
X172902691Y-120976053D01*
X172902691Y-120976053D01*
G37*
D16*
X172662500Y-121450000D03*
D12*
G36*
X174477691Y-120976053D02*
G01*
X174498926Y-120979203D01*
X174519750Y-120984419D01*
X174539962Y-120991651D01*
X174559368Y-121000830D01*
X174577781Y-121011866D01*
X174595024Y-121024654D01*
X174610930Y-121039070D01*
X174625346Y-121054976D01*
X174638134Y-121072219D01*
X174649170Y-121090632D01*
X174658349Y-121110038D01*
X174665581Y-121130250D01*
X174670797Y-121151074D01*
X174673947Y-121172309D01*
X174675000Y-121193750D01*
X174675000Y-121706250D01*
X174673947Y-121727691D01*
X174670797Y-121748926D01*
X174665581Y-121769750D01*
X174658349Y-121789962D01*
X174649170Y-121809368D01*
X174638134Y-121827781D01*
X174625346Y-121845024D01*
X174610930Y-121860930D01*
X174595024Y-121875346D01*
X174577781Y-121888134D01*
X174559368Y-121899170D01*
X174539962Y-121908349D01*
X174519750Y-121915581D01*
X174498926Y-121920797D01*
X174477691Y-121923947D01*
X174456250Y-121925000D01*
X174018750Y-121925000D01*
X173997309Y-121923947D01*
X173976074Y-121920797D01*
X173955250Y-121915581D01*
X173935038Y-121908349D01*
X173915632Y-121899170D01*
X173897219Y-121888134D01*
X173879976Y-121875346D01*
X173864070Y-121860930D01*
X173849654Y-121845024D01*
X173836866Y-121827781D01*
X173825830Y-121809368D01*
X173816651Y-121789962D01*
X173809419Y-121769750D01*
X173804203Y-121748926D01*
X173801053Y-121727691D01*
X173800000Y-121706250D01*
X173800000Y-121193750D01*
X173801053Y-121172309D01*
X173804203Y-121151074D01*
X173809419Y-121130250D01*
X173816651Y-121110038D01*
X173825830Y-121090632D01*
X173836866Y-121072219D01*
X173849654Y-121054976D01*
X173864070Y-121039070D01*
X173879976Y-121024654D01*
X173897219Y-121011866D01*
X173915632Y-121000830D01*
X173935038Y-120991651D01*
X173955250Y-120984419D01*
X173976074Y-120979203D01*
X173997309Y-120976053D01*
X174018750Y-120975000D01*
X174456250Y-120975000D01*
X174477691Y-120976053D01*
X174477691Y-120976053D01*
G37*
D16*
X174237500Y-121450000D03*
D12*
G36*
X153377691Y-116176053D02*
G01*
X153398926Y-116179203D01*
X153419750Y-116184419D01*
X153439962Y-116191651D01*
X153459368Y-116200830D01*
X153477781Y-116211866D01*
X153495024Y-116224654D01*
X153510930Y-116239070D01*
X153525346Y-116254976D01*
X153538134Y-116272219D01*
X153549170Y-116290632D01*
X153558349Y-116310038D01*
X153565581Y-116330250D01*
X153570797Y-116351074D01*
X153573947Y-116372309D01*
X153575000Y-116393750D01*
X153575000Y-116906250D01*
X153573947Y-116927691D01*
X153570797Y-116948926D01*
X153565581Y-116969750D01*
X153558349Y-116989962D01*
X153549170Y-117009368D01*
X153538134Y-117027781D01*
X153525346Y-117045024D01*
X153510930Y-117060930D01*
X153495024Y-117075346D01*
X153477781Y-117088134D01*
X153459368Y-117099170D01*
X153439962Y-117108349D01*
X153419750Y-117115581D01*
X153398926Y-117120797D01*
X153377691Y-117123947D01*
X153356250Y-117125000D01*
X152918750Y-117125000D01*
X152897309Y-117123947D01*
X152876074Y-117120797D01*
X152855250Y-117115581D01*
X152835038Y-117108349D01*
X152815632Y-117099170D01*
X152797219Y-117088134D01*
X152779976Y-117075346D01*
X152764070Y-117060930D01*
X152749654Y-117045024D01*
X152736866Y-117027781D01*
X152725830Y-117009368D01*
X152716651Y-116989962D01*
X152709419Y-116969750D01*
X152704203Y-116948926D01*
X152701053Y-116927691D01*
X152700000Y-116906250D01*
X152700000Y-116393750D01*
X152701053Y-116372309D01*
X152704203Y-116351074D01*
X152709419Y-116330250D01*
X152716651Y-116310038D01*
X152725830Y-116290632D01*
X152736866Y-116272219D01*
X152749654Y-116254976D01*
X152764070Y-116239070D01*
X152779976Y-116224654D01*
X152797219Y-116211866D01*
X152815632Y-116200830D01*
X152835038Y-116191651D01*
X152855250Y-116184419D01*
X152876074Y-116179203D01*
X152897309Y-116176053D01*
X152918750Y-116175000D01*
X153356250Y-116175000D01*
X153377691Y-116176053D01*
X153377691Y-116176053D01*
G37*
D16*
X153137500Y-116650000D03*
D12*
G36*
X151802691Y-116176053D02*
G01*
X151823926Y-116179203D01*
X151844750Y-116184419D01*
X151864962Y-116191651D01*
X151884368Y-116200830D01*
X151902781Y-116211866D01*
X151920024Y-116224654D01*
X151935930Y-116239070D01*
X151950346Y-116254976D01*
X151963134Y-116272219D01*
X151974170Y-116290632D01*
X151983349Y-116310038D01*
X151990581Y-116330250D01*
X151995797Y-116351074D01*
X151998947Y-116372309D01*
X152000000Y-116393750D01*
X152000000Y-116906250D01*
X151998947Y-116927691D01*
X151995797Y-116948926D01*
X151990581Y-116969750D01*
X151983349Y-116989962D01*
X151974170Y-117009368D01*
X151963134Y-117027781D01*
X151950346Y-117045024D01*
X151935930Y-117060930D01*
X151920024Y-117075346D01*
X151902781Y-117088134D01*
X151884368Y-117099170D01*
X151864962Y-117108349D01*
X151844750Y-117115581D01*
X151823926Y-117120797D01*
X151802691Y-117123947D01*
X151781250Y-117125000D01*
X151343750Y-117125000D01*
X151322309Y-117123947D01*
X151301074Y-117120797D01*
X151280250Y-117115581D01*
X151260038Y-117108349D01*
X151240632Y-117099170D01*
X151222219Y-117088134D01*
X151204976Y-117075346D01*
X151189070Y-117060930D01*
X151174654Y-117045024D01*
X151161866Y-117027781D01*
X151150830Y-117009368D01*
X151141651Y-116989962D01*
X151134419Y-116969750D01*
X151129203Y-116948926D01*
X151126053Y-116927691D01*
X151125000Y-116906250D01*
X151125000Y-116393750D01*
X151126053Y-116372309D01*
X151129203Y-116351074D01*
X151134419Y-116330250D01*
X151141651Y-116310038D01*
X151150830Y-116290632D01*
X151161866Y-116272219D01*
X151174654Y-116254976D01*
X151189070Y-116239070D01*
X151204976Y-116224654D01*
X151222219Y-116211866D01*
X151240632Y-116200830D01*
X151260038Y-116191651D01*
X151280250Y-116184419D01*
X151301074Y-116179203D01*
X151322309Y-116176053D01*
X151343750Y-116175000D01*
X151781250Y-116175000D01*
X151802691Y-116176053D01*
X151802691Y-116176053D01*
G37*
D16*
X151562500Y-116650000D03*
D12*
G36*
X163647252Y-110015602D02*
G01*
X163659386Y-110017402D01*
X163671286Y-110020382D01*
X163682835Y-110024515D01*
X163693925Y-110029760D01*
X163704446Y-110036066D01*
X163714299Y-110043374D01*
X163723388Y-110051612D01*
X163731626Y-110060701D01*
X163738934Y-110070554D01*
X163745240Y-110081075D01*
X163750485Y-110092165D01*
X163754618Y-110103714D01*
X163757598Y-110115614D01*
X163759398Y-110127748D01*
X163760000Y-110140000D01*
X163760000Y-111390000D01*
X163759398Y-111402252D01*
X163757598Y-111414386D01*
X163754618Y-111426286D01*
X163750485Y-111437835D01*
X163745240Y-111448925D01*
X163738934Y-111459446D01*
X163731626Y-111469299D01*
X163723388Y-111478388D01*
X163714299Y-111486626D01*
X163704446Y-111493934D01*
X163693925Y-111500240D01*
X163682835Y-111505485D01*
X163671286Y-111509618D01*
X163659386Y-111512598D01*
X163647252Y-111514398D01*
X163635000Y-111515000D01*
X163385000Y-111515000D01*
X163372748Y-111514398D01*
X163360614Y-111512598D01*
X163348714Y-111509618D01*
X163337165Y-111505485D01*
X163326075Y-111500240D01*
X163315554Y-111493934D01*
X163305701Y-111486626D01*
X163296612Y-111478388D01*
X163288374Y-111469299D01*
X163281066Y-111459446D01*
X163274760Y-111448925D01*
X163269515Y-111437835D01*
X163265382Y-111426286D01*
X163262402Y-111414386D01*
X163260602Y-111402252D01*
X163260000Y-111390000D01*
X163260000Y-110140000D01*
X163260602Y-110127748D01*
X163262402Y-110115614D01*
X163265382Y-110103714D01*
X163269515Y-110092165D01*
X163274760Y-110081075D01*
X163281066Y-110070554D01*
X163288374Y-110060701D01*
X163296612Y-110051612D01*
X163305701Y-110043374D01*
X163315554Y-110036066D01*
X163326075Y-110029760D01*
X163337165Y-110024515D01*
X163348714Y-110020382D01*
X163360614Y-110017402D01*
X163372748Y-110015602D01*
X163385000Y-110015000D01*
X163635000Y-110015000D01*
X163647252Y-110015602D01*
X163647252Y-110015602D01*
G37*
D26*
X163510000Y-110765000D03*
D12*
G36*
X162847252Y-110015602D02*
G01*
X162859386Y-110017402D01*
X162871286Y-110020382D01*
X162882835Y-110024515D01*
X162893925Y-110029760D01*
X162904446Y-110036066D01*
X162914299Y-110043374D01*
X162923388Y-110051612D01*
X162931626Y-110060701D01*
X162938934Y-110070554D01*
X162945240Y-110081075D01*
X162950485Y-110092165D01*
X162954618Y-110103714D01*
X162957598Y-110115614D01*
X162959398Y-110127748D01*
X162960000Y-110140000D01*
X162960000Y-111390000D01*
X162959398Y-111402252D01*
X162957598Y-111414386D01*
X162954618Y-111426286D01*
X162950485Y-111437835D01*
X162945240Y-111448925D01*
X162938934Y-111459446D01*
X162931626Y-111469299D01*
X162923388Y-111478388D01*
X162914299Y-111486626D01*
X162904446Y-111493934D01*
X162893925Y-111500240D01*
X162882835Y-111505485D01*
X162871286Y-111509618D01*
X162859386Y-111512598D01*
X162847252Y-111514398D01*
X162835000Y-111515000D01*
X162585000Y-111515000D01*
X162572748Y-111514398D01*
X162560614Y-111512598D01*
X162548714Y-111509618D01*
X162537165Y-111505485D01*
X162526075Y-111500240D01*
X162515554Y-111493934D01*
X162505701Y-111486626D01*
X162496612Y-111478388D01*
X162488374Y-111469299D01*
X162481066Y-111459446D01*
X162474760Y-111448925D01*
X162469515Y-111437835D01*
X162465382Y-111426286D01*
X162462402Y-111414386D01*
X162460602Y-111402252D01*
X162460000Y-111390000D01*
X162460000Y-110140000D01*
X162460602Y-110127748D01*
X162462402Y-110115614D01*
X162465382Y-110103714D01*
X162469515Y-110092165D01*
X162474760Y-110081075D01*
X162481066Y-110070554D01*
X162488374Y-110060701D01*
X162496612Y-110051612D01*
X162505701Y-110043374D01*
X162515554Y-110036066D01*
X162526075Y-110029760D01*
X162537165Y-110024515D01*
X162548714Y-110020382D01*
X162560614Y-110017402D01*
X162572748Y-110015602D01*
X162585000Y-110015000D01*
X162835000Y-110015000D01*
X162847252Y-110015602D01*
X162847252Y-110015602D01*
G37*
D26*
X162710000Y-110765000D03*
D12*
G36*
X162047252Y-110015602D02*
G01*
X162059386Y-110017402D01*
X162071286Y-110020382D01*
X162082835Y-110024515D01*
X162093925Y-110029760D01*
X162104446Y-110036066D01*
X162114299Y-110043374D01*
X162123388Y-110051612D01*
X162131626Y-110060701D01*
X162138934Y-110070554D01*
X162145240Y-110081075D01*
X162150485Y-110092165D01*
X162154618Y-110103714D01*
X162157598Y-110115614D01*
X162159398Y-110127748D01*
X162160000Y-110140000D01*
X162160000Y-111390000D01*
X162159398Y-111402252D01*
X162157598Y-111414386D01*
X162154618Y-111426286D01*
X162150485Y-111437835D01*
X162145240Y-111448925D01*
X162138934Y-111459446D01*
X162131626Y-111469299D01*
X162123388Y-111478388D01*
X162114299Y-111486626D01*
X162104446Y-111493934D01*
X162093925Y-111500240D01*
X162082835Y-111505485D01*
X162071286Y-111509618D01*
X162059386Y-111512598D01*
X162047252Y-111514398D01*
X162035000Y-111515000D01*
X161785000Y-111515000D01*
X161772748Y-111514398D01*
X161760614Y-111512598D01*
X161748714Y-111509618D01*
X161737165Y-111505485D01*
X161726075Y-111500240D01*
X161715554Y-111493934D01*
X161705701Y-111486626D01*
X161696612Y-111478388D01*
X161688374Y-111469299D01*
X161681066Y-111459446D01*
X161674760Y-111448925D01*
X161669515Y-111437835D01*
X161665382Y-111426286D01*
X161662402Y-111414386D01*
X161660602Y-111402252D01*
X161660000Y-111390000D01*
X161660000Y-110140000D01*
X161660602Y-110127748D01*
X161662402Y-110115614D01*
X161665382Y-110103714D01*
X161669515Y-110092165D01*
X161674760Y-110081075D01*
X161681066Y-110070554D01*
X161688374Y-110060701D01*
X161696612Y-110051612D01*
X161705701Y-110043374D01*
X161715554Y-110036066D01*
X161726075Y-110029760D01*
X161737165Y-110024515D01*
X161748714Y-110020382D01*
X161760614Y-110017402D01*
X161772748Y-110015602D01*
X161785000Y-110015000D01*
X162035000Y-110015000D01*
X162047252Y-110015602D01*
X162047252Y-110015602D01*
G37*
D26*
X161910000Y-110765000D03*
D12*
G36*
X161247252Y-110015602D02*
G01*
X161259386Y-110017402D01*
X161271286Y-110020382D01*
X161282835Y-110024515D01*
X161293925Y-110029760D01*
X161304446Y-110036066D01*
X161314299Y-110043374D01*
X161323388Y-110051612D01*
X161331626Y-110060701D01*
X161338934Y-110070554D01*
X161345240Y-110081075D01*
X161350485Y-110092165D01*
X161354618Y-110103714D01*
X161357598Y-110115614D01*
X161359398Y-110127748D01*
X161360000Y-110140000D01*
X161360000Y-111390000D01*
X161359398Y-111402252D01*
X161357598Y-111414386D01*
X161354618Y-111426286D01*
X161350485Y-111437835D01*
X161345240Y-111448925D01*
X161338934Y-111459446D01*
X161331626Y-111469299D01*
X161323388Y-111478388D01*
X161314299Y-111486626D01*
X161304446Y-111493934D01*
X161293925Y-111500240D01*
X161282835Y-111505485D01*
X161271286Y-111509618D01*
X161259386Y-111512598D01*
X161247252Y-111514398D01*
X161235000Y-111515000D01*
X160985000Y-111515000D01*
X160972748Y-111514398D01*
X160960614Y-111512598D01*
X160948714Y-111509618D01*
X160937165Y-111505485D01*
X160926075Y-111500240D01*
X160915554Y-111493934D01*
X160905701Y-111486626D01*
X160896612Y-111478388D01*
X160888374Y-111469299D01*
X160881066Y-111459446D01*
X160874760Y-111448925D01*
X160869515Y-111437835D01*
X160865382Y-111426286D01*
X160862402Y-111414386D01*
X160860602Y-111402252D01*
X160860000Y-111390000D01*
X160860000Y-110140000D01*
X160860602Y-110127748D01*
X160862402Y-110115614D01*
X160865382Y-110103714D01*
X160869515Y-110092165D01*
X160874760Y-110081075D01*
X160881066Y-110070554D01*
X160888374Y-110060701D01*
X160896612Y-110051612D01*
X160905701Y-110043374D01*
X160915554Y-110036066D01*
X160926075Y-110029760D01*
X160937165Y-110024515D01*
X160948714Y-110020382D01*
X160960614Y-110017402D01*
X160972748Y-110015602D01*
X160985000Y-110015000D01*
X161235000Y-110015000D01*
X161247252Y-110015602D01*
X161247252Y-110015602D01*
G37*
D26*
X161110000Y-110765000D03*
D12*
G36*
X160447252Y-110015602D02*
G01*
X160459386Y-110017402D01*
X160471286Y-110020382D01*
X160482835Y-110024515D01*
X160493925Y-110029760D01*
X160504446Y-110036066D01*
X160514299Y-110043374D01*
X160523388Y-110051612D01*
X160531626Y-110060701D01*
X160538934Y-110070554D01*
X160545240Y-110081075D01*
X160550485Y-110092165D01*
X160554618Y-110103714D01*
X160557598Y-110115614D01*
X160559398Y-110127748D01*
X160560000Y-110140000D01*
X160560000Y-111390000D01*
X160559398Y-111402252D01*
X160557598Y-111414386D01*
X160554618Y-111426286D01*
X160550485Y-111437835D01*
X160545240Y-111448925D01*
X160538934Y-111459446D01*
X160531626Y-111469299D01*
X160523388Y-111478388D01*
X160514299Y-111486626D01*
X160504446Y-111493934D01*
X160493925Y-111500240D01*
X160482835Y-111505485D01*
X160471286Y-111509618D01*
X160459386Y-111512598D01*
X160447252Y-111514398D01*
X160435000Y-111515000D01*
X160185000Y-111515000D01*
X160172748Y-111514398D01*
X160160614Y-111512598D01*
X160148714Y-111509618D01*
X160137165Y-111505485D01*
X160126075Y-111500240D01*
X160115554Y-111493934D01*
X160105701Y-111486626D01*
X160096612Y-111478388D01*
X160088374Y-111469299D01*
X160081066Y-111459446D01*
X160074760Y-111448925D01*
X160069515Y-111437835D01*
X160065382Y-111426286D01*
X160062402Y-111414386D01*
X160060602Y-111402252D01*
X160060000Y-111390000D01*
X160060000Y-110140000D01*
X160060602Y-110127748D01*
X160062402Y-110115614D01*
X160065382Y-110103714D01*
X160069515Y-110092165D01*
X160074760Y-110081075D01*
X160081066Y-110070554D01*
X160088374Y-110060701D01*
X160096612Y-110051612D01*
X160105701Y-110043374D01*
X160115554Y-110036066D01*
X160126075Y-110029760D01*
X160137165Y-110024515D01*
X160148714Y-110020382D01*
X160160614Y-110017402D01*
X160172748Y-110015602D01*
X160185000Y-110015000D01*
X160435000Y-110015000D01*
X160447252Y-110015602D01*
X160447252Y-110015602D01*
G37*
D26*
X160310000Y-110765000D03*
D12*
G36*
X159647252Y-110015602D02*
G01*
X159659386Y-110017402D01*
X159671286Y-110020382D01*
X159682835Y-110024515D01*
X159693925Y-110029760D01*
X159704446Y-110036066D01*
X159714299Y-110043374D01*
X159723388Y-110051612D01*
X159731626Y-110060701D01*
X159738934Y-110070554D01*
X159745240Y-110081075D01*
X159750485Y-110092165D01*
X159754618Y-110103714D01*
X159757598Y-110115614D01*
X159759398Y-110127748D01*
X159760000Y-110140000D01*
X159760000Y-111390000D01*
X159759398Y-111402252D01*
X159757598Y-111414386D01*
X159754618Y-111426286D01*
X159750485Y-111437835D01*
X159745240Y-111448925D01*
X159738934Y-111459446D01*
X159731626Y-111469299D01*
X159723388Y-111478388D01*
X159714299Y-111486626D01*
X159704446Y-111493934D01*
X159693925Y-111500240D01*
X159682835Y-111505485D01*
X159671286Y-111509618D01*
X159659386Y-111512598D01*
X159647252Y-111514398D01*
X159635000Y-111515000D01*
X159385000Y-111515000D01*
X159372748Y-111514398D01*
X159360614Y-111512598D01*
X159348714Y-111509618D01*
X159337165Y-111505485D01*
X159326075Y-111500240D01*
X159315554Y-111493934D01*
X159305701Y-111486626D01*
X159296612Y-111478388D01*
X159288374Y-111469299D01*
X159281066Y-111459446D01*
X159274760Y-111448925D01*
X159269515Y-111437835D01*
X159265382Y-111426286D01*
X159262402Y-111414386D01*
X159260602Y-111402252D01*
X159260000Y-111390000D01*
X159260000Y-110140000D01*
X159260602Y-110127748D01*
X159262402Y-110115614D01*
X159265382Y-110103714D01*
X159269515Y-110092165D01*
X159274760Y-110081075D01*
X159281066Y-110070554D01*
X159288374Y-110060701D01*
X159296612Y-110051612D01*
X159305701Y-110043374D01*
X159315554Y-110036066D01*
X159326075Y-110029760D01*
X159337165Y-110024515D01*
X159348714Y-110020382D01*
X159360614Y-110017402D01*
X159372748Y-110015602D01*
X159385000Y-110015000D01*
X159635000Y-110015000D01*
X159647252Y-110015602D01*
X159647252Y-110015602D01*
G37*
D26*
X159510000Y-110765000D03*
D12*
G36*
X158847252Y-110015602D02*
G01*
X158859386Y-110017402D01*
X158871286Y-110020382D01*
X158882835Y-110024515D01*
X158893925Y-110029760D01*
X158904446Y-110036066D01*
X158914299Y-110043374D01*
X158923388Y-110051612D01*
X158931626Y-110060701D01*
X158938934Y-110070554D01*
X158945240Y-110081075D01*
X158950485Y-110092165D01*
X158954618Y-110103714D01*
X158957598Y-110115614D01*
X158959398Y-110127748D01*
X158960000Y-110140000D01*
X158960000Y-111390000D01*
X158959398Y-111402252D01*
X158957598Y-111414386D01*
X158954618Y-111426286D01*
X158950485Y-111437835D01*
X158945240Y-111448925D01*
X158938934Y-111459446D01*
X158931626Y-111469299D01*
X158923388Y-111478388D01*
X158914299Y-111486626D01*
X158904446Y-111493934D01*
X158893925Y-111500240D01*
X158882835Y-111505485D01*
X158871286Y-111509618D01*
X158859386Y-111512598D01*
X158847252Y-111514398D01*
X158835000Y-111515000D01*
X158585000Y-111515000D01*
X158572748Y-111514398D01*
X158560614Y-111512598D01*
X158548714Y-111509618D01*
X158537165Y-111505485D01*
X158526075Y-111500240D01*
X158515554Y-111493934D01*
X158505701Y-111486626D01*
X158496612Y-111478388D01*
X158488374Y-111469299D01*
X158481066Y-111459446D01*
X158474760Y-111448925D01*
X158469515Y-111437835D01*
X158465382Y-111426286D01*
X158462402Y-111414386D01*
X158460602Y-111402252D01*
X158460000Y-111390000D01*
X158460000Y-110140000D01*
X158460602Y-110127748D01*
X158462402Y-110115614D01*
X158465382Y-110103714D01*
X158469515Y-110092165D01*
X158474760Y-110081075D01*
X158481066Y-110070554D01*
X158488374Y-110060701D01*
X158496612Y-110051612D01*
X158505701Y-110043374D01*
X158515554Y-110036066D01*
X158526075Y-110029760D01*
X158537165Y-110024515D01*
X158548714Y-110020382D01*
X158560614Y-110017402D01*
X158572748Y-110015602D01*
X158585000Y-110015000D01*
X158835000Y-110015000D01*
X158847252Y-110015602D01*
X158847252Y-110015602D01*
G37*
D26*
X158710000Y-110765000D03*
D12*
G36*
X158047252Y-110015602D02*
G01*
X158059386Y-110017402D01*
X158071286Y-110020382D01*
X158082835Y-110024515D01*
X158093925Y-110029760D01*
X158104446Y-110036066D01*
X158114299Y-110043374D01*
X158123388Y-110051612D01*
X158131626Y-110060701D01*
X158138934Y-110070554D01*
X158145240Y-110081075D01*
X158150485Y-110092165D01*
X158154618Y-110103714D01*
X158157598Y-110115614D01*
X158159398Y-110127748D01*
X158160000Y-110140000D01*
X158160000Y-111390000D01*
X158159398Y-111402252D01*
X158157598Y-111414386D01*
X158154618Y-111426286D01*
X158150485Y-111437835D01*
X158145240Y-111448925D01*
X158138934Y-111459446D01*
X158131626Y-111469299D01*
X158123388Y-111478388D01*
X158114299Y-111486626D01*
X158104446Y-111493934D01*
X158093925Y-111500240D01*
X158082835Y-111505485D01*
X158071286Y-111509618D01*
X158059386Y-111512598D01*
X158047252Y-111514398D01*
X158035000Y-111515000D01*
X157785000Y-111515000D01*
X157772748Y-111514398D01*
X157760614Y-111512598D01*
X157748714Y-111509618D01*
X157737165Y-111505485D01*
X157726075Y-111500240D01*
X157715554Y-111493934D01*
X157705701Y-111486626D01*
X157696612Y-111478388D01*
X157688374Y-111469299D01*
X157681066Y-111459446D01*
X157674760Y-111448925D01*
X157669515Y-111437835D01*
X157665382Y-111426286D01*
X157662402Y-111414386D01*
X157660602Y-111402252D01*
X157660000Y-111390000D01*
X157660000Y-110140000D01*
X157660602Y-110127748D01*
X157662402Y-110115614D01*
X157665382Y-110103714D01*
X157669515Y-110092165D01*
X157674760Y-110081075D01*
X157681066Y-110070554D01*
X157688374Y-110060701D01*
X157696612Y-110051612D01*
X157705701Y-110043374D01*
X157715554Y-110036066D01*
X157726075Y-110029760D01*
X157737165Y-110024515D01*
X157748714Y-110020382D01*
X157760614Y-110017402D01*
X157772748Y-110015602D01*
X157785000Y-110015000D01*
X158035000Y-110015000D01*
X158047252Y-110015602D01*
X158047252Y-110015602D01*
G37*
D26*
X157910000Y-110765000D03*
D12*
G36*
X157172252Y-111890602D02*
G01*
X157184386Y-111892402D01*
X157196286Y-111895382D01*
X157207835Y-111899515D01*
X157218925Y-111904760D01*
X157229446Y-111911066D01*
X157239299Y-111918374D01*
X157248388Y-111926612D01*
X157256626Y-111935701D01*
X157263934Y-111945554D01*
X157270240Y-111956075D01*
X157275485Y-111967165D01*
X157279618Y-111978714D01*
X157282598Y-111990614D01*
X157284398Y-112002748D01*
X157285000Y-112015000D01*
X157285000Y-112265000D01*
X157284398Y-112277252D01*
X157282598Y-112289386D01*
X157279618Y-112301286D01*
X157275485Y-112312835D01*
X157270240Y-112323925D01*
X157263934Y-112334446D01*
X157256626Y-112344299D01*
X157248388Y-112353388D01*
X157239299Y-112361626D01*
X157229446Y-112368934D01*
X157218925Y-112375240D01*
X157207835Y-112380485D01*
X157196286Y-112384618D01*
X157184386Y-112387598D01*
X157172252Y-112389398D01*
X157160000Y-112390000D01*
X155910000Y-112390000D01*
X155897748Y-112389398D01*
X155885614Y-112387598D01*
X155873714Y-112384618D01*
X155862165Y-112380485D01*
X155851075Y-112375240D01*
X155840554Y-112368934D01*
X155830701Y-112361626D01*
X155821612Y-112353388D01*
X155813374Y-112344299D01*
X155806066Y-112334446D01*
X155799760Y-112323925D01*
X155794515Y-112312835D01*
X155790382Y-112301286D01*
X155787402Y-112289386D01*
X155785602Y-112277252D01*
X155785000Y-112265000D01*
X155785000Y-112015000D01*
X155785602Y-112002748D01*
X155787402Y-111990614D01*
X155790382Y-111978714D01*
X155794515Y-111967165D01*
X155799760Y-111956075D01*
X155806066Y-111945554D01*
X155813374Y-111935701D01*
X155821612Y-111926612D01*
X155830701Y-111918374D01*
X155840554Y-111911066D01*
X155851075Y-111904760D01*
X155862165Y-111899515D01*
X155873714Y-111895382D01*
X155885614Y-111892402D01*
X155897748Y-111890602D01*
X155910000Y-111890000D01*
X157160000Y-111890000D01*
X157172252Y-111890602D01*
X157172252Y-111890602D01*
G37*
D26*
X156535000Y-112140000D03*
D12*
G36*
X157172252Y-112690602D02*
G01*
X157184386Y-112692402D01*
X157196286Y-112695382D01*
X157207835Y-112699515D01*
X157218925Y-112704760D01*
X157229446Y-112711066D01*
X157239299Y-112718374D01*
X157248388Y-112726612D01*
X157256626Y-112735701D01*
X157263934Y-112745554D01*
X157270240Y-112756075D01*
X157275485Y-112767165D01*
X157279618Y-112778714D01*
X157282598Y-112790614D01*
X157284398Y-112802748D01*
X157285000Y-112815000D01*
X157285000Y-113065000D01*
X157284398Y-113077252D01*
X157282598Y-113089386D01*
X157279618Y-113101286D01*
X157275485Y-113112835D01*
X157270240Y-113123925D01*
X157263934Y-113134446D01*
X157256626Y-113144299D01*
X157248388Y-113153388D01*
X157239299Y-113161626D01*
X157229446Y-113168934D01*
X157218925Y-113175240D01*
X157207835Y-113180485D01*
X157196286Y-113184618D01*
X157184386Y-113187598D01*
X157172252Y-113189398D01*
X157160000Y-113190000D01*
X155910000Y-113190000D01*
X155897748Y-113189398D01*
X155885614Y-113187598D01*
X155873714Y-113184618D01*
X155862165Y-113180485D01*
X155851075Y-113175240D01*
X155840554Y-113168934D01*
X155830701Y-113161626D01*
X155821612Y-113153388D01*
X155813374Y-113144299D01*
X155806066Y-113134446D01*
X155799760Y-113123925D01*
X155794515Y-113112835D01*
X155790382Y-113101286D01*
X155787402Y-113089386D01*
X155785602Y-113077252D01*
X155785000Y-113065000D01*
X155785000Y-112815000D01*
X155785602Y-112802748D01*
X155787402Y-112790614D01*
X155790382Y-112778714D01*
X155794515Y-112767165D01*
X155799760Y-112756075D01*
X155806066Y-112745554D01*
X155813374Y-112735701D01*
X155821612Y-112726612D01*
X155830701Y-112718374D01*
X155840554Y-112711066D01*
X155851075Y-112704760D01*
X155862165Y-112699515D01*
X155873714Y-112695382D01*
X155885614Y-112692402D01*
X155897748Y-112690602D01*
X155910000Y-112690000D01*
X157160000Y-112690000D01*
X157172252Y-112690602D01*
X157172252Y-112690602D01*
G37*
D26*
X156535000Y-112940000D03*
D12*
G36*
X157172252Y-113490602D02*
G01*
X157184386Y-113492402D01*
X157196286Y-113495382D01*
X157207835Y-113499515D01*
X157218925Y-113504760D01*
X157229446Y-113511066D01*
X157239299Y-113518374D01*
X157248388Y-113526612D01*
X157256626Y-113535701D01*
X157263934Y-113545554D01*
X157270240Y-113556075D01*
X157275485Y-113567165D01*
X157279618Y-113578714D01*
X157282598Y-113590614D01*
X157284398Y-113602748D01*
X157285000Y-113615000D01*
X157285000Y-113865000D01*
X157284398Y-113877252D01*
X157282598Y-113889386D01*
X157279618Y-113901286D01*
X157275485Y-113912835D01*
X157270240Y-113923925D01*
X157263934Y-113934446D01*
X157256626Y-113944299D01*
X157248388Y-113953388D01*
X157239299Y-113961626D01*
X157229446Y-113968934D01*
X157218925Y-113975240D01*
X157207835Y-113980485D01*
X157196286Y-113984618D01*
X157184386Y-113987598D01*
X157172252Y-113989398D01*
X157160000Y-113990000D01*
X155910000Y-113990000D01*
X155897748Y-113989398D01*
X155885614Y-113987598D01*
X155873714Y-113984618D01*
X155862165Y-113980485D01*
X155851075Y-113975240D01*
X155840554Y-113968934D01*
X155830701Y-113961626D01*
X155821612Y-113953388D01*
X155813374Y-113944299D01*
X155806066Y-113934446D01*
X155799760Y-113923925D01*
X155794515Y-113912835D01*
X155790382Y-113901286D01*
X155787402Y-113889386D01*
X155785602Y-113877252D01*
X155785000Y-113865000D01*
X155785000Y-113615000D01*
X155785602Y-113602748D01*
X155787402Y-113590614D01*
X155790382Y-113578714D01*
X155794515Y-113567165D01*
X155799760Y-113556075D01*
X155806066Y-113545554D01*
X155813374Y-113535701D01*
X155821612Y-113526612D01*
X155830701Y-113518374D01*
X155840554Y-113511066D01*
X155851075Y-113504760D01*
X155862165Y-113499515D01*
X155873714Y-113495382D01*
X155885614Y-113492402D01*
X155897748Y-113490602D01*
X155910000Y-113490000D01*
X157160000Y-113490000D01*
X157172252Y-113490602D01*
X157172252Y-113490602D01*
G37*
D26*
X156535000Y-113740000D03*
D12*
G36*
X157172252Y-114290602D02*
G01*
X157184386Y-114292402D01*
X157196286Y-114295382D01*
X157207835Y-114299515D01*
X157218925Y-114304760D01*
X157229446Y-114311066D01*
X157239299Y-114318374D01*
X157248388Y-114326612D01*
X157256626Y-114335701D01*
X157263934Y-114345554D01*
X157270240Y-114356075D01*
X157275485Y-114367165D01*
X157279618Y-114378714D01*
X157282598Y-114390614D01*
X157284398Y-114402748D01*
X157285000Y-114415000D01*
X157285000Y-114665000D01*
X157284398Y-114677252D01*
X157282598Y-114689386D01*
X157279618Y-114701286D01*
X157275485Y-114712835D01*
X157270240Y-114723925D01*
X157263934Y-114734446D01*
X157256626Y-114744299D01*
X157248388Y-114753388D01*
X157239299Y-114761626D01*
X157229446Y-114768934D01*
X157218925Y-114775240D01*
X157207835Y-114780485D01*
X157196286Y-114784618D01*
X157184386Y-114787598D01*
X157172252Y-114789398D01*
X157160000Y-114790000D01*
X155910000Y-114790000D01*
X155897748Y-114789398D01*
X155885614Y-114787598D01*
X155873714Y-114784618D01*
X155862165Y-114780485D01*
X155851075Y-114775240D01*
X155840554Y-114768934D01*
X155830701Y-114761626D01*
X155821612Y-114753388D01*
X155813374Y-114744299D01*
X155806066Y-114734446D01*
X155799760Y-114723925D01*
X155794515Y-114712835D01*
X155790382Y-114701286D01*
X155787402Y-114689386D01*
X155785602Y-114677252D01*
X155785000Y-114665000D01*
X155785000Y-114415000D01*
X155785602Y-114402748D01*
X155787402Y-114390614D01*
X155790382Y-114378714D01*
X155794515Y-114367165D01*
X155799760Y-114356075D01*
X155806066Y-114345554D01*
X155813374Y-114335701D01*
X155821612Y-114326612D01*
X155830701Y-114318374D01*
X155840554Y-114311066D01*
X155851075Y-114304760D01*
X155862165Y-114299515D01*
X155873714Y-114295382D01*
X155885614Y-114292402D01*
X155897748Y-114290602D01*
X155910000Y-114290000D01*
X157160000Y-114290000D01*
X157172252Y-114290602D01*
X157172252Y-114290602D01*
G37*
D26*
X156535000Y-114540000D03*
D12*
G36*
X157172252Y-115090602D02*
G01*
X157184386Y-115092402D01*
X157196286Y-115095382D01*
X157207835Y-115099515D01*
X157218925Y-115104760D01*
X157229446Y-115111066D01*
X157239299Y-115118374D01*
X157248388Y-115126612D01*
X157256626Y-115135701D01*
X157263934Y-115145554D01*
X157270240Y-115156075D01*
X157275485Y-115167165D01*
X157279618Y-115178714D01*
X157282598Y-115190614D01*
X157284398Y-115202748D01*
X157285000Y-115215000D01*
X157285000Y-115465000D01*
X157284398Y-115477252D01*
X157282598Y-115489386D01*
X157279618Y-115501286D01*
X157275485Y-115512835D01*
X157270240Y-115523925D01*
X157263934Y-115534446D01*
X157256626Y-115544299D01*
X157248388Y-115553388D01*
X157239299Y-115561626D01*
X157229446Y-115568934D01*
X157218925Y-115575240D01*
X157207835Y-115580485D01*
X157196286Y-115584618D01*
X157184386Y-115587598D01*
X157172252Y-115589398D01*
X157160000Y-115590000D01*
X155910000Y-115590000D01*
X155897748Y-115589398D01*
X155885614Y-115587598D01*
X155873714Y-115584618D01*
X155862165Y-115580485D01*
X155851075Y-115575240D01*
X155840554Y-115568934D01*
X155830701Y-115561626D01*
X155821612Y-115553388D01*
X155813374Y-115544299D01*
X155806066Y-115534446D01*
X155799760Y-115523925D01*
X155794515Y-115512835D01*
X155790382Y-115501286D01*
X155787402Y-115489386D01*
X155785602Y-115477252D01*
X155785000Y-115465000D01*
X155785000Y-115215000D01*
X155785602Y-115202748D01*
X155787402Y-115190614D01*
X155790382Y-115178714D01*
X155794515Y-115167165D01*
X155799760Y-115156075D01*
X155806066Y-115145554D01*
X155813374Y-115135701D01*
X155821612Y-115126612D01*
X155830701Y-115118374D01*
X155840554Y-115111066D01*
X155851075Y-115104760D01*
X155862165Y-115099515D01*
X155873714Y-115095382D01*
X155885614Y-115092402D01*
X155897748Y-115090602D01*
X155910000Y-115090000D01*
X157160000Y-115090000D01*
X157172252Y-115090602D01*
X157172252Y-115090602D01*
G37*
D26*
X156535000Y-115340000D03*
D12*
G36*
X157172252Y-115890602D02*
G01*
X157184386Y-115892402D01*
X157196286Y-115895382D01*
X157207835Y-115899515D01*
X157218925Y-115904760D01*
X157229446Y-115911066D01*
X157239299Y-115918374D01*
X157248388Y-115926612D01*
X157256626Y-115935701D01*
X157263934Y-115945554D01*
X157270240Y-115956075D01*
X157275485Y-115967165D01*
X157279618Y-115978714D01*
X157282598Y-115990614D01*
X157284398Y-116002748D01*
X157285000Y-116015000D01*
X157285000Y-116265000D01*
X157284398Y-116277252D01*
X157282598Y-116289386D01*
X157279618Y-116301286D01*
X157275485Y-116312835D01*
X157270240Y-116323925D01*
X157263934Y-116334446D01*
X157256626Y-116344299D01*
X157248388Y-116353388D01*
X157239299Y-116361626D01*
X157229446Y-116368934D01*
X157218925Y-116375240D01*
X157207835Y-116380485D01*
X157196286Y-116384618D01*
X157184386Y-116387598D01*
X157172252Y-116389398D01*
X157160000Y-116390000D01*
X155910000Y-116390000D01*
X155897748Y-116389398D01*
X155885614Y-116387598D01*
X155873714Y-116384618D01*
X155862165Y-116380485D01*
X155851075Y-116375240D01*
X155840554Y-116368934D01*
X155830701Y-116361626D01*
X155821612Y-116353388D01*
X155813374Y-116344299D01*
X155806066Y-116334446D01*
X155799760Y-116323925D01*
X155794515Y-116312835D01*
X155790382Y-116301286D01*
X155787402Y-116289386D01*
X155785602Y-116277252D01*
X155785000Y-116265000D01*
X155785000Y-116015000D01*
X155785602Y-116002748D01*
X155787402Y-115990614D01*
X155790382Y-115978714D01*
X155794515Y-115967165D01*
X155799760Y-115956075D01*
X155806066Y-115945554D01*
X155813374Y-115935701D01*
X155821612Y-115926612D01*
X155830701Y-115918374D01*
X155840554Y-115911066D01*
X155851075Y-115904760D01*
X155862165Y-115899515D01*
X155873714Y-115895382D01*
X155885614Y-115892402D01*
X155897748Y-115890602D01*
X155910000Y-115890000D01*
X157160000Y-115890000D01*
X157172252Y-115890602D01*
X157172252Y-115890602D01*
G37*
D26*
X156535000Y-116140000D03*
D12*
G36*
X157172252Y-116690602D02*
G01*
X157184386Y-116692402D01*
X157196286Y-116695382D01*
X157207835Y-116699515D01*
X157218925Y-116704760D01*
X157229446Y-116711066D01*
X157239299Y-116718374D01*
X157248388Y-116726612D01*
X157256626Y-116735701D01*
X157263934Y-116745554D01*
X157270240Y-116756075D01*
X157275485Y-116767165D01*
X157279618Y-116778714D01*
X157282598Y-116790614D01*
X157284398Y-116802748D01*
X157285000Y-116815000D01*
X157285000Y-117065000D01*
X157284398Y-117077252D01*
X157282598Y-117089386D01*
X157279618Y-117101286D01*
X157275485Y-117112835D01*
X157270240Y-117123925D01*
X157263934Y-117134446D01*
X157256626Y-117144299D01*
X157248388Y-117153388D01*
X157239299Y-117161626D01*
X157229446Y-117168934D01*
X157218925Y-117175240D01*
X157207835Y-117180485D01*
X157196286Y-117184618D01*
X157184386Y-117187598D01*
X157172252Y-117189398D01*
X157160000Y-117190000D01*
X155910000Y-117190000D01*
X155897748Y-117189398D01*
X155885614Y-117187598D01*
X155873714Y-117184618D01*
X155862165Y-117180485D01*
X155851075Y-117175240D01*
X155840554Y-117168934D01*
X155830701Y-117161626D01*
X155821612Y-117153388D01*
X155813374Y-117144299D01*
X155806066Y-117134446D01*
X155799760Y-117123925D01*
X155794515Y-117112835D01*
X155790382Y-117101286D01*
X155787402Y-117089386D01*
X155785602Y-117077252D01*
X155785000Y-117065000D01*
X155785000Y-116815000D01*
X155785602Y-116802748D01*
X155787402Y-116790614D01*
X155790382Y-116778714D01*
X155794515Y-116767165D01*
X155799760Y-116756075D01*
X155806066Y-116745554D01*
X155813374Y-116735701D01*
X155821612Y-116726612D01*
X155830701Y-116718374D01*
X155840554Y-116711066D01*
X155851075Y-116704760D01*
X155862165Y-116699515D01*
X155873714Y-116695382D01*
X155885614Y-116692402D01*
X155897748Y-116690602D01*
X155910000Y-116690000D01*
X157160000Y-116690000D01*
X157172252Y-116690602D01*
X157172252Y-116690602D01*
G37*
D26*
X156535000Y-116940000D03*
D12*
G36*
X157172252Y-117490602D02*
G01*
X157184386Y-117492402D01*
X157196286Y-117495382D01*
X157207835Y-117499515D01*
X157218925Y-117504760D01*
X157229446Y-117511066D01*
X157239299Y-117518374D01*
X157248388Y-117526612D01*
X157256626Y-117535701D01*
X157263934Y-117545554D01*
X157270240Y-117556075D01*
X157275485Y-117567165D01*
X157279618Y-117578714D01*
X157282598Y-117590614D01*
X157284398Y-117602748D01*
X157285000Y-117615000D01*
X157285000Y-117865000D01*
X157284398Y-117877252D01*
X157282598Y-117889386D01*
X157279618Y-117901286D01*
X157275485Y-117912835D01*
X157270240Y-117923925D01*
X157263934Y-117934446D01*
X157256626Y-117944299D01*
X157248388Y-117953388D01*
X157239299Y-117961626D01*
X157229446Y-117968934D01*
X157218925Y-117975240D01*
X157207835Y-117980485D01*
X157196286Y-117984618D01*
X157184386Y-117987598D01*
X157172252Y-117989398D01*
X157160000Y-117990000D01*
X155910000Y-117990000D01*
X155897748Y-117989398D01*
X155885614Y-117987598D01*
X155873714Y-117984618D01*
X155862165Y-117980485D01*
X155851075Y-117975240D01*
X155840554Y-117968934D01*
X155830701Y-117961626D01*
X155821612Y-117953388D01*
X155813374Y-117944299D01*
X155806066Y-117934446D01*
X155799760Y-117923925D01*
X155794515Y-117912835D01*
X155790382Y-117901286D01*
X155787402Y-117889386D01*
X155785602Y-117877252D01*
X155785000Y-117865000D01*
X155785000Y-117615000D01*
X155785602Y-117602748D01*
X155787402Y-117590614D01*
X155790382Y-117578714D01*
X155794515Y-117567165D01*
X155799760Y-117556075D01*
X155806066Y-117545554D01*
X155813374Y-117535701D01*
X155821612Y-117526612D01*
X155830701Y-117518374D01*
X155840554Y-117511066D01*
X155851075Y-117504760D01*
X155862165Y-117499515D01*
X155873714Y-117495382D01*
X155885614Y-117492402D01*
X155897748Y-117490602D01*
X155910000Y-117490000D01*
X157160000Y-117490000D01*
X157172252Y-117490602D01*
X157172252Y-117490602D01*
G37*
D26*
X156535000Y-117740000D03*
D12*
G36*
X158047252Y-118365602D02*
G01*
X158059386Y-118367402D01*
X158071286Y-118370382D01*
X158082835Y-118374515D01*
X158093925Y-118379760D01*
X158104446Y-118386066D01*
X158114299Y-118393374D01*
X158123388Y-118401612D01*
X158131626Y-118410701D01*
X158138934Y-118420554D01*
X158145240Y-118431075D01*
X158150485Y-118442165D01*
X158154618Y-118453714D01*
X158157598Y-118465614D01*
X158159398Y-118477748D01*
X158160000Y-118490000D01*
X158160000Y-119740000D01*
X158159398Y-119752252D01*
X158157598Y-119764386D01*
X158154618Y-119776286D01*
X158150485Y-119787835D01*
X158145240Y-119798925D01*
X158138934Y-119809446D01*
X158131626Y-119819299D01*
X158123388Y-119828388D01*
X158114299Y-119836626D01*
X158104446Y-119843934D01*
X158093925Y-119850240D01*
X158082835Y-119855485D01*
X158071286Y-119859618D01*
X158059386Y-119862598D01*
X158047252Y-119864398D01*
X158035000Y-119865000D01*
X157785000Y-119865000D01*
X157772748Y-119864398D01*
X157760614Y-119862598D01*
X157748714Y-119859618D01*
X157737165Y-119855485D01*
X157726075Y-119850240D01*
X157715554Y-119843934D01*
X157705701Y-119836626D01*
X157696612Y-119828388D01*
X157688374Y-119819299D01*
X157681066Y-119809446D01*
X157674760Y-119798925D01*
X157669515Y-119787835D01*
X157665382Y-119776286D01*
X157662402Y-119764386D01*
X157660602Y-119752252D01*
X157660000Y-119740000D01*
X157660000Y-118490000D01*
X157660602Y-118477748D01*
X157662402Y-118465614D01*
X157665382Y-118453714D01*
X157669515Y-118442165D01*
X157674760Y-118431075D01*
X157681066Y-118420554D01*
X157688374Y-118410701D01*
X157696612Y-118401612D01*
X157705701Y-118393374D01*
X157715554Y-118386066D01*
X157726075Y-118379760D01*
X157737165Y-118374515D01*
X157748714Y-118370382D01*
X157760614Y-118367402D01*
X157772748Y-118365602D01*
X157785000Y-118365000D01*
X158035000Y-118365000D01*
X158047252Y-118365602D01*
X158047252Y-118365602D01*
G37*
D26*
X157910000Y-119115000D03*
D12*
G36*
X158847252Y-118365602D02*
G01*
X158859386Y-118367402D01*
X158871286Y-118370382D01*
X158882835Y-118374515D01*
X158893925Y-118379760D01*
X158904446Y-118386066D01*
X158914299Y-118393374D01*
X158923388Y-118401612D01*
X158931626Y-118410701D01*
X158938934Y-118420554D01*
X158945240Y-118431075D01*
X158950485Y-118442165D01*
X158954618Y-118453714D01*
X158957598Y-118465614D01*
X158959398Y-118477748D01*
X158960000Y-118490000D01*
X158960000Y-119740000D01*
X158959398Y-119752252D01*
X158957598Y-119764386D01*
X158954618Y-119776286D01*
X158950485Y-119787835D01*
X158945240Y-119798925D01*
X158938934Y-119809446D01*
X158931626Y-119819299D01*
X158923388Y-119828388D01*
X158914299Y-119836626D01*
X158904446Y-119843934D01*
X158893925Y-119850240D01*
X158882835Y-119855485D01*
X158871286Y-119859618D01*
X158859386Y-119862598D01*
X158847252Y-119864398D01*
X158835000Y-119865000D01*
X158585000Y-119865000D01*
X158572748Y-119864398D01*
X158560614Y-119862598D01*
X158548714Y-119859618D01*
X158537165Y-119855485D01*
X158526075Y-119850240D01*
X158515554Y-119843934D01*
X158505701Y-119836626D01*
X158496612Y-119828388D01*
X158488374Y-119819299D01*
X158481066Y-119809446D01*
X158474760Y-119798925D01*
X158469515Y-119787835D01*
X158465382Y-119776286D01*
X158462402Y-119764386D01*
X158460602Y-119752252D01*
X158460000Y-119740000D01*
X158460000Y-118490000D01*
X158460602Y-118477748D01*
X158462402Y-118465614D01*
X158465382Y-118453714D01*
X158469515Y-118442165D01*
X158474760Y-118431075D01*
X158481066Y-118420554D01*
X158488374Y-118410701D01*
X158496612Y-118401612D01*
X158505701Y-118393374D01*
X158515554Y-118386066D01*
X158526075Y-118379760D01*
X158537165Y-118374515D01*
X158548714Y-118370382D01*
X158560614Y-118367402D01*
X158572748Y-118365602D01*
X158585000Y-118365000D01*
X158835000Y-118365000D01*
X158847252Y-118365602D01*
X158847252Y-118365602D01*
G37*
D26*
X158710000Y-119115000D03*
D12*
G36*
X159647252Y-118365602D02*
G01*
X159659386Y-118367402D01*
X159671286Y-118370382D01*
X159682835Y-118374515D01*
X159693925Y-118379760D01*
X159704446Y-118386066D01*
X159714299Y-118393374D01*
X159723388Y-118401612D01*
X159731626Y-118410701D01*
X159738934Y-118420554D01*
X159745240Y-118431075D01*
X159750485Y-118442165D01*
X159754618Y-118453714D01*
X159757598Y-118465614D01*
X159759398Y-118477748D01*
X159760000Y-118490000D01*
X159760000Y-119740000D01*
X159759398Y-119752252D01*
X159757598Y-119764386D01*
X159754618Y-119776286D01*
X159750485Y-119787835D01*
X159745240Y-119798925D01*
X159738934Y-119809446D01*
X159731626Y-119819299D01*
X159723388Y-119828388D01*
X159714299Y-119836626D01*
X159704446Y-119843934D01*
X159693925Y-119850240D01*
X159682835Y-119855485D01*
X159671286Y-119859618D01*
X159659386Y-119862598D01*
X159647252Y-119864398D01*
X159635000Y-119865000D01*
X159385000Y-119865000D01*
X159372748Y-119864398D01*
X159360614Y-119862598D01*
X159348714Y-119859618D01*
X159337165Y-119855485D01*
X159326075Y-119850240D01*
X159315554Y-119843934D01*
X159305701Y-119836626D01*
X159296612Y-119828388D01*
X159288374Y-119819299D01*
X159281066Y-119809446D01*
X159274760Y-119798925D01*
X159269515Y-119787835D01*
X159265382Y-119776286D01*
X159262402Y-119764386D01*
X159260602Y-119752252D01*
X159260000Y-119740000D01*
X159260000Y-118490000D01*
X159260602Y-118477748D01*
X159262402Y-118465614D01*
X159265382Y-118453714D01*
X159269515Y-118442165D01*
X159274760Y-118431075D01*
X159281066Y-118420554D01*
X159288374Y-118410701D01*
X159296612Y-118401612D01*
X159305701Y-118393374D01*
X159315554Y-118386066D01*
X159326075Y-118379760D01*
X159337165Y-118374515D01*
X159348714Y-118370382D01*
X159360614Y-118367402D01*
X159372748Y-118365602D01*
X159385000Y-118365000D01*
X159635000Y-118365000D01*
X159647252Y-118365602D01*
X159647252Y-118365602D01*
G37*
D26*
X159510000Y-119115000D03*
D12*
G36*
X160447252Y-118365602D02*
G01*
X160459386Y-118367402D01*
X160471286Y-118370382D01*
X160482835Y-118374515D01*
X160493925Y-118379760D01*
X160504446Y-118386066D01*
X160514299Y-118393374D01*
X160523388Y-118401612D01*
X160531626Y-118410701D01*
X160538934Y-118420554D01*
X160545240Y-118431075D01*
X160550485Y-118442165D01*
X160554618Y-118453714D01*
X160557598Y-118465614D01*
X160559398Y-118477748D01*
X160560000Y-118490000D01*
X160560000Y-119740000D01*
X160559398Y-119752252D01*
X160557598Y-119764386D01*
X160554618Y-119776286D01*
X160550485Y-119787835D01*
X160545240Y-119798925D01*
X160538934Y-119809446D01*
X160531626Y-119819299D01*
X160523388Y-119828388D01*
X160514299Y-119836626D01*
X160504446Y-119843934D01*
X160493925Y-119850240D01*
X160482835Y-119855485D01*
X160471286Y-119859618D01*
X160459386Y-119862598D01*
X160447252Y-119864398D01*
X160435000Y-119865000D01*
X160185000Y-119865000D01*
X160172748Y-119864398D01*
X160160614Y-119862598D01*
X160148714Y-119859618D01*
X160137165Y-119855485D01*
X160126075Y-119850240D01*
X160115554Y-119843934D01*
X160105701Y-119836626D01*
X160096612Y-119828388D01*
X160088374Y-119819299D01*
X160081066Y-119809446D01*
X160074760Y-119798925D01*
X160069515Y-119787835D01*
X160065382Y-119776286D01*
X160062402Y-119764386D01*
X160060602Y-119752252D01*
X160060000Y-119740000D01*
X160060000Y-118490000D01*
X160060602Y-118477748D01*
X160062402Y-118465614D01*
X160065382Y-118453714D01*
X160069515Y-118442165D01*
X160074760Y-118431075D01*
X160081066Y-118420554D01*
X160088374Y-118410701D01*
X160096612Y-118401612D01*
X160105701Y-118393374D01*
X160115554Y-118386066D01*
X160126075Y-118379760D01*
X160137165Y-118374515D01*
X160148714Y-118370382D01*
X160160614Y-118367402D01*
X160172748Y-118365602D01*
X160185000Y-118365000D01*
X160435000Y-118365000D01*
X160447252Y-118365602D01*
X160447252Y-118365602D01*
G37*
D26*
X160310000Y-119115000D03*
D12*
G36*
X161247252Y-118365602D02*
G01*
X161259386Y-118367402D01*
X161271286Y-118370382D01*
X161282835Y-118374515D01*
X161293925Y-118379760D01*
X161304446Y-118386066D01*
X161314299Y-118393374D01*
X161323388Y-118401612D01*
X161331626Y-118410701D01*
X161338934Y-118420554D01*
X161345240Y-118431075D01*
X161350485Y-118442165D01*
X161354618Y-118453714D01*
X161357598Y-118465614D01*
X161359398Y-118477748D01*
X161360000Y-118490000D01*
X161360000Y-119740000D01*
X161359398Y-119752252D01*
X161357598Y-119764386D01*
X161354618Y-119776286D01*
X161350485Y-119787835D01*
X161345240Y-119798925D01*
X161338934Y-119809446D01*
X161331626Y-119819299D01*
X161323388Y-119828388D01*
X161314299Y-119836626D01*
X161304446Y-119843934D01*
X161293925Y-119850240D01*
X161282835Y-119855485D01*
X161271286Y-119859618D01*
X161259386Y-119862598D01*
X161247252Y-119864398D01*
X161235000Y-119865000D01*
X160985000Y-119865000D01*
X160972748Y-119864398D01*
X160960614Y-119862598D01*
X160948714Y-119859618D01*
X160937165Y-119855485D01*
X160926075Y-119850240D01*
X160915554Y-119843934D01*
X160905701Y-119836626D01*
X160896612Y-119828388D01*
X160888374Y-119819299D01*
X160881066Y-119809446D01*
X160874760Y-119798925D01*
X160869515Y-119787835D01*
X160865382Y-119776286D01*
X160862402Y-119764386D01*
X160860602Y-119752252D01*
X160860000Y-119740000D01*
X160860000Y-118490000D01*
X160860602Y-118477748D01*
X160862402Y-118465614D01*
X160865382Y-118453714D01*
X160869515Y-118442165D01*
X160874760Y-118431075D01*
X160881066Y-118420554D01*
X160888374Y-118410701D01*
X160896612Y-118401612D01*
X160905701Y-118393374D01*
X160915554Y-118386066D01*
X160926075Y-118379760D01*
X160937165Y-118374515D01*
X160948714Y-118370382D01*
X160960614Y-118367402D01*
X160972748Y-118365602D01*
X160985000Y-118365000D01*
X161235000Y-118365000D01*
X161247252Y-118365602D01*
X161247252Y-118365602D01*
G37*
D26*
X161110000Y-119115000D03*
D12*
G36*
X162047252Y-118365602D02*
G01*
X162059386Y-118367402D01*
X162071286Y-118370382D01*
X162082835Y-118374515D01*
X162093925Y-118379760D01*
X162104446Y-118386066D01*
X162114299Y-118393374D01*
X162123388Y-118401612D01*
X162131626Y-118410701D01*
X162138934Y-118420554D01*
X162145240Y-118431075D01*
X162150485Y-118442165D01*
X162154618Y-118453714D01*
X162157598Y-118465614D01*
X162159398Y-118477748D01*
X162160000Y-118490000D01*
X162160000Y-119740000D01*
X162159398Y-119752252D01*
X162157598Y-119764386D01*
X162154618Y-119776286D01*
X162150485Y-119787835D01*
X162145240Y-119798925D01*
X162138934Y-119809446D01*
X162131626Y-119819299D01*
X162123388Y-119828388D01*
X162114299Y-119836626D01*
X162104446Y-119843934D01*
X162093925Y-119850240D01*
X162082835Y-119855485D01*
X162071286Y-119859618D01*
X162059386Y-119862598D01*
X162047252Y-119864398D01*
X162035000Y-119865000D01*
X161785000Y-119865000D01*
X161772748Y-119864398D01*
X161760614Y-119862598D01*
X161748714Y-119859618D01*
X161737165Y-119855485D01*
X161726075Y-119850240D01*
X161715554Y-119843934D01*
X161705701Y-119836626D01*
X161696612Y-119828388D01*
X161688374Y-119819299D01*
X161681066Y-119809446D01*
X161674760Y-119798925D01*
X161669515Y-119787835D01*
X161665382Y-119776286D01*
X161662402Y-119764386D01*
X161660602Y-119752252D01*
X161660000Y-119740000D01*
X161660000Y-118490000D01*
X161660602Y-118477748D01*
X161662402Y-118465614D01*
X161665382Y-118453714D01*
X161669515Y-118442165D01*
X161674760Y-118431075D01*
X161681066Y-118420554D01*
X161688374Y-118410701D01*
X161696612Y-118401612D01*
X161705701Y-118393374D01*
X161715554Y-118386066D01*
X161726075Y-118379760D01*
X161737165Y-118374515D01*
X161748714Y-118370382D01*
X161760614Y-118367402D01*
X161772748Y-118365602D01*
X161785000Y-118365000D01*
X162035000Y-118365000D01*
X162047252Y-118365602D01*
X162047252Y-118365602D01*
G37*
D26*
X161910000Y-119115000D03*
D12*
G36*
X162847252Y-118365602D02*
G01*
X162859386Y-118367402D01*
X162871286Y-118370382D01*
X162882835Y-118374515D01*
X162893925Y-118379760D01*
X162904446Y-118386066D01*
X162914299Y-118393374D01*
X162923388Y-118401612D01*
X162931626Y-118410701D01*
X162938934Y-118420554D01*
X162945240Y-118431075D01*
X162950485Y-118442165D01*
X162954618Y-118453714D01*
X162957598Y-118465614D01*
X162959398Y-118477748D01*
X162960000Y-118490000D01*
X162960000Y-119740000D01*
X162959398Y-119752252D01*
X162957598Y-119764386D01*
X162954618Y-119776286D01*
X162950485Y-119787835D01*
X162945240Y-119798925D01*
X162938934Y-119809446D01*
X162931626Y-119819299D01*
X162923388Y-119828388D01*
X162914299Y-119836626D01*
X162904446Y-119843934D01*
X162893925Y-119850240D01*
X162882835Y-119855485D01*
X162871286Y-119859618D01*
X162859386Y-119862598D01*
X162847252Y-119864398D01*
X162835000Y-119865000D01*
X162585000Y-119865000D01*
X162572748Y-119864398D01*
X162560614Y-119862598D01*
X162548714Y-119859618D01*
X162537165Y-119855485D01*
X162526075Y-119850240D01*
X162515554Y-119843934D01*
X162505701Y-119836626D01*
X162496612Y-119828388D01*
X162488374Y-119819299D01*
X162481066Y-119809446D01*
X162474760Y-119798925D01*
X162469515Y-119787835D01*
X162465382Y-119776286D01*
X162462402Y-119764386D01*
X162460602Y-119752252D01*
X162460000Y-119740000D01*
X162460000Y-118490000D01*
X162460602Y-118477748D01*
X162462402Y-118465614D01*
X162465382Y-118453714D01*
X162469515Y-118442165D01*
X162474760Y-118431075D01*
X162481066Y-118420554D01*
X162488374Y-118410701D01*
X162496612Y-118401612D01*
X162505701Y-118393374D01*
X162515554Y-118386066D01*
X162526075Y-118379760D01*
X162537165Y-118374515D01*
X162548714Y-118370382D01*
X162560614Y-118367402D01*
X162572748Y-118365602D01*
X162585000Y-118365000D01*
X162835000Y-118365000D01*
X162847252Y-118365602D01*
X162847252Y-118365602D01*
G37*
D26*
X162710000Y-119115000D03*
D12*
G36*
X163647252Y-118365602D02*
G01*
X163659386Y-118367402D01*
X163671286Y-118370382D01*
X163682835Y-118374515D01*
X163693925Y-118379760D01*
X163704446Y-118386066D01*
X163714299Y-118393374D01*
X163723388Y-118401612D01*
X163731626Y-118410701D01*
X163738934Y-118420554D01*
X163745240Y-118431075D01*
X163750485Y-118442165D01*
X163754618Y-118453714D01*
X163757598Y-118465614D01*
X163759398Y-118477748D01*
X163760000Y-118490000D01*
X163760000Y-119740000D01*
X163759398Y-119752252D01*
X163757598Y-119764386D01*
X163754618Y-119776286D01*
X163750485Y-119787835D01*
X163745240Y-119798925D01*
X163738934Y-119809446D01*
X163731626Y-119819299D01*
X163723388Y-119828388D01*
X163714299Y-119836626D01*
X163704446Y-119843934D01*
X163693925Y-119850240D01*
X163682835Y-119855485D01*
X163671286Y-119859618D01*
X163659386Y-119862598D01*
X163647252Y-119864398D01*
X163635000Y-119865000D01*
X163385000Y-119865000D01*
X163372748Y-119864398D01*
X163360614Y-119862598D01*
X163348714Y-119859618D01*
X163337165Y-119855485D01*
X163326075Y-119850240D01*
X163315554Y-119843934D01*
X163305701Y-119836626D01*
X163296612Y-119828388D01*
X163288374Y-119819299D01*
X163281066Y-119809446D01*
X163274760Y-119798925D01*
X163269515Y-119787835D01*
X163265382Y-119776286D01*
X163262402Y-119764386D01*
X163260602Y-119752252D01*
X163260000Y-119740000D01*
X163260000Y-118490000D01*
X163260602Y-118477748D01*
X163262402Y-118465614D01*
X163265382Y-118453714D01*
X163269515Y-118442165D01*
X163274760Y-118431075D01*
X163281066Y-118420554D01*
X163288374Y-118410701D01*
X163296612Y-118401612D01*
X163305701Y-118393374D01*
X163315554Y-118386066D01*
X163326075Y-118379760D01*
X163337165Y-118374515D01*
X163348714Y-118370382D01*
X163360614Y-118367402D01*
X163372748Y-118365602D01*
X163385000Y-118365000D01*
X163635000Y-118365000D01*
X163647252Y-118365602D01*
X163647252Y-118365602D01*
G37*
D26*
X163510000Y-119115000D03*
D12*
G36*
X165522252Y-117490602D02*
G01*
X165534386Y-117492402D01*
X165546286Y-117495382D01*
X165557835Y-117499515D01*
X165568925Y-117504760D01*
X165579446Y-117511066D01*
X165589299Y-117518374D01*
X165598388Y-117526612D01*
X165606626Y-117535701D01*
X165613934Y-117545554D01*
X165620240Y-117556075D01*
X165625485Y-117567165D01*
X165629618Y-117578714D01*
X165632598Y-117590614D01*
X165634398Y-117602748D01*
X165635000Y-117615000D01*
X165635000Y-117865000D01*
X165634398Y-117877252D01*
X165632598Y-117889386D01*
X165629618Y-117901286D01*
X165625485Y-117912835D01*
X165620240Y-117923925D01*
X165613934Y-117934446D01*
X165606626Y-117944299D01*
X165598388Y-117953388D01*
X165589299Y-117961626D01*
X165579446Y-117968934D01*
X165568925Y-117975240D01*
X165557835Y-117980485D01*
X165546286Y-117984618D01*
X165534386Y-117987598D01*
X165522252Y-117989398D01*
X165510000Y-117990000D01*
X164260000Y-117990000D01*
X164247748Y-117989398D01*
X164235614Y-117987598D01*
X164223714Y-117984618D01*
X164212165Y-117980485D01*
X164201075Y-117975240D01*
X164190554Y-117968934D01*
X164180701Y-117961626D01*
X164171612Y-117953388D01*
X164163374Y-117944299D01*
X164156066Y-117934446D01*
X164149760Y-117923925D01*
X164144515Y-117912835D01*
X164140382Y-117901286D01*
X164137402Y-117889386D01*
X164135602Y-117877252D01*
X164135000Y-117865000D01*
X164135000Y-117615000D01*
X164135602Y-117602748D01*
X164137402Y-117590614D01*
X164140382Y-117578714D01*
X164144515Y-117567165D01*
X164149760Y-117556075D01*
X164156066Y-117545554D01*
X164163374Y-117535701D01*
X164171612Y-117526612D01*
X164180701Y-117518374D01*
X164190554Y-117511066D01*
X164201075Y-117504760D01*
X164212165Y-117499515D01*
X164223714Y-117495382D01*
X164235614Y-117492402D01*
X164247748Y-117490602D01*
X164260000Y-117490000D01*
X165510000Y-117490000D01*
X165522252Y-117490602D01*
X165522252Y-117490602D01*
G37*
D26*
X164885000Y-117740000D03*
D12*
G36*
X165522252Y-116690602D02*
G01*
X165534386Y-116692402D01*
X165546286Y-116695382D01*
X165557835Y-116699515D01*
X165568925Y-116704760D01*
X165579446Y-116711066D01*
X165589299Y-116718374D01*
X165598388Y-116726612D01*
X165606626Y-116735701D01*
X165613934Y-116745554D01*
X165620240Y-116756075D01*
X165625485Y-116767165D01*
X165629618Y-116778714D01*
X165632598Y-116790614D01*
X165634398Y-116802748D01*
X165635000Y-116815000D01*
X165635000Y-117065000D01*
X165634398Y-117077252D01*
X165632598Y-117089386D01*
X165629618Y-117101286D01*
X165625485Y-117112835D01*
X165620240Y-117123925D01*
X165613934Y-117134446D01*
X165606626Y-117144299D01*
X165598388Y-117153388D01*
X165589299Y-117161626D01*
X165579446Y-117168934D01*
X165568925Y-117175240D01*
X165557835Y-117180485D01*
X165546286Y-117184618D01*
X165534386Y-117187598D01*
X165522252Y-117189398D01*
X165510000Y-117190000D01*
X164260000Y-117190000D01*
X164247748Y-117189398D01*
X164235614Y-117187598D01*
X164223714Y-117184618D01*
X164212165Y-117180485D01*
X164201075Y-117175240D01*
X164190554Y-117168934D01*
X164180701Y-117161626D01*
X164171612Y-117153388D01*
X164163374Y-117144299D01*
X164156066Y-117134446D01*
X164149760Y-117123925D01*
X164144515Y-117112835D01*
X164140382Y-117101286D01*
X164137402Y-117089386D01*
X164135602Y-117077252D01*
X164135000Y-117065000D01*
X164135000Y-116815000D01*
X164135602Y-116802748D01*
X164137402Y-116790614D01*
X164140382Y-116778714D01*
X164144515Y-116767165D01*
X164149760Y-116756075D01*
X164156066Y-116745554D01*
X164163374Y-116735701D01*
X164171612Y-116726612D01*
X164180701Y-116718374D01*
X164190554Y-116711066D01*
X164201075Y-116704760D01*
X164212165Y-116699515D01*
X164223714Y-116695382D01*
X164235614Y-116692402D01*
X164247748Y-116690602D01*
X164260000Y-116690000D01*
X165510000Y-116690000D01*
X165522252Y-116690602D01*
X165522252Y-116690602D01*
G37*
D26*
X164885000Y-116940000D03*
D12*
G36*
X165522252Y-115890602D02*
G01*
X165534386Y-115892402D01*
X165546286Y-115895382D01*
X165557835Y-115899515D01*
X165568925Y-115904760D01*
X165579446Y-115911066D01*
X165589299Y-115918374D01*
X165598388Y-115926612D01*
X165606626Y-115935701D01*
X165613934Y-115945554D01*
X165620240Y-115956075D01*
X165625485Y-115967165D01*
X165629618Y-115978714D01*
X165632598Y-115990614D01*
X165634398Y-116002748D01*
X165635000Y-116015000D01*
X165635000Y-116265000D01*
X165634398Y-116277252D01*
X165632598Y-116289386D01*
X165629618Y-116301286D01*
X165625485Y-116312835D01*
X165620240Y-116323925D01*
X165613934Y-116334446D01*
X165606626Y-116344299D01*
X165598388Y-116353388D01*
X165589299Y-116361626D01*
X165579446Y-116368934D01*
X165568925Y-116375240D01*
X165557835Y-116380485D01*
X165546286Y-116384618D01*
X165534386Y-116387598D01*
X165522252Y-116389398D01*
X165510000Y-116390000D01*
X164260000Y-116390000D01*
X164247748Y-116389398D01*
X164235614Y-116387598D01*
X164223714Y-116384618D01*
X164212165Y-116380485D01*
X164201075Y-116375240D01*
X164190554Y-116368934D01*
X164180701Y-116361626D01*
X164171612Y-116353388D01*
X164163374Y-116344299D01*
X164156066Y-116334446D01*
X164149760Y-116323925D01*
X164144515Y-116312835D01*
X164140382Y-116301286D01*
X164137402Y-116289386D01*
X164135602Y-116277252D01*
X164135000Y-116265000D01*
X164135000Y-116015000D01*
X164135602Y-116002748D01*
X164137402Y-115990614D01*
X164140382Y-115978714D01*
X164144515Y-115967165D01*
X164149760Y-115956075D01*
X164156066Y-115945554D01*
X164163374Y-115935701D01*
X164171612Y-115926612D01*
X164180701Y-115918374D01*
X164190554Y-115911066D01*
X164201075Y-115904760D01*
X164212165Y-115899515D01*
X164223714Y-115895382D01*
X164235614Y-115892402D01*
X164247748Y-115890602D01*
X164260000Y-115890000D01*
X165510000Y-115890000D01*
X165522252Y-115890602D01*
X165522252Y-115890602D01*
G37*
D26*
X164885000Y-116140000D03*
D12*
G36*
X165522252Y-115090602D02*
G01*
X165534386Y-115092402D01*
X165546286Y-115095382D01*
X165557835Y-115099515D01*
X165568925Y-115104760D01*
X165579446Y-115111066D01*
X165589299Y-115118374D01*
X165598388Y-115126612D01*
X165606626Y-115135701D01*
X165613934Y-115145554D01*
X165620240Y-115156075D01*
X165625485Y-115167165D01*
X165629618Y-115178714D01*
X165632598Y-115190614D01*
X165634398Y-115202748D01*
X165635000Y-115215000D01*
X165635000Y-115465000D01*
X165634398Y-115477252D01*
X165632598Y-115489386D01*
X165629618Y-115501286D01*
X165625485Y-115512835D01*
X165620240Y-115523925D01*
X165613934Y-115534446D01*
X165606626Y-115544299D01*
X165598388Y-115553388D01*
X165589299Y-115561626D01*
X165579446Y-115568934D01*
X165568925Y-115575240D01*
X165557835Y-115580485D01*
X165546286Y-115584618D01*
X165534386Y-115587598D01*
X165522252Y-115589398D01*
X165510000Y-115590000D01*
X164260000Y-115590000D01*
X164247748Y-115589398D01*
X164235614Y-115587598D01*
X164223714Y-115584618D01*
X164212165Y-115580485D01*
X164201075Y-115575240D01*
X164190554Y-115568934D01*
X164180701Y-115561626D01*
X164171612Y-115553388D01*
X164163374Y-115544299D01*
X164156066Y-115534446D01*
X164149760Y-115523925D01*
X164144515Y-115512835D01*
X164140382Y-115501286D01*
X164137402Y-115489386D01*
X164135602Y-115477252D01*
X164135000Y-115465000D01*
X164135000Y-115215000D01*
X164135602Y-115202748D01*
X164137402Y-115190614D01*
X164140382Y-115178714D01*
X164144515Y-115167165D01*
X164149760Y-115156075D01*
X164156066Y-115145554D01*
X164163374Y-115135701D01*
X164171612Y-115126612D01*
X164180701Y-115118374D01*
X164190554Y-115111066D01*
X164201075Y-115104760D01*
X164212165Y-115099515D01*
X164223714Y-115095382D01*
X164235614Y-115092402D01*
X164247748Y-115090602D01*
X164260000Y-115090000D01*
X165510000Y-115090000D01*
X165522252Y-115090602D01*
X165522252Y-115090602D01*
G37*
D26*
X164885000Y-115340000D03*
D12*
G36*
X165522252Y-114290602D02*
G01*
X165534386Y-114292402D01*
X165546286Y-114295382D01*
X165557835Y-114299515D01*
X165568925Y-114304760D01*
X165579446Y-114311066D01*
X165589299Y-114318374D01*
X165598388Y-114326612D01*
X165606626Y-114335701D01*
X165613934Y-114345554D01*
X165620240Y-114356075D01*
X165625485Y-114367165D01*
X165629618Y-114378714D01*
X165632598Y-114390614D01*
X165634398Y-114402748D01*
X165635000Y-114415000D01*
X165635000Y-114665000D01*
X165634398Y-114677252D01*
X165632598Y-114689386D01*
X165629618Y-114701286D01*
X165625485Y-114712835D01*
X165620240Y-114723925D01*
X165613934Y-114734446D01*
X165606626Y-114744299D01*
X165598388Y-114753388D01*
X165589299Y-114761626D01*
X165579446Y-114768934D01*
X165568925Y-114775240D01*
X165557835Y-114780485D01*
X165546286Y-114784618D01*
X165534386Y-114787598D01*
X165522252Y-114789398D01*
X165510000Y-114790000D01*
X164260000Y-114790000D01*
X164247748Y-114789398D01*
X164235614Y-114787598D01*
X164223714Y-114784618D01*
X164212165Y-114780485D01*
X164201075Y-114775240D01*
X164190554Y-114768934D01*
X164180701Y-114761626D01*
X164171612Y-114753388D01*
X164163374Y-114744299D01*
X164156066Y-114734446D01*
X164149760Y-114723925D01*
X164144515Y-114712835D01*
X164140382Y-114701286D01*
X164137402Y-114689386D01*
X164135602Y-114677252D01*
X164135000Y-114665000D01*
X164135000Y-114415000D01*
X164135602Y-114402748D01*
X164137402Y-114390614D01*
X164140382Y-114378714D01*
X164144515Y-114367165D01*
X164149760Y-114356075D01*
X164156066Y-114345554D01*
X164163374Y-114335701D01*
X164171612Y-114326612D01*
X164180701Y-114318374D01*
X164190554Y-114311066D01*
X164201075Y-114304760D01*
X164212165Y-114299515D01*
X164223714Y-114295382D01*
X164235614Y-114292402D01*
X164247748Y-114290602D01*
X164260000Y-114290000D01*
X165510000Y-114290000D01*
X165522252Y-114290602D01*
X165522252Y-114290602D01*
G37*
D26*
X164885000Y-114540000D03*
D12*
G36*
X165522252Y-113490602D02*
G01*
X165534386Y-113492402D01*
X165546286Y-113495382D01*
X165557835Y-113499515D01*
X165568925Y-113504760D01*
X165579446Y-113511066D01*
X165589299Y-113518374D01*
X165598388Y-113526612D01*
X165606626Y-113535701D01*
X165613934Y-113545554D01*
X165620240Y-113556075D01*
X165625485Y-113567165D01*
X165629618Y-113578714D01*
X165632598Y-113590614D01*
X165634398Y-113602748D01*
X165635000Y-113615000D01*
X165635000Y-113865000D01*
X165634398Y-113877252D01*
X165632598Y-113889386D01*
X165629618Y-113901286D01*
X165625485Y-113912835D01*
X165620240Y-113923925D01*
X165613934Y-113934446D01*
X165606626Y-113944299D01*
X165598388Y-113953388D01*
X165589299Y-113961626D01*
X165579446Y-113968934D01*
X165568925Y-113975240D01*
X165557835Y-113980485D01*
X165546286Y-113984618D01*
X165534386Y-113987598D01*
X165522252Y-113989398D01*
X165510000Y-113990000D01*
X164260000Y-113990000D01*
X164247748Y-113989398D01*
X164235614Y-113987598D01*
X164223714Y-113984618D01*
X164212165Y-113980485D01*
X164201075Y-113975240D01*
X164190554Y-113968934D01*
X164180701Y-113961626D01*
X164171612Y-113953388D01*
X164163374Y-113944299D01*
X164156066Y-113934446D01*
X164149760Y-113923925D01*
X164144515Y-113912835D01*
X164140382Y-113901286D01*
X164137402Y-113889386D01*
X164135602Y-113877252D01*
X164135000Y-113865000D01*
X164135000Y-113615000D01*
X164135602Y-113602748D01*
X164137402Y-113590614D01*
X164140382Y-113578714D01*
X164144515Y-113567165D01*
X164149760Y-113556075D01*
X164156066Y-113545554D01*
X164163374Y-113535701D01*
X164171612Y-113526612D01*
X164180701Y-113518374D01*
X164190554Y-113511066D01*
X164201075Y-113504760D01*
X164212165Y-113499515D01*
X164223714Y-113495382D01*
X164235614Y-113492402D01*
X164247748Y-113490602D01*
X164260000Y-113490000D01*
X165510000Y-113490000D01*
X165522252Y-113490602D01*
X165522252Y-113490602D01*
G37*
D26*
X164885000Y-113740000D03*
D12*
G36*
X165522252Y-112690602D02*
G01*
X165534386Y-112692402D01*
X165546286Y-112695382D01*
X165557835Y-112699515D01*
X165568925Y-112704760D01*
X165579446Y-112711066D01*
X165589299Y-112718374D01*
X165598388Y-112726612D01*
X165606626Y-112735701D01*
X165613934Y-112745554D01*
X165620240Y-112756075D01*
X165625485Y-112767165D01*
X165629618Y-112778714D01*
X165632598Y-112790614D01*
X165634398Y-112802748D01*
X165635000Y-112815000D01*
X165635000Y-113065000D01*
X165634398Y-113077252D01*
X165632598Y-113089386D01*
X165629618Y-113101286D01*
X165625485Y-113112835D01*
X165620240Y-113123925D01*
X165613934Y-113134446D01*
X165606626Y-113144299D01*
X165598388Y-113153388D01*
X165589299Y-113161626D01*
X165579446Y-113168934D01*
X165568925Y-113175240D01*
X165557835Y-113180485D01*
X165546286Y-113184618D01*
X165534386Y-113187598D01*
X165522252Y-113189398D01*
X165510000Y-113190000D01*
X164260000Y-113190000D01*
X164247748Y-113189398D01*
X164235614Y-113187598D01*
X164223714Y-113184618D01*
X164212165Y-113180485D01*
X164201075Y-113175240D01*
X164190554Y-113168934D01*
X164180701Y-113161626D01*
X164171612Y-113153388D01*
X164163374Y-113144299D01*
X164156066Y-113134446D01*
X164149760Y-113123925D01*
X164144515Y-113112835D01*
X164140382Y-113101286D01*
X164137402Y-113089386D01*
X164135602Y-113077252D01*
X164135000Y-113065000D01*
X164135000Y-112815000D01*
X164135602Y-112802748D01*
X164137402Y-112790614D01*
X164140382Y-112778714D01*
X164144515Y-112767165D01*
X164149760Y-112756075D01*
X164156066Y-112745554D01*
X164163374Y-112735701D01*
X164171612Y-112726612D01*
X164180701Y-112718374D01*
X164190554Y-112711066D01*
X164201075Y-112704760D01*
X164212165Y-112699515D01*
X164223714Y-112695382D01*
X164235614Y-112692402D01*
X164247748Y-112690602D01*
X164260000Y-112690000D01*
X165510000Y-112690000D01*
X165522252Y-112690602D01*
X165522252Y-112690602D01*
G37*
D26*
X164885000Y-112940000D03*
D12*
G36*
X165522252Y-111890602D02*
G01*
X165534386Y-111892402D01*
X165546286Y-111895382D01*
X165557835Y-111899515D01*
X165568925Y-111904760D01*
X165579446Y-111911066D01*
X165589299Y-111918374D01*
X165598388Y-111926612D01*
X165606626Y-111935701D01*
X165613934Y-111945554D01*
X165620240Y-111956075D01*
X165625485Y-111967165D01*
X165629618Y-111978714D01*
X165632598Y-111990614D01*
X165634398Y-112002748D01*
X165635000Y-112015000D01*
X165635000Y-112265000D01*
X165634398Y-112277252D01*
X165632598Y-112289386D01*
X165629618Y-112301286D01*
X165625485Y-112312835D01*
X165620240Y-112323925D01*
X165613934Y-112334446D01*
X165606626Y-112344299D01*
X165598388Y-112353388D01*
X165589299Y-112361626D01*
X165579446Y-112368934D01*
X165568925Y-112375240D01*
X165557835Y-112380485D01*
X165546286Y-112384618D01*
X165534386Y-112387598D01*
X165522252Y-112389398D01*
X165510000Y-112390000D01*
X164260000Y-112390000D01*
X164247748Y-112389398D01*
X164235614Y-112387598D01*
X164223714Y-112384618D01*
X164212165Y-112380485D01*
X164201075Y-112375240D01*
X164190554Y-112368934D01*
X164180701Y-112361626D01*
X164171612Y-112353388D01*
X164163374Y-112344299D01*
X164156066Y-112334446D01*
X164149760Y-112323925D01*
X164144515Y-112312835D01*
X164140382Y-112301286D01*
X164137402Y-112289386D01*
X164135602Y-112277252D01*
X164135000Y-112265000D01*
X164135000Y-112015000D01*
X164135602Y-112002748D01*
X164137402Y-111990614D01*
X164140382Y-111978714D01*
X164144515Y-111967165D01*
X164149760Y-111956075D01*
X164156066Y-111945554D01*
X164163374Y-111935701D01*
X164171612Y-111926612D01*
X164180701Y-111918374D01*
X164190554Y-111911066D01*
X164201075Y-111904760D01*
X164212165Y-111899515D01*
X164223714Y-111895382D01*
X164235614Y-111892402D01*
X164247748Y-111890602D01*
X164260000Y-111890000D01*
X165510000Y-111890000D01*
X165522252Y-111890602D01*
X165522252Y-111890602D01*
G37*
D26*
X164885000Y-112140000D03*
D12*
G36*
X177727691Y-112976053D02*
G01*
X177748926Y-112979203D01*
X177769750Y-112984419D01*
X177789962Y-112991651D01*
X177809368Y-113000830D01*
X177827781Y-113011866D01*
X177845024Y-113024654D01*
X177860930Y-113039070D01*
X177875346Y-113054976D01*
X177888134Y-113072219D01*
X177899170Y-113090632D01*
X177908349Y-113110038D01*
X177915581Y-113130250D01*
X177920797Y-113151074D01*
X177923947Y-113172309D01*
X177925000Y-113193750D01*
X177925000Y-113706250D01*
X177923947Y-113727691D01*
X177920797Y-113748926D01*
X177915581Y-113769750D01*
X177908349Y-113789962D01*
X177899170Y-113809368D01*
X177888134Y-113827781D01*
X177875346Y-113845024D01*
X177860930Y-113860930D01*
X177845024Y-113875346D01*
X177827781Y-113888134D01*
X177809368Y-113899170D01*
X177789962Y-113908349D01*
X177769750Y-113915581D01*
X177748926Y-113920797D01*
X177727691Y-113923947D01*
X177706250Y-113925000D01*
X177268750Y-113925000D01*
X177247309Y-113923947D01*
X177226074Y-113920797D01*
X177205250Y-113915581D01*
X177185038Y-113908349D01*
X177165632Y-113899170D01*
X177147219Y-113888134D01*
X177129976Y-113875346D01*
X177114070Y-113860930D01*
X177099654Y-113845024D01*
X177086866Y-113827781D01*
X177075830Y-113809368D01*
X177066651Y-113789962D01*
X177059419Y-113769750D01*
X177054203Y-113748926D01*
X177051053Y-113727691D01*
X177050000Y-113706250D01*
X177050000Y-113193750D01*
X177051053Y-113172309D01*
X177054203Y-113151074D01*
X177059419Y-113130250D01*
X177066651Y-113110038D01*
X177075830Y-113090632D01*
X177086866Y-113072219D01*
X177099654Y-113054976D01*
X177114070Y-113039070D01*
X177129976Y-113024654D01*
X177147219Y-113011866D01*
X177165632Y-113000830D01*
X177185038Y-112991651D01*
X177205250Y-112984419D01*
X177226074Y-112979203D01*
X177247309Y-112976053D01*
X177268750Y-112975000D01*
X177706250Y-112975000D01*
X177727691Y-112976053D01*
X177727691Y-112976053D01*
G37*
D16*
X177487500Y-113450000D03*
D12*
G36*
X176152691Y-112976053D02*
G01*
X176173926Y-112979203D01*
X176194750Y-112984419D01*
X176214962Y-112991651D01*
X176234368Y-113000830D01*
X176252781Y-113011866D01*
X176270024Y-113024654D01*
X176285930Y-113039070D01*
X176300346Y-113054976D01*
X176313134Y-113072219D01*
X176324170Y-113090632D01*
X176333349Y-113110038D01*
X176340581Y-113130250D01*
X176345797Y-113151074D01*
X176348947Y-113172309D01*
X176350000Y-113193750D01*
X176350000Y-113706250D01*
X176348947Y-113727691D01*
X176345797Y-113748926D01*
X176340581Y-113769750D01*
X176333349Y-113789962D01*
X176324170Y-113809368D01*
X176313134Y-113827781D01*
X176300346Y-113845024D01*
X176285930Y-113860930D01*
X176270024Y-113875346D01*
X176252781Y-113888134D01*
X176234368Y-113899170D01*
X176214962Y-113908349D01*
X176194750Y-113915581D01*
X176173926Y-113920797D01*
X176152691Y-113923947D01*
X176131250Y-113925000D01*
X175693750Y-113925000D01*
X175672309Y-113923947D01*
X175651074Y-113920797D01*
X175630250Y-113915581D01*
X175610038Y-113908349D01*
X175590632Y-113899170D01*
X175572219Y-113888134D01*
X175554976Y-113875346D01*
X175539070Y-113860930D01*
X175524654Y-113845024D01*
X175511866Y-113827781D01*
X175500830Y-113809368D01*
X175491651Y-113789962D01*
X175484419Y-113769750D01*
X175479203Y-113748926D01*
X175476053Y-113727691D01*
X175475000Y-113706250D01*
X175475000Y-113193750D01*
X175476053Y-113172309D01*
X175479203Y-113151074D01*
X175484419Y-113130250D01*
X175491651Y-113110038D01*
X175500830Y-113090632D01*
X175511866Y-113072219D01*
X175524654Y-113054976D01*
X175539070Y-113039070D01*
X175554976Y-113024654D01*
X175572219Y-113011866D01*
X175590632Y-113000830D01*
X175610038Y-112991651D01*
X175630250Y-112984419D01*
X175651074Y-112979203D01*
X175672309Y-112976053D01*
X175693750Y-112975000D01*
X176131250Y-112975000D01*
X176152691Y-112976053D01*
X176152691Y-112976053D01*
G37*
D16*
X175912500Y-113450000D03*
D12*
G36*
X147287691Y-106621053D02*
G01*
X147308926Y-106624203D01*
X147329750Y-106629419D01*
X147349962Y-106636651D01*
X147369368Y-106645830D01*
X147387781Y-106656866D01*
X147405024Y-106669654D01*
X147420930Y-106684070D01*
X147435346Y-106699976D01*
X147448134Y-106717219D01*
X147459170Y-106735632D01*
X147468349Y-106755038D01*
X147475581Y-106775250D01*
X147480797Y-106796074D01*
X147483947Y-106817309D01*
X147485000Y-106838750D01*
X147485000Y-107276250D01*
X147483947Y-107297691D01*
X147480797Y-107318926D01*
X147475581Y-107339750D01*
X147468349Y-107359962D01*
X147459170Y-107379368D01*
X147448134Y-107397781D01*
X147435346Y-107415024D01*
X147420930Y-107430930D01*
X147405024Y-107445346D01*
X147387781Y-107458134D01*
X147369368Y-107469170D01*
X147349962Y-107478349D01*
X147329750Y-107485581D01*
X147308926Y-107490797D01*
X147287691Y-107493947D01*
X147266250Y-107495000D01*
X146753750Y-107495000D01*
X146732309Y-107493947D01*
X146711074Y-107490797D01*
X146690250Y-107485581D01*
X146670038Y-107478349D01*
X146650632Y-107469170D01*
X146632219Y-107458134D01*
X146614976Y-107445346D01*
X146599070Y-107430930D01*
X146584654Y-107415024D01*
X146571866Y-107397781D01*
X146560830Y-107379368D01*
X146551651Y-107359962D01*
X146544419Y-107339750D01*
X146539203Y-107318926D01*
X146536053Y-107297691D01*
X146535000Y-107276250D01*
X146535000Y-106838750D01*
X146536053Y-106817309D01*
X146539203Y-106796074D01*
X146544419Y-106775250D01*
X146551651Y-106755038D01*
X146560830Y-106735632D01*
X146571866Y-106717219D01*
X146584654Y-106699976D01*
X146599070Y-106684070D01*
X146614976Y-106669654D01*
X146632219Y-106656866D01*
X146650632Y-106645830D01*
X146670038Y-106636651D01*
X146690250Y-106629419D01*
X146711074Y-106624203D01*
X146732309Y-106621053D01*
X146753750Y-106620000D01*
X147266250Y-106620000D01*
X147287691Y-106621053D01*
X147287691Y-106621053D01*
G37*
D16*
X147010000Y-107057500D03*
D12*
G36*
X147287691Y-105046053D02*
G01*
X147308926Y-105049203D01*
X147329750Y-105054419D01*
X147349962Y-105061651D01*
X147369368Y-105070830D01*
X147387781Y-105081866D01*
X147405024Y-105094654D01*
X147420930Y-105109070D01*
X147435346Y-105124976D01*
X147448134Y-105142219D01*
X147459170Y-105160632D01*
X147468349Y-105180038D01*
X147475581Y-105200250D01*
X147480797Y-105221074D01*
X147483947Y-105242309D01*
X147485000Y-105263750D01*
X147485000Y-105701250D01*
X147483947Y-105722691D01*
X147480797Y-105743926D01*
X147475581Y-105764750D01*
X147468349Y-105784962D01*
X147459170Y-105804368D01*
X147448134Y-105822781D01*
X147435346Y-105840024D01*
X147420930Y-105855930D01*
X147405024Y-105870346D01*
X147387781Y-105883134D01*
X147369368Y-105894170D01*
X147349962Y-105903349D01*
X147329750Y-105910581D01*
X147308926Y-105915797D01*
X147287691Y-105918947D01*
X147266250Y-105920000D01*
X146753750Y-105920000D01*
X146732309Y-105918947D01*
X146711074Y-105915797D01*
X146690250Y-105910581D01*
X146670038Y-105903349D01*
X146650632Y-105894170D01*
X146632219Y-105883134D01*
X146614976Y-105870346D01*
X146599070Y-105855930D01*
X146584654Y-105840024D01*
X146571866Y-105822781D01*
X146560830Y-105804368D01*
X146551651Y-105784962D01*
X146544419Y-105764750D01*
X146539203Y-105743926D01*
X146536053Y-105722691D01*
X146535000Y-105701250D01*
X146535000Y-105263750D01*
X146536053Y-105242309D01*
X146539203Y-105221074D01*
X146544419Y-105200250D01*
X146551651Y-105180038D01*
X146560830Y-105160632D01*
X146571866Y-105142219D01*
X146584654Y-105124976D01*
X146599070Y-105109070D01*
X146614976Y-105094654D01*
X146632219Y-105081866D01*
X146650632Y-105070830D01*
X146670038Y-105061651D01*
X146690250Y-105054419D01*
X146711074Y-105049203D01*
X146732309Y-105046053D01*
X146753750Y-105045000D01*
X147266250Y-105045000D01*
X147287691Y-105046053D01*
X147287691Y-105046053D01*
G37*
D16*
X147010000Y-105482500D03*
D12*
G36*
X145542691Y-117746053D02*
G01*
X145563926Y-117749203D01*
X145584750Y-117754419D01*
X145604962Y-117761651D01*
X145624368Y-117770830D01*
X145642781Y-117781866D01*
X145660024Y-117794654D01*
X145675930Y-117809070D01*
X145690346Y-117824976D01*
X145703134Y-117842219D01*
X145714170Y-117860632D01*
X145723349Y-117880038D01*
X145730581Y-117900250D01*
X145735797Y-117921074D01*
X145738947Y-117942309D01*
X145740000Y-117963750D01*
X145740000Y-118476250D01*
X145738947Y-118497691D01*
X145735797Y-118518926D01*
X145730581Y-118539750D01*
X145723349Y-118559962D01*
X145714170Y-118579368D01*
X145703134Y-118597781D01*
X145690346Y-118615024D01*
X145675930Y-118630930D01*
X145660024Y-118645346D01*
X145642781Y-118658134D01*
X145624368Y-118669170D01*
X145604962Y-118678349D01*
X145584750Y-118685581D01*
X145563926Y-118690797D01*
X145542691Y-118693947D01*
X145521250Y-118695000D01*
X145083750Y-118695000D01*
X145062309Y-118693947D01*
X145041074Y-118690797D01*
X145020250Y-118685581D01*
X145000038Y-118678349D01*
X144980632Y-118669170D01*
X144962219Y-118658134D01*
X144944976Y-118645346D01*
X144929070Y-118630930D01*
X144914654Y-118615024D01*
X144901866Y-118597781D01*
X144890830Y-118579368D01*
X144881651Y-118559962D01*
X144874419Y-118539750D01*
X144869203Y-118518926D01*
X144866053Y-118497691D01*
X144865000Y-118476250D01*
X144865000Y-117963750D01*
X144866053Y-117942309D01*
X144869203Y-117921074D01*
X144874419Y-117900250D01*
X144881651Y-117880038D01*
X144890830Y-117860632D01*
X144901866Y-117842219D01*
X144914654Y-117824976D01*
X144929070Y-117809070D01*
X144944976Y-117794654D01*
X144962219Y-117781866D01*
X144980632Y-117770830D01*
X145000038Y-117761651D01*
X145020250Y-117754419D01*
X145041074Y-117749203D01*
X145062309Y-117746053D01*
X145083750Y-117745000D01*
X145521250Y-117745000D01*
X145542691Y-117746053D01*
X145542691Y-117746053D01*
G37*
D16*
X145302500Y-118220000D03*
D12*
G36*
X147117691Y-117746053D02*
G01*
X147138926Y-117749203D01*
X147159750Y-117754419D01*
X147179962Y-117761651D01*
X147199368Y-117770830D01*
X147217781Y-117781866D01*
X147235024Y-117794654D01*
X147250930Y-117809070D01*
X147265346Y-117824976D01*
X147278134Y-117842219D01*
X147289170Y-117860632D01*
X147298349Y-117880038D01*
X147305581Y-117900250D01*
X147310797Y-117921074D01*
X147313947Y-117942309D01*
X147315000Y-117963750D01*
X147315000Y-118476250D01*
X147313947Y-118497691D01*
X147310797Y-118518926D01*
X147305581Y-118539750D01*
X147298349Y-118559962D01*
X147289170Y-118579368D01*
X147278134Y-118597781D01*
X147265346Y-118615024D01*
X147250930Y-118630930D01*
X147235024Y-118645346D01*
X147217781Y-118658134D01*
X147199368Y-118669170D01*
X147179962Y-118678349D01*
X147159750Y-118685581D01*
X147138926Y-118690797D01*
X147117691Y-118693947D01*
X147096250Y-118695000D01*
X146658750Y-118695000D01*
X146637309Y-118693947D01*
X146616074Y-118690797D01*
X146595250Y-118685581D01*
X146575038Y-118678349D01*
X146555632Y-118669170D01*
X146537219Y-118658134D01*
X146519976Y-118645346D01*
X146504070Y-118630930D01*
X146489654Y-118615024D01*
X146476866Y-118597781D01*
X146465830Y-118579368D01*
X146456651Y-118559962D01*
X146449419Y-118539750D01*
X146444203Y-118518926D01*
X146441053Y-118497691D01*
X146440000Y-118476250D01*
X146440000Y-117963750D01*
X146441053Y-117942309D01*
X146444203Y-117921074D01*
X146449419Y-117900250D01*
X146456651Y-117880038D01*
X146465830Y-117860632D01*
X146476866Y-117842219D01*
X146489654Y-117824976D01*
X146504070Y-117809070D01*
X146519976Y-117794654D01*
X146537219Y-117781866D01*
X146555632Y-117770830D01*
X146575038Y-117761651D01*
X146595250Y-117754419D01*
X146616074Y-117749203D01*
X146637309Y-117746053D01*
X146658750Y-117745000D01*
X147096250Y-117745000D01*
X147117691Y-117746053D01*
X147117691Y-117746053D01*
G37*
D16*
X146877500Y-118220000D03*
D12*
G36*
X144367691Y-123046053D02*
G01*
X144388926Y-123049203D01*
X144409750Y-123054419D01*
X144429962Y-123061651D01*
X144449368Y-123070830D01*
X144467781Y-123081866D01*
X144485024Y-123094654D01*
X144500930Y-123109070D01*
X144515346Y-123124976D01*
X144528134Y-123142219D01*
X144539170Y-123160632D01*
X144548349Y-123180038D01*
X144555581Y-123200250D01*
X144560797Y-123221074D01*
X144563947Y-123242309D01*
X144565000Y-123263750D01*
X144565000Y-123701250D01*
X144563947Y-123722691D01*
X144560797Y-123743926D01*
X144555581Y-123764750D01*
X144548349Y-123784962D01*
X144539170Y-123804368D01*
X144528134Y-123822781D01*
X144515346Y-123840024D01*
X144500930Y-123855930D01*
X144485024Y-123870346D01*
X144467781Y-123883134D01*
X144449368Y-123894170D01*
X144429962Y-123903349D01*
X144409750Y-123910581D01*
X144388926Y-123915797D01*
X144367691Y-123918947D01*
X144346250Y-123920000D01*
X143833750Y-123920000D01*
X143812309Y-123918947D01*
X143791074Y-123915797D01*
X143770250Y-123910581D01*
X143750038Y-123903349D01*
X143730632Y-123894170D01*
X143712219Y-123883134D01*
X143694976Y-123870346D01*
X143679070Y-123855930D01*
X143664654Y-123840024D01*
X143651866Y-123822781D01*
X143640830Y-123804368D01*
X143631651Y-123784962D01*
X143624419Y-123764750D01*
X143619203Y-123743926D01*
X143616053Y-123722691D01*
X143615000Y-123701250D01*
X143615000Y-123263750D01*
X143616053Y-123242309D01*
X143619203Y-123221074D01*
X143624419Y-123200250D01*
X143631651Y-123180038D01*
X143640830Y-123160632D01*
X143651866Y-123142219D01*
X143664654Y-123124976D01*
X143679070Y-123109070D01*
X143694976Y-123094654D01*
X143712219Y-123081866D01*
X143730632Y-123070830D01*
X143750038Y-123061651D01*
X143770250Y-123054419D01*
X143791074Y-123049203D01*
X143812309Y-123046053D01*
X143833750Y-123045000D01*
X144346250Y-123045000D01*
X144367691Y-123046053D01*
X144367691Y-123046053D01*
G37*
D16*
X144090000Y-123482500D03*
D12*
G36*
X144367691Y-124621053D02*
G01*
X144388926Y-124624203D01*
X144409750Y-124629419D01*
X144429962Y-124636651D01*
X144449368Y-124645830D01*
X144467781Y-124656866D01*
X144485024Y-124669654D01*
X144500930Y-124684070D01*
X144515346Y-124699976D01*
X144528134Y-124717219D01*
X144539170Y-124735632D01*
X144548349Y-124755038D01*
X144555581Y-124775250D01*
X144560797Y-124796074D01*
X144563947Y-124817309D01*
X144565000Y-124838750D01*
X144565000Y-125276250D01*
X144563947Y-125297691D01*
X144560797Y-125318926D01*
X144555581Y-125339750D01*
X144548349Y-125359962D01*
X144539170Y-125379368D01*
X144528134Y-125397781D01*
X144515346Y-125415024D01*
X144500930Y-125430930D01*
X144485024Y-125445346D01*
X144467781Y-125458134D01*
X144449368Y-125469170D01*
X144429962Y-125478349D01*
X144409750Y-125485581D01*
X144388926Y-125490797D01*
X144367691Y-125493947D01*
X144346250Y-125495000D01*
X143833750Y-125495000D01*
X143812309Y-125493947D01*
X143791074Y-125490797D01*
X143770250Y-125485581D01*
X143750038Y-125478349D01*
X143730632Y-125469170D01*
X143712219Y-125458134D01*
X143694976Y-125445346D01*
X143679070Y-125430930D01*
X143664654Y-125415024D01*
X143651866Y-125397781D01*
X143640830Y-125379368D01*
X143631651Y-125359962D01*
X143624419Y-125339750D01*
X143619203Y-125318926D01*
X143616053Y-125297691D01*
X143615000Y-125276250D01*
X143615000Y-124838750D01*
X143616053Y-124817309D01*
X143619203Y-124796074D01*
X143624419Y-124775250D01*
X143631651Y-124755038D01*
X143640830Y-124735632D01*
X143651866Y-124717219D01*
X143664654Y-124699976D01*
X143679070Y-124684070D01*
X143694976Y-124669654D01*
X143712219Y-124656866D01*
X143730632Y-124645830D01*
X143750038Y-124636651D01*
X143770250Y-124629419D01*
X143791074Y-124624203D01*
X143812309Y-124621053D01*
X143833750Y-124620000D01*
X144346250Y-124620000D01*
X144367691Y-124621053D01*
X144367691Y-124621053D01*
G37*
D16*
X144090000Y-125057500D03*
D12*
G36*
X150307691Y-106546053D02*
G01*
X150328926Y-106549203D01*
X150349750Y-106554419D01*
X150369962Y-106561651D01*
X150389368Y-106570830D01*
X150407781Y-106581866D01*
X150425024Y-106594654D01*
X150440930Y-106609070D01*
X150455346Y-106624976D01*
X150468134Y-106642219D01*
X150479170Y-106660632D01*
X150488349Y-106680038D01*
X150495581Y-106700250D01*
X150500797Y-106721074D01*
X150503947Y-106742309D01*
X150505000Y-106763750D01*
X150505000Y-107276250D01*
X150503947Y-107297691D01*
X150500797Y-107318926D01*
X150495581Y-107339750D01*
X150488349Y-107359962D01*
X150479170Y-107379368D01*
X150468134Y-107397781D01*
X150455346Y-107415024D01*
X150440930Y-107430930D01*
X150425024Y-107445346D01*
X150407781Y-107458134D01*
X150389368Y-107469170D01*
X150369962Y-107478349D01*
X150349750Y-107485581D01*
X150328926Y-107490797D01*
X150307691Y-107493947D01*
X150286250Y-107495000D01*
X149848750Y-107495000D01*
X149827309Y-107493947D01*
X149806074Y-107490797D01*
X149785250Y-107485581D01*
X149765038Y-107478349D01*
X149745632Y-107469170D01*
X149727219Y-107458134D01*
X149709976Y-107445346D01*
X149694070Y-107430930D01*
X149679654Y-107415024D01*
X149666866Y-107397781D01*
X149655830Y-107379368D01*
X149646651Y-107359962D01*
X149639419Y-107339750D01*
X149634203Y-107318926D01*
X149631053Y-107297691D01*
X149630000Y-107276250D01*
X149630000Y-106763750D01*
X149631053Y-106742309D01*
X149634203Y-106721074D01*
X149639419Y-106700250D01*
X149646651Y-106680038D01*
X149655830Y-106660632D01*
X149666866Y-106642219D01*
X149679654Y-106624976D01*
X149694070Y-106609070D01*
X149709976Y-106594654D01*
X149727219Y-106581866D01*
X149745632Y-106570830D01*
X149765038Y-106561651D01*
X149785250Y-106554419D01*
X149806074Y-106549203D01*
X149827309Y-106546053D01*
X149848750Y-106545000D01*
X150286250Y-106545000D01*
X150307691Y-106546053D01*
X150307691Y-106546053D01*
G37*
D16*
X150067500Y-107020000D03*
D12*
G36*
X148732691Y-106546053D02*
G01*
X148753926Y-106549203D01*
X148774750Y-106554419D01*
X148794962Y-106561651D01*
X148814368Y-106570830D01*
X148832781Y-106581866D01*
X148850024Y-106594654D01*
X148865930Y-106609070D01*
X148880346Y-106624976D01*
X148893134Y-106642219D01*
X148904170Y-106660632D01*
X148913349Y-106680038D01*
X148920581Y-106700250D01*
X148925797Y-106721074D01*
X148928947Y-106742309D01*
X148930000Y-106763750D01*
X148930000Y-107276250D01*
X148928947Y-107297691D01*
X148925797Y-107318926D01*
X148920581Y-107339750D01*
X148913349Y-107359962D01*
X148904170Y-107379368D01*
X148893134Y-107397781D01*
X148880346Y-107415024D01*
X148865930Y-107430930D01*
X148850024Y-107445346D01*
X148832781Y-107458134D01*
X148814368Y-107469170D01*
X148794962Y-107478349D01*
X148774750Y-107485581D01*
X148753926Y-107490797D01*
X148732691Y-107493947D01*
X148711250Y-107495000D01*
X148273750Y-107495000D01*
X148252309Y-107493947D01*
X148231074Y-107490797D01*
X148210250Y-107485581D01*
X148190038Y-107478349D01*
X148170632Y-107469170D01*
X148152219Y-107458134D01*
X148134976Y-107445346D01*
X148119070Y-107430930D01*
X148104654Y-107415024D01*
X148091866Y-107397781D01*
X148080830Y-107379368D01*
X148071651Y-107359962D01*
X148064419Y-107339750D01*
X148059203Y-107318926D01*
X148056053Y-107297691D01*
X148055000Y-107276250D01*
X148055000Y-106763750D01*
X148056053Y-106742309D01*
X148059203Y-106721074D01*
X148064419Y-106700250D01*
X148071651Y-106680038D01*
X148080830Y-106660632D01*
X148091866Y-106642219D01*
X148104654Y-106624976D01*
X148119070Y-106609070D01*
X148134976Y-106594654D01*
X148152219Y-106581866D01*
X148170632Y-106570830D01*
X148190038Y-106561651D01*
X148210250Y-106554419D01*
X148231074Y-106549203D01*
X148252309Y-106546053D01*
X148273750Y-106545000D01*
X148711250Y-106545000D01*
X148732691Y-106546053D01*
X148732691Y-106546053D01*
G37*
D16*
X148492500Y-107020000D03*
D12*
G36*
X149697691Y-117776053D02*
G01*
X149718926Y-117779203D01*
X149739750Y-117784419D01*
X149759962Y-117791651D01*
X149779368Y-117800830D01*
X149797781Y-117811866D01*
X149815024Y-117824654D01*
X149830930Y-117839070D01*
X149845346Y-117854976D01*
X149858134Y-117872219D01*
X149869170Y-117890632D01*
X149878349Y-117910038D01*
X149885581Y-117930250D01*
X149890797Y-117951074D01*
X149893947Y-117972309D01*
X149895000Y-117993750D01*
X149895000Y-118431250D01*
X149893947Y-118452691D01*
X149890797Y-118473926D01*
X149885581Y-118494750D01*
X149878349Y-118514962D01*
X149869170Y-118534368D01*
X149858134Y-118552781D01*
X149845346Y-118570024D01*
X149830930Y-118585930D01*
X149815024Y-118600346D01*
X149797781Y-118613134D01*
X149779368Y-118624170D01*
X149759962Y-118633349D01*
X149739750Y-118640581D01*
X149718926Y-118645797D01*
X149697691Y-118648947D01*
X149676250Y-118650000D01*
X149163750Y-118650000D01*
X149142309Y-118648947D01*
X149121074Y-118645797D01*
X149100250Y-118640581D01*
X149080038Y-118633349D01*
X149060632Y-118624170D01*
X149042219Y-118613134D01*
X149024976Y-118600346D01*
X149009070Y-118585930D01*
X148994654Y-118570024D01*
X148981866Y-118552781D01*
X148970830Y-118534368D01*
X148961651Y-118514962D01*
X148954419Y-118494750D01*
X148949203Y-118473926D01*
X148946053Y-118452691D01*
X148945000Y-118431250D01*
X148945000Y-117993750D01*
X148946053Y-117972309D01*
X148949203Y-117951074D01*
X148954419Y-117930250D01*
X148961651Y-117910038D01*
X148970830Y-117890632D01*
X148981866Y-117872219D01*
X148994654Y-117854976D01*
X149009070Y-117839070D01*
X149024976Y-117824654D01*
X149042219Y-117811866D01*
X149060632Y-117800830D01*
X149080038Y-117791651D01*
X149100250Y-117784419D01*
X149121074Y-117779203D01*
X149142309Y-117776053D01*
X149163750Y-117775000D01*
X149676250Y-117775000D01*
X149697691Y-117776053D01*
X149697691Y-117776053D01*
G37*
D16*
X149420000Y-118212500D03*
D12*
G36*
X149697691Y-119351053D02*
G01*
X149718926Y-119354203D01*
X149739750Y-119359419D01*
X149759962Y-119366651D01*
X149779368Y-119375830D01*
X149797781Y-119386866D01*
X149815024Y-119399654D01*
X149830930Y-119414070D01*
X149845346Y-119429976D01*
X149858134Y-119447219D01*
X149869170Y-119465632D01*
X149878349Y-119485038D01*
X149885581Y-119505250D01*
X149890797Y-119526074D01*
X149893947Y-119547309D01*
X149895000Y-119568750D01*
X149895000Y-120006250D01*
X149893947Y-120027691D01*
X149890797Y-120048926D01*
X149885581Y-120069750D01*
X149878349Y-120089962D01*
X149869170Y-120109368D01*
X149858134Y-120127781D01*
X149845346Y-120145024D01*
X149830930Y-120160930D01*
X149815024Y-120175346D01*
X149797781Y-120188134D01*
X149779368Y-120199170D01*
X149759962Y-120208349D01*
X149739750Y-120215581D01*
X149718926Y-120220797D01*
X149697691Y-120223947D01*
X149676250Y-120225000D01*
X149163750Y-120225000D01*
X149142309Y-120223947D01*
X149121074Y-120220797D01*
X149100250Y-120215581D01*
X149080038Y-120208349D01*
X149060632Y-120199170D01*
X149042219Y-120188134D01*
X149024976Y-120175346D01*
X149009070Y-120160930D01*
X148994654Y-120145024D01*
X148981866Y-120127781D01*
X148970830Y-120109368D01*
X148961651Y-120089962D01*
X148954419Y-120069750D01*
X148949203Y-120048926D01*
X148946053Y-120027691D01*
X148945000Y-120006250D01*
X148945000Y-119568750D01*
X148946053Y-119547309D01*
X148949203Y-119526074D01*
X148954419Y-119505250D01*
X148961651Y-119485038D01*
X148970830Y-119465632D01*
X148981866Y-119447219D01*
X148994654Y-119429976D01*
X149009070Y-119414070D01*
X149024976Y-119399654D01*
X149042219Y-119386866D01*
X149060632Y-119375830D01*
X149080038Y-119366651D01*
X149100250Y-119359419D01*
X149121074Y-119354203D01*
X149142309Y-119351053D01*
X149163750Y-119350000D01*
X149676250Y-119350000D01*
X149697691Y-119351053D01*
X149697691Y-119351053D01*
G37*
D16*
X149420000Y-119787500D03*
D12*
G36*
X147117691Y-119556053D02*
G01*
X147138926Y-119559203D01*
X147159750Y-119564419D01*
X147179962Y-119571651D01*
X147199368Y-119580830D01*
X147217781Y-119591866D01*
X147235024Y-119604654D01*
X147250930Y-119619070D01*
X147265346Y-119634976D01*
X147278134Y-119652219D01*
X147289170Y-119670632D01*
X147298349Y-119690038D01*
X147305581Y-119710250D01*
X147310797Y-119731074D01*
X147313947Y-119752309D01*
X147315000Y-119773750D01*
X147315000Y-120286250D01*
X147313947Y-120307691D01*
X147310797Y-120328926D01*
X147305581Y-120349750D01*
X147298349Y-120369962D01*
X147289170Y-120389368D01*
X147278134Y-120407781D01*
X147265346Y-120425024D01*
X147250930Y-120440930D01*
X147235024Y-120455346D01*
X147217781Y-120468134D01*
X147199368Y-120479170D01*
X147179962Y-120488349D01*
X147159750Y-120495581D01*
X147138926Y-120500797D01*
X147117691Y-120503947D01*
X147096250Y-120505000D01*
X146658750Y-120505000D01*
X146637309Y-120503947D01*
X146616074Y-120500797D01*
X146595250Y-120495581D01*
X146575038Y-120488349D01*
X146555632Y-120479170D01*
X146537219Y-120468134D01*
X146519976Y-120455346D01*
X146504070Y-120440930D01*
X146489654Y-120425024D01*
X146476866Y-120407781D01*
X146465830Y-120389368D01*
X146456651Y-120369962D01*
X146449419Y-120349750D01*
X146444203Y-120328926D01*
X146441053Y-120307691D01*
X146440000Y-120286250D01*
X146440000Y-119773750D01*
X146441053Y-119752309D01*
X146444203Y-119731074D01*
X146449419Y-119710250D01*
X146456651Y-119690038D01*
X146465830Y-119670632D01*
X146476866Y-119652219D01*
X146489654Y-119634976D01*
X146504070Y-119619070D01*
X146519976Y-119604654D01*
X146537219Y-119591866D01*
X146555632Y-119580830D01*
X146575038Y-119571651D01*
X146595250Y-119564419D01*
X146616074Y-119559203D01*
X146637309Y-119556053D01*
X146658750Y-119555000D01*
X147096250Y-119555000D01*
X147117691Y-119556053D01*
X147117691Y-119556053D01*
G37*
D16*
X146877500Y-120030000D03*
D12*
G36*
X145542691Y-119556053D02*
G01*
X145563926Y-119559203D01*
X145584750Y-119564419D01*
X145604962Y-119571651D01*
X145624368Y-119580830D01*
X145642781Y-119591866D01*
X145660024Y-119604654D01*
X145675930Y-119619070D01*
X145690346Y-119634976D01*
X145703134Y-119652219D01*
X145714170Y-119670632D01*
X145723349Y-119690038D01*
X145730581Y-119710250D01*
X145735797Y-119731074D01*
X145738947Y-119752309D01*
X145740000Y-119773750D01*
X145740000Y-120286250D01*
X145738947Y-120307691D01*
X145735797Y-120328926D01*
X145730581Y-120349750D01*
X145723349Y-120369962D01*
X145714170Y-120389368D01*
X145703134Y-120407781D01*
X145690346Y-120425024D01*
X145675930Y-120440930D01*
X145660024Y-120455346D01*
X145642781Y-120468134D01*
X145624368Y-120479170D01*
X145604962Y-120488349D01*
X145584750Y-120495581D01*
X145563926Y-120500797D01*
X145542691Y-120503947D01*
X145521250Y-120505000D01*
X145083750Y-120505000D01*
X145062309Y-120503947D01*
X145041074Y-120500797D01*
X145020250Y-120495581D01*
X145000038Y-120488349D01*
X144980632Y-120479170D01*
X144962219Y-120468134D01*
X144944976Y-120455346D01*
X144929070Y-120440930D01*
X144914654Y-120425024D01*
X144901866Y-120407781D01*
X144890830Y-120389368D01*
X144881651Y-120369962D01*
X144874419Y-120349750D01*
X144869203Y-120328926D01*
X144866053Y-120307691D01*
X144865000Y-120286250D01*
X144865000Y-119773750D01*
X144866053Y-119752309D01*
X144869203Y-119731074D01*
X144874419Y-119710250D01*
X144881651Y-119690038D01*
X144890830Y-119670632D01*
X144901866Y-119652219D01*
X144914654Y-119634976D01*
X144929070Y-119619070D01*
X144944976Y-119604654D01*
X144962219Y-119591866D01*
X144980632Y-119580830D01*
X145000038Y-119571651D01*
X145020250Y-119564419D01*
X145041074Y-119559203D01*
X145062309Y-119556053D01*
X145083750Y-119555000D01*
X145521250Y-119555000D01*
X145542691Y-119556053D01*
X145542691Y-119556053D01*
G37*
D16*
X145302500Y-120030000D03*
D12*
G36*
X168449504Y-124276204D02*
G01*
X168473773Y-124279804D01*
X168497571Y-124285765D01*
X168520671Y-124294030D01*
X168542849Y-124304520D01*
X168563893Y-124317133D01*
X168583598Y-124331747D01*
X168601777Y-124348223D01*
X168618253Y-124366402D01*
X168632867Y-124386107D01*
X168645480Y-124407151D01*
X168655970Y-124429329D01*
X168664235Y-124452429D01*
X168670196Y-124476227D01*
X168673796Y-124500496D01*
X168675000Y-124525000D01*
X168675000Y-125775000D01*
X168673796Y-125799504D01*
X168670196Y-125823773D01*
X168664235Y-125847571D01*
X168655970Y-125870671D01*
X168645480Y-125892849D01*
X168632867Y-125913893D01*
X168618253Y-125933598D01*
X168601777Y-125951777D01*
X168583598Y-125968253D01*
X168563893Y-125982867D01*
X168542849Y-125995480D01*
X168520671Y-126005970D01*
X168497571Y-126014235D01*
X168473773Y-126020196D01*
X168449504Y-126023796D01*
X168425000Y-126025000D01*
X167675000Y-126025000D01*
X167650496Y-126023796D01*
X167626227Y-126020196D01*
X167602429Y-126014235D01*
X167579329Y-126005970D01*
X167557151Y-125995480D01*
X167536107Y-125982867D01*
X167516402Y-125968253D01*
X167498223Y-125951777D01*
X167481747Y-125933598D01*
X167467133Y-125913893D01*
X167454520Y-125892849D01*
X167444030Y-125870671D01*
X167435765Y-125847571D01*
X167429804Y-125823773D01*
X167426204Y-125799504D01*
X167425000Y-125775000D01*
X167425000Y-124525000D01*
X167426204Y-124500496D01*
X167429804Y-124476227D01*
X167435765Y-124452429D01*
X167444030Y-124429329D01*
X167454520Y-124407151D01*
X167467133Y-124386107D01*
X167481747Y-124366402D01*
X167498223Y-124348223D01*
X167516402Y-124331747D01*
X167536107Y-124317133D01*
X167557151Y-124304520D01*
X167579329Y-124294030D01*
X167602429Y-124285765D01*
X167626227Y-124279804D01*
X167650496Y-124276204D01*
X167675000Y-124275000D01*
X168425000Y-124275000D01*
X168449504Y-124276204D01*
X168449504Y-124276204D01*
G37*
D27*
X168050000Y-125150000D03*
D12*
G36*
X171249504Y-124276204D02*
G01*
X171273773Y-124279804D01*
X171297571Y-124285765D01*
X171320671Y-124294030D01*
X171342849Y-124304520D01*
X171363893Y-124317133D01*
X171383598Y-124331747D01*
X171401777Y-124348223D01*
X171418253Y-124366402D01*
X171432867Y-124386107D01*
X171445480Y-124407151D01*
X171455970Y-124429329D01*
X171464235Y-124452429D01*
X171470196Y-124476227D01*
X171473796Y-124500496D01*
X171475000Y-124525000D01*
X171475000Y-125775000D01*
X171473796Y-125799504D01*
X171470196Y-125823773D01*
X171464235Y-125847571D01*
X171455970Y-125870671D01*
X171445480Y-125892849D01*
X171432867Y-125913893D01*
X171418253Y-125933598D01*
X171401777Y-125951777D01*
X171383598Y-125968253D01*
X171363893Y-125982867D01*
X171342849Y-125995480D01*
X171320671Y-126005970D01*
X171297571Y-126014235D01*
X171273773Y-126020196D01*
X171249504Y-126023796D01*
X171225000Y-126025000D01*
X170475000Y-126025000D01*
X170450496Y-126023796D01*
X170426227Y-126020196D01*
X170402429Y-126014235D01*
X170379329Y-126005970D01*
X170357151Y-125995480D01*
X170336107Y-125982867D01*
X170316402Y-125968253D01*
X170298223Y-125951777D01*
X170281747Y-125933598D01*
X170267133Y-125913893D01*
X170254520Y-125892849D01*
X170244030Y-125870671D01*
X170235765Y-125847571D01*
X170229804Y-125823773D01*
X170226204Y-125799504D01*
X170225000Y-125775000D01*
X170225000Y-124525000D01*
X170226204Y-124500496D01*
X170229804Y-124476227D01*
X170235765Y-124452429D01*
X170244030Y-124429329D01*
X170254520Y-124407151D01*
X170267133Y-124386107D01*
X170281747Y-124366402D01*
X170298223Y-124348223D01*
X170316402Y-124331747D01*
X170336107Y-124317133D01*
X170357151Y-124304520D01*
X170379329Y-124294030D01*
X170402429Y-124285765D01*
X170426227Y-124279804D01*
X170450496Y-124276204D01*
X170475000Y-124275000D01*
X171225000Y-124275000D01*
X171249504Y-124276204D01*
X171249504Y-124276204D01*
G37*
D27*
X170850000Y-125150000D03*
M02*
