G04 #@! TF.GenerationSoftware,KiCad,Pcbnew,5.1.4-1.fc30*
G04 #@! TF.CreationDate,2020-03-29T15:47:08+02:00*
G04 #@! TF.ProjectId,venom,76656e6f-6d2e-46b6-9963-61645f706362,rev?*
G04 #@! TF.SameCoordinates,Original*
G04 #@! TF.FileFunction,Paste,Bot*
G04 #@! TF.FilePolarity,Positive*
%FSLAX46Y46*%
G04 Gerber Fmt 4.6, Leading zero omitted, Abs format (unit mm)*
G04 Created by KiCad (PCBNEW 5.1.4-1.fc30) date 2020-03-29 15:47:08*
%MOMM*%
%LPD*%
G04 APERTURE LIST*
%ADD10R,1.200000X1.200000*%
%ADD11C,0.100000*%
%ADD12C,0.875000*%
%ADD13R,0.900000X1.200000*%
%ADD14C,0.970000*%
%ADD15C,0.600000*%
G04 APERTURE END LIST*
D10*
X149000000Y-133550000D03*
X149000000Y-135600000D03*
X146850000Y-133500000D03*
X146900000Y-135700000D03*
X149000000Y-137600000D03*
D11*
G36*
X148502691Y-117606053D02*
G01*
X148523926Y-117609203D01*
X148544750Y-117614419D01*
X148564962Y-117621651D01*
X148584368Y-117630830D01*
X148602781Y-117641866D01*
X148620024Y-117654654D01*
X148635930Y-117669070D01*
X148650346Y-117684976D01*
X148663134Y-117702219D01*
X148674170Y-117720632D01*
X148683349Y-117740038D01*
X148690581Y-117760250D01*
X148695797Y-117781074D01*
X148698947Y-117802309D01*
X148700000Y-117823750D01*
X148700000Y-118336250D01*
X148698947Y-118357691D01*
X148695797Y-118378926D01*
X148690581Y-118399750D01*
X148683349Y-118419962D01*
X148674170Y-118439368D01*
X148663134Y-118457781D01*
X148650346Y-118475024D01*
X148635930Y-118490930D01*
X148620024Y-118505346D01*
X148602781Y-118518134D01*
X148584368Y-118529170D01*
X148564962Y-118538349D01*
X148544750Y-118545581D01*
X148523926Y-118550797D01*
X148502691Y-118553947D01*
X148481250Y-118555000D01*
X148043750Y-118555000D01*
X148022309Y-118553947D01*
X148001074Y-118550797D01*
X147980250Y-118545581D01*
X147960038Y-118538349D01*
X147940632Y-118529170D01*
X147922219Y-118518134D01*
X147904976Y-118505346D01*
X147889070Y-118490930D01*
X147874654Y-118475024D01*
X147861866Y-118457781D01*
X147850830Y-118439368D01*
X147841651Y-118419962D01*
X147834419Y-118399750D01*
X147829203Y-118378926D01*
X147826053Y-118357691D01*
X147825000Y-118336250D01*
X147825000Y-117823750D01*
X147826053Y-117802309D01*
X147829203Y-117781074D01*
X147834419Y-117760250D01*
X147841651Y-117740038D01*
X147850830Y-117720632D01*
X147861866Y-117702219D01*
X147874654Y-117684976D01*
X147889070Y-117669070D01*
X147904976Y-117654654D01*
X147922219Y-117641866D01*
X147940632Y-117630830D01*
X147960038Y-117621651D01*
X147980250Y-117614419D01*
X148001074Y-117609203D01*
X148022309Y-117606053D01*
X148043750Y-117605000D01*
X148481250Y-117605000D01*
X148502691Y-117606053D01*
X148502691Y-117606053D01*
G37*
D12*
X148262500Y-118080000D03*
D11*
G36*
X150077691Y-117606053D02*
G01*
X150098926Y-117609203D01*
X150119750Y-117614419D01*
X150139962Y-117621651D01*
X150159368Y-117630830D01*
X150177781Y-117641866D01*
X150195024Y-117654654D01*
X150210930Y-117669070D01*
X150225346Y-117684976D01*
X150238134Y-117702219D01*
X150249170Y-117720632D01*
X150258349Y-117740038D01*
X150265581Y-117760250D01*
X150270797Y-117781074D01*
X150273947Y-117802309D01*
X150275000Y-117823750D01*
X150275000Y-118336250D01*
X150273947Y-118357691D01*
X150270797Y-118378926D01*
X150265581Y-118399750D01*
X150258349Y-118419962D01*
X150249170Y-118439368D01*
X150238134Y-118457781D01*
X150225346Y-118475024D01*
X150210930Y-118490930D01*
X150195024Y-118505346D01*
X150177781Y-118518134D01*
X150159368Y-118529170D01*
X150139962Y-118538349D01*
X150119750Y-118545581D01*
X150098926Y-118550797D01*
X150077691Y-118553947D01*
X150056250Y-118555000D01*
X149618750Y-118555000D01*
X149597309Y-118553947D01*
X149576074Y-118550797D01*
X149555250Y-118545581D01*
X149535038Y-118538349D01*
X149515632Y-118529170D01*
X149497219Y-118518134D01*
X149479976Y-118505346D01*
X149464070Y-118490930D01*
X149449654Y-118475024D01*
X149436866Y-118457781D01*
X149425830Y-118439368D01*
X149416651Y-118419962D01*
X149409419Y-118399750D01*
X149404203Y-118378926D01*
X149401053Y-118357691D01*
X149400000Y-118336250D01*
X149400000Y-117823750D01*
X149401053Y-117802309D01*
X149404203Y-117781074D01*
X149409419Y-117760250D01*
X149416651Y-117740038D01*
X149425830Y-117720632D01*
X149436866Y-117702219D01*
X149449654Y-117684976D01*
X149464070Y-117669070D01*
X149479976Y-117654654D01*
X149497219Y-117641866D01*
X149515632Y-117630830D01*
X149535038Y-117621651D01*
X149555250Y-117614419D01*
X149576074Y-117609203D01*
X149597309Y-117606053D01*
X149618750Y-117605000D01*
X150056250Y-117605000D01*
X150077691Y-117606053D01*
X150077691Y-117606053D01*
G37*
D12*
X149837500Y-118080000D03*
D13*
X146540000Y-123070000D03*
X149840000Y-123070000D03*
X146540000Y-125450000D03*
X149840000Y-125450000D03*
X146550000Y-120560000D03*
X149850000Y-120560000D03*
D11*
G36*
X148277691Y-105671053D02*
G01*
X148298926Y-105674203D01*
X148319750Y-105679419D01*
X148339962Y-105686651D01*
X148359368Y-105695830D01*
X148377781Y-105706866D01*
X148395024Y-105719654D01*
X148410930Y-105734070D01*
X148425346Y-105749976D01*
X148438134Y-105767219D01*
X148449170Y-105785632D01*
X148458349Y-105805038D01*
X148465581Y-105825250D01*
X148470797Y-105846074D01*
X148473947Y-105867309D01*
X148475000Y-105888750D01*
X148475000Y-106326250D01*
X148473947Y-106347691D01*
X148470797Y-106368926D01*
X148465581Y-106389750D01*
X148458349Y-106409962D01*
X148449170Y-106429368D01*
X148438134Y-106447781D01*
X148425346Y-106465024D01*
X148410930Y-106480930D01*
X148395024Y-106495346D01*
X148377781Y-106508134D01*
X148359368Y-106519170D01*
X148339962Y-106528349D01*
X148319750Y-106535581D01*
X148298926Y-106540797D01*
X148277691Y-106543947D01*
X148256250Y-106545000D01*
X147743750Y-106545000D01*
X147722309Y-106543947D01*
X147701074Y-106540797D01*
X147680250Y-106535581D01*
X147660038Y-106528349D01*
X147640632Y-106519170D01*
X147622219Y-106508134D01*
X147604976Y-106495346D01*
X147589070Y-106480930D01*
X147574654Y-106465024D01*
X147561866Y-106447781D01*
X147550830Y-106429368D01*
X147541651Y-106409962D01*
X147534419Y-106389750D01*
X147529203Y-106368926D01*
X147526053Y-106347691D01*
X147525000Y-106326250D01*
X147525000Y-105888750D01*
X147526053Y-105867309D01*
X147529203Y-105846074D01*
X147534419Y-105825250D01*
X147541651Y-105805038D01*
X147550830Y-105785632D01*
X147561866Y-105767219D01*
X147574654Y-105749976D01*
X147589070Y-105734070D01*
X147604976Y-105719654D01*
X147622219Y-105706866D01*
X147640632Y-105695830D01*
X147660038Y-105686651D01*
X147680250Y-105679419D01*
X147701074Y-105674203D01*
X147722309Y-105671053D01*
X147743750Y-105670000D01*
X148256250Y-105670000D01*
X148277691Y-105671053D01*
X148277691Y-105671053D01*
G37*
D12*
X148000000Y-106107500D03*
D11*
G36*
X148277691Y-104096053D02*
G01*
X148298926Y-104099203D01*
X148319750Y-104104419D01*
X148339962Y-104111651D01*
X148359368Y-104120830D01*
X148377781Y-104131866D01*
X148395024Y-104144654D01*
X148410930Y-104159070D01*
X148425346Y-104174976D01*
X148438134Y-104192219D01*
X148449170Y-104210632D01*
X148458349Y-104230038D01*
X148465581Y-104250250D01*
X148470797Y-104271074D01*
X148473947Y-104292309D01*
X148475000Y-104313750D01*
X148475000Y-104751250D01*
X148473947Y-104772691D01*
X148470797Y-104793926D01*
X148465581Y-104814750D01*
X148458349Y-104834962D01*
X148449170Y-104854368D01*
X148438134Y-104872781D01*
X148425346Y-104890024D01*
X148410930Y-104905930D01*
X148395024Y-104920346D01*
X148377781Y-104933134D01*
X148359368Y-104944170D01*
X148339962Y-104953349D01*
X148319750Y-104960581D01*
X148298926Y-104965797D01*
X148277691Y-104968947D01*
X148256250Y-104970000D01*
X147743750Y-104970000D01*
X147722309Y-104968947D01*
X147701074Y-104965797D01*
X147680250Y-104960581D01*
X147660038Y-104953349D01*
X147640632Y-104944170D01*
X147622219Y-104933134D01*
X147604976Y-104920346D01*
X147589070Y-104905930D01*
X147574654Y-104890024D01*
X147561866Y-104872781D01*
X147550830Y-104854368D01*
X147541651Y-104834962D01*
X147534419Y-104814750D01*
X147529203Y-104793926D01*
X147526053Y-104772691D01*
X147525000Y-104751250D01*
X147525000Y-104313750D01*
X147526053Y-104292309D01*
X147529203Y-104271074D01*
X147534419Y-104250250D01*
X147541651Y-104230038D01*
X147550830Y-104210632D01*
X147561866Y-104192219D01*
X147574654Y-104174976D01*
X147589070Y-104159070D01*
X147604976Y-104144654D01*
X147622219Y-104131866D01*
X147640632Y-104120830D01*
X147660038Y-104111651D01*
X147680250Y-104104419D01*
X147701074Y-104099203D01*
X147722309Y-104096053D01*
X147743750Y-104095000D01*
X148256250Y-104095000D01*
X148277691Y-104096053D01*
X148277691Y-104096053D01*
G37*
D12*
X148000000Y-104532500D03*
D11*
G36*
X148277691Y-107156053D02*
G01*
X148298926Y-107159203D01*
X148319750Y-107164419D01*
X148339962Y-107171651D01*
X148359368Y-107180830D01*
X148377781Y-107191866D01*
X148395024Y-107204654D01*
X148410930Y-107219070D01*
X148425346Y-107234976D01*
X148438134Y-107252219D01*
X148449170Y-107270632D01*
X148458349Y-107290038D01*
X148465581Y-107310250D01*
X148470797Y-107331074D01*
X148473947Y-107352309D01*
X148475000Y-107373750D01*
X148475000Y-107811250D01*
X148473947Y-107832691D01*
X148470797Y-107853926D01*
X148465581Y-107874750D01*
X148458349Y-107894962D01*
X148449170Y-107914368D01*
X148438134Y-107932781D01*
X148425346Y-107950024D01*
X148410930Y-107965930D01*
X148395024Y-107980346D01*
X148377781Y-107993134D01*
X148359368Y-108004170D01*
X148339962Y-108013349D01*
X148319750Y-108020581D01*
X148298926Y-108025797D01*
X148277691Y-108028947D01*
X148256250Y-108030000D01*
X147743750Y-108030000D01*
X147722309Y-108028947D01*
X147701074Y-108025797D01*
X147680250Y-108020581D01*
X147660038Y-108013349D01*
X147640632Y-108004170D01*
X147622219Y-107993134D01*
X147604976Y-107980346D01*
X147589070Y-107965930D01*
X147574654Y-107950024D01*
X147561866Y-107932781D01*
X147550830Y-107914368D01*
X147541651Y-107894962D01*
X147534419Y-107874750D01*
X147529203Y-107853926D01*
X147526053Y-107832691D01*
X147525000Y-107811250D01*
X147525000Y-107373750D01*
X147526053Y-107352309D01*
X147529203Y-107331074D01*
X147534419Y-107310250D01*
X147541651Y-107290038D01*
X147550830Y-107270632D01*
X147561866Y-107252219D01*
X147574654Y-107234976D01*
X147589070Y-107219070D01*
X147604976Y-107204654D01*
X147622219Y-107191866D01*
X147640632Y-107180830D01*
X147660038Y-107171651D01*
X147680250Y-107164419D01*
X147701074Y-107159203D01*
X147722309Y-107156053D01*
X147743750Y-107155000D01*
X148256250Y-107155000D01*
X148277691Y-107156053D01*
X148277691Y-107156053D01*
G37*
D12*
X148000000Y-107592500D03*
D11*
G36*
X148277691Y-108731053D02*
G01*
X148298926Y-108734203D01*
X148319750Y-108739419D01*
X148339962Y-108746651D01*
X148359368Y-108755830D01*
X148377781Y-108766866D01*
X148395024Y-108779654D01*
X148410930Y-108794070D01*
X148425346Y-108809976D01*
X148438134Y-108827219D01*
X148449170Y-108845632D01*
X148458349Y-108865038D01*
X148465581Y-108885250D01*
X148470797Y-108906074D01*
X148473947Y-108927309D01*
X148475000Y-108948750D01*
X148475000Y-109386250D01*
X148473947Y-109407691D01*
X148470797Y-109428926D01*
X148465581Y-109449750D01*
X148458349Y-109469962D01*
X148449170Y-109489368D01*
X148438134Y-109507781D01*
X148425346Y-109525024D01*
X148410930Y-109540930D01*
X148395024Y-109555346D01*
X148377781Y-109568134D01*
X148359368Y-109579170D01*
X148339962Y-109588349D01*
X148319750Y-109595581D01*
X148298926Y-109600797D01*
X148277691Y-109603947D01*
X148256250Y-109605000D01*
X147743750Y-109605000D01*
X147722309Y-109603947D01*
X147701074Y-109600797D01*
X147680250Y-109595581D01*
X147660038Y-109588349D01*
X147640632Y-109579170D01*
X147622219Y-109568134D01*
X147604976Y-109555346D01*
X147589070Y-109540930D01*
X147574654Y-109525024D01*
X147561866Y-109507781D01*
X147550830Y-109489368D01*
X147541651Y-109469962D01*
X147534419Y-109449750D01*
X147529203Y-109428926D01*
X147526053Y-109407691D01*
X147525000Y-109386250D01*
X147525000Y-108948750D01*
X147526053Y-108927309D01*
X147529203Y-108906074D01*
X147534419Y-108885250D01*
X147541651Y-108865038D01*
X147550830Y-108845632D01*
X147561866Y-108827219D01*
X147574654Y-108809976D01*
X147589070Y-108794070D01*
X147604976Y-108779654D01*
X147622219Y-108766866D01*
X147640632Y-108755830D01*
X147660038Y-108746651D01*
X147680250Y-108739419D01*
X147701074Y-108734203D01*
X147722309Y-108731053D01*
X147743750Y-108730000D01*
X148256250Y-108730000D01*
X148277691Y-108731053D01*
X148277691Y-108731053D01*
G37*
D12*
X148000000Y-109167500D03*
D11*
G36*
X175617691Y-108896053D02*
G01*
X175638926Y-108899203D01*
X175659750Y-108904419D01*
X175679962Y-108911651D01*
X175699368Y-108920830D01*
X175717781Y-108931866D01*
X175735024Y-108944654D01*
X175750930Y-108959070D01*
X175765346Y-108974976D01*
X175778134Y-108992219D01*
X175789170Y-109010632D01*
X175798349Y-109030038D01*
X175805581Y-109050250D01*
X175810797Y-109071074D01*
X175813947Y-109092309D01*
X175815000Y-109113750D01*
X175815000Y-109551250D01*
X175813947Y-109572691D01*
X175810797Y-109593926D01*
X175805581Y-109614750D01*
X175798349Y-109634962D01*
X175789170Y-109654368D01*
X175778134Y-109672781D01*
X175765346Y-109690024D01*
X175750930Y-109705930D01*
X175735024Y-109720346D01*
X175717781Y-109733134D01*
X175699368Y-109744170D01*
X175679962Y-109753349D01*
X175659750Y-109760581D01*
X175638926Y-109765797D01*
X175617691Y-109768947D01*
X175596250Y-109770000D01*
X175083750Y-109770000D01*
X175062309Y-109768947D01*
X175041074Y-109765797D01*
X175020250Y-109760581D01*
X175000038Y-109753349D01*
X174980632Y-109744170D01*
X174962219Y-109733134D01*
X174944976Y-109720346D01*
X174929070Y-109705930D01*
X174914654Y-109690024D01*
X174901866Y-109672781D01*
X174890830Y-109654368D01*
X174881651Y-109634962D01*
X174874419Y-109614750D01*
X174869203Y-109593926D01*
X174866053Y-109572691D01*
X174865000Y-109551250D01*
X174865000Y-109113750D01*
X174866053Y-109092309D01*
X174869203Y-109071074D01*
X174874419Y-109050250D01*
X174881651Y-109030038D01*
X174890830Y-109010632D01*
X174901866Y-108992219D01*
X174914654Y-108974976D01*
X174929070Y-108959070D01*
X174944976Y-108944654D01*
X174962219Y-108931866D01*
X174980632Y-108920830D01*
X175000038Y-108911651D01*
X175020250Y-108904419D01*
X175041074Y-108899203D01*
X175062309Y-108896053D01*
X175083750Y-108895000D01*
X175596250Y-108895000D01*
X175617691Y-108896053D01*
X175617691Y-108896053D01*
G37*
D12*
X175340000Y-109332500D03*
D11*
G36*
X175617691Y-110471053D02*
G01*
X175638926Y-110474203D01*
X175659750Y-110479419D01*
X175679962Y-110486651D01*
X175699368Y-110495830D01*
X175717781Y-110506866D01*
X175735024Y-110519654D01*
X175750930Y-110534070D01*
X175765346Y-110549976D01*
X175778134Y-110567219D01*
X175789170Y-110585632D01*
X175798349Y-110605038D01*
X175805581Y-110625250D01*
X175810797Y-110646074D01*
X175813947Y-110667309D01*
X175815000Y-110688750D01*
X175815000Y-111126250D01*
X175813947Y-111147691D01*
X175810797Y-111168926D01*
X175805581Y-111189750D01*
X175798349Y-111209962D01*
X175789170Y-111229368D01*
X175778134Y-111247781D01*
X175765346Y-111265024D01*
X175750930Y-111280930D01*
X175735024Y-111295346D01*
X175717781Y-111308134D01*
X175699368Y-111319170D01*
X175679962Y-111328349D01*
X175659750Y-111335581D01*
X175638926Y-111340797D01*
X175617691Y-111343947D01*
X175596250Y-111345000D01*
X175083750Y-111345000D01*
X175062309Y-111343947D01*
X175041074Y-111340797D01*
X175020250Y-111335581D01*
X175000038Y-111328349D01*
X174980632Y-111319170D01*
X174962219Y-111308134D01*
X174944976Y-111295346D01*
X174929070Y-111280930D01*
X174914654Y-111265024D01*
X174901866Y-111247781D01*
X174890830Y-111229368D01*
X174881651Y-111209962D01*
X174874419Y-111189750D01*
X174869203Y-111168926D01*
X174866053Y-111147691D01*
X174865000Y-111126250D01*
X174865000Y-110688750D01*
X174866053Y-110667309D01*
X174869203Y-110646074D01*
X174874419Y-110625250D01*
X174881651Y-110605038D01*
X174890830Y-110585632D01*
X174901866Y-110567219D01*
X174914654Y-110549976D01*
X174929070Y-110534070D01*
X174944976Y-110519654D01*
X174962219Y-110506866D01*
X174980632Y-110495830D01*
X175000038Y-110486651D01*
X175020250Y-110479419D01*
X175041074Y-110474203D01*
X175062309Y-110471053D01*
X175083750Y-110470000D01*
X175596250Y-110470000D01*
X175617691Y-110471053D01*
X175617691Y-110471053D01*
G37*
D12*
X175340000Y-110907500D03*
D11*
G36*
X177137691Y-110471053D02*
G01*
X177158926Y-110474203D01*
X177179750Y-110479419D01*
X177199962Y-110486651D01*
X177219368Y-110495830D01*
X177237781Y-110506866D01*
X177255024Y-110519654D01*
X177270930Y-110534070D01*
X177285346Y-110549976D01*
X177298134Y-110567219D01*
X177309170Y-110585632D01*
X177318349Y-110605038D01*
X177325581Y-110625250D01*
X177330797Y-110646074D01*
X177333947Y-110667309D01*
X177335000Y-110688750D01*
X177335000Y-111126250D01*
X177333947Y-111147691D01*
X177330797Y-111168926D01*
X177325581Y-111189750D01*
X177318349Y-111209962D01*
X177309170Y-111229368D01*
X177298134Y-111247781D01*
X177285346Y-111265024D01*
X177270930Y-111280930D01*
X177255024Y-111295346D01*
X177237781Y-111308134D01*
X177219368Y-111319170D01*
X177199962Y-111328349D01*
X177179750Y-111335581D01*
X177158926Y-111340797D01*
X177137691Y-111343947D01*
X177116250Y-111345000D01*
X176603750Y-111345000D01*
X176582309Y-111343947D01*
X176561074Y-111340797D01*
X176540250Y-111335581D01*
X176520038Y-111328349D01*
X176500632Y-111319170D01*
X176482219Y-111308134D01*
X176464976Y-111295346D01*
X176449070Y-111280930D01*
X176434654Y-111265024D01*
X176421866Y-111247781D01*
X176410830Y-111229368D01*
X176401651Y-111209962D01*
X176394419Y-111189750D01*
X176389203Y-111168926D01*
X176386053Y-111147691D01*
X176385000Y-111126250D01*
X176385000Y-110688750D01*
X176386053Y-110667309D01*
X176389203Y-110646074D01*
X176394419Y-110625250D01*
X176401651Y-110605038D01*
X176410830Y-110585632D01*
X176421866Y-110567219D01*
X176434654Y-110549976D01*
X176449070Y-110534070D01*
X176464976Y-110519654D01*
X176482219Y-110506866D01*
X176500632Y-110495830D01*
X176520038Y-110486651D01*
X176540250Y-110479419D01*
X176561074Y-110474203D01*
X176582309Y-110471053D01*
X176603750Y-110470000D01*
X177116250Y-110470000D01*
X177137691Y-110471053D01*
X177137691Y-110471053D01*
G37*
D12*
X176860000Y-110907500D03*
D11*
G36*
X177137691Y-108896053D02*
G01*
X177158926Y-108899203D01*
X177179750Y-108904419D01*
X177199962Y-108911651D01*
X177219368Y-108920830D01*
X177237781Y-108931866D01*
X177255024Y-108944654D01*
X177270930Y-108959070D01*
X177285346Y-108974976D01*
X177298134Y-108992219D01*
X177309170Y-109010632D01*
X177318349Y-109030038D01*
X177325581Y-109050250D01*
X177330797Y-109071074D01*
X177333947Y-109092309D01*
X177335000Y-109113750D01*
X177335000Y-109551250D01*
X177333947Y-109572691D01*
X177330797Y-109593926D01*
X177325581Y-109614750D01*
X177318349Y-109634962D01*
X177309170Y-109654368D01*
X177298134Y-109672781D01*
X177285346Y-109690024D01*
X177270930Y-109705930D01*
X177255024Y-109720346D01*
X177237781Y-109733134D01*
X177219368Y-109744170D01*
X177199962Y-109753349D01*
X177179750Y-109760581D01*
X177158926Y-109765797D01*
X177137691Y-109768947D01*
X177116250Y-109770000D01*
X176603750Y-109770000D01*
X176582309Y-109768947D01*
X176561074Y-109765797D01*
X176540250Y-109760581D01*
X176520038Y-109753349D01*
X176500632Y-109744170D01*
X176482219Y-109733134D01*
X176464976Y-109720346D01*
X176449070Y-109705930D01*
X176434654Y-109690024D01*
X176421866Y-109672781D01*
X176410830Y-109654368D01*
X176401651Y-109634962D01*
X176394419Y-109614750D01*
X176389203Y-109593926D01*
X176386053Y-109572691D01*
X176385000Y-109551250D01*
X176385000Y-109113750D01*
X176386053Y-109092309D01*
X176389203Y-109071074D01*
X176394419Y-109050250D01*
X176401651Y-109030038D01*
X176410830Y-109010632D01*
X176421866Y-108992219D01*
X176434654Y-108974976D01*
X176449070Y-108959070D01*
X176464976Y-108944654D01*
X176482219Y-108931866D01*
X176500632Y-108920830D01*
X176520038Y-108911651D01*
X176540250Y-108904419D01*
X176561074Y-108899203D01*
X176582309Y-108896053D01*
X176603750Y-108895000D01*
X177116250Y-108895000D01*
X177137691Y-108896053D01*
X177137691Y-108896053D01*
G37*
D12*
X176860000Y-109332500D03*
D11*
G36*
X171516269Y-115271168D02*
G01*
X171539809Y-115274660D01*
X171562894Y-115280442D01*
X171585301Y-115288459D01*
X171606814Y-115298634D01*
X171627226Y-115310869D01*
X171646340Y-115325045D01*
X171663973Y-115341027D01*
X171679955Y-115358660D01*
X171694131Y-115377774D01*
X171706366Y-115398186D01*
X171716541Y-115419699D01*
X171724558Y-115442106D01*
X171730340Y-115465191D01*
X171733832Y-115488731D01*
X171735000Y-115512500D01*
X171735000Y-116277500D01*
X171733832Y-116301269D01*
X171730340Y-116324809D01*
X171724558Y-116347894D01*
X171716541Y-116370301D01*
X171706366Y-116391814D01*
X171694131Y-116412226D01*
X171679955Y-116431340D01*
X171663973Y-116448973D01*
X171646340Y-116464955D01*
X171627226Y-116479131D01*
X171606814Y-116491366D01*
X171585301Y-116501541D01*
X171562894Y-116509558D01*
X171539809Y-116515340D01*
X171516269Y-116518832D01*
X171492500Y-116520000D01*
X171007500Y-116520000D01*
X170983731Y-116518832D01*
X170960191Y-116515340D01*
X170937106Y-116509558D01*
X170914699Y-116501541D01*
X170893186Y-116491366D01*
X170872774Y-116479131D01*
X170853660Y-116464955D01*
X170836027Y-116448973D01*
X170820045Y-116431340D01*
X170805869Y-116412226D01*
X170793634Y-116391814D01*
X170783459Y-116370301D01*
X170775442Y-116347894D01*
X170769660Y-116324809D01*
X170766168Y-116301269D01*
X170765000Y-116277500D01*
X170765000Y-115512500D01*
X170766168Y-115488731D01*
X170769660Y-115465191D01*
X170775442Y-115442106D01*
X170783459Y-115419699D01*
X170793634Y-115398186D01*
X170805869Y-115377774D01*
X170820045Y-115358660D01*
X170836027Y-115341027D01*
X170853660Y-115325045D01*
X170872774Y-115310869D01*
X170893186Y-115298634D01*
X170914699Y-115288459D01*
X170937106Y-115280442D01*
X170960191Y-115274660D01*
X170983731Y-115271168D01*
X171007500Y-115270000D01*
X171492500Y-115270000D01*
X171516269Y-115271168D01*
X171516269Y-115271168D01*
G37*
D14*
X171250000Y-115895000D03*
D11*
G36*
X171516269Y-113721168D02*
G01*
X171539809Y-113724660D01*
X171562894Y-113730442D01*
X171585301Y-113738459D01*
X171606814Y-113748634D01*
X171627226Y-113760869D01*
X171646340Y-113775045D01*
X171663973Y-113791027D01*
X171679955Y-113808660D01*
X171694131Y-113827774D01*
X171706366Y-113848186D01*
X171716541Y-113869699D01*
X171724558Y-113892106D01*
X171730340Y-113915191D01*
X171733832Y-113938731D01*
X171735000Y-113962500D01*
X171735000Y-114727500D01*
X171733832Y-114751269D01*
X171730340Y-114774809D01*
X171724558Y-114797894D01*
X171716541Y-114820301D01*
X171706366Y-114841814D01*
X171694131Y-114862226D01*
X171679955Y-114881340D01*
X171663973Y-114898973D01*
X171646340Y-114914955D01*
X171627226Y-114929131D01*
X171606814Y-114941366D01*
X171585301Y-114951541D01*
X171562894Y-114959558D01*
X171539809Y-114965340D01*
X171516269Y-114968832D01*
X171492500Y-114970000D01*
X171007500Y-114970000D01*
X170983731Y-114968832D01*
X170960191Y-114965340D01*
X170937106Y-114959558D01*
X170914699Y-114951541D01*
X170893186Y-114941366D01*
X170872774Y-114929131D01*
X170853660Y-114914955D01*
X170836027Y-114898973D01*
X170820045Y-114881340D01*
X170805869Y-114862226D01*
X170793634Y-114841814D01*
X170783459Y-114820301D01*
X170775442Y-114797894D01*
X170769660Y-114774809D01*
X170766168Y-114751269D01*
X170765000Y-114727500D01*
X170765000Y-113962500D01*
X170766168Y-113938731D01*
X170769660Y-113915191D01*
X170775442Y-113892106D01*
X170783459Y-113869699D01*
X170793634Y-113848186D01*
X170805869Y-113827774D01*
X170820045Y-113808660D01*
X170836027Y-113791027D01*
X170853660Y-113775045D01*
X170872774Y-113760869D01*
X170893186Y-113748634D01*
X170914699Y-113738459D01*
X170937106Y-113730442D01*
X170960191Y-113724660D01*
X170983731Y-113721168D01*
X171007500Y-113720000D01*
X171492500Y-113720000D01*
X171516269Y-113721168D01*
X171516269Y-113721168D01*
G37*
D14*
X171250000Y-114345000D03*
D11*
G36*
X172716269Y-115271168D02*
G01*
X172739809Y-115274660D01*
X172762894Y-115280442D01*
X172785301Y-115288459D01*
X172806814Y-115298634D01*
X172827226Y-115310869D01*
X172846340Y-115325045D01*
X172863973Y-115341027D01*
X172879955Y-115358660D01*
X172894131Y-115377774D01*
X172906366Y-115398186D01*
X172916541Y-115419699D01*
X172924558Y-115442106D01*
X172930340Y-115465191D01*
X172933832Y-115488731D01*
X172935000Y-115512500D01*
X172935000Y-116277500D01*
X172933832Y-116301269D01*
X172930340Y-116324809D01*
X172924558Y-116347894D01*
X172916541Y-116370301D01*
X172906366Y-116391814D01*
X172894131Y-116412226D01*
X172879955Y-116431340D01*
X172863973Y-116448973D01*
X172846340Y-116464955D01*
X172827226Y-116479131D01*
X172806814Y-116491366D01*
X172785301Y-116501541D01*
X172762894Y-116509558D01*
X172739809Y-116515340D01*
X172716269Y-116518832D01*
X172692500Y-116520000D01*
X172207500Y-116520000D01*
X172183731Y-116518832D01*
X172160191Y-116515340D01*
X172137106Y-116509558D01*
X172114699Y-116501541D01*
X172093186Y-116491366D01*
X172072774Y-116479131D01*
X172053660Y-116464955D01*
X172036027Y-116448973D01*
X172020045Y-116431340D01*
X172005869Y-116412226D01*
X171993634Y-116391814D01*
X171983459Y-116370301D01*
X171975442Y-116347894D01*
X171969660Y-116324809D01*
X171966168Y-116301269D01*
X171965000Y-116277500D01*
X171965000Y-115512500D01*
X171966168Y-115488731D01*
X171969660Y-115465191D01*
X171975442Y-115442106D01*
X171983459Y-115419699D01*
X171993634Y-115398186D01*
X172005869Y-115377774D01*
X172020045Y-115358660D01*
X172036027Y-115341027D01*
X172053660Y-115325045D01*
X172072774Y-115310869D01*
X172093186Y-115298634D01*
X172114699Y-115288459D01*
X172137106Y-115280442D01*
X172160191Y-115274660D01*
X172183731Y-115271168D01*
X172207500Y-115270000D01*
X172692500Y-115270000D01*
X172716269Y-115271168D01*
X172716269Y-115271168D01*
G37*
D14*
X172450000Y-115895000D03*
D11*
G36*
X172716269Y-113721168D02*
G01*
X172739809Y-113724660D01*
X172762894Y-113730442D01*
X172785301Y-113738459D01*
X172806814Y-113748634D01*
X172827226Y-113760869D01*
X172846340Y-113775045D01*
X172863973Y-113791027D01*
X172879955Y-113808660D01*
X172894131Y-113827774D01*
X172906366Y-113848186D01*
X172916541Y-113869699D01*
X172924558Y-113892106D01*
X172930340Y-113915191D01*
X172933832Y-113938731D01*
X172935000Y-113962500D01*
X172935000Y-114727500D01*
X172933832Y-114751269D01*
X172930340Y-114774809D01*
X172924558Y-114797894D01*
X172916541Y-114820301D01*
X172906366Y-114841814D01*
X172894131Y-114862226D01*
X172879955Y-114881340D01*
X172863973Y-114898973D01*
X172846340Y-114914955D01*
X172827226Y-114929131D01*
X172806814Y-114941366D01*
X172785301Y-114951541D01*
X172762894Y-114959558D01*
X172739809Y-114965340D01*
X172716269Y-114968832D01*
X172692500Y-114970000D01*
X172207500Y-114970000D01*
X172183731Y-114968832D01*
X172160191Y-114965340D01*
X172137106Y-114959558D01*
X172114699Y-114951541D01*
X172093186Y-114941366D01*
X172072774Y-114929131D01*
X172053660Y-114914955D01*
X172036027Y-114898973D01*
X172020045Y-114881340D01*
X172005869Y-114862226D01*
X171993634Y-114841814D01*
X171983459Y-114820301D01*
X171975442Y-114797894D01*
X171969660Y-114774809D01*
X171966168Y-114751269D01*
X171965000Y-114727500D01*
X171965000Y-113962500D01*
X171966168Y-113938731D01*
X171969660Y-113915191D01*
X171975442Y-113892106D01*
X171983459Y-113869699D01*
X171993634Y-113848186D01*
X172005869Y-113827774D01*
X172020045Y-113808660D01*
X172036027Y-113791027D01*
X172053660Y-113775045D01*
X172072774Y-113760869D01*
X172093186Y-113748634D01*
X172114699Y-113738459D01*
X172137106Y-113730442D01*
X172160191Y-113724660D01*
X172183731Y-113721168D01*
X172207500Y-113720000D01*
X172692500Y-113720000D01*
X172716269Y-113721168D01*
X172716269Y-113721168D01*
G37*
D14*
X172450000Y-114345000D03*
D11*
G36*
X169864703Y-116725722D02*
G01*
X169879264Y-116727882D01*
X169893543Y-116731459D01*
X169907403Y-116736418D01*
X169920710Y-116742712D01*
X169933336Y-116750280D01*
X169945159Y-116759048D01*
X169956066Y-116768934D01*
X169965952Y-116779841D01*
X169974720Y-116791664D01*
X169982288Y-116804290D01*
X169988582Y-116817597D01*
X169993541Y-116831457D01*
X169997118Y-116845736D01*
X169999278Y-116860297D01*
X170000000Y-116875000D01*
X170000000Y-117175000D01*
X169999278Y-117189703D01*
X169997118Y-117204264D01*
X169993541Y-117218543D01*
X169988582Y-117232403D01*
X169982288Y-117245710D01*
X169974720Y-117258336D01*
X169965952Y-117270159D01*
X169956066Y-117281066D01*
X169945159Y-117290952D01*
X169933336Y-117299720D01*
X169920710Y-117307288D01*
X169907403Y-117313582D01*
X169893543Y-117318541D01*
X169879264Y-117322118D01*
X169864703Y-117324278D01*
X169850000Y-117325000D01*
X168550000Y-117325000D01*
X168535297Y-117324278D01*
X168520736Y-117322118D01*
X168506457Y-117318541D01*
X168492597Y-117313582D01*
X168479290Y-117307288D01*
X168466664Y-117299720D01*
X168454841Y-117290952D01*
X168443934Y-117281066D01*
X168434048Y-117270159D01*
X168425280Y-117258336D01*
X168417712Y-117245710D01*
X168411418Y-117232403D01*
X168406459Y-117218543D01*
X168402882Y-117204264D01*
X168400722Y-117189703D01*
X168400000Y-117175000D01*
X168400000Y-116875000D01*
X168400722Y-116860297D01*
X168402882Y-116845736D01*
X168406459Y-116831457D01*
X168411418Y-116817597D01*
X168417712Y-116804290D01*
X168425280Y-116791664D01*
X168434048Y-116779841D01*
X168443934Y-116768934D01*
X168454841Y-116759048D01*
X168466664Y-116750280D01*
X168479290Y-116742712D01*
X168492597Y-116736418D01*
X168506457Y-116731459D01*
X168520736Y-116727882D01*
X168535297Y-116725722D01*
X168550000Y-116725000D01*
X169850000Y-116725000D01*
X169864703Y-116725722D01*
X169864703Y-116725722D01*
G37*
D15*
X169200000Y-117025000D03*
D11*
G36*
X169864703Y-115455722D02*
G01*
X169879264Y-115457882D01*
X169893543Y-115461459D01*
X169907403Y-115466418D01*
X169920710Y-115472712D01*
X169933336Y-115480280D01*
X169945159Y-115489048D01*
X169956066Y-115498934D01*
X169965952Y-115509841D01*
X169974720Y-115521664D01*
X169982288Y-115534290D01*
X169988582Y-115547597D01*
X169993541Y-115561457D01*
X169997118Y-115575736D01*
X169999278Y-115590297D01*
X170000000Y-115605000D01*
X170000000Y-115905000D01*
X169999278Y-115919703D01*
X169997118Y-115934264D01*
X169993541Y-115948543D01*
X169988582Y-115962403D01*
X169982288Y-115975710D01*
X169974720Y-115988336D01*
X169965952Y-116000159D01*
X169956066Y-116011066D01*
X169945159Y-116020952D01*
X169933336Y-116029720D01*
X169920710Y-116037288D01*
X169907403Y-116043582D01*
X169893543Y-116048541D01*
X169879264Y-116052118D01*
X169864703Y-116054278D01*
X169850000Y-116055000D01*
X168550000Y-116055000D01*
X168535297Y-116054278D01*
X168520736Y-116052118D01*
X168506457Y-116048541D01*
X168492597Y-116043582D01*
X168479290Y-116037288D01*
X168466664Y-116029720D01*
X168454841Y-116020952D01*
X168443934Y-116011066D01*
X168434048Y-116000159D01*
X168425280Y-115988336D01*
X168417712Y-115975710D01*
X168411418Y-115962403D01*
X168406459Y-115948543D01*
X168402882Y-115934264D01*
X168400722Y-115919703D01*
X168400000Y-115905000D01*
X168400000Y-115605000D01*
X168400722Y-115590297D01*
X168402882Y-115575736D01*
X168406459Y-115561457D01*
X168411418Y-115547597D01*
X168417712Y-115534290D01*
X168425280Y-115521664D01*
X168434048Y-115509841D01*
X168443934Y-115498934D01*
X168454841Y-115489048D01*
X168466664Y-115480280D01*
X168479290Y-115472712D01*
X168492597Y-115466418D01*
X168506457Y-115461459D01*
X168520736Y-115457882D01*
X168535297Y-115455722D01*
X168550000Y-115455000D01*
X169850000Y-115455000D01*
X169864703Y-115455722D01*
X169864703Y-115455722D01*
G37*
D15*
X169200000Y-115755000D03*
D11*
G36*
X169864703Y-114185722D02*
G01*
X169879264Y-114187882D01*
X169893543Y-114191459D01*
X169907403Y-114196418D01*
X169920710Y-114202712D01*
X169933336Y-114210280D01*
X169945159Y-114219048D01*
X169956066Y-114228934D01*
X169965952Y-114239841D01*
X169974720Y-114251664D01*
X169982288Y-114264290D01*
X169988582Y-114277597D01*
X169993541Y-114291457D01*
X169997118Y-114305736D01*
X169999278Y-114320297D01*
X170000000Y-114335000D01*
X170000000Y-114635000D01*
X169999278Y-114649703D01*
X169997118Y-114664264D01*
X169993541Y-114678543D01*
X169988582Y-114692403D01*
X169982288Y-114705710D01*
X169974720Y-114718336D01*
X169965952Y-114730159D01*
X169956066Y-114741066D01*
X169945159Y-114750952D01*
X169933336Y-114759720D01*
X169920710Y-114767288D01*
X169907403Y-114773582D01*
X169893543Y-114778541D01*
X169879264Y-114782118D01*
X169864703Y-114784278D01*
X169850000Y-114785000D01*
X168550000Y-114785000D01*
X168535297Y-114784278D01*
X168520736Y-114782118D01*
X168506457Y-114778541D01*
X168492597Y-114773582D01*
X168479290Y-114767288D01*
X168466664Y-114759720D01*
X168454841Y-114750952D01*
X168443934Y-114741066D01*
X168434048Y-114730159D01*
X168425280Y-114718336D01*
X168417712Y-114705710D01*
X168411418Y-114692403D01*
X168406459Y-114678543D01*
X168402882Y-114664264D01*
X168400722Y-114649703D01*
X168400000Y-114635000D01*
X168400000Y-114335000D01*
X168400722Y-114320297D01*
X168402882Y-114305736D01*
X168406459Y-114291457D01*
X168411418Y-114277597D01*
X168417712Y-114264290D01*
X168425280Y-114251664D01*
X168434048Y-114239841D01*
X168443934Y-114228934D01*
X168454841Y-114219048D01*
X168466664Y-114210280D01*
X168479290Y-114202712D01*
X168492597Y-114196418D01*
X168506457Y-114191459D01*
X168520736Y-114187882D01*
X168535297Y-114185722D01*
X168550000Y-114185000D01*
X169850000Y-114185000D01*
X169864703Y-114185722D01*
X169864703Y-114185722D01*
G37*
D15*
X169200000Y-114485000D03*
D11*
G36*
X169864703Y-112915722D02*
G01*
X169879264Y-112917882D01*
X169893543Y-112921459D01*
X169907403Y-112926418D01*
X169920710Y-112932712D01*
X169933336Y-112940280D01*
X169945159Y-112949048D01*
X169956066Y-112958934D01*
X169965952Y-112969841D01*
X169974720Y-112981664D01*
X169982288Y-112994290D01*
X169988582Y-113007597D01*
X169993541Y-113021457D01*
X169997118Y-113035736D01*
X169999278Y-113050297D01*
X170000000Y-113065000D01*
X170000000Y-113365000D01*
X169999278Y-113379703D01*
X169997118Y-113394264D01*
X169993541Y-113408543D01*
X169988582Y-113422403D01*
X169982288Y-113435710D01*
X169974720Y-113448336D01*
X169965952Y-113460159D01*
X169956066Y-113471066D01*
X169945159Y-113480952D01*
X169933336Y-113489720D01*
X169920710Y-113497288D01*
X169907403Y-113503582D01*
X169893543Y-113508541D01*
X169879264Y-113512118D01*
X169864703Y-113514278D01*
X169850000Y-113515000D01*
X168550000Y-113515000D01*
X168535297Y-113514278D01*
X168520736Y-113512118D01*
X168506457Y-113508541D01*
X168492597Y-113503582D01*
X168479290Y-113497288D01*
X168466664Y-113489720D01*
X168454841Y-113480952D01*
X168443934Y-113471066D01*
X168434048Y-113460159D01*
X168425280Y-113448336D01*
X168417712Y-113435710D01*
X168411418Y-113422403D01*
X168406459Y-113408543D01*
X168402882Y-113394264D01*
X168400722Y-113379703D01*
X168400000Y-113365000D01*
X168400000Y-113065000D01*
X168400722Y-113050297D01*
X168402882Y-113035736D01*
X168406459Y-113021457D01*
X168411418Y-113007597D01*
X168417712Y-112994290D01*
X168425280Y-112981664D01*
X168434048Y-112969841D01*
X168443934Y-112958934D01*
X168454841Y-112949048D01*
X168466664Y-112940280D01*
X168479290Y-112932712D01*
X168492597Y-112926418D01*
X168506457Y-112921459D01*
X168520736Y-112917882D01*
X168535297Y-112915722D01*
X168550000Y-112915000D01*
X169850000Y-112915000D01*
X169864703Y-112915722D01*
X169864703Y-112915722D01*
G37*
D15*
X169200000Y-113215000D03*
D11*
G36*
X175164703Y-112915722D02*
G01*
X175179264Y-112917882D01*
X175193543Y-112921459D01*
X175207403Y-112926418D01*
X175220710Y-112932712D01*
X175233336Y-112940280D01*
X175245159Y-112949048D01*
X175256066Y-112958934D01*
X175265952Y-112969841D01*
X175274720Y-112981664D01*
X175282288Y-112994290D01*
X175288582Y-113007597D01*
X175293541Y-113021457D01*
X175297118Y-113035736D01*
X175299278Y-113050297D01*
X175300000Y-113065000D01*
X175300000Y-113365000D01*
X175299278Y-113379703D01*
X175297118Y-113394264D01*
X175293541Y-113408543D01*
X175288582Y-113422403D01*
X175282288Y-113435710D01*
X175274720Y-113448336D01*
X175265952Y-113460159D01*
X175256066Y-113471066D01*
X175245159Y-113480952D01*
X175233336Y-113489720D01*
X175220710Y-113497288D01*
X175207403Y-113503582D01*
X175193543Y-113508541D01*
X175179264Y-113512118D01*
X175164703Y-113514278D01*
X175150000Y-113515000D01*
X173850000Y-113515000D01*
X173835297Y-113514278D01*
X173820736Y-113512118D01*
X173806457Y-113508541D01*
X173792597Y-113503582D01*
X173779290Y-113497288D01*
X173766664Y-113489720D01*
X173754841Y-113480952D01*
X173743934Y-113471066D01*
X173734048Y-113460159D01*
X173725280Y-113448336D01*
X173717712Y-113435710D01*
X173711418Y-113422403D01*
X173706459Y-113408543D01*
X173702882Y-113394264D01*
X173700722Y-113379703D01*
X173700000Y-113365000D01*
X173700000Y-113065000D01*
X173700722Y-113050297D01*
X173702882Y-113035736D01*
X173706459Y-113021457D01*
X173711418Y-113007597D01*
X173717712Y-112994290D01*
X173725280Y-112981664D01*
X173734048Y-112969841D01*
X173743934Y-112958934D01*
X173754841Y-112949048D01*
X173766664Y-112940280D01*
X173779290Y-112932712D01*
X173792597Y-112926418D01*
X173806457Y-112921459D01*
X173820736Y-112917882D01*
X173835297Y-112915722D01*
X173850000Y-112915000D01*
X175150000Y-112915000D01*
X175164703Y-112915722D01*
X175164703Y-112915722D01*
G37*
D15*
X174500000Y-113215000D03*
D11*
G36*
X175164703Y-114185722D02*
G01*
X175179264Y-114187882D01*
X175193543Y-114191459D01*
X175207403Y-114196418D01*
X175220710Y-114202712D01*
X175233336Y-114210280D01*
X175245159Y-114219048D01*
X175256066Y-114228934D01*
X175265952Y-114239841D01*
X175274720Y-114251664D01*
X175282288Y-114264290D01*
X175288582Y-114277597D01*
X175293541Y-114291457D01*
X175297118Y-114305736D01*
X175299278Y-114320297D01*
X175300000Y-114335000D01*
X175300000Y-114635000D01*
X175299278Y-114649703D01*
X175297118Y-114664264D01*
X175293541Y-114678543D01*
X175288582Y-114692403D01*
X175282288Y-114705710D01*
X175274720Y-114718336D01*
X175265952Y-114730159D01*
X175256066Y-114741066D01*
X175245159Y-114750952D01*
X175233336Y-114759720D01*
X175220710Y-114767288D01*
X175207403Y-114773582D01*
X175193543Y-114778541D01*
X175179264Y-114782118D01*
X175164703Y-114784278D01*
X175150000Y-114785000D01*
X173850000Y-114785000D01*
X173835297Y-114784278D01*
X173820736Y-114782118D01*
X173806457Y-114778541D01*
X173792597Y-114773582D01*
X173779290Y-114767288D01*
X173766664Y-114759720D01*
X173754841Y-114750952D01*
X173743934Y-114741066D01*
X173734048Y-114730159D01*
X173725280Y-114718336D01*
X173717712Y-114705710D01*
X173711418Y-114692403D01*
X173706459Y-114678543D01*
X173702882Y-114664264D01*
X173700722Y-114649703D01*
X173700000Y-114635000D01*
X173700000Y-114335000D01*
X173700722Y-114320297D01*
X173702882Y-114305736D01*
X173706459Y-114291457D01*
X173711418Y-114277597D01*
X173717712Y-114264290D01*
X173725280Y-114251664D01*
X173734048Y-114239841D01*
X173743934Y-114228934D01*
X173754841Y-114219048D01*
X173766664Y-114210280D01*
X173779290Y-114202712D01*
X173792597Y-114196418D01*
X173806457Y-114191459D01*
X173820736Y-114187882D01*
X173835297Y-114185722D01*
X173850000Y-114185000D01*
X175150000Y-114185000D01*
X175164703Y-114185722D01*
X175164703Y-114185722D01*
G37*
D15*
X174500000Y-114485000D03*
D11*
G36*
X175164703Y-115455722D02*
G01*
X175179264Y-115457882D01*
X175193543Y-115461459D01*
X175207403Y-115466418D01*
X175220710Y-115472712D01*
X175233336Y-115480280D01*
X175245159Y-115489048D01*
X175256066Y-115498934D01*
X175265952Y-115509841D01*
X175274720Y-115521664D01*
X175282288Y-115534290D01*
X175288582Y-115547597D01*
X175293541Y-115561457D01*
X175297118Y-115575736D01*
X175299278Y-115590297D01*
X175300000Y-115605000D01*
X175300000Y-115905000D01*
X175299278Y-115919703D01*
X175297118Y-115934264D01*
X175293541Y-115948543D01*
X175288582Y-115962403D01*
X175282288Y-115975710D01*
X175274720Y-115988336D01*
X175265952Y-116000159D01*
X175256066Y-116011066D01*
X175245159Y-116020952D01*
X175233336Y-116029720D01*
X175220710Y-116037288D01*
X175207403Y-116043582D01*
X175193543Y-116048541D01*
X175179264Y-116052118D01*
X175164703Y-116054278D01*
X175150000Y-116055000D01*
X173850000Y-116055000D01*
X173835297Y-116054278D01*
X173820736Y-116052118D01*
X173806457Y-116048541D01*
X173792597Y-116043582D01*
X173779290Y-116037288D01*
X173766664Y-116029720D01*
X173754841Y-116020952D01*
X173743934Y-116011066D01*
X173734048Y-116000159D01*
X173725280Y-115988336D01*
X173717712Y-115975710D01*
X173711418Y-115962403D01*
X173706459Y-115948543D01*
X173702882Y-115934264D01*
X173700722Y-115919703D01*
X173700000Y-115905000D01*
X173700000Y-115605000D01*
X173700722Y-115590297D01*
X173702882Y-115575736D01*
X173706459Y-115561457D01*
X173711418Y-115547597D01*
X173717712Y-115534290D01*
X173725280Y-115521664D01*
X173734048Y-115509841D01*
X173743934Y-115498934D01*
X173754841Y-115489048D01*
X173766664Y-115480280D01*
X173779290Y-115472712D01*
X173792597Y-115466418D01*
X173806457Y-115461459D01*
X173820736Y-115457882D01*
X173835297Y-115455722D01*
X173850000Y-115455000D01*
X175150000Y-115455000D01*
X175164703Y-115455722D01*
X175164703Y-115455722D01*
G37*
D15*
X174500000Y-115755000D03*
D11*
G36*
X175164703Y-116725722D02*
G01*
X175179264Y-116727882D01*
X175193543Y-116731459D01*
X175207403Y-116736418D01*
X175220710Y-116742712D01*
X175233336Y-116750280D01*
X175245159Y-116759048D01*
X175256066Y-116768934D01*
X175265952Y-116779841D01*
X175274720Y-116791664D01*
X175282288Y-116804290D01*
X175288582Y-116817597D01*
X175293541Y-116831457D01*
X175297118Y-116845736D01*
X175299278Y-116860297D01*
X175300000Y-116875000D01*
X175300000Y-117175000D01*
X175299278Y-117189703D01*
X175297118Y-117204264D01*
X175293541Y-117218543D01*
X175288582Y-117232403D01*
X175282288Y-117245710D01*
X175274720Y-117258336D01*
X175265952Y-117270159D01*
X175256066Y-117281066D01*
X175245159Y-117290952D01*
X175233336Y-117299720D01*
X175220710Y-117307288D01*
X175207403Y-117313582D01*
X175193543Y-117318541D01*
X175179264Y-117322118D01*
X175164703Y-117324278D01*
X175150000Y-117325000D01*
X173850000Y-117325000D01*
X173835297Y-117324278D01*
X173820736Y-117322118D01*
X173806457Y-117318541D01*
X173792597Y-117313582D01*
X173779290Y-117307288D01*
X173766664Y-117299720D01*
X173754841Y-117290952D01*
X173743934Y-117281066D01*
X173734048Y-117270159D01*
X173725280Y-117258336D01*
X173717712Y-117245710D01*
X173711418Y-117232403D01*
X173706459Y-117218543D01*
X173702882Y-117204264D01*
X173700722Y-117189703D01*
X173700000Y-117175000D01*
X173700000Y-116875000D01*
X173700722Y-116860297D01*
X173702882Y-116845736D01*
X173706459Y-116831457D01*
X173711418Y-116817597D01*
X173717712Y-116804290D01*
X173725280Y-116791664D01*
X173734048Y-116779841D01*
X173743934Y-116768934D01*
X173754841Y-116759048D01*
X173766664Y-116750280D01*
X173779290Y-116742712D01*
X173792597Y-116736418D01*
X173806457Y-116731459D01*
X173820736Y-116727882D01*
X173835297Y-116725722D01*
X173850000Y-116725000D01*
X175150000Y-116725000D01*
X175164703Y-116725722D01*
X175164703Y-116725722D01*
G37*
D15*
X174500000Y-117025000D03*
D11*
G36*
X175477691Y-118276053D02*
G01*
X175498926Y-118279203D01*
X175519750Y-118284419D01*
X175539962Y-118291651D01*
X175559368Y-118300830D01*
X175577781Y-118311866D01*
X175595024Y-118324654D01*
X175610930Y-118339070D01*
X175625346Y-118354976D01*
X175638134Y-118372219D01*
X175649170Y-118390632D01*
X175658349Y-118410038D01*
X175665581Y-118430250D01*
X175670797Y-118451074D01*
X175673947Y-118472309D01*
X175675000Y-118493750D01*
X175675000Y-118931250D01*
X175673947Y-118952691D01*
X175670797Y-118973926D01*
X175665581Y-118994750D01*
X175658349Y-119014962D01*
X175649170Y-119034368D01*
X175638134Y-119052781D01*
X175625346Y-119070024D01*
X175610930Y-119085930D01*
X175595024Y-119100346D01*
X175577781Y-119113134D01*
X175559368Y-119124170D01*
X175539962Y-119133349D01*
X175519750Y-119140581D01*
X175498926Y-119145797D01*
X175477691Y-119148947D01*
X175456250Y-119150000D01*
X174943750Y-119150000D01*
X174922309Y-119148947D01*
X174901074Y-119145797D01*
X174880250Y-119140581D01*
X174860038Y-119133349D01*
X174840632Y-119124170D01*
X174822219Y-119113134D01*
X174804976Y-119100346D01*
X174789070Y-119085930D01*
X174774654Y-119070024D01*
X174761866Y-119052781D01*
X174750830Y-119034368D01*
X174741651Y-119014962D01*
X174734419Y-118994750D01*
X174729203Y-118973926D01*
X174726053Y-118952691D01*
X174725000Y-118931250D01*
X174725000Y-118493750D01*
X174726053Y-118472309D01*
X174729203Y-118451074D01*
X174734419Y-118430250D01*
X174741651Y-118410038D01*
X174750830Y-118390632D01*
X174761866Y-118372219D01*
X174774654Y-118354976D01*
X174789070Y-118339070D01*
X174804976Y-118324654D01*
X174822219Y-118311866D01*
X174840632Y-118300830D01*
X174860038Y-118291651D01*
X174880250Y-118284419D01*
X174901074Y-118279203D01*
X174922309Y-118276053D01*
X174943750Y-118275000D01*
X175456250Y-118275000D01*
X175477691Y-118276053D01*
X175477691Y-118276053D01*
G37*
D12*
X175200000Y-118712500D03*
D11*
G36*
X175477691Y-119851053D02*
G01*
X175498926Y-119854203D01*
X175519750Y-119859419D01*
X175539962Y-119866651D01*
X175559368Y-119875830D01*
X175577781Y-119886866D01*
X175595024Y-119899654D01*
X175610930Y-119914070D01*
X175625346Y-119929976D01*
X175638134Y-119947219D01*
X175649170Y-119965632D01*
X175658349Y-119985038D01*
X175665581Y-120005250D01*
X175670797Y-120026074D01*
X175673947Y-120047309D01*
X175675000Y-120068750D01*
X175675000Y-120506250D01*
X175673947Y-120527691D01*
X175670797Y-120548926D01*
X175665581Y-120569750D01*
X175658349Y-120589962D01*
X175649170Y-120609368D01*
X175638134Y-120627781D01*
X175625346Y-120645024D01*
X175610930Y-120660930D01*
X175595024Y-120675346D01*
X175577781Y-120688134D01*
X175559368Y-120699170D01*
X175539962Y-120708349D01*
X175519750Y-120715581D01*
X175498926Y-120720797D01*
X175477691Y-120723947D01*
X175456250Y-120725000D01*
X174943750Y-120725000D01*
X174922309Y-120723947D01*
X174901074Y-120720797D01*
X174880250Y-120715581D01*
X174860038Y-120708349D01*
X174840632Y-120699170D01*
X174822219Y-120688134D01*
X174804976Y-120675346D01*
X174789070Y-120660930D01*
X174774654Y-120645024D01*
X174761866Y-120627781D01*
X174750830Y-120609368D01*
X174741651Y-120589962D01*
X174734419Y-120569750D01*
X174729203Y-120548926D01*
X174726053Y-120527691D01*
X174725000Y-120506250D01*
X174725000Y-120068750D01*
X174726053Y-120047309D01*
X174729203Y-120026074D01*
X174734419Y-120005250D01*
X174741651Y-119985038D01*
X174750830Y-119965632D01*
X174761866Y-119947219D01*
X174774654Y-119929976D01*
X174789070Y-119914070D01*
X174804976Y-119899654D01*
X174822219Y-119886866D01*
X174840632Y-119875830D01*
X174860038Y-119866651D01*
X174880250Y-119859419D01*
X174901074Y-119854203D01*
X174922309Y-119851053D01*
X174943750Y-119850000D01*
X175456250Y-119850000D01*
X175477691Y-119851053D01*
X175477691Y-119851053D01*
G37*
D12*
X175200000Y-120287500D03*
D11*
G36*
X174477691Y-105126053D02*
G01*
X174498926Y-105129203D01*
X174519750Y-105134419D01*
X174539962Y-105141651D01*
X174559368Y-105150830D01*
X174577781Y-105161866D01*
X174595024Y-105174654D01*
X174610930Y-105189070D01*
X174625346Y-105204976D01*
X174638134Y-105222219D01*
X174649170Y-105240632D01*
X174658349Y-105260038D01*
X174665581Y-105280250D01*
X174670797Y-105301074D01*
X174673947Y-105322309D01*
X174675000Y-105343750D01*
X174675000Y-105781250D01*
X174673947Y-105802691D01*
X174670797Y-105823926D01*
X174665581Y-105844750D01*
X174658349Y-105864962D01*
X174649170Y-105884368D01*
X174638134Y-105902781D01*
X174625346Y-105920024D01*
X174610930Y-105935930D01*
X174595024Y-105950346D01*
X174577781Y-105963134D01*
X174559368Y-105974170D01*
X174539962Y-105983349D01*
X174519750Y-105990581D01*
X174498926Y-105995797D01*
X174477691Y-105998947D01*
X174456250Y-106000000D01*
X173943750Y-106000000D01*
X173922309Y-105998947D01*
X173901074Y-105995797D01*
X173880250Y-105990581D01*
X173860038Y-105983349D01*
X173840632Y-105974170D01*
X173822219Y-105963134D01*
X173804976Y-105950346D01*
X173789070Y-105935930D01*
X173774654Y-105920024D01*
X173761866Y-105902781D01*
X173750830Y-105884368D01*
X173741651Y-105864962D01*
X173734419Y-105844750D01*
X173729203Y-105823926D01*
X173726053Y-105802691D01*
X173725000Y-105781250D01*
X173725000Y-105343750D01*
X173726053Y-105322309D01*
X173729203Y-105301074D01*
X173734419Y-105280250D01*
X173741651Y-105260038D01*
X173750830Y-105240632D01*
X173761866Y-105222219D01*
X173774654Y-105204976D01*
X173789070Y-105189070D01*
X173804976Y-105174654D01*
X173822219Y-105161866D01*
X173840632Y-105150830D01*
X173860038Y-105141651D01*
X173880250Y-105134419D01*
X173901074Y-105129203D01*
X173922309Y-105126053D01*
X173943750Y-105125000D01*
X174456250Y-105125000D01*
X174477691Y-105126053D01*
X174477691Y-105126053D01*
G37*
D12*
X174200000Y-105562500D03*
D11*
G36*
X174477691Y-106701053D02*
G01*
X174498926Y-106704203D01*
X174519750Y-106709419D01*
X174539962Y-106716651D01*
X174559368Y-106725830D01*
X174577781Y-106736866D01*
X174595024Y-106749654D01*
X174610930Y-106764070D01*
X174625346Y-106779976D01*
X174638134Y-106797219D01*
X174649170Y-106815632D01*
X174658349Y-106835038D01*
X174665581Y-106855250D01*
X174670797Y-106876074D01*
X174673947Y-106897309D01*
X174675000Y-106918750D01*
X174675000Y-107356250D01*
X174673947Y-107377691D01*
X174670797Y-107398926D01*
X174665581Y-107419750D01*
X174658349Y-107439962D01*
X174649170Y-107459368D01*
X174638134Y-107477781D01*
X174625346Y-107495024D01*
X174610930Y-107510930D01*
X174595024Y-107525346D01*
X174577781Y-107538134D01*
X174559368Y-107549170D01*
X174539962Y-107558349D01*
X174519750Y-107565581D01*
X174498926Y-107570797D01*
X174477691Y-107573947D01*
X174456250Y-107575000D01*
X173943750Y-107575000D01*
X173922309Y-107573947D01*
X173901074Y-107570797D01*
X173880250Y-107565581D01*
X173860038Y-107558349D01*
X173840632Y-107549170D01*
X173822219Y-107538134D01*
X173804976Y-107525346D01*
X173789070Y-107510930D01*
X173774654Y-107495024D01*
X173761866Y-107477781D01*
X173750830Y-107459368D01*
X173741651Y-107439962D01*
X173734419Y-107419750D01*
X173729203Y-107398926D01*
X173726053Y-107377691D01*
X173725000Y-107356250D01*
X173725000Y-106918750D01*
X173726053Y-106897309D01*
X173729203Y-106876074D01*
X173734419Y-106855250D01*
X173741651Y-106835038D01*
X173750830Y-106815632D01*
X173761866Y-106797219D01*
X173774654Y-106779976D01*
X173789070Y-106764070D01*
X173804976Y-106749654D01*
X173822219Y-106736866D01*
X173840632Y-106725830D01*
X173860038Y-106716651D01*
X173880250Y-106709419D01*
X173901074Y-106704203D01*
X173922309Y-106701053D01*
X173943750Y-106700000D01*
X174456250Y-106700000D01*
X174477691Y-106701053D01*
X174477691Y-106701053D01*
G37*
D12*
X174200000Y-107137500D03*
D11*
G36*
X176277691Y-107351053D02*
G01*
X176298926Y-107354203D01*
X176319750Y-107359419D01*
X176339962Y-107366651D01*
X176359368Y-107375830D01*
X176377781Y-107386866D01*
X176395024Y-107399654D01*
X176410930Y-107414070D01*
X176425346Y-107429976D01*
X176438134Y-107447219D01*
X176449170Y-107465632D01*
X176458349Y-107485038D01*
X176465581Y-107505250D01*
X176470797Y-107526074D01*
X176473947Y-107547309D01*
X176475000Y-107568750D01*
X176475000Y-108006250D01*
X176473947Y-108027691D01*
X176470797Y-108048926D01*
X176465581Y-108069750D01*
X176458349Y-108089962D01*
X176449170Y-108109368D01*
X176438134Y-108127781D01*
X176425346Y-108145024D01*
X176410930Y-108160930D01*
X176395024Y-108175346D01*
X176377781Y-108188134D01*
X176359368Y-108199170D01*
X176339962Y-108208349D01*
X176319750Y-108215581D01*
X176298926Y-108220797D01*
X176277691Y-108223947D01*
X176256250Y-108225000D01*
X175743750Y-108225000D01*
X175722309Y-108223947D01*
X175701074Y-108220797D01*
X175680250Y-108215581D01*
X175660038Y-108208349D01*
X175640632Y-108199170D01*
X175622219Y-108188134D01*
X175604976Y-108175346D01*
X175589070Y-108160930D01*
X175574654Y-108145024D01*
X175561866Y-108127781D01*
X175550830Y-108109368D01*
X175541651Y-108089962D01*
X175534419Y-108069750D01*
X175529203Y-108048926D01*
X175526053Y-108027691D01*
X175525000Y-108006250D01*
X175525000Y-107568750D01*
X175526053Y-107547309D01*
X175529203Y-107526074D01*
X175534419Y-107505250D01*
X175541651Y-107485038D01*
X175550830Y-107465632D01*
X175561866Y-107447219D01*
X175574654Y-107429976D01*
X175589070Y-107414070D01*
X175604976Y-107399654D01*
X175622219Y-107386866D01*
X175640632Y-107375830D01*
X175660038Y-107366651D01*
X175680250Y-107359419D01*
X175701074Y-107354203D01*
X175722309Y-107351053D01*
X175743750Y-107350000D01*
X176256250Y-107350000D01*
X176277691Y-107351053D01*
X176277691Y-107351053D01*
G37*
D12*
X176000000Y-107787500D03*
D11*
G36*
X176277691Y-105776053D02*
G01*
X176298926Y-105779203D01*
X176319750Y-105784419D01*
X176339962Y-105791651D01*
X176359368Y-105800830D01*
X176377781Y-105811866D01*
X176395024Y-105824654D01*
X176410930Y-105839070D01*
X176425346Y-105854976D01*
X176438134Y-105872219D01*
X176449170Y-105890632D01*
X176458349Y-105910038D01*
X176465581Y-105930250D01*
X176470797Y-105951074D01*
X176473947Y-105972309D01*
X176475000Y-105993750D01*
X176475000Y-106431250D01*
X176473947Y-106452691D01*
X176470797Y-106473926D01*
X176465581Y-106494750D01*
X176458349Y-106514962D01*
X176449170Y-106534368D01*
X176438134Y-106552781D01*
X176425346Y-106570024D01*
X176410930Y-106585930D01*
X176395024Y-106600346D01*
X176377781Y-106613134D01*
X176359368Y-106624170D01*
X176339962Y-106633349D01*
X176319750Y-106640581D01*
X176298926Y-106645797D01*
X176277691Y-106648947D01*
X176256250Y-106650000D01*
X175743750Y-106650000D01*
X175722309Y-106648947D01*
X175701074Y-106645797D01*
X175680250Y-106640581D01*
X175660038Y-106633349D01*
X175640632Y-106624170D01*
X175622219Y-106613134D01*
X175604976Y-106600346D01*
X175589070Y-106585930D01*
X175574654Y-106570024D01*
X175561866Y-106552781D01*
X175550830Y-106534368D01*
X175541651Y-106514962D01*
X175534419Y-106494750D01*
X175529203Y-106473926D01*
X175526053Y-106452691D01*
X175525000Y-106431250D01*
X175525000Y-105993750D01*
X175526053Y-105972309D01*
X175529203Y-105951074D01*
X175534419Y-105930250D01*
X175541651Y-105910038D01*
X175550830Y-105890632D01*
X175561866Y-105872219D01*
X175574654Y-105854976D01*
X175589070Y-105839070D01*
X175604976Y-105824654D01*
X175622219Y-105811866D01*
X175640632Y-105800830D01*
X175660038Y-105791651D01*
X175680250Y-105784419D01*
X175701074Y-105779203D01*
X175722309Y-105776053D01*
X175743750Y-105775000D01*
X176256250Y-105775000D01*
X176277691Y-105776053D01*
X176277691Y-105776053D01*
G37*
D12*
X176000000Y-106212500D03*
D11*
G36*
X152317691Y-112286053D02*
G01*
X152338926Y-112289203D01*
X152359750Y-112294419D01*
X152379962Y-112301651D01*
X152399368Y-112310830D01*
X152417781Y-112321866D01*
X152435024Y-112334654D01*
X152450930Y-112349070D01*
X152465346Y-112364976D01*
X152478134Y-112382219D01*
X152489170Y-112400632D01*
X152498349Y-112420038D01*
X152505581Y-112440250D01*
X152510797Y-112461074D01*
X152513947Y-112482309D01*
X152515000Y-112503750D01*
X152515000Y-113016250D01*
X152513947Y-113037691D01*
X152510797Y-113058926D01*
X152505581Y-113079750D01*
X152498349Y-113099962D01*
X152489170Y-113119368D01*
X152478134Y-113137781D01*
X152465346Y-113155024D01*
X152450930Y-113170930D01*
X152435024Y-113185346D01*
X152417781Y-113198134D01*
X152399368Y-113209170D01*
X152379962Y-113218349D01*
X152359750Y-113225581D01*
X152338926Y-113230797D01*
X152317691Y-113233947D01*
X152296250Y-113235000D01*
X151858750Y-113235000D01*
X151837309Y-113233947D01*
X151816074Y-113230797D01*
X151795250Y-113225581D01*
X151775038Y-113218349D01*
X151755632Y-113209170D01*
X151737219Y-113198134D01*
X151719976Y-113185346D01*
X151704070Y-113170930D01*
X151689654Y-113155024D01*
X151676866Y-113137781D01*
X151665830Y-113119368D01*
X151656651Y-113099962D01*
X151649419Y-113079750D01*
X151644203Y-113058926D01*
X151641053Y-113037691D01*
X151640000Y-113016250D01*
X151640000Y-112503750D01*
X151641053Y-112482309D01*
X151644203Y-112461074D01*
X151649419Y-112440250D01*
X151656651Y-112420038D01*
X151665830Y-112400632D01*
X151676866Y-112382219D01*
X151689654Y-112364976D01*
X151704070Y-112349070D01*
X151719976Y-112334654D01*
X151737219Y-112321866D01*
X151755632Y-112310830D01*
X151775038Y-112301651D01*
X151795250Y-112294419D01*
X151816074Y-112289203D01*
X151837309Y-112286053D01*
X151858750Y-112285000D01*
X152296250Y-112285000D01*
X152317691Y-112286053D01*
X152317691Y-112286053D01*
G37*
D12*
X152077500Y-112760000D03*
D11*
G36*
X150742691Y-112286053D02*
G01*
X150763926Y-112289203D01*
X150784750Y-112294419D01*
X150804962Y-112301651D01*
X150824368Y-112310830D01*
X150842781Y-112321866D01*
X150860024Y-112334654D01*
X150875930Y-112349070D01*
X150890346Y-112364976D01*
X150903134Y-112382219D01*
X150914170Y-112400632D01*
X150923349Y-112420038D01*
X150930581Y-112440250D01*
X150935797Y-112461074D01*
X150938947Y-112482309D01*
X150940000Y-112503750D01*
X150940000Y-113016250D01*
X150938947Y-113037691D01*
X150935797Y-113058926D01*
X150930581Y-113079750D01*
X150923349Y-113099962D01*
X150914170Y-113119368D01*
X150903134Y-113137781D01*
X150890346Y-113155024D01*
X150875930Y-113170930D01*
X150860024Y-113185346D01*
X150842781Y-113198134D01*
X150824368Y-113209170D01*
X150804962Y-113218349D01*
X150784750Y-113225581D01*
X150763926Y-113230797D01*
X150742691Y-113233947D01*
X150721250Y-113235000D01*
X150283750Y-113235000D01*
X150262309Y-113233947D01*
X150241074Y-113230797D01*
X150220250Y-113225581D01*
X150200038Y-113218349D01*
X150180632Y-113209170D01*
X150162219Y-113198134D01*
X150144976Y-113185346D01*
X150129070Y-113170930D01*
X150114654Y-113155024D01*
X150101866Y-113137781D01*
X150090830Y-113119368D01*
X150081651Y-113099962D01*
X150074419Y-113079750D01*
X150069203Y-113058926D01*
X150066053Y-113037691D01*
X150065000Y-113016250D01*
X150065000Y-112503750D01*
X150066053Y-112482309D01*
X150069203Y-112461074D01*
X150074419Y-112440250D01*
X150081651Y-112420038D01*
X150090830Y-112400632D01*
X150101866Y-112382219D01*
X150114654Y-112364976D01*
X150129070Y-112349070D01*
X150144976Y-112334654D01*
X150162219Y-112321866D01*
X150180632Y-112310830D01*
X150200038Y-112301651D01*
X150220250Y-112294419D01*
X150241074Y-112289203D01*
X150262309Y-112286053D01*
X150283750Y-112285000D01*
X150721250Y-112285000D01*
X150742691Y-112286053D01*
X150742691Y-112286053D01*
G37*
D12*
X150502500Y-112760000D03*
M02*
