G04 #@! TF.GenerationSoftware,KiCad,Pcbnew,5.1.8-1.fc33*
G04 #@! TF.CreationDate,2020-12-23T22:24:44+01:00*
G04 #@! TF.ProjectId,venom,76656e6f-6d2e-46b6-9963-61645f706362,rev?*
G04 #@! TF.SameCoordinates,Original*
G04 #@! TF.FileFunction,Paste,Bot*
G04 #@! TF.FilePolarity,Positive*
%FSLAX46Y46*%
G04 Gerber Fmt 4.6, Leading zero omitted, Abs format (unit mm)*
G04 Created by KiCad (PCBNEW 5.1.8-1.fc33) date 2020-12-23 22:24:44*
%MOMM*%
%LPD*%
G01*
G04 APERTURE LIST*
%ADD10R,0.900000X1.200000*%
%ADD11R,0.450000X0.600000*%
%ADD12R,1.060000X0.650000*%
G04 APERTURE END LIST*
G36*
G01*
X147825000Y-118336250D02*
X147825000Y-117823750D01*
G75*
G02*
X148043750Y-117605000I218750J0D01*
G01*
X148481250Y-117605000D01*
G75*
G02*
X148700000Y-117823750I0J-218750D01*
G01*
X148700000Y-118336250D01*
G75*
G02*
X148481250Y-118555000I-218750J0D01*
G01*
X148043750Y-118555000D01*
G75*
G02*
X147825000Y-118336250I0J218750D01*
G01*
G37*
G36*
G01*
X149400000Y-118336250D02*
X149400000Y-117823750D01*
G75*
G02*
X149618750Y-117605000I218750J0D01*
G01*
X150056250Y-117605000D01*
G75*
G02*
X150275000Y-117823750I0J-218750D01*
G01*
X150275000Y-118336250D01*
G75*
G02*
X150056250Y-118555000I-218750J0D01*
G01*
X149618750Y-118555000D01*
G75*
G02*
X149400000Y-118336250I0J218750D01*
G01*
G37*
D10*
X146540000Y-123070000D03*
X149840000Y-123070000D03*
X146540000Y-125450000D03*
X149840000Y-125450000D03*
X146550000Y-120560000D03*
X149850000Y-120560000D03*
G36*
G01*
X147743750Y-105670000D02*
X148256250Y-105670000D01*
G75*
G02*
X148475000Y-105888750I0J-218750D01*
G01*
X148475000Y-106326250D01*
G75*
G02*
X148256250Y-106545000I-218750J0D01*
G01*
X147743750Y-106545000D01*
G75*
G02*
X147525000Y-106326250I0J218750D01*
G01*
X147525000Y-105888750D01*
G75*
G02*
X147743750Y-105670000I218750J0D01*
G01*
G37*
G36*
G01*
X147743750Y-104095000D02*
X148256250Y-104095000D01*
G75*
G02*
X148475000Y-104313750I0J-218750D01*
G01*
X148475000Y-104751250D01*
G75*
G02*
X148256250Y-104970000I-218750J0D01*
G01*
X147743750Y-104970000D01*
G75*
G02*
X147525000Y-104751250I0J218750D01*
G01*
X147525000Y-104313750D01*
G75*
G02*
X147743750Y-104095000I218750J0D01*
G01*
G37*
G36*
G01*
X147743750Y-107155000D02*
X148256250Y-107155000D01*
G75*
G02*
X148475000Y-107373750I0J-218750D01*
G01*
X148475000Y-107811250D01*
G75*
G02*
X148256250Y-108030000I-218750J0D01*
G01*
X147743750Y-108030000D01*
G75*
G02*
X147525000Y-107811250I0J218750D01*
G01*
X147525000Y-107373750D01*
G75*
G02*
X147743750Y-107155000I218750J0D01*
G01*
G37*
G36*
G01*
X147743750Y-108730000D02*
X148256250Y-108730000D01*
G75*
G02*
X148475000Y-108948750I0J-218750D01*
G01*
X148475000Y-109386250D01*
G75*
G02*
X148256250Y-109605000I-218750J0D01*
G01*
X147743750Y-109605000D01*
G75*
G02*
X147525000Y-109386250I0J218750D01*
G01*
X147525000Y-108948750D01*
G75*
G02*
X147743750Y-108730000I218750J0D01*
G01*
G37*
G36*
G01*
X176603750Y-110470000D02*
X177116250Y-110470000D01*
G75*
G02*
X177335000Y-110688750I0J-218750D01*
G01*
X177335000Y-111126250D01*
G75*
G02*
X177116250Y-111345000I-218750J0D01*
G01*
X176603750Y-111345000D01*
G75*
G02*
X176385000Y-111126250I0J218750D01*
G01*
X176385000Y-110688750D01*
G75*
G02*
X176603750Y-110470000I218750J0D01*
G01*
G37*
G36*
G01*
X176603750Y-108895000D02*
X177116250Y-108895000D01*
G75*
G02*
X177335000Y-109113750I0J-218750D01*
G01*
X177335000Y-109551250D01*
G75*
G02*
X177116250Y-109770000I-218750J0D01*
G01*
X176603750Y-109770000D01*
G75*
G02*
X176385000Y-109551250I0J218750D01*
G01*
X176385000Y-109113750D01*
G75*
G02*
X176603750Y-108895000I218750J0D01*
G01*
G37*
G36*
G01*
X174943750Y-118275000D02*
X175456250Y-118275000D01*
G75*
G02*
X175675000Y-118493750I0J-218750D01*
G01*
X175675000Y-118931250D01*
G75*
G02*
X175456250Y-119150000I-218750J0D01*
G01*
X174943750Y-119150000D01*
G75*
G02*
X174725000Y-118931250I0J218750D01*
G01*
X174725000Y-118493750D01*
G75*
G02*
X174943750Y-118275000I218750J0D01*
G01*
G37*
G36*
G01*
X174943750Y-119850000D02*
X175456250Y-119850000D01*
G75*
G02*
X175675000Y-120068750I0J-218750D01*
G01*
X175675000Y-120506250D01*
G75*
G02*
X175456250Y-120725000I-218750J0D01*
G01*
X174943750Y-120725000D01*
G75*
G02*
X174725000Y-120506250I0J218750D01*
G01*
X174725000Y-120068750D01*
G75*
G02*
X174943750Y-119850000I218750J0D01*
G01*
G37*
G36*
G01*
X176256250Y-108225000D02*
X175743750Y-108225000D01*
G75*
G02*
X175525000Y-108006250I0J218750D01*
G01*
X175525000Y-107568750D01*
G75*
G02*
X175743750Y-107350000I218750J0D01*
G01*
X176256250Y-107350000D01*
G75*
G02*
X176475000Y-107568750I0J-218750D01*
G01*
X176475000Y-108006250D01*
G75*
G02*
X176256250Y-108225000I-218750J0D01*
G01*
G37*
G36*
G01*
X176256250Y-106650000D02*
X175743750Y-106650000D01*
G75*
G02*
X175525000Y-106431250I0J218750D01*
G01*
X175525000Y-105993750D01*
G75*
G02*
X175743750Y-105775000I218750J0D01*
G01*
X176256250Y-105775000D01*
G75*
G02*
X176475000Y-105993750I0J-218750D01*
G01*
X176475000Y-106431250D01*
G75*
G02*
X176256250Y-106650000I-218750J0D01*
G01*
G37*
G36*
G01*
X152515000Y-112503750D02*
X152515000Y-113016250D01*
G75*
G02*
X152296250Y-113235000I-218750J0D01*
G01*
X151858750Y-113235000D01*
G75*
G02*
X151640000Y-113016250I0J218750D01*
G01*
X151640000Y-112503750D01*
G75*
G02*
X151858750Y-112285000I218750J0D01*
G01*
X152296250Y-112285000D01*
G75*
G02*
X152515000Y-112503750I0J-218750D01*
G01*
G37*
G36*
G01*
X150940000Y-112503750D02*
X150940000Y-113016250D01*
G75*
G02*
X150721250Y-113235000I-218750J0D01*
G01*
X150283750Y-113235000D01*
G75*
G02*
X150065000Y-113016250I0J218750D01*
G01*
X150065000Y-112503750D01*
G75*
G02*
X150283750Y-112285000I218750J0D01*
G01*
X150721250Y-112285000D01*
G75*
G02*
X150940000Y-112503750I0J-218750D01*
G01*
G37*
G36*
G01*
X162485620Y-114489040D02*
X162485620Y-113989040D01*
G75*
G02*
X162710620Y-113764040I225000J0D01*
G01*
X163160620Y-113764040D01*
G75*
G02*
X163385620Y-113989040I0J-225000D01*
G01*
X163385620Y-114489040D01*
G75*
G02*
X163160620Y-114714040I-225000J0D01*
G01*
X162710620Y-114714040D01*
G75*
G02*
X162485620Y-114489040I0J225000D01*
G01*
G37*
G36*
G01*
X164035620Y-114489040D02*
X164035620Y-113989040D01*
G75*
G02*
X164260620Y-113764040I225000J0D01*
G01*
X164710620Y-113764040D01*
G75*
G02*
X164935620Y-113989040I0J-225000D01*
G01*
X164935620Y-114489040D01*
G75*
G02*
X164710620Y-114714040I-225000J0D01*
G01*
X164260620Y-114714040D01*
G75*
G02*
X164035620Y-114489040I0J225000D01*
G01*
G37*
D11*
X173982380Y-127491780D03*
X173982380Y-129591780D03*
G36*
G01*
X170654160Y-127088220D02*
X170654160Y-127638220D01*
G75*
G02*
X170454160Y-127838220I-200000J0D01*
G01*
X170054160Y-127838220D01*
G75*
G02*
X169854160Y-127638220I0J200000D01*
G01*
X169854160Y-127088220D01*
G75*
G02*
X170054160Y-126888220I200000J0D01*
G01*
X170454160Y-126888220D01*
G75*
G02*
X170654160Y-127088220I0J-200000D01*
G01*
G37*
G36*
G01*
X172304160Y-127088220D02*
X172304160Y-127638220D01*
G75*
G02*
X172104160Y-127838220I-200000J0D01*
G01*
X171704160Y-127838220D01*
G75*
G02*
X171504160Y-127638220I0J200000D01*
G01*
X171504160Y-127088220D01*
G75*
G02*
X171704160Y-126888220I200000J0D01*
G01*
X172104160Y-126888220D01*
G75*
G02*
X172304160Y-127088220I0J-200000D01*
G01*
G37*
G36*
G01*
X169269960Y-124834060D02*
X169269960Y-124284060D01*
G75*
G02*
X169469960Y-124084060I200000J0D01*
G01*
X169869960Y-124084060D01*
G75*
G02*
X170069960Y-124284060I0J-200000D01*
G01*
X170069960Y-124834060D01*
G75*
G02*
X169869960Y-125034060I-200000J0D01*
G01*
X169469960Y-125034060D01*
G75*
G02*
X169269960Y-124834060I0J200000D01*
G01*
G37*
G36*
G01*
X170919960Y-124834060D02*
X170919960Y-124284060D01*
G75*
G02*
X171119960Y-124084060I200000J0D01*
G01*
X171519960Y-124084060D01*
G75*
G02*
X171719960Y-124284060I0J-200000D01*
G01*
X171719960Y-124834060D01*
G75*
G02*
X171519960Y-125034060I-200000J0D01*
G01*
X171119960Y-125034060D01*
G75*
G02*
X170919960Y-124834060I0J200000D01*
G01*
G37*
G36*
G01*
X158221000Y-109427560D02*
X158771000Y-109427560D01*
G75*
G02*
X158971000Y-109627560I0J-200000D01*
G01*
X158971000Y-110027560D01*
G75*
G02*
X158771000Y-110227560I-200000J0D01*
G01*
X158221000Y-110227560D01*
G75*
G02*
X158021000Y-110027560I0J200000D01*
G01*
X158021000Y-109627560D01*
G75*
G02*
X158221000Y-109427560I200000J0D01*
G01*
G37*
G36*
G01*
X158221000Y-111077560D02*
X158771000Y-111077560D01*
G75*
G02*
X158971000Y-111277560I0J-200000D01*
G01*
X158971000Y-111677560D01*
G75*
G02*
X158771000Y-111877560I-200000J0D01*
G01*
X158221000Y-111877560D01*
G75*
G02*
X158021000Y-111677560I0J200000D01*
G01*
X158021000Y-111277560D01*
G75*
G02*
X158221000Y-111077560I200000J0D01*
G01*
G37*
D12*
X173609180Y-115227060D03*
X173609180Y-116177060D03*
X173609180Y-117127060D03*
X171409180Y-117127060D03*
X171409180Y-115227060D03*
M02*
