G04 #@! TF.GenerationSoftware,KiCad,Pcbnew,5.1.4-1.fc30*
G04 #@! TF.CreationDate,2020-04-06T19:08:27+02:00*
G04 #@! TF.ProjectId,ring,72696e67-2e6b-4696-9361-645f70636258,v0.5.2*
G04 #@! TF.SameCoordinates,Original*
G04 #@! TF.FileFunction,Legend,Top*
G04 #@! TF.FilePolarity,Positive*
%FSLAX46Y46*%
G04 Gerber Fmt 4.6, Leading zero omitted, Abs format (unit mm)*
G04 Created by KiCad (PCBNEW 5.1.4-1.fc30) date 2020-04-06 19:08:27*
%MOMM*%
%LPD*%
G04 APERTURE LIST*
%ADD10C,0.250000*%
%ADD11C,0.150000*%
%ADD12C,0.100000*%
%ADD13C,0.120000*%
G04 APERTURE END LIST*
D10*
X150018928Y-37160200D02*
X149828452Y-37350676D01*
X149637976Y-37160200D01*
X149828452Y-36969723D01*
X150018928Y-37160200D01*
X149637976Y-37160200D01*
X167485400Y-54566471D02*
X167675876Y-54756947D01*
X167485400Y-54947423D01*
X167294923Y-54756947D01*
X167485400Y-54566471D01*
X167485400Y-54947423D01*
D11*
X181262416Y-47000897D02*
X182071433Y-47588682D01*
X174154600Y-52771729D02*
X174561336Y-53685274D01*
X178823798Y-49788115D02*
X179492928Y-50531260D01*
D12*
X179527239Y-49466250D02*
X180017004Y-49966381D01*
X168889202Y-54406143D02*
X168947776Y-55103688D01*
X179801950Y-49204239D02*
X180302081Y-49694004D01*
X173326518Y-53434294D02*
X173570519Y-54090391D01*
X169574511Y-54293230D02*
X169662244Y-54987710D01*
X173040658Y-53546347D02*
X173270865Y-54207410D01*
X170596262Y-54143942D02*
X170727429Y-54831543D01*
X174896298Y-52761657D02*
X175207543Y-53388656D01*
X176594621Y-51825429D02*
X176969700Y-52416459D01*
X177256674Y-51362869D02*
X177656173Y-51937673D01*
X168254739Y-54430711D02*
X168284052Y-55130097D01*
D11*
X170917144Y-53783904D02*
X171125056Y-54762052D01*
D12*
X171656348Y-53957781D02*
X171830431Y-54635790D01*
X171345288Y-54032400D02*
X171505134Y-54713905D01*
D10*
X176138914Y-52671720D02*
X175878718Y-52602001D01*
X175948438Y-52341806D01*
X176208633Y-52411525D01*
X176138914Y-52671720D01*
X175948438Y-52341806D01*
D12*
X181923441Y-46583559D02*
X182506486Y-46970933D01*
X175195189Y-52599568D02*
X175519496Y-53219911D01*
X178741783Y-50240184D02*
X179199177Y-50770081D01*
X168565616Y-54405658D02*
X168609569Y-55104276D01*
X178193203Y-50663530D02*
X178628006Y-51212115D01*
X173625127Y-53335070D02*
X173882814Y-53985914D01*
D11*
X177387397Y-50901316D02*
X177975182Y-51710333D01*
D12*
X181088130Y-47806703D02*
X181636715Y-48241506D01*
D11*
X169224013Y-54068597D02*
X169328541Y-55063119D01*
D12*
X176944659Y-51600441D02*
X177332033Y-52183486D01*
D11*
X180136515Y-48462698D02*
X180879660Y-49131828D01*
D12*
X172329373Y-53758148D02*
X172531695Y-54428272D01*
X174597469Y-52923871D02*
X174895515Y-53557250D01*
X177906343Y-50900765D02*
X178329562Y-51458336D01*
X181299965Y-47481743D02*
X181857536Y-47904962D01*
X170221789Y-54231667D02*
X170338528Y-54921865D01*
X182110329Y-46309721D02*
X182701359Y-46684800D01*
X181736669Y-46870174D02*
X182311473Y-47269673D01*
X180575884Y-48342583D02*
X181105781Y-48799977D01*
X184715611Y-37966739D02*
X185414997Y-37996052D01*
X184693958Y-38306116D02*
X185392576Y-38350069D01*
X184678343Y-38667802D02*
X185375888Y-38726376D01*
D10*
X182972820Y-45915714D02*
X182712625Y-45985433D01*
X182642906Y-45725238D01*
X182903101Y-45655518D01*
X182972820Y-45915714D01*
X182642906Y-45725238D01*
D12*
X184540930Y-39727540D02*
X185233421Y-39829798D01*
X184501327Y-40107069D02*
X185191525Y-40223808D01*
X184603530Y-39365811D02*
X185298010Y-39453544D01*
X184431382Y-40456142D02*
X185118983Y-40587309D01*
X184128381Y-41612748D02*
X184806390Y-41786831D01*
X184041198Y-41961942D02*
X184715412Y-42150185D01*
X184241100Y-41250888D02*
X184922605Y-41410734D01*
X183954148Y-42285773D02*
X184624272Y-42488095D01*
D11*
X184340797Y-38977213D02*
X185335319Y-39081741D01*
X184056104Y-40822744D02*
X185034252Y-41030656D01*
X183573060Y-42542306D02*
X184524116Y-42851323D01*
X182980429Y-44034800D02*
X183893974Y-44441536D01*
D12*
X180064059Y-48942326D02*
X180574337Y-49421509D01*
D11*
X172598606Y-53351660D02*
X172907623Y-54302716D01*
D12*
X173949186Y-53197876D02*
X174220447Y-53843180D01*
X183617594Y-43244818D02*
X184273691Y-43488819D01*
X183492970Y-43530727D02*
X184143814Y-43788414D01*
X183716947Y-42946258D02*
X184378010Y-43176465D01*
X183381176Y-43854786D02*
X184026480Y-44126047D01*
X182944957Y-44751098D02*
X183571956Y-45062343D01*
X182820968Y-45024589D02*
X183441311Y-45348896D01*
X183107171Y-44477669D02*
X183740550Y-44775715D01*
X180851004Y-48106349D02*
X181390363Y-48552545D01*
X169885440Y-54256030D02*
X169987698Y-54948521D01*
X171980142Y-53845198D02*
X172168385Y-54519412D01*
X178480149Y-50439104D02*
X178926345Y-50978463D01*
X179265326Y-49741059D02*
X179744509Y-50251337D01*
D11*
X157589102Y-50932416D02*
X157001317Y-51741433D01*
X151818270Y-43824600D02*
X150904725Y-44231336D01*
X154801884Y-48493798D02*
X154058739Y-49162928D01*
D12*
X155123749Y-49197239D02*
X154623618Y-49687004D01*
X150183856Y-38559202D02*
X149486311Y-38617776D01*
X155385760Y-49471950D02*
X154895995Y-49972081D01*
X151155705Y-42996518D02*
X150499608Y-43240519D01*
X150296769Y-39244511D02*
X149602289Y-39332244D01*
X151043652Y-42710658D02*
X150382589Y-42940865D01*
X150446057Y-40266262D02*
X149758456Y-40397429D01*
X151828342Y-44566298D02*
X151201343Y-44877543D01*
X152764570Y-46264621D02*
X152173540Y-46639700D01*
X153227130Y-46926674D02*
X152652326Y-47326173D01*
X150159288Y-37924739D02*
X149459902Y-37954052D01*
D11*
X150806095Y-40587144D02*
X149827947Y-40795056D01*
D12*
X150632218Y-41326348D02*
X149954209Y-41500431D01*
X150557599Y-41015288D02*
X149876094Y-41175134D01*
D10*
X151918279Y-45808914D02*
X151987998Y-45548718D01*
X152248193Y-45618438D01*
X152178474Y-45878633D01*
X151918279Y-45808914D01*
X152248193Y-45618438D01*
D12*
X158006440Y-51593441D02*
X157619066Y-52176486D01*
X151990431Y-44865189D02*
X151370088Y-45189496D01*
X154349815Y-48411783D02*
X153819918Y-48869177D01*
X150184341Y-38235616D02*
X149485723Y-38279569D01*
X153926469Y-47863203D02*
X153377884Y-48298006D01*
X151254929Y-43295127D02*
X150604085Y-43552814D01*
D11*
X153688683Y-47057397D02*
X152879666Y-47645182D01*
D12*
X156783296Y-50758130D02*
X156348493Y-51306715D01*
D11*
X150521402Y-38894013D02*
X149526880Y-38998541D01*
D12*
X152989558Y-46614659D02*
X152406513Y-47002033D01*
D11*
X156127301Y-49806515D02*
X155458171Y-50549660D01*
D12*
X150831851Y-41999373D02*
X150161727Y-42201695D01*
X151666128Y-44267469D02*
X151032749Y-44565515D01*
X153689234Y-47576343D02*
X153131663Y-47999562D01*
X157108256Y-50969965D02*
X156685037Y-51527536D01*
X150358332Y-39891789D02*
X149668134Y-40008528D01*
X158280278Y-51780329D02*
X157905199Y-52371359D01*
X157719825Y-51406669D02*
X157320326Y-51981473D01*
X156247416Y-50245884D02*
X155790022Y-50775781D01*
X166623260Y-54385611D02*
X166593947Y-55084997D01*
X166283883Y-54363958D02*
X166239930Y-55062576D01*
X165922197Y-54348343D02*
X165863623Y-55045888D01*
D10*
X158674285Y-52642820D02*
X158604566Y-52382625D01*
X158864761Y-52312906D01*
X158934481Y-52573101D01*
X158674285Y-52642820D01*
X158864761Y-52312906D01*
D12*
X164862459Y-54210930D02*
X164760201Y-54903421D01*
X164482930Y-54171327D02*
X164366191Y-54861525D01*
X165224188Y-54273530D02*
X165136455Y-54968010D01*
X164133857Y-54101382D02*
X164002690Y-54788983D01*
X162977251Y-53798381D02*
X162803168Y-54476390D01*
X162628057Y-53711198D02*
X162439814Y-54385412D01*
X163339111Y-53911100D02*
X163179265Y-54592605D01*
X162304226Y-53624148D02*
X162101904Y-54294272D01*
D11*
X165612786Y-54010797D02*
X165508258Y-55005319D01*
X163767255Y-53726104D02*
X163559343Y-54704252D01*
X162047693Y-53243060D02*
X161738676Y-54194116D01*
X160555199Y-52650429D02*
X160148463Y-53563974D01*
D12*
X155647673Y-49734059D02*
X155168490Y-50244337D01*
D11*
X151238339Y-42268606D02*
X150287283Y-42577623D01*
D12*
X151392123Y-43619186D02*
X150746819Y-43890447D01*
X161345181Y-53287594D02*
X161101180Y-53943691D01*
X161059272Y-53162970D02*
X160801585Y-53813814D01*
X161643741Y-53386947D02*
X161413534Y-54048010D01*
X160735213Y-53051176D02*
X160463952Y-53696480D01*
X159838901Y-52614957D02*
X159527656Y-53241956D01*
X159565410Y-52490968D02*
X159241103Y-53111311D01*
X160112330Y-52777171D02*
X159814284Y-53410550D01*
X156483650Y-50521004D02*
X156037454Y-51060363D01*
X150333969Y-39555440D02*
X149641478Y-39657698D01*
X150744801Y-41650142D02*
X150070587Y-41838385D01*
X154150895Y-48150149D02*
X153611536Y-48596345D01*
X154848940Y-48935326D02*
X154338662Y-49414509D01*
D11*
X153657583Y-27259102D02*
X152848566Y-26671317D01*
X160765399Y-21488270D02*
X160358663Y-20574725D01*
X156096201Y-24471884D02*
X155427071Y-23728739D01*
D12*
X155392760Y-24793749D02*
X154902995Y-24293618D01*
X166030797Y-19853856D02*
X165972223Y-19156311D01*
X155118049Y-25055760D02*
X154617918Y-24565995D01*
X161593481Y-20825705D02*
X161349480Y-20169608D01*
X165345488Y-19966769D02*
X165257755Y-19272289D01*
X161879341Y-20713652D02*
X161649134Y-20052589D01*
X164323737Y-20116057D02*
X164192570Y-19428456D01*
X160023701Y-21498342D02*
X159712456Y-20871343D01*
X158325378Y-22434570D02*
X157950299Y-21843540D01*
X157663325Y-22897130D02*
X157263826Y-22322326D01*
X166665260Y-19829288D02*
X166635947Y-19129902D01*
D11*
X164002855Y-20476095D02*
X163794943Y-19497947D01*
D12*
X163263651Y-20302218D02*
X163089568Y-19624209D01*
X163574711Y-20227599D02*
X163414865Y-19546094D01*
D10*
X158781085Y-21588279D02*
X159041281Y-21657998D01*
X158971561Y-21918193D01*
X158711366Y-21848474D01*
X158781085Y-21588279D01*
X158971561Y-21918193D01*
D12*
X152996558Y-27676440D02*
X152413513Y-27289066D01*
X159724810Y-21660431D02*
X159400503Y-21040088D01*
X156178216Y-24019815D02*
X155720822Y-23489918D01*
X166354383Y-19854341D02*
X166310430Y-19155723D01*
X156726796Y-23596469D02*
X156291993Y-23047884D01*
X161294872Y-20924929D02*
X161037185Y-20274085D01*
D11*
X157532602Y-23358683D02*
X156944817Y-22549666D01*
D12*
X153831869Y-26453296D02*
X153283284Y-26018493D01*
D11*
X165695986Y-20191402D02*
X165591458Y-19196880D01*
D12*
X157975340Y-22659558D02*
X157587966Y-22076513D01*
D11*
X154783484Y-25797301D02*
X154040339Y-25128171D01*
D12*
X162590626Y-20501851D02*
X162388304Y-19831727D01*
X160322530Y-21336128D02*
X160024484Y-20702749D01*
X157013656Y-23359234D02*
X156590437Y-22801663D01*
X153620034Y-26778256D02*
X153062463Y-26355037D01*
X164698210Y-20028332D02*
X164581471Y-19338134D01*
X152809670Y-27950278D02*
X152218640Y-27575199D01*
X153183330Y-27389825D02*
X152608526Y-26990326D01*
X154344115Y-25917416D02*
X153814218Y-25460022D01*
X150204388Y-36293260D02*
X149505002Y-36263947D01*
X150226041Y-35953883D02*
X149527423Y-35909930D01*
X150241656Y-35592197D02*
X149544111Y-35533623D01*
D10*
X151947179Y-28344285D02*
X152207374Y-28274566D01*
X152277093Y-28534761D01*
X152016898Y-28604481D01*
X151947179Y-28344285D01*
X152277093Y-28534761D01*
D12*
X150379069Y-34532459D02*
X149686578Y-34430201D01*
X150418672Y-34152930D02*
X149728474Y-34036191D01*
X150316469Y-34894188D02*
X149621989Y-34806455D01*
X150488617Y-33803857D02*
X149801016Y-33672690D01*
X150791618Y-32647251D02*
X150113609Y-32473168D01*
X150878801Y-32298057D02*
X150204587Y-32109814D01*
X150678899Y-33009111D02*
X149997394Y-32849265D01*
X150965851Y-31974226D02*
X150295727Y-31771904D01*
D11*
X150579202Y-35282786D02*
X149584680Y-35178258D01*
X150863895Y-33437255D02*
X149885747Y-33229343D01*
X151346939Y-31717693D02*
X150395883Y-31408676D01*
X151939570Y-30225199D02*
X151026025Y-29818463D01*
D12*
X154855940Y-25317673D02*
X154345662Y-24838490D01*
D11*
X162321393Y-20908339D02*
X162012376Y-19957283D01*
D12*
X160970813Y-21062123D02*
X160699552Y-20416819D01*
X151302405Y-31015181D02*
X150646308Y-30771180D01*
X151427029Y-30729272D02*
X150776185Y-30471585D01*
X151203052Y-31313741D02*
X150541989Y-31083534D01*
X151538823Y-30405213D02*
X150893519Y-30133952D01*
X151975042Y-29508901D02*
X151348043Y-29197656D01*
X152099031Y-29235410D02*
X151478688Y-28911103D01*
X151812828Y-29782330D02*
X151179449Y-29484284D01*
X154068995Y-26153650D02*
X153529636Y-25707454D01*
X165034559Y-20003969D02*
X164932301Y-19311478D01*
X162939857Y-20414801D02*
X162751614Y-19740587D01*
X156439850Y-23820895D02*
X155993654Y-23281536D01*
X155654673Y-24518940D02*
X155175490Y-24008662D01*
D10*
X185274128Y-37109400D02*
X185083652Y-37299876D01*
X184893176Y-37109400D01*
X185083652Y-36918923D01*
X185274128Y-37109400D01*
X184893176Y-37109400D01*
D11*
X183101729Y-30435399D02*
X184015274Y-30028663D01*
X184113904Y-33672855D02*
X185092052Y-33464943D01*
D12*
X184287781Y-32933651D02*
X184965790Y-32759568D01*
X184175198Y-32609857D02*
X184849412Y-32421614D01*
X184760711Y-36335260D02*
X185460097Y-36305947D01*
X184736143Y-35700797D02*
X185433688Y-35642223D01*
X183091657Y-29693701D02*
X183718656Y-29382456D01*
X184473942Y-33993737D02*
X185161543Y-33862570D01*
X184586030Y-34704559D02*
X185278521Y-34602301D01*
D11*
X184398597Y-35365986D02*
X185393119Y-35261458D01*
D12*
X183665070Y-30964872D02*
X184315914Y-30707185D01*
X184735658Y-36024383D02*
X185434276Y-35980430D01*
D11*
X183681660Y-31991393D02*
X184632716Y-31682376D01*
D12*
X184623230Y-35015488D02*
X185317710Y-34927755D01*
X183527876Y-30640813D02*
X184173180Y-30369552D01*
X182929568Y-29394810D02*
X183549911Y-29070503D01*
X183253871Y-29992530D02*
X183887250Y-29694484D01*
X183876347Y-31549341D02*
X184537410Y-31319134D01*
X184088148Y-32260626D02*
X184758272Y-32058304D01*
X183764294Y-31263481D02*
X184420391Y-31019480D01*
X184561667Y-34368210D02*
X185251865Y-34251471D01*
X184362400Y-33244711D02*
X185043905Y-33084865D01*
D10*
X183001720Y-28451085D02*
X182932001Y-28711281D01*
X182671806Y-28641561D01*
X182741525Y-28381366D01*
X183001720Y-28451085D01*
X182671806Y-28641561D01*
D12*
X182155429Y-27995378D02*
X182746459Y-27620299D01*
X181692869Y-27333325D02*
X182267673Y-26933826D01*
X181930441Y-27645340D02*
X182513486Y-27257966D01*
D11*
X181231316Y-27202602D02*
X182040333Y-26614817D01*
D12*
X180993530Y-26396796D02*
X181542115Y-25961993D01*
X180570184Y-25848216D02*
X181100081Y-25390822D01*
X180769104Y-26109850D02*
X181308463Y-25663654D01*
X181230765Y-26683656D02*
X181788336Y-26260437D01*
D11*
X180118115Y-25766201D02*
X180861260Y-25097071D01*
D12*
X179796250Y-25062760D02*
X180296381Y-24572995D01*
X179272326Y-24525940D02*
X179751509Y-24015662D01*
X179534239Y-24788049D02*
X180024004Y-24287918D01*
X180071059Y-25324673D02*
X180581337Y-24845490D01*
D11*
X178792698Y-24453484D02*
X179461828Y-23710339D01*
D12*
X178436349Y-23738995D02*
X178882545Y-23199636D01*
X177811743Y-23290034D02*
X178234962Y-22732463D01*
X178136703Y-23501869D02*
X178571506Y-22953284D01*
X178672583Y-24014115D02*
X179129977Y-23484218D01*
X176639721Y-22479670D02*
X177014800Y-21888640D01*
X176913559Y-22666558D02*
X177300933Y-22083513D01*
X177200174Y-22853330D02*
X177599673Y-22278526D01*
D11*
X177330897Y-23327583D02*
X177918682Y-22518566D01*
D12*
X174807669Y-21482828D02*
X175105715Y-20849449D01*
X175354589Y-21769031D02*
X175678896Y-21148688D01*
X175081098Y-21645042D02*
X175392343Y-21018043D01*
X174184786Y-21208823D02*
X174456047Y-20563519D01*
X173276258Y-20873052D02*
X173506465Y-20211989D01*
X173860727Y-21097029D02*
X174118414Y-20446185D01*
X173574818Y-20972405D02*
X173818819Y-20316308D01*
X172615773Y-20635851D02*
X172818095Y-19965727D01*
X171580888Y-20348899D02*
X171740734Y-19667394D01*
X172291942Y-20548801D02*
X172480185Y-19874587D01*
X171942748Y-20461618D02*
X172116831Y-19783609D01*
X170786142Y-20158617D02*
X170917309Y-19471016D01*
X169695811Y-19986469D02*
X169783544Y-19291989D01*
X170437069Y-20088672D02*
X170553808Y-19398474D01*
X170057540Y-20049069D02*
X170159798Y-19356578D01*
D10*
X167460000Y-19298571D02*
X167650476Y-19489047D01*
X167460000Y-19679523D01*
X167269523Y-19489047D01*
X167460000Y-19298571D01*
X167460000Y-19679523D01*
X176245714Y-21617179D02*
X176315433Y-21877374D01*
X176055238Y-21947093D01*
X175985518Y-21686898D01*
X176245714Y-21617179D01*
X176055238Y-21947093D01*
D12*
X168997802Y-19911656D02*
X169056376Y-19214111D01*
X168636116Y-19896041D02*
X168680069Y-19197423D01*
X168296739Y-19874388D02*
X168326052Y-19175002D01*
D11*
X174364800Y-21609570D02*
X174771536Y-20696025D01*
X172872306Y-21016939D02*
X173181323Y-20065883D01*
X171152744Y-20533895D02*
X171360656Y-19555747D01*
X169307213Y-20249202D02*
X169411741Y-19254680D01*
D13*
X185494772Y-37130000D02*
G75*
G03X185494772Y-37130000I-18034772J0D01*
G01*
X187310426Y-37130000D02*
G75*
G03X187310426Y-37130000I-19850426J0D01*
G01*
M02*
