G04 #@! TF.GenerationSoftware,KiCad,Pcbnew,5.1.4-1.fc30*
G04 #@! TF.CreationDate,2020-04-06T19:08:27+02:00*
G04 #@! TF.ProjectId,ring,72696e67-2e6b-4696-9361-645f70636258,v0.5.2*
G04 #@! TF.SameCoordinates,Original*
G04 #@! TF.FileFunction,Profile,NP*
%FSLAX46Y46*%
G04 Gerber Fmt 4.6, Leading zero omitted, Abs format (unit mm)*
G04 Created by KiCad (PCBNEW 5.1.4-1.fc30) date 2020-04-06 19:08:27*
%MOMM*%
%LPD*%
G04 APERTURE LIST*
%ADD10C,0.200000*%
%ADD11C,0.500000*%
G04 APERTURE END LIST*
D10*
X188450000Y-42500000D02*
G75*
G03X188450000Y-42500000I-1200000J0D01*
G01*
D11*
X182610000Y-16120000D02*
X183963267Y-22583709D01*
X178280000Y-16120000D02*
X182610000Y-16120000D01*
X179020000Y-59730000D02*
X178281065Y-53961656D01*
X155980000Y-59730000D02*
X156638934Y-53961656D01*
X156638934Y-53961656D02*
G75*
G03X167460000Y-57140000I10821066J16831656D01*
G01*
X178281065Y-53961656D02*
G75*
G02X167460000Y-57140000I-10821065J16831656D01*
G01*
X179020000Y-59730000D02*
X183540000Y-59730000D01*
X155980000Y-59730000D02*
X151460000Y-59730000D01*
D10*
X155340000Y-18710000D02*
G75*
G03X155340000Y-18710000I-1200000J0D01*
G01*
D11*
X183963266Y-51676293D02*
X183540000Y-59730000D01*
X150956734Y-51676293D02*
X151460000Y-59730000D01*
X178280000Y-16120000D02*
X178280000Y-20300000D01*
X178281066Y-20298344D02*
G75*
G03X167460000Y-17120000I-10821066J-16831656D01*
G01*
X156638935Y-20298344D02*
G75*
G02X167460000Y-17120000I10821065J-16831656D01*
G01*
X156640000Y-16120000D02*
X156640000Y-20300000D01*
D10*
X150100000Y-44400000D02*
G75*
G03X150100000Y-44400000I-1200000J0D01*
G01*
D11*
X152310000Y-16120000D02*
X150960001Y-22580001D01*
X156640000Y-16120000D02*
X152310000Y-16120000D01*
D10*
X181980000Y-18710000D02*
G75*
G03X181980000Y-18710000I-1200000J0D01*
G01*
D11*
X183963268Y-22583708D02*
G75*
G02X183963266Y-51676293I-16503268J-14546292D01*
G01*
X150956734Y-51676293D02*
G75*
G02X150960001Y-22580001I16503266J14546293D01*
G01*
X180960000Y-37130000D02*
G75*
G03X180960000Y-37130000I-13500000J0D01*
G01*
M02*
