G04 #@! TF.GenerationSoftware,KiCad,Pcbnew,5.1.8-1.fc33*
G04 #@! TF.CreationDate,2021-08-02T18:24:44+02:00*
G04 #@! TF.ProjectId,ring,72696e67-2e6b-4696-9361-645f70636258,v0.5.2*
G04 #@! TF.SameCoordinates,Original*
G04 #@! TF.FileFunction,Legend,Top*
G04 #@! TF.FilePolarity,Positive*
%FSLAX46Y46*%
G04 Gerber Fmt 4.6, Leading zero omitted, Abs format (unit mm)*
G04 Created by KiCad (PCBNEW 5.1.8-1.fc33) date 2021-08-02 18:24:44*
%MOMM*%
%LPD*%
G01*
G04 APERTURE LIST*
%ADD10C,0.100000*%
%ADD11C,0.150000*%
%ADD12C,0.300000*%
%ADD13C,0.400000*%
%ADD14C,0.200000*%
%ADD15C,0.250000*%
%ADD16C,0.120000*%
G04 APERTURE END LIST*
D10*
D11*
X177002200Y-166007200D02*
X177002200Y-198007200D01*
X285002200Y-198007200D01*
X285002200Y-166007200D01*
X177002200Y-166007200D01*
D10*
D11*
X10000000Y-10000000D02*
X10000000Y-200007200D01*
X287002200Y-200007200D01*
X287002200Y-10000000D01*
X10000000Y-10000000D01*
D10*
D11*
X12000000Y-12000000D02*
X12000000Y-198007200D01*
X285002200Y-198007200D01*
X285002200Y-12000000D01*
X12000000Y-12000000D01*
D10*
D11*
X60000000Y-12000000D02*
X60000000Y-10000000D01*
D10*
D11*
X110000000Y-12000000D02*
X110000000Y-10000000D01*
D10*
D11*
X160000000Y-12000000D02*
X160000000Y-10000000D01*
D10*
D11*
X210000000Y-12000000D02*
X210000000Y-10000000D01*
D10*
D11*
X260000000Y-12000000D02*
X260000000Y-10000000D01*
D10*
D11*
X36065476Y-11588095D02*
X35322619Y-11588095D01*
X35694047Y-11588095D02*
X35694047Y-10288095D01*
X35570238Y-10473809D01*
X35446428Y-10597619D01*
X35322619Y-10659523D01*
D10*
D11*
X85322619Y-10411904D02*
X85384523Y-10350000D01*
X85508333Y-10288095D01*
X85817857Y-10288095D01*
X85941666Y-10350000D01*
X86003571Y-10411904D01*
X86065476Y-10535714D01*
X86065476Y-10659523D01*
X86003571Y-10845238D01*
X85260714Y-11588095D01*
X86065476Y-11588095D01*
D10*
D11*
X135260714Y-10288095D02*
X136065476Y-10288095D01*
X135632142Y-10783333D01*
X135817857Y-10783333D01*
X135941666Y-10845238D01*
X136003571Y-10907142D01*
X136065476Y-11030952D01*
X136065476Y-11340476D01*
X136003571Y-11464285D01*
X135941666Y-11526190D01*
X135817857Y-11588095D01*
X135446428Y-11588095D01*
X135322619Y-11526190D01*
X135260714Y-11464285D01*
D10*
D11*
X185941666Y-10721428D02*
X185941666Y-11588095D01*
X185632142Y-10226190D02*
X185322619Y-11154761D01*
X186127380Y-11154761D01*
D10*
D11*
X236003571Y-10288095D02*
X235384523Y-10288095D01*
X235322619Y-10907142D01*
X235384523Y-10845238D01*
X235508333Y-10783333D01*
X235817857Y-10783333D01*
X235941666Y-10845238D01*
X236003571Y-10907142D01*
X236065476Y-11030952D01*
X236065476Y-11340476D01*
X236003571Y-11464285D01*
X235941666Y-11526190D01*
X235817857Y-11588095D01*
X235508333Y-11588095D01*
X235384523Y-11526190D01*
X235322619Y-11464285D01*
D10*
D11*
X285941666Y-10288095D02*
X285694047Y-10288095D01*
X285570238Y-10350000D01*
X285508333Y-10411904D01*
X285384523Y-10597619D01*
X285322619Y-10845238D01*
X285322619Y-11340476D01*
X285384523Y-11464285D01*
X285446428Y-11526190D01*
X285570238Y-11588095D01*
X285817857Y-11588095D01*
X285941666Y-11526190D01*
X286003571Y-11464285D01*
X286065476Y-11340476D01*
X286065476Y-11030952D01*
X286003571Y-10907142D01*
X285941666Y-10845238D01*
X285817857Y-10783333D01*
X285570238Y-10783333D01*
X285446428Y-10845238D01*
X285384523Y-10907142D01*
X285322619Y-11030952D01*
D10*
D11*
X60000000Y-198007200D02*
X60000000Y-200007200D01*
D10*
D11*
X110000000Y-198007200D02*
X110000000Y-200007200D01*
D10*
D11*
X160000000Y-198007200D02*
X160000000Y-200007200D01*
D10*
D11*
X210000000Y-198007200D02*
X210000000Y-200007200D01*
D10*
D11*
X260000000Y-198007200D02*
X260000000Y-200007200D01*
D10*
D11*
X36065476Y-199595295D02*
X35322619Y-199595295D01*
X35694047Y-199595295D02*
X35694047Y-198295295D01*
X35570238Y-198481009D01*
X35446428Y-198604819D01*
X35322619Y-198666723D01*
D10*
D11*
X85322619Y-198419104D02*
X85384523Y-198357200D01*
X85508333Y-198295295D01*
X85817857Y-198295295D01*
X85941666Y-198357200D01*
X86003571Y-198419104D01*
X86065476Y-198542914D01*
X86065476Y-198666723D01*
X86003571Y-198852438D01*
X85260714Y-199595295D01*
X86065476Y-199595295D01*
D10*
D11*
X135260714Y-198295295D02*
X136065476Y-198295295D01*
X135632142Y-198790533D01*
X135817857Y-198790533D01*
X135941666Y-198852438D01*
X136003571Y-198914342D01*
X136065476Y-199038152D01*
X136065476Y-199347676D01*
X136003571Y-199471485D01*
X135941666Y-199533390D01*
X135817857Y-199595295D01*
X135446428Y-199595295D01*
X135322619Y-199533390D01*
X135260714Y-199471485D01*
D10*
D11*
X185941666Y-198728628D02*
X185941666Y-199595295D01*
X185632142Y-198233390D02*
X185322619Y-199161961D01*
X186127380Y-199161961D01*
D10*
D11*
X236003571Y-198295295D02*
X235384523Y-198295295D01*
X235322619Y-198914342D01*
X235384523Y-198852438D01*
X235508333Y-198790533D01*
X235817857Y-198790533D01*
X235941666Y-198852438D01*
X236003571Y-198914342D01*
X236065476Y-199038152D01*
X236065476Y-199347676D01*
X236003571Y-199471485D01*
X235941666Y-199533390D01*
X235817857Y-199595295D01*
X235508333Y-199595295D01*
X235384523Y-199533390D01*
X235322619Y-199471485D01*
D10*
D11*
X285941666Y-198295295D02*
X285694047Y-198295295D01*
X285570238Y-198357200D01*
X285508333Y-198419104D01*
X285384523Y-198604819D01*
X285322619Y-198852438D01*
X285322619Y-199347676D01*
X285384523Y-199471485D01*
X285446428Y-199533390D01*
X285570238Y-199595295D01*
X285817857Y-199595295D01*
X285941666Y-199533390D01*
X286003571Y-199471485D01*
X286065476Y-199347676D01*
X286065476Y-199038152D01*
X286003571Y-198914342D01*
X285941666Y-198852438D01*
X285817857Y-198790533D01*
X285570238Y-198790533D01*
X285446428Y-198852438D01*
X285384523Y-198914342D01*
X285322619Y-199038152D01*
D10*
D11*
X10000000Y-60000000D02*
X12000000Y-60000000D01*
D10*
D11*
X10000000Y-110000000D02*
X12000000Y-110000000D01*
D10*
D11*
X10000000Y-160000000D02*
X12000000Y-160000000D01*
D10*
D11*
X10690476Y-35216666D02*
X11309523Y-35216666D01*
X10566666Y-35588095D02*
X11000000Y-34288095D01*
X11433333Y-35588095D01*
D10*
D11*
X11092857Y-84907142D02*
X11278571Y-84969047D01*
X11340476Y-85030952D01*
X11402380Y-85154761D01*
X11402380Y-85340476D01*
X11340476Y-85464285D01*
X11278571Y-85526190D01*
X11154761Y-85588095D01*
X10659523Y-85588095D01*
X10659523Y-84288095D01*
X11092857Y-84288095D01*
X11216666Y-84350000D01*
X11278571Y-84411904D01*
X11340476Y-84535714D01*
X11340476Y-84659523D01*
X11278571Y-84783333D01*
X11216666Y-84845238D01*
X11092857Y-84907142D01*
X10659523Y-84907142D01*
D10*
D11*
X11402380Y-135464285D02*
X11340476Y-135526190D01*
X11154761Y-135588095D01*
X11030952Y-135588095D01*
X10845238Y-135526190D01*
X10721428Y-135402380D01*
X10659523Y-135278571D01*
X10597619Y-135030952D01*
X10597619Y-134845238D01*
X10659523Y-134597619D01*
X10721428Y-134473809D01*
X10845238Y-134350000D01*
X11030952Y-134288095D01*
X11154761Y-134288095D01*
X11340476Y-134350000D01*
X11402380Y-134411904D01*
D10*
D11*
X10659523Y-185588095D02*
X10659523Y-184288095D01*
X10969047Y-184288095D01*
X11154761Y-184350000D01*
X11278571Y-184473809D01*
X11340476Y-184597619D01*
X11402380Y-184845238D01*
X11402380Y-185030952D01*
X11340476Y-185278571D01*
X11278571Y-185402380D01*
X11154761Y-185526190D01*
X10969047Y-185588095D01*
X10659523Y-185588095D01*
D10*
D11*
X287002200Y-60000000D02*
X285002200Y-60000000D01*
D10*
D11*
X287002200Y-110000000D02*
X285002200Y-110000000D01*
D10*
D11*
X287002200Y-160000000D02*
X285002200Y-160000000D01*
D10*
D11*
X285692676Y-35216666D02*
X286311723Y-35216666D01*
X285568866Y-35588095D02*
X286002200Y-34288095D01*
X286435533Y-35588095D01*
D10*
D11*
X286095057Y-84907142D02*
X286280771Y-84969047D01*
X286342676Y-85030952D01*
X286404580Y-85154761D01*
X286404580Y-85340476D01*
X286342676Y-85464285D01*
X286280771Y-85526190D01*
X286156961Y-85588095D01*
X285661723Y-85588095D01*
X285661723Y-84288095D01*
X286095057Y-84288095D01*
X286218866Y-84350000D01*
X286280771Y-84411904D01*
X286342676Y-84535714D01*
X286342676Y-84659523D01*
X286280771Y-84783333D01*
X286218866Y-84845238D01*
X286095057Y-84907142D01*
X285661723Y-84907142D01*
D10*
D11*
X286404580Y-135464285D02*
X286342676Y-135526190D01*
X286156961Y-135588095D01*
X286033152Y-135588095D01*
X285847438Y-135526190D01*
X285723628Y-135402380D01*
X285661723Y-135278571D01*
X285599819Y-135030952D01*
X285599819Y-134845238D01*
X285661723Y-134597619D01*
X285723628Y-134473809D01*
X285847438Y-134350000D01*
X286033152Y-134288095D01*
X286156961Y-134288095D01*
X286342676Y-134350000D01*
X286404580Y-134411904D01*
D10*
D11*
X285661723Y-185588095D02*
X285661723Y-184288095D01*
X285971247Y-184288095D01*
X286156961Y-184350000D01*
X286280771Y-184473809D01*
X286342676Y-184597619D01*
X286404580Y-184845238D01*
X286404580Y-185030952D01*
X286342676Y-185278571D01*
X286280771Y-185402380D01*
X286156961Y-185526190D01*
X285971247Y-185588095D01*
X285661723Y-185588095D01*
D10*
D11*
X200434342Y-193785771D02*
X200434342Y-192285771D01*
X200791485Y-192285771D01*
X201005771Y-192357200D01*
X201148628Y-192500057D01*
X201220057Y-192642914D01*
X201291485Y-192928628D01*
X201291485Y-193142914D01*
X201220057Y-193428628D01*
X201148628Y-193571485D01*
X201005771Y-193714342D01*
X200791485Y-193785771D01*
X200434342Y-193785771D01*
X202577200Y-193785771D02*
X202577200Y-193000057D01*
X202505771Y-192857200D01*
X202362914Y-192785771D01*
X202077200Y-192785771D01*
X201934342Y-192857200D01*
X202577200Y-193714342D02*
X202434342Y-193785771D01*
X202077200Y-193785771D01*
X201934342Y-193714342D01*
X201862914Y-193571485D01*
X201862914Y-193428628D01*
X201934342Y-193285771D01*
X202077200Y-193214342D01*
X202434342Y-193214342D01*
X202577200Y-193142914D01*
X203077200Y-192785771D02*
X203648628Y-192785771D01*
X203291485Y-192285771D02*
X203291485Y-193571485D01*
X203362914Y-193714342D01*
X203505771Y-193785771D01*
X203648628Y-193785771D01*
X204720057Y-193714342D02*
X204577200Y-193785771D01*
X204291485Y-193785771D01*
X204148628Y-193714342D01*
X204077200Y-193571485D01*
X204077200Y-193000057D01*
X204148628Y-192857200D01*
X204291485Y-192785771D01*
X204577200Y-192785771D01*
X204720057Y-192857200D01*
X204791485Y-193000057D01*
X204791485Y-193142914D01*
X204077200Y-193285771D01*
X205434342Y-193642914D02*
X205505771Y-193714342D01*
X205434342Y-193785771D01*
X205362914Y-193714342D01*
X205434342Y-193642914D01*
X205434342Y-193785771D01*
X205434342Y-192857200D02*
X205505771Y-192928628D01*
X205434342Y-193000057D01*
X205362914Y-192928628D01*
X205434342Y-192857200D01*
X205434342Y-193000057D01*
X207220057Y-192428628D02*
X207291485Y-192357200D01*
X207434342Y-192285771D01*
X207791485Y-192285771D01*
X207934342Y-192357200D01*
X208005771Y-192428628D01*
X208077200Y-192571485D01*
X208077200Y-192714342D01*
X208005771Y-192928628D01*
X207148628Y-193785771D01*
X208077200Y-193785771D01*
X209005771Y-192285771D02*
X209148628Y-192285771D01*
X209291485Y-192357200D01*
X209362914Y-192428628D01*
X209434342Y-192571485D01*
X209505771Y-192857200D01*
X209505771Y-193214342D01*
X209434342Y-193500057D01*
X209362914Y-193642914D01*
X209291485Y-193714342D01*
X209148628Y-193785771D01*
X209005771Y-193785771D01*
X208862914Y-193714342D01*
X208791485Y-193642914D01*
X208720057Y-193500057D01*
X208648628Y-193214342D01*
X208648628Y-192857200D01*
X208720057Y-192571485D01*
X208791485Y-192428628D01*
X208862914Y-192357200D01*
X209005771Y-192285771D01*
X210077200Y-192428628D02*
X210148628Y-192357200D01*
X210291485Y-192285771D01*
X210648628Y-192285771D01*
X210791485Y-192357200D01*
X210862914Y-192428628D01*
X210934342Y-192571485D01*
X210934342Y-192714342D01*
X210862914Y-192928628D01*
X210005771Y-193785771D01*
X210934342Y-193785771D01*
X211862914Y-192285771D02*
X212005771Y-192285771D01*
X212148628Y-192357200D01*
X212220057Y-192428628D01*
X212291485Y-192571485D01*
X212362914Y-192857200D01*
X212362914Y-193214342D01*
X212291485Y-193500057D01*
X212220057Y-193642914D01*
X212148628Y-193714342D01*
X212005771Y-193785771D01*
X211862914Y-193785771D01*
X211720057Y-193714342D01*
X211648628Y-193642914D01*
X211577200Y-193500057D01*
X211505771Y-193214342D01*
X211505771Y-192857200D01*
X211577200Y-192571485D01*
X211648628Y-192428628D01*
X211720057Y-192357200D01*
X211862914Y-192285771D01*
X213005771Y-193214342D02*
X214148628Y-193214342D01*
X215148628Y-192285771D02*
X215291485Y-192285771D01*
X215434342Y-192357200D01*
X215505771Y-192428628D01*
X215577200Y-192571485D01*
X215648628Y-192857200D01*
X215648628Y-193214342D01*
X215577200Y-193500057D01*
X215505771Y-193642914D01*
X215434342Y-193714342D01*
X215291485Y-193785771D01*
X215148628Y-193785771D01*
X215005771Y-193714342D01*
X214934342Y-193642914D01*
X214862914Y-193500057D01*
X214791485Y-193214342D01*
X214791485Y-192857200D01*
X214862914Y-192571485D01*
X214934342Y-192428628D01*
X215005771Y-192357200D01*
X215148628Y-192285771D01*
X216934342Y-192785771D02*
X216934342Y-193785771D01*
X216577200Y-192214342D02*
X216220057Y-193285771D01*
X217148628Y-193285771D01*
X217720057Y-193214342D02*
X218862914Y-193214342D01*
X219862914Y-192285771D02*
X220005771Y-192285771D01*
X220148628Y-192357200D01*
X220220057Y-192428628D01*
X220291485Y-192571485D01*
X220362914Y-192857200D01*
X220362914Y-193214342D01*
X220291485Y-193500057D01*
X220220057Y-193642914D01*
X220148628Y-193714342D01*
X220005771Y-193785771D01*
X219862914Y-193785771D01*
X219720057Y-193714342D01*
X219648628Y-193642914D01*
X219577200Y-193500057D01*
X219505771Y-193214342D01*
X219505771Y-192857200D01*
X219577200Y-192571485D01*
X219648628Y-192428628D01*
X219720057Y-192357200D01*
X219862914Y-192285771D01*
X221648628Y-192285771D02*
X221362914Y-192285771D01*
X221220057Y-192357200D01*
X221148628Y-192428628D01*
X221005771Y-192642914D01*
X220934342Y-192928628D01*
X220934342Y-193500057D01*
X221005771Y-193642914D01*
X221077200Y-193714342D01*
X221220057Y-193785771D01*
X221505771Y-193785771D01*
X221648628Y-193714342D01*
X221720057Y-193642914D01*
X221791485Y-193500057D01*
X221791485Y-193142914D01*
X221720057Y-193000057D01*
X221648628Y-192928628D01*
X221505771Y-192857200D01*
X221220057Y-192857200D01*
X221077200Y-192928628D01*
X221005771Y-193000057D01*
X220934342Y-193142914D01*
D10*
D11*
X177002200Y-194507200D02*
X285002200Y-194507200D01*
D10*
D11*
X178434342Y-196585771D02*
X178434342Y-195085771D01*
X179291485Y-196585771D02*
X178648628Y-195728628D01*
X179291485Y-195085771D02*
X178434342Y-195942914D01*
X179934342Y-196585771D02*
X179934342Y-195585771D01*
X179934342Y-195085771D02*
X179862914Y-195157200D01*
X179934342Y-195228628D01*
X180005771Y-195157200D01*
X179934342Y-195085771D01*
X179934342Y-195228628D01*
X181505771Y-196442914D02*
X181434342Y-196514342D01*
X181220057Y-196585771D01*
X181077200Y-196585771D01*
X180862914Y-196514342D01*
X180720057Y-196371485D01*
X180648628Y-196228628D01*
X180577200Y-195942914D01*
X180577200Y-195728628D01*
X180648628Y-195442914D01*
X180720057Y-195300057D01*
X180862914Y-195157200D01*
X181077200Y-195085771D01*
X181220057Y-195085771D01*
X181434342Y-195157200D01*
X181505771Y-195228628D01*
X182791485Y-196585771D02*
X182791485Y-195800057D01*
X182720057Y-195657200D01*
X182577200Y-195585771D01*
X182291485Y-195585771D01*
X182148628Y-195657200D01*
X182791485Y-196514342D02*
X182648628Y-196585771D01*
X182291485Y-196585771D01*
X182148628Y-196514342D01*
X182077200Y-196371485D01*
X182077200Y-196228628D01*
X182148628Y-196085771D01*
X182291485Y-196014342D01*
X182648628Y-196014342D01*
X182791485Y-195942914D01*
X184148628Y-196585771D02*
X184148628Y-195085771D01*
X184148628Y-196514342D02*
X184005771Y-196585771D01*
X183720057Y-196585771D01*
X183577200Y-196514342D01*
X183505771Y-196442914D01*
X183434342Y-196300057D01*
X183434342Y-195871485D01*
X183505771Y-195728628D01*
X183577200Y-195657200D01*
X183720057Y-195585771D01*
X184005771Y-195585771D01*
X184148628Y-195657200D01*
X186005771Y-195800057D02*
X186505771Y-195800057D01*
X186720057Y-196585771D02*
X186005771Y-196585771D01*
X186005771Y-195085771D01*
X186720057Y-195085771D01*
X187362914Y-196442914D02*
X187434342Y-196514342D01*
X187362914Y-196585771D01*
X187291485Y-196514342D01*
X187362914Y-196442914D01*
X187362914Y-196585771D01*
X188077200Y-196585771D02*
X188077200Y-195085771D01*
X188434342Y-195085771D01*
X188648628Y-195157200D01*
X188791485Y-195300057D01*
X188862914Y-195442914D01*
X188934342Y-195728628D01*
X188934342Y-195942914D01*
X188862914Y-196228628D01*
X188791485Y-196371485D01*
X188648628Y-196514342D01*
X188434342Y-196585771D01*
X188077200Y-196585771D01*
X189577200Y-196442914D02*
X189648628Y-196514342D01*
X189577200Y-196585771D01*
X189505771Y-196514342D01*
X189577200Y-196442914D01*
X189577200Y-196585771D01*
X190220057Y-196157200D02*
X190934342Y-196157200D01*
X190077200Y-196585771D02*
X190577200Y-195085771D01*
X191077200Y-196585771D01*
X191577200Y-196442914D02*
X191648628Y-196514342D01*
X191577200Y-196585771D01*
X191505771Y-196514342D01*
X191577200Y-196442914D01*
X191577200Y-196585771D01*
X194577200Y-195585771D02*
X194577200Y-197085771D01*
X194577200Y-195657200D02*
X194720057Y-195585771D01*
X195005771Y-195585771D01*
X195148628Y-195657200D01*
X195220057Y-195728628D01*
X195291485Y-195871485D01*
X195291485Y-196300057D01*
X195220057Y-196442914D01*
X195148628Y-196514342D01*
X195005771Y-196585771D01*
X194720057Y-196585771D01*
X194577200Y-196514342D01*
X196577200Y-196514342D02*
X196434342Y-196585771D01*
X196148628Y-196585771D01*
X196005771Y-196514342D01*
X195934342Y-196442914D01*
X195862914Y-196300057D01*
X195862914Y-195871485D01*
X195934342Y-195728628D01*
X196005771Y-195657200D01*
X196148628Y-195585771D01*
X196434342Y-195585771D01*
X196577200Y-195657200D01*
X197220057Y-196585771D02*
X197220057Y-195085771D01*
X197220057Y-195657200D02*
X197362914Y-195585771D01*
X197648628Y-195585771D01*
X197791485Y-195657200D01*
X197862914Y-195728628D01*
X197934342Y-195871485D01*
X197934342Y-196300057D01*
X197862914Y-196442914D01*
X197791485Y-196514342D01*
X197648628Y-196585771D01*
X197362914Y-196585771D01*
X197220057Y-196514342D01*
X198577200Y-195585771D02*
X198577200Y-196585771D01*
X198577200Y-195728628D02*
X198648628Y-195657200D01*
X198791485Y-195585771D01*
X199005771Y-195585771D01*
X199148628Y-195657200D01*
X199220057Y-195800057D01*
X199220057Y-196585771D01*
X200505771Y-196514342D02*
X200362914Y-196585771D01*
X200077200Y-196585771D01*
X199934342Y-196514342D01*
X199862914Y-196371485D01*
X199862914Y-195800057D01*
X199934342Y-195657200D01*
X200077200Y-195585771D01*
X200362914Y-195585771D01*
X200505771Y-195657200D01*
X200577200Y-195800057D01*
X200577200Y-195942914D01*
X199862914Y-196085771D01*
X201077200Y-195585771D02*
X201362914Y-196585771D01*
X201648628Y-195871485D01*
X201934342Y-196585771D01*
X202220057Y-195585771D01*
X204648628Y-195085771D02*
X203934342Y-195085771D01*
X203862914Y-195800057D01*
X203934342Y-195728628D01*
X204077200Y-195657200D01*
X204434342Y-195657200D01*
X204577200Y-195728628D01*
X204648628Y-195800057D01*
X204720057Y-195942914D01*
X204720057Y-196300057D01*
X204648628Y-196442914D01*
X204577200Y-196514342D01*
X204434342Y-196585771D01*
X204077200Y-196585771D01*
X203934342Y-196514342D01*
X203862914Y-196442914D01*
X205362914Y-196442914D02*
X205434342Y-196514342D01*
X205362914Y-196585771D01*
X205291485Y-196514342D01*
X205362914Y-196442914D01*
X205362914Y-196585771D01*
X206862914Y-196585771D02*
X206005771Y-196585771D01*
X206434342Y-196585771D02*
X206434342Y-195085771D01*
X206291485Y-195300057D01*
X206148628Y-195442914D01*
X206005771Y-195514342D01*
X207505771Y-196442914D02*
X207577200Y-196514342D01*
X207505771Y-196585771D01*
X207434342Y-196514342D01*
X207505771Y-196442914D01*
X207505771Y-196585771D01*
X208434342Y-195728628D02*
X208291485Y-195657200D01*
X208220057Y-195585771D01*
X208148628Y-195442914D01*
X208148628Y-195371485D01*
X208220057Y-195228628D01*
X208291485Y-195157200D01*
X208434342Y-195085771D01*
X208720057Y-195085771D01*
X208862914Y-195157200D01*
X208934342Y-195228628D01*
X209005771Y-195371485D01*
X209005771Y-195442914D01*
X208934342Y-195585771D01*
X208862914Y-195657200D01*
X208720057Y-195728628D01*
X208434342Y-195728628D01*
X208291485Y-195800057D01*
X208220057Y-195871485D01*
X208148628Y-196014342D01*
X208148628Y-196300057D01*
X208220057Y-196442914D01*
X208291485Y-196514342D01*
X208434342Y-196585771D01*
X208720057Y-196585771D01*
X208862914Y-196514342D01*
X208934342Y-196442914D01*
X209005771Y-196300057D01*
X209005771Y-196014342D01*
X208934342Y-195871485D01*
X208862914Y-195800057D01*
X208720057Y-195728628D01*
X209648628Y-196014342D02*
X210791485Y-196014342D01*
X212291485Y-196585771D02*
X211434342Y-196585771D01*
X211862914Y-196585771D02*
X211862914Y-195085771D01*
X211720057Y-195300057D01*
X211577200Y-195442914D01*
X211434342Y-195514342D01*
X212934342Y-196442914D02*
X213005771Y-196514342D01*
X212934342Y-196585771D01*
X212862914Y-196514342D01*
X212934342Y-196442914D01*
X212934342Y-196585771D01*
X213434342Y-195585771D02*
X214005771Y-195585771D01*
X213648628Y-196585771D02*
X213648628Y-195300057D01*
X213720057Y-195157200D01*
X213862914Y-195085771D01*
X214005771Y-195085771D01*
X215148628Y-196514342D02*
X215005771Y-196585771D01*
X214720057Y-196585771D01*
X214577200Y-196514342D01*
X214505771Y-196442914D01*
X214434342Y-196300057D01*
X214434342Y-195871485D01*
X214505771Y-195728628D01*
X214577200Y-195657200D01*
X214720057Y-195585771D01*
X215005771Y-195585771D01*
X215148628Y-195657200D01*
X215648628Y-195085771D02*
X216577200Y-195085771D01*
X216077200Y-195657200D01*
X216291485Y-195657200D01*
X216434342Y-195728628D01*
X216505771Y-195800057D01*
X216577200Y-195942914D01*
X216577200Y-196300057D01*
X216505771Y-196442914D01*
X216434342Y-196514342D01*
X216291485Y-196585771D01*
X215862914Y-196585771D01*
X215720057Y-196514342D01*
X215648628Y-196442914D01*
X217077200Y-195085771D02*
X218005771Y-195085771D01*
X217505771Y-195657200D01*
X217720057Y-195657200D01*
X217862914Y-195728628D01*
X217934342Y-195800057D01*
X218005771Y-195942914D01*
X218005771Y-196300057D01*
X217934342Y-196442914D01*
X217862914Y-196514342D01*
X217720057Y-196585771D01*
X217291485Y-196585771D01*
X217148628Y-196514342D01*
X217077200Y-196442914D01*
D10*
D11*
X177002200Y-191507200D02*
X285002200Y-191507200D01*
D10*
D12*
X264411485Y-193785771D02*
X263911485Y-193071485D01*
X263554342Y-193785771D02*
X263554342Y-192285771D01*
X264125771Y-192285771D01*
X264268628Y-192357200D01*
X264340057Y-192428628D01*
X264411485Y-192571485D01*
X264411485Y-192785771D01*
X264340057Y-192928628D01*
X264268628Y-193000057D01*
X264125771Y-193071485D01*
X263554342Y-193071485D01*
X265625771Y-193714342D02*
X265482914Y-193785771D01*
X265197200Y-193785771D01*
X265054342Y-193714342D01*
X264982914Y-193571485D01*
X264982914Y-193000057D01*
X265054342Y-192857200D01*
X265197200Y-192785771D01*
X265482914Y-192785771D01*
X265625771Y-192857200D01*
X265697200Y-193000057D01*
X265697200Y-193142914D01*
X264982914Y-193285771D01*
X266197200Y-192785771D02*
X266554342Y-193785771D01*
X266911485Y-192785771D01*
X267482914Y-193642914D02*
X267554342Y-193714342D01*
X267482914Y-193785771D01*
X267411485Y-193714342D01*
X267482914Y-193642914D01*
X267482914Y-193785771D01*
X267482914Y-192857200D02*
X267554342Y-192928628D01*
X267482914Y-193000057D01*
X267411485Y-192928628D01*
X267482914Y-192857200D01*
X267482914Y-193000057D01*
X269197200Y-192785771D02*
X269554342Y-193785771D01*
X269911485Y-192785771D01*
X270768628Y-192285771D02*
X270911485Y-192285771D01*
X271054342Y-192357200D01*
X271125771Y-192428628D01*
X271197200Y-192571485D01*
X271268628Y-192857200D01*
X271268628Y-193214342D01*
X271197200Y-193500057D01*
X271125771Y-193642914D01*
X271054342Y-193714342D01*
X270911485Y-193785771D01*
X270768628Y-193785771D01*
X270625771Y-193714342D01*
X270554342Y-193642914D01*
X270482914Y-193500057D01*
X270411485Y-193214342D01*
X270411485Y-192857200D01*
X270482914Y-192571485D01*
X270554342Y-192428628D01*
X270625771Y-192357200D01*
X270768628Y-192285771D01*
X271911485Y-193642914D02*
X271982914Y-193714342D01*
X271911485Y-193785771D01*
X271840057Y-193714342D01*
X271911485Y-193642914D01*
X271911485Y-193785771D01*
X273340057Y-192285771D02*
X272625771Y-192285771D01*
X272554342Y-193000057D01*
X272625771Y-192928628D01*
X272768628Y-192857200D01*
X273125771Y-192857200D01*
X273268628Y-192928628D01*
X273340057Y-193000057D01*
X273411485Y-193142914D01*
X273411485Y-193500057D01*
X273340057Y-193642914D01*
X273268628Y-193714342D01*
X273125771Y-193785771D01*
X272768628Y-193785771D01*
X272625771Y-193714342D01*
X272554342Y-193642914D01*
X274054342Y-193642914D02*
X274125771Y-193714342D01*
X274054342Y-193785771D01*
X273982914Y-193714342D01*
X274054342Y-193642914D01*
X274054342Y-193785771D01*
X274697200Y-192428628D02*
X274768628Y-192357200D01*
X274911485Y-192285771D01*
X275268628Y-192285771D01*
X275411485Y-192357200D01*
X275482914Y-192428628D01*
X275554342Y-192571485D01*
X275554342Y-192714342D01*
X275482914Y-192928628D01*
X274625771Y-193785771D01*
X275554342Y-193785771D01*
D10*
D11*
X178362914Y-193714342D02*
X178577200Y-193785771D01*
X178934342Y-193785771D01*
X179077200Y-193714342D01*
X179148628Y-193642914D01*
X179220057Y-193500057D01*
X179220057Y-193357200D01*
X179148628Y-193214342D01*
X179077200Y-193142914D01*
X178934342Y-193071485D01*
X178648628Y-193000057D01*
X178505771Y-192928628D01*
X178434342Y-192857200D01*
X178362914Y-192714342D01*
X178362914Y-192571485D01*
X178434342Y-192428628D01*
X178505771Y-192357200D01*
X178648628Y-192285771D01*
X179005771Y-192285771D01*
X179220057Y-192357200D01*
X179862914Y-193785771D02*
X179862914Y-192785771D01*
X179862914Y-192285771D02*
X179791485Y-192357200D01*
X179862914Y-192428628D01*
X179934342Y-192357200D01*
X179862914Y-192285771D01*
X179862914Y-192428628D01*
X180434342Y-192785771D02*
X181220057Y-192785771D01*
X180434342Y-193785771D01*
X181220057Y-193785771D01*
X182362914Y-193714342D02*
X182220057Y-193785771D01*
X181934342Y-193785771D01*
X181791485Y-193714342D01*
X181720057Y-193571485D01*
X181720057Y-193000057D01*
X181791485Y-192857200D01*
X181934342Y-192785771D01*
X182220057Y-192785771D01*
X182362914Y-192857200D01*
X182434342Y-193000057D01*
X182434342Y-193142914D01*
X181720057Y-193285771D01*
X183077200Y-193642914D02*
X183148628Y-193714342D01*
X183077200Y-193785771D01*
X183005771Y-193714342D01*
X183077200Y-193642914D01*
X183077200Y-193785771D01*
X183077200Y-192857200D02*
X183148628Y-192928628D01*
X183077200Y-193000057D01*
X183005771Y-192928628D01*
X183077200Y-192857200D01*
X183077200Y-193000057D01*
X184862914Y-193357200D02*
X185577200Y-193357200D01*
X184720057Y-193785771D02*
X185220057Y-192285771D01*
X185720057Y-193785771D01*
X186862914Y-192785771D02*
X186862914Y-193785771D01*
X186505771Y-192214342D02*
X186148628Y-193285771D01*
X187077200Y-193285771D01*
D10*
D11*
X263434342Y-196585771D02*
X263434342Y-195085771D01*
X264791485Y-196585771D02*
X264791485Y-195085771D01*
X264791485Y-196514342D02*
X264648628Y-196585771D01*
X264362914Y-196585771D01*
X264220057Y-196514342D01*
X264148628Y-196442914D01*
X264077200Y-196300057D01*
X264077200Y-195871485D01*
X264148628Y-195728628D01*
X264220057Y-195657200D01*
X264362914Y-195585771D01*
X264648628Y-195585771D01*
X264791485Y-195657200D01*
X265505771Y-196442914D02*
X265577200Y-196514342D01*
X265505771Y-196585771D01*
X265434342Y-196514342D01*
X265505771Y-196442914D01*
X265505771Y-196585771D01*
X265505771Y-195657200D02*
X265577200Y-195728628D01*
X265505771Y-195800057D01*
X265434342Y-195728628D01*
X265505771Y-195657200D01*
X265505771Y-195800057D01*
X268148628Y-196585771D02*
X267291485Y-196585771D01*
X267720057Y-196585771D02*
X267720057Y-195085771D01*
X267577200Y-195300057D01*
X267434342Y-195442914D01*
X267291485Y-195514342D01*
X269862914Y-195014342D02*
X268577200Y-196942914D01*
X271148628Y-196585771D02*
X270291485Y-196585771D01*
X270720057Y-196585771D02*
X270720057Y-195085771D01*
X270577200Y-195300057D01*
X270434342Y-195442914D01*
X270291485Y-195514342D01*
D10*
D11*
X177002200Y-187507200D02*
X285002200Y-187507200D01*
D10*
D13*
X178714580Y-188211961D02*
X179857438Y-188211961D01*
X179036009Y-190211961D02*
X179286009Y-188211961D01*
X180274104Y-190211961D02*
X180440771Y-188878628D01*
X180524104Y-188211961D02*
X180416961Y-188307200D01*
X180500295Y-188402438D01*
X180607438Y-188307200D01*
X180524104Y-188211961D01*
X180500295Y-188402438D01*
X181107438Y-188878628D02*
X181869342Y-188878628D01*
X181476485Y-188211961D02*
X181262200Y-189926247D01*
X181333628Y-190116723D01*
X181512200Y-190211961D01*
X181702676Y-190211961D01*
X182655057Y-190211961D02*
X182476485Y-190116723D01*
X182405057Y-189926247D01*
X182619342Y-188211961D01*
X184190771Y-190116723D02*
X183988390Y-190211961D01*
X183607438Y-190211961D01*
X183428866Y-190116723D01*
X183357438Y-189926247D01*
X183452676Y-189164342D01*
X183571723Y-188973866D01*
X183774104Y-188878628D01*
X184155057Y-188878628D01*
X184333628Y-188973866D01*
X184405057Y-189164342D01*
X184381247Y-189354819D01*
X183405057Y-189545295D01*
X185155057Y-190021485D02*
X185238390Y-190116723D01*
X185131247Y-190211961D01*
X185047914Y-190116723D01*
X185155057Y-190021485D01*
X185131247Y-190211961D01*
X185286009Y-188973866D02*
X185369342Y-189069104D01*
X185262200Y-189164342D01*
X185178866Y-189069104D01*
X185286009Y-188973866D01*
X185262200Y-189164342D01*
X187571723Y-188211961D02*
X187988390Y-190211961D01*
X188905057Y-188211961D01*
X190095533Y-190116723D02*
X189893152Y-190211961D01*
X189512200Y-190211961D01*
X189333628Y-190116723D01*
X189262200Y-189926247D01*
X189357438Y-189164342D01*
X189476485Y-188973866D01*
X189678866Y-188878628D01*
X190059819Y-188878628D01*
X190238390Y-188973866D01*
X190309819Y-189164342D01*
X190286009Y-189354819D01*
X189309819Y-189545295D01*
X191202676Y-188878628D02*
X191036009Y-190211961D01*
X191178866Y-189069104D02*
X191286009Y-188973866D01*
X191488390Y-188878628D01*
X191774104Y-188878628D01*
X191952676Y-188973866D01*
X192024104Y-189164342D01*
X191893152Y-190211961D01*
X193131247Y-190211961D02*
X192952676Y-190116723D01*
X192869342Y-190021485D01*
X192797914Y-189831009D01*
X192869342Y-189259580D01*
X192988390Y-189069104D01*
X193095533Y-188973866D01*
X193297914Y-188878628D01*
X193583628Y-188878628D01*
X193762200Y-188973866D01*
X193845533Y-189069104D01*
X193916961Y-189259580D01*
X193845533Y-189831009D01*
X193726485Y-190021485D01*
X193619342Y-190116723D01*
X193416961Y-190211961D01*
X193131247Y-190211961D01*
X194655057Y-190211961D02*
X194821723Y-188878628D01*
X194797914Y-189069104D02*
X194905057Y-188973866D01*
X195107438Y-188878628D01*
X195393152Y-188878628D01*
X195571723Y-188973866D01*
X195643152Y-189164342D01*
X195512200Y-190211961D01*
X195643152Y-189164342D02*
X195762200Y-188973866D01*
X195964580Y-188878628D01*
X196250295Y-188878628D01*
X196428866Y-188973866D01*
X196500295Y-189164342D01*
X196369342Y-190211961D01*
X198845533Y-190211961D02*
X199012200Y-188878628D01*
X198964580Y-189259580D02*
X199083628Y-189069104D01*
X199190771Y-188973866D01*
X199393152Y-188878628D01*
X199583628Y-188878628D01*
X200083628Y-190211961D02*
X200250295Y-188878628D01*
X200333628Y-188211961D02*
X200226485Y-188307200D01*
X200309819Y-188402438D01*
X200416961Y-188307200D01*
X200333628Y-188211961D01*
X200309819Y-188402438D01*
X201202676Y-188878628D02*
X201036009Y-190211961D01*
X201178866Y-189069104D02*
X201286009Y-188973866D01*
X201488390Y-188878628D01*
X201774104Y-188878628D01*
X201952676Y-188973866D01*
X202024104Y-189164342D01*
X201893152Y-190211961D01*
X203869342Y-188878628D02*
X203666961Y-190497676D01*
X203547914Y-190688152D01*
X203440771Y-190783390D01*
X203238390Y-190878628D01*
X202952676Y-190878628D01*
X202774104Y-190783390D01*
X203714580Y-190116723D02*
X203512200Y-190211961D01*
X203131247Y-190211961D01*
X202952676Y-190116723D01*
X202869342Y-190021485D01*
X202797914Y-189831009D01*
X202869342Y-189259580D01*
X202988390Y-189069104D01*
X203095533Y-188973866D01*
X203297914Y-188878628D01*
X203678866Y-188878628D01*
X203857438Y-188973866D01*
D10*
D11*
X178934342Y-185600057D02*
X178434342Y-185600057D01*
X178434342Y-186385771D02*
X178434342Y-184885771D01*
X179148628Y-184885771D01*
X179720057Y-186385771D02*
X179720057Y-185385771D01*
X179720057Y-184885771D02*
X179648628Y-184957200D01*
X179720057Y-185028628D01*
X179791485Y-184957200D01*
X179720057Y-184885771D01*
X179720057Y-185028628D01*
X180648628Y-186385771D02*
X180505771Y-186314342D01*
X180434342Y-186171485D01*
X180434342Y-184885771D01*
X181791485Y-186314342D02*
X181648628Y-186385771D01*
X181362914Y-186385771D01*
X181220057Y-186314342D01*
X181148628Y-186171485D01*
X181148628Y-185600057D01*
X181220057Y-185457200D01*
X181362914Y-185385771D01*
X181648628Y-185385771D01*
X181791485Y-185457200D01*
X181862914Y-185600057D01*
X181862914Y-185742914D01*
X181148628Y-185885771D01*
X182505771Y-186242914D02*
X182577200Y-186314342D01*
X182505771Y-186385771D01*
X182434342Y-186314342D01*
X182505771Y-186242914D01*
X182505771Y-186385771D01*
X182505771Y-185457200D02*
X182577200Y-185528628D01*
X182505771Y-185600057D01*
X182434342Y-185528628D01*
X182505771Y-185457200D01*
X182505771Y-185600057D01*
X184362914Y-186385771D02*
X184362914Y-185385771D01*
X184362914Y-185671485D02*
X184434342Y-185528628D01*
X184505771Y-185457200D01*
X184648628Y-185385771D01*
X184791485Y-185385771D01*
X185291485Y-186385771D02*
X185291485Y-185385771D01*
X185291485Y-184885771D02*
X185220057Y-184957200D01*
X185291485Y-185028628D01*
X185362914Y-184957200D01*
X185291485Y-184885771D01*
X185291485Y-185028628D01*
X186005771Y-185385771D02*
X186005771Y-186385771D01*
X186005771Y-185528628D02*
X186077200Y-185457200D01*
X186220057Y-185385771D01*
X186434342Y-185385771D01*
X186577200Y-185457200D01*
X186648628Y-185600057D01*
X186648628Y-186385771D01*
X188005771Y-185385771D02*
X188005771Y-186600057D01*
X187934342Y-186742914D01*
X187862914Y-186814342D01*
X187720057Y-186885771D01*
X187505771Y-186885771D01*
X187362914Y-186814342D01*
X188005771Y-186314342D02*
X187862914Y-186385771D01*
X187577200Y-186385771D01*
X187434342Y-186314342D01*
X187362914Y-186242914D01*
X187291485Y-186100057D01*
X187291485Y-185671485D01*
X187362914Y-185528628D01*
X187434342Y-185457200D01*
X187577200Y-185385771D01*
X187862914Y-185385771D01*
X188005771Y-185457200D01*
X188720057Y-186242914D02*
X188791485Y-186314342D01*
X188720057Y-186385771D01*
X188648628Y-186314342D01*
X188720057Y-186242914D01*
X188720057Y-186385771D01*
X189434342Y-186385771D02*
X189434342Y-184885771D01*
X189577200Y-185814342D02*
X190005771Y-186385771D01*
X190005771Y-185385771D02*
X189434342Y-185957200D01*
X190648628Y-186385771D02*
X190648628Y-185385771D01*
X190648628Y-184885771D02*
X190577200Y-184957200D01*
X190648628Y-185028628D01*
X190720057Y-184957200D01*
X190648628Y-184885771D01*
X190648628Y-185028628D01*
X192005771Y-186314342D02*
X191862914Y-186385771D01*
X191577200Y-186385771D01*
X191434342Y-186314342D01*
X191362914Y-186242914D01*
X191291485Y-186100057D01*
X191291485Y-185671485D01*
X191362914Y-185528628D01*
X191434342Y-185457200D01*
X191577200Y-185385771D01*
X191862914Y-185385771D01*
X192005771Y-185457200D01*
X193291485Y-186385771D02*
X193291485Y-185600057D01*
X193220057Y-185457200D01*
X193077200Y-185385771D01*
X192791485Y-185385771D01*
X192648628Y-185457200D01*
X193291485Y-186314342D02*
X193148628Y-186385771D01*
X192791485Y-186385771D01*
X192648628Y-186314342D01*
X192577200Y-186171485D01*
X192577200Y-186028628D01*
X192648628Y-185885771D01*
X192791485Y-185814342D01*
X193148628Y-185814342D01*
X193291485Y-185742914D01*
X194648628Y-186385771D02*
X194648628Y-184885771D01*
X194648628Y-186314342D02*
X194505771Y-186385771D01*
X194220057Y-186385771D01*
X194077200Y-186314342D01*
X194005771Y-186242914D01*
X193934342Y-186100057D01*
X193934342Y-185671485D01*
X194005771Y-185528628D01*
X194077200Y-185457200D01*
X194220057Y-185385771D01*
X194505771Y-185385771D01*
X194648628Y-185457200D01*
X195005771Y-186528628D02*
X196148628Y-186528628D01*
X196505771Y-185385771D02*
X196505771Y-186885771D01*
X196505771Y-185457200D02*
X196648628Y-185385771D01*
X196934342Y-185385771D01*
X197077200Y-185457200D01*
X197148628Y-185528628D01*
X197220057Y-185671485D01*
X197220057Y-186100057D01*
X197148628Y-186242914D01*
X197077200Y-186314342D01*
X196934342Y-186385771D01*
X196648628Y-186385771D01*
X196505771Y-186314342D01*
X198505771Y-186314342D02*
X198362914Y-186385771D01*
X198077200Y-186385771D01*
X197934342Y-186314342D01*
X197862914Y-186242914D01*
X197791485Y-186100057D01*
X197791485Y-185671485D01*
X197862914Y-185528628D01*
X197934342Y-185457200D01*
X198077200Y-185385771D01*
X198362914Y-185385771D01*
X198505771Y-185457200D01*
X199148628Y-186385771D02*
X199148628Y-184885771D01*
X199148628Y-185457200D02*
X199291485Y-185385771D01*
X199577200Y-185385771D01*
X199720057Y-185457200D01*
X199791485Y-185528628D01*
X199862914Y-185671485D01*
X199862914Y-186100057D01*
X199791485Y-186242914D01*
X199720057Y-186314342D01*
X199577200Y-186385771D01*
X199291485Y-186385771D01*
X199148628Y-186314342D01*
D10*
D11*
X177002200Y-181507200D02*
X285002200Y-181507200D01*
D10*
D11*
X178362914Y-183614342D02*
X178577200Y-183685771D01*
X178934342Y-183685771D01*
X179077200Y-183614342D01*
X179148628Y-183542914D01*
X179220057Y-183400057D01*
X179220057Y-183257200D01*
X179148628Y-183114342D01*
X179077200Y-183042914D01*
X178934342Y-182971485D01*
X178648628Y-182900057D01*
X178505771Y-182828628D01*
X178434342Y-182757200D01*
X178362914Y-182614342D01*
X178362914Y-182471485D01*
X178434342Y-182328628D01*
X178505771Y-182257200D01*
X178648628Y-182185771D01*
X179005771Y-182185771D01*
X179220057Y-182257200D01*
X179862914Y-183685771D02*
X179862914Y-182185771D01*
X180505771Y-183685771D02*
X180505771Y-182900057D01*
X180434342Y-182757200D01*
X180291485Y-182685771D01*
X180077200Y-182685771D01*
X179934342Y-182757200D01*
X179862914Y-182828628D01*
X181791485Y-183614342D02*
X181648628Y-183685771D01*
X181362914Y-183685771D01*
X181220057Y-183614342D01*
X181148628Y-183471485D01*
X181148628Y-182900057D01*
X181220057Y-182757200D01*
X181362914Y-182685771D01*
X181648628Y-182685771D01*
X181791485Y-182757200D01*
X181862914Y-182900057D01*
X181862914Y-183042914D01*
X181148628Y-183185771D01*
X183077200Y-183614342D02*
X182934342Y-183685771D01*
X182648628Y-183685771D01*
X182505771Y-183614342D01*
X182434342Y-183471485D01*
X182434342Y-182900057D01*
X182505771Y-182757200D01*
X182648628Y-182685771D01*
X182934342Y-182685771D01*
X183077200Y-182757200D01*
X183148628Y-182900057D01*
X183148628Y-183042914D01*
X182434342Y-183185771D01*
X183577200Y-182685771D02*
X184148628Y-182685771D01*
X183791485Y-182185771D02*
X183791485Y-183471485D01*
X183862914Y-183614342D01*
X184005771Y-183685771D01*
X184148628Y-183685771D01*
X184648628Y-183542914D02*
X184720057Y-183614342D01*
X184648628Y-183685771D01*
X184577200Y-183614342D01*
X184648628Y-183542914D01*
X184648628Y-183685771D01*
X184648628Y-182757200D02*
X184720057Y-182828628D01*
X184648628Y-182900057D01*
X184577200Y-182828628D01*
X184648628Y-182757200D01*
X184648628Y-182900057D01*
D10*
D11*
X179291485Y-177542914D02*
X179220057Y-177614342D01*
X179005771Y-177685771D01*
X178862914Y-177685771D01*
X178648628Y-177614342D01*
X178505771Y-177471485D01*
X178434342Y-177328628D01*
X178362914Y-177042914D01*
X178362914Y-176828628D01*
X178434342Y-176542914D01*
X178505771Y-176400057D01*
X178648628Y-176257200D01*
X178862914Y-176185771D01*
X179005771Y-176185771D01*
X179220057Y-176257200D01*
X179291485Y-176328628D01*
X180148628Y-177685771D02*
X180005771Y-177614342D01*
X179934342Y-177542914D01*
X179862914Y-177400057D01*
X179862914Y-176971485D01*
X179934342Y-176828628D01*
X180005771Y-176757200D01*
X180148628Y-176685771D01*
X180362914Y-176685771D01*
X180505771Y-176757200D01*
X180577200Y-176828628D01*
X180648628Y-176971485D01*
X180648628Y-177400057D01*
X180577200Y-177542914D01*
X180505771Y-177614342D01*
X180362914Y-177685771D01*
X180148628Y-177685771D01*
X181291485Y-177685771D02*
X181291485Y-176685771D01*
X181291485Y-176971485D02*
X181362914Y-176828628D01*
X181434342Y-176757200D01*
X181577200Y-176685771D01*
X181720057Y-176685771D01*
X182220057Y-177685771D02*
X182220057Y-176685771D01*
X182220057Y-176971485D02*
X182291485Y-176828628D01*
X182362914Y-176757200D01*
X182505771Y-176685771D01*
X182648628Y-176685771D01*
X183720057Y-177614342D02*
X183577200Y-177685771D01*
X183291485Y-177685771D01*
X183148628Y-177614342D01*
X183077200Y-177471485D01*
X183077200Y-176900057D01*
X183148628Y-176757200D01*
X183291485Y-176685771D01*
X183577200Y-176685771D01*
X183720057Y-176757200D01*
X183791485Y-176900057D01*
X183791485Y-177042914D01*
X183077200Y-177185771D01*
X185077200Y-177614342D02*
X184934342Y-177685771D01*
X184648628Y-177685771D01*
X184505771Y-177614342D01*
X184434342Y-177542914D01*
X184362914Y-177400057D01*
X184362914Y-176971485D01*
X184434342Y-176828628D01*
X184505771Y-176757200D01*
X184648628Y-176685771D01*
X184934342Y-176685771D01*
X185077200Y-176757200D01*
X185505771Y-176685771D02*
X186077200Y-176685771D01*
X185720057Y-176185771D02*
X185720057Y-177471485D01*
X185791485Y-177614342D01*
X185934342Y-177685771D01*
X186077200Y-177685771D01*
X187148628Y-177614342D02*
X187005771Y-177685771D01*
X186720057Y-177685771D01*
X186577200Y-177614342D01*
X186505771Y-177471485D01*
X186505771Y-176900057D01*
X186577200Y-176757200D01*
X186720057Y-176685771D01*
X187005771Y-176685771D01*
X187148628Y-176757200D01*
X187220057Y-176900057D01*
X187220057Y-177042914D01*
X186505771Y-177185771D01*
X188505771Y-177685771D02*
X188505771Y-176185771D01*
X188505771Y-177614342D02*
X188362914Y-177685771D01*
X188077200Y-177685771D01*
X187934342Y-177614342D01*
X187862914Y-177542914D01*
X187791485Y-177400057D01*
X187791485Y-176971485D01*
X187862914Y-176828628D01*
X187934342Y-176757200D01*
X188077200Y-176685771D01*
X188362914Y-176685771D01*
X188505771Y-176757200D01*
X190148628Y-176685771D02*
X190720057Y-176685771D01*
X190362914Y-177685771D02*
X190362914Y-176400057D01*
X190434342Y-176257200D01*
X190577200Y-176185771D01*
X190720057Y-176185771D01*
X191434342Y-177685771D02*
X191291485Y-177614342D01*
X191220057Y-177542914D01*
X191148628Y-177400057D01*
X191148628Y-176971485D01*
X191220057Y-176828628D01*
X191291485Y-176757200D01*
X191434342Y-176685771D01*
X191648628Y-176685771D01*
X191791485Y-176757200D01*
X191862914Y-176828628D01*
X191934342Y-176971485D01*
X191934342Y-177400057D01*
X191862914Y-177542914D01*
X191791485Y-177614342D01*
X191648628Y-177685771D01*
X191434342Y-177685771D01*
X192577200Y-177685771D02*
X192577200Y-176685771D01*
X192577200Y-176971485D02*
X192648628Y-176828628D01*
X192720057Y-176757200D01*
X192862914Y-176685771D01*
X193005771Y-176685771D01*
X194434342Y-176185771D02*
X194934342Y-177685771D01*
X195434342Y-176185771D01*
X195862914Y-176328628D02*
X195934342Y-176257200D01*
X196077200Y-176185771D01*
X196434342Y-176185771D01*
X196577200Y-176257200D01*
X196648628Y-176328628D01*
X196720057Y-176471485D01*
X196720057Y-176614342D01*
X196648628Y-176828628D01*
X195791485Y-177685771D01*
X196720057Y-177685771D01*
X199148628Y-177685771D02*
X199148628Y-176185771D01*
X199148628Y-177614342D02*
X199005771Y-177685771D01*
X198720057Y-177685771D01*
X198577200Y-177614342D01*
X198505771Y-177542914D01*
X198434342Y-177400057D01*
X198434342Y-176971485D01*
X198505771Y-176828628D01*
X198577200Y-176757200D01*
X198720057Y-176685771D01*
X199005771Y-176685771D01*
X199148628Y-176757200D01*
X199862914Y-177685771D02*
X199862914Y-176685771D01*
X199862914Y-176185771D02*
X199791485Y-176257200D01*
X199862914Y-176328628D01*
X199934342Y-176257200D01*
X199862914Y-176185771D01*
X199862914Y-176328628D01*
X200505771Y-177614342D02*
X200648628Y-177685771D01*
X200934342Y-177685771D01*
X201077200Y-177614342D01*
X201148628Y-177471485D01*
X201148628Y-177400057D01*
X201077200Y-177257200D01*
X200934342Y-177185771D01*
X200720057Y-177185771D01*
X200577200Y-177114342D01*
X200505771Y-176971485D01*
X200505771Y-176900057D01*
X200577200Y-176757200D01*
X200720057Y-176685771D01*
X200934342Y-176685771D01*
X201077200Y-176757200D01*
X201791485Y-176685771D02*
X201791485Y-178185771D01*
X201791485Y-176757200D02*
X201934342Y-176685771D01*
X202220057Y-176685771D01*
X202362914Y-176757200D01*
X202434342Y-176828628D01*
X202505771Y-176971485D01*
X202505771Y-177400057D01*
X202434342Y-177542914D01*
X202362914Y-177614342D01*
X202220057Y-177685771D01*
X201934342Y-177685771D01*
X201791485Y-177614342D01*
X203362914Y-177685771D02*
X203220057Y-177614342D01*
X203148628Y-177471485D01*
X203148628Y-176185771D01*
X204577200Y-177685771D02*
X204577200Y-176900057D01*
X204505771Y-176757200D01*
X204362914Y-176685771D01*
X204077200Y-176685771D01*
X203934342Y-176757200D01*
X204577200Y-177614342D02*
X204434342Y-177685771D01*
X204077200Y-177685771D01*
X203934342Y-177614342D01*
X203862914Y-177471485D01*
X203862914Y-177328628D01*
X203934342Y-177185771D01*
X204077200Y-177114342D01*
X204434342Y-177114342D01*
X204577200Y-177042914D01*
X205148628Y-176685771D02*
X205505771Y-177685771D01*
X205862914Y-176685771D02*
X205505771Y-177685771D01*
X205362914Y-178042914D01*
X205291485Y-178114342D01*
X205148628Y-178185771D01*
D10*
D11*
X197002200Y-191507200D02*
X197002200Y-194507200D01*
D10*
D11*
X261002200Y-191507200D02*
X261002200Y-198007200D01*
X196915515Y-97224546D02*
X196483323Y-96551338D01*
X191499324Y-102483420D02*
X190837659Y-102033753D01*
X189051001Y-107978165D02*
X188275103Y-107783273D01*
X188461304Y-113689167D02*
X187662631Y-113735218D01*
X194904076Y-126583986D02*
X194386644Y-127194121D01*
X222486581Y-121579047D02*
X223179401Y-121979047D01*
X224337088Y-116819820D02*
X225117208Y-116997059D01*
X224798933Y-113945384D02*
X225597080Y-113999797D01*
X224690792Y-110454105D02*
X225484829Y-110356609D01*
D14*
X221160000Y-94180000D02*
G75*
G03*
X221160000Y-94180000I-1200000J0D01*
G01*
X189280000Y-119870000D02*
G75*
G03*
X189280000Y-119870000I-1200000J0D01*
G01*
X227630000Y-117970000D02*
G75*
G03*
X227630000Y-117970000I-1200000J0D01*
G01*
X194520000Y-94180000D02*
G75*
G03*
X194520000Y-94180000I-1200000J0D01*
G01*
D11*
X199908494Y-95694356D02*
X199602348Y-94955252D01*
D14*
X193219047Y-103672857D02*
X193380952Y-103672857D01*
X193542857Y-103730000D01*
X193623809Y-103787142D01*
X193704761Y-103901428D01*
X193785714Y-104130000D01*
X193785714Y-104415714D01*
X193704761Y-104644285D01*
X193623809Y-104758571D01*
X193542857Y-104815714D01*
X193380952Y-104872857D01*
X193219047Y-104872857D01*
X193057142Y-104815714D01*
X192976190Y-104758571D01*
X192895238Y-104644285D01*
X192814285Y-104415714D01*
X192814285Y-104130000D01*
X192895238Y-103901428D01*
X192976190Y-103787142D01*
X193057142Y-103730000D01*
X193219047Y-103672857D01*
D11*
X215381641Y-101888565D02*
X216019065Y-101118052D01*
X207501594Y-98791488D02*
X207564385Y-97793461D01*
X220467619Y-112600000D02*
X221467619Y-112600000D01*
X220448511Y-111748405D02*
X221446538Y-111685614D01*
X220361186Y-110896698D02*
X221353300Y-110771365D01*
X220245631Y-110044767D02*
X221227919Y-109857386D01*
X220041831Y-109212502D02*
X221010414Y-108963812D01*
D15*
X219844640Y-108349690D02*
X221271224Y-107886164D01*
D11*
X219529386Y-107576532D02*
X220459163Y-107208407D01*
X219190673Y-106792614D02*
X220095500Y-106366835D01*
X210840206Y-99420239D02*
X211149223Y-98469183D01*
X218368042Y-105282397D02*
X219212370Y-104746571D01*
X213192063Y-100426424D02*
X213673817Y-99550117D01*
X209205232Y-99024368D02*
X209392613Y-98042080D01*
X217904016Y-104565902D02*
X218713033Y-103978117D01*
X216100323Y-102509771D02*
X216784871Y-101780802D01*
X213937602Y-100851957D02*
X214473428Y-100007629D01*
X217351434Y-103848358D02*
X218121947Y-103210934D01*
D15*
X214741145Y-101298975D02*
X215622823Y-100085450D01*
D11*
X218803575Y-106027936D02*
X219679882Y-105546182D01*
X210037497Y-99188168D02*
X210286187Y-98219585D01*
X212437385Y-100039326D02*
X212863164Y-99134499D01*
X216760228Y-103169676D02*
X217489197Y-102485128D01*
X211643467Y-99710613D02*
X212011592Y-98780836D01*
X208353301Y-98878813D02*
X208478634Y-97886699D01*
X217351434Y-121341641D02*
X218121947Y-121979065D01*
X220448511Y-113461594D02*
X221446538Y-113524385D01*
D15*
X206650000Y-126471904D02*
X206650000Y-127771904D01*
D11*
X207491594Y-126408511D02*
X207554385Y-127406538D01*
X208343301Y-126321186D02*
X208468634Y-127313300D01*
X209195232Y-126205631D02*
X209382613Y-127187919D01*
X210027497Y-126001831D02*
X210276187Y-126970414D01*
X210850206Y-125759760D02*
X211159223Y-126710816D01*
X211663467Y-125489386D02*
X212031592Y-126419163D01*
X212447385Y-125150673D02*
X212873164Y-126055500D01*
D15*
X219864640Y-116830309D02*
X221291224Y-117293835D01*
D11*
X213957602Y-124328042D02*
X214493428Y-125172370D01*
X218813575Y-119152063D02*
X219689882Y-119633817D01*
X220215631Y-115165232D02*
X221197919Y-115352613D01*
D15*
X214741145Y-123881024D02*
X215622823Y-125094549D01*
D11*
X216730228Y-122060323D02*
X217459197Y-122744871D01*
X218388042Y-119897602D02*
X219232370Y-120433428D01*
X215391641Y-123311434D02*
X216029065Y-124081947D01*
X217914016Y-120634097D02*
X218723033Y-121221882D01*
X213212063Y-124763575D02*
X213693817Y-125639882D01*
X220051831Y-115997497D02*
X221020414Y-116246187D01*
X219200673Y-118397385D02*
X220105500Y-118823164D01*
X216070323Y-122720228D02*
X216754871Y-123449197D01*
X219529386Y-117603467D02*
X220459163Y-117971592D01*
X220361186Y-114313301D02*
X221353300Y-114438634D01*
X197898358Y-123311434D02*
X197260934Y-124081947D01*
X205778405Y-126408511D02*
X205715614Y-127406538D01*
X192831488Y-113451594D02*
X191833461Y-113514385D01*
X192918813Y-114303301D02*
X191926699Y-114428634D01*
X193034368Y-115155232D02*
X192052080Y-115342613D01*
X193238168Y-115987497D02*
X192269585Y-116236187D01*
D15*
X193415359Y-116810309D02*
X191988775Y-117273835D01*
D11*
X193750613Y-117623467D02*
X192820836Y-117991592D01*
X194089326Y-118407385D02*
X193184499Y-118833164D01*
X202439793Y-125779760D02*
X202130776Y-126730816D01*
X194911957Y-119917602D02*
X194067629Y-120453428D01*
X200087936Y-124773575D02*
X199606182Y-125649882D01*
X204074767Y-126175631D02*
X203887386Y-127157919D01*
X195375983Y-120634097D02*
X194566966Y-121221882D01*
X197179676Y-122690228D02*
X196495128Y-123419197D01*
X199342397Y-124348042D02*
X198806571Y-125192370D01*
X195928565Y-121351641D02*
X195158052Y-121989065D01*
D15*
X198598854Y-123911024D02*
X197717176Y-125124549D01*
D11*
X194476424Y-119172063D02*
X193600117Y-119653817D01*
X203242502Y-126011831D02*
X202993812Y-126980414D01*
X200842614Y-125160673D02*
X200416835Y-126065500D01*
X196519771Y-122030323D02*
X195790802Y-122714871D01*
X201636532Y-125489386D02*
X201268407Y-126419163D01*
X204926698Y-126321186D02*
X204801365Y-127313300D01*
X192782380Y-112600000D02*
X191782380Y-112600000D01*
X192831488Y-111738405D02*
X191833461Y-111675614D01*
X192918813Y-110886698D02*
X191926699Y-110761365D01*
X193064368Y-110034767D02*
X192082080Y-109847386D01*
X193228168Y-109202502D02*
X192259585Y-108953812D01*
D15*
X193415359Y-108369690D02*
X191988775Y-107906164D01*
D11*
X193750613Y-107596532D02*
X192820836Y-107228407D01*
X194079326Y-106802614D02*
X193174499Y-106376835D01*
X194466424Y-106047936D02*
X193590117Y-105566182D01*
X194891957Y-105302397D02*
X194047629Y-104766571D01*
X195365983Y-104565902D02*
X194556966Y-103978117D01*
X195928565Y-103858358D02*
X195158052Y-103220934D01*
X196549771Y-103139676D02*
X195820802Y-102455128D01*
X197209676Y-102479771D02*
X196525128Y-101750802D01*
X197888358Y-101888565D02*
X197250934Y-101118052D01*
D15*
X198578854Y-101318975D02*
X197697176Y-100105450D01*
D11*
X199322397Y-100871957D02*
X198786571Y-100027629D01*
X200067936Y-100436424D02*
X199586182Y-99560117D01*
X200832614Y-100049326D02*
X200406835Y-99144499D01*
X201616532Y-99710613D02*
X201248407Y-98780836D01*
X202429793Y-99440239D02*
X202120776Y-98489183D01*
X203252502Y-99198168D02*
X203003812Y-98229585D01*
X204084767Y-98994368D02*
X203897386Y-98012080D01*
X204936698Y-98878813D02*
X204811365Y-97886699D01*
X205788405Y-98791488D02*
X205725614Y-97793461D01*
D15*
X206640000Y-98728095D02*
X206640000Y-97428095D01*
X189198928Y-112630200D02*
X189008452Y-112820676D01*
X188817976Y-112630200D01*
X189008452Y-112439723D01*
X189198928Y-112630200D01*
X188817976Y-112630200D01*
X206665400Y-130036471D02*
X206855876Y-130226947D01*
X206665400Y-130417423D01*
X206474923Y-130226947D01*
X206665400Y-130036471D01*
X206665400Y-130417423D01*
D11*
X220442416Y-122470897D02*
X221251433Y-123058682D01*
X213334600Y-128241729D02*
X213741336Y-129155274D01*
X218003798Y-125258115D02*
X218672928Y-126001260D01*
D10*
X218707239Y-124936250D02*
X219197004Y-125436381D01*
X208069202Y-129876143D02*
X208127776Y-130573688D01*
X218981950Y-124674239D02*
X219482081Y-125164004D01*
X212506518Y-128904294D02*
X212750519Y-129560391D01*
X208754511Y-129763230D02*
X208842244Y-130457710D01*
X212220658Y-129016347D02*
X212450865Y-129677410D01*
X209776262Y-129613942D02*
X209907429Y-130301543D01*
X214076298Y-128231657D02*
X214387543Y-128858656D01*
X215774621Y-127295429D02*
X216149700Y-127886459D01*
X216436674Y-126832869D02*
X216836173Y-127407673D01*
X207434739Y-129900711D02*
X207464052Y-130600097D01*
D11*
X210097144Y-129253904D02*
X210305056Y-130232052D01*
D10*
X210836348Y-129427781D02*
X211010431Y-130105790D01*
X210525288Y-129502400D02*
X210685134Y-130183905D01*
D15*
X215318914Y-128141720D02*
X215058718Y-128072001D01*
X215128438Y-127811806D01*
X215388633Y-127881525D01*
X215318914Y-128141720D01*
X215128438Y-127811806D01*
D10*
X221103441Y-122053559D02*
X221686486Y-122440933D01*
X214375189Y-128069568D02*
X214699496Y-128689911D01*
X217921783Y-125710184D02*
X218379177Y-126240081D01*
X207745616Y-129875658D02*
X207789569Y-130574276D01*
X217373203Y-126133530D02*
X217808006Y-126682115D01*
X212805127Y-128805070D02*
X213062814Y-129455914D01*
D11*
X216567397Y-126371316D02*
X217155182Y-127180333D01*
D10*
X220268130Y-123276703D02*
X220816715Y-123711506D01*
D11*
X208404013Y-129538597D02*
X208508541Y-130533119D01*
D10*
X216124659Y-127070441D02*
X216512033Y-127653486D01*
D11*
X219316515Y-123932698D02*
X220059660Y-124601828D01*
D10*
X211509373Y-129228148D02*
X211711695Y-129898272D01*
X213777469Y-128393871D02*
X214075515Y-129027250D01*
X217086343Y-126370765D02*
X217509562Y-126928336D01*
X220479965Y-122951743D02*
X221037536Y-123374962D01*
X209401789Y-129701667D02*
X209518528Y-130391865D01*
X221290329Y-121779721D02*
X221881359Y-122154800D01*
X220916669Y-122340174D02*
X221491473Y-122739673D01*
X219755884Y-123812583D02*
X220285781Y-124269977D01*
X223895611Y-113436739D02*
X224594997Y-113466052D01*
X223873958Y-113776116D02*
X224572576Y-113820069D01*
X223858343Y-114137802D02*
X224555888Y-114196376D01*
D15*
X222152820Y-121385714D02*
X221892625Y-121455433D01*
X221822906Y-121195238D01*
X222083101Y-121125518D01*
X222152820Y-121385714D01*
X221822906Y-121195238D01*
D10*
X223720930Y-115197540D02*
X224413421Y-115299798D01*
X223681327Y-115577069D02*
X224371525Y-115693808D01*
X223783530Y-114835811D02*
X224478010Y-114923544D01*
X223611382Y-115926142D02*
X224298983Y-116057309D01*
X223308381Y-117082748D02*
X223986390Y-117256831D01*
X223221198Y-117431942D02*
X223895412Y-117620185D01*
X223421100Y-116720888D02*
X224102605Y-116880734D01*
X223134148Y-117755773D02*
X223804272Y-117958095D01*
D11*
X223520797Y-114447213D02*
X224515319Y-114551741D01*
X223236104Y-116292744D02*
X224214252Y-116500656D01*
X222753060Y-118012306D02*
X223704116Y-118321323D01*
X222160429Y-119504800D02*
X223073974Y-119911536D01*
D10*
X219244059Y-124412326D02*
X219754337Y-124891509D01*
D11*
X211778606Y-128821660D02*
X212087623Y-129772716D01*
D10*
X213129186Y-128667876D02*
X213400447Y-129313180D01*
X222797594Y-118714818D02*
X223453691Y-118958819D01*
X222672970Y-119000727D02*
X223323814Y-119258414D01*
X222896947Y-118416258D02*
X223558010Y-118646465D01*
X222561176Y-119324786D02*
X223206480Y-119596047D01*
X222124957Y-120221098D02*
X222751956Y-120532343D01*
X222000968Y-120494589D02*
X222621311Y-120818896D01*
X222287171Y-119947669D02*
X222920550Y-120245715D01*
X220031004Y-123576349D02*
X220570363Y-124022545D01*
X209065440Y-129726030D02*
X209167698Y-130418521D01*
X211160142Y-129315198D02*
X211348385Y-129989412D01*
X217660149Y-125909104D02*
X218106345Y-126448463D01*
X218445326Y-125211059D02*
X218924509Y-125721337D01*
D11*
X196769102Y-126402416D02*
X196181317Y-127211433D01*
X190998270Y-119294600D02*
X190084725Y-119701336D01*
X193981884Y-123963798D02*
X193238739Y-124632928D01*
D10*
X194303749Y-124667239D02*
X193803618Y-125157004D01*
X189363856Y-114029202D02*
X188666311Y-114087776D01*
X194565760Y-124941950D02*
X194075995Y-125442081D01*
X190335705Y-118466518D02*
X189679608Y-118710519D01*
X189476769Y-114714511D02*
X188782289Y-114802244D01*
X190223652Y-118180658D02*
X189562589Y-118410865D01*
X189626057Y-115736262D02*
X188938456Y-115867429D01*
X191008342Y-120036298D02*
X190381343Y-120347543D01*
X191944570Y-121734621D02*
X191353540Y-122109700D01*
X192407130Y-122396674D02*
X191832326Y-122796173D01*
X189339288Y-113394739D02*
X188639902Y-113424052D01*
D11*
X189986095Y-116057144D02*
X189007947Y-116265056D01*
D10*
X189812218Y-116796348D02*
X189134209Y-116970431D01*
X189737599Y-116485288D02*
X189056094Y-116645134D01*
D15*
X191098279Y-121278914D02*
X191167998Y-121018718D01*
X191428193Y-121088438D01*
X191358474Y-121348633D01*
X191098279Y-121278914D01*
X191428193Y-121088438D01*
D10*
X197186440Y-127063441D02*
X196799066Y-127646486D01*
X191170431Y-120335189D02*
X190550088Y-120659496D01*
X193529815Y-123881783D02*
X192999918Y-124339177D01*
X189364341Y-113705616D02*
X188665723Y-113749569D01*
X193106469Y-123333203D02*
X192557884Y-123768006D01*
X190434929Y-118765127D02*
X189784085Y-119022814D01*
D11*
X192868683Y-122527397D02*
X192059666Y-123115182D01*
D10*
X195963296Y-126228130D02*
X195528493Y-126776715D01*
D11*
X189719902Y-114352713D02*
X188725380Y-114457241D01*
D10*
X192169558Y-122084659D02*
X191586513Y-122472033D01*
D11*
X195307301Y-125276515D02*
X194638171Y-126019660D01*
D10*
X190011851Y-117469373D02*
X189341727Y-117671695D01*
X190846128Y-119737469D02*
X190212749Y-120035515D01*
X192869234Y-123046343D02*
X192311663Y-123469562D01*
X196288256Y-126439965D02*
X195865037Y-126997536D01*
X189538332Y-115361789D02*
X188848134Y-115478528D01*
X197460278Y-127250329D02*
X197085199Y-127841359D01*
X196899825Y-126876669D02*
X196500326Y-127451473D01*
X195366916Y-125760284D02*
X194909522Y-126290181D01*
X205803260Y-129855611D02*
X205773947Y-130554997D01*
X205463883Y-129833958D02*
X205419930Y-130532576D01*
X205102197Y-129818343D02*
X205043623Y-130515888D01*
D15*
X197854285Y-128112820D02*
X197784566Y-127852625D01*
X198044761Y-127782906D01*
X198114481Y-128043101D01*
X197854285Y-128112820D01*
X198044761Y-127782906D01*
D10*
X204042459Y-129680930D02*
X203940201Y-130373421D01*
X203662930Y-129641327D02*
X203546191Y-130331525D01*
X204404188Y-129743530D02*
X204316455Y-130438010D01*
X203313857Y-129571382D02*
X203182690Y-130258983D01*
X202157251Y-129268381D02*
X201983168Y-129946390D01*
X201808057Y-129181198D02*
X201619814Y-129855412D01*
X202519111Y-129381100D02*
X202359265Y-130062605D01*
X201484226Y-129094148D02*
X201281904Y-129764272D01*
D11*
X204792786Y-129480797D02*
X204688258Y-130475319D01*
X202947255Y-129196104D02*
X202739343Y-130174252D01*
X201227693Y-128713060D02*
X200918676Y-129664116D01*
X199735199Y-128120429D02*
X199328463Y-129033974D01*
D10*
X194827673Y-125204059D02*
X194348490Y-125714337D01*
D11*
X190418339Y-117738606D02*
X189467283Y-118047623D01*
D10*
X190572123Y-119089186D02*
X189926819Y-119360447D01*
X200525181Y-128757594D02*
X200281180Y-129413691D01*
X200239272Y-128632970D02*
X199981585Y-129283814D01*
X200823741Y-128856947D02*
X200593534Y-129518010D01*
X199915213Y-128521176D02*
X199643952Y-129166480D01*
X199010801Y-128136357D02*
X198699556Y-128763356D01*
X198745410Y-127960968D02*
X198421103Y-128581311D01*
X199292330Y-128247171D02*
X198994284Y-128880550D01*
X195663650Y-125991004D02*
X195217454Y-126530363D01*
X189513969Y-115025440D02*
X188821478Y-115127698D01*
X189924801Y-117120142D02*
X189250587Y-117308385D01*
X193330895Y-123620149D02*
X192791536Y-124066345D01*
X194028940Y-124405326D02*
X193518662Y-124884509D01*
D11*
X192837583Y-102729102D02*
X192028566Y-102141317D01*
X199945399Y-96958270D02*
X199538663Y-96044725D01*
X195276201Y-99941884D02*
X194607071Y-99198739D01*
D10*
X194572760Y-100263749D02*
X194082995Y-99763618D01*
X205210797Y-95323856D02*
X205152223Y-94626311D01*
X194298049Y-100525760D02*
X193797918Y-100035995D01*
X200773481Y-96295705D02*
X200529480Y-95639608D01*
X204525488Y-95436769D02*
X204437755Y-94742289D01*
X201059341Y-96183652D02*
X200829134Y-95522589D01*
X203503737Y-95586057D02*
X203372570Y-94898456D01*
X199203701Y-96968342D02*
X198892456Y-96341343D01*
X197505378Y-97904570D02*
X197130299Y-97313540D01*
X196843325Y-98367130D02*
X196443826Y-97792326D01*
X205845260Y-95299288D02*
X205815947Y-94599902D01*
D11*
X203182855Y-95946095D02*
X202974943Y-94967947D01*
D10*
X202443651Y-95772218D02*
X202269568Y-95094209D01*
X202754711Y-95697599D02*
X202594865Y-95016094D01*
D15*
X197961085Y-97058279D02*
X198221281Y-97127998D01*
X198151561Y-97388193D01*
X197891366Y-97318474D01*
X197961085Y-97058279D01*
X198151561Y-97388193D01*
D10*
X192176558Y-103146440D02*
X191593513Y-102759066D01*
X198904810Y-97130431D02*
X198580503Y-96510088D01*
X195358216Y-99489815D02*
X194900822Y-98959918D01*
X205534383Y-95324341D02*
X205490430Y-94625723D01*
X195906796Y-99066469D02*
X195471993Y-98517884D01*
X200474872Y-96394929D02*
X200217185Y-95744085D01*
D11*
X196712602Y-98828683D02*
X196124817Y-98019666D01*
D10*
X193011869Y-101923296D02*
X192463284Y-101488493D01*
D11*
X204887286Y-95679902D02*
X204782758Y-94685380D01*
D10*
X197155340Y-98129558D02*
X196767966Y-97546513D01*
D11*
X193963484Y-101267301D02*
X193220339Y-100598171D01*
D10*
X201770626Y-95971851D02*
X201568304Y-95301727D01*
X199502530Y-96806128D02*
X199204484Y-96172749D01*
X196193656Y-98829234D02*
X195770437Y-98271663D01*
X192800034Y-102248256D02*
X192242463Y-101825037D01*
X203878210Y-95498332D02*
X203761471Y-94808134D01*
X191989670Y-103420278D02*
X191398640Y-103045199D01*
X192363330Y-102859825D02*
X191788526Y-102460326D01*
X193524115Y-101387416D02*
X192994218Y-100930022D01*
X189384388Y-111763260D02*
X188685002Y-111733947D01*
X189406041Y-111423883D02*
X188707423Y-111379930D01*
X189421656Y-111062197D02*
X188724111Y-111003623D01*
D15*
X191127179Y-103814285D02*
X191387374Y-103744566D01*
X191457093Y-104004761D01*
X191196898Y-104074481D01*
X191127179Y-103814285D01*
X191457093Y-104004761D01*
D10*
X189559069Y-110002459D02*
X188866578Y-109900201D01*
X189598672Y-109622930D02*
X188908474Y-109506191D01*
X189496469Y-110364188D02*
X188801989Y-110276455D01*
X189668617Y-109273857D02*
X188981016Y-109142690D01*
X189971618Y-108117251D02*
X189293609Y-107943168D01*
X190058801Y-107768057D02*
X189384587Y-107579814D01*
X189858899Y-108479111D02*
X189177394Y-108319265D01*
X190145851Y-107444226D02*
X189475727Y-107241904D01*
D11*
X189759202Y-110752786D02*
X188764680Y-110648258D01*
X190043895Y-108907255D02*
X189065747Y-108699343D01*
X190526939Y-107187693D02*
X189575883Y-106878676D01*
X191119570Y-105695199D02*
X190206025Y-105288463D01*
D10*
X194035940Y-100787673D02*
X193525662Y-100308490D01*
D11*
X201501393Y-96378339D02*
X201192376Y-95427283D01*
D10*
X200150813Y-96532123D02*
X199879552Y-95886819D01*
X190482405Y-106485181D02*
X189826308Y-106241180D01*
X190607029Y-106199272D02*
X189956185Y-105941585D01*
X190383052Y-106783741D02*
X189721989Y-106553534D01*
X190718823Y-105875213D02*
X190073519Y-105603952D01*
X191155042Y-104978901D02*
X190528043Y-104667656D01*
X191279031Y-104705410D02*
X190658688Y-104381103D01*
X190992828Y-105252330D02*
X190359449Y-104954284D01*
X193248995Y-101623650D02*
X192709636Y-101177454D01*
X204214559Y-95473969D02*
X204112301Y-94781478D01*
X202119857Y-95884801D02*
X201931614Y-95210587D01*
X195619850Y-99290895D02*
X195173654Y-98751536D01*
X194834673Y-99988940D02*
X194355490Y-99478662D01*
D15*
X224454128Y-112579400D02*
X224263652Y-112769876D01*
X224073176Y-112579400D01*
X224263652Y-112388923D01*
X224454128Y-112579400D01*
X224073176Y-112579400D01*
D11*
X222281729Y-105905399D02*
X223195274Y-105498663D01*
X223293904Y-109142855D02*
X224272052Y-108934943D01*
D10*
X223467781Y-108403651D02*
X224145790Y-108229568D01*
X223355198Y-108079857D02*
X224029412Y-107891614D01*
X223940711Y-111805260D02*
X224640097Y-111775947D01*
X223916143Y-111170797D02*
X224613688Y-111112223D01*
X222271657Y-105163701D02*
X222898656Y-104852456D01*
X223653942Y-109463737D02*
X224341543Y-109332570D01*
X223766030Y-110174559D02*
X224458521Y-110072301D01*
D11*
X223578597Y-110835986D02*
X224573119Y-110731458D01*
D10*
X222845070Y-106434872D02*
X223495914Y-106177185D01*
X223915658Y-111494383D02*
X224614276Y-111450430D01*
D11*
X222861660Y-107461393D02*
X223812716Y-107152376D01*
D10*
X223803230Y-110485488D02*
X224497710Y-110397755D01*
X222707876Y-106110813D02*
X223353180Y-105839552D01*
X222109568Y-104864810D02*
X222729911Y-104540503D01*
X222433871Y-105462530D02*
X223067250Y-105164484D01*
X223056347Y-107019341D02*
X223717410Y-106789134D01*
X223268148Y-107730626D02*
X223938272Y-107528304D01*
X222944294Y-106733481D02*
X223600391Y-106489480D01*
X223741667Y-109838210D02*
X224431865Y-109721471D01*
X223542400Y-108714711D02*
X224223905Y-108554865D01*
D15*
X222181720Y-103921085D02*
X222112001Y-104181281D01*
X221851806Y-104111561D01*
X221921525Y-103851366D01*
X222181720Y-103921085D01*
X221851806Y-104111561D01*
D10*
X221335429Y-103465378D02*
X221926459Y-103090299D01*
X220872869Y-102803325D02*
X221447673Y-102403826D01*
X221110441Y-103115340D02*
X221693486Y-102727966D01*
D11*
X220411316Y-102672602D02*
X221220333Y-102084817D01*
D10*
X220173530Y-101866796D02*
X220722115Y-101431993D01*
X219750184Y-101318216D02*
X220280081Y-100860822D01*
X219949104Y-101579850D02*
X220488463Y-101133654D01*
X220410765Y-102153656D02*
X220968336Y-101730437D01*
D11*
X219298115Y-101236201D02*
X220041260Y-100567071D01*
D10*
X218976250Y-100532760D02*
X219476381Y-100042995D01*
X218452326Y-99995940D02*
X218931509Y-99485662D01*
X218714239Y-100258049D02*
X219204004Y-99757918D01*
X219251059Y-100794673D02*
X219761337Y-100315490D01*
D11*
X217972698Y-99923484D02*
X218641828Y-99180339D01*
D10*
X217616349Y-99208995D02*
X218062545Y-98669636D01*
X216991743Y-98760034D02*
X217414962Y-98202463D01*
X217316703Y-98971869D02*
X217751506Y-98423284D01*
X217852583Y-99484115D02*
X218309977Y-98954218D01*
X215819721Y-97949670D02*
X216194800Y-97358640D01*
X216093559Y-98136558D02*
X216480933Y-97553513D01*
X216380174Y-98323330D02*
X216779673Y-97748526D01*
D11*
X216510897Y-98797583D02*
X217098682Y-97988566D01*
D10*
X213987669Y-96952828D02*
X214285715Y-96319449D01*
X214534589Y-97239031D02*
X214858896Y-96618688D01*
X214261098Y-97115042D02*
X214572343Y-96488043D01*
X213364786Y-96678823D02*
X213636047Y-96033519D01*
X212456258Y-96343052D02*
X212686465Y-95681989D01*
X213040727Y-96567029D02*
X213298414Y-95916185D01*
X212754818Y-96442405D02*
X212998819Y-95786308D01*
X211795773Y-96105851D02*
X211998095Y-95435727D01*
X210760888Y-95818899D02*
X210920734Y-95137394D01*
X211471942Y-96018801D02*
X211660185Y-95344587D01*
X211122748Y-95931618D02*
X211296831Y-95253609D01*
X209966142Y-95628617D02*
X210097309Y-94941016D01*
X208875811Y-95456469D02*
X208963544Y-94761989D01*
X209617069Y-95558672D02*
X209733808Y-94868474D01*
X209237540Y-95519069D02*
X209339798Y-94826578D01*
D15*
X206640000Y-94768571D02*
X206830476Y-94959047D01*
X206640000Y-95149523D01*
X206449523Y-94959047D01*
X206640000Y-94768571D01*
X206640000Y-95149523D01*
X215425714Y-97087179D02*
X215495433Y-97347374D01*
X215235238Y-97417093D01*
X215165518Y-97156898D01*
X215425714Y-97087179D01*
X215235238Y-97417093D01*
D10*
X208177802Y-95381656D02*
X208236376Y-94684111D01*
X207816116Y-95366041D02*
X207860069Y-94667423D01*
X207476739Y-95344388D02*
X207506052Y-94645002D01*
D11*
X213544800Y-97079570D02*
X213951536Y-96166025D01*
X212052306Y-96486939D02*
X212361323Y-95535883D01*
X210332744Y-96003895D02*
X210540656Y-95025747D01*
X208487213Y-95719202D02*
X208591741Y-94724680D01*
X217297277Y-127367212D02*
X217767505Y-128014426D01*
X223288617Y-119914533D02*
X224021147Y-120236091D01*
X210913673Y-130298541D02*
X211104500Y-131075449D01*
X204109116Y-130641443D02*
X204000543Y-131434041D01*
X224641795Y-115228381D02*
X225433616Y-115342485D01*
X224387229Y-108630795D02*
X225167038Y-108452195D01*
X221417212Y-101962722D02*
X222064426Y-101492494D01*
X193755905Y-125474094D02*
X193190219Y-126039780D01*
X201328224Y-95195344D02*
X201088991Y-94431951D01*
X203131533Y-94754764D02*
X202973407Y-93970547D01*
X204757829Y-94499922D02*
X204674206Y-93704304D01*
X192716421Y-124336405D02*
X192105384Y-124852771D01*
X188559506Y-114678403D02*
X187764808Y-114770353D01*
X190331594Y-120664012D02*
X189620701Y-121030932D01*
X188892770Y-116599204D02*
X188112961Y-116777804D01*
X189785788Y-105754986D02*
X189043519Y-105456595D01*
X188481304Y-111460832D02*
X187682631Y-111414781D01*
X190245829Y-104697512D02*
X189525574Y-104349327D01*
X198717512Y-129034170D02*
X198369327Y-129754425D01*
X195491813Y-98235960D02*
X195001488Y-97603836D01*
X194393566Y-99137676D02*
X193855156Y-98545971D01*
X193373817Y-100147740D02*
X192790642Y-99600103D01*
X190813418Y-103610952D02*
X190120598Y-103210952D01*
X188579283Y-110333478D02*
X187785077Y-110237368D01*
X188775844Y-109185951D02*
X187989240Y-109040163D01*
X188696515Y-115617778D02*
X187908428Y-115755321D01*
X189088058Y-117470852D02*
X188318665Y-117690020D01*
X189382187Y-118392175D02*
X188625772Y-118652629D01*
X189646490Y-119086773D02*
X188902669Y-119381273D01*
X189979056Y-119939345D02*
X189251667Y-120272370D01*
X191716092Y-123031902D02*
X191061572Y-123491907D01*
X221231350Y-123471696D02*
X221869417Y-123954262D01*
X222961351Y-104581574D02*
X223665732Y-104202304D01*
X220191052Y-100442161D02*
X220785568Y-99906857D01*
D12*
X221070952Y-120228571D02*
X221070952Y-121228571D01*
X220594761Y-119657142D02*
X220118571Y-120728571D01*
X221356666Y-120728571D01*
X214280714Y-99017660D02*
X215030714Y-97718621D01*
X191088571Y-112600000D02*
X189588571Y-112600000D01*
X199019285Y-126132339D02*
X198269285Y-127431378D01*
D11*
X219918781Y-126623028D02*
X219595532Y-126946277D01*
X219757157Y-126784653D02*
X219191471Y-126218967D01*
X219218409Y-126353654D01*
X219218409Y-126461404D01*
X219191471Y-126542216D01*
X219837969Y-125572470D02*
X219730219Y-125680219D01*
X219703282Y-125761032D01*
X219703282Y-125814906D01*
X219730219Y-125949593D01*
X219811032Y-126084280D01*
X220026531Y-126299780D01*
X220107343Y-126326717D01*
X220161218Y-126326717D01*
X220242030Y-126299780D01*
X220349780Y-126192030D01*
X220376717Y-126111218D01*
X220376717Y-126057343D01*
X220349780Y-125976531D01*
X220215093Y-125841844D01*
X220134280Y-125814906D01*
X220080406Y-125814906D01*
X219999593Y-125841844D01*
X219891844Y-125949593D01*
X219864906Y-126030406D01*
X219864906Y-126084280D01*
X219891844Y-126165093D01*
X220242030Y-125168409D02*
X220295905Y-125114534D01*
X220376717Y-125087597D01*
X220430592Y-125087597D01*
X220511404Y-125114534D01*
X220646091Y-125195346D01*
X220780778Y-125330033D01*
X220861590Y-125464720D01*
X220888528Y-125545532D01*
X220888528Y-125599407D01*
X220861590Y-125680219D01*
X220807715Y-125734094D01*
X220726903Y-125761032D01*
X220673028Y-125761032D01*
X220592216Y-125734094D01*
X220457529Y-125653282D01*
X220322842Y-125518595D01*
X220242030Y-125383908D01*
X220215093Y-125303096D01*
X220215093Y-125249221D01*
X220242030Y-125168409D01*
X212002242Y-94801845D02*
X212212736Y-94134243D01*
X212284917Y-94681266D01*
X212657804Y-94274573D01*
X212447310Y-94942175D01*
D12*
X192349523Y-120401428D02*
X192159047Y-120330000D01*
X192063809Y-120258571D01*
X191968571Y-120115714D01*
X191968571Y-120044285D01*
X192063809Y-119901428D01*
X192159047Y-119830000D01*
X192349523Y-119758571D01*
X192730476Y-119758571D01*
X192920952Y-119830000D01*
X193016190Y-119901428D01*
X193111428Y-120044285D01*
X193111428Y-120115714D01*
X193016190Y-120258571D01*
X192920952Y-120330000D01*
X192730476Y-120401428D01*
X192349523Y-120401428D01*
X192159047Y-120472857D01*
X192063809Y-120544285D01*
X191968571Y-120687142D01*
X191968571Y-120972857D01*
X192063809Y-121115714D01*
X192159047Y-121187142D01*
X192349523Y-121258571D01*
X192730476Y-121258571D01*
X192920952Y-121187142D01*
X193016190Y-121115714D01*
X193111428Y-120972857D01*
X193111428Y-120687142D01*
X193016190Y-120544285D01*
X192920952Y-120472857D01*
X192730476Y-120401428D01*
X220248571Y-104201428D02*
X220343809Y-104130000D01*
X220534285Y-104058571D01*
X221010476Y-104058571D01*
X221200952Y-104130000D01*
X221296190Y-104201428D01*
X221391428Y-104344285D01*
X221391428Y-104487142D01*
X221296190Y-104701428D01*
X220153333Y-105558571D01*
X221391428Y-105558571D01*
X192805714Y-105198571D02*
X191834285Y-105198571D01*
X192320000Y-105198571D02*
X192320000Y-103698571D01*
X192158095Y-103912857D01*
X191996190Y-104055714D01*
X191834285Y-104127142D01*
X222151428Y-112600000D02*
X223651428Y-112600000D01*
X199119285Y-99007660D02*
X198369285Y-97708621D01*
X206259047Y-97388571D02*
X205116190Y-97388571D01*
X205687619Y-97388571D02*
X205687619Y-95888571D01*
X205497142Y-96102857D01*
X205306666Y-96245714D01*
X205116190Y-96317142D01*
X207020952Y-96031428D02*
X207116190Y-95960000D01*
X207306666Y-95888571D01*
X207782857Y-95888571D01*
X207973333Y-95960000D01*
X208068571Y-96031428D01*
X208163809Y-96174285D01*
X208163809Y-96317142D01*
X208068571Y-96531428D01*
X206925714Y-97388571D01*
X208163809Y-97388571D01*
X207050952Y-128078571D02*
X206670000Y-128078571D01*
X206479523Y-128150000D01*
X206384285Y-128221428D01*
X206193809Y-128435714D01*
X206098571Y-128721428D01*
X206098571Y-129292857D01*
X206193809Y-129435714D01*
X206289047Y-129507142D01*
X206479523Y-129578571D01*
X206860476Y-129578571D01*
X207050952Y-129507142D01*
X207146190Y-129435714D01*
X207241428Y-129292857D01*
X207241428Y-128935714D01*
X207146190Y-128792857D01*
X207050952Y-128721428D01*
X206860476Y-128650000D01*
X206479523Y-128650000D01*
X206289047Y-128721428D01*
X206193809Y-128792857D01*
X206098571Y-128935714D01*
X214150714Y-126192339D02*
X214900714Y-127491378D01*
D11*
X200556529Y-130887669D02*
X200117761Y-130759364D01*
X200337145Y-130823516D02*
X200561678Y-130055672D01*
X200456474Y-130143980D01*
X200361962Y-130195724D01*
X200278142Y-130210904D01*
X201287809Y-131101510D02*
X200849041Y-130973205D01*
X201068425Y-131037358D02*
X201292958Y-130269513D01*
X201187754Y-130357821D01*
X201093242Y-130409565D01*
X201009422Y-130424745D01*
X201987674Y-130472663D02*
X202060802Y-130494047D01*
X202123238Y-130551995D01*
X202149110Y-130599251D01*
X202164290Y-130683071D01*
X202158086Y-130840019D01*
X202104626Y-131022839D01*
X202025293Y-131158403D01*
X201967345Y-131220839D01*
X201920089Y-131246711D01*
X201836269Y-131261891D01*
X201763141Y-131240507D01*
X201700705Y-131182559D01*
X201674833Y-131135303D01*
X201659653Y-131051483D01*
X201665858Y-130894534D01*
X201719318Y-130711714D01*
X201798650Y-130576150D01*
X201856598Y-130513714D01*
X201903854Y-130487842D01*
X201987674Y-130472663D01*
X195015801Y-127939301D02*
X194645965Y-127670599D01*
X194830883Y-127804950D02*
X195301112Y-127157737D01*
X195172297Y-127205412D01*
X195065874Y-127222268D01*
X194981842Y-127208304D01*
X195886686Y-127583181D02*
X195948325Y-127627965D01*
X195987573Y-127703568D01*
X195996001Y-127756780D01*
X195982037Y-127840811D01*
X195923289Y-127986481D01*
X195811330Y-128140580D01*
X195690943Y-128241467D01*
X195615340Y-128280714D01*
X195562128Y-128289142D01*
X195478097Y-128275178D01*
X195416458Y-128230395D01*
X195377210Y-128154791D01*
X195368782Y-128101580D01*
X195382746Y-128017549D01*
X195441494Y-127871878D01*
X195553453Y-127717780D01*
X195673840Y-127616893D01*
X195749443Y-127577645D01*
X195802655Y-127569217D01*
X195886686Y-127583181D01*
X196503080Y-128031018D02*
X196564719Y-128075801D01*
X196603967Y-128151405D01*
X196612394Y-128204616D01*
X196598431Y-128288647D01*
X196539683Y-128434318D01*
X196427724Y-128588416D01*
X196307337Y-128689303D01*
X196231734Y-128728551D01*
X196178522Y-128736979D01*
X196094491Y-128723015D01*
X196032851Y-128678231D01*
X195993604Y-128602628D01*
X195985176Y-128549416D01*
X195999140Y-128465385D01*
X196057888Y-128319715D01*
X196169847Y-128165616D01*
X196290234Y-128064729D01*
X196365837Y-128025482D01*
X196419048Y-128017054D01*
X196503080Y-128031018D01*
X189549914Y-121529072D02*
X189626105Y-121661037D01*
X189697191Y-121707973D01*
X189749230Y-121721917D01*
X189886300Y-121730757D01*
X190037313Y-121687558D01*
X190301245Y-121535177D01*
X190348180Y-121464090D01*
X190362124Y-121412051D01*
X190357020Y-121327020D01*
X190280830Y-121195055D01*
X190209743Y-121148119D01*
X190157704Y-121134175D01*
X190072673Y-121139279D01*
X189907716Y-121234517D01*
X189860781Y-121305604D01*
X189846837Y-121357643D01*
X189851941Y-121442674D01*
X189928131Y-121574639D01*
X189999218Y-121621575D01*
X190051257Y-121635518D01*
X190136288Y-121630415D01*
X190680830Y-121887875D02*
X190718925Y-121953858D01*
X190724029Y-122038888D01*
X190710085Y-122090927D01*
X190663150Y-122162014D01*
X190550231Y-122271196D01*
X190385274Y-122366434D01*
X190234261Y-122409633D01*
X190149230Y-122414737D01*
X190097191Y-122400793D01*
X190026105Y-122353858D01*
X189988009Y-122287875D01*
X189982906Y-122202844D01*
X189996849Y-122150805D01*
X190043785Y-122079719D01*
X190156703Y-121970537D01*
X190321660Y-121875299D01*
X190472673Y-121832100D01*
X190557704Y-121826996D01*
X190609743Y-121840940D01*
X190680830Y-121887875D01*
X188163221Y-107130543D02*
X188328030Y-106623313D01*
X188982926Y-107196603D01*
X188539927Y-105971160D02*
X188422207Y-106333467D01*
X188772742Y-106487418D01*
X188748283Y-106439416D01*
X188735596Y-106355182D01*
X188794457Y-106174029D01*
X188854232Y-106113339D01*
X188902235Y-106088881D01*
X188986468Y-106076194D01*
X189167622Y-106135054D01*
X189228311Y-106194829D01*
X189252770Y-106242832D01*
X189265456Y-106327066D01*
X189206596Y-106508219D01*
X189146821Y-106568909D01*
X189098818Y-106593367D01*
X191104400Y-101165412D02*
X191435679Y-100747443D01*
X191849669Y-101513056D01*
X191719632Y-100389183D02*
X191766958Y-100329473D01*
X191844138Y-100293426D01*
X191897656Y-100287233D01*
X191981029Y-100304704D01*
X192124111Y-100369500D01*
X192273386Y-100487814D01*
X192369144Y-100612320D01*
X192405191Y-100689500D01*
X192411383Y-100743018D01*
X192393912Y-100826391D01*
X192346587Y-100886101D01*
X192269406Y-100922148D01*
X192215889Y-100928340D01*
X192132516Y-100910870D01*
X191989433Y-100846074D01*
X191840158Y-100727760D01*
X191744401Y-100603254D01*
X191708354Y-100526073D01*
X191702162Y-100472555D01*
X191719632Y-100389183D01*
X219423343Y-98159472D02*
X219145640Y-97898692D01*
X218857090Y-98150317D01*
X218910939Y-98148624D01*
X218992557Y-98173010D01*
X219131408Y-98303400D01*
X219160871Y-98383326D01*
X219162563Y-98437174D01*
X219138177Y-98518793D01*
X219007787Y-98657644D01*
X218927861Y-98687106D01*
X218874013Y-98688799D01*
X218792394Y-98664413D01*
X218653543Y-98534023D01*
X218624081Y-98454097D01*
X218622389Y-98400249D01*
X219812126Y-98524564D02*
X219867667Y-98576720D01*
X219897129Y-98656646D01*
X219898821Y-98710494D01*
X219874436Y-98792113D01*
X219797894Y-98929272D01*
X219667504Y-99068123D01*
X219535422Y-99153126D01*
X219455496Y-99182588D01*
X219401647Y-99184280D01*
X219320029Y-99159895D01*
X219264488Y-99107739D01*
X219235026Y-99027813D01*
X219233334Y-98973964D01*
X219257719Y-98892346D01*
X219334261Y-98755187D01*
X219464651Y-98616336D01*
X219596733Y-98531333D01*
X219676659Y-98501870D01*
X219730508Y-98500178D01*
X219812126Y-98524564D01*
X220367531Y-99046124D02*
X220423071Y-99098280D01*
X220452534Y-99178206D01*
X220454226Y-99232054D01*
X220429840Y-99313672D01*
X220353299Y-99450831D01*
X220222909Y-99589682D01*
X220090826Y-99674685D01*
X220010900Y-99704148D01*
X219957052Y-99705840D01*
X219875434Y-99681454D01*
X219819893Y-99629298D01*
X219790431Y-99549372D01*
X219788738Y-99495524D01*
X219813124Y-99413906D01*
X219889666Y-99276747D01*
X220020056Y-99137895D01*
X220152138Y-99052893D01*
X220232064Y-99023430D01*
X220285912Y-99021738D01*
X220367531Y-99046124D01*
X224718807Y-105826391D02*
X224871844Y-106297390D01*
X224499593Y-106137952D01*
X224534910Y-106246644D01*
X224522223Y-106330878D01*
X224497764Y-106378881D01*
X224437075Y-106438655D01*
X224255921Y-106497516D01*
X224171688Y-106484829D01*
X224123685Y-106460371D01*
X224063910Y-106399681D01*
X223993278Y-106182297D01*
X224005964Y-106098063D01*
X224030423Y-106050061D01*
X225024881Y-106768390D02*
X225048425Y-106840851D01*
X225035738Y-106925085D01*
X225011280Y-106973088D01*
X224950590Y-107032863D01*
X224817439Y-107116182D01*
X224636286Y-107175042D01*
X224479591Y-107185900D01*
X224395357Y-107173213D01*
X224347355Y-107148754D01*
X224287580Y-107088065D01*
X224264036Y-107015603D01*
X224276722Y-106931370D01*
X224301181Y-106883367D01*
X224361870Y-106823592D01*
X224495021Y-106740273D01*
X224676175Y-106681413D01*
X224832870Y-106670555D01*
X224917103Y-106683242D01*
X224965106Y-106707701D01*
X225024881Y-106768390D01*
X225260322Y-107493004D02*
X225283866Y-107565466D01*
X225271180Y-107649699D01*
X225246721Y-107697702D01*
X225186032Y-107757477D01*
X225052881Y-107840796D01*
X224871727Y-107899656D01*
X224715032Y-107910514D01*
X224630799Y-107897827D01*
X224582796Y-107873369D01*
X224523021Y-107812679D01*
X224499477Y-107740218D01*
X224512164Y-107655984D01*
X224536622Y-107607982D01*
X224597312Y-107548207D01*
X224730462Y-107464888D01*
X224911616Y-107406027D01*
X225068311Y-107395170D01*
X225152545Y-107407856D01*
X225200547Y-107432315D01*
X225260322Y-107493004D01*
X223929734Y-119440164D02*
X223905275Y-119392161D01*
X223892588Y-119307927D01*
X223951449Y-119126774D01*
X224011224Y-119066084D01*
X224059226Y-119041626D01*
X224143460Y-119028939D01*
X224215921Y-119052483D01*
X224312842Y-119124030D01*
X224606345Y-119700064D01*
X224759382Y-119229064D01*
X224151574Y-118510851D02*
X224175118Y-118438390D01*
X224234893Y-118377701D01*
X224282896Y-118353242D01*
X224367129Y-118340555D01*
X224523824Y-118351413D01*
X224704978Y-118410273D01*
X224838129Y-118493592D01*
X224898818Y-118553367D01*
X224923277Y-118601370D01*
X224935963Y-118685603D01*
X224912419Y-118758065D01*
X224852644Y-118818754D01*
X224804642Y-118843213D01*
X224720408Y-118855900D01*
X224563713Y-118845042D01*
X224382560Y-118786182D01*
X224249409Y-118702863D01*
X224188719Y-118643088D01*
X224164261Y-118595085D01*
X224151574Y-118510851D01*
X224387016Y-117786237D02*
X224410560Y-117713775D01*
X224470335Y-117653086D01*
X224518337Y-117628627D01*
X224602571Y-117615941D01*
X224759266Y-117626798D01*
X224940420Y-117685659D01*
X225073570Y-117768978D01*
X225134260Y-117828753D01*
X225158718Y-117876755D01*
X225171405Y-117960989D01*
X225147861Y-118033450D01*
X225088086Y-118094140D01*
X225040083Y-118118598D01*
X224955850Y-118131285D01*
X224799155Y-118120427D01*
X224618001Y-118061567D01*
X224484850Y-117978248D01*
X224424161Y-117918473D01*
X224399702Y-117870470D01*
X224387016Y-117786237D01*
X214271073Y-130329342D02*
X213847218Y-130500591D01*
X214059146Y-130414966D02*
X213759460Y-129673219D01*
X213731630Y-129807725D01*
X213689529Y-129906909D01*
X213633157Y-129970771D01*
X214707066Y-129577971D02*
X214906857Y-130072469D01*
X214416294Y-129366754D02*
X214453749Y-129967927D01*
X214912925Y-129782408D01*
X215136991Y-129116661D02*
X215207633Y-129088119D01*
X215292547Y-129094899D01*
X215342139Y-129115950D01*
X215406001Y-129172322D01*
X215498405Y-129299336D01*
X215569759Y-129475943D01*
X215591521Y-129631498D01*
X215584741Y-129716412D01*
X215563690Y-129766004D01*
X215507318Y-129829866D01*
X215436676Y-129858408D01*
X215351763Y-129851628D01*
X215302171Y-129830578D01*
X215238308Y-129774206D01*
X215145904Y-129647191D01*
X215074550Y-129470585D01*
X215052788Y-129315029D01*
X215059568Y-129230116D01*
X215080619Y-129180524D01*
X215136991Y-129116661D01*
X206146666Y-131851904D02*
X205689523Y-131851904D01*
X205918095Y-131851904D02*
X205918095Y-131051904D01*
X205841904Y-131166190D01*
X205765714Y-131242380D01*
X205689523Y-131280476D01*
X206451428Y-131128095D02*
X206489523Y-131090000D01*
X206565714Y-131051904D01*
X206756190Y-131051904D01*
X206832380Y-131090000D01*
X206870476Y-131128095D01*
X206908571Y-131204285D01*
X206908571Y-131280476D01*
X206870476Y-131394761D01*
X206413333Y-131851904D01*
X206908571Y-131851904D01*
X207403809Y-131051904D02*
X207480000Y-131051904D01*
X207556190Y-131090000D01*
X207594285Y-131128095D01*
X207632380Y-131204285D01*
X207670476Y-131356666D01*
X207670476Y-131547142D01*
X207632380Y-131699523D01*
X207594285Y-131775714D01*
X207556190Y-131813809D01*
X207480000Y-131851904D01*
X207403809Y-131851904D01*
X207327619Y-131813809D01*
X207289523Y-131775714D01*
X207251428Y-131699523D01*
X207213333Y-131547142D01*
X207213333Y-131356666D01*
X207251428Y-131204285D01*
X207289523Y-131128095D01*
X207327619Y-131090000D01*
X207403809Y-131051904D01*
X215445965Y-96240932D02*
X215392912Y-95837520D01*
X215091160Y-96056232D02*
X215414384Y-95435325D01*
X215650921Y-95558458D01*
X215694663Y-95618808D01*
X215708839Y-95663767D01*
X215707622Y-95738292D01*
X215661447Y-95826993D01*
X215601097Y-95870736D01*
X215556139Y-95884911D01*
X215481613Y-95883695D01*
X215245077Y-95760562D01*
X213761919Y-94679309D02*
X214131471Y-94832382D01*
X213678816Y-95402561D02*
X213946695Y-94755846D01*
X213016147Y-94751712D02*
X213235408Y-94831517D01*
X213203970Y-95210273D02*
X212890739Y-95096266D01*
X213130153Y-94438481D01*
X213443384Y-94552488D01*
X214485184Y-95351291D02*
X214696656Y-95449902D01*
X214632327Y-95824477D02*
X214330224Y-95683604D01*
X214626057Y-95049189D01*
X214928160Y-95190062D01*
X208294170Y-93390694D02*
X208692648Y-93425556D01*
X208432400Y-94105461D02*
X208493409Y-93408125D01*
X210566201Y-94435872D02*
X210717709Y-93752465D01*
X210645562Y-94077897D02*
X211036081Y-94164473D01*
X210956719Y-94522448D02*
X211108227Y-93839041D01*
X211524313Y-94323901D02*
X211438040Y-94645876D01*
X211393831Y-93909337D02*
X211524313Y-94323901D01*
X211844596Y-94030119D01*
X210229962Y-94273825D02*
X210191347Y-94300864D01*
X210087078Y-94316326D01*
X210021424Y-94304749D01*
X209928732Y-94254558D01*
X209874655Y-94177327D01*
X209853404Y-94105885D01*
X209843730Y-93968789D01*
X209861095Y-93870308D01*
X209917075Y-93744789D01*
X209961479Y-93684923D01*
X210038709Y-93630846D01*
X210142978Y-93615384D01*
X210208632Y-93626961D01*
X210301324Y-93677152D01*
X210328363Y-93715767D01*
D14*
X219205714Y-132532380D02*
X219205714Y-131532380D01*
X219539047Y-132246666D01*
X219872380Y-131532380D01*
X219872380Y-132532380D01*
X220348571Y-132532380D02*
X220348571Y-131532380D01*
X220443809Y-132151428D02*
X220729523Y-132532380D01*
X220729523Y-131865714D02*
X220348571Y-132246666D01*
X221062857Y-131532380D02*
X221729523Y-131532380D01*
X221300952Y-132532380D01*
D16*
X224674772Y-112600000D02*
G75*
G03*
X224674772Y-112600000I-18034772J0D01*
G01*
X226490426Y-112600000D02*
G75*
G03*
X226490426Y-112600000I-19850426J0D01*
G01*
D11*
X206421428Y-93301904D02*
X206269047Y-93301904D01*
X206192857Y-93340000D01*
X206154761Y-93378095D01*
X206078571Y-93492380D01*
X206040476Y-93644761D01*
X206040476Y-93949523D01*
X206078571Y-94025714D01*
X206116666Y-94063809D01*
X206192857Y-94101904D01*
X206345238Y-94101904D01*
X206421428Y-94063809D01*
X206459523Y-94025714D01*
X206497619Y-93949523D01*
X206497619Y-93759047D01*
X206459523Y-93682857D01*
X206421428Y-93644761D01*
X206345238Y-93606666D01*
X206192857Y-93606666D01*
X206116666Y-93644761D01*
X206078571Y-93682857D01*
X206040476Y-93759047D01*
X206992857Y-93301904D02*
X207069047Y-93301904D01*
X207145238Y-93340000D01*
X207183333Y-93378095D01*
X207221428Y-93454285D01*
X207259523Y-93606666D01*
X207259523Y-93797142D01*
X207221428Y-93949523D01*
X207183333Y-94025714D01*
X207145238Y-94063809D01*
X207069047Y-94101904D01*
X206992857Y-94101904D01*
X206916666Y-94063809D01*
X206878571Y-94025714D01*
X206840476Y-93949523D01*
X206802380Y-93797142D01*
X206802380Y-93606666D01*
X206840476Y-93454285D01*
X206878571Y-93378095D01*
X206916666Y-93340000D01*
X206992857Y-93301904D01*
X197784471Y-95487654D02*
X197649430Y-95558252D01*
X197599559Y-95627311D01*
X197583449Y-95678720D01*
X197568877Y-95815299D01*
X197605714Y-95967989D01*
X197746909Y-96238070D01*
X197815968Y-96287941D01*
X197867377Y-96304052D01*
X197952547Y-96302513D01*
X198087587Y-96231916D01*
X198137458Y-96162857D01*
X198153569Y-96111447D01*
X198152031Y-96026278D01*
X198063784Y-95857477D01*
X197994725Y-95807606D01*
X197943315Y-95791495D01*
X197858146Y-95793034D01*
X197723105Y-95863631D01*
X197673234Y-95932690D01*
X197657123Y-95984100D01*
X197658662Y-96069270D01*
X198493434Y-95117017D02*
X198155832Y-95293511D01*
X198298566Y-95648762D01*
X198314677Y-95597352D01*
X198364548Y-95528293D01*
X198533348Y-95440047D01*
X198618518Y-95438508D01*
X198669927Y-95454619D01*
X198738986Y-95504490D01*
X198827233Y-95673290D01*
X198828772Y-95758460D01*
X198812661Y-95809869D01*
X198762790Y-95878928D01*
X198593989Y-95967175D01*
X198508820Y-95968714D01*
X198457410Y-95952603D01*
X187704761Y-113117142D02*
X187666666Y-113193333D01*
X187628571Y-113231428D01*
X187552380Y-113269523D01*
X187514285Y-113269523D01*
X187438095Y-113231428D01*
X187400000Y-113193333D01*
X187361904Y-113117142D01*
X187361904Y-112964761D01*
X187400000Y-112888571D01*
X187438095Y-112850476D01*
X187514285Y-112812380D01*
X187552380Y-112812380D01*
X187628571Y-112850476D01*
X187666666Y-112888571D01*
X187704761Y-112964761D01*
X187704761Y-113117142D01*
X187742857Y-113193333D01*
X187780952Y-113231428D01*
X187857142Y-113269523D01*
X188009523Y-113269523D01*
X188085714Y-113231428D01*
X188123809Y-113193333D01*
X188161904Y-113117142D01*
X188161904Y-112964761D01*
X188123809Y-112888571D01*
X188085714Y-112850476D01*
X188009523Y-112812380D01*
X187857142Y-112812380D01*
X187780952Y-112850476D01*
X187742857Y-112888571D01*
X187704761Y-112964761D01*
X187361904Y-112317142D02*
X187361904Y-112240952D01*
X187400000Y-112164761D01*
X187438095Y-112126666D01*
X187514285Y-112088571D01*
X187666666Y-112050476D01*
X187857142Y-112050476D01*
X188009523Y-112088571D01*
X188085714Y-112126666D01*
X188123809Y-112164761D01*
X188161904Y-112240952D01*
X188161904Y-112317142D01*
X188123809Y-112393333D01*
X188085714Y-112431428D01*
X188009523Y-112469523D01*
X187857142Y-112507619D01*
X187666666Y-112507619D01*
X187514285Y-112469523D01*
X187438095Y-112431428D01*
X187400000Y-112393333D01*
X187361904Y-112317142D01*
X225811904Y-111669523D02*
X225850000Y-111707619D01*
X225888095Y-111783809D01*
X225888095Y-111974285D01*
X225850000Y-112050476D01*
X225811904Y-112088571D01*
X225735714Y-112126666D01*
X225659523Y-112126666D01*
X225545238Y-112088571D01*
X225088095Y-111631428D01*
X225088095Y-112126666D01*
X225621428Y-112812380D02*
X225088095Y-112812380D01*
X225926190Y-112621904D02*
X225354761Y-112431428D01*
X225354761Y-112926666D01*
X225888095Y-113383809D02*
X225888095Y-113460000D01*
X225850000Y-113536190D01*
X225811904Y-113574285D01*
X225735714Y-113612380D01*
X225583333Y-113650476D01*
X225392857Y-113650476D01*
X225240476Y-113612380D01*
X225164285Y-113574285D01*
X225126190Y-113536190D01*
X225088095Y-113460000D01*
X225088095Y-113383809D01*
X225126190Y-113307619D01*
X225164285Y-113269523D01*
X225240476Y-113231428D01*
X225392857Y-113193333D01*
X225583333Y-113193333D01*
X225735714Y-113231428D01*
X225811904Y-113269523D01*
X225850000Y-113307619D01*
X225888095Y-113383809D01*
X209069531Y-93973914D02*
X209400012Y-94017422D01*
X208977329Y-94163501D02*
X209300035Y-93499946D01*
X209440003Y-94224413D01*
M02*
