G04 #@! TF.GenerationSoftware,KiCad,Pcbnew,(5.1.4)-1*
G04 #@! TF.CreationDate,2020-04-06T10:41:00+02:00*
G04 #@! TF.ProjectId,base24mm,62617365-3234-46d6-9d2e-6b696361645f,v0.5.2*
G04 #@! TF.SameCoordinates,Original*
G04 #@! TF.FileFunction,Profile,NP*
%FSLAX46Y46*%
G04 Gerber Fmt 4.6, Leading zero omitted, Abs format (unit mm)*
G04 Created by KiCad (PCBNEW (5.1.4)-1) date 2020-04-06 10:41:00*
%MOMM*%
%LPD*%
G04 APERTURE LIST*
%ADD10C,0.200000*%
%ADD11C,0.050000*%
G04 APERTURE END LIST*
D10*
X236990000Y-139580000D02*
X236990000Y-145240000D01*
X236990000Y-145240000D02*
X235320000Y-148750000D01*
X204990000Y-145240000D02*
X206660000Y-148750000D01*
X237493266Y-108093707D02*
X235520000Y-98640000D01*
X208900000Y-145514372D02*
X208900000Y-147514372D01*
X233100000Y-147514372D02*
X233100000Y-145514372D01*
X233100000Y-145514372D02*
X208900000Y-145514372D01*
X208900000Y-147514372D02*
X233100000Y-147514372D01*
X206660000Y-148750000D02*
X235320000Y-148750000D01*
D11*
X206020000Y-120510000D02*
X235960000Y-120510000D01*
X206020000Y-134490000D02*
X206020000Y-120510000D01*
X235960000Y-134490000D02*
X206020000Y-134490000D01*
X235960000Y-120510000D02*
X235960000Y-134490000D01*
D10*
X239510000Y-129910000D02*
G75*
G03X239510000Y-129910000I-1200000J0D01*
G01*
X202400000Y-128010000D02*
G75*
G03X202400000Y-128010000I-1200000J0D01*
G01*
X235520000Y-98640000D02*
X206460000Y-98640000D01*
X233090000Y-101870000D02*
X233090000Y-99870000D01*
X208890000Y-99870000D02*
X208890000Y-101870000D01*
X208890000Y-101870000D02*
X233090000Y-101870000D01*
X233090000Y-99870000D02*
X208890000Y-99870000D01*
X204490001Y-108090001D02*
X206460000Y-98640000D01*
X204486734Y-137186293D02*
G75*
G02X204490001Y-108090001I16503266J14546293D01*
G01*
X237493266Y-108093707D02*
G75*
G02X237489999Y-137189999I-16503266J-14546293D01*
G01*
X204990000Y-139580000D02*
X204990000Y-145240000D01*
X204485040Y-137184371D02*
X204990000Y-139580000D01*
X237489999Y-137189999D02*
X236990000Y-139580000D01*
X208880000Y-105220000D02*
G75*
G03X208880000Y-105220000I-1200000J0D01*
G01*
X235510000Y-105220000D02*
G75*
G03X235510000Y-105220000I-1200000J0D01*
G01*
M02*
